<!-- Seema favicon - khadi tile, roast spiral. Legible at 16-32px. -->
<svg xmlns="http://www.w3.org/2000/svg" viewBox="0 0 32 32">
  <rect width="32" height="32" rx="7" fill="#F5EEE3"/>
  <path d="M16 14.8C16.15 14.8 16.61 14.71 16.92 14.79C17.23 14.88 17.63 15.03 17.88 15.3C18.13 15.56 18.34 15.96 18.44 16.37C18.53 16.78 18.59 17.33 18.44 17.76C18.29 18.19 17.93 18.65 17.53 18.95C17.14 19.25 16.61 19.46 16.07 19.56C15.53 19.66 14.84 19.74 14.28 19.55C13.72 19.37 13.13 18.93 12.71 18.43C12.28 17.93 11.8 17.21 11.72 16.54C11.64 15.87 11.92 15.07 12.23 14.4C12.54 13.74 12.98 13.03 13.57 12.55C14.16 12.07 14.98 11.65 15.79 11.51C16.59 11.38 17.58 11.43 18.41 11.73C19.24 12.03 20.21 12.6 20.74 13.33C21.27 14.06 21.51 15.15 21.59 16.1C21.68 17.05 21.62 18.14 21.25 19.04C20.89 19.95 20.2 20.87 19.4 21.53C18.59 22.19 17.51 22.81 16.43 23C15.35 23.2 13.96 23.14 12.92 22.71C11.87 22.27 10.85 21.33 10.14 20.37C9.43 19.42 8.82 18.16 8.67 16.96C8.52 15.76 8.78 14.38 9.24 13.18C9.7 11.99 10.42 10.64 11.42 9.8C12.43 8.96 13.92 8.33 15.28 8.14C16.64 7.95 18.28 8.12 19.58 8.66C20.88 9.2 22.2 10.23 23.08 11.38C23.95 12.52 24.59 14.06 24.84 15.54C25.09 17.02 25.1 18.8 24.58 20.26C24.05 21.71 22.31 23.3 21.7 24.25C21.1 25.2 21.16 25.33 20.94 25.94C20.71 26.55 20.46 27.57 20.37 27.9" fill="none" stroke="#2E1F16" stroke-width="2.5" stroke-linecap="round" stroke-linejoin="round"/>
</svg>