<!-- Seema wordmark - Fraunces display instance (opsz 144 / wght 540 / SOFT 50 / WONK 1),
     lettering outlined to paths (font-independent). Mono: inherits currentColor.
     Devanagari accent: IBM Plex Sans Devanagari Medium, outlined. -->
<svg xmlns="http://www.w3.org/2000/svg" viewBox="0 0 2706 1264.73" role="img" aria-label="Seema">
  <g id="wordmark" transform="translate(24 771.5)">
    <path id="seema-latin" fill="currentColor" d="M294 11.5L294 11.5Q250.5 11.5 221.75 0.5Q193 -10.5 176.25 -21.5Q159.5 -32.5 152 -32.5L152 -32.5Q146.5 -32.5 140.75 -25.75Q135 -19 129.25 -10.25Q123.5 -1.5 117.5 5.25Q111.5 12 105 12L105 12Q96.5 12 91.25 6.5Q86 1 83.5 -9.5L83.5 -9.5L49 -183.5Q47.5 -191.5 50.25 -197.75Q53 -204 60.5 -206L60.5 -206Q68 -208 73.5 -205Q79 -202 84 -192.5L84 -192.5Q113 -130.5 144.5 -94Q176 -57.5 211.25 -41.75Q246.5 -26 286 -26L286 -26Q337 -26 368.75 -54Q400.5 -82 401 -132.5L401 -132.5Q401 -164.5 387.5 -191Q374 -217.5 338.5 -241.5Q303 -265.5 237 -289L237 -289Q163 -315.5 119 -348Q75 -380.5 55.5 -421.25Q36 -462 36 -512L36 -512Q36 -570.5 64 -615.25Q92 -660 141.75 -685.5Q191.5 -711 256 -711L256 -711Q298.5 -711 326.25 -701.25Q354 -691.5 370.75 -681.5Q387.5 -671.5 397 -671.5L397 -671.5Q405.5 -671.5 413.25 -681.5Q421 -691.5 429.5 -701.5Q438 -711.5 447.5 -711.5L447.5 -711.5Q455.5 -711.5 460.25 -706.25Q465 -701 469 -686.5L469 -686.5L516.5 -510.5Q519 -501 517 -494.75Q515 -488.5 506.5 -485.5L506.5 -485.5Q499 -483 492.75 -486.25Q486.5 -489.5 482 -498L482 -498Q451 -563 417 -601.25Q383 -639.5 345.5 -656Q308 -672.5 267 -672.5L267 -672.5Q216 -672.5 183.75 -641.5Q151.5 -610.5 151.5 -557.5L151.5 -557.5Q151.5 -525 164.75 -497.75Q178 -470.5 212.75 -446Q247.5 -421.5 312 -397L312 -397Q388.5 -368 432.75 -335.75Q477 -303.5 495.5 -265.25Q514 -227 514 -178.5L514 -178.5Q514 -125 487.5 -81.75Q461 -38.5 411.75 -13.5Q362.5 11.5 294 11.5Z M946.5 -270.5L946.5 -270.5Q946.5 -252.5 937 -242.75Q927.5 -233 909 -233L909 -233L624 -233L624 -260.5L814.5 -260.5Q832.5 -260.5 832.5 -279L832.5 -279Q832.5 -345 809 -379.25Q785.5 -413.5 750 -413.5L750 -413.5Q720.5 -413.5 698.5 -395.25Q676.5 -377 664 -341.5Q651.5 -306 651.5 -254L651.5 -254Q651.5 -160 692.75 -111.75Q734 -63.5 800.5 -63.5L800.5 -63.5Q846.5 -63.5 879.5 -87.5Q912.5 -111.5 923 -149.5L923 -149.5Q926.5 -154.5 929.75 -156.5Q933 -158.5 936 -158.5L936 -158.5Q940.5 -158.5 943.25 -155.25Q946 -152 945.5 -145L945.5 -145Q942.5 -102.5 918.25 -67.25Q894 -32 852.75 -11Q811.5 10 758 10L758 10Q694.5 10 647.25 -17.75Q600 -45.5 574 -95.75Q548 -146 548 -212.5L548 -212.5Q548 -281 574 -334Q600 -387 648.75 -417.25Q697.5 -447.5 765 -447.5L765 -447.5Q820 -447.5 860.75 -424.5Q901.5 -401.5 924 -361.25Q946.5 -321 946.5 -270.5Z M1376 -270.5L1376 -270.5Q1376 -252.5 1366.5 -242.75Q1357 -233 1338.5 -233L1338.5 -233L1053.5 -233L1053.5 -260.5L1244 -260.5Q1262 -260.5 1262 -279L1262 -279Q1262 -345 1238.5 -379.25Q1215 -413.5 1179.5 -413.5L1179.5 -413.5Q1150 -413.5 1128 -395.25Q1106 -377 1093.5 -341.5Q1081 -306 1081 -254L1081 -254Q1081 -160 1122.25 -111.75Q1163.5 -63.5 1230 -63.5L1230 -63.5Q1276 -63.5 1309 -87.5Q1342 -111.5 1352.5 -149.5L1352.5 -149.5Q1356 -154.5 1359.25 -156.5Q1362.5 -158.5 1365.5 -158.5L1365.5 -158.5Q1370 -158.5 1372.75 -155.25Q1375.5 -152 1375 -145L1375 -145Q1372 -102.5 1347.75 -67.25Q1323.5 -32 1282.25 -11Q1241 10 1187.5 10L1187.5 10Q1124 10 1076.75 -17.75Q1029.5 -45.5 1003.5 -95.75Q977.5 -146 977.5 -212.5L977.5 -212.5Q977.5 -281 1003.5 -334Q1029.5 -387 1078.25 -417.25Q1127 -447.5 1194.5 -447.5L1194.5 -447.5Q1249.5 -447.5 1290.25 -424.5Q1331 -401.5 1353.5 -361.25Q1376 -321 1376 -270.5Z M1565 -427L1565 -427L1565 -61Q1565 -48.5 1568.25 -42.25Q1571.5 -36 1580 -33.5L1580 -33.5L1602 -28.5Q1611.5 -24 1611.5 -14.5L1611.5 -14.5Q1611.5 0 1596 0L1596 0L1420 0Q1412.5 0 1408 -4Q1403.5 -8 1403.5 -14.5L1403.5 -14.5Q1403.5 -20 1406.5 -23.75Q1409.5 -27.5 1415 -30.5L1415 -30.5L1437.5 -35Q1445.5 -37.5 1449 -43Q1452.5 -48.5 1452.5 -60.5L1452.5 -60.5L1452.5 -355.5Q1452.5 -365 1449.75 -369.25Q1447 -373.5 1440.5 -375L1440.5 -375L1411.5 -376Q1406 -378 1403.25 -381.25Q1400.5 -384.5 1400.5 -389.5L1400.5 -389.5Q1400.5 -395 1404.25 -399Q1408 -403 1416.5 -406.5L1416.5 -406.5L1520 -438.5Q1531 -442.5 1537 -444Q1543 -445.5 1548.5 -445.5L1548.5 -445.5Q1556.5 -445.5 1560.75 -440.25Q1565 -435 1565 -427ZM1570 -338L1554 -322.5L1539 -339L1557.5 -357.5Q1608 -407 1649.5 -427.25Q1691 -447.5 1729 -447.5L1729 -447.5Q1780.5 -447.5 1812.5 -414.25Q1844.5 -381 1844.5 -315.5L1844.5 -315.5L1844.5 -61Q1844.5 -48 1848.25 -41.75Q1852 -35.5 1860.5 -33L1860.5 -33L1878.5 -28.5Q1888.5 -24 1888.5 -14.5L1888.5 -14.5Q1888.5 0 1872.5 0L1872.5 0L1701 0Q1685.5 0 1685.5 -14.5L1685.5 -14.5Q1685.5 -24 1695.5 -28.5L1695.5 -28.5L1716.5 -33Q1726.5 -36 1729.75 -43.25Q1733 -50.5 1733 -64L1733 -64L1733 -295Q1733 -337 1713.25 -358.75Q1693.5 -380.5 1661.5 -380.5L1661.5 -380.5Q1639 -380.5 1616.5 -370.5Q1594 -360.5 1570 -338L1570 -338ZM1848 -341L1832 -324.5L1817.5 -341L1835.5 -360Q1879 -406.5 1915.5 -427Q1952 -447.5 1989 -447.5L1989 -447.5Q2038.5 -447.5 2066.5 -416Q2094.5 -384.5 2102.5 -323L2102.5 -323L2136.5 -61.5Q2138 -48.5 2141.25 -42.5Q2144.5 -36.5 2153 -34L2153 -34L2170.5 -30Q2176 -27.5 2179 -23.75Q2182 -20 2182 -14.5L2182 -14.5Q2182 -7.5 2177.5 -3.75Q2173 0 2165.5 0L2165.5 0L1990 0Q1974.5 0 1974.5 -14.5L1974.5 -14.5Q1974.5 -23.5 1985 -28.5L1985 -28.5L2005.5 -33Q2015.5 -36 2019.75 -43Q2024 -50 2022 -63L2022 -63L1992.5 -295Q1986.5 -337 1970.25 -358.75Q1954 -380.5 1923.5 -380.5L1923.5 -380.5Q1905.5 -380.5 1887.25 -371Q1869 -361.5 1848 -341L1848 -341Z M2458.5 -54.5L2458.5 -54.5L2458.5 -63.5L2451 -62.5L2451 -345.5Q2451 -381.5 2434.75 -401Q2418.5 -420.5 2388.5 -420.5L2388.5 -420.5Q2358.5 -420.5 2342.75 -406.5Q2327 -392.5 2327 -373L2327 -373L2327 -342.5Q2327 -316.5 2311 -301Q2295 -285.5 2267.5 -285.5L2267.5 -285.5Q2244.5 -285.5 2232 -298.25Q2219.5 -311 2219.5 -334L2219.5 -334Q2219.5 -362.5 2240.5 -388.5Q2261.5 -414.5 2303.25 -431Q2345 -447.5 2406 -447.5L2406 -447.5Q2485 -447.5 2524.5 -413.5Q2564 -379.5 2564 -318L2564 -318L2564 -74Q2564 -59.5 2569.5 -51.75Q2575 -44 2585 -44L2585 -44Q2592.5 -44 2598.25 -48Q2604 -52 2606.5 -60L2606.5 -60Q2607.5 -62.5 2609.25 -63.75Q2611 -65 2613.5 -65L2613.5 -65Q2617.5 -65 2619.75 -61.5Q2622 -58 2622 -52.5L2622 -52.5Q2622 -39.5 2612.75 -25Q2603.5 -10.5 2585 -0.5Q2566.5 9.5 2538 9.5L2538 9.5Q2500 9.5 2479.25 -8.25Q2458.5 -26 2458.5 -54.5ZM2198 -98.5L2198 -98.5Q2198 -156 2245.25 -190.25Q2292.5 -224.5 2383 -224.5L2383 -224.5Q2411 -224.5 2433 -219.5Q2455 -214.5 2472 -206.5L2472 -206.5L2465 -184Q2448 -192 2430.75 -196.25Q2413.5 -200.5 2392 -200.5L2392 -200.5Q2354 -200.5 2332.5 -178.5Q2311 -156.5 2311 -117.5L2311 -117.5Q2311 -79.5 2330.5 -59.75Q2350 -40 2381 -40L2381 -40Q2405.5 -40 2427.75 -51.25Q2450 -62.5 2464.5 -82.5L2464.5 -82.5L2472.5 -62Q2450.5 -28 2411 -9.25Q2371.5 9.5 2325 9.5L2325 9.5Q2267.5 9.5 2232.75 -20.25Q2198 -50 2198 -98.5Z"/>
    <path id="seema-devanagari" fill="currentColor" d="M2148.42 433.23L2096.04 351.42L2096.04 326.85L2104.14 326.85Q2117.91 326.85 2126.01 318.62Q2134.11 310.38 2134.11 294.45L2134.11 294.45L2134.11 262.86L2075.52 262.86L2075.52 241.53L2276.94 241.53L2276.94 262.86L2242.11 262.86L2242.11 429.99L2214.84 429.99L2214.84 353.58L2126.55 353.58L2126.55 354.12L2140.05 372.21L2169.48 418.92L2148.42 433.23ZM2143.02 330.63L2143.02 331.17L2167.59 330.36L2214.84 330.36L2214.84 262.86L2162.19 262.86L2162.19 292.29Q2162.19 306.6 2157.87 315.38Q2153.55 324.15 2143.02 330.63L2143.02 330.63ZM2300.97 429.99L2300.97 262.86L2266.14 262.86L2266.14 241.53L2301.51 241.53L2301.51 229.11Q2301.51 215.34 2294.49 208.05Q2287.47 200.76 2274.78 200.76L2274.78 200.76Q2262.63 200.76 2253.72 207.78Q2244.81 214.8 2236.44 226.95L2236.44 226.95L2216.19 211.83Q2225.91 196.71 2240.36 186.85Q2254.8 177 2274.78 177L2274.78 177Q2286.93 177 2296.92 180.64Q2306.91 184.29 2313.8 191.04Q2320.68 197.79 2324.46 207.38Q2328.24 216.96 2328.24 228.57L2328.24 228.57L2328.24 241.53L2363.07 241.53L2363.07 262.86L2328.24 262.86L2328.24 429.99L2300.97 429.99ZM2401.41 375.18L2401.41 375.18Q2388.99 375.18 2382.38 368.97Q2375.76 362.76 2375.76 350.61L2375.76 350.61Q2375.76 333.33 2388.99 328.2L2388.99 328.2L2388.99 262.86L2352.27 262.86L2352.27 241.53L2535.87 241.53L2535.87 262.86L2501.04 262.86L2501.04 429.99L2473.77 429.99L2473.77 348.99L2416.26 348.99L2416.26 372.75Q2410.59 375.18 2401.41 375.18ZM2473.77 262.86L2416.26 262.86L2416.26 326.31L2473.77 326.31L2473.77 262.86ZM2559.9 429.99L2559.9 262.86L2525.07 262.86L2525.07 241.53L2622 241.53L2622 262.86L2587.17 262.86L2587.17 429.99L2559.9 429.99Z"/>
  </g>
</svg>