<!-- Seema master seal - THE spiral. One open Archimedean chakli coil, hand wobble,
     drawn center-out (the way a chakli is piped), open tail = unwindable.
     Shared asset: the SVG agent samples #spiral-master for all morph states.
     55 path commands. Seeded generator (seed 117) - do not hand-edit. -->
<svg xmlns="http://www.w3.org/2000/svg" viewBox="0 0 120 120" role="img" aria-label="Seema chakli seal">
  <path id="spiral-master" d="M60 57C60.25 56.94 60.93 56.66 61.48 56.66C62.03 56.66 62.72 56.71 63.31 56.99C63.9 57.27 64.56 57.74 65.02 58.33C65.48 58.93 65.88 59.73 66.08 60.59C66.27 61.45 66.46 62.58 66.21 63.5C65.96 64.42 65.31 65.45 64.56 66.12C63.81 66.78 62.75 67.1 61.71 67.51C60.67 67.91 59.53 68.49 58.33 68.55C57.12 68.62 55.73 68.39 54.49 67.88C53.26 67.37 52.03 66.55 50.92 65.49C49.8 64.44 48.28 63.06 47.83 61.55C47.37 60.05 47.66 58.02 48.19 56.47C48.71 54.93 49.93 53.63 50.98 52.3C52.03 50.97 53.04 49.47 54.48 48.48C55.91 47.49 57.75 46.71 59.59 46.36C61.43 46.02 63.46 46.07 65.53 46.42C67.6 46.76 70.33 47.11 72 48.43C73.66 49.75 74.76 52.22 75.5 54.33C76.25 56.44 76.47 58.8 76.47 61.1C76.47 63.4 76.37 65.96 75.49 68.13C74.62 70.31 73 72.4 71.22 74.15C69.45 75.9 67.26 77.57 64.83 78.63C62.4 79.69 59.35 80.68 56.63 80.5C53.9 80.33 50.89 79.08 48.48 77.59C46.07 76.09 43.86 73.9 42.14 71.54C40.43 69.19 38.83 66.34 38.2 63.45C37.57 60.57 37.74 57.24 38.36 54.25C38.99 51.26 40.27 48.29 41.94 45.49C43.61 42.7 45.61 39.38 48.36 37.49C51.11 35.6 54.96 34.5 58.44 34.14C61.91 33.78 65.82 34.2 69.19 35.32C72.56 36.44 76.07 38.41 78.67 40.87C81.28 43.33 83.32 46.71 84.83 50.06C86.35 53.42 87.5 57.21 87.75 61.01C88 64.8 87.72 69.14 86.34 72.82C84.96 76.5 82.41 80.23 79.47 83.08C76.54 85.93 72.66 88.59 68.73 89.91C64.79 91.22 59.99 91.6 55.86 90.99C51.72 90.38 47.59 88.4 43.91 86.25C40.24 84.1 36.63 81.42 33.79 78.09C30.95 74.76 28.06 70.58 26.89 66.27C25.72 61.96 26 56.87 26.77 52.23C27.53 47.6 28.84 42.42 31.46 38.47C34.09 34.52 38.28 30.86 42.5 28.53C46.72 26.21 51.92 24.99 56.78 24.51C61.63 24.04 66.83 24.39 71.61 25.69C76.39 26.99 81.47 29.16 85.45 32.3C89.42 35.45 93.01 39.89 95.47 44.55C97.93 49.21 99.95 54.88 100.22 60.24C100.5 65.6 99.33 71.74 97.12 76.7C94.9 81.67 91.01 86.31 86.94 90.05C82.88 93.78 75.7 97.03 72.71 99.11C69.71 101.19 70.18 101.26 68.98 102.53C67.78 103.79 66.08 105.99 65.5 106.68" fill="none" stroke="currentColor" stroke-width="2" stroke-linecap="round" stroke-linejoin="round"/>
</svg>