<!-- Seema v3 · agent D · honesty dial furniture (B4 "nothing to hide" / reused B9 "fresh by batch") -->
<svg xmlns="http://www.w3.org/2000/svg" viewBox="0 0 680 680" fill="none" stroke="currentColor" stroke-width="2" stroke-linecap="round" stroke-linejoin="round" aria-hidden="true" focusable="false">
  <path id="dial-ring" d="M356.1 71.7L360.7 71.7L365.4 71.5L370.1 71.5L374.7 71.6L379.3 72.1L383.9 72.9L388.4 73.9L393 75L397.5 76.1L402 77.1L406.5 78L411.1 79L415.6 80L420.1 81.2L424.5 82.6L428.9 84.1L433.3 85.7L437.7 87.2L442.1 88.8L446.4 90.5L450.7 92.3L454.8 94.5L458.8 97L462.7 99.6L466.5 102.2L470.3 104.8L474.3 107.2L478.3 109.5L482.3 111.8L486.3 114.1L490.2 116.6L494 119.2L497.8 121.9L501.5 124.6L505.2 127.4L508.9 130.1L512.6 132.9L516.2 135.8L519.7 138.8L523 142.1L526.2 145.4L529.4 148.7L532.7 152L536.1 155.2L539.6 158.2L543.1 161.3L546.5 164.5L549.8 167.8L552.8 171.4L555.6 175.1L558.3 178.9L560.9 182.7L563.6 186.6L566.1 190.4L568.6 194.4L570.8 198.5L572.9 202.6L574.9 206.8L576.8 211.1L578.8 215.2L580.9 219.4L583.1 223.4L585.4 227.5L587.5 231.6L589.3 235.9L590.9 240.2L592.2 244.7L593.5 249.2L594.7 253.6L596 258.1L597.3 262.5L598.6 266.9L599.9 271.3L601.1 275.8L602.1 280.3L603.2 284.8L604.3 289.2L605.5 293.7L606.7 298.2L608 302.7L609 307.3L609.8 311.9L610.2 316.5L610.4 321.1L610.3 325.8L610.3 330.4L610.3 335.1L610.5 339.7L610.6 344.4L610.6 349L610.5 353.7L610.1 358.3L609.7 362.9L609.2 367.5L608.7 372.1L608.2 376.8L607.6 381.4L606.9 386L605.8 390.5L604.5 395L603 399.4L601.3 403.7L599.8 408.1L598.4 412.5L597.1 416.9L596 421.4L594.8 425.8L593.5 430.3L592.1 434.7L590.5 439L588.8 443.3L587.1 447.6L585.4 451.9L583.7 456.2L581.8 460.5L579.8 464.6L577.5 468.7L575.1 472.7L572.6 476.6L570.2 480.5L567.9 484.5L565.7 488.6L563.5 492.7L561.2 496.8L558.8 500.8L556.1 504.6L553.2 508.2L550.1 511.7L546.9 515.2L543.8 518.6L540.6 521.9L537.3 525.3L534 528.5L530.4 531.5L526.8 534.4L523.2 537.3L519.6 540.2L516.1 543.2L512.7 546.4L509.3 549.5L505.9 552.6L502.3 555.6L498.6 558.3L494.7 560.8L490.7 563.2L486.7 565.5L482.7 567.8L478.8 570.3L474.9 572.7L470.9 575.1L466.9 577.4L462.9 579.6L458.8 581.8L454.7 583.9L450.6 586.2L446.6 588.5L442.5 590.8L438.3 592.9L434.1 594.8L429.7 596.4L425.2 597.7L420.7 598.8L416.1 599.8L411.6 600.8L407.1 601.9L402.6 603.1L398.1 604.2L393.6 605.2L389 606L384.4 606.6L379.8 607.2L375.2 607.8L370.6 608.4L366 609L361.4 609.4L356.7 609.6L352.1 609.6L347.5 609.2L342.8 608.8L338.2 608.4L333.6 608.1L329 608L324.4 608.1L319.8 608.1L315.2 608.1L310.5 607.9L305.9 607.5L301.3 607L296.7 606.4L292.1 605.8L287.5 605.3L282.9 604.6L278.4 603.7L273.9 602.5L269.4 601.1L265 599.6L260.6 598.1L256.2 596.8L251.7 595.5L247.2 594.3L242.7 593.1L238.3 591.7L234 590L229.7 588L225.6 585.8L221.5 583.6L217.5 581.3L213.5 578.9L209.5 576.6L205.5 574.1L201.7 571.5L198 568.8L194.3 566L190.6 563.2L186.8 560.5L183 558L179 555.6L175.1 553.1L171.3 550.4L167.7 547.6L164.2 544.5L160.9 541.3L157.6 538.1L154.3 534.8L150.9 531.6L147.6 528.5L144.2 525.3L140.9 522L137.8 518.6L134.7 515.2L131.6 511.7L128.5 508.3L125.3 504.9L122.2 501.4L119.1 497.9L116.2 494.3L113.6 490.4L111.2 486.4L109.1 482.2L107.1 478L105.1 473.8L103 469.6L100.9 465.5L98.7 461.4L96.7 457.2L94.8 453L93 448.7L91.3 444.4L89.7 440.1L88 435.8L86.3 431.5L84.6 427.2L83.2 422.8L82 418.3L81 413.8L80.2 409.2L79.5 404.6L78.6 400.1L77.5 395.6L76.3 391.2L75 386.7L73.8 382.2L72.8 377.7L72 373.1L71.3 368.6L70.7 364L70.1 359.4L69.6 354.7L69.1 350.1L68.9 345.5L68.9 340.8L69.1 336.2L69.6 331.5L70 326.9L70.4 322.3L70.7 317.6L70.8 313L71 308.3L71.3 303.7L71.9 299.1L72.8 294.5L73.9 290L75.1 285.5L76.4 281L77.7 276.6L79 272.1L80.3 267.7L81.9 263.3L83.5 259L85.3 254.7L87 250.5L88.7 246.2L90.2 241.8L91.5 237.4L92.9 232.9L94.3 228.5L96.1 224.2L98.1 220L100.3 216L102.6 212L104.9 208L107.2 203.9L109.4 199.9L111.7 195.8L114 191.8L116.5 187.9L119.1 184.1L121.8 180.3L124.5 176.5L127.1 172.7L129.7 168.8L132.4 165L135.2 161.3L138.3 157.8L141.7 154.5L145.2 151.5L148.9 148.6L152.5 145.7L156.1 142.7L159.6 139.7L163.1 136.6L166.6 133.6L170.2 130.7L173.9 127.9L177.6 125.2L181.4 122.5L185.1 119.8L188.8 117L192.6 114.3L196.4 111.7L200.4 109.3L204.5 107.2L208.6 105.2L212.8 103.3L217 101.3L221.1 99.1L225.1 96.9L229.1 94.5L233.1 92.2L237.3 90L241.5 88L245.7 86.2L250.1 84.5L254.4 82.9L258.8 81.3L263.2 79.8L267.6 78.4L272.2 77.3L276.7 76.4L281.4 75.7L286 75.1L290.6 74.5L295.1 73.8L299.7 72.9L304.3 72L308.8 71.2L313.4 70.6L318.1 70.2L322.7 70.2L327.4 70.3"/>
  <g id="dial-tick-1">
    <path d="M436.3 90.6L450.3 90.6"/>
    <path d="M443.3 83.6L443.3 97.6"/>
  </g>
  <g id="dial-tick-2">
    <path d="M523.9 149.1L537.9 149.1"/>
    <path d="M530.9 142.1L530.9 156.1"/>
  </g>
  <g id="dial-tick-3">
    <path d="M582.4 236.7L596.4 236.7"/>
    <path d="M589.4 229.7L589.4 243.7"/>
  </g>
  <g id="dial-tick-4">
    <path d="M582.4 443.3L596.4 443.3"/>
    <path d="M589.4 436.3L589.4 450.3"/>
  </g>
  <g id="dial-tick-5">
    <path d="M523.9 530.9L537.9 530.9"/>
    <path d="M530.9 523.9L530.9 537.9"/>
  </g>
  <g id="dial-tick-6">
    <path d="M436.3 589.4L450.3 589.4"/>
    <path d="M443.3 582.4L443.3 596.4"/>
  </g>
  <g id="dial-tick-7">
    <path d="M229.7 589.4L243.7 589.4"/>
    <path d="M236.7 582.4L236.7 596.4"/>
  </g>
  <g id="dial-tick-8">
    <path d="M142.1 530.9L156.1 530.9"/>
    <path d="M149.1 523.9L149.1 537.9"/>
  </g>
  <g id="dial-tick-9">
    <path d="M83.6 443.3L97.6 443.3"/>
    <path d="M90.6 436.3L90.6 450.3"/>
  </g>
  <g id="dial-tick-10">
    <path d="M83.6 236.7L97.6 236.7"/>
    <path d="M90.6 229.7L90.6 243.7"/>
  </g>
  <g id="dial-tick-11">
    <path d="M142.1 149.1L156.1 149.1"/>
    <path d="M149.1 142.1L149.1 156.1"/>
  </g>
  <g id="dial-tick-12">
    <path d="M229.7 90.6L243.7 90.6"/>
    <path d="M236.7 83.6L236.7 97.6"/>
  </g>
  <rect id="dial-anchor-1" x="288" y="54" width="104" height="32" rx="16"/>
  <rect id="dial-anchor-2" x="558" y="324" width="104" height="32" rx="16"/>
  <rect id="dial-anchor-3" x="288" y="594" width="104" height="32" rx="16"/>
  <rect id="dial-anchor-4" x="18" y="324" width="104" height="32" rx="16"/>
  <g id="dial-center">
    <path d="M330 340L350 340"/>
    <path d="M340 330L340 350"/>
  </g>
</svg>
