<svg xmlns="http://www.w3.org/2000/svg" viewBox="0 0 240 240" width="240" height="240">
<path d="M168.75 41.98 A92 92 0 1 1 71.25 41.98" fill="none" stroke="#33241A" stroke-width="8" stroke-linecap="round"/><path d="M74 100 C74 148 90 172 120 172 C150 172 166 148 166 100" fill="none" stroke="#33241A" stroke-width="7" stroke-linecap="round"/><path d="M74 100 C74 52 92 40 120 40 C148 40 166 52 166 100
    C166 62 150 52 120 52 C90 52 74 62 74 100 Z" fill="#33241A"/><path d="M120 33.6 L119.88 33.65 L119.74 33.69 L119.6 33.73 L119.46 33.75 L119.31 33.75 L119.15 33.75 L118.99 33.73 L118.83 33.69 L118.67 33.64 L118.51 33.58 L118.36 33.5 L118.2 33.41 L118.06 33.3 L117.91 33.18 L117.78 33.05 L117.65 32.9 L117.54 32.73 L117.43 32.56 L117.34 32.37 L117.27 32.17 L117.2 31.96 L117.16 31.75 L117.13 31.53 L117.12 31.3 L117.12 31.07 L117.15 30.83 L117.19 30.59 L117.26 30.36 L117.34 30.12 L117.45 29.89 L117.57 29.66 L117.72 29.45 L117.88 29.24 L118.07 29.04 L118.27 28.85 L118.49 28.68 L118.72 28.52 L118.97 28.38 L119.24 28.25 L119.51 28.15 L119.8 28.07 L120.1 28.01 L120.41 27.97 L120.72 27.96 L121.04 27.97 L121.36 28 L121.67 28.06 L121.99 28.15 L122.31 28.26 L122.62 28.4 L122.92 28.56 L123.21 28.75 L123.49 28.97 L123.75 29.2 L124 29.46 L124.23 29.74 L124.44 30.05 L124.63 30.37 L124.79 30.71 L124.93 31.06 L125.04 31.43 L125.13 31.81 L125.19 32.2 L125.21 32.59 L125.21 32.99 L125.18 33.4 L125.11 33.8 L125.01 34.21 L124.88 34.6 L124.72 35 L124.53 35.38 L124.3 35.75 L124.05 36.1 L123.76 36.44 L123.45 36.75 L123.12 37.05 L122.75 37.32 L122.37 37.56 L121.96 37.78 L121.53 37.97 L121.09 38.12 L120.63 38.24 L120.16 38.33 L119.68 38.38 L119.19 38.39 L118.7 38.37 L118.21 38.31 L117.72 38.21 L117.23 38.07 L116.76 37.9 L116.29 37.68 L115.84 37.43 L115.4 37.15 L114.99 36.83 L114.59 36.47 L114.23 36.08 L113.89 35.67 L113.58 35.22 L113.3 34.75 L113.06 34.26 L112.85 33.74 L112.68 33.21 L112.56 32.66 L112.47 32.09 L112.43 31.52 L112.43 30.95 L112.48 30.37 L112.57 29.79 L112.7 29.22 L112.88 28.65 L113.1 28.09 L113.37 27.55 L113.68 27.03 L114.03 26.53 L114.42 26.06 L114.85 25.61 L115.31 25.19 L115.81 24.81 L116.34 24.46 L116.89 24.15 L117.48 23.89 L118.08 23.66 L118.71 23.49 L119.35 23.36 L120 23.27 L120.66 23.24 L121.33 23.26 L122 23.33 L122.66 23.45 L123.32 23.62 L123.96 23.85 L124.6 24.12 L125.21 24.44 L125.8 24.81 L126.36 25.22 L126.9 25.68 L127.4 26.19 L127.86 26.73 L128.29 27.31 L128.67 27.92 L129 28.57 L129.29 29.24 L129.53 29.93 L129.71 30.65 L129.85 31.38 L129.92 32.12 L129.94 32.88 L129.9 33.63 L129.81 34.39 L129.65 35.14 L129.44 35.88 L129.17 36.6 L128.85 37.31 L128.47 37.99 L128.04 38.65 L127.56 39.28 L127.03 39.87 L126.45 40.42 L125.83 40.93 L125.16 41.39 L124.47 41.81 L123.73 42.17 L122.97 42.48 L122.19 42.73 L121.38 42.92 L120.56 43.05 L119.72 43.12 L118.88 43.12 L118.03 43.06 L117.19 42.94 L116.36 42.75 L115.54 42.49 L114.73 42.18 L113.95 41.8 L113.2 41.36 L112.47 40.87 L111.79 40.32 L111.14 39.71 L110.54 39.06 L109.99 38.35 L109.49 37.61 L109.04 36.82 L108.65 36 L108.33 35.15 L108.07 34.28 L107.88 33.38 L107.75 32.46 L107.69 31.54 L107.71 30.6 L107.79 29.67 L107.95 28.74 L108.17 27.83 L108.47 26.92 L108.83 26.04 L109.26 25.19 L109.76 24.36 L110.32 23.58 L110.95 22.83 L111.63 22.13 L112.36 21.48" fill="none" stroke="#33241A" stroke-width="5.5" stroke-linecap="round"/><g fill="none" stroke="#33241A" stroke-width="6">
    <circle cx="98" cy="112" r="17"/><circle cx="142" cy="112" r="17"/>
    <path d="M115 106 Q120 101 125 106" stroke-linecap="round"/>
  </g><circle cx="120" cy="83" r="5" fill="#33241A"/><circle cx="72" cy="128" r="3.5" fill="#33241A"/><circle cx="168" cy="128" r="3.5" fill="#33241A"/><path d="M104 150 Q120 161 135 147" fill="none" stroke="#33241A" stroke-width="6" stroke-linecap="round"/>
</svg>