<svg xmlns="http://www.w3.org/2000/svg" viewBox="0 0 240 240" width="240" height="240">
<path d="M120 56 L120.2 55.88 L120.42 55.78 L120.67 55.7 L120.93 55.66 L121.2 55.64 L121.49 55.65 L121.78 55.7 L122.08 55.78 L122.38 55.9 L122.67 56.06 L122.95 56.25 L123.22 56.48 L123.47 56.75 L123.7 57.05 L123.9 57.38 L124.07 57.74 L124.21 58.13 L124.31 58.54 L124.36 58.98 L124.37 59.42 L124.34 59.88 L124.26 60.34 L124.13 60.8 L123.95 61.26 L123.71 61.71 L123.43 62.15 L123.1 62.56 L122.72 62.94 L122.29 63.3 L121.82 63.61 L121.32 63.88 L120.77 64.11 L120.2 64.29 L119.6 64.41 L118.98 64.47 L118.34 64.47 L117.69 64.41 L117.05 64.28 L116.4 64.09 L115.77 63.82 L115.15 63.5 L114.56 63.11 L114 62.65 L113.48 62.14 L113.01 61.56 L112.58 60.94 L112.21 60.26 L111.91 59.54 L111.67 58.79 L111.5 58 L111.41 57.19 L111.4 56.36 L111.46 55.52 L111.61 54.68 L111.85 53.85 L112.16 53.03 L112.56 52.23 L113.05 51.47 L113.61 50.75 L114.24 50.07 L114.95 49.45 L115.72 48.9 L116.55 48.41 L117.43 48 L118.37 47.68 L119.34 47.44 L120.34 47.3 L121.36 47.25 L122.39 47.29 L123.43 47.44 L124.46 47.69 L125.47 48.05 L126.46 48.5 L127.41 49.05 L128.31 49.69 L129.15 50.43 L129.93 51.25 L130.64 52.15 L131.26 53.13 L131.79 54.17 L132.23 55.27 L132.56 56.41 L132.78 57.6 L132.89 58.81 L132.89 60.04 L132.77 61.28 L132.52 62.51 L132.16 63.72 L131.68 64.91 L131.08 66.05 L130.37 67.15 L129.56 68.18 L128.64 69.13 L127.62 70.01 L126.51 70.79 L125.33 71.46 L124.08 72.03 L122.76 72.48 L121.4 72.8 L120 73 L118.58 73.06 L117.14 72.99 L115.71 72.78 L114.29 72.43 L112.9 71.94 L111.54 71.32 L110.25 70.57 L109.02 69.69 L107.87 68.69 L106.81 67.58 L105.86 66.36 L105.02 65.05 L104.3 63.65 L103.71 62.18 L103.26 60.65 L102.95 59.07 L102.8 57.46 L102.8 55.83 L102.95 54.19 L103.26 52.56 L103.73 50.96 L104.35 49.4 L105.12 47.89 L106.04 46.45 L107.1 45.1 L108.28 43.84 L109.6 42.69 L111.02 41.67 L112.55 40.77 L114.16 40.03 L115.85 39.43 L117.6 38.99 L119.39 38.72 L121.22 38.62 L123.06 38.69 L124.89 38.94 L126.71 39.36 L128.49 39.96 L130.22 40.72 L131.87 41.66 L133.44 42.75 L134.91 43.99 L136.27 45.38 L137.49 46.9 L138.58 48.53 L139.51 50.28 L140.27 52.11 L140.86 54.02 L141.28 55.99 L141.5 58 L141.53 60.04 L141.37 62.08 L141.02 64.11 L140.47 66.11 L139.74 68.06 L138.81 69.94 L137.71 71.74 L136.43 73.43 L134.99 75.01 L133.4 76.45 L131.67 77.74 L129.82 78.87 L127.86 79.82 L125.8 80.59 L123.67 81.16 L121.48 81.53 L119.26 81.7 L117.01 81.65 L114.77 81.39 L112.55 80.92 L110.38 80.24 L108.26 79.35 L106.23 78.26 L104.31 76.97 L102.5 75.5 L100.83 73.86 L99.31 72.06 L97.97 70.11 L96.81 68.04 L95.84 65.85 L95.08 63.57 L94.54 61.22 L94.22 58.81 L94.13 56.37 L94.27 53.92 L94.64 51.49 L95.25 49.09 L96.08 46.74 L97.13 44.47 L98.4 42.31 L99.87 40.26 L101.54 38.35 L103.4 36.59 L105.41 35.02 L107.58 33.63 L109.88 32.45 L112.3 31.49 L114.8 30.75 L117.38 30.25 L120 30" fill="none" stroke="#C8922A" stroke-width="7" stroke-linecap="round"/><g fill="none" stroke="#B5512E" stroke-width="6" stroke-linecap="round">
    <path d="M96 150 C87 138 105 126 96 114"/>
    <path d="M120 152 C110 138 130 120 120 102"/>
    <path d="M144 150 C135 138 153 126 144 114"/>
  </g><g fill="none" stroke="#33241A" stroke-width="6.5">
    <circle cx="39" cy="153" r="9.5"/><circle cx="201" cy="153" r="9.5"/>
  </g><path d="M54 163 L186 163 C182 199 152 211 120 211 C88 211 58 199 54 163 Z" fill="#7A1E2B"/><path d="M48 161 L192 161" stroke="#7A1E2B" stroke-width="9" stroke-linecap="round" fill="none"/>
</svg>