<svg xmlns="http://www.w3.org/2000/svg" viewBox="0 0 240 240" width="240" height="240">
<circle cx="120" cy="120" r="7" fill="#D4A23C"/><circle cx="120" cy="120" r="13.5" fill="none" stroke="#D4A23C" stroke-width="3"/><circle cx="144.94" cy="130.33" r="2.8" fill="#D4A23C"/><circle cx="130.33" cy="144.94" r="2.8" fill="#D4A23C"/><circle cx="109.67" cy="144.94" r="2.8" fill="#D4A23C"/><circle cx="95.06" cy="130.33" r="2.8" fill="#D4A23C"/><circle cx="95.06" cy="109.67" r="2.8" fill="#D4A23C"/><circle cx="109.67" cy="95.06" r="2.8" fill="#D4A23C"/><circle cx="130.33" cy="95.06" r="2.8" fill="#D4A23C"/><circle cx="144.94" cy="109.67" r="2.8" fill="#D4A23C"/><path d="M120 70.6 L120.1 70.54 L120.22 70.48 L120.34 70.44 L120.46 70.4 L120.6 70.38 L120.74 70.37 L120.88 70.36 L121.03 70.38 L121.18 70.4 L121.33 70.44 L121.49 70.49 L121.64 70.55 L121.79 70.63 L121.94 70.73 L122.08 70.84 L122.22 70.96 L122.34 71.09 L122.46 71.24 L122.58 71.4 L122.68 71.58 L122.77 71.76 L122.84 71.96 L122.9 72.16 L122.95 72.37 L122.98 72.59 L122.99 72.82 L122.99 73.05 L122.97 73.28 L122.93 73.52 L122.87 73.76 L122.79 73.99 L122.69 74.23 L122.58 74.46 L122.44 74.68 L122.29 74.9 L122.11 75.11 L121.92 75.31 L121.71 75.49 L121.48 75.67 L121.24 75.82 L120.98 75.97 L120.71 76.09 L120.43 76.19 L120.13 76.28 L119.83 76.34 L119.52 76.39 L119.2 76.41 L118.87 76.4 L118.54 76.37 L118.21 76.32 L117.88 76.24 L117.55 76.14 L117.23 76.01 L116.91 75.85 L116.6 75.67 L116.31 75.47 L116.02 75.24 L115.75 74.99 L115.49 74.72 L115.25 74.42 L115.03 74.1 L114.83 73.77 L114.66 73.42 L114.51 73.05 L114.38 72.66 L114.28 72.27 L114.21 71.86 L114.17 71.45 L114.16 71.03 L114.18 70.6 L114.23 70.18 L114.31 69.75 L114.43 69.32 L114.57 68.9 L114.75 68.49 L114.96 68.09 L115.2 67.7 L115.47 67.33 L115.77 66.97 L116.1 66.63 L116.45 66.31 L116.83 66.02 L117.24 65.75 L117.66 65.51 L118.11 65.29 L118.57 65.11 L119.06 64.96 L119.55 64.85 L120.06 64.77 L120.57 64.73 L121.09 64.72 L121.62 64.75 L122.15 64.82 L122.67 64.93 L123.19 65.08 L123.7 65.26 L124.21 65.49 L124.69 65.75 L125.17 66.04 L125.62 66.38 L126.05 66.75 L126.46 67.15 L126.84 67.58 L127.2 68.04 L127.52 68.53 L127.8 69.05 L128.06 69.59 L128.27 70.15 L128.44 70.73 L128.58 71.32 L128.67 71.93 L128.72 72.55 L128.72 73.17 L128.68 73.8 L128.6 74.42 L128.47 75.05 L128.29 75.66 L128.07 76.27 L127.8 76.87 L127.49 77.44 L127.14 78 L126.74 78.54 L126.31 79.04 L125.84 79.52 L125.33 79.97 L124.78 80.38 L124.21 80.76 L123.6 81.1 L122.97 81.39 L122.31 81.64 L121.64 81.85 L120.95 82 L120.24 82.11 L119.52 82.17 L118.8 82.17 L118.07 82.13 L117.34 82.03 L116.62 81.88 L115.9 81.67 L115.2 81.42 L114.51 81.11 L113.85 80.76 L113.2 80.35 L112.58 79.9 L112 79.4 L111.44 78.85 L110.93 78.27 L110.45 77.65 L110.02 76.99 L109.63 76.3 L109.29 75.57 L109 74.82 L108.76 74.05 L108.58 73.26 L108.46 72.45 L108.39 71.64 L108.38 70.81 L108.43 69.98 L108.53 69.15 L108.7 68.33 L108.93 67.52 L109.21 66.72 L109.56 65.93 L109.96 65.18 L110.41 64.44 L110.92 63.74 L111.48 63.07 L112.09 62.44 L112.75 61.85 L113.45 61.31 L114.19 60.82 L114.97 60.38 L115.78 59.99 L116.62 59.66 L117.49 59.38 L118.38 59.17 L119.29 59.03 L120.21 58.94 L121.13 58.92 L122.06 58.97 L122.99 59.09 L123.92 59.27 L124.83 59.52 L125.73 59.83 L126.6 60.21 L127.46 60.65 L128.28 61.15 L129.07 61.71 L129.82 62.33 L130.53 63.01 L131.19 63.74 L131.8 64.51 L132.36 65.33 L132.86 66.19 L133.3 67.09 L133.67 68.03 L133.98 68.99 L134.23 69.98 L134.4 70.98 L134.5 72" fill="none" stroke="#D4A23C" stroke-width="4.6" stroke-linecap="round" transform="rotate(0 120 120)"/><path d="M120 70.6 L120.1 70.54 L120.22 70.48 L120.34 70.44 L120.46 70.4 L120.6 70.38 L120.74 70.37 L120.88 70.36 L121.03 70.38 L121.18 70.4 L121.33 70.44 L121.49 70.49 L121.64 70.55 L121.79 70.63 L121.94 70.73 L122.08 70.84 L122.22 70.96 L122.34 71.09 L122.46 71.24 L122.58 71.4 L122.68 71.58 L122.77 71.76 L122.84 71.96 L122.9 72.16 L122.95 72.37 L122.98 72.59 L122.99 72.82 L122.99 73.05 L122.97 73.28 L122.93 73.52 L122.87 73.76 L122.79 73.99 L122.69 74.23 L122.58 74.46 L122.44 74.68 L122.29 74.9 L122.11 75.11 L121.92 75.31 L121.71 75.49 L121.48 75.67 L121.24 75.82 L120.98 75.97 L120.71 76.09 L120.43 76.19 L120.13 76.28 L119.83 76.34 L119.52 76.39 L119.2 76.41 L118.87 76.4 L118.54 76.37 L118.21 76.32 L117.88 76.24 L117.55 76.14 L117.23 76.01 L116.91 75.85 L116.6 75.67 L116.31 75.47 L116.02 75.24 L115.75 74.99 L115.49 74.72 L115.25 74.42 L115.03 74.1 L114.83 73.77 L114.66 73.42 L114.51 73.05 L114.38 72.66 L114.28 72.27 L114.21 71.86 L114.17 71.45 L114.16 71.03 L114.18 70.6 L114.23 70.18 L114.31 69.75 L114.43 69.32 L114.57 68.9 L114.75 68.49 L114.96 68.09 L115.2 67.7 L115.47 67.33 L115.77 66.97 L116.1 66.63 L116.45 66.31 L116.83 66.02 L117.24 65.75 L117.66 65.51 L118.11 65.29 L118.57 65.11 L119.06 64.96 L119.55 64.85 L120.06 64.77 L120.57 64.73 L121.09 64.72 L121.62 64.75 L122.15 64.82 L122.67 64.93 L123.19 65.08 L123.7 65.26 L124.21 65.49 L124.69 65.75 L125.17 66.04 L125.62 66.38 L126.05 66.75 L126.46 67.15 L126.84 67.58 L127.2 68.04 L127.52 68.53 L127.8 69.05 L128.06 69.59 L128.27 70.15 L128.44 70.73 L128.58 71.32 L128.67 71.93 L128.72 72.55 L128.72 73.17 L128.68 73.8 L128.6 74.42 L128.47 75.05 L128.29 75.66 L128.07 76.27 L127.8 76.87 L127.49 77.44 L127.14 78 L126.74 78.54 L126.31 79.04 L125.84 79.52 L125.33 79.97 L124.78 80.38 L124.21 80.76 L123.6 81.1 L122.97 81.39 L122.31 81.64 L121.64 81.85 L120.95 82 L120.24 82.11 L119.52 82.17 L118.8 82.17 L118.07 82.13 L117.34 82.03 L116.62 81.88 L115.9 81.67 L115.2 81.42 L114.51 81.11 L113.85 80.76 L113.2 80.35 L112.58 79.9 L112 79.4 L111.44 78.85 L110.93 78.27 L110.45 77.65 L110.02 76.99 L109.63 76.3 L109.29 75.57 L109 74.82 L108.76 74.05 L108.58 73.26 L108.46 72.45 L108.39 71.64 L108.38 70.81 L108.43 69.98 L108.53 69.15 L108.7 68.33 L108.93 67.52 L109.21 66.72 L109.56 65.93 L109.96 65.18 L110.41 64.44 L110.92 63.74 L111.48 63.07 L112.09 62.44 L112.75 61.85 L113.45 61.31 L114.19 60.82 L114.97 60.38 L115.78 59.99 L116.62 59.66 L117.49 59.38 L118.38 59.17 L119.29 59.03 L120.21 58.94 L121.13 58.92 L122.06 58.97 L122.99 59.09 L123.92 59.27 L124.83 59.52 L125.73 59.83 L126.6 60.21 L127.46 60.65 L128.28 61.15 L129.07 61.71 L129.82 62.33 L130.53 63.01 L131.19 63.74 L131.8 64.51 L132.36 65.33 L132.86 66.19 L133.3 67.09 L133.67 68.03 L133.98 68.99 L134.23 69.98 L134.4 70.98 L134.5 72" fill="none" stroke="#D4A23C" stroke-width="4.6" stroke-linecap="round" transform="rotate(45 120 120)"/><path d="M120 70.6 L120.1 70.54 L120.22 70.48 L120.34 70.44 L120.46 70.4 L120.6 70.38 L120.74 70.37 L120.88 70.36 L121.03 70.38 L121.18 70.4 L121.33 70.44 L121.49 70.49 L121.64 70.55 L121.79 70.63 L121.94 70.73 L122.08 70.84 L122.22 70.96 L122.34 71.09 L122.46 71.24 L122.58 71.4 L122.68 71.58 L122.77 71.76 L122.84 71.96 L122.9 72.16 L122.95 72.37 L122.98 72.59 L122.99 72.82 L122.99 73.05 L122.97 73.28 L122.93 73.52 L122.87 73.76 L122.79 73.99 L122.69 74.23 L122.58 74.46 L122.44 74.68 L122.29 74.9 L122.11 75.11 L121.92 75.31 L121.71 75.49 L121.48 75.67 L121.24 75.82 L120.98 75.97 L120.71 76.09 L120.43 76.19 L120.13 76.28 L119.83 76.34 L119.52 76.39 L119.2 76.41 L118.87 76.4 L118.54 76.37 L118.21 76.32 L117.88 76.24 L117.55 76.14 L117.23 76.01 L116.91 75.85 L116.6 75.67 L116.31 75.47 L116.02 75.24 L115.75 74.99 L115.49 74.72 L115.25 74.42 L115.03 74.1 L114.83 73.77 L114.66 73.42 L114.51 73.05 L114.38 72.66 L114.28 72.27 L114.21 71.86 L114.17 71.45 L114.16 71.03 L114.18 70.6 L114.23 70.18 L114.31 69.75 L114.43 69.32 L114.57 68.9 L114.75 68.49 L114.96 68.09 L115.2 67.7 L115.47 67.33 L115.77 66.97 L116.1 66.63 L116.45 66.31 L116.83 66.02 L117.24 65.75 L117.66 65.51 L118.11 65.29 L118.57 65.11 L119.06 64.96 L119.55 64.85 L120.06 64.77 L120.57 64.73 L121.09 64.72 L121.62 64.75 L122.15 64.82 L122.67 64.93 L123.19 65.08 L123.7 65.26 L124.21 65.49 L124.69 65.75 L125.17 66.04 L125.62 66.38 L126.05 66.75 L126.46 67.15 L126.84 67.58 L127.2 68.04 L127.52 68.53 L127.8 69.05 L128.06 69.59 L128.27 70.15 L128.44 70.73 L128.58 71.32 L128.67 71.93 L128.72 72.55 L128.72 73.17 L128.68 73.8 L128.6 74.42 L128.47 75.05 L128.29 75.66 L128.07 76.27 L127.8 76.87 L127.49 77.44 L127.14 78 L126.74 78.54 L126.31 79.04 L125.84 79.52 L125.33 79.97 L124.78 80.38 L124.21 80.76 L123.6 81.1 L122.97 81.39 L122.31 81.64 L121.64 81.85 L120.95 82 L120.24 82.11 L119.52 82.17 L118.8 82.17 L118.07 82.13 L117.34 82.03 L116.62 81.88 L115.9 81.67 L115.2 81.42 L114.51 81.11 L113.85 80.76 L113.2 80.35 L112.58 79.9 L112 79.4 L111.44 78.85 L110.93 78.27 L110.45 77.65 L110.02 76.99 L109.63 76.3 L109.29 75.57 L109 74.82 L108.76 74.05 L108.58 73.26 L108.46 72.45 L108.39 71.64 L108.38 70.81 L108.43 69.98 L108.53 69.15 L108.7 68.33 L108.93 67.52 L109.21 66.72 L109.56 65.93 L109.96 65.18 L110.41 64.44 L110.92 63.74 L111.48 63.07 L112.09 62.44 L112.75 61.85 L113.45 61.31 L114.19 60.82 L114.97 60.38 L115.78 59.99 L116.62 59.66 L117.49 59.38 L118.38 59.17 L119.29 59.03 L120.21 58.94 L121.13 58.92 L122.06 58.97 L122.99 59.09 L123.92 59.27 L124.83 59.52 L125.73 59.83 L126.6 60.21 L127.46 60.65 L128.28 61.15 L129.07 61.71 L129.82 62.33 L130.53 63.01 L131.19 63.74 L131.8 64.51 L132.36 65.33 L132.86 66.19 L133.3 67.09 L133.67 68.03 L133.98 68.99 L134.23 69.98 L134.4 70.98 L134.5 72" fill="none" stroke="#D4A23C" stroke-width="4.6" stroke-linecap="round" transform="rotate(90 120 120)"/><path d="M120 70.6 L120.1 70.54 L120.22 70.48 L120.34 70.44 L120.46 70.4 L120.6 70.38 L120.74 70.37 L120.88 70.36 L121.03 70.38 L121.18 70.4 L121.33 70.44 L121.49 70.49 L121.64 70.55 L121.79 70.63 L121.94 70.73 L122.08 70.84 L122.22 70.96 L122.34 71.09 L122.46 71.24 L122.58 71.4 L122.68 71.58 L122.77 71.76 L122.84 71.96 L122.9 72.16 L122.95 72.37 L122.98 72.59 L122.99 72.82 L122.99 73.05 L122.97 73.28 L122.93 73.52 L122.87 73.76 L122.79 73.99 L122.69 74.23 L122.58 74.46 L122.44 74.68 L122.29 74.9 L122.11 75.11 L121.92 75.31 L121.71 75.49 L121.48 75.67 L121.24 75.82 L120.98 75.97 L120.71 76.09 L120.43 76.19 L120.13 76.28 L119.83 76.34 L119.52 76.39 L119.2 76.41 L118.87 76.4 L118.54 76.37 L118.21 76.32 L117.88 76.24 L117.55 76.14 L117.23 76.01 L116.91 75.85 L116.6 75.67 L116.31 75.47 L116.02 75.24 L115.75 74.99 L115.49 74.72 L115.25 74.42 L115.03 74.1 L114.83 73.77 L114.66 73.42 L114.51 73.05 L114.38 72.66 L114.28 72.27 L114.21 71.86 L114.17 71.45 L114.16 71.03 L114.18 70.6 L114.23 70.18 L114.31 69.75 L114.43 69.32 L114.57 68.9 L114.75 68.49 L114.96 68.09 L115.2 67.7 L115.47 67.33 L115.77 66.97 L116.1 66.63 L116.45 66.31 L116.83 66.02 L117.24 65.75 L117.66 65.51 L118.11 65.29 L118.57 65.11 L119.06 64.96 L119.55 64.85 L120.06 64.77 L120.57 64.73 L121.09 64.72 L121.62 64.75 L122.15 64.82 L122.67 64.93 L123.19 65.08 L123.7 65.26 L124.21 65.49 L124.69 65.75 L125.17 66.04 L125.62 66.38 L126.05 66.75 L126.46 67.15 L126.84 67.58 L127.2 68.04 L127.52 68.53 L127.8 69.05 L128.06 69.59 L128.27 70.15 L128.44 70.73 L128.58 71.32 L128.67 71.93 L128.72 72.55 L128.72 73.17 L128.68 73.8 L128.6 74.42 L128.47 75.05 L128.29 75.66 L128.07 76.27 L127.8 76.87 L127.49 77.44 L127.14 78 L126.74 78.54 L126.31 79.04 L125.84 79.52 L125.33 79.97 L124.78 80.38 L124.21 80.76 L123.6 81.1 L122.97 81.39 L122.31 81.64 L121.64 81.85 L120.95 82 L120.24 82.11 L119.52 82.17 L118.8 82.17 L118.07 82.13 L117.34 82.03 L116.62 81.88 L115.9 81.67 L115.2 81.42 L114.51 81.11 L113.85 80.76 L113.2 80.35 L112.58 79.9 L112 79.4 L111.44 78.85 L110.93 78.27 L110.45 77.65 L110.02 76.99 L109.63 76.3 L109.29 75.57 L109 74.82 L108.76 74.05 L108.58 73.26 L108.46 72.45 L108.39 71.64 L108.38 70.81 L108.43 69.98 L108.53 69.15 L108.7 68.33 L108.93 67.52 L109.21 66.72 L109.56 65.93 L109.96 65.18 L110.41 64.44 L110.92 63.74 L111.48 63.07 L112.09 62.44 L112.75 61.85 L113.45 61.31 L114.19 60.82 L114.97 60.38 L115.78 59.99 L116.62 59.66 L117.49 59.38 L118.38 59.17 L119.29 59.03 L120.21 58.94 L121.13 58.92 L122.06 58.97 L122.99 59.09 L123.92 59.27 L124.83 59.52 L125.73 59.83 L126.6 60.21 L127.46 60.65 L128.28 61.15 L129.07 61.71 L129.82 62.33 L130.53 63.01 L131.19 63.74 L131.8 64.51 L132.36 65.33 L132.86 66.19 L133.3 67.09 L133.67 68.03 L133.98 68.99 L134.23 69.98 L134.4 70.98 L134.5 72" fill="none" stroke="#D4A23C" stroke-width="4.6" stroke-linecap="round" transform="rotate(135 120 120)"/><path d="M120 70.6 L120.1 70.54 L120.22 70.48 L120.34 70.44 L120.46 70.4 L120.6 70.38 L120.74 70.37 L120.88 70.36 L121.03 70.38 L121.18 70.4 L121.33 70.44 L121.49 70.49 L121.64 70.55 L121.79 70.63 L121.94 70.73 L122.08 70.84 L122.22 70.96 L122.34 71.09 L122.46 71.24 L122.58 71.4 L122.68 71.58 L122.77 71.76 L122.84 71.96 L122.9 72.16 L122.95 72.37 L122.98 72.59 L122.99 72.82 L122.99 73.05 L122.97 73.28 L122.93 73.52 L122.87 73.76 L122.79 73.99 L122.69 74.23 L122.58 74.46 L122.44 74.68 L122.29 74.9 L122.11 75.11 L121.92 75.31 L121.71 75.49 L121.48 75.67 L121.24 75.82 L120.98 75.97 L120.71 76.09 L120.43 76.19 L120.13 76.28 L119.83 76.34 L119.52 76.39 L119.2 76.41 L118.87 76.4 L118.54 76.37 L118.21 76.32 L117.88 76.24 L117.55 76.14 L117.23 76.01 L116.91 75.85 L116.6 75.67 L116.31 75.47 L116.02 75.24 L115.75 74.99 L115.49 74.72 L115.25 74.42 L115.03 74.1 L114.83 73.77 L114.66 73.42 L114.51 73.05 L114.38 72.66 L114.28 72.27 L114.21 71.86 L114.17 71.45 L114.16 71.03 L114.18 70.6 L114.23 70.18 L114.31 69.75 L114.43 69.32 L114.57 68.9 L114.75 68.49 L114.96 68.09 L115.2 67.7 L115.47 67.33 L115.77 66.97 L116.1 66.63 L116.45 66.31 L116.83 66.02 L117.24 65.75 L117.66 65.51 L118.11 65.29 L118.57 65.11 L119.06 64.96 L119.55 64.85 L120.06 64.77 L120.57 64.73 L121.09 64.72 L121.62 64.75 L122.15 64.82 L122.67 64.93 L123.19 65.08 L123.7 65.26 L124.21 65.49 L124.69 65.75 L125.17 66.04 L125.62 66.38 L126.05 66.75 L126.46 67.15 L126.84 67.58 L127.2 68.04 L127.52 68.53 L127.8 69.05 L128.06 69.59 L128.27 70.15 L128.44 70.73 L128.58 71.32 L128.67 71.93 L128.72 72.55 L128.72 73.17 L128.68 73.8 L128.6 74.42 L128.47 75.05 L128.29 75.66 L128.07 76.27 L127.8 76.87 L127.49 77.44 L127.14 78 L126.74 78.54 L126.31 79.04 L125.84 79.52 L125.33 79.97 L124.78 80.38 L124.21 80.76 L123.6 81.1 L122.97 81.39 L122.31 81.64 L121.64 81.85 L120.95 82 L120.24 82.11 L119.52 82.17 L118.8 82.17 L118.07 82.13 L117.34 82.03 L116.62 81.88 L115.9 81.67 L115.2 81.42 L114.51 81.11 L113.85 80.76 L113.2 80.35 L112.58 79.9 L112 79.4 L111.44 78.85 L110.93 78.27 L110.45 77.65 L110.02 76.99 L109.63 76.3 L109.29 75.57 L109 74.82 L108.76 74.05 L108.58 73.26 L108.46 72.45 L108.39 71.64 L108.38 70.81 L108.43 69.98 L108.53 69.15 L108.7 68.33 L108.93 67.52 L109.21 66.72 L109.56 65.93 L109.96 65.18 L110.41 64.44 L110.92 63.74 L111.48 63.07 L112.09 62.44 L112.75 61.85 L113.45 61.31 L114.19 60.82 L114.97 60.38 L115.78 59.99 L116.62 59.66 L117.49 59.38 L118.38 59.17 L119.29 59.03 L120.21 58.94 L121.13 58.92 L122.06 58.97 L122.99 59.09 L123.92 59.27 L124.83 59.52 L125.73 59.83 L126.6 60.21 L127.46 60.65 L128.28 61.15 L129.07 61.71 L129.82 62.33 L130.53 63.01 L131.19 63.74 L131.8 64.51 L132.36 65.33 L132.86 66.19 L133.3 67.09 L133.67 68.03 L133.98 68.99 L134.23 69.98 L134.4 70.98 L134.5 72" fill="none" stroke="#D4A23C" stroke-width="4.6" stroke-linecap="round" transform="rotate(180 120 120)"/><path d="M120 70.6 L120.1 70.54 L120.22 70.48 L120.34 70.44 L120.46 70.4 L120.6 70.38 L120.74 70.37 L120.88 70.36 L121.03 70.38 L121.18 70.4 L121.33 70.44 L121.49 70.49 L121.64 70.55 L121.79 70.63 L121.94 70.73 L122.08 70.84 L122.22 70.96 L122.34 71.09 L122.46 71.24 L122.58 71.4 L122.68 71.58 L122.77 71.76 L122.84 71.96 L122.9 72.16 L122.95 72.37 L122.98 72.59 L122.99 72.82 L122.99 73.05 L122.97 73.28 L122.93 73.52 L122.87 73.76 L122.79 73.99 L122.69 74.23 L122.58 74.46 L122.44 74.68 L122.29 74.9 L122.11 75.11 L121.92 75.31 L121.71 75.49 L121.48 75.67 L121.24 75.82 L120.98 75.97 L120.71 76.09 L120.43 76.19 L120.13 76.28 L119.83 76.34 L119.52 76.39 L119.2 76.41 L118.87 76.4 L118.54 76.37 L118.21 76.32 L117.88 76.24 L117.55 76.14 L117.23 76.01 L116.91 75.85 L116.6 75.67 L116.31 75.47 L116.02 75.24 L115.75 74.99 L115.49 74.72 L115.25 74.42 L115.03 74.1 L114.83 73.77 L114.66 73.42 L114.51 73.05 L114.38 72.66 L114.28 72.27 L114.21 71.86 L114.17 71.45 L114.16 71.03 L114.18 70.6 L114.23 70.18 L114.31 69.75 L114.43 69.32 L114.57 68.9 L114.75 68.49 L114.96 68.09 L115.2 67.7 L115.47 67.33 L115.77 66.97 L116.1 66.63 L116.45 66.31 L116.83 66.02 L117.24 65.75 L117.66 65.51 L118.11 65.29 L118.57 65.11 L119.06 64.96 L119.55 64.85 L120.06 64.77 L120.57 64.73 L121.09 64.72 L121.62 64.75 L122.15 64.82 L122.67 64.93 L123.19 65.08 L123.7 65.26 L124.21 65.49 L124.69 65.75 L125.17 66.04 L125.62 66.38 L126.05 66.75 L126.46 67.15 L126.84 67.58 L127.2 68.04 L127.52 68.53 L127.8 69.05 L128.06 69.59 L128.27 70.15 L128.44 70.73 L128.58 71.32 L128.67 71.93 L128.72 72.55 L128.72 73.17 L128.68 73.8 L128.6 74.42 L128.47 75.05 L128.29 75.66 L128.07 76.27 L127.8 76.87 L127.49 77.44 L127.14 78 L126.74 78.54 L126.31 79.04 L125.84 79.52 L125.33 79.97 L124.78 80.38 L124.21 80.76 L123.6 81.1 L122.97 81.39 L122.31 81.64 L121.64 81.85 L120.95 82 L120.24 82.11 L119.52 82.17 L118.8 82.17 L118.07 82.13 L117.34 82.03 L116.62 81.88 L115.9 81.67 L115.2 81.42 L114.51 81.11 L113.85 80.76 L113.2 80.35 L112.58 79.9 L112 79.4 L111.44 78.85 L110.93 78.27 L110.45 77.65 L110.02 76.99 L109.63 76.3 L109.29 75.57 L109 74.82 L108.76 74.05 L108.58 73.26 L108.46 72.45 L108.39 71.64 L108.38 70.81 L108.43 69.98 L108.53 69.15 L108.7 68.33 L108.93 67.52 L109.21 66.72 L109.56 65.93 L109.96 65.18 L110.41 64.44 L110.92 63.74 L111.48 63.07 L112.09 62.44 L112.75 61.85 L113.45 61.31 L114.19 60.82 L114.97 60.38 L115.78 59.99 L116.62 59.66 L117.49 59.38 L118.38 59.17 L119.29 59.03 L120.21 58.94 L121.13 58.92 L122.06 58.97 L122.99 59.09 L123.92 59.27 L124.83 59.52 L125.73 59.83 L126.6 60.21 L127.46 60.65 L128.28 61.15 L129.07 61.71 L129.82 62.33 L130.53 63.01 L131.19 63.74 L131.8 64.51 L132.36 65.33 L132.86 66.19 L133.3 67.09 L133.67 68.03 L133.98 68.99 L134.23 69.98 L134.4 70.98 L134.5 72" fill="none" stroke="#D4A23C" stroke-width="4.6" stroke-linecap="round" transform="rotate(225 120 120)"/><path d="M120 70.6 L120.1 70.54 L120.22 70.48 L120.34 70.44 L120.46 70.4 L120.6 70.38 L120.74 70.37 L120.88 70.36 L121.03 70.38 L121.18 70.4 L121.33 70.44 L121.49 70.49 L121.64 70.55 L121.79 70.63 L121.94 70.73 L122.08 70.84 L122.22 70.96 L122.34 71.09 L122.46 71.24 L122.58 71.4 L122.68 71.58 L122.77 71.76 L122.84 71.96 L122.9 72.16 L122.95 72.37 L122.98 72.59 L122.99 72.82 L122.99 73.05 L122.97 73.28 L122.93 73.52 L122.87 73.76 L122.79 73.99 L122.69 74.23 L122.58 74.46 L122.44 74.68 L122.29 74.9 L122.11 75.11 L121.92 75.31 L121.71 75.49 L121.48 75.67 L121.24 75.82 L120.98 75.97 L120.71 76.09 L120.43 76.19 L120.13 76.28 L119.83 76.34 L119.52 76.39 L119.2 76.41 L118.87 76.4 L118.54 76.37 L118.21 76.32 L117.88 76.24 L117.55 76.14 L117.23 76.01 L116.91 75.85 L116.6 75.67 L116.31 75.47 L116.02 75.24 L115.75 74.99 L115.49 74.72 L115.25 74.42 L115.03 74.1 L114.83 73.77 L114.66 73.42 L114.51 73.05 L114.38 72.66 L114.28 72.27 L114.21 71.86 L114.17 71.45 L114.16 71.03 L114.18 70.6 L114.23 70.18 L114.31 69.75 L114.43 69.32 L114.57 68.9 L114.75 68.49 L114.96 68.09 L115.2 67.7 L115.47 67.33 L115.77 66.97 L116.1 66.63 L116.45 66.31 L116.83 66.02 L117.24 65.75 L117.66 65.51 L118.11 65.29 L118.57 65.11 L119.06 64.96 L119.55 64.85 L120.06 64.77 L120.57 64.73 L121.09 64.72 L121.62 64.75 L122.15 64.82 L122.67 64.93 L123.19 65.08 L123.7 65.26 L124.21 65.49 L124.69 65.75 L125.17 66.04 L125.62 66.38 L126.05 66.75 L126.46 67.15 L126.84 67.58 L127.2 68.04 L127.52 68.53 L127.8 69.05 L128.06 69.59 L128.27 70.15 L128.44 70.73 L128.58 71.32 L128.67 71.93 L128.72 72.55 L128.72 73.17 L128.68 73.8 L128.6 74.42 L128.47 75.05 L128.29 75.66 L128.07 76.27 L127.8 76.87 L127.49 77.44 L127.14 78 L126.74 78.54 L126.31 79.04 L125.84 79.52 L125.33 79.97 L124.78 80.38 L124.21 80.76 L123.6 81.1 L122.97 81.39 L122.31 81.64 L121.64 81.85 L120.95 82 L120.24 82.11 L119.52 82.17 L118.8 82.17 L118.07 82.13 L117.34 82.03 L116.62 81.88 L115.9 81.67 L115.2 81.42 L114.51 81.11 L113.85 80.76 L113.2 80.35 L112.58 79.9 L112 79.4 L111.44 78.85 L110.93 78.27 L110.45 77.65 L110.02 76.99 L109.63 76.3 L109.29 75.57 L109 74.82 L108.76 74.05 L108.58 73.26 L108.46 72.45 L108.39 71.64 L108.38 70.81 L108.43 69.98 L108.53 69.15 L108.7 68.33 L108.93 67.52 L109.21 66.72 L109.56 65.93 L109.96 65.18 L110.41 64.44 L110.92 63.74 L111.48 63.07 L112.09 62.44 L112.75 61.85 L113.45 61.31 L114.19 60.82 L114.97 60.38 L115.78 59.99 L116.62 59.66 L117.49 59.38 L118.38 59.17 L119.29 59.03 L120.21 58.94 L121.13 58.92 L122.06 58.97 L122.99 59.09 L123.92 59.27 L124.83 59.52 L125.73 59.83 L126.6 60.21 L127.46 60.65 L128.28 61.15 L129.07 61.71 L129.82 62.33 L130.53 63.01 L131.19 63.74 L131.8 64.51 L132.36 65.33 L132.86 66.19 L133.3 67.09 L133.67 68.03 L133.98 68.99 L134.23 69.98 L134.4 70.98 L134.5 72" fill="none" stroke="#D4A23C" stroke-width="4.6" stroke-linecap="round" transform="rotate(270 120 120)"/><path d="M120 70.6 L120.1 70.54 L120.22 70.48 L120.34 70.44 L120.46 70.4 L120.6 70.38 L120.74 70.37 L120.88 70.36 L121.03 70.38 L121.18 70.4 L121.33 70.44 L121.49 70.49 L121.64 70.55 L121.79 70.63 L121.94 70.73 L122.08 70.84 L122.22 70.96 L122.34 71.09 L122.46 71.24 L122.58 71.4 L122.68 71.58 L122.77 71.76 L122.84 71.96 L122.9 72.16 L122.95 72.37 L122.98 72.59 L122.99 72.82 L122.99 73.05 L122.97 73.28 L122.93 73.52 L122.87 73.76 L122.79 73.99 L122.69 74.23 L122.58 74.46 L122.44 74.68 L122.29 74.9 L122.11 75.11 L121.92 75.31 L121.71 75.49 L121.48 75.67 L121.24 75.82 L120.98 75.97 L120.71 76.09 L120.43 76.19 L120.13 76.28 L119.83 76.34 L119.52 76.39 L119.2 76.41 L118.87 76.4 L118.54 76.37 L118.21 76.32 L117.88 76.24 L117.55 76.14 L117.23 76.01 L116.91 75.85 L116.6 75.67 L116.31 75.47 L116.02 75.24 L115.75 74.99 L115.49 74.72 L115.25 74.42 L115.03 74.1 L114.83 73.77 L114.66 73.42 L114.51 73.05 L114.38 72.66 L114.28 72.27 L114.21 71.86 L114.17 71.45 L114.16 71.03 L114.18 70.6 L114.23 70.18 L114.31 69.75 L114.43 69.32 L114.57 68.9 L114.75 68.49 L114.96 68.09 L115.2 67.7 L115.47 67.33 L115.77 66.97 L116.1 66.63 L116.45 66.31 L116.83 66.02 L117.24 65.75 L117.66 65.51 L118.11 65.29 L118.57 65.11 L119.06 64.96 L119.55 64.85 L120.06 64.77 L120.57 64.73 L121.09 64.72 L121.62 64.75 L122.15 64.82 L122.67 64.93 L123.19 65.08 L123.7 65.26 L124.21 65.49 L124.69 65.75 L125.17 66.04 L125.62 66.38 L126.05 66.75 L126.46 67.15 L126.84 67.58 L127.2 68.04 L127.52 68.53 L127.8 69.05 L128.06 69.59 L128.27 70.15 L128.44 70.73 L128.58 71.32 L128.67 71.93 L128.72 72.55 L128.72 73.17 L128.68 73.8 L128.6 74.42 L128.47 75.05 L128.29 75.66 L128.07 76.27 L127.8 76.87 L127.49 77.44 L127.14 78 L126.74 78.54 L126.31 79.04 L125.84 79.52 L125.33 79.97 L124.78 80.38 L124.21 80.76 L123.6 81.1 L122.97 81.39 L122.31 81.64 L121.64 81.85 L120.95 82 L120.24 82.11 L119.52 82.17 L118.8 82.17 L118.07 82.13 L117.34 82.03 L116.62 81.88 L115.9 81.67 L115.2 81.42 L114.51 81.11 L113.85 80.76 L113.2 80.35 L112.58 79.9 L112 79.4 L111.44 78.85 L110.93 78.27 L110.45 77.65 L110.02 76.99 L109.63 76.3 L109.29 75.57 L109 74.82 L108.76 74.05 L108.58 73.26 L108.46 72.45 L108.39 71.64 L108.38 70.81 L108.43 69.98 L108.53 69.15 L108.7 68.33 L108.93 67.52 L109.21 66.72 L109.56 65.93 L109.96 65.18 L110.41 64.44 L110.92 63.74 L111.48 63.07 L112.09 62.44 L112.75 61.85 L113.45 61.31 L114.19 60.82 L114.97 60.38 L115.78 59.99 L116.62 59.66 L117.49 59.38 L118.38 59.17 L119.29 59.03 L120.21 58.94 L121.13 58.92 L122.06 58.97 L122.99 59.09 L123.92 59.27 L124.83 59.52 L125.73 59.83 L126.6 60.21 L127.46 60.65 L128.28 61.15 L129.07 61.71 L129.82 62.33 L130.53 63.01 L131.19 63.74 L131.8 64.51 L132.36 65.33 L132.86 66.19 L133.3 67.09 L133.67 68.03 L133.98 68.99 L134.23 69.98 L134.4 70.98 L134.5 72" fill="none" stroke="#D4A23C" stroke-width="4.6" stroke-linecap="round" transform="rotate(315 120 120)"/><path d="M120 50 Q157.5 29.46 169.5 70.5 M169.5 70.5 Q210.54 82.5 190 120 M190 120 Q210.54 157.5 169.5 169.5 M169.5 169.5 Q157.5 210.54 120 190 M120 190 Q82.5 210.54 70.5 169.5 M70.5 169.5 Q29.46 157.5 50 120 M50 120 Q29.46 82.5 70.5 70.5 M70.5 70.5 Q82.5 29.46 120 50 " fill="none" stroke="#EFE3C8" stroke-width="3.2" stroke-linecap="round"/><path d="M158.08 28.07 Q160.75 37.3 152.34 41.93 Q149.67 32.7 158.08 28.07 Z" fill="#EFE3C8"/><path d="M211.93 81.92 Q207.3 90.33 198.07 87.66 Q202.7 79.25 211.93 81.92 Z" fill="#EFE3C8"/><path d="M211.93 158.08 Q202.7 160.75 198.07 152.34 Q207.3 149.67 211.93 158.08 Z" fill="#EFE3C8"/><path d="M158.08 211.93 Q149.67 207.3 152.34 198.07 Q160.75 202.7 158.08 211.93 Z" fill="#EFE3C8"/><path d="M81.92 211.93 Q79.25 202.7 87.66 198.07 Q90.33 207.3 81.92 211.93 Z" fill="#EFE3C8"/><path d="M28.07 158.08 Q32.7 149.67 41.93 152.34 Q37.3 160.75 28.07 158.08 Z" fill="#EFE3C8"/><path d="M28.07 81.92 Q37.3 79.25 41.93 87.66 Q32.7 90.33 28.07 81.92 Z" fill="#EFE3C8"/><path d="M81.92 28.07 Q90.33 32.7 87.66 41.93 Q79.25 37.3 81.92 28.07 Z" fill="#EFE3C8"/><circle cx="120" cy="22" r="3" fill="#D4A23C"/><circle cx="189.3" cy="50.7" r="3" fill="#D4A23C"/><circle cx="218" cy="120" r="3" fill="#D4A23C"/><circle cx="189.3" cy="189.3" r="3" fill="#D4A23C"/><circle cx="120" cy="218" r="3" fill="#D4A23C"/><circle cx="50.7" cy="189.3" r="3" fill="#D4A23C"/><circle cx="22" cy="120" r="3" fill="#D4A23C"/><circle cx="50.7" cy="50.7" r="3" fill="#D4A23C"/>
</svg>