<svg xmlns="http://www.w3.org/2000/svg" viewBox="0 0 480 480" width="480" height="480">
<defs><style>@import url('https://fonts.googleapis.com/css2?family=Fraunces:opsz,wght@9..144,400..900&amp;family=Marcellus&amp;family=Anton&amp;family=Yatra+One&amp;family=Mulish:wght@400;600;700;800&amp;family=Courier+Prime:wght@700&amp;family=Noto+Sans+Devanagari:wght@400;700&amp;display=swap');</style><path id="c1-r-up" d="M 72 240 a 168 168 0 0 1 336 0" fill="none"/><path id="c1-r-dn" d="M 70 240 a 170 170 0 0 0 340 0" fill="none"/><mask id="c1-r-bm"><path d="M158 330.5 L322 330.5 L312 344 L322 357.5 L158 357.5 L168 344 Z" fill="#fff"/><text x="240" y="348.2" font-size="11.5" font-family="'Mulish','Avenir Next',system-ui,sans-serif" font-weight="800" letter-spacing="2.6" fill="#000" text-anchor="middle" >EST 2026 · PUNE</text></mask></defs>

<g>
  
  <circle cx="240" cy="240" r="214" fill="none" stroke="#F6EDDB" stroke-width="5"/>
  <circle cx="240" cy="240" r="204" fill="none" stroke="#C8922A" stroke-width="1.3"/>
  <circle cx="240" cy="240" r="148" fill="none" stroke="#F6EDDB" stroke-width="3"/>
  <circle cx="240" cy="240" r="140" fill="none" stroke="#C8922A" stroke-width="1.1"/>
  <text font-size="38" font-family="'Marcellus','Fraunces',Georgia,serif"  letter-spacing="14" fill="#F6EDDB" ><textPath href="#c1-r-up" startOffset="50%" text-anchor="middle">C M A A</textPath></text>
  <text font-size="30" font-family="'Yatra One','Noto Sans Devanagari',serif"  letter-spacing="0" fill="#F6EDDB" ><textPath href="#c1-r-dn" startOffset="50%" text-anchor="middle">आजीचा फराळ</textPath></text>
  <circle cx="63" cy="240" r="7" fill="#C8922A"/>
  <circle cx="417" cy="240" r="7" fill="#C8922A"/>
  <rect x="360.16" y="360.16" width="10" height="10" fill="#C8922A" transform="rotate(45 365.16 365.16)"/><rect x="109.84" y="360.16" width="10" height="10" fill="#C8922A" transform="rotate(45 114.84 365.16)"/><rect x="109.84" y="109.84" width="10" height="10" fill="#C8922A" transform="rotate(45 114.84 114.84)"/><rect x="360.16" y="109.84" width="10" height="10" fill="#C8922A" transform="rotate(45 365.16 114.84)"/>
  <path d="M240 227 L240.3 226.64 L240.67 226.31 L241.1 226.02 L241.59 225.78 L242.12 225.6 L242.71 225.48 L243.32 225.44 L243.97 225.47 L244.63 225.59 L245.3 225.79 L245.98 226.07 L246.64 226.45 L247.28 226.91 L247.88 227.46 L248.45 228.1 L248.96 228.82 L249.41 229.61 L249.78 230.48 L250.07 231.4 L250.27 232.39 L250.37 233.42 L250.37 234.49 L250.26 235.58 L250.03 236.69 L249.68 237.8 L249.21 238.9 L248.62 239.98 L247.91 241.02 L247.08 242.01 L246.13 242.94 L245.08 243.79 L243.91 244.56 L242.66 245.22 L241.31 245.77 L239.88 246.2 L238.39 246.5 L236.85 246.66 L235.26 246.68 L233.64 246.53 L232.02 246.23 L230.4 245.77 L228.79 245.15 L227.23 244.36 L225.71 243.42 L224.27 242.31 L222.91 241.05 L221.65 239.65 L220.51 238.11 L219.5 236.44 L218.64 234.65 L217.93 232.76 L217.4 230.78 L217.04 228.72 L216.87 226.61 L216.91 224.46 L217.14 222.28 L217.58 220.11 L218.23 217.95 L219.09 215.83 L220.15 213.77 L221.42 211.79 L222.89 209.91 L224.55 208.14 L226.38 206.52 L228.39 205.05 L230.55 203.75 L232.85 202.64 L235.28 201.74 L237.8 201.05 L240.42 200.59 L243.1 200.38 L245.82 200.4 L248.56 200.68 L251.3 201.22 L254.01 202.01 L256.66 203.07 L259.24 204.37 L261.72 205.92 L264.07 207.72 L266.28 209.74 L268.31 211.98 L270.15 214.42 L271.78 217.05 L273.17 219.85 L274.32 222.79 L275.2 225.86 L275.81 229.03 L276.13 232.27 L276.15 235.57 L275.87 238.88 L275.28 242.19 L274.39 245.47 L273.19 248.68 L271.69 251.8 L269.89 254.8 L267.81 257.65 L265.46 260.33 L262.84 262.8 L259.99 265.05 L256.92 267.05 L253.65 268.77 L250.2 270.21 L246.61 271.33 L242.89 272.14 L239.09 272.6 L235.22 272.72 L231.33 272.49 L227.44 271.9 L223.58 270.95 L219.8 269.65 L216.12 267.99 L212.57 265.99 L209.19 263.66 L206.01 261.01 L203.07 258.06 L200.37 254.83 L197.97 251.34 L195.87 247.62 L194.1 243.69 L192.69 239.59 L191.64 235.34 L190.98 230.98 L190.72 226.55 L190.85 222.07 L191.4 217.6 L192.35 213.15 L193.72 208.78 L195.48 204.52 L197.64 200.41 L200.18 196.48 L203.09 192.77 L206.34 189.32 L209.92 186.15 L213.8 183.29 L217.95 180.78 L222.33 178.64 L226.93 176.9 L231.7 175.57 L236.6 174.66 L241.59 174.2 L246.64 174.2 L251.71 174.65 L256.75 175.57 L261.71 176.94 L266.56 178.77 L271.26 181.05 L275.76 183.76 L280.03 186.88 L284.02 190.4 L287.7 194.29 L291.04 198.52 L294 203.07 L296.55 207.89 L298.67 212.95 L300.34 218.22 L301.53 223.65 L302.23 229.2 L302.42 234.82 L302.11 240.47 L301.28 246.11 L299.94 251.68 L298.09 257.13 L295.75 262.43 L292.92 267.53 L289.62 272.38 L285.87 276.93 L281.71 281.16 L277.16 285.01 L272.24 288.46 L267.01 291.46 L261.5 294 L255.75 296.04 L249.81 297.56 L243.72 298.54 L237.54 298.98 L231.3 298.85 L225.07 298.16 L218.89 296.9 L212.82 295.09 L206.91 292.71 L201.2 289.8 L195.75 286.37 L190.61 282.45 L185.82 278.05 L181.41 273.21 L177.45 267.97 L173.95 262.36 L170.96 256.43 L168.5 250.22 L166.6 243.78 L165.28 237.17 L164.56 230.43 L164.46 223.62 L164.96 216.79 L166.09 210.01 L167.83 203.32 L170.18 196.78 L173.12 190.45 L176.64 184.38 L180.71 178.62 L185.3 173.23 L190.39 168.25 L195.93 163.73 L201.88 159.71 L208.2 156.22 L214.84 153.3 L221.74 150.99 L228.87 149.29 L236.14 148.24 L243.52 147.85 L250.94 148.12 L258.33 149.07 L265.65 150.68 L272.82 152.96 L279.78 155.89 L286.49 159.45 L292.87 163.62 L298.88 168.36 L304.47 173.65 L309.58 179.45" fill="none" stroke="#F6EDDB" stroke-width="6" stroke-linecap="round"/>
  <path d="M240.66 228.28 L242.59 223.24 M242.26 227.49 L245.87 223.48 M244.38 227.77 L249.19 225.32 M246.41 229.33 L251.78 228.76 M247.71 232.07 L252.93 233.46 M247.7 235.6 L252.07 238.77 M246.02 239.28 L248.96 243.8 M242.62 242.32 L243.74 247.6 M237.79 243.96 L236.94 249.29 M232.16 243.57 L229.46 248.25 M226.63 240.83 L222.43 244.23 M222.17 235.79 L217.04 237.46 M219.75 228.94 L214.35 228.66 M220.07 221.13 L215.13 218.93 M223.49 213.49 L219.67 209.67 M229.88 207.26 L227.68 202.33 M238.62 203.61 L238.33 198.21 M248.64 203.4 L250.31 198.27 M258.57 207.07 L261.97 202.87 M266.88 214.48 L271.56 211.78 M272.18 224.9 L277.51 224.06 M273.37 237.09 L278.65 238.22 M269.9 249.42 L274.43 252.36 M261.86 260.09 L265.03 264.46 M250.02 267.41 L251.42 272.62 M235.79 270.04 L235.23 275.41 M221.02 267.24 L218.57 272.06 M207.79 259 L203.78 262.61 M198.11 246.08 L193.07 248.02 M193.59 230 L188.19 230 M195.24 212.82 L190.2 210.88 M203.23 196.89 L199.21 193.27 M216.84 184.54 L214.38 179.73 M234.51 177.73 L233.94 172.36 M254 177.75 L255.4 172.53 M272.7 184.99 L275.87 180.62 M287.95 198.86 L292.48 195.92 M297.42 217.79 L302.71 216.67 M299.5 239.42 L304.84 240.27 M293.5 260.89 L298.18 263.59 M279.85 279.21 L283.25 283.4 M260.04 291.68 L261.71 296.82 M236.53 296.3 L236.24 301.69 M212.37 292.06 L210.17 296.99 M190.88 279.12 L187.06 282.94 M175.13 258.88 L170.2 261.08 M167.56 233.8 L162.17 234.08 M169.55 207.11 L164.41 205.44 M181.24 182.41 L177.04 179.02 M201.42 163.18 L198.72 158.51 M227.69 152.28 L226.85 146.95 M256.68 151.53 L257.8 146.25 M284.53 161.43 L287.47 156.9 " stroke="#C8922A" stroke-width="1.5"/>
  <g mask="url(#c1-r-bm)"><path d="M158 330.5 L322 330.5 L312 344 L322 357.5 L158 357.5 L168 344 Z" fill="#C8922A"/></g>
  
</g>
</svg>