<svg xmlns="http://www.w3.org/2000/svg" viewBox="0 0 480 480" width="480" height="480">
<defs><style>@import url('https://fonts.googleapis.com/css2?family=Fraunces:opsz,wght@9..144,400..900&amp;family=Marcellus&amp;family=Anton&amp;family=Yatra+One&amp;family=Mulish:wght@400;600;700;800&amp;family=Courier+Prime:wght@700&amp;family=Noto+Sans+Devanagari:wght@400;700&amp;display=swap');</style><clipPath id="c2-c-rc"><rect x="103.5" y="59.5" width="273" height="361"/></clipPath></defs>

<g>
  <rect x="80" y="36" width="320" height="408" rx="8" fill="#F1E4CB"/>
  <rect x="80" y="36" width="320" height="408" rx="8" fill="none" stroke="#33241A" stroke-width="2.2"/>
  <rect x="88" y="44" width="304" height="392" fill="none" stroke="#7A1E2B" stroke-width="1.8"/>
  <rect x="102" y="58" width="276" height="364" fill="none" stroke="#7A1E2B" stroke-width="1.4"/>
  <path d="M99 44 L89.76 58 M110 44 L100.76 58 M121 44 L111.76 58 M132 44 L122.76 58 M143 44 L133.76 58 M154 44 L144.76 58 M165 44 L155.76 58 M176 44 L166.76 58 M187 44 L177.76 58 M198 44 L188.76 58 M209 44 L199.76 58 M220 44 L210.76 58 M231 44 L221.76 58 M242 44 L232.76 58 M253 44 L243.76 58 M264 44 L254.76 58 M275 44 L265.76 58 M286 44 L276.76 58 M297 44 L287.76 58 M308 44 L298.76 58 M319 44 L309.76 58 M330 44 L320.76 58 M341 44 L331.76 58 M352 44 L342.76 58 M363 44 L353.76 58 M374 44 L364.76 58 M385 44 L375.76 58 M392 55 L378 45.76 M392 66 L378 56.76 M392 77 L378 67.76 M392 88 L378 78.76 M392 99 L378 89.76 M392 110 L378 100.76 M392 121 L378 111.76 M392 132 L378 122.76 M392 143 L378 133.76 M392 154 L378 144.76 M392 165 L378 155.76 M392 176 L378 166.76 M392 187 L378 177.76 M392 198 L378 188.76 M392 209 L378 199.76 M392 220 L378 210.76 M392 231 L378 221.76 M392 242 L378 232.76 M392 253 L378 243.76 M392 264 L378 254.76 M392 275 L378 265.76 M392 286 L378 276.76 M392 297 L378 287.76 M392 308 L378 298.76 M392 319 L378 309.76 M392 330 L378 320.76 M392 341 L378 331.76 M392 352 L378 342.76 M392 363 L378 353.76 M392 374 L378 364.76 M392 385 L378 375.76 M392 396 L378 386.76 M392 407 L378 397.76 M392 418 L378 408.76 M392 429 L378 419.76 M381 436 L390.24 422 M370 436 L379.24 422 M359 436 L368.24 422 M348 436 L357.24 422 M337 436 L346.24 422 M326 436 L335.24 422 M315 436 L324.24 422 M304 436 L313.24 422 M293 436 L302.24 422 M282 436 L291.24 422 M271 436 L280.24 422 M260 436 L269.24 422 M249 436 L258.24 422 M238 436 L247.24 422 M227 436 L236.24 422 M216 436 L225.24 422 M205 436 L214.24 422 M194 436 L203.24 422 M183 436 L192.24 422 M172 436 L181.24 422 M161 436 L170.24 422 M150 436 L159.24 422 M139 436 L148.24 422 M128 436 L137.24 422 M117 436 L126.24 422 M106 436 L115.24 422 M95 436 L104.24 422 M88 425 L102 434.24 M88 414 L102 423.24 M88 403 L102 412.24 M88 392 L102 401.24 M88 381 L102 390.24 M88 370 L102 379.24 M88 359 L102 368.24 M88 348 L102 357.24 M88 337 L102 346.24 M88 326 L102 335.24 M88 315 L102 324.24 M88 304 L102 313.24 M88 293 L102 302.24 M88 282 L102 291.24 M88 271 L102 280.24 M88 260 L102 269.24 M88 249 L102 258.24 M88 238 L102 247.24 M88 227 L102 236.24 M88 216 L102 225.24 M88 205 L102 214.24 M88 194 L102 203.24 M88 183 L102 192.24 M88 172 L102 181.24 M88 161 L102 170.24 M88 150 L102 159.24 M88 139 L102 148.24 M88 128 L102 137.24 M88 117 L102 126.24 M88 106 L102 115.24 M88 95 L102 104.24 M88 84 L102 93.24 M88 73 L102 82.24 M88 62 L102 71.24 M88 51 L102 60.24 " stroke="#7A1E2B" stroke-width="2.4" stroke-linecap="round"/>
  <path d="M95 44.5 Q96.82 49.18 101.5 51 Q96.82 52.82 95 57.5 Q93.18 52.82 88.5 51 Q93.18 49.18 95 44.5 Z" fill="#C8922A"/><path d="M385 44.5 Q386.82 49.18 391.5 51 Q386.82 52.82 385 57.5 Q383.18 52.82 378.5 51 Q383.18 49.18 385 44.5 Z" fill="#C8922A"/><path d="M95 422.5 Q96.82 427.18 101.5 429 Q96.82 430.82 95 435.5 Q93.18 430.82 88.5 429 Q93.18 427.18 95 422.5 Z" fill="#C8922A"/><path d="M385 422.5 Q386.82 427.18 391.5 429 Q386.82 430.82 385 435.5 Q383.18 430.82 378.5 429 Q383.18 427.18 385 422.5 Z" fill="#C8922A"/>
  <g clip-path="url(#c2-c-rc)">
        <g transform="translate(-2.6 -2.2)"><path d="M317.95 256.73 L479.85 262.4 L478.55 280.34 L317.53 262.56 Z M314.59 276.81 L469.51 324.19 L463.61 341.18 L312.67 282.33 Z M306.14 295.34 L443.52 381.2 L433.42 396.08 L302.86 300.18 Z M293.19 311.05 L403.66 429.54 L390.06 441.3 L288.77 314.87 Z M276.61 322.87 L352.65 465.92 L336.47 473.76 L271.35 325.42 Z M257.54 330 L293.97 487.85 L276.3 491.24 L251.8 331.1 Z M237.27 331.95 L231.6 493.85 L213.66 492.55 L231.44 331.53 Z M217.19 328.59 L169.81 483.51 L152.82 477.61 L211.67 326.67 Z M198.66 320.14 L112.8 457.52 L97.92 447.42 L193.82 316.86 Z M182.95 307.19 L64.46 417.66 L52.7 404.06 L179.13 302.77 Z M171.13 290.61 L28.08 366.65 L20.24 350.47 L168.58 285.35 Z M164 271.54 L6.15 307.97 L2.76 290.3 L162.9 265.8 Z M162.05 251.27 L0.15 245.6 L1.45 227.66 L162.47 245.44 Z M165.41 231.19 L10.49 183.81 L16.39 166.82 L167.33 225.67 Z M173.86 212.66 L36.48 126.8 L46.58 111.92 L177.14 207.82 Z M186.81 196.95 L76.34 78.46 L89.94 66.7 L191.23 193.13 Z M203.39 185.13 L127.35 42.08 L143.53 34.24 L208.65 182.58 Z M222.46 178 L186.03 20.15 L203.7 16.76 L228.2 176.9 Z M242.73 176.05 L248.4 14.15 L266.34 15.45 L248.56 176.47 Z M262.81 179.41 L310.19 24.49 L327.18 30.39 L268.33 181.33 Z M281.34 187.86 L367.2 50.48 L382.08 60.58 L286.18 191.14 Z M297.05 200.81 L415.54 90.34 L427.3 103.94 L300.87 205.23 Z M308.87 217.39 L451.92 141.35 L459.76 157.53 L311.42 222.65 Z M316 236.46 L473.85 200.03 L477.24 217.7 L317.1 242.2 Z " fill="#C8922A" opacity="0.32"/></g>
        <path d="M317.95 256.73 L479.85 262.4 L478.55 280.34 L317.53 262.56 Z M314.59 276.81 L469.51 324.19 L463.61 341.18 L312.67 282.33 Z M306.14 295.34 L443.52 381.2 L433.42 396.08 L302.86 300.18 Z M293.19 311.05 L403.66 429.54 L390.06 441.3 L288.77 314.87 Z M276.61 322.87 L352.65 465.92 L336.47 473.76 L271.35 325.42 Z M257.54 330 L293.97 487.85 L276.3 491.24 L251.8 331.1 Z M237.27 331.95 L231.6 493.85 L213.66 492.55 L231.44 331.53 Z M217.19 328.59 L169.81 483.51 L152.82 477.61 L211.67 326.67 Z M198.66 320.14 L112.8 457.52 L97.92 447.42 L193.82 316.86 Z M182.95 307.19 L64.46 417.66 L52.7 404.06 L179.13 302.77 Z M171.13 290.61 L28.08 366.65 L20.24 350.47 L168.58 285.35 Z M164 271.54 L6.15 307.97 L2.76 290.3 L162.9 265.8 Z M162.05 251.27 L0.15 245.6 L1.45 227.66 L162.47 245.44 Z M165.41 231.19 L10.49 183.81 L16.39 166.82 L167.33 225.67 Z M173.86 212.66 L36.48 126.8 L46.58 111.92 L177.14 207.82 Z M186.81 196.95 L76.34 78.46 L89.94 66.7 L191.23 193.13 Z M203.39 185.13 L127.35 42.08 L143.53 34.24 L208.65 182.58 Z M222.46 178 L186.03 20.15 L203.7 16.76 L228.2 176.9 Z M242.73 176.05 L248.4 14.15 L266.34 15.45 L248.56 176.47 Z M262.81 179.41 L310.19 24.49 L327.18 30.39 L268.33 181.33 Z M281.34 187.86 L367.2 50.48 L382.08 60.58 L286.18 191.14 Z M297.05 200.81 L415.54 90.34 L427.3 103.94 L300.87 205.23 Z M308.87 217.39 L451.92 141.35 L459.76 157.53 L311.42 222.65 Z M316 236.46 L473.85 200.03 L477.24 217.7 L317.1 242.2 Z " fill="#B3372B" opacity="0.20"/>
      </g>
  <text x="240" y="80" font-size="9.5" font-family="'Mulish','Avenir Next',system-ui,sans-serif" font-weight="700" letter-spacing="5" fill="#33241A" text-anchor="middle" >TRADE MARK</text>
  <g transform="translate(-2.6 -2.2)" opacity="0.9">
    <text x="240" y="148" font-size="66" font-family="'Anton','Arial Narrow',Impact,sans-serif"  letter-spacing="6" fill="#C8922A" text-anchor="middle" >CMAA</text>
    <path d="M240 251.5 L240.33 251.21 L240.73 250.97 L241.19 250.78 L241.7 250.67 L242.25 250.64 L242.83 250.69 L243.43 250.83 L244.02 251.08 L244.61 251.42 L245.17 251.86 L245.68 252.4 L246.14 253.03 L246.52 253.74 L246.81 254.54 L247 255.39 L247.09 256.3 L247.05 257.25 L246.88 258.22 L246.58 259.19 L246.14 260.14 L245.57 261.07 L244.86 261.93 L244.03 262.73 L243.07 263.44 L242 264.04 L240.83 264.51 L239.57 264.84 L238.25 265.03 L236.89 265.04 L235.49 264.88 L234.09 264.55 L232.71 264.03 L231.37 263.33 L230.1 262.46 L228.92 261.4 L227.85 260.19 L226.92 258.83 L226.14 257.33 L225.54 255.71 L225.13 254 L224.92 252.22 L224.93 250.38 L225.17 248.53 L225.64 246.69 L226.35 244.88 L227.28 243.13 L228.43 241.49 L229.8 239.96 L231.37 238.59 L233.12 237.4 L235.04 236.41 L237.09 235.64 L239.26 235.12 L241.51 234.85 L243.81 234.86 L246.13 235.15 L248.43 235.72 L250.68 236.57 L252.85 237.7 L254.89 239.11 L256.78 240.77 L258.49 242.67 L259.97 244.79 L261.21 247.11 L262.17 249.59 L262.85 252.2 L263.21 254.91 L263.25 257.68 L262.95 260.47 L262.32 263.24 L261.35 265.95 L260.04 268.56 L258.42 271.03 L256.49 273.31 L254.28 275.37 L251.81 277.18 L249.11 278.69 L246.22 279.9 L243.17 280.75 L240 281.25 L236.76 281.37 L233.49 281.1 L230.25 280.44 L227.07 279.38 L224 277.94 L221.1 276.13 L218.4 273.97 L215.95 271.47 L213.8 268.68 L211.97 265.61 L210.5 262.32 L209.42 258.84 L208.75 255.23 L208.52 251.52 L208.72 247.78 L209.38 244.05 L210.48 240.39 L212.02 236.85 L213.98 233.49 L216.36 230.36 L219.11 227.5 L222.21 224.96 L225.61 222.79 L229.28 221.02 L233.17 219.69 L237.23 218.82 L241.4 218.42 L245.62 218.53 L249.83 219.14 L253.98 220.25 L258 221.86 L261.84 223.95 L265.43 226.49 L268.72 229.47 L271.66 232.84 L274.2 236.57 L276.31 240.61 L277.93 244.89 L279.04 249.38 L279.63 254 L279.66 258.69 L279.13 263.39 L278.05 268.04 L276.41 272.55 L274.23 276.87 L271.54 280.94 L268.37 284.69 L264.75 288.06 L260.72 291 L256.35 293.47 L251.68 295.41 L246.78 296.8 L241.71 297.61 L236.55 297.82 L231.36 297.42 L226.23 296.39 L221.21 294.76 L216.39 292.53 L211.83 289.73 L207.61 286.39 L203.78 282.55 L200.41 278.26 L197.55 273.57 L195.25 268.54 L193.55 263.24 L192.48 257.74 L192.06 252.12 L192.31 246.45 L193.23 240.81 L194.82 235.28 L197.06 229.95 L199.93 224.89 L203.41 220.17 L207.43 215.87 L211.97 212.05 L216.95 208.77 L222.32 206.08 L228.01 204.04 L233.92 202.67 L240 202" fill="none" stroke="#C8922A" stroke-width="5.5" stroke-linecap="round"/>
    <text x="240" y="376" font-size="30" font-family="'Yatra One','Noto Sans Devanagari',serif"  letter-spacing="0" fill="#C8922A" text-anchor="middle" >आजीचा फराळ</text></g>
  <circle cx="240" cy="254" r="74" fill="#F6EDDB" stroke="#B3372B" stroke-width="3"/>
  <circle cx="240" cy="254" r="67" fill="none" stroke="#33241A" stroke-width="1" stroke-dasharray="1 3.2"/>
  
    <text x="240" y="148" font-size="66" font-family="'Anton','Arial Narrow',Impact,sans-serif"  letter-spacing="6" fill="#B3372B" text-anchor="middle" >CMAA</text>
    <path d="M240 251.5 L240.33 251.21 L240.73 250.97 L241.19 250.78 L241.7 250.67 L242.25 250.64 L242.83 250.69 L243.43 250.83 L244.02 251.08 L244.61 251.42 L245.17 251.86 L245.68 252.4 L246.14 253.03 L246.52 253.74 L246.81 254.54 L247 255.39 L247.09 256.3 L247.05 257.25 L246.88 258.22 L246.58 259.19 L246.14 260.14 L245.57 261.07 L244.86 261.93 L244.03 262.73 L243.07 263.44 L242 264.04 L240.83 264.51 L239.57 264.84 L238.25 265.03 L236.89 265.04 L235.49 264.88 L234.09 264.55 L232.71 264.03 L231.37 263.33 L230.1 262.46 L228.92 261.4 L227.85 260.19 L226.92 258.83 L226.14 257.33 L225.54 255.71 L225.13 254 L224.92 252.22 L224.93 250.38 L225.17 248.53 L225.64 246.69 L226.35 244.88 L227.28 243.13 L228.43 241.49 L229.8 239.96 L231.37 238.59 L233.12 237.4 L235.04 236.41 L237.09 235.64 L239.26 235.12 L241.51 234.85 L243.81 234.86 L246.13 235.15 L248.43 235.72 L250.68 236.57 L252.85 237.7 L254.89 239.11 L256.78 240.77 L258.49 242.67 L259.97 244.79 L261.21 247.11 L262.17 249.59 L262.85 252.2 L263.21 254.91 L263.25 257.68 L262.95 260.47 L262.32 263.24 L261.35 265.95 L260.04 268.56 L258.42 271.03 L256.49 273.31 L254.28 275.37 L251.81 277.18 L249.11 278.69 L246.22 279.9 L243.17 280.75 L240 281.25 L236.76 281.37 L233.49 281.1 L230.25 280.44 L227.07 279.38 L224 277.94 L221.1 276.13 L218.4 273.97 L215.95 271.47 L213.8 268.68 L211.97 265.61 L210.5 262.32 L209.42 258.84 L208.75 255.23 L208.52 251.52 L208.72 247.78 L209.38 244.05 L210.48 240.39 L212.02 236.85 L213.98 233.49 L216.36 230.36 L219.11 227.5 L222.21 224.96 L225.61 222.79 L229.28 221.02 L233.17 219.69 L237.23 218.82 L241.4 218.42 L245.62 218.53 L249.83 219.14 L253.98 220.25 L258 221.86 L261.84 223.95 L265.43 226.49 L268.72 229.47 L271.66 232.84 L274.2 236.57 L276.31 240.61 L277.93 244.89 L279.04 249.38 L279.63 254 L279.66 258.69 L279.13 263.39 L278.05 268.04 L276.41 272.55 L274.23 276.87 L271.54 280.94 L268.37 284.69 L264.75 288.06 L260.72 291 L256.35 293.47 L251.68 295.41 L246.78 296.8 L241.71 297.61 L236.55 297.82 L231.36 297.42 L226.23 296.39 L221.21 294.76 L216.39 292.53 L211.83 289.73 L207.61 286.39 L203.78 282.55 L200.41 278.26 L197.55 273.57 L195.25 268.54 L193.55 263.24 L192.48 257.74 L192.06 252.12 L192.31 246.45 L193.23 240.81 L194.82 235.28 L197.06 229.95 L199.93 224.89 L203.41 220.17 L207.43 215.87 L211.97 212.05 L216.95 208.77 L222.32 206.08 L228.01 204.04 L233.92 202.67 L240 202" fill="none" stroke="#B3372B" stroke-width="5.5" stroke-linecap="round"/>
    <text x="240" y="376" font-size="30" font-family="'Yatra One','Noto Sans Devanagari',serif"  letter-spacing="0" fill="#B3372B" text-anchor="middle" >आजीचा फराळ</text>
  <path d="M240.65 252.72 L242.74 248.62 M242.16 252.43 L245.89 249.72 M243.86 253.39 L248.41 252.67 M244.9 255.59 L249.27 257.01 M244.52 258.52 L247.77 261.77 M242.36 261.25 L243.78 265.63 M238.61 262.75 L237.89 267.3 M234.06 262.17 L231.36 265.89 M229.9 259.15 L225.8 261.24 M227.43 254 L222.82 254 M227.69 247.73 L223.59 245.64 M231.15 241.82 L228.45 238.1 M237.45 237.91 L236.73 233.37 M245.42 237.33 L246.84 232.96 M253.27 240.73 L256.52 237.48 M259.02 247.82 L263.4 246.4 M260.98 257.32 L265.52 258.04 M258.18 267.21 L261.9 269.91 M250.77 275.13 L252.85 279.23 M240 278.95 L240 283.55 M228.11 277.33 L226.02 281.43 M217.81 270.12 L214.09 272.82 M211.69 258.48 L207.15 259.2 M211.56 244.76 L207.19 243.34 M217.98 231.98 L214.73 228.73 M230 223.21 L228.57 218.83 M245.26 220.8 L245.98 216.26 M260.48 225.81 L263.19 222.08 M272.15 237.62 L276.25 235.53 M277.32 254 L281.93 254 M274.36 271.51 L278.46 273.6 M263.39 286.2 L266.1 289.92 M246.42 294.53 L247.14 299.08 M226.94 294.21 L225.51 298.58 M209.23 284.77 L205.98 288.02 M197.44 267.83 L193.07 269.25 M194.58 246.81 L190.04 246.09 M201.79 226.24 L198.07 223.54 M218 210.82 L215.91 206.72 " stroke="#B3372B" stroke-width="1.2"/>
  <text x="240" y="172" font-size="9.5" font-family="'Mulish','Avenir Next',system-ui,sans-serif" font-weight="700" letter-spacing="3.2" fill="#33241A" text-anchor="middle" >· SAFETY SNACK ·</text>
  <g ><rect x="104" y="390" width="272" height="30" fill="#B3372B"/></g>
  <text x="240" y="409.5" font-size="12" font-family="'Mulish','Avenir Next',system-ui,sans-serif" font-weight="800" letter-spacing="2.5" fill="#F6EDDB" text-anchor="middle" >KADAK &amp; HONEST · PUNE</text>
</g>
</svg>