<svg xmlns="http://www.w3.org/2000/svg" viewBox="0 0 480 480" width="480" height="480">
<defs><style>@import url('https://fonts.googleapis.com/css2?family=Fraunces:opsz,wght@9..144,400..900&amp;family=Marcellus&amp;family=Anton&amp;family=Yatra+One&amp;family=Mulish:wght@400;600;700;800&amp;family=Courier+Prime:wght@700&amp;family=Noto+Sans+Devanagari:wght@400;700&amp;display=swap');</style><path id="c3-m-up" d="M 148 242 a 92 92 0 0 1 184 0" fill="none"/><path id="c3-m-dn" d="M 145 242 a 95 95 0 0 0 190 0" fill="none"/><mask id="c3-m-km"><path d="M430.03 240 L429.77 244.97 L429.44 249.93 L429.05 254.88 L428.59 259.82 L428.08 264.76 L427.49 269.7 L426.8 274.62 L426 279.54 L425.05 284.43 L423.92 289.28 L422.59 294.09 L421.04 298.82 L419.24 303.47 L417.19 308.02 L414.88 312.44 L412.32 316.72 L409.52 320.86 L406.52 324.84 L403.33 328.68 L399.99 332.37 L396.55 335.93 L393.04 339.38 L389.49 342.74 L385.96 346.05 L382.46 349.31 L379.01 352.57 L375.64 355.85 L372.35 359.17 L369.13 362.54 L365.97 365.97 L362.85 369.46 L359.76 373 L356.64 376.57 L353.49 380.15 L350.26 383.69 L346.91 387.16 L343.44 390.51 L339.81 393.69 L336.01 396.67 L332.03 399.39 L327.87 401.84 L323.55 403.97 L319.07 405.78 L314.46 407.25 L309.75 408.39 L304.96 409.23 L300.12 409.78 L295.26 410.09 L290.41 410.19 L285.59 410.14 L280.81 409.99 L276.09 409.79 L271.43 409.59 L266.84 409.43 L262.29 409.34 L257.8 409.35 L253.34 409.47 L248.89 409.71 L244.45 410.06 L240 410.49 L235.52 411 L231.01 411.53 L226.46 412.06 L221.86 412.55 L217.23 412.95 L212.56 413.24 L207.87 413.37 L203.16 413.33 L198.44 413.1 L193.73 412.67 L189.04 412.04 L184.37 411.22 L179.72 410.23 L175.1 409.08 L170.5 407.8 L165.91 406.41 L161.32 404.95 L156.73 403.42 L152.12 401.85 L147.48 400.25 L142.8 398.62 L138.07 396.95 L133.31 395.24 L128.5 393.46 L123.68 391.59 L118.86 389.59 L114.07 387.44 L109.35 385.1 L104.74 382.53 L100.29 379.71 L96.03 376.62 L92.03 373.24 L88.31 369.56 L84.92 365.58 L81.89 361.32 L79.24 356.8 L76.98 352.04 L75.11 347.08 L73.61 341.96 L72.47 336.72 L71.64 331.41 L71.09 326.06 L70.77 320.72 L70.62 315.41 L70.59 310.17 L70.62 305.02 L70.66 299.97 L70.68 295.02 L70.63 290.17 L70.5 285.42 L70.26 280.75 L69.92 276.15 L69.48 271.6 L68.97 267.09 L68.4 262.59 L67.82 258.1 L67.25 253.6 L66.74 249.08 L66.32 244.55 L66.03 240 L65.9 235.44 L65.94 230.88 L66.17 226.32 L66.59 221.77 L67.19 217.25 L67.97 212.75 L68.9 208.29 L69.95 203.86 L71.11 199.45 L72.33 195.07 L73.58 190.71 L74.85 186.34 L76.12 181.97 L77.36 177.57 L78.59 173.14 L79.79 168.67 L80.98 164.15 L82.19 159.59 L83.44 154.99 L84.76 150.37 L86.19 145.74 L87.76 141.13 L89.51 136.57 L91.48 132.09 L93.68 127.72 L96.13 123.5 L98.85 119.45 L101.84 115.6 L105.09 111.97 L108.58 108.58 L112.29 105.42 L116.19 102.5 L120.25 99.79 L124.42 97.27 L128.67 94.91 L132.96 92.67 L137.27 90.52 L141.56 88.41 L145.82 86.31 L150.03 84.16 L154.18 81.95 L158.29 79.64 L162.36 77.23 L166.41 74.72 L170.45 72.1 L174.51 69.4 L178.62 66.66 L182.78 63.9 L187.03 61.18 L191.38 58.54 L195.84 56.04 L200.41 53.73 L205.09 51.66 L209.88 49.85 L214.77 48.35 L219.73 47.17 L224.76 46.3 L229.82 45.74 L234.91 45.46 L240 45.41 L245.09 45.54 L250.18 45.8 L255.26 46.12 L260.34 46.47 L265.43 46.83 L270.54 47.18 L275.67 47.56 L280.81 48.02 L285.95 48.62 L291.05 49.47 L296.09 50.64 L301.02 52.21 L305.78 54.24 L310.34 56.75 L314.68 59.72 L318.75 63.12 L322.58 66.87 L326.15 70.92 L329.5 75.16 L332.64 79.54 L335.61 83.98 L338.43 88.44 L341.11 92.88 L343.68 97.29 L346.16 101.65 L348.56 105.94 L350.9 110.15 L353.2 114.28 L355.48 118.3 L357.79 122.21 L360.14 126 L362.57 129.64 L365.12 133.14 L367.81 136.5 L370.68 139.73 L373.72 142.84 L376.96 145.87 L380.38 148.83 L383.97 151.77 L387.7 154.72 L391.53 157.72 L395.42 160.81 L399.31 164.01 L403.15 167.36 L406.88 170.88 L410.44 174.57 L413.79 178.46 L416.87 182.53 L419.64 186.79 L422.1 191.21 L424.2 195.78 L425.97 200.47 L427.39 205.27 L428.49 210.15 L429.29 215.08 L429.82 220.05 L430.13 225.04 L430.24 230.03 L430.2 235.02 Z" fill="#fff"/>
      <circle cx="240" cy="240" r="118" fill="none" stroke="#000" stroke-width="3"/>
      <circle cx="240" cy="240" r="110" fill="none" stroke="#000" stroke-width="1.4"/>
      <path d="M240 243 L240.34 242.68 L240.74 242.4 L241.2 242.17 L241.72 242 L242.28 241.89 L242.87 241.87 L243.5 241.92 L244.14 242.06 L244.78 242.29 L245.42 242.61 L246.04 243.03 L246.62 243.54 L247.17 244.13 L247.65 244.82 L248.07 245.58 L248.41 246.41 L248.66 247.31 L248.81 248.26 L248.86 249.26 L248.79 250.29 L248.6 251.33 L248.28 252.38 L247.84 253.42 L247.27 254.43 L246.58 255.4 L245.76 256.31 L244.83 257.15 L243.78 257.9 L242.62 258.56 L241.38 259.09 L240.05 259.51 L238.65 259.78 L237.2 259.9 L235.71 259.87 L234.19 259.68 L232.68 259.32 L231.18 258.79 L229.71 258.09 L228.3 257.22 L226.95 256.19 L225.7 255 L224.56 253.66 L223.55 252.18 L222.68 250.58 L221.97 248.85 L221.44 247.04 L221.09 245.14 L220.94 243.19 L220.99 241.19 L221.26 239.18 L221.74 237.17 L222.44 235.19 L223.35 233.27 L224.47 231.42 L225.8 229.67 L227.33 228.04 L229.04 226.56 L230.93 225.24 L232.97 224.11 L235.15 223.18 L237.44 222.47 L239.83 221.99 L242.29 221.76 L244.8 221.78 L247.32 222.07 L249.83 222.62 L252.31 223.43 L254.71 224.51 L257.03 225.85 L259.22 227.44 L261.27 229.27 L263.13 231.32 L264.8 233.58 L266.25 236.03 L267.45 238.65 L268.39 241.4 L269.04 244.27 L269.41 247.23 L269.47 250.25 L269.22 253.28 L268.65 256.31 L267.77 259.3 L266.57 262.22 L265.06 265.02 L263.26 267.69 L261.17 270.19 L258.82 272.48 L256.21 274.54 L253.38 276.34 L250.35 277.86 L247.15 279.07 L243.81 279.96 L240.36 280.51 L236.84 280.71 L233.28 280.55 L229.73 280.02 L226.21 279.12 L222.78 277.85 L219.46 276.23 L216.29 274.26 L213.31 271.95 L210.56 269.33 L208.07 266.42 L205.86 263.24 L203.98 259.83 L202.44 256.2 L201.27 252.41 L200.48 248.49 L200.09 244.47 L200.11 240.39 L200.56 236.31 L201.42 232.26 L202.7 228.29 L204.39 224.43 L206.48 220.74 L208.96 217.25 L211.8 214.01 L214.98 211.05 L218.47 208.4 L222.24 206.11 L226.26 204.2 L230.48 202.69 L234.86 201.61 L239.37 200.98 L243.95 200.81 L248.56 201.11 L253.15 201.88 L257.67 203.12 L262.08 204.83 L266.31 206.99 L270.34 209.59 L274.1 212.6 L277.57 216.01 L280.69 219.78 L283.44 223.87 L285.77 228.25 L287.65 232.87 L289.07 237.7 L290 242.68 L290.41 247.76 L290.31 252.89 L289.69 258.02 L288.54 263.09 L286.87 268.06 L284.69 272.85 L282.02 277.44 L278.88 281.75 L275.29 285.75 L271.29 289.39 L266.92 292.62 L262.21 295.41 L257.21 297.72 L251.97 299.53 L246.53 300.8 L240.97 301.52 L235.33 301.67 L229.66 301.25 L224.04 300.24 L218.51 298.67 L213.14 296.52 L207.98 293.83 L203.09 290.61 L198.53 286.89 L194.35 282.71 L190.59 278.09 L187.3 273.09 L184.51 267.74 L182.27 262.12 L180.61 256.26 L179.54 250.23 L179.08 244.09 L179.25 237.89 L180.05 231.72 L181.48 225.62 L183.53 219.67 L186.19 213.92 L189.44 208.45 L193.24 203.3 L197.57 198.54 L202.38 194.22" fill="none" stroke="#000" stroke-width="7" stroke-linecap="round"/>
      <text font-size="26" font-family="'Marcellus','Fraunces',Georgia,serif"  letter-spacing="10" fill="#000" ><textPath href="#c3-m-up" startOffset="50%" text-anchor="middle">C M A A</textPath></text>
      <text font-size="12" font-family="'Mulish','Avenir Next',system-ui,sans-serif" font-weight="800" letter-spacing="4" fill="#000" ><textPath href="#c3-m-dn" startOffset="50%" text-anchor="middle">· PUNE ·</textPath></text></mask></defs>
<path d="M430.03 240 L429.77 244.97 L429.44 249.93 L429.05 254.88 L428.59 259.82 L428.08 264.76 L427.49 269.7 L426.8 274.62 L426 279.54 L425.05 284.43 L423.92 289.28 L422.59 294.09 L421.04 298.82 L419.24 303.47 L417.19 308.02 L414.88 312.44 L412.32 316.72 L409.52 320.86 L406.52 324.84 L403.33 328.68 L399.99 332.37 L396.55 335.93 L393.04 339.38 L389.49 342.74 L385.96 346.05 L382.46 349.31 L379.01 352.57 L375.64 355.85 L372.35 359.17 L369.13 362.54 L365.97 365.97 L362.85 369.46 L359.76 373 L356.64 376.57 L353.49 380.15 L350.26 383.69 L346.91 387.16 L343.44 390.51 L339.81 393.69 L336.01 396.67 L332.03 399.39 L327.87 401.84 L323.55 403.97 L319.07 405.78 L314.46 407.25 L309.75 408.39 L304.96 409.23 L300.12 409.78 L295.26 410.09 L290.41 410.19 L285.59 410.14 L280.81 409.99 L276.09 409.79 L271.43 409.59 L266.84 409.43 L262.29 409.34 L257.8 409.35 L253.34 409.47 L248.89 409.71 L244.45 410.06 L240 410.49 L235.52 411 L231.01 411.53 L226.46 412.06 L221.86 412.55 L217.23 412.95 L212.56 413.24 L207.87 413.37 L203.16 413.33 L198.44 413.1 L193.73 412.67 L189.04 412.04 L184.37 411.22 L179.72 410.23 L175.1 409.08 L170.5 407.8 L165.91 406.41 L161.32 404.95 L156.73 403.42 L152.12 401.85 L147.48 400.25 L142.8 398.62 L138.07 396.95 L133.31 395.24 L128.5 393.46 L123.68 391.59 L118.86 389.59 L114.07 387.44 L109.35 385.1 L104.74 382.53 L100.29 379.71 L96.03 376.62 L92.03 373.24 L88.31 369.56 L84.92 365.58 L81.89 361.32 L79.24 356.8 L76.98 352.04 L75.11 347.08 L73.61 341.96 L72.47 336.72 L71.64 331.41 L71.09 326.06 L70.77 320.72 L70.62 315.41 L70.59 310.17 L70.62 305.02 L70.66 299.97 L70.68 295.02 L70.63 290.17 L70.5 285.42 L70.26 280.75 L69.92 276.15 L69.48 271.6 L68.97 267.09 L68.4 262.59 L67.82 258.1 L67.25 253.6 L66.74 249.08 L66.32 244.55 L66.03 240 L65.9 235.44 L65.94 230.88 L66.17 226.32 L66.59 221.77 L67.19 217.25 L67.97 212.75 L68.9 208.29 L69.95 203.86 L71.11 199.45 L72.33 195.07 L73.58 190.71 L74.85 186.34 L76.12 181.97 L77.36 177.57 L78.59 173.14 L79.79 168.67 L80.98 164.15 L82.19 159.59 L83.44 154.99 L84.76 150.37 L86.19 145.74 L87.76 141.13 L89.51 136.57 L91.48 132.09 L93.68 127.72 L96.13 123.5 L98.85 119.45 L101.84 115.6 L105.09 111.97 L108.58 108.58 L112.29 105.42 L116.19 102.5 L120.25 99.79 L124.42 97.27 L128.67 94.91 L132.96 92.67 L137.27 90.52 L141.56 88.41 L145.82 86.31 L150.03 84.16 L154.18 81.95 L158.29 79.64 L162.36 77.23 L166.41 74.72 L170.45 72.1 L174.51 69.4 L178.62 66.66 L182.78 63.9 L187.03 61.18 L191.38 58.54 L195.84 56.04 L200.41 53.73 L205.09 51.66 L209.88 49.85 L214.77 48.35 L219.73 47.17 L224.76 46.3 L229.82 45.74 L234.91 45.46 L240 45.41 L245.09 45.54 L250.18 45.8 L255.26 46.12 L260.34 46.47 L265.43 46.83 L270.54 47.18 L275.67 47.56 L280.81 48.02 L285.95 48.62 L291.05 49.47 L296.09 50.64 L301.02 52.21 L305.78 54.24 L310.34 56.75 L314.68 59.72 L318.75 63.12 L322.58 66.87 L326.15 70.92 L329.5 75.16 L332.64 79.54 L335.61 83.98 L338.43 88.44 L341.11 92.88 L343.68 97.29 L346.16 101.65 L348.56 105.94 L350.9 110.15 L353.2 114.28 L355.48 118.3 L357.79 122.21 L360.14 126 L362.57 129.64 L365.12 133.14 L367.81 136.5 L370.68 139.73 L373.72 142.84 L376.96 145.87 L380.38 148.83 L383.97 151.77 L387.7 154.72 L391.53 157.72 L395.42 160.81 L399.31 164.01 L403.15 167.36 L406.88 170.88 L410.44 174.57 L413.79 178.46 L416.87 182.53 L419.64 186.79 L422.1 191.21 L424.2 195.78 L425.97 200.47 L427.39 205.27 L428.49 210.15 L429.29 215.08 L429.82 220.05 L430.13 225.04 L430.24 230.03 L430.2 235.02 Z" fill="#33241A" mask="url(#c3-m-km)"/>
</svg>