<svg xmlns="http://www.w3.org/2000/svg" viewBox="0 0 480 480" width="480" height="480">
<defs><style>@import url('https://fonts.googleapis.com/css2?family=Fraunces:opsz,wght@9..144,400..900&amp;family=Marcellus&amp;family=Anton&amp;family=Yatra+One&amp;family=Mulish:wght@400;600;700;800&amp;family=Courier+Prime:wght@700&amp;family=Noto+Sans+Devanagari:wght@400;700&amp;display=swap');</style><mask id="c6-m-dm"><rect x="322" y="118" width="44" height="40" rx="3" fill="#fff"/><text x="344" y="145.5" font-size="19" font-family="'Fraunces',Georgia,serif" font-weight="700" letter-spacing="0" fill="#000" text-anchor="middle" >₹5</text></mask><path id="c6-m-cu" d="M 336 108 a 36 36 0 0 1 72 0" fill="none"/><path id="c6-m-cd" d="M 335 108 a 37 37 0 0 0 74 0" fill="none"/></defs>

<g>
  
  <path d="M78 88 a6.86 6.86 0 0 1 13.73 0 a6.86 6.86 0 0 1 13.73 0 a6.86 6.86 0 0 1 13.73 0 a6.86 6.86 0 0 1 13.73 0 a6.86 6.86 0 0 1 13.73 0 a6.86 6.86 0 0 1 13.73 0 a6.86 6.86 0 0 1 13.73 0 a6.86 6.86 0 0 1 13.73 0 a6.86 6.86 0 0 1 13.73 0 a6.86 6.86 0 0 1 13.73 0 a6.86 6.86 0 0 1 13.73 0 a6.86 6.86 0 0 1 13.73 0 a6.86 6.86 0 0 1 13.73 0 a6.86 6.86 0 0 1 13.73 0 a6.86 6.86 0 0 1 13.73 0 a6.86 6.86 0 0 1 13.73 0 a6.86 6.86 0 0 1 13.73 0 a6.86 6.86 0 0 1 13.73 0 a6.86 6.86 0 0 1 13.73 0 a6.86 6.86 0 0 1 13.73 0 a6.86 6.86 0 0 1 13.73 0 a6.86 6.86 0 0 1 13.73 0 a14 14 0 0 1 14 14 a6.86 6.86 0 0 1 0 13.73 a6.86 6.86 0 0 1 0 13.73 a6.86 6.86 0 0 1 0 13.73 a6.86 6.86 0 0 1 0 13.73 a6.86 6.86 0 0 1 0 13.73 a6.86 6.86 0 0 1 0 13.73 a6.86 6.86 0 0 1 0 13.73 a6.86 6.86 0 0 1 0 13.73 a6.86 6.86 0 0 1 0 13.73 a6.86 6.86 0 0 1 0 13.73 a6.86 6.86 0 0 1 0 13.73 a6.86 6.86 0 0 1 0 13.73 a6.86 6.86 0 0 1 0 13.73 a6.86 6.86 0 0 1 0 13.73 a6.86 6.86 0 0 1 0 13.73 a6.86 6.86 0 0 1 0 13.73 a6.86 6.86 0 0 1 0 13.73 a6.86 6.86 0 0 1 0 13.73 a6.86 6.86 0 0 1 0 13.73 a6.86 6.86 0 0 1 0 13.73 a6.86 6.86 0 0 1 0 13.73 a6.86 6.86 0 0 1 0 13.73 a14 14 0 0 1 -14 14 a6.86 6.86 0 0 1 -13.73 0 a6.86 6.86 0 0 1 -13.73 0 a6.86 6.86 0 0 1 -13.73 0 a6.86 6.86 0 0 1 -13.73 0 a6.86 6.86 0 0 1 -13.73 0 a6.86 6.86 0 0 1 -13.73 0 a6.86 6.86 0 0 1 -13.73 0 a6.86 6.86 0 0 1 -13.73 0 a6.86 6.86 0 0 1 -13.73 0 a6.86 6.86 0 0 1 -13.73 0 a6.86 6.86 0 0 1 -13.73 0 a6.86 6.86 0 0 1 -13.73 0 a6.86 6.86 0 0 1 -13.73 0 a6.86 6.86 0 0 1 -13.73 0 a6.86 6.86 0 0 1 -13.73 0 a6.86 6.86 0 0 1 -13.73 0 a6.86 6.86 0 0 1 -13.73 0 a6.86 6.86 0 0 1 -13.73 0 a6.86 6.86 0 0 1 -13.73 0 a6.86 6.86 0 0 1 -13.73 0 a6.86 6.86 0 0 1 -13.73 0 a6.86 6.86 0 0 1 -13.73 0 a14 14 0 0 1 -14 -14 a6.86 6.86 0 0 1 0 -13.73 a6.86 6.86 0 0 1 0 -13.73 a6.86 6.86 0 0 1 0 -13.73 a6.86 6.86 0 0 1 0 -13.73 a6.86 6.86 0 0 1 0 -13.73 a6.86 6.86 0 0 1 0 -13.73 a6.86 6.86 0 0 1 0 -13.73 a6.86 6.86 0 0 1 0 -13.73 a6.86 6.86 0 0 1 0 -13.73 a6.86 6.86 0 0 1 0 -13.73 a6.86 6.86 0 0 1 0 -13.73 a6.86 6.86 0 0 1 0 -13.73 a6.86 6.86 0 0 1 0 -13.73 a6.86 6.86 0 0 1 0 -13.73 a6.86 6.86 0 0 1 0 -13.73 a6.86 6.86 0 0 1 0 -13.73 a6.86 6.86 0 0 1 0 -13.73 a6.86 6.86 0 0 1 0 -13.73 a6.86 6.86 0 0 1 0 -13.73 a6.86 6.86 0 0 1 0 -13.73 a6.86 6.86 0 0 1 0 -13.73 a6.86 6.86 0 0 1 0 -13.73 a14 14 0 0 1 14 -14 Z" fill="none" stroke="#33241A" stroke-width="2"/>
  <rect x="84" y="108" width="290" height="290" fill="none" stroke="#33241A" stroke-width="2.2"/>
  
  <text x="100" y="146" font-size="26" font-family="'Marcellus','Fraunces',Georgia,serif"  letter-spacing="4" fill="#33241A" text-anchor="start" >CMAA</text>
  <text x="100" y="162" font-size="9" font-family="'Mulish','Avenir Next',system-ui,sans-serif" font-weight="700" letter-spacing="3.4" fill="#33241A" text-anchor="start" >FARAL POST</text>
  <g mask="url(#c6-m-dm)"><rect x="322" y="118" width="44" height="40" rx="3" fill="#33241A"/></g>
  
  <path d="M229 249 L229.32 248.68 L229.71 248.4 L230.15 248.16 L230.65 247.99 L231.19 247.87 L231.76 247.82 L232.37 247.85 L232.99 247.96 L233.62 248.15 L234.25 248.43 L234.87 248.8 L235.46 249.25 L236.02 249.79 L236.53 250.42 L236.98 251.12 L237.36 251.89 L237.66 252.74 L237.88 253.64 L238 254.58 L238.02 255.57 L237.93 256.58 L237.72 257.61 L237.4 258.64 L236.95 259.66 L236.39 260.65 L235.7 261.6 L234.9 262.5 L233.99 263.33 L232.97 264.08 L231.85 264.74 L230.64 265.28 L229.34 265.72 L227.99 266.02 L226.57 266.18 L225.11 266.2 L223.63 266.07 L222.14 265.78 L220.66 265.33 L219.19 264.72 L217.77 263.96 L216.41 263.03 L215.13 261.95 L213.94 260.72 L212.85 259.35 L211.9 257.85 L211.09 256.24 L210.43 254.52 L209.93 252.72 L209.62 250.84 L209.49 248.91 L209.56 246.94 L209.83 244.96 L210.3 242.99 L210.98 241.04 L211.87 239.14 L212.95 237.3 L214.23 235.56 L215.7 233.94 L217.35 232.44 L219.16 231.1 L221.13 229.93 L223.23 228.94 L225.45 228.16 L227.77 227.59 L230.17 227.25 L232.62 227.15 L235.1 227.3 L237.58 227.69 L240.04 228.34 L242.46 229.23 L244.81 230.38 L247.06 231.77 L249.19 233.4 L251.17 235.24 L252.98 237.3 L254.6 239.56 L256 241.99 L257.17 244.58 L258.09 247.3 L258.74 250.13 L259.12 253.04 L259.21 256.01 L259 259 L258.49 261.99 L257.69 264.95 L256.58 267.85 L255.18 270.65 L253.5 273.33 L251.54 275.85 L249.32 278.19 L246.85 280.33 L244.16 282.23 L241.27 283.87 L238.21 285.24 L234.99 286.31 L231.65 287.06 L228.22 287.49 L224.73 287.57 L221.22 287.32 L217.72 286.71 L214.26 285.76 L210.89 284.46 L207.63 282.82 L204.52 280.85 L201.59 278.57 L198.87 275.98 L196.4 273.12 L194.2 270.01 L192.31 266.66 L190.73 263.12 L189.5 259.41 L188.64 255.56 L188.15 251.61 L188.04 247.61 L188.34 243.58 L189.03 239.57 L190.12 235.61 L191.6 231.75 L193.47 228.02 L195.71 224.46 L198.31 221.12 L201.25 218.02 L204.5 215.21 L208.03 212.7 L211.83 210.54 L215.84 208.75 L220.04 207.34 L224.4 206.35 L228.85 205.79 L233.38 205.66 L237.93 205.97 L242.46 206.74 L246.92 207.95 L251.28 209.61 L255.48 211.69 L259.48 214.2 L263.25 217.1 L266.73 220.38 L269.91 224.01 L272.73 227.96 L275.17 232.19 L277.19 236.68 L278.78 241.36 L279.91 246.22 L280.57 251.19 L280.74 256.24 L280.41 261.31 L279.58 266.35 L278.26 271.32 L276.45 276.17 L274.15 280.85 L271.4 285.31 L268.2 289.51 L264.58 293.4 L260.58 296.94 L256.23 300.09 L251.56 302.81 L246.62 305.08 L241.45 306.87 L236.09 308.15 L230.61 308.91 L225.04 309.13 L219.45 308.81 L213.89 307.93 L208.4 306.51 L203.05 304.55 L197.89 302.06 L192.96 299.07 L188.33 295.59 L184.03 291.65 L180.12 287.28 L176.63 282.53 L173.6 277.43 L171.08 272.03 L169.08 266.39 L167.63 260.54 L166.76 254.54 L166.47 248.46 L166.78 242.35 L167.69 236.26 L169.2 230.26 L171.29 224.4 L173.96 218.75 L177.19 213.35 L180.94 208.27 L185.2 203.56 L189.92 199.26 L195.06 195.42 L200.58 192.09 L206.42 189.29 L212.55 187.07 L218.89 185.44 L225.39 184.44 L231.99 184.08 L238.63 184.36 L245.24 185.29 L251.76 186.87 L258.12 189.08 L264.27 191.93 L270.14 195.37" fill="none" stroke="#33241A" stroke-width="6" stroke-linecap="round"/>
  <path d="M229.75 250.26 L231.72 245.66 M231.39 249.73 L235.01 246.29 M233.4 250.38 L238.09 248.65 M235.07 252.32 L240.07 252.58 M235.71 255.31 L240.19 257.52 M234.76 258.75 L238.01 262.55 M232.05 261.81 L233.53 266.58 M227.78 263.6 L227.26 268.58 M222.62 263.4 L220.17 267.76 M217.53 260.8 L213.56 263.85 M213.63 255.9 L208.79 257.13 M211.96 249.3 L207.02 248.52 M213.23 242.05 L209 239.38 M217.65 235.48 L214.82 231.36 M224.82 230.97 L223.84 226.07 M233.75 229.67 L234.79 224.77 M242.98 232.21 L245.87 228.13 M250.85 238.61 L255.11 236 M255.74 248.12 L260.69 247.41 M256.45 259.35 L261.28 260.65 M252.41 270.46 L256.34 273.55 M243.89 279.43 L246.28 283.82 M231.98 284.47 L232.44 289.45 M218.49 284.34 L216.95 289.09 M205.66 278.61 L202.37 282.37 M195.79 267.84 L191.28 269.99 M190.84 253.5 L185.85 253.7 M192.05 237.81 L187.38 236.02 M199.65 223.41 L196.07 219.92 M212.78 212.85 L210.87 208.23 M229.57 208.23 L229.64 203.23 M247.37 210.74 L249.4 206.17 M263.19 220.39 L266.86 217 M274.21 235.99 L278.92 234.32 M278.25 255.23 L283.24 255.55 M274.22 275.04 L278.67 277.31 M262.34 292.09 L265.54 295.94 M244.21 303.34 L245.63 308.13 M222.54 306.56 L221.96 311.52 M200.83 300.79 L198.33 305.12 M182.74 286.54 L178.74 289.53 M171.51 265.8 L166.65 266.97 M169.35 241.75 L164.43 240.9 M177.07 218.28 L172.88 215.55 M193.83 199.36 L191.05 195.2 M217.21 188.38 L216.3 183.46 M243.59 187.53 L244.69 182.65 " stroke="#33241A" stroke-width="1.4"/>
  <text x="229" y="356" font-size="27" font-family="'Yatra One','Noto Sans Devanagari',serif"  letter-spacing="0" fill="#33241A" text-anchor="middle" >आजीचा फराळ</text>
  <text x="229" y="380" font-size="9.5" font-family="'Mulish','Avenir Next',system-ui,sans-serif" font-weight="700" letter-spacing="3" fill="#33241A" text-anchor="middle" >GHARGUTI FARAL · PUNE</text>
  
  <g opacity="1">
    <g transform="rotate(-8 372 108)">
      <circle cx="372" cy="108" r="50" fill="none" stroke="#33241A" stroke-width="2.4"/>
      <circle cx="372" cy="108" r="26" fill="none" stroke="#33241A" stroke-width="1.3"/>
      <text font-size="11" font-family="'Mulish','Avenir Next',system-ui,sans-serif" font-weight="800" letter-spacing="2.4" fill="#33241A" ><textPath href="#c6-m-cu" startOffset="50%" text-anchor="middle">PUNE G.P.O.</textPath></text>
      <text font-size="11" font-family="'Mulish','Avenir Next',system-ui,sans-serif" font-weight="800" letter-spacing="3" fill="#33241A" ><textPath href="#c6-m-cd" startOffset="50%" text-anchor="middle">411038</textPath></text>
      <text x="372" y="107" font-size="12.5" font-family="'Courier Prime','Courier New',monospace" font-weight="700" letter-spacing="0" fill="#33241A" text-anchor="middle" >10 JUL</text>
      <text x="372" y="120" font-size="12.5" font-family="'Courier Prime','Courier New',monospace" font-weight="700" letter-spacing="0" fill="#33241A" text-anchor="middle" >2026</text>
    </g>
    <path d="M196 92 q 10.17 4.5 20.33 0 t 20.33 0 t 20.33 0 t 20.33 0 t 20.33 0 t 20.33 0" fill="none" stroke="#33241A" stroke-width="2.2" stroke-linecap="round"/><path d="M196 103 q 10.17 4.5 20.33 0 t 20.33 0 t 20.33 0 t 20.33 0 t 20.33 0 t 20.33 0" fill="none" stroke="#33241A" stroke-width="2.2" stroke-linecap="round"/><path d="M196 114 q 10.17 4.5 20.33 0 t 20.33 0 t 20.33 0 t 20.33 0 t 20.33 0 t 20.33 0" fill="none" stroke="#33241A" stroke-width="2.2" stroke-linecap="round"/><path d="M196 125 q 10.17 4.5 20.33 0 t 20.33 0 t 20.33 0 t 20.33 0 t 20.33 0 t 20.33 0" fill="none" stroke="#33241A" stroke-width="2.2" stroke-linecap="round"/>
  </g>
</g>
</svg>