<svg xmlns="http://www.w3.org/2000/svg" viewBox="0 0 400 400" width="400" height="400" role="img" aria-label="Cmaa — Handmade Small Batch heritage crest, single ink, established 2026">
  <title>Cmaa — Circular Heritage Crest (monochrome ink)</title>
  <defs>
    <path id="e1m-arc-top" d="M 66 200 A 134 134 0 0 1 334 200" fill="none"/>
    <path id="e1m-arc-bot" d="M 74 200 A 126 126 0 0 0 326 200" fill="none"/>
    <g id="e1m-sprig">
      <path d="M -11 0 Q 0 1 11 0" fill="none" stroke="#2E2017" stroke-width="2" stroke-linecap="round"/>
      <g fill="#2E2017">
        <ellipse cx="-7" cy="-7" rx="2.6" ry="4.2" transform="rotate(-38 -7 -7)"/>
        <ellipse cx="-1" cy="8" rx="2.6" ry="4.2" transform="rotate(32 -1 8)"/>
        <ellipse cx="5" cy="-7" rx="2.5" ry="4" transform="rotate(-34 5 -7)"/>
        <ellipse cx="10" cy="6" rx="2.3" ry="3.6" transform="rotate(30 10 6)"/>
      </g>
      <g stroke="#2E2017" stroke-width="1.4" fill="none" stroke-linecap="round">
        <path d="M -6 0 Q -7 -4 -7 -6"/>
        <path d="M -2 0 Q -1 5 -1 7"/>
        <path d="M 4 0 Q 5 -4 5 -6"/>
        <path d="M 8 0 Q 9 4 10 5"/>
      </g>
    </g>
  </defs>

  <g fill="none" stroke="#2E2017">
    <circle cx="200" cy="200" r="186" stroke-width="2"/>
    <circle cx="200" cy="200" r="171" stroke-width="7"/>
    <circle cx="200" cy="200" r="157" stroke-width="1.5"/>
  </g>

  <text font-family="Fraunces, 'Cormorant Garamond', Georgia, serif" font-size="52" font-weight="600"
        letter-spacing="16" fill="#2E2017" text-anchor="middle">
    <textPath href="#e1m-arc-top" startOffset="50%">CMAA</textPath>
  </text>
  <text font-family="Mulish, 'Helvetica Neue', Arial, sans-serif" font-size="17" font-weight="700"
        letter-spacing="6" fill="#2E2017" text-anchor="middle">
    <textPath href="#e1m-arc-bot" startOffset="50%">HANDMADE &#183; SMALL BATCH</textPath>
  </text>

  <use href="#e1m-sprig" transform="translate(52 200)"/>
  <use href="#e1m-sprig" transform="translate(348 200) scale(-1 1)"/>

  <g fill="#2E2017">
    <path d="M 200 32 l 6 7 l -6 7 l -6 -7 Z"/>
    <path d="M 200 354 l 6 7 l -6 7 l -6 -7 Z"/>
    <circle cx="182" cy="39" r="2"/><circle cx="218" cy="39" r="2"/>
    <circle cx="182" cy="361" r="2"/><circle cx="218" cy="361" r="2"/>
  </g>

  <circle cx="200" cy="200" r="101" fill="none" stroke="#2E2017" stroke-width="2.5"/>
  <circle cx="200" cy="200" r="92" fill="none" stroke="#2E2017" stroke-width="1.3" stroke-dasharray="1.5 5"/>

  <g transform="translate(200 186)" fill="none" stroke="#2E2017" stroke-width="6.5" stroke-linecap="round" stroke-linejoin="round">
    <path d="M 0.00 -5.00 L 0.45 -5.17 L 0.93 -5.29 L 1.44 -5.37 L 1.96 -5.39 L 2.50 -5.37 L 3.06 -5.29 L 3.61 -5.16 L 4.17 -4.97 L 4.71 -4.71 L 5.25 -4.40 L 5.76 -4.04 L 6.25 -3.61 L 6.71 -3.13 L 7.13 -2.60 L 7.51 -2.01 L 7.84 -1.38 L 8.12 -0.71 L 8.33 0.00 L 8.49 0.74 L 8.57 1.51 L 8.59 2.30 L 8.53 3.10 L 8.39 3.91 L 8.18 4.72 L 7.89 5.52 L 7.52 6.31 L 7.07 7.07 L 6.55 7.80 L 5.95 8.49 L 5.28 9.14 L 4.54 9.73 L 3.74 10.27 L 2.88 10.73 L 1.96 11.12 L 1.00 11.44 L 0.00 11.67 L -1.03 11.81 L -2.09 11.85 L -3.16 11.81 L -4.24 11.66 L -5.32 11.41 L -6.39 11.07 L -7.44 10.62 L -8.45 10.07 L -9.43 9.43 L -10.36 8.69 L -11.23 7.86 L -12.03 6.94 L -12.76 5.95 L -13.40 4.88 L -13.95 3.74 L -14.41 2.54 L -14.76 1.29 L -15.00 0.00 L -15.13 -1.32 L -15.14 -2.67 L -15.03 -4.03 L -14.79 -5.38 L -14.43 -6.73 L -13.95 -8.06 L -13.35 -9.35 L -12.63 -10.59 L -11.79 -11.79 L -10.83 -12.91 L -9.77 -13.96 L -8.61 -14.91 L -7.36 -15.78 L -6.02 -16.53 L -4.60 -17.17 L -3.12 -17.69 L -1.58 -18.08 L -0.00 -18.33 L 1.61 -18.45 L 3.25 -18.42 L 4.89 -18.25 L 6.52 -17.92 L 8.14 -17.45 L 9.72 -16.84 L 11.26 -16.08 L 12.74 -15.18 L 14.14 -14.14 L 15.46 -12.97 L 16.69 -11.68 L 17.80 -10.28 L 18.80 -8.77 L 19.66 -7.16 L 20.39 -5.46 L 20.97 -3.70 L 21.40 -1.87 L 21.67 -0.00 L 21.77 1.90 L 21.70 3.83 L 21.47 5.75 L 21.06 7.66 L 20.48 9.55 L 19.73 11.39 L 18.81 13.17 L 17.73 14.88 L 16.50 16.50 L 15.12 18.02 L 13.60 19.42 L 11.94 20.69 L 10.17 21.82 L 8.30 22.80 L 6.33 23.61 L 4.28 24.26 L 2.16 24.72 L 0.00 25.00 L -2.20 25.09 L -4.41 24.98 L -6.61 24.68 L -8.80 24.19 L -10.96 23.50 L -13.06 22.61 L -15.08 21.54 L -17.02 20.29 L -18.86 18.86 L -20.57 17.26 L -22.15 15.51 L -23.58 13.61 L -24.84 11.58 L -25.93 9.44 L -26.83 7.19 L -27.54 4.86 L -28.04 2.45 L -28.33 0.00 L -28.41 -2.49 L -28.27 -4.98 L -27.90 -7.48 L -27.32 -9.94 L -26.52 -12.37 L -25.50 -14.72 L -24.27 -16.99 L -22.84 -19.16 L -21.21 -21.21 L -19.40 -23.12 L -17.42 -24.88 L -15.28 -26.46 L -12.99 -27.86 L -10.58 -29.06 L -8.05 -30.05 L -5.43 -30.82 L -2.74 -31.36 L -0.00 -31.67 L 2.78 -31.73 L 5.56 -31.55 L 8.34 -31.12 L 11.08 -30.45 L 13.77 -29.54 L 16.39 -28.39 L 18.91 -27.00 L 21.31 -25.39 L 23.57 -23.57 L 25.68 -21.55 L 27.61 -19.33 L 29.35 -16.94 L 30.88 -14.40 L 32.19 -11.72 L 33.27 -8.91 L 34.10 -6.01 L 34.68 -3.03 L 35.00 -0.00 L 35.05 3.07 L 34.83 6.14 L 34.34 9.20 L 33.59 12.22 L 32.56 15.18 L 31.27 18.06 L 29.73 20.82 L 27.95 23.45 L 25.93 25.93 L 23.69 28.23 L 21.24 30.34 L 18.61 32.24 L 15.81 33.90 L 12.86 35.33 L 9.78 36.49 L 6.59 37.39 L 3.32 38.00 L 0.00 38.33 L -3.36 38.37 L -6.72 38.12 L -10.07 37.56 L -13.36 36.72 L -16.59 35.58 L -19.72 34.16 L -22.73 32.46 L -25.59 30.50 L -28.28 28.28 L -30.78 25.83 L -33.07 23.16 L -35.12 20.28 L -36.92 17.22 L -38.46 14.00 L -39.71 10.64 L -40.67 7.17 L -41.32 3.62 L -41.67 0.00 L -41.69 -3.65 L -41.40 -7.30 L -40.78 -10.93 L -39.85 -14.50 L -38.60 -18.00 L -37.05 -21.39 L -35.19 -24.64 L -33.05 -27.74 L -30.64 -30.64 L -27.97 -33.34 L -25.07 -35.80 L -21.94 -38.01 L -18.63 -39.94 L -15.14 -41.59 L -11.50 -42.93 L -7.75 -43.95 L -3.91 -44.64 L -0.00 -45.00"/>
  </g>
  <circle cx="200" cy="186" r="3.3" fill="#2E2017"/>

  <g text-anchor="middle">
    <line x1="166" y1="250" x2="234" y2="250" stroke="#2E2017" stroke-width="1.3"/>
    <text x="200" y="266" font-family="Mulish, Arial, sans-serif" font-size="12" font-weight="800"
          letter-spacing="4" fill="#2E2017">EST. 2026</text>
    <g fill="#2E2017">
      <ellipse cx="158" cy="250" rx="2" ry="3.4" transform="rotate(-22 158 250)"/>
      <ellipse cx="242" cy="250" rx="2" ry="3.4" transform="rotate(22 242 250)"/>
    </g>
  </g>
</svg>
