<svg xmlns="http://www.w3.org/2000/svg" viewBox="0 0 560 280" width="560" height="280" role="img" aria-label="Cmaa — Homemade Chakli and Chivda">
  <title>Cmaa — Premium serif wordmark (one colour)</title>

  <text x="214" y="170" font-family="Fraunces, 'Cormorant Garamond', Georgia, serif"
        font-size="158" font-weight="600" letter-spacing="-3" fill="#2E2017">maa</text>

  <g transform="translate(118,108)">
    <path fill="#2E2017" d="
      M 47 -60 C 18 -60 -4 -37 -4 -3 C -4 32 19 55 49 55 C 67 55 81 47 91 32
      L 80 24 C 72.5 35.5 62 41.5 50 41.5 C 29 41.5 15 23 15 -3 C 15 -30 28.5 -48.5 48 -48.5
      C 60 -48.5 70 -42.5 77 -31 L 88.5 -39 C 79 -53 66 -60 47 -60 Z"/>
    <g transform="translate(44,-2) scale(0.52)">
      <path fill="none" stroke="#2E2017" stroke-width="6.4" stroke-linecap="round"
        d="M 0.00 -1.60 C 0.08 -1.69 0.28 -1.97 0.48 -2.12 C 0.68 -2.26 0.93 -2.39 1.19 -2.47 C 1.45 -2.55 1.76 -2.60 2.07 -2.59 C 2.38 -2.59 2.72 -2.53 3.04 -2.42 C 3.37 -2.32 3.71 -2.15 4.02 -1.94 C 4.33 -1.72 4.64 -1.44 4.91 -1.12 C 5.17 -0.80 5.42 -0.42 5.61 0.00 C 5.79 0.42 5.94 0.89 6.02 1.37 C 6.10 1.86 6.13 2.40 6.08 2.93 C 6.03 3.46 5.92 4.02 5.72 4.57 C 5.53 5.11 5.26 5.66 4.92 6.17 C 4.58 6.68 4.16 7.19 3.67 7.63 C 3.19 8.07 2.62 8.48 2.01 8.81 C 1.40 9.14 0.71 9.43 0.00 9.61 C -0.71 9.80 -1.49 9.91 -2.27 9.93 C -3.04 9.94 -3.87 9.87 -4.67 9.69 C -5.47 9.51 -6.29 9.23 -7.06 8.86 C -7.84 8.48 -8.61 7.99 -9.30 7.42 C -10.00 6.85 -10.67 6.16 -11.24 5.41 C -11.81 4.66 -12.32 3.80 -12.72 2.90 C -13.11 2.00 -13.43 1.01 -13.62 0.00 C -13.80 -1.01 -13.89 -2.09 -13.83 -3.16 C -13.78 -4.22 -13.61 -5.34 -13.30 -6.40 C -12.99 -7.47 -12.55 -8.55 -11.99 -9.56 C -11.42 -10.57 -10.72 -11.55 -9.92 -12.44 C -9.11 -13.32 -8.17 -14.15 -7.15 -14.85 C -6.13 -15.54 -4.99 -16.16 -3.79 -16.62 C -2.60 -17.09 -1.31 -17.44 -0.00 -17.62 C 1.31 -17.81 2.69 -17.86 4.05 -17.74 C 5.41 -17.62 6.81 -17.34 8.14 -16.91 C 9.48 -16.47 10.82 -15.87 12.06 -15.12 C 13.29 -14.37 14.50 -13.45 15.57 -12.41 C 16.63 -11.38 17.63 -10.18 18.45 -8.89 C 19.28 -7.60 20.00 -6.17 20.53 -4.69 C 21.06 -3.20 21.44 -1.60 21.63 -0.00 C 21.81 1.60 21.83 3.29 21.64 4.94 C 21.46 6.59 21.08 8.28 20.52 9.88 C 19.95 11.48 19.19 13.09 18.25 14.55 C 17.32 16.02 16.18 17.45 14.91 18.70 C 13.64 19.95 12.18 21.11 10.63 22.06 C 9.07 23.02 7.35 23.84 5.58 24.43 C 3.81 25.03 1.90 25.45 0.00 25.63"/>
    </g>
    <circle cx="82" cy="-34" r="3" fill="#2E2017"/>
  </g>

  <g>
    <rect x="128" y="214" width="74" height="1.5" fill="#2E2017"/>
    <text x="280" y="220" text-anchor="middle"
          font-family="Mulish, 'Helvetica Neue', Arial, sans-serif"
          font-size="16" font-weight="700" letter-spacing="7" fill="#2E2017">HOMEMADE</text>
    <rect x="358" y="214" width="74" height="1.5" fill="#2E2017"/>
  </g>
  <text x="280" y="244" text-anchor="middle"
        font-family="Mulish, 'Helvetica Neue', Arial, sans-serif"
        font-size="13" font-weight="500" letter-spacing="5" fill="#2E2017">CHAKLI &amp; CHIVDA</text>
</svg>
