<?xml version="1.0" encoding="UTF-8"?>
<svg xmlns="http://www.w3.org/2000/svg" viewBox="0 0 800 600" role="img" aria-label="Cmaa">
<title>Cmaa — Bilingual Twin (rev)</title>
<g transform="translate(97.3 240.67) scale(1.08)">
  <path d="M63.67 -64.08 L 61.4 -66.98 L 58.83 -69.63 L 56 -72 L 52.94 -74.05 L 49.68 -75.77 L 46.25 -77.14 L 42.7 -78.14 L 39.06 -78.76 L 35.38 -79 L 31.7 -78.84 L 28.05 -78.3 L 24.48 -77.38 L 21.02 -76.09 L 17.72 -74.44 L 14.61 -72.45 L 11.73 -70.15 L 9.11 -67.55 L 6.77 -64.7 L 4.75 -61.61 L 3.07 -58.33 L 1.74 -54.89 L 0.78 -51.33 L 0.19 -47.68 L 0 -44 L 0.19 -40.32 L 0.78 -36.67 L 1.74 -33.11 L 3.07 -29.67 L 4.75 -26.39 L 6.77 -23.3 L 9.11 -20.45 L 11.73 -17.85 L 14.61 -15.55 L 17.72 -13.56 L 21.02 -11.91 L 24.48 -10.62 L 28.05 -9.7 L 31.7 -9.16 L 35.38 -9 L 39.06 -9.24 L 42.7 -9.86 L 46.25 -10.86 L 49.68 -12.23 L 52.94 -13.95 L 56 -16 L 58.83 -18.37 L 61.4 -21.02 L 63.67 -23.92" transform="translate(54 -9)" fill="none" stroke="#C8922A" stroke-width="18" stroke-linecap="butt" stroke-linejoin="miter"/><path d="M0 -79 L0 -9 M73.92 -79 L73.92 -9 M2.16 -79 L36.96 -38.72 M71.76 -79 L36.96 -38.72" transform="translate(180.23 -9)" fill="none" stroke="#C8922A" stroke-width="18" stroke-linecap="butt" stroke-linejoin="miter"/><path d="M31.68 -79 L0 -9 M31.68 -79 L63.36 -9 M12.71 -29.92 L50.65 -29.92" transform="translate(316.72 -9)" fill="none" stroke="#C8922A" stroke-width="18" stroke-linecap="butt" stroke-linejoin="miter"/><path d="M31.68 -79 L0 -9 M31.68 -79 L63.36 -9 M12.71 -29.92 L50.65 -29.92" transform="translate(442.64 -9)" fill="none" stroke="#C8922A" stroke-width="18" stroke-linecap="butt" stroke-linejoin="miter"/>
  <rect x="-16" y="0" width="592" height="30.12" fill="#F6EDDB"/>
  <g transform="translate(21.96 194.2) scale(0.31)">
    <path d="M180-319L88-319L-8-402L310-402L408-319Q288-277 263-223Q247-188 281-172Q328-152 406-194Q488-239 564-340L564-523L-70-523L-70-619L774-619L774-523L688-523L688 56L564 0L564-163Q516-115 463-91Q410-67 369-68Q328-69 303-89Q223-153 165-220Q131-258 180-319M929-523L749-523L749-619L1459-619L1459-523L1384-523L1384 56L1260 0L1260-172L1053-172Q1053-121 1039.50-86Q1026-51 1006.50-36.50Q987-22 964-17.50Q941-13 924-16Q907-19 897-26Q832-70 791-119Q781-131 778-150Q775-169 781-191Q787-213 802.50-232.50Q818-252 851-263.50Q884-275 929-273L929-523M1053-523L1053-270L1260-271L1260-523L1053-523M928-176Q897-180 878-169Q859-158 858.50-143Q858-128 866-115Q875-108 889-105.50Q903-103 915.50-122Q928-141 928-176M1514-523L1438-523L1438-619L1715-619L1715-523L1638-523L1638 56L1514 0" fill="#F6EDDB"/>
  </g>
</g>
</svg>