<?xml version="1.0" encoding="UTF-8"?>
<svg xmlns="http://www.w3.org/2000/svg" viewBox="0 0 800 600" role="img" aria-label="Cmaa">
<title>Cmaa — Signboard Painter (color)</title>
<g transform="translate(100.31 359) scale(0.97)">
    <g transform="translate(8 8)"><path d="M87.32 -92.53 L 84.2 -96.52 L 80.68 -100.15 L 76.8 -103.4 L 72.6 -106.22 L 68.13 -108.58 L 63.43 -110.45 L 58.56 -111.82 L 53.57 -112.68 L 48.52 -113 L 43.47 -112.79 L 38.46 -112.04 L 33.57 -110.78 L 28.83 -109 L 24.3 -106.74 L 20.04 -104.02 L 16.09 -100.86 L 12.49 -97.3 L 9.29 -93.38 L 6.52 -89.15 L 4.21 -84.65 L 2.38 -79.93 L 1.06 -75.05 L 0.27 -70.05 L 0 -65 L 0.27 -59.95 L 1.06 -54.95 L 2.38 -50.07 L 4.21 -45.35 L 6.52 -40.85 L 9.29 -36.62 L 12.49 -32.7 L 16.09 -29.14 L 20.04 -25.98 L 24.3 -23.26 L 28.83 -21 L 33.57 -19.22 L 38.46 -17.96 L 43.47 -17.21 L 48.52 -17 L 53.57 -17.32 L 58.56 -18.18 L 63.43 -19.55 L 68.13 -21.42 L 72.6 -23.78 L 76.8 -26.6 L 80.68 -29.85 L 84.2 -33.48 L 87.32 -37.47" transform="translate(17 4) rotate(-3 43.66 -65)" fill="none" stroke="#33241A" stroke-width="34" stroke-linecap="round" stroke-linejoin="round" /><path d="M0 -113 L0 -17 M109.2 -113 L109.2 -17 M4.08 -113 L54.6 -57.2 M105.12 -113 L54.6 -57.2" transform="translate(168.32 -6) rotate(2 54.6 -65)" fill="none" stroke="#33241A" stroke-width="34" stroke-linecap="round" stroke-linejoin="round" /><path d="M46.8 -113 L0 -17 M46.8 -113 L93.6 -17 M19.38 -44.2 L74.22 -44.2" transform="translate(341.52 3) rotate(-2 46.8 -65)" fill="none" stroke="#33241A" stroke-width="34" stroke-linecap="round" stroke-linejoin="round" /><path d="M46.8 -113 L0 -17 M46.8 -113 L93.6 -17 M19.38 -44.2 L74.22 -44.2" transform="translate(499.12 -5) rotate(2.5 46.8 -65)" fill="none" stroke="#33241A" stroke-width="34" stroke-linecap="round" stroke-linejoin="round" /></g>
    <path d="M87.32 -92.53 L 84.2 -96.52 L 80.68 -100.15 L 76.8 -103.4 L 72.6 -106.22 L 68.13 -108.58 L 63.43 -110.45 L 58.56 -111.82 L 53.57 -112.68 L 48.52 -113 L 43.47 -112.79 L 38.46 -112.04 L 33.57 -110.78 L 28.83 -109 L 24.3 -106.74 L 20.04 -104.02 L 16.09 -100.86 L 12.49 -97.3 L 9.29 -93.38 L 6.52 -89.15 L 4.21 -84.65 L 2.38 -79.93 L 1.06 -75.05 L 0.27 -70.05 L 0 -65 L 0.27 -59.95 L 1.06 -54.95 L 2.38 -50.07 L 4.21 -45.35 L 6.52 -40.85 L 9.29 -36.62 L 12.49 -32.7 L 16.09 -29.14 L 20.04 -25.98 L 24.3 -23.26 L 28.83 -21 L 33.57 -19.22 L 38.46 -17.96 L 43.47 -17.21 L 48.52 -17 L 53.57 -17.32 L 58.56 -18.18 L 63.43 -19.55 L 68.13 -21.42 L 72.6 -23.78 L 76.8 -26.6 L 80.68 -29.85 L 84.2 -33.48 L 87.32 -37.47" transform="translate(17 4) rotate(-3 43.66 -65)" fill="none" stroke="#C2331F" stroke-width="34" stroke-linecap="round" stroke-linejoin="round" /><path d="M0 -113 L0 -17 M109.2 -113 L109.2 -17 M4.08 -113 L54.6 -57.2 M105.12 -113 L54.6 -57.2" transform="translate(168.32 -6) rotate(2 54.6 -65)" fill="none" stroke="#C2331F" stroke-width="34" stroke-linecap="round" stroke-linejoin="round" /><path d="M46.8 -113 L0 -17 M46.8 -113 L93.6 -17 M19.38 -44.2 L74.22 -44.2" transform="translate(341.52 3) rotate(-2 46.8 -65)" fill="none" stroke="#C2331F" stroke-width="34" stroke-linecap="round" stroke-linejoin="round" /><path d="M46.8 -113 L0 -17 M46.8 -113 L93.6 -17 M19.38 -44.2 L74.22 -44.2" transform="translate(499.12 -5) rotate(2.5 46.8 -65)" fill="none" stroke="#C2331F" stroke-width="34" stroke-linecap="round" stroke-linejoin="round" />
    <path d="M59.94 -111.49 L 56.38 -112.26 L 52.77 -112.76 L 49.13 -112.99 L 45.49 -112.93 L 41.86 -112.61 L 38.27 -112 L 34.73 -111.13 L 31.27 -109.99 L 27.9 -108.59 L 24.66 -106.94 L 21.54 -105.05 L 18.58 -102.93 L 15.79 -100.59 L 13.18 -98.04 L 10.78 -95.3 L 8.58 -92.39 L 6.62 -89.33 L 4.89 -86.12 L 3.42 -82.79 L 2.2 -79.35 L 1.24 -75.84 L 0.55 -72.26 L 0.14 -68.64 L 0 -65 L 0.14 -61.36 L 0.55 -57.74 L 1.24 -54.16 L 2.2 -50.65 L 3.42 -47.21 L 4.89 -43.88 L 6.62 -40.67 L 8.58 -37.61 L 10.78 -34.7 L 13.18 -31.96 L 15.79 -29.41 L 18.58 -27.07 L 21.54 -24.95 L 24.66 -23.06 L 27.9 -21.41 L 31.27 -20.01 L 34.73 -18.87 L 38.27 -18 L 41.86 -17.39 L 45.49 -17.07 L 49.13 -17.01 L 52.77 -17.24 L 56.38 -17.74 L 59.94 -18.51" transform="translate(17 4) rotate(-3 43.66 -65)" fill="none" stroke="#E3A72F" stroke-width="9" stroke-linecap="round" stroke-linejoin="round" /><path d="M0 -99.56 L0 -30.44 M109.2 -99.56 L109.2 -30.44 M11.15 -105.19 L47.53 -65.01 M98.05 -105.19 L61.67 -65.01" transform="translate(168.32 -6) rotate(2 54.6 -65)" fill="none" stroke="#E3A72F" stroke-width="9" stroke-linecap="round" stroke-linejoin="round" /><path d="M40.25 -99.56 L6.55 -30.44 M53.35 -99.56 L87.05 -30.44 M27.06 -44.2 L66.54 -44.2" transform="translate(341.52 3) rotate(-2 46.8 -65)" fill="none" stroke="#E3A72F" stroke-width="9" stroke-linecap="round" stroke-linejoin="round" /><path d="M40.25 -99.56 L6.55 -30.44 M53.35 -99.56 L87.05 -30.44 M27.06 -44.2 L66.54 -44.2" transform="translate(499.12 -5) rotate(2.5 46.8 -65)" fill="none" stroke="#E3A72F" stroke-width="9" stroke-linecap="round" stroke-linejoin="round" />
</g>
</svg>