<?xml version="1.0" encoding="UTF-8"?>
<svg xmlns="http://www.w3.org/2000/svg" viewBox="0 0 800 600" role="img" aria-label="Cmaa">
<title>Cmaa — Spiral Ligature (rev)</title>
<g transform="translate(145 363.75) scale(1.25)">
  <g fill="none" stroke="#F6EDDB" stroke-width="12" stroke-linecap="round" stroke-linejoin="round">
    <path d="M33.71 -78.28 L 31.29 -80.93 L 28.67 -83.38 L 25.86 -85.6 L 22.88 -87.59 L 19.74 -89.32 L 16.48 -90.8 L 13.1 -92 L 9.64 -92.93 L 6.11 -93.57 L 2.55 -93.93 L -1.04 -93.99 L -4.61 -93.76 L -8.16 -93.24 L -11.65 -92.43 L -15.06 -91.34 L -18.38 -89.98 L -21.57 -88.35 L -24.62 -86.47 L -27.51 -84.34 L -30.21 -81.99 L -32.71 -79.43 L -35 -76.67 L -37.05 -73.73 L -38.86 -70.64 L -40.41 -67.4 L -41.69 -64.06 L -42.7 -60.62 L -43.42 -57.11 L -43.86 -53.55 L -44 -49.97 L -43.85 -46.39 L -43.41 -42.83 L -42.68 -39.32 L -41.67 -35.88 L -40.39 -32.54 L -38.83 -29.31 L -37.02 -26.22 L -34.96 -23.29 L -32.67 -20.53 L -30.16 -17.97 L -27.46 -15.62 L -24.57 -13.5 L -21.52 -11.62 L -18.32 -10 L -15.01 -8.64 L -11.59 -7.55 L -8.1 -6.75 L -4.55 -6.24 L -0.97 -6.01 L 2.61 -6.08 L 6.18 -6.44 L 9.7 -7.08 L 13.16 -8.01 L 16.53 -9.22 L 19.8 -10.71 L 22.93 -12.45 L 25.91 -14.44 L 28.72 -16.66 L 31.34 -19.11 L 33.75 -21.76"/><path d="M80 -6 L80 -94 M80 -60 A28 28 0 0 1 136 -60 L136 -6 M136 -60 A28 28 0 0 1 192 -60 L192 -6"/><path d="M238 -50 a42 42 0 1 0 84 0 a42 42 0 1 0 -84 0 Z"/><path d="M322 -94 L322 -6"/>
  </g>
  <g fill="#C8922A"><path d="M446 -94 L 446 -88.33 L 446 -82.67 L 446 -77 L 446 -71.33 L 446 -65.67 L 446 -60 L 446 -54.33 L 446 -48.67 L 446 -43 L 446 -37.33 L 446 -31.67 L 446 -26.07 L 445.91 -22.97 L 445.64 -20.46 L 445.25 -18.51 L 444.79 -17.13 L 444.37 -16.33 L 444.11 -16 L 444.03 -15.94 L 443.95 -15.91 L 443.59 -15.88 L 442.79 -15.95 L 441.53 -16.28 L 439.86 -16.95 L 437.85 -17.98 L 437.95 -16.28 L 437.69 -10.99 L 439.51 -12.55 L 441.23 -14.18 L 442.88 -15.89 L 444.44 -17.7 L 445.88 -19.57 L 447.23 -21.48 L 448.48 -23.47 L 449.63 -25.51 L 450.67 -27.59 L 451.6 -29.73 L 452.42 -31.91 L 453.12 -34.09 L 453.71 -36.32 L 454.19 -38.56 L 454.55 -40.81 L 454.8 -43.09 L 454.93 -45.35 L 454.95 -47.6 L 454.86 -49.85 L 454.65 -52.1 L 454.33 -54.31 L 453.91 -56.49 L 453.38 -58.66 L 452.74 -60.78 L 451.99 -62.86 L 451.15 -64.88 L 450.21 -66.87 L 449.18 -68.78 L 448.05 -70.65 L 446.83 -72.45 L 445.54 -74.17 L 444.15 -75.82 L 442.71 -77.39 L 441.18 -78.9 L 439.57 -80.31 L 437.92 -81.63 L 436.22 -82.85 L 434.46 -84 L 432.63 -85.06 L 430.76 -86.01 L 428.87 -86.86 L 426.94 -87.61 L 424.99 -88.27 L 422.98 -88.83 L 420.99 -89.26 L 418.99 -89.62 L 416.96 -89.87 L 414.93 -90.01 L 412.92 -90.04 L 410.91 -89.98 L 408.92 -89.82 L 406.94 -89.57 L 404.96 -89.2 L 403.05 -88.74 L 401.17 -88.2 L 399.29 -87.56 L 397.48 -86.82 L 395.73 -86.02 L 393.99 -85.11 L 392.32 -84.12 L 390.72 -83.05 L 389.19 -81.93 L 387.7 -80.72 L 386.29 -79.44 L 384.95 -78.09 L 383.69 -76.7 L 382.5 -75.24 L 381.39 -73.73 L 380.37 -72.18 L 379.42 -70.57 L 378.57 -68.93 L 377.8 -67.27 L 377.12 -65.57 L 376.52 -63.85 L 376.02 -62.1 L 375.61 -60.34 L 375.29 -58.58 L 375.05 -56.79 L 374.91 -55 L 374.86 -53.23 L 374.9 -51.47 L 375.03 -49.7 L 375.25 -47.95 L 375.55 -46.24 L 375.94 -44.56 L 376.41 -42.88 L 376.95 -41.26 L 377.58 -39.66 L 378.29 -38.09 L 379.06 -36.59 L 379.92 -35.13 L 380.84 -33.71 L 381.83 -32.35 L 382.87 -31.06 L 383.98 -29.82 L 385.15 -28.64 L 386.35 -27.55 L 387.61 -26.49 L 388.94 -25.51 L 390.28 -24.62 L 391.66 -23.8 L 393.08 -23.04 L 394.52 -22.37 L 396 -21.76 L 397.51 -21.24 L 399.01 -20.8 L 400.53 -20.43 L 402.07 -20.15 L 403.6 -19.95 L 405.14 -19.82 L 406.68 -19.77 L 408.2 -19.79 L 409.71 -19.9 L 411.23 -20.08 L 412.72 -20.34 L 414.16 -20.67 L 415.59 -21.06 L 417.01 -21.53 L 418.39 -22.07 L 419.72 -22.67 L 421.02 -23.34 L 422.29 -24.07 L 423.48 -24.86 L 424.64 -25.69 L 425.76 -26.6 L 426.81 -27.53 L 427.82 -28.52 L 428.78 -29.57 L 429.66 -30.65 L 430.48 -31.75 L 431.26 -32.91 L 431.96 -34.09 L 432.6 -35.29 L 433.17 -36.53 L 433.68 -37.78 L 434.12 -39.05 L 434.49 -40.34 L 434.79 -41.62 L 435.03 -42.91 L 435.2 -44.21 L 435.31 -45.5 L 435.35 -46.83 L 435.31 -48.12 L 435.22 -49.38 L 435.06 -50.63 L 434.85 -51.87 L 434.56 -53.12 L 434.21 -54.33 L 433.82 -55.48 L 433.37 -56.64 L 432.84 -57.76 L 432.29 -58.83 L 431.67 -59.87 L 431.01 -60.89 L 430.29 -61.86 L 429.54 -62.76 L 428.75 -63.63 L 427.92 -64.46 L 427.05 -65.24 L 426.15 -65.96 L 425.23 -66.64 L 424.26 -67.27 L 423.27 -67.85 L 422.29 -68.35 L 421.27 -68.82 L 420.21 -69.22 L 419.2 -69.56 L 418.14 -69.86 L 417.05 -70.1 L 415.99 -70.27 L 414.93 -70.4 L 413.86 -70.46 L 412.82 -70.48 L 411.77 -70.44 L 410.71 -70.34 L 409.69 -70.19 L 408.68 -69.99 L 407.69 -69.74 L 406.74 -69.45 L 405.8 -69.11 L 404.86 -68.71 L 403.98 -68.28 L 403.12 -67.81 L 402.29 -67.29 L 401.51 -66.74 L 400.75 -66.16 L 400.03 -65.54 L 399.35 -64.89 L 398.71 -64.21 L 398.1 -63.49 L 397.54 -62.75 L 397.04 -62.01 L 396.57 -61.24 L 396.13 -60.44 L 395.76 -59.64 L 395.42 -58.82 L 395.13 -57.99 L 394.89 -57.17 L 394.69 -56.33 L 394.54 -55.49 L 394.43 -54.65 L 394.36 -53.81 L 394.35 -52.97 L 394.37 -52.16 L 394.44 -51.33 L 394.55 -50.54 L 394.7 -49.76 L 394.9 -48.96 L 395.13 -48.23 L 395.39 -47.5 L 395.69 -46.8 L 396.02 -46.12 L 396.39 -45.45 L 396.79 -44.81 L 397.21 -44.22 L 397.66 -43.64 L 398.17 -43.07 L 398.67 -42.56 L 399.11 -42.16 L 403.93 -47.24 L 403.61 -47.56 L 403.37 -47.81 L 403.18 -48.06 L 402.97 -48.36 L 402.77 -48.67 L 402.59 -48.99 L 402.42 -49.32 L 402.27 -49.68 L 402.13 -50.04 L 402.01 -50.43 L 401.9 -50.84 L 401.82 -51.2 L 401.77 -51.62 L 401.72 -52.05 L 401.71 -52.46 L 401.71 -52.91 L 401.74 -53.35 L 401.79 -53.79 L 401.86 -54.25 L 401.97 -54.69 L 402.09 -55.15 L 402.25 -55.61 L 402.42 -56.06 L 402.62 -56.5 L 402.85 -56.94 L 403.09 -57.36 L 403.38 -57.79 L 403.7 -58.23 L 404.02 -58.63 L 404.37 -59.01 L 404.75 -59.39 L 405.15 -59.74 L 405.59 -60.1 L 406.03 -60.42 L 406.51 -60.73 L 407 -61.01 L 407.52 -61.28 L 408.06 -61.53 L 408.58 -61.73 L 409.16 -61.91 L 409.75 -62.08 L 410.34 -62.21 L 410.95 -62.31 L 411.57 -62.38 L 412.19 -62.42 L 412.82 -62.42 L 413.48 -62.4 L 414.13 -62.34 L 414.77 -62.25 L 415.43 -62.12 L 416.06 -61.96 L 416.7 -61.76 L 417.37 -61.52 L 417.99 -61.26 L 418.61 -60.95 L 419.25 -60.61 L 419.84 -60.25 L 420.43 -59.84 L 421.01 -59.4 L 421.57 -58.92 L 422.1 -58.42 L 422.61 -57.89 L 423.1 -57.32 L 423.57 -56.7 L 424.01 -56.09 L 424.41 -55.45 L 424.79 -54.77 L 425.14 -54.06 L 425.45 -53.34 L 425.72 -52.6 L 425.97 -51.81 L 426.18 -51.04 L 426.33 -50.25 L 426.46 -49.43 L 426.54 -48.6 L 426.59 -47.74 L 426.59 -46.91 L 426.55 -46.08 L 426.46 -45.23 L 426.33 -44.37 L 426.15 -43.52 L 425.93 -42.66 L 425.66 -41.81 L 425.36 -40.98 L 425.01 -40.17 L 424.6 -39.35 L 424.16 -38.55 L 423.68 -37.77 L 423.16 -37.03 L 422.58 -36.29 L 421.96 -35.57 L 421.32 -34.9 L 420.63 -34.25 L 419.9 -33.62 L 419.14 -33.03 L 418.34 -32.48 L 417.49 -31.95 L 416.66 -31.48 L 415.76 -31.05 L 414.85 -30.65 L 413.91 -30.31 L 412.95 -30 L 411.96 -29.75 L 410.94 -29.54 L 409.93 -29.38 L 408.91 -29.28 L 407.86 -29.23 L 406.82 -29.23 L 405.76 -29.28 L 404.7 -29.39 L 403.63 -29.55 L 402.59 -29.77 L 401.53 -30.04 L 400.49 -30.36 L 399.46 -30.74 L 398.46 -31.17 L 397.46 -31.66 L 396.48 -32.2 L 395.52 -32.8 L 394.58 -33.45 L 393.69 -34.13 L 392.83 -34.87 L 391.97 -35.68 L 391.18 -36.5 L 390.43 -37.38 L 389.71 -38.31 L 389.02 -39.27 L 388.4 -40.27 L 387.82 -41.31 L 387.29 -42.39 L 386.8 -43.48 L 386.39 -44.62 L 386.01 -45.78 L 385.7 -46.96 L 385.45 -48.18 L 385.25 -49.41 L 385.11 -50.64 L 385.04 -51.87 L 385.04 -53.13 L 385.09 -54.4 L 385.21 -55.65 L 385.39 -56.92 L 385.65 -58.18 L 385.96 -59.44 L 386.34 -60.67 L 386.78 -61.91 L 387.28 -63.11 L 387.85 -64.31 L 388.48 -65.47 L 389.17 -66.6 L 389.93 -67.71 L 390.74 -68.78 L 391.61 -69.82 L 392.53 -70.81 L 393.51 -71.76 L 394.54 -72.66 L 395.61 -73.51 L 396.76 -74.33 L 397.92 -75.08 L 399.13 -75.77 L 400.37 -76.4 L 401.68 -76.98 L 403.01 -77.5 L 404.33 -77.94 L 405.73 -78.32 L 407.14 -78.64 L 408.54 -78.87 L 409.98 -79.04 L 411.45 -79.14 L 412.92 -79.16 L 414.39 -79.11 L 415.86 -78.99 L 417.31 -78.8 L 418.79 -78.52 L 420.26 -78.17 L 421.69 -77.75 L 423.12 -77.25 L 424.53 -76.68 L 425.92 -76.03 L 427.27 -75.32 L 428.58 -74.54 L 429.86 -73.69 L 431.12 -72.75 L 432.33 -71.77 L 433.48 -70.72 L 434.59 -69.61 L 435.65 -68.44 L 436.64 -67.21 L 437.59 -65.91 L 438.47 -64.59 L 439.28 -63.2 L 440.03 -61.77 L 440.71 -60.3 L 441.31 -58.8 L 441.84 -57.24 L 442.3 -55.68 L 442.67 -54.09 L 442.97 -52.45 L 443.19 -50.8 L 443.32 -49.15 L 443.37 -47.48 L 443.33 -45.79 L 443.22 -44.11 L 443.01 -42.45 L 442.71 -40.76 L 442.35 -39.1 L 441.88 -37.45 L 441.34 -35.81 L 440.72 -34.21 L 440.01 -32.65 L 439.21 -31.09 L 438.34 -29.57 L 437.39 -28.1 L 436.36 -26.67 L 435.26 -25.28 L 434.1 -23.97 L 432.85 -22.7 L 431.53 -21.47 L 430.17 -20.33 L 426.57 -12.48 L 431.95 -7.54 L 434.86 -6.04 L 437.76 -4.89 L 440.7 -4.14 L 443.72 -3.88 L 446.81 -4.26 L 449.79 -5.41 L 452.38 -7.3 L 454.39 -9.72 L 455.84 -12.46 L 456.85 -15.44 L 457.51 -18.67 L 457.88 -22.18 L 458 -25.93 L 458 -31.67 L 458 -37.33 L 458 -43 L 458 -48.67 L 458 -54.33 L 458 -60 L 458 -65.67 L 458 -71.33 L 458 -77 L 458 -82.67 L 458 -88.33 L 458 -94 Z"/><path d="M446 -94 a6 6 0 1 0 12 0 a6 6 0 1 0 -12 0 Z"/><path d="M398.02 -44.7 a3.5 3.5 0 1 0 7 0 a3.5 3.5 0 1 0 -7 0 Z"/></g>
</g>
</svg>