<svg xmlns="http://www.w3.org/2000/svg" viewBox="0 0 700 980" width="700" height="980" role="img" aria-label="Cmaa — Masala Chivda front label (Warm Editorial)">
<title>Cmaa — Masala Chivda front label (Warm Editorial)</title>
<style>@import url('https://fonts.googleapis.com/css2?family=Fraunces:ital,opsz,wght@0,9..144,300..900;1,9..144,300..900&amp;family=Mulish:ital,wght@0,300..900;1,300..900&amp;family=Courier+Prime:ital,wght@0,400;0,700&amp;family=Caveat:wght@500;700&amp;family=Noto+Sans+Devanagari:wght@400;600;700&amp;display=swap');</style>
<defs><clipPath id="la-masala-winclip"><path d="M190 715 L190 560 A160 160 0 0 1 510 560 L510 715 Z"/></clipPath><linearGradient id="la-masala-wm" x1="0" y1="0" x2="1" y2="1"><stop offset="0" stop-color="#E9B949"/><stop offset="0.5" stop-color="#B5512E"/><stop offset="1" stop-color="#8C3D22"/></linearGradient><path id="la-masala-arc" d="M212 96 A310 310 0 0 1 488 96" fill="none"/></defs><path fill="#F4ECDD" fill-rule="evenodd" d="M0 0 H700 V980 H0 Z M190 715 L190 560 A160 160 0 0 1 510 560 L510 715 Z"/><g fill="#A98B62" opacity="0.16"><circle cx="88" cy="120" r="2.2"/><circle cx="620" cy="90" r="1.8"/><circle cx="70" cy="300" r="1.6"/><circle cx="645" cy="320" r="2.0"/><circle cx="90" cy="760" r="2.0"/><circle cx="628" cy="770" r="1.7"/><circle cx="350" cy="205" r="1.4"/><circle cx="178" cy="332" r="1.3"/><circle cx="540" cy="140" r="1.5"/><circle cx="120" cy="902" r="1.6"/><circle cx="590" cy="905" r="1.9"/><circle cx="60" cy="540" r="1.8"/><circle cx="648" cy="560" r="1.8"/><circle cx="160" cy="118" r="1.4"/><circle cx="522" cy="334" r="1.3"/></g><rect x="0" y="0" width="700" height="34" fill="#C2311F"/><g transform="translate(50.0,17) scale(0.78)"><g transform="translate(-6,-9.5) scale(0.68)"><path d="M11 5.2 C13.6 8.2 14.2 13.2 12.9 17.8 C11.5 22.8 8.2 26.4 4.0 27.4 C6.7 23.6 7.8 19.3 7.6 15.0 C7.4 10.8 6.2 7.6 3.6 5.6 C5.4 3.9 8.9 3.6 11 5.2 Z" fill="#F4ECDD"/><path d="M10.2 4.9 C10.1 2.8 11.3 1.0 13.6 0.4 C13.0 2.0 13.0 3.6 13.3 5.2" fill="none" stroke="#F4ECDD" stroke-width="1.8" stroke-linecap="round"/></g></g><g transform="translate(100.0,17) scale(0.78)"><g transform="translate(-6,-9.5) scale(0.68)"><path d="M11 5.2 C13.6 8.2 14.2 13.2 12.9 17.8 C11.5 22.8 8.2 26.4 4.0 27.4 C6.7 23.6 7.8 19.3 7.6 15.0 C7.4 10.8 6.2 7.6 3.6 5.6 C5.4 3.9 8.9 3.6 11 5.2 Z" fill="#F4ECDD"/><path d="M10.2 4.9 C10.1 2.8 11.3 1.0 13.6 0.4 C13.0 2.0 13.0 3.6 13.3 5.2" fill="none" stroke="#F4ECDD" stroke-width="1.8" stroke-linecap="round"/></g></g><g transform="translate(150.0,17) scale(0.78)"><g transform="translate(-6,-9.5) scale(0.68)"><path d="M11 5.2 C13.6 8.2 14.2 13.2 12.9 17.8 C11.5 22.8 8.2 26.4 4.0 27.4 C6.7 23.6 7.8 19.3 7.6 15.0 C7.4 10.8 6.2 7.6 3.6 5.6 C5.4 3.9 8.9 3.6 11 5.2 Z" fill="#F4ECDD"/><path d="M10.2 4.9 C10.1 2.8 11.3 1.0 13.6 0.4 C13.0 2.0 13.0 3.6 13.3 5.2" fill="none" stroke="#F4ECDD" stroke-width="1.8" stroke-linecap="round"/></g></g><g transform="translate(200.0,17) scale(0.78)"><g transform="translate(-6,-9.5) scale(0.68)"><path d="M11 5.2 C13.6 8.2 14.2 13.2 12.9 17.8 C11.5 22.8 8.2 26.4 4.0 27.4 C6.7 23.6 7.8 19.3 7.6 15.0 C7.4 10.8 6.2 7.6 3.6 5.6 C5.4 3.9 8.9 3.6 11 5.2 Z" fill="#F4ECDD"/><path d="M10.2 4.9 C10.1 2.8 11.3 1.0 13.6 0.4 C13.0 2.0 13.0 3.6 13.3 5.2" fill="none" stroke="#F4ECDD" stroke-width="1.8" stroke-linecap="round"/></g></g><g transform="translate(250.0,17) scale(0.78)"><g transform="translate(-6,-9.5) scale(0.68)"><path d="M11 5.2 C13.6 8.2 14.2 13.2 12.9 17.8 C11.5 22.8 8.2 26.4 4.0 27.4 C6.7 23.6 7.8 19.3 7.6 15.0 C7.4 10.8 6.2 7.6 3.6 5.6 C5.4 3.9 8.9 3.6 11 5.2 Z" fill="#F4ECDD"/><path d="M10.2 4.9 C10.1 2.8 11.3 1.0 13.6 0.4 C13.0 2.0 13.0 3.6 13.3 5.2" fill="none" stroke="#F4ECDD" stroke-width="1.8" stroke-linecap="round"/></g></g><g transform="translate(300.0,17) scale(0.78)"><g transform="translate(-6,-9.5) scale(0.68)"><path d="M11 5.2 C13.6 8.2 14.2 13.2 12.9 17.8 C11.5 22.8 8.2 26.4 4.0 27.4 C6.7 23.6 7.8 19.3 7.6 15.0 C7.4 10.8 6.2 7.6 3.6 5.6 C5.4 3.9 8.9 3.6 11 5.2 Z" fill="#F4ECDD"/><path d="M10.2 4.9 C10.1 2.8 11.3 1.0 13.6 0.4 C13.0 2.0 13.0 3.6 13.3 5.2" fill="none" stroke="#F4ECDD" stroke-width="1.8" stroke-linecap="round"/></g></g><g transform="translate(350.0,17) scale(0.78)"><g transform="translate(-6,-9.5) scale(0.68)"><path d="M11 5.2 C13.6 8.2 14.2 13.2 12.9 17.8 C11.5 22.8 8.2 26.4 4.0 27.4 C6.7 23.6 7.8 19.3 7.6 15.0 C7.4 10.8 6.2 7.6 3.6 5.6 C5.4 3.9 8.9 3.6 11 5.2 Z" fill="#F4ECDD"/><path d="M10.2 4.9 C10.1 2.8 11.3 1.0 13.6 0.4 C13.0 2.0 13.0 3.6 13.3 5.2" fill="none" stroke="#F4ECDD" stroke-width="1.8" stroke-linecap="round"/></g></g><g transform="translate(400.0,17) scale(0.78)"><g transform="translate(-6,-9.5) scale(0.68)"><path d="M11 5.2 C13.6 8.2 14.2 13.2 12.9 17.8 C11.5 22.8 8.2 26.4 4.0 27.4 C6.7 23.6 7.8 19.3 7.6 15.0 C7.4 10.8 6.2 7.6 3.6 5.6 C5.4 3.9 8.9 3.6 11 5.2 Z" fill="#F4ECDD"/><path d="M10.2 4.9 C10.1 2.8 11.3 1.0 13.6 0.4 C13.0 2.0 13.0 3.6 13.3 5.2" fill="none" stroke="#F4ECDD" stroke-width="1.8" stroke-linecap="round"/></g></g><g transform="translate(450.0,17) scale(0.78)"><g transform="translate(-6,-9.5) scale(0.68)"><path d="M11 5.2 C13.6 8.2 14.2 13.2 12.9 17.8 C11.5 22.8 8.2 26.4 4.0 27.4 C6.7 23.6 7.8 19.3 7.6 15.0 C7.4 10.8 6.2 7.6 3.6 5.6 C5.4 3.9 8.9 3.6 11 5.2 Z" fill="#F4ECDD"/><path d="M10.2 4.9 C10.1 2.8 11.3 1.0 13.6 0.4 C13.0 2.0 13.0 3.6 13.3 5.2" fill="none" stroke="#F4ECDD" stroke-width="1.8" stroke-linecap="round"/></g></g><g transform="translate(500.0,17) scale(0.78)"><g transform="translate(-6,-9.5) scale(0.68)"><path d="M11 5.2 C13.6 8.2 14.2 13.2 12.9 17.8 C11.5 22.8 8.2 26.4 4.0 27.4 C6.7 23.6 7.8 19.3 7.6 15.0 C7.4 10.8 6.2 7.6 3.6 5.6 C5.4 3.9 8.9 3.6 11 5.2 Z" fill="#F4ECDD"/><path d="M10.2 4.9 C10.1 2.8 11.3 1.0 13.6 0.4 C13.0 2.0 13.0 3.6 13.3 5.2" fill="none" stroke="#F4ECDD" stroke-width="1.8" stroke-linecap="round"/></g></g><g transform="translate(550.0,17) scale(0.78)"><g transform="translate(-6,-9.5) scale(0.68)"><path d="M11 5.2 C13.6 8.2 14.2 13.2 12.9 17.8 C11.5 22.8 8.2 26.4 4.0 27.4 C6.7 23.6 7.8 19.3 7.6 15.0 C7.4 10.8 6.2 7.6 3.6 5.6 C5.4 3.9 8.9 3.6 11 5.2 Z" fill="#F4ECDD"/><path d="M10.2 4.9 C10.1 2.8 11.3 1.0 13.6 0.4 C13.0 2.0 13.0 3.6 13.3 5.2" fill="none" stroke="#F4ECDD" stroke-width="1.8" stroke-linecap="round"/></g></g><g transform="translate(600.0,17) scale(0.78)"><g transform="translate(-6,-9.5) scale(0.68)"><path d="M11 5.2 C13.6 8.2 14.2 13.2 12.9 17.8 C11.5 22.8 8.2 26.4 4.0 27.4 C6.7 23.6 7.8 19.3 7.6 15.0 C7.4 10.8 6.2 7.6 3.6 5.6 C5.4 3.9 8.9 3.6 11 5.2 Z" fill="#F4ECDD"/><path d="M10.2 4.9 C10.1 2.8 11.3 1.0 13.6 0.4 C13.0 2.0 13.0 3.6 13.3 5.2" fill="none" stroke="#F4ECDD" stroke-width="1.8" stroke-linecap="round"/></g></g><g transform="translate(650.0,17) scale(0.78)"><g transform="translate(-6,-9.5) scale(0.68)"><path d="M11 5.2 C13.6 8.2 14.2 13.2 12.9 17.8 C11.5 22.8 8.2 26.4 4.0 27.4 C6.7 23.6 7.8 19.3 7.6 15.0 C7.4 10.8 6.2 7.6 3.6 5.6 C5.4 3.9 8.9 3.6 11 5.2 Z" fill="#F4ECDD"/><path d="M10.2 4.9 C10.1 2.8 11.3 1.0 13.6 0.4 C13.0 2.0 13.0 3.6 13.3 5.2" fill="none" stroke="#F4ECDD" stroke-width="1.8" stroke-linecap="round"/></g></g><rect x="0" y="948" width="700" height="32" fill="#C2311F"/><g transform="translate(50.0,964) scale(0.72)"><g transform="translate(-6,-9.5) scale(0.68)"><path d="M11 5.2 C13.6 8.2 14.2 13.2 12.9 17.8 C11.5 22.8 8.2 26.4 4.0 27.4 C6.7 23.6 7.8 19.3 7.6 15.0 C7.4 10.8 6.2 7.6 3.6 5.6 C5.4 3.9 8.9 3.6 11 5.2 Z" fill="#F4ECDD"/><path d="M10.2 4.9 C10.1 2.8 11.3 1.0 13.6 0.4 C13.0 2.0 13.0 3.6 13.3 5.2" fill="none" stroke="#F4ECDD" stroke-width="1.8" stroke-linecap="round"/></g></g><g transform="translate(100.0,964) scale(0.72)"><g transform="translate(-6,-9.5) scale(0.68)"><path d="M11 5.2 C13.6 8.2 14.2 13.2 12.9 17.8 C11.5 22.8 8.2 26.4 4.0 27.4 C6.7 23.6 7.8 19.3 7.6 15.0 C7.4 10.8 6.2 7.6 3.6 5.6 C5.4 3.9 8.9 3.6 11 5.2 Z" fill="#F4ECDD"/><path d="M10.2 4.9 C10.1 2.8 11.3 1.0 13.6 0.4 C13.0 2.0 13.0 3.6 13.3 5.2" fill="none" stroke="#F4ECDD" stroke-width="1.8" stroke-linecap="round"/></g></g><g transform="translate(150.0,964) scale(0.72)"><g transform="translate(-6,-9.5) scale(0.68)"><path d="M11 5.2 C13.6 8.2 14.2 13.2 12.9 17.8 C11.5 22.8 8.2 26.4 4.0 27.4 C6.7 23.6 7.8 19.3 7.6 15.0 C7.4 10.8 6.2 7.6 3.6 5.6 C5.4 3.9 8.9 3.6 11 5.2 Z" fill="#F4ECDD"/><path d="M10.2 4.9 C10.1 2.8 11.3 1.0 13.6 0.4 C13.0 2.0 13.0 3.6 13.3 5.2" fill="none" stroke="#F4ECDD" stroke-width="1.8" stroke-linecap="round"/></g></g><g transform="translate(200.0,964) scale(0.72)"><g transform="translate(-6,-9.5) scale(0.68)"><path d="M11 5.2 C13.6 8.2 14.2 13.2 12.9 17.8 C11.5 22.8 8.2 26.4 4.0 27.4 C6.7 23.6 7.8 19.3 7.6 15.0 C7.4 10.8 6.2 7.6 3.6 5.6 C5.4 3.9 8.9 3.6 11 5.2 Z" fill="#F4ECDD"/><path d="M10.2 4.9 C10.1 2.8 11.3 1.0 13.6 0.4 C13.0 2.0 13.0 3.6 13.3 5.2" fill="none" stroke="#F4ECDD" stroke-width="1.8" stroke-linecap="round"/></g></g><g transform="translate(250.0,964) scale(0.72)"><g transform="translate(-6,-9.5) scale(0.68)"><path d="M11 5.2 C13.6 8.2 14.2 13.2 12.9 17.8 C11.5 22.8 8.2 26.4 4.0 27.4 C6.7 23.6 7.8 19.3 7.6 15.0 C7.4 10.8 6.2 7.6 3.6 5.6 C5.4 3.9 8.9 3.6 11 5.2 Z" fill="#F4ECDD"/><path d="M10.2 4.9 C10.1 2.8 11.3 1.0 13.6 0.4 C13.0 2.0 13.0 3.6 13.3 5.2" fill="none" stroke="#F4ECDD" stroke-width="1.8" stroke-linecap="round"/></g></g><g transform="translate(300.0,964) scale(0.72)"><g transform="translate(-6,-9.5) scale(0.68)"><path d="M11 5.2 C13.6 8.2 14.2 13.2 12.9 17.8 C11.5 22.8 8.2 26.4 4.0 27.4 C6.7 23.6 7.8 19.3 7.6 15.0 C7.4 10.8 6.2 7.6 3.6 5.6 C5.4 3.9 8.9 3.6 11 5.2 Z" fill="#F4ECDD"/><path d="M10.2 4.9 C10.1 2.8 11.3 1.0 13.6 0.4 C13.0 2.0 13.0 3.6 13.3 5.2" fill="none" stroke="#F4ECDD" stroke-width="1.8" stroke-linecap="round"/></g></g><g transform="translate(350.0,964) scale(0.72)"><g transform="translate(-6,-9.5) scale(0.68)"><path d="M11 5.2 C13.6 8.2 14.2 13.2 12.9 17.8 C11.5 22.8 8.2 26.4 4.0 27.4 C6.7 23.6 7.8 19.3 7.6 15.0 C7.4 10.8 6.2 7.6 3.6 5.6 C5.4 3.9 8.9 3.6 11 5.2 Z" fill="#F4ECDD"/><path d="M10.2 4.9 C10.1 2.8 11.3 1.0 13.6 0.4 C13.0 2.0 13.0 3.6 13.3 5.2" fill="none" stroke="#F4ECDD" stroke-width="1.8" stroke-linecap="round"/></g></g><g transform="translate(400.0,964) scale(0.72)"><g transform="translate(-6,-9.5) scale(0.68)"><path d="M11 5.2 C13.6 8.2 14.2 13.2 12.9 17.8 C11.5 22.8 8.2 26.4 4.0 27.4 C6.7 23.6 7.8 19.3 7.6 15.0 C7.4 10.8 6.2 7.6 3.6 5.6 C5.4 3.9 8.9 3.6 11 5.2 Z" fill="#F4ECDD"/><path d="M10.2 4.9 C10.1 2.8 11.3 1.0 13.6 0.4 C13.0 2.0 13.0 3.6 13.3 5.2" fill="none" stroke="#F4ECDD" stroke-width="1.8" stroke-linecap="round"/></g></g><g transform="translate(450.0,964) scale(0.72)"><g transform="translate(-6,-9.5) scale(0.68)"><path d="M11 5.2 C13.6 8.2 14.2 13.2 12.9 17.8 C11.5 22.8 8.2 26.4 4.0 27.4 C6.7 23.6 7.8 19.3 7.6 15.0 C7.4 10.8 6.2 7.6 3.6 5.6 C5.4 3.9 8.9 3.6 11 5.2 Z" fill="#F4ECDD"/><path d="M10.2 4.9 C10.1 2.8 11.3 1.0 13.6 0.4 C13.0 2.0 13.0 3.6 13.3 5.2" fill="none" stroke="#F4ECDD" stroke-width="1.8" stroke-linecap="round"/></g></g><g transform="translate(500.0,964) scale(0.72)"><g transform="translate(-6,-9.5) scale(0.68)"><path d="M11 5.2 C13.6 8.2 14.2 13.2 12.9 17.8 C11.5 22.8 8.2 26.4 4.0 27.4 C6.7 23.6 7.8 19.3 7.6 15.0 C7.4 10.8 6.2 7.6 3.6 5.6 C5.4 3.9 8.9 3.6 11 5.2 Z" fill="#F4ECDD"/><path d="M10.2 4.9 C10.1 2.8 11.3 1.0 13.6 0.4 C13.0 2.0 13.0 3.6 13.3 5.2" fill="none" stroke="#F4ECDD" stroke-width="1.8" stroke-linecap="round"/></g></g><g transform="translate(550.0,964) scale(0.72)"><g transform="translate(-6,-9.5) scale(0.68)"><path d="M11 5.2 C13.6 8.2 14.2 13.2 12.9 17.8 C11.5 22.8 8.2 26.4 4.0 27.4 C6.7 23.6 7.8 19.3 7.6 15.0 C7.4 10.8 6.2 7.6 3.6 5.6 C5.4 3.9 8.9 3.6 11 5.2 Z" fill="#F4ECDD"/><path d="M10.2 4.9 C10.1 2.8 11.3 1.0 13.6 0.4 C13.0 2.0 13.0 3.6 13.3 5.2" fill="none" stroke="#F4ECDD" stroke-width="1.8" stroke-linecap="round"/></g></g><g transform="translate(600.0,964) scale(0.72)"><g transform="translate(-6,-9.5) scale(0.68)"><path d="M11 5.2 C13.6 8.2 14.2 13.2 12.9 17.8 C11.5 22.8 8.2 26.4 4.0 27.4 C6.7 23.6 7.8 19.3 7.6 15.0 C7.4 10.8 6.2 7.6 3.6 5.6 C5.4 3.9 8.9 3.6 11 5.2 Z" fill="#F4ECDD"/><path d="M10.2 4.9 C10.1 2.8 11.3 1.0 13.6 0.4 C13.0 2.0 13.0 3.6 13.3 5.2" fill="none" stroke="#F4ECDD" stroke-width="1.8" stroke-linecap="round"/></g></g><g transform="translate(650.0,964) scale(0.72)"><g transform="translate(-6,-9.5) scale(0.68)"><path d="M11 5.2 C13.6 8.2 14.2 13.2 12.9 17.8 C11.5 22.8 8.2 26.4 4.0 27.4 C6.7 23.6 7.8 19.3 7.6 15.0 C7.4 10.8 6.2 7.6 3.6 5.6 C5.4 3.9 8.9 3.6 11 5.2 Z" fill="#F4ECDD"/><path d="M10.2 4.9 C10.1 2.8 11.3 1.0 13.6 0.4 C13.0 2.0 13.0 3.6 13.3 5.2" fill="none" stroke="#F4ECDD" stroke-width="1.8" stroke-linecap="round"/></g></g><rect x="36" y="52" width="628" height="876" rx="12" fill="none" stroke="#E9B949" stroke-width="1.3" opacity="0.9"/><text font-size="14.5" font-weight="800" letter-spacing="4" fill="#8C3D22" font-family="Mulish, 'Segoe UI', 'Trebuchet MS', sans-serif"><textPath href="#la-masala-arc" startOffset="50%" text-anchor="middle">HOMEMADE · SMALL BATCH</textPath></text><g transform="translate(183.2,74.0) scale(0.6)"><g transform="translate(118,108)"><path fill="#2E2017" d="M 47 -60 C 18 -60 -4 -37 -4 -3 C -4 32 19 55 49 55 C 67 55 81 47 91 32 L 80 24 C 72.5 35.5 62 41.5 50 41.5 C 29 41.5 15 23 15 -3 C 15 -30 28.5 -48.5 48 -48.5 C 60 -48.5 70 -42.5 77 -31 L 88.5 -39 C 79 -53 66 -60 47 -60 Z"/><g transform="translate(45,-2) scale(0.52)"><path d="M 0.00 -2.00 L 0.37 -2.32 L 0.85 -2.57 L 1.41 -2.71 L 2.04 -2.73 L 2.70 -2.62 L 3.37 -2.36 L 4.02 -1.94 L 4.61 -1.38 L 5.12 -0.67 L 5.52 0.16 L 5.77 1.10 L 5.85 2.13 L 5.74 3.21 L 5.43 4.30 L 4.92 5.37 L 4.19 6.38 L 3.27 7.28 L 2.16 8.05 L 0.88 8.64 L -0.53 9.02 L -2.04 9.17 L -3.60 9.05 L -5.18 8.67 L -6.72 8.00 L -8.17 7.06 L -9.49 5.85 L -10.63 4.40 L -11.54 2.73 L -12.18 0.88 L -12.51 -1.10 L -12.52 -3.16 L -12.18 -5.26 L -11.48 -7.32 L -10.43 -9.29 L -9.04 -11.11 L -7.33 -12.71 L -5.34 -14.04 L -3.10 -15.06 L -0.68 -15.71 L 1.87 -15.97 L 4.49 -15.81 L 7.10 -15.21 L 9.63 -14.17 L 12.01 -12.71 L 14.16 -10.85 L 16.02 -8.63 L 17.52 -6.08 L 18.61 -3.27 L 19.25 -0.27 L 19.39 2.85 L 19.03 6.01 L 18.14 9.12 L 16.74 12.10 L 14.85 14.86 L 12.49 17.32 L 9.73 19.41 L 6.62 21.05 L 3.23 22.18 L -0.35 22.77 L -4.03 22.77 L -7.72 22.17 L -11.32 20.96 L -14.73 19.17 L -17.85 16.82 L -20.60 13.96 L -22.88 10.65 L -24.62 6.96 L -25.76 2.99 L -26.26 -1.17 L -26.09 -5.41 L -25.22 -9.62 L -23.67 -13.69 L -21.46 -17.51 L -18.63 -20.97 L -15.24 -23.97 L -11.37 -26.41 L -7.10 -28.23 L -2.54 -29.35 L 2.19 -29.73 L 6.98 -29.34 L 11.70 -28.18 L 16.23 -26.25 L 20.43 -23.60 L 24.20 -20.27 L 27.42 -16.33 L 30.00 -11.89 L 31.86 -7.03 L 32.92 -1.88 L 33.15 3.42 L 32.52 8.75 L 31.03 13.96 L 28.71 18.92 L 25.58 23.49 L 21.73 27.55 L 17.24 30.97 L 12.20 33.65 L 6.75 35.51 L 1.02 36.48 L -4.85 36.53 L -10.71 35.62 L -16.40 33.78 L -21.78 31.02 L -26.69 27.41 L -31.00 23.02 L -34.58 17.95 L -37.33 12.32 L -39.17 6.27 L -40.02 -0.05 L -39.84 -6.48 L -38.64 -12.86 L -36.41 -19.01 L -33.20 -24.78 L -29.07 -30.00 L -24.12 -34.54 L -18.46 -38.26 L -12.23 -41.05 L -5.58 -42.82 L 1.33 -43.52 L 8.31 -43.09 L 15.19 -41.55 L 21.79 -38.91 L 27.93 -35.22 L 33.44 -30.55 L 38.17 -25.03 L 42.00 -18.77 L 44.79 -11.93 L 46.47 -4.68 L 46.97 2.81 L 46.27 10.33 L 44.36 17.70 L 41.27 24.72 L 37.08 31.21 L 31.86 36.98 L 25.75 41.89 L 18.88 45.78 L 11.43 48.55 L 3.57 50.10 L -4.49 50.38 L -12.54 49.36 L -20.39 47.05 L -27.81 43.50 L -34.62 38.78 L -40.63 32.99 L -45.67 26.27 L -49.60 18.78 L -52.31 10.71 L -53.70 2.25 L -53.72 -6.37 L -52.36 -14.95 L -49.63 -23.25 L -45.58 -31.05 L -40.31 -38.16 L -33.93 -44.37 L -26.59 -49.52 L -18.47 -53.46 L -9.78 -56.06 L -0.73 -57.26 L 8.45 -56.99 L 17.53 -55.25 L 26.27 -52.07 L 34.44 -47.50" fill="none" stroke="url(#la-masala-wm)" stroke-width="6.4" stroke-linecap="round"/></g><circle cx="82" cy="-34" r="3" fill="#E9B949"/></g><text x="214" y="170" font-family="Fraunces, Georgia, 'Times New Roman', serif" font-size="158" font-weight="600" letter-spacing="-3" fill="#2E2017">maa</text></g><line x1="170" y1="206" x2="322" y2="206" stroke="#E9B949" stroke-width="1.4"/><line x1="378" y1="206" x2="530" y2="206" stroke="#E9B949" stroke-width="1.4"/><rect x="346" y="202" width="8" height="8" transform="rotate(45 350 206)" fill="#C2311F"/><text x="350" y="282" font-size="76" fill="#C2311F" font-family="Fraunces, Georgia, 'Times New Roman', serif" font-weight="600" letter-spacing="4" text-anchor="middle">MASALA</text><text x="350" y="338" font-size="46" fill="#2E2017" font-family="Fraunces, Georgia, 'Times New Roman', serif" font-weight="500" letter-spacing="1" text-anchor="middle" font-style="italic">Chivda</text><text x="350" y="382" font-size="28" fill="#8C3D22" font-family="'Noto Sans Devanagari', 'Nirmala UI', Mangal, sans-serif" font-weight="600" letter-spacing="0" text-anchor="middle">मसाला चिवडा</text><g class="window-ph"><path d="M190 715 L190 560 A160 160 0 0 1 510 560 L510 715 Z" fill="#EFE4CD"/><g clip-path="url(#la-masala-winclip)"><line x1="180" y1="385" x2="-190" y2="755" stroke="rgba(46,32,23,0.08)" stroke-width="1"/><line x1="193" y1="385" x2="-177" y2="755" stroke="rgba(46,32,23,0.08)" stroke-width="1"/><line x1="206" y1="385" x2="-164" y2="755" stroke="rgba(46,32,23,0.08)" stroke-width="1"/><line x1="219" y1="385" x2="-151" y2="755" stroke="rgba(46,32,23,0.08)" stroke-width="1"/><line x1="232" y1="385" x2="-138" y2="755" stroke="rgba(46,32,23,0.08)" stroke-width="1"/><line x1="245" y1="385" x2="-125" y2="755" stroke="rgba(46,32,23,0.08)" stroke-width="1"/><line x1="258" y1="385" x2="-112" y2="755" stroke="rgba(46,32,23,0.08)" stroke-width="1"/><line x1="271" y1="385" x2="-99" y2="755" stroke="rgba(46,32,23,0.08)" stroke-width="1"/><line x1="284" y1="385" x2="-86" y2="755" stroke="rgba(46,32,23,0.08)" stroke-width="1"/><line x1="297" y1="385" x2="-73" y2="755" stroke="rgba(46,32,23,0.08)" stroke-width="1"/><line x1="310" y1="385" x2="-60" y2="755" stroke="rgba(46,32,23,0.08)" stroke-width="1"/><line x1="323" y1="385" x2="-47" y2="755" stroke="rgba(46,32,23,0.08)" stroke-width="1"/><line x1="336" y1="385" x2="-34" y2="755" stroke="rgba(46,32,23,0.08)" stroke-width="1"/><line x1="349" y1="385" x2="-21" y2="755" stroke="rgba(46,32,23,0.08)" stroke-width="1"/><line x1="362" y1="385" x2="-8" y2="755" stroke="rgba(46,32,23,0.08)" stroke-width="1"/><line x1="375" y1="385" x2="5" y2="755" stroke="rgba(46,32,23,0.08)" stroke-width="1"/><line x1="388" y1="385" x2="18" y2="755" stroke="rgba(46,32,23,0.08)" stroke-width="1"/><line x1="401" y1="385" x2="31" y2="755" stroke="rgba(46,32,23,0.08)" stroke-width="1"/><line x1="414" y1="385" x2="44" y2="755" stroke="rgba(46,32,23,0.08)" stroke-width="1"/><line x1="427" y1="385" x2="57" y2="755" stroke="rgba(46,32,23,0.08)" stroke-width="1"/><line x1="440" y1="385" x2="70" y2="755" stroke="rgba(46,32,23,0.08)" stroke-width="1"/><line x1="453" y1="385" x2="83" y2="755" stroke="rgba(46,32,23,0.08)" stroke-width="1"/><line x1="466" y1="385" x2="96" y2="755" stroke="rgba(46,32,23,0.08)" stroke-width="1"/><line x1="479" y1="385" x2="109" y2="755" stroke="rgba(46,32,23,0.08)" stroke-width="1"/><line x1="492" y1="385" x2="122" y2="755" stroke="rgba(46,32,23,0.08)" stroke-width="1"/><line x1="505" y1="385" x2="135" y2="755" stroke="rgba(46,32,23,0.08)" stroke-width="1"/><line x1="518" y1="385" x2="148" y2="755" stroke="rgba(46,32,23,0.08)" stroke-width="1"/><line x1="531" y1="385" x2="161" y2="755" stroke="rgba(46,32,23,0.08)" stroke-width="1"/><line x1="544" y1="385" x2="174" y2="755" stroke="rgba(46,32,23,0.08)" stroke-width="1"/><line x1="557" y1="385" x2="187" y2="755" stroke="rgba(46,32,23,0.08)" stroke-width="1"/><line x1="570" y1="385" x2="200" y2="755" stroke="rgba(46,32,23,0.08)" stroke-width="1"/><line x1="583" y1="385" x2="213" y2="755" stroke="rgba(46,32,23,0.08)" stroke-width="1"/><line x1="596" y1="385" x2="226" y2="755" stroke="rgba(46,32,23,0.08)" stroke-width="1"/><line x1="609" y1="385" x2="239" y2="755" stroke="rgba(46,32,23,0.08)" stroke-width="1"/><line x1="622" y1="385" x2="252" y2="755" stroke="rgba(46,32,23,0.08)" stroke-width="1"/><line x1="635" y1="385" x2="265" y2="755" stroke="rgba(46,32,23,0.08)" stroke-width="1"/><line x1="648" y1="385" x2="278" y2="755" stroke="rgba(46,32,23,0.08)" stroke-width="1"/><line x1="661" y1="385" x2="291" y2="755" stroke="rgba(46,32,23,0.08)" stroke-width="1"/><line x1="674" y1="385" x2="304" y2="755" stroke="rgba(46,32,23,0.08)" stroke-width="1"/><line x1="687" y1="385" x2="317" y2="755" stroke="rgba(46,32,23,0.08)" stroke-width="1"/><line x1="700" y1="385" x2="330" y2="755" stroke="rgba(46,32,23,0.08)" stroke-width="1"/><line x1="713" y1="385" x2="343" y2="755" stroke="rgba(46,32,23,0.08)" stroke-width="1"/><line x1="726" y1="385" x2="356" y2="755" stroke="rgba(46,32,23,0.08)" stroke-width="1"/><line x1="739" y1="385" x2="369" y2="755" stroke="rgba(46,32,23,0.08)" stroke-width="1"/><line x1="752" y1="385" x2="382" y2="755" stroke="rgba(46,32,23,0.08)" stroke-width="1"/><line x1="765" y1="385" x2="395" y2="755" stroke="rgba(46,32,23,0.08)" stroke-width="1"/><line x1="778" y1="385" x2="408" y2="755" stroke="rgba(46,32,23,0.08)" stroke-width="1"/><line x1="791" y1="385" x2="421" y2="755" stroke="rgba(46,32,23,0.08)" stroke-width="1"/><line x1="804" y1="385" x2="434" y2="755" stroke="rgba(46,32,23,0.08)" stroke-width="1"/><line x1="817" y1="385" x2="447" y2="755" stroke="rgba(46,32,23,0.08)" stroke-width="1"/><line x1="830" y1="385" x2="460" y2="755" stroke="rgba(46,32,23,0.08)" stroke-width="1"/><line x1="843" y1="385" x2="473" y2="755" stroke="rgba(46,32,23,0.08)" stroke-width="1"/><line x1="856" y1="385" x2="486" y2="755" stroke="rgba(46,32,23,0.08)" stroke-width="1"/><line x1="869" y1="385" x2="499" y2="755" stroke="rgba(46,32,23,0.08)" stroke-width="1"/><line x1="882" y1="385" x2="512" y2="755" stroke="rgba(46,32,23,0.08)" stroke-width="1"/><line x1="895" y1="385" x2="525" y2="755" stroke="rgba(46,32,23,0.08)" stroke-width="1"/><line x1="908" y1="385" x2="538" y2="755" stroke="rgba(46,32,23,0.08)" stroke-width="1"/><line x1="921" y1="385" x2="551" y2="755" stroke="rgba(46,32,23,0.08)" stroke-width="1"/><line x1="934" y1="385" x2="564" y2="755" stroke="rgba(46,32,23,0.08)" stroke-width="1"/><g transform="translate(350,562)"><path d="M 0.00 -3.00 L 0.79 -3.55 L 1.82 -3.87 L 3.01 -3.88 L 4.28 -3.54 L 5.52 -2.81 L 6.61 -1.69 L 7.46 -0.23 L 7.96 1.52 L 8.02 3.48 L 7.58 5.52 L 6.62 7.52 L 5.12 9.34 L 3.14 10.85 L 0.73 11.91 L -1.98 12.41 L -4.88 12.27 L -7.80 11.44 L -10.57 9.90 L -13.03 7.68 L -15.00 4.84 L -16.33 1.51 L -16.90 -2.17 L -16.62 -6.02 L -15.44 -9.84 L -13.37 -13.43 L -10.46 -16.56 L -6.81 -19.05 L -2.56 -20.71 L 2.08 -21.40 L 6.90 -21.04 L 11.65 -19.57 L 16.08 -17.02 L 19.93 -13.46 L 22.99 -9.02 L 25.03 -3.88 L 25.91 1.71 L 25.53 7.51 L 23.83 13.21 L 20.85 18.51 L 16.68 23.13 L 11.48 26.80 L 5.47 29.29 L -1.07 30.42 L -7.84 30.07 L -14.51 28.20 L -20.72 24.84 L -26.15 20.11 L -30.48 14.19 L -33.47 7.33 L -34.90 -0.15 L -34.65 -7.91 L -32.66 -15.55 L -28.98 -22.70 L -23.73 -28.97 L -17.13 -34.02 L -9.45 -37.56 L -1.04 -39.35 L 7.70 -39.26 L 16.34 -37.21 L 24.44 -33.27 L 31.59 -27.55 L 37.40 -20.30 L 41.55 -11.82 L 43.76 -2.50 L 43.88 7.21 L 41.84 16.85 L 37.68 25.94 L 31.55 34.00 L 23.69 40.62 L 14.45 45.42 L 4.24 48.11 L -6.44 48.51 L -17.09 46.53 L -27.18 42.22 L -36.19 35.72 L -43.66 27.30 L -49.16 17.32 L -52.39 6.25 L -53.13 -5.40 L -51.28 -17.06 L -46.86 -28.17 L -40.05 -38.16 L -31.11 -46.51 L -20.44 -52.77 L -8.53 -56.59 L 4.07 -57.72 L 16.75 -56.06 L 28.90 -51.60 L 39.89 -44.53 L 49.16 -35.12 L 56.23 -23.80 L 60.70 -11.07 L 62.29 2.47 L 60.86 16.17 L 56.43 29.35 L 49.15 41.37 L 39.33 51.61 L 27.38 59.53 L 13.87 64.69 L -0.59 66.80 L -15.30 65.68 L -29.54 61.33 L -42.61 53.91 L -53.84 43.71 L -62.65 31.19 L -68.57 16.92 L -71.25 1.56 L -70.50 -14.15 L -66.29 -29.45 L -58.78 -43.59 L -48.27 -55.85 L -35.22 -65.60 L -20.23 -72.32 L -3.99 -75.63 L 12.71 -75.30 L 29.08 -71.31 L 44.31 -63.76 L 57.62 -52.99 L 68.35 -39.46" fill="none" stroke="#C2311F" stroke-width="5" stroke-linecap="round" opacity="0.13"/></g></g><path d="M190 715 L190 560 A160 160 0 0 1 510 560 L510 715 Z" fill="none" stroke="#C2311F" stroke-width="2.2" stroke-dasharray="9 7"/><text x="350" y="694" font-size="10.5" fill="#8C3D22" font-family="Mulish, 'Segoe UI', 'Trebuchet MS', sans-serif" font-weight="700" letter-spacing="2.4" text-anchor="middle" opacity="0.85">DIE-CUT WINDOW · PRODUCT VISIBLE</text></g><rect x="64" y="726" width="30" height="30" fill="#FBF5E9" stroke="#3E7A33" stroke-width="2.4"/><circle cx="79.0" cy="741.0" r="8.100000000000001" fill="#3E7A33"/><text x="79.0" y="773" font-size="8.5" fill="#3E7A33" font-family="Mulish, 'Segoe UI', 'Trebuchet MS', sans-serif" font-weight="800" letter-spacing="1.5" text-anchor="middle">100% VEG</text><text x="350" y="742" font-size="11" fill="#8C3D22" font-family="Mulish, 'Segoe UI', 'Trebuchet MS', sans-serif" font-weight="800" letter-spacing="3" text-anchor="middle">NET WT</text><text x="350" y="771" font-size="27" fill="#2E2017" font-family="Fraunces, Georgia, 'Times New Roman', serif" font-weight="600" letter-spacing="1" text-anchor="middle">250 g</text><g transform="translate(551,724)"><path d="M11 5.2 C13.6 8.2 14.2 13.2 12.9 17.8 C11.5 22.8 8.2 26.4 4.0 27.4 C6.7 23.6 7.8 19.3 7.6 15.0 C7.4 10.8 6.2 7.6 3.6 5.6 C5.4 3.9 8.9 3.6 11 5.2 Z" fill="#C2311F"/><path d="M10.2 4.9 C10.1 2.8 11.3 1.0 13.6 0.4 C13.0 2.0 13.0 3.6 13.3 5.2" fill="none" stroke="#5E6B3B" stroke-width="1.8" stroke-linecap="round" opacity="1"/></g><g transform="translate(585,724)"><path d="M11 5.2 C13.6 8.2 14.2 13.2 12.9 17.8 C11.5 22.8 8.2 26.4 4.0 27.4 C6.7 23.6 7.8 19.3 7.6 15.0 C7.4 10.8 6.2 7.6 3.6 5.6 C5.4 3.9 8.9 3.6 11 5.2 Z" fill="#C2311F"/><path d="M10.2 4.9 C10.1 2.8 11.3 1.0 13.6 0.4 C13.0 2.0 13.0 3.6 13.3 5.2" fill="none" stroke="#5E6B3B" stroke-width="1.8" stroke-linecap="round" opacity="1"/></g><g transform="translate(619,724)"><path d="M11 5.2 C13.6 8.2 14.2 13.2 12.9 17.8 C11.5 22.8 8.2 26.4 4.0 27.4 C6.7 23.6 7.8 19.3 7.6 15.0 C7.4 10.8 6.2 7.6 3.6 5.6 C5.4 3.9 8.9 3.6 11 5.2 Z" fill="#C2311F"/><path d="M10.2 4.9 C10.1 2.8 11.3 1.0 13.6 0.4 C13.0 2.0 13.0 3.6 13.3 5.2" fill="none" stroke="#5E6B3B" stroke-width="1.8" stroke-linecap="round" opacity="1"/></g><text x="594" y="771" font-size="8.5" fill="#8C3D22" font-family="Mulish, 'Segoe UI', 'Trebuchet MS', sans-serif" font-weight="800" letter-spacing="2.2" text-anchor="middle" opacity="0.85">SPICE LEVEL</text><rect x="0" y="796" width="700" height="38" fill="#C2311F"/><text x="350" y="821" font-size="15" fill="#F4ECDD" font-family="Mulish, 'Segoe UI', 'Trebuchet MS', sans-serif" font-weight="800" letter-spacing="3.5" text-anchor="middle">NO PRESERVATIVES · PRESSED BY HAND</text><g transform="rotate(-2 158 890)" opacity="0.92"><rect x="55.5" y="849.0" width="205" height="82" rx="7" fill="none" stroke="#9C3B24" stroke-width="1.6" stroke-dasharray="6 4"/><text x="69.5" y="874.0" font-size="10" fill="#9C3B24" font-family="'Courier Prime', 'Courier New', monospace" font-weight="700" letter-spacing="1.5" text-anchor="start">BATCH NO.</text><line x1="155.5" y1="877.0" x2="246.5" y2="877.0" stroke="#9C3B24" stroke-width="0.9" opacity="0.6"/><text x="242.5" y="875.0" font-size="19" fill="#9C3B24" font-family="Caveat, 'Segoe Script', 'Comic Sans MS', cursive" font-weight="700" text-anchor="end">SB-11</text><text x="69.5" y="899.0" font-size="10" fill="#9C3B24" font-family="'Courier Prime', 'Courier New', monospace" font-weight="700" letter-spacing="1.5" text-anchor="start">PACKED ON</text><line x1="155.5" y1="902.0" x2="246.5" y2="902.0" stroke="#9C3B24" stroke-width="0.9" opacity="0.6"/><text x="242.5" y="900.0" font-size="16" fill="#9C3B24" font-family="Caveat, 'Segoe Script', 'Comic Sans MS', cursive" font-weight="600" text-anchor="end">02 · 07 · 26</text><text x="158" y="922.0" font-size="7.5" fill="#9C3B24" font-family="'Courier Prime', 'Courier New', monospace" letter-spacing="1" text-anchor="middle">USE WITHIN 60 DAYS OF PACKING</text></g><path id="la-masala-st" d="M 317.44 890 A 32.56 32.56 0 0 1 382.56 890" fill="none"/><path id="la-masala-sb" d="M 317.44 890 A 32.56 32.56 0 0 0 382.56 890" fill="none"/><circle cx="350" cy="890" r="44" fill="#FBF5E9" stroke="#C2311F" stroke-width="2"/><circle cx="350" cy="890" r="39" fill="none" stroke="#8C3D22" stroke-width="0.8" stroke-dasharray="1.5 3"/><text font-size="8.1" font-weight="800" letter-spacing="1.6" fill="#8C3D22" font-family="Mulish, 'Segoe UI', 'Trebuchet MS', sans-serif"><textPath href="#la-masala-st" startOffset="50%" text-anchor="middle">MADE BY MAA</textPath></text><text font-size="7.0" font-weight="700" letter-spacing="1.6" fill="#8C3D22" font-family="Mulish, 'Segoe UI', 'Trebuchet MS', sans-serif"><textPath href="#la-masala-sb" startOffset="50%" text-anchor="middle">PUNE · INDIA</textPath></text><g transform="translate(350,895.28) scale(0.846)"><circle cx="9" cy="-13" r="6.2" fill="#8C3D22"/><circle cx="0" cy="-7" r="11.5" fill="#8C3D22"/><path d="M-17 15 C-11 2 11 2 17 15 L-17 15 Z" fill="#8C3D22"/><circle cx="-4.2" cy="-9.5" r="1.5" fill="#E9B949"/></g><text x="547" y="860" font-size="9" fill="#2E2017" font-family="Mulish, 'Segoe UI', 'Trebuchet MS', sans-serif" font-weight="600" letter-spacing="0.8" text-anchor="middle" opacity="0.85">FSSAI LIC. NO. 11523 048 000 111</text><rect x="460.00" y="868" width="8.83" height="39" fill="#2E2017"/><rect x="473.38" y="868" width="2.94" height="32" fill="#2E2017"/><rect x="483.42" y="868" width="5.89" height="32" fill="#2E2017"/><rect x="493.46" y="868" width="2.94" height="32" fill="#2E2017"/><rect x="500.15" y="868" width="5.89" height="32" fill="#2E2017"/><rect x="513.54" y="868" width="2.94" height="32" fill="#2E2017"/><rect x="526.92" y="868" width="2.94" height="32" fill="#2E2017"/><rect x="533.62" y="868" width="5.89" height="32" fill="#2E2017"/><rect x="543.65" y="868" width="2.94" height="39" fill="#2E2017"/><rect x="557.04" y="868" width="5.89" height="32" fill="#2E2017"/><rect x="567.08" y="868" width="2.94" height="32" fill="#2E2017"/><rect x="577.12" y="868" width="2.94" height="32" fill="#2E2017"/><rect x="583.81" y="868" width="8.83" height="32" fill="#2E2017"/><rect x="597.19" y="868" width="5.89" height="32" fill="#2E2017"/><rect x="607.23" y="868" width="2.94" height="32" fill="#2E2017"/><rect x="617.27" y="868" width="2.94" height="32" fill="#2E2017"/><rect x="623.96" y="868" width="8.83" height="39" fill="#2E2017"/><text x="547.0" y="916" font-size="10" fill="#2E2017" font-family="'Courier Prime', 'Courier New', monospace" font-weight="700" letter-spacing="2" text-anchor="middle">8 906114 210035</text><text x="547" y="934" font-size="8.5" fill="#2E2017" font-family="Mulish, 'Segoe UI', 'Trebuchet MS', sans-serif" font-weight="600" letter-spacing="0.8" text-anchor="middle" opacity="0.8">M.R.P. Rs 150 · INCL. OF ALL TAXES</text><text x="350" y="940" font-size="8.5" fill="#8C3D22" font-family="Mulish, 'Segoe UI', 'Trebuchet MS', sans-serif" font-weight="700" letter-spacing="1.4" text-anchor="middle" opacity="0.8">CMAA HOME FOODS · KOTHRUD, PUNE 411 038</text>
</svg>
