<svg xmlns="http://www.w3.org/2000/svg" viewBox="0 0 420 420" width="420" height="420" role="img" aria-label="Cmaa — Hand-pressed by Maa round seal sticker">
<title>Cmaa — Hand-pressed by Maa round seal sticker</title>
<style>@import url('https://fonts.googleapis.com/css2?family=Fraunces:ital,opsz,wght@0,9..144,300..900;1,9..144,300..900&amp;family=Mulish:ital,wght@0,300..900;1,300..900&amp;family=Courier+Prime:ital,wght@0,400;0,700&amp;family=Caveat:wght@500;700&amp;family=Noto+Sans+Devanagari:wght@400;600;700&amp;display=swap');</style>
<defs><path id="seal-at" d="M 82 210 A 128 128 0 0 1 338 210" fill="none"/><path id="seal-ab" d="M 60 210 A 150 150 0 0 0 360 210" fill="none"/></defs><path d="M 407.0 210.0 L 405.6 214.4 L 402.0 218.6 L 397.4 222.6 L 393.6 226.5 L 391.8 230.5 L 392.7 234.7 L 395.5 239.4 L 399.1 244.3 L 401.7 249.2 L 402.1 253.8 L 399.7 257.8 L 395.2 261.1 L 389.9 264.0 L 385.3 267.0 L 382.7 270.4 L 382.6 274.8 L 384.3 279.9 L 386.7 285.5 L 388.1 290.9 L 387.5 295.5 L 384.3 298.8 L 379.2 301.1 L 373.4 302.7 L 368.2 304.5 L 365.0 307.4 L 363.8 311.6 L 364.4 317.0 L 365.5 323.0 L 365.7 328.5 L 364.0 332.8 L 360.2 335.4 L 354.7 336.4 L 348.6 336.7 L 343.2 337.4 L 339.4 339.4 L 337.4 343.2 L 336.7 348.6 L 336.4 354.7 L 335.4 360.2 L 332.8 364.0 L 328.5 365.7 L 323.0 365.5 L 317.0 364.4 L 311.6 363.8 L 307.4 365.0 L 304.5 368.2 L 302.7 373.4 L 301.1 379.2 L 298.8 384.3 L 295.5 387.5 L 290.9 388.1 L 285.5 386.7 L 279.9 384.3 L 274.8 382.6 L 270.4 382.7 L 267.0 385.3 L 264.0 389.9 L 261.1 395.2 L 257.8 399.7 L 253.8 402.1 L 249.2 401.7 L 244.3 399.1 L 239.4 395.5 L 234.7 392.7 L 230.5 391.8 L 226.5 393.6 L 222.6 397.4 L 218.6 402.0 L 214.4 405.6 L 210.0 407.0 L 205.6 405.6 L 201.4 402.0 L 197.4 397.4 L 193.5 393.6 L 189.5 391.8 L 185.3 392.7 L 180.6 395.5 L 175.7 399.1 L 170.8 401.7 L 166.2 402.1 L 162.2 399.7 L 158.9 395.2 L 156.0 389.9 L 153.0 385.3 L 149.6 382.7 L 145.2 382.6 L 140.1 384.3 L 134.5 386.7 L 129.1 388.1 L 124.5 387.5 L 121.2 384.3 L 118.9 379.2 L 117.3 373.4 L 115.5 368.2 L 112.6 365.0 L 108.4 363.8 L 103.0 364.4 L 97.0 365.5 L 91.5 365.7 L 87.2 364.0 L 84.6 360.2 L 83.6 354.7 L 83.3 348.6 L 82.6 343.2 L 80.6 339.4 L 76.8 337.4 L 71.4 336.7 L 65.3 336.4 L 59.8 335.4 L 56.0 332.8 L 54.3 328.5 L 54.5 323.0 L 55.6 317.0 L 56.2 311.6 L 55.0 307.4 L 51.8 304.5 L 46.6 302.7 L 40.8 301.1 L 35.7 298.8 L 32.5 295.5 L 31.9 290.9 L 33.3 285.5 L 35.7 279.9 L 37.4 274.8 L 37.3 270.4 L 34.7 267.0 L 30.1 264.0 L 24.8 261.1 L 20.3 257.8 L 17.9 253.8 L 18.3 249.2 L 20.9 244.3 L 24.5 239.4 L 27.3 234.7 L 28.2 230.5 L 26.4 226.5 L 22.6 222.6 L 18.0 218.6 L 14.4 214.4 L 13.0 210.0 L 14.4 205.6 L 18.0 201.4 L 22.6 197.4 L 26.4 193.5 L 28.2 189.5 L 27.3 185.3 L 24.5 180.6 L 20.9 175.7 L 18.3 170.8 L 17.9 166.2 L 20.3 162.2 L 24.8 158.9 L 30.1 156.0 L 34.7 153.0 L 37.3 149.6 L 37.4 145.2 L 35.7 140.1 L 33.3 134.5 L 31.9 129.1 L 32.5 124.5 L 35.7 121.2 L 40.8 118.9 L 46.6 117.3 L 51.8 115.5 L 55.0 112.6 L 56.2 108.4 L 55.6 103.0 L 54.5 97.0 L 54.3 91.5 L 56.0 87.2 L 59.8 84.6 L 65.3 83.6 L 71.4 83.3 L 76.8 82.6 L 80.6 80.6 L 82.6 76.8 L 83.3 71.4 L 83.6 65.3 L 84.6 59.8 L 87.2 56.0 L 91.5 54.3 L 97.0 54.5 L 103.0 55.6 L 108.4 56.2 L 112.6 55.0 L 115.5 51.8 L 117.3 46.6 L 118.9 40.8 L 121.2 35.7 L 124.5 32.5 L 129.1 31.9 L 134.5 33.3 L 140.1 35.7 L 145.2 37.4 L 149.6 37.3 L 153.0 34.7 L 156.0 30.1 L 158.9 24.8 L 162.2 20.3 L 166.2 17.9 L 170.8 18.3 L 175.7 20.9 L 180.6 24.5 L 185.3 27.3 L 189.5 28.2 L 193.5 26.4 L 197.4 22.6 L 201.4 18.0 L 205.6 14.4 L 210.0 13.0 L 214.4 14.4 L 218.6 18.0 L 222.6 22.6 L 226.5 26.4 L 230.5 28.2 L 234.7 27.3 L 239.4 24.5 L 244.3 20.9 L 249.2 18.3 L 253.8 17.9 L 257.8 20.3 L 261.1 24.8 L 264.0 30.1 L 267.0 34.7 L 270.4 37.3 L 274.8 37.4 L 279.9 35.7 L 285.5 33.3 L 290.9 31.9 L 295.5 32.5 L 298.8 35.7 L 301.1 40.8 L 302.7 46.6 L 304.5 51.8 L 307.4 55.0 L 311.6 56.2 L 317.0 55.6 L 323.0 54.5 L 328.5 54.3 L 332.8 56.0 L 335.4 59.8 L 336.4 65.3 L 336.7 71.4 L 337.4 76.8 L 339.4 80.6 L 343.2 82.6 L 348.6 83.3 L 354.7 83.6 L 360.2 84.6 L 364.0 87.2 L 365.7 91.5 L 365.5 97.0 L 364.4 103.0 L 363.8 108.4 L 365.0 112.6 L 368.2 115.5 L 373.4 117.3 L 379.2 118.9 L 384.3 121.2 L 387.5 124.5 L 388.1 129.1 L 386.7 134.5 L 384.3 140.1 L 382.6 145.2 L 382.7 149.6 L 385.3 153.0 L 389.9 156.0 L 395.2 158.9 L 399.7 162.2 L 402.1 166.2 L 401.7 170.8 L 399.1 175.7 L 395.5 180.6 L 392.7 185.3 L 391.8 189.5 L 393.6 193.5 L 397.4 197.4 L 402.0 201.4 L 405.6 205.6 L 407.0 210.0 Z" fill="#F4ECDD" stroke="#B5512E" stroke-width="3"/><circle cx="210" cy="210" r="162" fill="none" stroke="#B5512E" stroke-width="1.2" opacity="0.6"/><circle cx="210" cy="210" r="152" fill="none" stroke="#E9B949" stroke-width="3" stroke-dasharray="2 7" stroke-linecap="round"/><text font-size="33" font-weight="600" letter-spacing="5" fill="#8C3D22" font-family="Fraunces, Georgia, 'Times New Roman', serif"><textPath href="#seal-at" startOffset="50%" text-anchor="middle">HAND-PRESSED</textPath></text><text font-size="33" font-weight="600" letter-spacing="9" fill="#8C3D22" font-family="Fraunces, Georgia, 'Times New Roman', serif"><textPath href="#seal-ab" startOffset="50%" text-anchor="middle">BY MAA</textPath></text><g transform="translate(210,188) scale(2.1)"><circle cx="9" cy="-13" r="6.2" fill="#B5512E"/><circle cx="0" cy="-7" r="11.5" fill="#B5512E"/><path d="M-17 15 C-11 2 11 2 17 15 L-17 15 Z" fill="#B5512E"/><circle cx="-4.2" cy="-9.5" r="1.5" fill="#E9B949"/></g><text x="210" y="270" font-size="28" fill="#B5512E" font-family="Caveat, 'Segoe Script', 'Comic Sans MS', cursive" font-weight="600" text-anchor="middle">with love, Seema</text><text x="210" y="296" font-size="9.5" fill="#8C3D22" font-family="Mulish, 'Segoe UI', 'Trebuchet MS', sans-serif" font-weight="800" letter-spacing="1.6" text-anchor="middle">SMALL BATCH · NO PRESERVATIVES</text><ellipse cx="126" cy="138" rx="4" ry="2.4" transform="rotate(20 126 138)" fill="#E9B949"/><ellipse cx="296" cy="146" rx="4" ry="2.4" transform="rotate(-30 296 146)" fill="#E9B949"/><ellipse cx="116" cy="262" rx="4" ry="2.4" transform="rotate(-15 116 262)" fill="#E9B949"/><ellipse cx="300" cy="258" rx="4" ry="2.4" transform="rotate(25 300 258)" fill="#E9B949"/><ellipse cx="210" cy="96" rx="4" ry="2.4" transform="rotate(40 210 96)" fill="#E9B949"/><g transform="translate(92,264) scale(1.1)"><path d="M 0.00 -0.80 L 0.26 -0.90 L 0.57 -0.92 L 0.91 -0.81 L 1.22 -0.59 L 1.48 -0.25 L 1.63 0.18 L 1.65 0.68 L 1.51 1.19 L 1.20 1.67 L 0.74 2.07 L 0.14 2.34 L -0.54 2.42 L -1.25 2.30 L -1.94 1.97 L -2.53 1.42 L -2.96 0.70 L -3.18 -0.15 L -3.14 -1.07 L -2.84 -1.98 L -2.27 -2.79 L -1.47 -3.44 L -0.48 -3.85 L 0.63 -3.97 L 1.76 -3.77 L 2.83 -3.24 L 3.73 -2.41 L 4.38 -1.33 L 4.72 -0.07 L 4.69 1.28 L 4.27 2.60 L 3.48 3.78 L 2.37 4.72 L 1.00 5.33 L -0.53 5.53 L -2.09 5.30 L -3.56 4.63 L -4.81 3.55 L -5.74 2.13 L -6.24 0.47 L -6.27 -1.30 L -5.79 -3.05 L -4.82 -4.62 L -3.43 -5.90 L -1.70 -6.75 L 0.24 -7.10 L 2.23 -6.89 L 4.13 -6.12 L 5.77 -4.83 L 7.00 -3.10 L 7.73 -1.07 L 7.86 1.13 L 7.37 3.32 L 6.27 5.31 L 4.64 6.96 L 2.58 8.10 L 0.24 8.64 L -2.19 8.50 L -4.53 7.69" fill="none" stroke="#B5512E" stroke-width="1.7" stroke-linecap="round"/></g><g transform="translate(328,264) scale(1.1)"><path d="M 0.00 -0.80 L 0.26 -0.90 L 0.57 -0.92 L 0.91 -0.81 L 1.22 -0.59 L 1.48 -0.25 L 1.63 0.18 L 1.65 0.68 L 1.51 1.19 L 1.20 1.67 L 0.74 2.07 L 0.14 2.34 L -0.54 2.42 L -1.25 2.30 L -1.94 1.97 L -2.53 1.42 L -2.96 0.70 L -3.18 -0.15 L -3.14 -1.07 L -2.84 -1.98 L -2.27 -2.79 L -1.47 -3.44 L -0.48 -3.85 L 0.63 -3.97 L 1.76 -3.77 L 2.83 -3.24 L 3.73 -2.41 L 4.38 -1.33 L 4.72 -0.07 L 4.69 1.28 L 4.27 2.60 L 3.48 3.78 L 2.37 4.72 L 1.00 5.33 L -0.53 5.53 L -2.09 5.30 L -3.56 4.63 L -4.81 3.55 L -5.74 2.13 L -6.24 0.47 L -6.27 -1.30 L -5.79 -3.05 L -4.82 -4.62 L -3.43 -5.90 L -1.70 -6.75 L 0.24 -7.10 L 2.23 -6.89 L 4.13 -6.12 L 5.77 -4.83 L 7.00 -3.10 L 7.73 -1.07 L 7.86 1.13 L 7.37 3.32 L 6.27 5.31 L 4.64 6.96 L 2.58 8.10 L 0.24 8.64 L -2.19 8.50 L -4.53 7.69" fill="none" stroke="#B5512E" stroke-width="1.7" stroke-linecap="round"/></g>
</svg>
