<svg xmlns="http://www.w3.org/2000/svg" viewBox="0 0 1200 150" width="1200" height="150" role="img" aria-label="Cmaa — packaging tape strip with repeating spiral and wordmark">
<title>Cmaa — packaging tape strip with repeating spiral and wordmark</title>
<style>@import url('https://fonts.googleapis.com/css2?family=Fraunces:ital,opsz,wght@0,9..144,300..900;1,9..144,300..900&amp;family=Mulish:ital,wght@0,300..900;1,300..900&amp;family=Courier+Prime:ital,wght@0,400;0,700&amp;family=Caveat:wght@500;700&amp;family=Noto+Sans+Devanagari:wght@400;600;700&amp;display=swap');</style>
<path d="M 1186 0 L 1194 12.5 L 1186 25.0 L 1194 37.5 L 1186 50.0 L 1194 62.5 L 1186 75.0 L 1194 87.5 L 1186 100.0 L 1194 112.5 L 1186 125.0 L 1194 137.5 L 1186 150 L 14 150 L 6 137.5 L 14 125.0 L 6 112.5 L 14 100.0 L 6 87.5 L 14 75.0 L 6 62.5 L 14 50.0 L 6 37.5 L 14 25.0 L 6 12.5 L 14 0 Z" fill="#F4ECDD" fill-opacity="0.97" stroke="#C9B693" stroke-width="1"/><rect x="22" y="8" width="1156" height="8" fill="#B5512E"/><rect x="22" y="134" width="1156" height="8" fill="#B5512E"/><line x1="26" y1="26" x2="1174" y2="26" stroke="#B5512E" stroke-width="2" stroke-dasharray="12 9" opacity="0.75"/><line x1="26" y1="124" x2="1174" y2="124" stroke="#B5512E" stroke-width="2" stroke-dasharray="12 9" opacity="0.75"/><g transform="translate(50,75) scale(1.35)"><path d="M 0.00 -0.80 L 0.26 -0.90 L 0.57 -0.92 L 0.91 -0.81 L 1.22 -0.59 L 1.48 -0.25 L 1.63 0.18 L 1.65 0.68 L 1.51 1.19 L 1.20 1.67 L 0.74 2.07 L 0.14 2.34 L -0.54 2.42 L -1.25 2.30 L -1.94 1.97 L -2.53 1.42 L -2.96 0.70 L -3.18 -0.15 L -3.14 -1.07 L -2.84 -1.98 L -2.27 -2.79 L -1.47 -3.44 L -0.48 -3.85 L 0.63 -3.97 L 1.76 -3.77 L 2.83 -3.24 L 3.73 -2.41 L 4.38 -1.33 L 4.72 -0.07 L 4.69 1.28 L 4.27 2.60 L 3.48 3.78 L 2.37 4.72 L 1.00 5.33 L -0.53 5.53 L -2.09 5.30 L -3.56 4.63 L -4.81 3.55 L -5.74 2.13 L -6.24 0.47 L -6.27 -1.30 L -5.79 -3.05 L -4.82 -4.62 L -3.43 -5.90 L -1.70 -6.75 L 0.24 -7.10 L 2.23 -6.89 L 4.13 -6.12 L 5.77 -4.83 L 7.00 -3.10 L 7.73 -1.07 L 7.86 1.13 L 7.37 3.32 L 6.27 5.31 L 4.64 6.96 L 2.58 8.10 L 0.24 8.64 L -2.19 8.50 L -4.53 7.69" fill="none" stroke="#B5512E" stroke-width="1.7" stroke-linecap="round"/></g><text x="84" y="90" font-size="44" fill="#2E2017" font-family="Fraunces, Georgia, 'Times New Roman', serif" font-weight="600" letter-spacing="8" text-anchor="start">CMAA</text><rect x="246" y="70" width="9" height="9" transform="rotate(45 250.5 74.5)" fill="#E9B949"/><g transform="translate(282,75) scale(1.35)"><path d="M 0.00 -0.80 L 0.26 -0.90 L 0.57 -0.92 L 0.91 -0.81 L 1.22 -0.59 L 1.48 -0.25 L 1.63 0.18 L 1.65 0.68 L 1.51 1.19 L 1.20 1.67 L 0.74 2.07 L 0.14 2.34 L -0.54 2.42 L -1.25 2.30 L -1.94 1.97 L -2.53 1.42 L -2.96 0.70 L -3.18 -0.15 L -3.14 -1.07 L -2.84 -1.98 L -2.27 -2.79 L -1.47 -3.44 L -0.48 -3.85 L 0.63 -3.97 L 1.76 -3.77 L 2.83 -3.24 L 3.73 -2.41 L 4.38 -1.33 L 4.72 -0.07 L 4.69 1.28 L 4.27 2.60 L 3.48 3.78 L 2.37 4.72 L 1.00 5.33 L -0.53 5.53 L -2.09 5.30 L -3.56 4.63 L -4.81 3.55 L -5.74 2.13 L -6.24 0.47 L -6.27 -1.30 L -5.79 -3.05 L -4.82 -4.62 L -3.43 -5.90 L -1.70 -6.75 L 0.24 -7.10 L 2.23 -6.89 L 4.13 -6.12 L 5.77 -4.83 L 7.00 -3.10 L 7.73 -1.07 L 7.86 1.13 L 7.37 3.32 L 6.27 5.31 L 4.64 6.96 L 2.58 8.10 L 0.24 8.64 L -2.19 8.50 L -4.53 7.69" fill="none" stroke="#B5512E" stroke-width="1.7" stroke-linecap="round"/></g><text x="316" y="90" font-size="44" fill="#2E2017" font-family="Fraunces, Georgia, 'Times New Roman', serif" font-weight="600" letter-spacing="8" text-anchor="start">CMAA</text><rect x="478" y="70" width="9" height="9" transform="rotate(45 482.5 74.5)" fill="#E9B949"/><g transform="translate(514,75) scale(1.35)"><path d="M 0.00 -0.80 L 0.26 -0.90 L 0.57 -0.92 L 0.91 -0.81 L 1.22 -0.59 L 1.48 -0.25 L 1.63 0.18 L 1.65 0.68 L 1.51 1.19 L 1.20 1.67 L 0.74 2.07 L 0.14 2.34 L -0.54 2.42 L -1.25 2.30 L -1.94 1.97 L -2.53 1.42 L -2.96 0.70 L -3.18 -0.15 L -3.14 -1.07 L -2.84 -1.98 L -2.27 -2.79 L -1.47 -3.44 L -0.48 -3.85 L 0.63 -3.97 L 1.76 -3.77 L 2.83 -3.24 L 3.73 -2.41 L 4.38 -1.33 L 4.72 -0.07 L 4.69 1.28 L 4.27 2.60 L 3.48 3.78 L 2.37 4.72 L 1.00 5.33 L -0.53 5.53 L -2.09 5.30 L -3.56 4.63 L -4.81 3.55 L -5.74 2.13 L -6.24 0.47 L -6.27 -1.30 L -5.79 -3.05 L -4.82 -4.62 L -3.43 -5.90 L -1.70 -6.75 L 0.24 -7.10 L 2.23 -6.89 L 4.13 -6.12 L 5.77 -4.83 L 7.00 -3.10 L 7.73 -1.07 L 7.86 1.13 L 7.37 3.32 L 6.27 5.31 L 4.64 6.96 L 2.58 8.10 L 0.24 8.64 L -2.19 8.50 L -4.53 7.69" fill="none" stroke="#B5512E" stroke-width="1.7" stroke-linecap="round"/></g><text x="548" y="90" font-size="44" fill="#2E2017" font-family="Fraunces, Georgia, 'Times New Roman', serif" font-weight="600" letter-spacing="8" text-anchor="start">CMAA</text><rect x="710" y="70" width="9" height="9" transform="rotate(45 714.5 74.5)" fill="#E9B949"/><g transform="translate(746,75) scale(1.35)"><path d="M 0.00 -0.80 L 0.26 -0.90 L 0.57 -0.92 L 0.91 -0.81 L 1.22 -0.59 L 1.48 -0.25 L 1.63 0.18 L 1.65 0.68 L 1.51 1.19 L 1.20 1.67 L 0.74 2.07 L 0.14 2.34 L -0.54 2.42 L -1.25 2.30 L -1.94 1.97 L -2.53 1.42 L -2.96 0.70 L -3.18 -0.15 L -3.14 -1.07 L -2.84 -1.98 L -2.27 -2.79 L -1.47 -3.44 L -0.48 -3.85 L 0.63 -3.97 L 1.76 -3.77 L 2.83 -3.24 L 3.73 -2.41 L 4.38 -1.33 L 4.72 -0.07 L 4.69 1.28 L 4.27 2.60 L 3.48 3.78 L 2.37 4.72 L 1.00 5.33 L -0.53 5.53 L -2.09 5.30 L -3.56 4.63 L -4.81 3.55 L -5.74 2.13 L -6.24 0.47 L -6.27 -1.30 L -5.79 -3.05 L -4.82 -4.62 L -3.43 -5.90 L -1.70 -6.75 L 0.24 -7.10 L 2.23 -6.89 L 4.13 -6.12 L 5.77 -4.83 L 7.00 -3.10 L 7.73 -1.07 L 7.86 1.13 L 7.37 3.32 L 6.27 5.31 L 4.64 6.96 L 2.58 8.10 L 0.24 8.64 L -2.19 8.50 L -4.53 7.69" fill="none" stroke="#B5512E" stroke-width="1.7" stroke-linecap="round"/></g><text x="780" y="90" font-size="44" fill="#2E2017" font-family="Fraunces, Georgia, 'Times New Roman', serif" font-weight="600" letter-spacing="8" text-anchor="start">CMAA</text><rect x="942" y="70" width="9" height="9" transform="rotate(45 946.5 74.5)" fill="#E9B949"/><g transform="translate(978,75) scale(1.35)"><path d="M 0.00 -0.80 L 0.26 -0.90 L 0.57 -0.92 L 0.91 -0.81 L 1.22 -0.59 L 1.48 -0.25 L 1.63 0.18 L 1.65 0.68 L 1.51 1.19 L 1.20 1.67 L 0.74 2.07 L 0.14 2.34 L -0.54 2.42 L -1.25 2.30 L -1.94 1.97 L -2.53 1.42 L -2.96 0.70 L -3.18 -0.15 L -3.14 -1.07 L -2.84 -1.98 L -2.27 -2.79 L -1.47 -3.44 L -0.48 -3.85 L 0.63 -3.97 L 1.76 -3.77 L 2.83 -3.24 L 3.73 -2.41 L 4.38 -1.33 L 4.72 -0.07 L 4.69 1.28 L 4.27 2.60 L 3.48 3.78 L 2.37 4.72 L 1.00 5.33 L -0.53 5.53 L -2.09 5.30 L -3.56 4.63 L -4.81 3.55 L -5.74 2.13 L -6.24 0.47 L -6.27 -1.30 L -5.79 -3.05 L -4.82 -4.62 L -3.43 -5.90 L -1.70 -6.75 L 0.24 -7.10 L 2.23 -6.89 L 4.13 -6.12 L 5.77 -4.83 L 7.00 -3.10 L 7.73 -1.07 L 7.86 1.13 L 7.37 3.32 L 6.27 5.31 L 4.64 6.96 L 2.58 8.10 L 0.24 8.64 L -2.19 8.50 L -4.53 7.69" fill="none" stroke="#B5512E" stroke-width="1.7" stroke-linecap="round"/></g><text x="1012" y="90" font-size="44" fill="#2E2017" font-family="Fraunces, Georgia, 'Times New Roman', serif" font-weight="600" letter-spacing="8" text-anchor="start">CMAA</text>
</svg>
