<!-- Seema logo C — honesty badge: chakli coil + Fraunces "Seema" + Devanagari सीमा (outlined
     IBM Plex Sans Devanagari) inside a ring; IBM Plex Mono caps "NO PALM OIL / NO PRESERVATIVES";
     dotted border. Reversed: cream on roast disc. Generated — do not hand-edit. -->
<svg xmlns="http://www.w3.org/2000/svg" viewBox="-580 -580 1160 1160" role="img" aria-label="Seema — no palm oil, no preservatives">
  <circle r="570" fill="#2E1F16"/>
  <circle r="320" fill="none" stroke="#F6EDDD" stroke-width="10"/>
  <circle r="470" fill="none" stroke="#F6EDDD" stroke-width="13" stroke-linecap="round" stroke-dasharray="0 41.03"/>
  <path fill="none" stroke="#F6EDDD" stroke-width="20" stroke-linecap="round" d="M-1.24 -168.2L-1.6 -168.03L-2 -167.9L-2.42 -167.8L-2.87 -167.75L-3.33 -167.74L-3.81 -167.77L-4.3 -167.85L-4.79 -167.98L-5.29 -168.16L-5.78 -168.39L-6.27 -168.67L-6.75 -169L-7.2 -169.38L-7.64 -169.81L-8.05 -170.29L-8.43 -170.82L-8.77 -171.39L-9.08 -172L-9.34 -172.65L-9.55 -173.34L-9.71 -174.06L-9.81 -174.81L-9.85 -175.59L-9.84 -176.38L-9.76 -177.19L-9.61 -178.01L-9.4 -178.83L-9.11 -179.65L-8.76 -180.46L-8.34 -181.26L-7.85 -182.04L-7.28 -182.8L-6.65 -183.52L-5.96 -184.21L-5.2 -184.86L-4.37 -185.46L-3.49 -186.01L-2.56 -186.49L-1.57 -186.92L-0.53 -187.27L0.54 -187.55L1.66 -187.76L2.8 -187.88L3.97 -187.92L5.16 -187.88L6.36 -187.74L7.56 -187.51L8.77 -187.19L9.97 -186.77L11.15 -186.27L12.3 -185.66L13.43 -184.97L14.52 -184.18L15.56 -183.3L16.55 -182.34L17.48 -181.29L18.34 -180.17L19.13 -178.96L19.84 -177.69L20.47 -176.35L21 -174.95L21.43 -173.5L21.77 -172L22 -170.46L22.12 -168.89L22.12 -167.3L22.01 -165.69L21.78 -164.07L21.43 -162.46L20.96 -160.85L20.37 -159.27L19.67 -157.71L18.84 -156.19L17.89 -154.72L16.83 -153.31L15.66 -151.96L14.38 -150.68L13 -149.48L11.52 -148.38L9.95 -147.37L8.3 -146.47L6.56 -145.68L4.76 -145.01L2.89 -144.46L0.98 -144.04L-0.99 -143.76L-2.98 -143.62L-5 -143.62L-7.04 -143.76L-9.08 -144.05L-11.11 -144.49L-13.13 -145.08L-15.12 -145.82L-17.06 -146.7L-18.96 -147.73L-20.79 -148.91L-22.56 -150.22L-24.24 -151.66L-25.83 -153.24L-27.31 -154.93L-28.68 -156.75L-29.94 -158.67L-31.06 -160.7L-32.04 -162.81L-32.88 -165.01L-33.57 -167.28L-34.1 -169.62L-34.46 -172L-34.66 -174.42L-34.68 -176.87L-34.54 -179.34L-34.21 -181.81L-33.71 -184.27L-33.03 -186.71L-32.17 -189.11L-31.14 -191.46L-29.93 -193.75L-28.56 -195.96L-27.02 -198.09L-25.32 -200.13L-23.47 -202.05L-21.48 -203.84L-19.35 -205.51L-17.09 -207.03L-14.71 -208.4L-12.22 -209.6L-9.63 -210.64L-6.96 -211.49L-4.22 -212.16L-1.42 -212.64L1.43 -212.92L4.31 -213L7.21 -212.88L10.11 -212.55L13 -212.02L15.87 -211.27L18.69 -210.33L21.46 -209.17L24.16 -207.82L26.77 -206.27L29.29 -204.53L31.69 -202.6L33.96 -200.5L36.09 -198.22L38.08 -195.79L39.89 -193.21L41.53 -190.49L42.98 -187.65L44.24 -184.69L45.3 -181.63L46.14 -178.48L46.76 -175.27L47.15 -172L47.32 -168.69L47.25 -165.36L46.95 -162.02L46.41 -158.69L45.64 -155.39L44.62 -152.13L43.38 -148.94L41.9 -145.82L40.2 -142.79L38.28 -139.88L36.15 -137.09L33.82 -134.44L31.29 -131.95L28.58 -129.63L25.69 -127.5L22.65 -125.56L19.46 -123.83L16.14 -122.33L12.7 -121.05L9.17 -120.01L5.55 -119.21L1.86 -118.67L-1.87 -118.39L-5.64 -118.37L-9.41 -118.62L-13.18 -119.13L-16.92 -119.91L-20.62 -120.96L-24.26 -122.27L-27.81 -123.84L-31.26 -125.66L-34.59 -127.73L-37.78 -130.04L-40.82 -132.58L-43.68 -135.34L-46.36 -138.32L-48.84 -141.48L-51.1 -144.83L-53.13 -148.35L-54.91 -152.01L-56.44 -155.82L-57.71 -159.73L-58.71 -163.75L-59.42 -167.85L-59.85 -172L-59.98 -176.19L-59.82 -180.41L-59.37 -184.62L-58.61 -188.81L-57.56 -192.95L-56.22 -197.03L-54.58 -201.02L-52.67 -204.91L-50.47 -208.67L-48.01 -212.28L-45.28 -215.73L-42.31 -218.99L-39.1 -222.05L-35.67 -224.89L-32.04 -227.49L-28.21 -229.85L-24.21 -231.93L-20.06 -233.75L-15.77 -235.27L-11.37 -236.49L-6.87 -237.41L-2.31 -238.01L2.31 -238.29L6.96 -238.25L11.62 -237.88L16.25 -237.18L20.85 -236.16L25.38 -234.81L29.82 -233.14L34.15 -231.16L38.35 -228.86L42.4 -226.27L46.27 -223.39L49.95 -220.23L53.41 -216.81L56.63 -213.14"/>
  <g transform="translate(-276.75 68)"><path transform="translate(0 0) scale(0.205)" fill="#F6EDDD" d="M294 11.50L294 11.50Q250.50 11.50 221.75 0.50Q193-10.50 176.25-21.50Q159.50-32.50 152-32.50L152-32.50Q146.50-32.50 140.75-25.75Q135-19 129.25-10.25Q123.50-1.50 117.50 5.25Q111.50 12 105 12L105 12Q96.50 12 91.25 6.50Q86 1 83.50-9.50L83.50-9.50L49-183.50Q47.50-191.50 50.25-197.75Q53-204 60.50-206L60.50-206Q68-208 73.50-205Q79-202 84-192.50L84-192.50Q113-130.50 144.50-94Q176-57.50 211.25-41.75Q246.50-26 286-26L286-26Q337-26 368.75-54Q400.50-82 401-132.50L401-132.50Q401-164.50 387.50-191Q374-217.50 338.50-241.50Q303-265.50 237-289L237-289Q163-315.50 119-348Q75-380.50 55.50-421.25Q36-462 36-512L36-512Q36-570.50 64-615.25Q92-660 141.75-685.50Q191.50-711 256-711L256-711Q298.50-711 326.25-701.25Q354-691.50 370.75-681.50Q387.50-671.50 397-671.50L397-671.50Q405.50-671.50 413.25-681.50Q421-691.50 429.50-701.50Q438-711.50 447.50-711.50L447.50-711.50Q455.50-711.50 460.25-706.25Q465-701 469-686.50L469-686.50L516.50-510.50Q519-501 517-494.75Q515-488.50 506.50-485.50L506.50-485.50Q499-483 492.75-486.25Q486.50-489.50 482-498L482-498Q451-563 417-601.25Q383-639.50 345.50-656Q308-672.50 267-672.50L267-672.50Q216-672.50 183.75-641.50Q151.50-610.50 151.50-557.50L151.50-557.50Q151.50-525 164.75-497.75Q178-470.50 212.75-446Q247.50-421.50 312-397L312-397Q388.50-368 432.75-335.75Q477-303.50 495.50-265.25Q514-227 514-178.50L514-178.50Q514-125 487.50-81.75Q461-38.50 411.75-13.50Q362.50 11.50 294 11.50Z"/>
    <path transform="translate(113.67 0) scale(0.205)" fill="#F6EDDD" d="M418-270.50L418-270.50Q418-252.50 408.50-242.75Q399-233 380.50-233L380.50-233L95.50-233L95.50-260.50L286-260.50Q304-260.50 304-279L304-279Q304-345 280.50-379.25Q257-413.50 221.50-413.50L221.50-413.50Q192-413.50 170-395.25Q148-377 135.50-341.50Q123-306 123-254L123-254Q123-160 164.25-111.75Q205.50-63.50 272-63.50L272-63.50Q318-63.50 351-87.50Q384-111.50 394.50-149.50L394.50-149.50Q398-154.50 401.25-156.50Q404.50-158.50 407.50-158.50L407.50-158.50Q412-158.50 414.75-155.25Q417.50-152 417-145L417-145Q414-102.50 389.75-67.25Q365.50-32 324.25-11Q283 10 229.50 10L229.50 10Q166 10 118.75-17.75Q71.50-45.50 45.50-95.75Q19.50-146 19.50-212.50L19.50-212.50Q19.50-281 45.50-334Q71.50-387 120.25-417.25Q169-447.50 236.50-447.50L236.50-447.50Q291.50-447.50 332.25-424.50Q373-401.50 395.50-361.25Q418-321 418-270.50Z"/>
    <path transform="translate(204.59 0) scale(0.205)" fill="#F6EDDD" d="M418-270.50L418-270.50Q418-252.50 408.50-242.75Q399-233 380.50-233L380.50-233L95.50-233L95.50-260.50L286-260.50Q304-260.50 304-279L304-279Q304-345 280.50-379.25Q257-413.50 221.50-413.50L221.50-413.50Q192-413.50 170-395.25Q148-377 135.50-341.50Q123-306 123-254L123-254Q123-160 164.25-111.75Q205.50-63.50 272-63.50L272-63.50Q318-63.50 351-87.50Q384-111.50 394.50-149.50L394.50-149.50Q398-154.50 401.25-156.50Q404.50-158.50 407.50-158.50L407.50-158.50Q412-158.50 414.75-155.25Q417.50-152 417-145L417-145Q414-102.50 389.75-67.25Q365.50-32 324.25-11Q283 10 229.50 10L229.50 10Q166 10 118.75-17.75Q71.50-45.50 45.50-95.75Q19.50-146 19.50-212.50L19.50-212.50Q19.50-281 45.50-334Q71.50-387 120.25-417.25Q169-447.50 236.50-447.50L236.50-447.50Q291.50-447.50 332.25-424.50Q373-401.50 395.50-361.25Q418-321 418-270.50Z"/>
    <path transform="translate(295.51 0) scale(0.205)" fill="#F6EDDD" d="M181.50-427L181.50-427L181.50-61Q181.50-48.50 184.75-42.25Q188-36 196.50-33.50L196.50-33.50L218.50-28.50Q228-24 228-14.50L228-14.50Q228 0 212.50 0L212.50 0L36.50 0Q29 0 24.50-4Q20-8 20-14.50L20-14.50Q20-20 23-23.75Q26-27.50 31.50-30.50L31.50-30.50L54-35Q62-37.50 65.50-43Q69-48.50 69-60.50L69-60.50L69-355.50Q69-365 66.25-369.25Q63.50-373.50 57-375L57-375L28-376Q22.50-378 19.75-381.25Q17-384.50 17-389.50L17-389.50Q17-395 20.75-399Q24.50-403 33-406.50L33-406.50L136.50-438.50Q147.50-442.50 153.50-444Q159.50-445.50 165-445.50L165-445.50Q173-445.50 177.25-440.25Q181.50-435 181.50-427ZM186.50-338L170.50-322.50L155.50-339L174-357.50Q224.50-407 266-427.25Q307.50-447.50 345.50-447.50L345.50-447.50Q397-447.50 429-414.25Q461-381 461-315.50L461-315.50L461-61Q461-48 464.75-41.75Q468.50-35.50 477-33L477-33L495-28.50Q505-24 505-14.50L505-14.50Q505 0 489 0L489 0L317.50 0Q302 0 302-14.50L302-14.50Q302-24 312-28.50L312-28.50L333-33Q343-36 346.25-43.25Q349.50-50.50 349.50-64L349.50-64L349.50-295Q349.50-337 329.75-358.75Q310-380.50 278-380.50L278-380.50Q255.50-380.50 233-370.50Q210.50-360.50 186.50-338L186.50-338ZM464.50-341L448.50-324.50L434-341L452-360Q495.50-406.50 532-427Q568.50-447.50 605.50-447.50L605.50-447.50Q655-447.50 683-416Q711-384.50 719-323L719-323L753-61.50Q754.50-48.50 757.75-42.50Q761-36.50 769.50-34L769.50-34L787-30Q792.50-27.50 795.50-23.75Q798.50-20 798.50-14.50L798.50-14.50Q798.50-7.50 794-3.75Q789.50 0 782 0L782 0L606.50 0Q591 0 591-14.50L591-14.50Q591-23.50 601.50-28.50L601.50-28.50L622-33Q632-36 636.25-43Q640.50-50 638.50-63L638.50-63L609-295Q603-337 586.75-358.75Q570.50-380.50 540-380.50L540-380.50Q522-380.50 503.75-371Q485.50-361.50 464.50-341L464.50-341Z"/>
    <path transform="translate(460.33 0) scale(0.205)" fill="#F6EDDD" d="M285-54.50L285-54.50L285-63.50L277.50-62.50L277.50-345.50Q277.50-381.50 261.25-401Q245-420.50 215-420.50L215-420.50Q185-420.50 169.25-406.50Q153.50-392.50 153.50-373L153.50-373L153.50-342.50Q153.50-316.50 137.50-301Q121.50-285.50 94-285.50L94-285.50Q71-285.50 58.50-298.25Q46-311 46-334L46-334Q46-362.50 67-388.50Q88-414.50 129.75-431Q171.50-447.50 232.50-447.50L232.50-447.50Q311.50-447.50 351-413.50Q390.50-379.50 390.50-318L390.50-318L390.50-74Q390.50-59.50 396-51.75Q401.50-44 411.50-44L411.50-44Q419-44 424.75-48Q430.50-52 433-60L433-60Q434-62.50 435.75-63.75Q437.50-65 440-65L440-65Q444-65 446.25-61.50Q448.50-58 448.50-52.50L448.50-52.50Q448.50-39.50 439.25-25Q430-10.50 411.50-0.50Q393 9.50 364.50 9.50L364.50 9.50Q326.50 9.50 305.75-8.25Q285-26 285-54.50ZM24.50-98.50L24.50-98.50Q24.50-156 71.75-190.25Q119-224.50 209.50-224.50L209.50-224.50Q237.50-224.50 259.50-219.50Q281.50-214.50 298.50-206.50L298.50-206.50L291.50-184Q274.50-192 257.25-196.25Q240-200.50 218.50-200.50L218.50-200.50Q180.50-200.50 159-178.50Q137.50-156.50 137.50-117.50L137.50-117.50Q137.50-79.50 157-59.75Q176.50-40 207.50-40L207.50-40Q232-40 254.25-51.25Q276.50-62.50 291-82.50L291-82.50L299-62Q277-28 237.50-9.25Q198 9.50 151.50 9.50L151.50 9.50Q94 9.50 59.25-20.25Q24.50-50 24.50-98.50Z"/></g>
  <g transform="translate(-119.04 218)"><path transform="translate(0 0) scale(0.12)" fill="#F6EDDD" d="M250 12L56-291L56-382L86-382Q137-382 167-412.50Q197-443 197-502L197-502L197-619L-20-619L-20-698L726-698L726-619L597-619L597 0L496 0L496-283L169-283L169-281L219-214L328-41L250 12ZM230-368L230-366L321-369L496-369L496-619L301-619L301-510Q301-457 285-424.50Q269-392 230-368L230-368Z"/>
    <path transform="translate(84.72 0) scale(0.12)" fill="#F6EDDD" d="M109 0L109-619L-20-619L-20-698L111-698L111-744Q111-795 85-822Q59-849 12-849L12-849Q-33-849-66-823Q-99-797-130-752L-130-752L-205-808Q-169-864-115.50-900.50Q-62-937 12-937L12-937Q57-937 94-923.50Q131-910 156.50-885Q182-860 196-824.50Q210-789 210-746L210-746L210-698L339-698L339-619L210-619L210 0L109 0Z"/>
    <path transform="translate(123 0) scale(0.12)" fill="#F6EDDD" d="M162-203L162-203Q116-203 91.50-226Q67-249 67-294L67-294Q67-358 116-377L116-377L116-619L-20-619L-20-698L660-698L660-619L531-619L531 0L430 0L430-300L217-300L217-212Q196-203 162-203ZM430-619L217-619L217-384L430-384L430-619Z"/>
    <path transform="translate(199.8 0) scale(0.12)" fill="#F6EDDD" d="M109 0L109-619L-20-619L-20-698L339-698L339-619L210-619L210 0L109 0Z"/></g>
  <path transform="translate(-207.18 -328.06) rotate(-32.27) translate(-18.6 0) scale(0.062)" fill="#F6EDDD" d="M384 0L179-537L170-537L170 0L72 0L72-698L216-698L421-161L430-161L430-698L528-698L528 0L384 0Z"/>
    <path transform="translate(-168.98 -349.27) rotate(-25.82) translate(-18.6 0) scale(0.062)" fill="#F6EDDD" d="M300 12L300 12Q234 12 185.50-12.50Q137-37 105.50-83Q74-129 59-196Q44-263 44-349L44-349Q44-434 59-501.50Q74-569 105.50-615Q137-661 185.50-685.50Q234-710 300-710L300-710Q366-710 414.50-685.50Q463-661 494.50-615Q526-569 541-501.50Q556-434 556-349L556-349Q556-263 541-196Q526-129 494.50-83Q463-37 414.50-12.50Q366 12 300 12ZM300-81L300-81Q375-81 406-137.50Q437-194 437-291L437-291L437-408Q437-504 406-560.50Q375-617 300-617L300-617Q225-617 194-560.50Q163-504 163-408L163-408L163-290Q163-194 194-137.50Q225-81 300-81Z"/>
    <path transform="translate(-86.68 -378.19) rotate(-12.91) translate(-18.6 0) scale(0.062)" fill="#F6EDDD" d="M196 0L84 0L84-698L345-698Q445-698 497.50-642Q550-586 550-488L550-488Q550-390 497.50-334Q445-278 345-278L345-278L196-278L196 0ZM196-605L196-371L328-371Q432-371 432-467L432-467L432-510Q432-605 328-605L328-605L196-605Z"/>
    <path transform="translate(-43.62 -385.54) rotate(-6.45) translate(-18.6 0) scale(0.062)" fill="#F6EDDD" d="M581 0L462 0L409-186L187-186L134 0L20 0L224-698L377-698L581 0ZM388-279L302-585L294-585L208-279L388-279Z"/>
    <path transform="translate(0 -388) rotate(0) translate(-18.6 0) scale(0.062)" fill="#F6EDDD" d="M538 0L108 0L108-698L220-698L220-94L538-94L538 0Z"/>
    <path transform="translate(43.62 -385.54) rotate(6.45) translate(-18.6 0) scale(0.062)" fill="#F6EDDD" d="M445 0L445-334L448-544L440-544L300-185L160-544L152-544L155-334L155 0L56 0L56-698L193-698L300-421L307-421L415-698L544-698L544 0L445 0Z"/>
    <path transform="translate(128.65 -366.05) rotate(19.36) translate(-18.6 0) scale(0.062)" fill="#F6EDDD" d="M300 12L300 12Q234 12 185.50-12.50Q137-37 105.50-83Q74-129 59-196Q44-263 44-349L44-349Q44-434 59-501.50Q74-569 105.50-615Q137-661 185.50-685.50Q234-710 300-710L300-710Q366-710 414.50-685.50Q463-661 494.50-615Q526-569 541-501.50Q556-434 556-349L556-349Q556-263 541-196Q526-129 494.50-83Q463-37 414.50-12.50Q366 12 300 12ZM300-81L300-81Q375-81 406-137.50Q437-194 437-291L437-291L437-408Q437-504 406-560.50Q375-617 300-617L300-617Q225-617 194-560.50Q163-504 163-408L163-408L163-290Q163-194 194-137.50Q225-81 300-81Z"/>
    <path transform="translate(168.98 -349.27) rotate(25.82) translate(-18.6 0) scale(0.062)" fill="#F6EDDD" d="M520 0L80 0L80-85L244-85L244-613L80-613L80-698L520-698L520-613L356-613L356-85L520-85L520 0Z"/>
    <path transform="translate(207.18 -328.06) rotate(32.27) translate(-18.6 0) scale(0.062)" fill="#F6EDDD" d="M538 0L108 0L108-698L220-698L220-94L538-94L538 0Z"/>
  <path transform="translate(-297.34 314.27) rotate(43.41) translate(-18.6 0) scale(0.062)" fill="#F6EDDD" d="M384 0L179-537L170-537L170 0L72 0L72-698L216-698L421-161L430-161L430-698L528-698L528 0L384 0Z"/>
    <path transform="translate(-264.13 342.66) rotate(37.63) translate(-18.6 0) scale(0.062)" fill="#F6EDDD" d="M300 12L300 12Q234 12 185.50-12.50Q137-37 105.50-83Q74-129 59-196Q44-263 44-349L44-349Q44-434 59-501.50Q74-569 105.50-615Q137-661 185.50-685.50Q234-710 300-710L300-710Q366-710 414.50-685.50Q463-661 494.50-615Q526-569 541-501.50Q556-434 556-349L556-349Q556-263 541-196Q526-129 494.50-83Q463-37 414.50-12.50Q366 12 300 12ZM300-81L300-81Q375-81 406-137.50Q437-194 437-291L437-291L437-408Q437-504 406-560.50Q375-617 300-617L300-617Q225-617 194-560.50Q163-504 163-408L163-408L163-290Q163-194 194-137.50Q225-81 300-81Z"/>
    <path transform="translate(-189.99 388.69) rotate(26.05) translate(-18.6 0) scale(0.062)" fill="#F6EDDD" d="M196 0L84 0L84-698L345-698Q445-698 497.50-642Q550-586 550-488L550-488Q550-390 497.50-334Q445-278 345-278L345-278L196-278L196 0ZM196-605L196-371L328-371Q432-371 432-467L432-467L432-510Q432-605 328-605L328-605L196-605Z"/>
    <path transform="translate(-149.82 405.87) rotate(20.26) translate(-18.6 0) scale(0.062)" fill="#F6EDDD" d="M195-282L195 0L84 0L84-698L345-698Q445-698 497.50-642Q550-586 550-488L550-488Q550-408 511-356Q472-304 399-292L399-292L560 0L436 0L288-282L195-282ZM195-372L329-372Q433-372 433-467L433-467L433-510Q433-605 329-605L329-605L195-605L195-372Z"/>
    <path transform="translate(-108.12 418.91) rotate(14.47) translate(-18.6 0) scale(0.062)" fill="#F6EDDD" d="M523 0L86 0L86-698L523-698L523-604L198-604L198-401L511-401L511-307L198-307L198-94L523-94L523 0Z"/>
    <path transform="translate(-65.31 427.68) rotate(8.68) translate(-18.6 0) scale(0.062)" fill="#F6EDDD" d="M294 12L294 12Q203 12 141-20Q79-52 39-105L39-105L111-174Q151-126 196-103.50Q241-81 298-81L298-81Q364-81 399.50-111Q435-141 435-197L435-197Q435-242 409-266.50Q383-291 320-302L320-302L244-314Q194-322 160-340.50Q126-359 105-384.50Q84-410 74.50-441.50Q65-473 65-508L65-508Q65-607 129-658.50Q193-710 305-710L305-710Q388-710 446.50-683.50Q505-657 541-609L541-609L471-539Q442-574 402.50-595.50Q363-617 305-617L305-617Q243-617 210.50-590.50Q178-564 178-513L178-513Q178-470 203.50-445.50Q229-421 294-410L294-410L368-397Q462-380 505-328.50Q548-277 548-203L548-203Q548-155 531.50-115Q515-75 482.50-47Q450-19 402.50-3.50Q355 12 294 12Z"/>
    <path transform="translate(-21.85 432.09) rotate(2.89) translate(-18.6 0) scale(0.062)" fill="#F6EDDD" d="M523 0L86 0L86-698L523-698L523-604L198-604L198-401L511-401L511-307L198-307L198-94L523-94L523 0Z"/>
    <path transform="translate(21.85 432.09) rotate(-2.89) translate(-18.6 0) scale(0.062)" fill="#F6EDDD" d="M195-282L195 0L84 0L84-698L345-698Q445-698 497.50-642Q550-586 550-488L550-488Q550-408 511-356Q472-304 399-292L399-292L560 0L436 0L288-282L195-282ZM195-372L329-372Q433-372 433-467L433-467L433-510Q433-605 329-605L329-605L195-605L195-372Z"/>
    <path transform="translate(65.31 427.68) rotate(-8.68) translate(-18.6 0) scale(0.062)" fill="#F6EDDD" d="M378 0L222 0L25-698L146-698L238-346L299-109L305-109L366-346L459-698L575-698L378 0Z"/>
    <path transform="translate(108.12 418.91) rotate(-14.47) translate(-18.6 0) scale(0.062)" fill="#F6EDDD" d="M581 0L462 0L409-186L187-186L134 0L20 0L224-698L377-698L581 0ZM388-279L302-585L294-585L208-279L388-279Z"/>
    <path transform="translate(149.82 405.87) rotate(-20.26) translate(-18.6 0) scale(0.062)" fill="#F6EDDD" d="M575-604L356-604L356 0L244 0L244-604L25-604L25-698L575-698L575-604Z"/>
    <path transform="translate(189.99 388.69) rotate(-26.05) translate(-18.6 0) scale(0.062)" fill="#F6EDDD" d="M520 0L80 0L80-85L244-85L244-613L80-613L80-698L520-698L520-613L356-613L356-85L520-85L520 0Z"/>
    <path transform="translate(228.22 367.55) rotate(-31.84) translate(-18.6 0) scale(0.062)" fill="#F6EDDD" d="M378 0L222 0L25-698L146-698L238-346L299-109L305-109L366-346L459-698L575-698L378 0Z"/>
    <path transform="translate(264.13 342.66) rotate(-37.63) translate(-18.6 0) scale(0.062)" fill="#F6EDDD" d="M523 0L86 0L86-698L523-698L523-604L198-604L198-401L511-401L511-307L198-307L198-94L523-94L523 0Z"/>
    <path transform="translate(297.34 314.27) rotate(-43.41) translate(-18.6 0) scale(0.062)" fill="#F6EDDD" d="M294 12L294 12Q203 12 141-20Q79-52 39-105L39-105L111-174Q151-126 196-103.50Q241-81 298-81L298-81Q364-81 399.50-111Q435-141 435-197L435-197Q435-242 409-266.50Q383-291 320-302L320-302L244-314Q194-322 160-340.50Q126-359 105-384.50Q84-410 74.50-441.50Q65-473 65-508L65-508Q65-607 129-658.50Q193-710 305-710L305-710Q388-710 446.50-683.50Q505-657 541-609L541-609L471-539Q442-574 402.50-595.50Q363-617 305-617L305-617Q243-617 210.50-590.50Q178-564 178-513L178-513Q178-470 203.50-445.50Q229-421 294-410L294-410L368-397Q462-380 505-328.50Q548-277 548-203L548-203Q548-155 531.50-115Q515-75 482.50-47Q450-19 402.50-3.50Q355 12 294 12Z"/>
  <path fill="#F6EDDD" d="M-410 -26L-384 0L-410 26L-436 0Z"/><path fill="#F6EDDD" d="M410 -26L436 0L410 26L384 0Z"/>
</svg>