<!-- Seema logo A — "coil in the S": Fraunces display wordmark (outlined), the S's top arm
     replaced by a piped chakli coil (computed Archimedean spiral, 2.5 turns, spliced into the stroke).
     Single color via currentColor. Generated — do not hand-edit. -->
<svg xmlns="http://www.w3.org/2000/svg" viewBox="-90 -770 2910 920" color="#2E1F16" role="img" aria-label="Seema">
  <defs><clipPath id="seema-s-cut"><path d="M-60 -850L378 -850L378 -545L470 -420L620 -420L620 120L-60 120Z"/></clipPath></defs>
  <g>
    <g clip-path="url(#seema-s-cut)"><path fill="currentColor" d="M294 11.50L294 11.50Q250.50 11.50 221.75 0.50Q193-10.50 176.25-21.50Q159.50-32.50 152-32.50L152-32.50Q146.50-32.50 140.75-25.75Q135-19 129.25-10.25Q123.50-1.50 117.50 5.25Q111.50 12 105 12L105 12Q96.50 12 91.25 6.50Q86 1 83.50-9.50L83.50-9.50L49-183.50Q47.50-191.50 50.25-197.75Q53-204 60.50-206L60.50-206Q68-208 73.50-205Q79-202 84-192.50L84-192.50Q113-130.50 144.50-94Q176-57.50 211.25-41.75Q246.50-26 286-26L286-26Q337-26 368.75-54Q400.50-82 401-132.50L401-132.50Q401-164.50 387.50-191Q374-217.50 338.50-241.50Q303-265.50 237-289L237-289Q163-315.50 119-348Q75-380.50 55.50-421.25Q36-462 36-512L36-512Q36-570.50 64-615.25Q92-660 141.75-685.50Q191.50-711 256-711L256-711Q298.50-711 326.25-701.25Q354-691.50 370.75-681.50Q387.50-671.50 397-671.50L397-671.50Q405.50-671.50 413.25-681.50Q421-691.50 429.50-701.50Q438-711.50 447.50-711.50L447.50-711.50Q455.50-711.50 460.25-706.25Q465-701 469-686.50L469-686.50L516.50-510.50Q519-501 517-494.75Q515-488.50 506.50-485.50L506.50-485.50Q499-483 492.75-486.25Q486.50-489.50 482-498L482-498Q451-563 417-601.25Q383-639.50 345.50-656Q308-672.50 267-672.50L267-672.50Q216-672.50 183.75-641.50Q151.50-610.50 151.50-557.50L151.50-557.50Q151.50-525 164.75-497.75Q178-470.50 212.75-446Q247.50-421.50 312-397L312-397Q388.50-368 432.75-335.75Q477-303.50 495.50-265.25Q514-227 514-178.50L514-178.50Q514-125 487.50-81.75Q461-38.50 411.75-13.50Q362.50 11.50 294 11.50Z"/></g>
    <path fill="none" stroke="currentColor" stroke-width="30" stroke-linecap="round" d="M490.12 -589.5L490.28 -588.97L490.38 -588.41L490.42 -587.82L490.39 -587.21L490.29 -586.59L490.12 -585.96L489.87 -585.33L489.55 -584.71L489.16 -584.1L488.7 -583.51L488.16 -582.95L487.55 -582.43L486.88 -581.95L486.14 -581.51L485.34 -581.14L484.48 -580.83L483.58 -580.58L482.62 -580.42L481.63 -580.33L480.61 -580.32L479.55 -580.4L478.49 -580.58L477.41 -580.85L476.32 -581.21L475.25 -581.67L474.18 -582.24L473.15 -582.9L472.14 -583.66L471.17 -584.52L470.25 -585.47L469.4 -586.52L468.6 -587.65L467.88 -588.87L467.25 -590.17L466.7 -591.54L466.26 -592.98L465.91 -594.48L465.68 -596.03L465.56 -597.62L465.56 -599.26L465.69 -600.91L465.95 -602.59L466.34 -604.27L466.86 -605.94L467.52 -607.61L468.31 -609.24L469.24 -610.84L470.31 -612.4L471.5 -613.89L472.82 -615.32L474.27 -616.66L475.84 -617.92L477.52 -619.07L479.31 -620.12L481.2 -621.04L483.18 -621.84L485.24 -622.5L487.38 -623.01L489.58 -623.38L491.83 -623.58L494.13 -623.62L496.45 -623.49L498.79 -623.19L501.13 -622.72L503.46 -622.06L505.77 -621.24L508.04 -620.23L510.26 -619.04L512.42 -617.69L514.5 -616.16L516.49 -614.46L518.37 -612.61L520.14 -610.6L521.78 -608.44L523.27 -606.14L524.62 -603.72L525.8 -601.17L526.8 -598.52L527.62 -595.77L528.25 -592.94L528.68 -590.03L528.91 -587.08L528.92 -584.08L528.71 -581.06L528.29 -578.02L527.64 -575L526.78 -572L525.68 -569.03L524.37 -566.12L522.84 -563.29L521.09 -560.54L519.13 -557.9L516.97 -555.38L514.61 -553L512.07 -550.77L509.34 -548.71L506.45 -546.83L503.41 -545.14L500.22 -543.66L496.91 -542.4L493.49 -541.37L489.97 -540.58L486.37 -540.03L482.7 -539.74L479 -539.7L475.27 -539.93L471.53 -540.43L467.8 -541.2L464.11 -542.24L460.47 -543.55L456.91 -545.13L453.43 -546.97L450.07 -549.06L446.84 -551.41L443.75 -554.01L440.84 -556.83L438.11 -559.88L435.58 -563.15L433.27 -566.6L431.2 -570.24L429.37 -574.05L427.81 -578.01L426.51 -582.1L425.51 -586.3L424.79 -590.59L424.38 -594.95L424.28 -599.37L424.49 -603.81L425.01 -608.26L425.86 -612.7L427.02 -617.09L428.5 -621.42L430.29 -625.67L432.4 -629.81L434.8 -633.82L437.51 -637.67L440.49 -641.35L443.75 -644.84L447.28 -648.1L451.04 -651.14L455.04 -653.91L459.26 -656.42L463.66 -658.64L468.25 -660.55L472.98 -662.15L477.85 -663.42L482.83 -664.35L487.89 -664.93L493.01 -665.15L498.17 -665.02L503.34 -664.51L508.49 -663.64L513.6 -662.41L518.64 -660.8L523.59 -658.83L528.42 -656.51L533.09 -653.84L537.6 -650.83L541.91 -647.48L545.99 -643.83L549.83 -639.87L553.41 -635.62L556.7 -631.11L559.68 -626.35L562.33 -621.37L564.64 -616.18L566.59 -610.81L568.17 -605.29L569.36 -599.64L570.16 -593.89L570.56 -588.06L570.54 -582.19L570.11 -576.3L569.26 -570.42L568 -564.58L566.32 -558.82L564.23 -553.16L561.73 -547.63L558.83 -542.26L555.55 -537.08L551.9 -532.11L547.88 -527.39L543.52 -522.94L538.84 -518.79L533.84 -514.95L528.57 -511.46L523.03 -508.33L517.26 -505.58L511.28 -503.23L505.12 -501.3L498.81 -499.79L492.38 -498.73L485.85 -498.11L479.27 -497.96L472.66 -498.26L466.05 -499.04L459.48 -500.28L452.99 -501.99L446.6 -504.16L440.34 -506.78L434.26 -509.85L428.38 -513.36L422.73 -517.28L417.35 -521.62L412.26 -526.34L407.49 -531.43L403.07 -536.87L399.02 -542.63L395.37 -548.69L392.14 -555.02L389.35 -561.58L387.01 -568.36L385.15 -575.32L383.77 -582.42L382.88 -589.64L382.51 -596.93L382.64 -604.26L383.3 -611.6L384.46 -618.9L386.15 -626.14L388.35 -633.27L391.05 -640.26L394.25 -647.07L397.93 -653.67L402.09 -660.03"/>
    <path transform="translate(584.5 0)" fill="currentColor" d="M418-270.50L418-270.50Q418-252.50 408.50-242.75Q399-233 380.50-233L380.50-233L95.50-233L95.50-260.50L286-260.50Q304-260.50 304-279L304-279Q304-345 280.50-379.25Q257-413.50 221.50-413.50L221.50-413.50Q192-413.50 170-395.25Q148-377 135.50-341.50Q123-306 123-254L123-254Q123-160 164.25-111.75Q205.50-63.50 272-63.50L272-63.50Q318-63.50 351-87.50Q384-111.50 394.50-149.50L394.50-149.50Q398-154.50 401.25-156.50Q404.50-158.50 407.50-158.50L407.50-158.50Q412-158.50 414.75-155.25Q417.50-152 417-145L417-145Q414-102.50 389.75-67.25Q365.50-32 324.25-11Q283 10 229.50 10L229.50 10Q166 10 118.75-17.75Q71.50-45.50 45.50-95.75Q19.50-146 19.50-212.50L19.50-212.50Q19.50-281 45.50-334Q71.50-387 120.25-417.25Q169-447.50 236.50-447.50L236.50-447.50Q291.50-447.50 332.25-424.50Q373-401.50 395.50-361.25Q418-321 418-270.50Z"/>
    <path transform="translate(1028 0)" fill="currentColor" d="M418-270.50L418-270.50Q418-252.50 408.50-242.75Q399-233 380.50-233L380.50-233L95.50-233L95.50-260.50L286-260.50Q304-260.50 304-279L304-279Q304-345 280.50-379.25Q257-413.50 221.50-413.50L221.50-413.50Q192-413.50 170-395.25Q148-377 135.50-341.50Q123-306 123-254L123-254Q123-160 164.25-111.75Q205.50-63.50 272-63.50L272-63.50Q318-63.50 351-87.50Q384-111.50 394.50-149.50L394.50-149.50Q398-154.50 401.25-156.50Q404.50-158.50 407.50-158.50L407.50-158.50Q412-158.50 414.75-155.25Q417.50-152 417-145L417-145Q414-102.50 389.75-67.25Q365.50-32 324.25-11Q283 10 229.50 10L229.50 10Q166 10 118.75-17.75Q71.50-45.50 45.50-95.75Q19.50-146 19.50-212.50L19.50-212.50Q19.50-281 45.50-334Q71.50-387 120.25-417.25Q169-447.50 236.50-447.50L236.50-447.50Q291.50-447.50 332.25-424.50Q373-401.50 395.50-361.25Q418-321 418-270.50Z"/>
    <path transform="translate(1471.5 0)" fill="currentColor" d="M181.50-427L181.50-427L181.50-61Q181.50-48.50 184.75-42.25Q188-36 196.50-33.50L196.50-33.50L218.50-28.50Q228-24 228-14.50L228-14.50Q228 0 212.50 0L212.50 0L36.50 0Q29 0 24.50-4Q20-8 20-14.50L20-14.50Q20-20 23-23.75Q26-27.50 31.50-30.50L31.50-30.50L54-35Q62-37.50 65.50-43Q69-48.50 69-60.50L69-60.50L69-355.50Q69-365 66.25-369.25Q63.50-373.50 57-375L57-375L28-376Q22.50-378 19.75-381.25Q17-384.50 17-389.50L17-389.50Q17-395 20.75-399Q24.50-403 33-406.50L33-406.50L136.50-438.50Q147.50-442.50 153.50-444Q159.50-445.50 165-445.50L165-445.50Q173-445.50 177.25-440.25Q181.50-435 181.50-427ZM186.50-338L170.50-322.50L155.50-339L174-357.50Q224.50-407 266-427.25Q307.50-447.50 345.50-447.50L345.50-447.50Q397-447.50 429-414.25Q461-381 461-315.50L461-315.50L461-61Q461-48 464.75-41.75Q468.50-35.50 477-33L477-33L495-28.50Q505-24 505-14.50L505-14.50Q505 0 489 0L489 0L317.50 0Q302 0 302-14.50L302-14.50Q302-24 312-28.50L312-28.50L333-33Q343-36 346.25-43.25Q349.50-50.50 349.50-64L349.50-64L349.50-295Q349.50-337 329.75-358.75Q310-380.50 278-380.50L278-380.50Q255.50-380.50 233-370.50Q210.50-360.50 186.50-338L186.50-338ZM464.50-341L448.50-324.50L434-341L452-360Q495.50-406.50 532-427Q568.50-447.50 605.50-447.50L605.50-447.50Q655-447.50 683-416Q711-384.50 719-323L719-323L753-61.50Q754.50-48.50 757.75-42.50Q761-36.50 769.50-34L769.50-34L787-30Q792.50-27.50 795.50-23.75Q798.50-20 798.50-14.50L798.50-14.50Q798.50-7.50 794-3.75Q789.50 0 782 0L782 0L606.50 0Q591 0 591-14.50L591-14.50Q591-23.50 601.50-28.50L601.50-28.50L622-33Q632-36 636.25-43Q640.50-50 638.50-63L638.50-63L609-295Q603-337 586.75-358.75Q570.50-380.50 540-380.50L540-380.50Q522-380.50 503.75-371Q485.50-361.50 464.50-341L464.50-341Z"/>
    <path transform="translate(2275.5 0)" fill="currentColor" d="M285-54.50L285-54.50L285-63.50L277.50-62.50L277.50-345.50Q277.50-381.50 261.25-401Q245-420.50 215-420.50L215-420.50Q185-420.50 169.25-406.50Q153.50-392.50 153.50-373L153.50-373L153.50-342.50Q153.50-316.50 137.50-301Q121.50-285.50 94-285.50L94-285.50Q71-285.50 58.50-298.25Q46-311 46-334L46-334Q46-362.50 67-388.50Q88-414.50 129.75-431Q171.50-447.50 232.50-447.50L232.50-447.50Q311.50-447.50 351-413.50Q390.50-379.50 390.50-318L390.50-318L390.50-74Q390.50-59.50 396-51.75Q401.50-44 411.50-44L411.50-44Q419-44 424.75-48Q430.50-52 433-60L433-60Q434-62.50 435.75-63.75Q437.50-65 440-65L440-65Q444-65 446.25-61.50Q448.50-58 448.50-52.50L448.50-52.50Q448.50-39.50 439.25-25Q430-10.50 411.50-0.50Q393 9.50 364.50 9.50L364.50 9.50Q326.50 9.50 305.75-8.25Q285-26 285-54.50ZM24.50-98.50L24.50-98.50Q24.50-156 71.75-190.25Q119-224.50 209.50-224.50L209.50-224.50Q237.50-224.50 259.50-219.50Q281.50-214.50 298.50-206.50L298.50-206.50L291.50-184Q274.50-192 257.25-196.25Q240-200.50 218.50-200.50L218.50-200.50Q180.50-200.50 159-178.50Q137.50-156.50 137.50-117.50L137.50-117.50Q137.50-79.50 157-59.75Q176.50-40 207.50-40L207.50-40Q232-40 254.25-51.25Q276.50-62.50 291-82.50L291-82.50L299-62Q277-28 237.50-9.25Q198 9.50 151.50 9.50L151.50 9.50Q94 9.50 59.25-20.25Q24.50-50 24.50-98.50Z"/>
  </g>
</svg>