<!-- Seema logo B — "unwind": a monoline chakli coil (computed Archimedean spiral, 3.25 turns)
     unrolls into the baseline rule beneath the Fraunces wordmark. One continuous line — the same
     gesture as the UNWIND site. Single color via currentColor. Generated — do not hand-edit. -->
<svg xmlns="http://www.w3.org/2000/svg" viewBox="-93 -535.36 2324.24 702.36" color="#2E1F16" role="img" aria-label="Seema">
  <path fill="none" stroke="currentColor" stroke-width="26" stroke-linecap="round" d="M145 -76L144.52 -75.62L144.07 -75.17L143.65 -74.65L143.29 -74.08L142.97 -73.44L142.72 -72.76L142.52 -72.02L142.4 -71.25L142.35 -70.44L142.37 -69.6L142.48 -68.74L142.67 -67.86L142.95 -66.98L143.32 -66.1L143.78 -65.23L144.33 -64.38L144.97 -63.55L145.7 -62.76L146.51 -62.01L147.41 -61.31L148.39 -60.67L149.44 -60.1L150.57 -59.61L151.77 -59.2L153.02 -58.87L154.33 -58.64L155.68 -58.52L157.07 -58.49L158.49 -58.58L159.94 -58.79L161.39 -59.11L162.84 -59.56L164.29 -60.13L165.72 -60.82L167.12 -61.63L168.48 -62.57L169.8 -63.63L171.05 -64.81L172.23 -66.1L173.33 -67.51L174.34 -69.02L175.26 -70.63L176.06 -72.34L176.75 -74.13L177.31 -76L177.74 -77.94L178.02 -79.94L178.17 -81.99L178.16 -84.07L177.99 -86.19L177.66 -88.32L177.18 -90.45L176.52 -92.57L175.7 -94.67L174.72 -96.74L173.57 -98.76L172.25 -100.71L170.78 -102.6L169.15 -104.39L167.37 -106.09L165.45 -107.67L163.39 -109.13L161.2 -110.46L158.88 -111.64L156.46 -112.66L153.94 -113.51L151.33 -114.19L148.65 -114.69L145.9 -114.99L143.11 -115.1L140.28 -115L137.43 -114.7L134.57 -114.19L131.73 -113.47L128.91 -112.53L126.14 -111.38L123.42 -110.02L120.78 -108.45L118.23 -106.68L115.79 -104.71L113.47 -102.54L111.29 -100.19L109.26 -97.66L107.39 -94.97L105.71 -92.12L104.21 -89.13L102.92 -86.01L101.85 -82.77L101 -79.43L100.38 -76L100.01 -72.5L99.89 -68.96L100.01 -65.38L100.4 -61.78L101.05 -58.18L101.96 -54.61L103.13 -51.08L104.56 -47.61L106.25 -44.21L108.19 -40.92L110.39 -37.75L112.82 -34.71L115.49 -31.82L118.37 -29.11L121.47 -26.59L124.77 -24.28L128.26 -22.18L131.91 -20.33L135.72 -18.72L139.66 -17.37L143.73 -16.3L147.89 -15.52L152.13 -15.02L156.43 -14.82L160.77 -14.93L165.12 -15.35L169.47 -16.08L173.79 -17.13L178.05 -18.48L182.24 -20.15L186.34 -22.13L190.31 -24.4L194.15 -26.97L197.81 -29.83L201.3 -32.96L204.58 -36.35L207.63 -39.99L210.44 -43.86L212.99 -47.96L215.26 -52.25L217.23 -56.72L218.9 -61.36L220.24 -66.13L221.25 -71.02L221.92 -76L222.24 -81.05L222.2 -86.15L221.81 -91.26L221.04 -96.37L219.91 -101.45L218.42 -106.46L216.57 -111.39L214.36 -116.21L211.8 -120.9L208.89 -125.42L205.66 -129.75L202.11 -133.87L198.25 -137.75L194.1 -141.38L189.68 -144.73L185.01 -147.77L180.1 -150.5L174.98 -152.89L169.68 -154.93L164.21 -156.59L158.61 -157.88L152.89 -158.78L147.09 -159.27L141.24 -159.36L135.36 -159.04L129.48 -158.29L123.64 -157.13L117.86 -155.56L112.17 -153.57L106.6 -151.17L101.19 -148.37L95.95 -145.18L90.93 -141.61L86.14 -137.67L81.61 -133.38L77.38 -128.77L73.45 -123.83L69.86 -118.61L66.63 -113.12L63.78 -107.38L61.33 -101.43L59.28 -95.28L57.67 -88.98L56.49 -82.54L55.77 -76L55.5 -69.39L55.7 -62.75L56.37 -56.1L57.51 -49.48L59.12 -42.92L61.2 -36.46L63.74 -30.13L66.72 -23.96L70.16 -17.99L74.02 -12.24L78.29 -6.75L82.97 -1.55L88.02 3.33L93.43 7.87L99.17 12.05L105.21 15.82L111.54 19.18L118.12 22.11L124.92 24.57L131.92 26.56L139.06 28.07L146.33 29.07L153.69 29.57L161.09 29.55L168.52 29L175.91 27.94L183.25 26.35L190.5 24.24L197.61 21.62L204.55 18.49L211.29 14.86L217.78 10.76L224 6.18L229.91 1.17L235.48 -4.28L240.67 -10.12L245.47 -16.35L249.83 -22.92L253.75 -29.81L257.18 -36.99L260.12 -44.42L262.54 -52.08L264.42 -59.92L265.76 -67.91L266.54 -76L266.75 -84.16L266.39 -92.36L265.45 -100.54L263.93 -108.67L261.84 -116.71L259.18 -124.61L255.96 -132.34L252.19 -139.86L247.89 -147.12L243.07 -154.1L237.75 -160.74L231.96 -167.03L225.72 -172.91L219.05 -178.37L211.99 -183.36L204.56 -187.87L196.81 -191.87L188.77 -195.32L180.47 -198.22L171.96 -200.53L163.27 -202.25L154.45 -203.37L145.53 -203.86L136.57 -203.73L127.61 -202.97L118.69 -201.58L109.85 -199.56L101.14 -196.92L92.61 -193.67L84.29 -189.8L76.24 -185.36L68.49 -180.33L61.07 -174.76L54.04 -168.66L47.44 -162.06L41.28 -154.99L35.61 -147.48L30.47 -139.56L25.87 -131.26L21.86 -122.64L18.44 -113.72L15.64 -104.56L13.49 -95.19L11.99 -85.65L11.15 -76L11 -66.28L11.52 -56.54L12.73 -46.82L14.63 -37.18L17.2 -27.66L20.44 -18.32L24.34 -9.19L28.89 -0.32L34.06 8.23L39.84 16.44L46.2 24.24L53.11 31.6L60.55 38.49L68.48 44.86L76.86 50.68L85.66 55.92L94.83 60.55L104.34 64.54L114.13 67.86L124.17 70.5L134.4 72.44L144.77 73.66L2151.24 74"/>
  <g transform="translate(405 0)"><path transform="translate(0 0) scale(0.64)" fill="currentColor" d="M294 11.50L294 11.50Q250.50 11.50 221.75 0.50Q193-10.50 176.25-21.50Q159.50-32.50 152-32.50L152-32.50Q146.50-32.50 140.75-25.75Q135-19 129.25-10.25Q123.50-1.50 117.50 5.25Q111.50 12 105 12L105 12Q96.50 12 91.25 6.50Q86 1 83.50-9.50L83.50-9.50L49-183.50Q47.50-191.50 50.25-197.75Q53-204 60.50-206L60.50-206Q68-208 73.50-205Q79-202 84-192.50L84-192.50Q113-130.50 144.50-94Q176-57.50 211.25-41.75Q246.50-26 286-26L286-26Q337-26 368.75-54Q400.50-82 401-132.50L401-132.50Q401-164.50 387.50-191Q374-217.50 338.50-241.50Q303-265.50 237-289L237-289Q163-315.50 119-348Q75-380.50 55.50-421.25Q36-462 36-512L36-512Q36-570.50 64-615.25Q92-660 141.75-685.50Q191.50-711 256-711L256-711Q298.50-711 326.25-701.25Q354-691.50 370.75-681.50Q387.50-671.50 397-671.50L397-671.50Q405.50-671.50 413.25-681.50Q421-691.50 429.50-701.50Q438-711.50 447.50-711.50L447.50-711.50Q455.50-711.50 460.25-706.25Q465-701 469-686.50L469-686.50L516.50-510.50Q519-501 517-494.75Q515-488.50 506.50-485.50L506.50-485.50Q499-483 492.75-486.25Q486.50-489.50 482-498L482-498Q451-563 417-601.25Q383-639.50 345.50-656Q308-672.50 267-672.50L267-672.50Q216-672.50 183.75-641.50Q151.50-610.50 151.50-557.50L151.50-557.50Q151.50-525 164.75-497.75Q178-470.50 212.75-446Q247.50-421.50 312-397L312-397Q388.50-368 432.75-335.75Q477-303.50 495.50-265.25Q514-227 514-178.50L514-178.50Q514-125 487.50-81.75Q461-38.50 411.75-13.50Q362.50 11.50 294 11.50Z"/>
    <path transform="translate(357.44 0) scale(0.64)" fill="currentColor" d="M418-270.50L418-270.50Q418-252.50 408.50-242.75Q399-233 380.50-233L380.50-233L95.50-233L95.50-260.50L286-260.50Q304-260.50 304-279L304-279Q304-345 280.50-379.25Q257-413.50 221.50-413.50L221.50-413.50Q192-413.50 170-395.25Q148-377 135.50-341.50Q123-306 123-254L123-254Q123-160 164.25-111.75Q205.50-63.50 272-63.50L272-63.50Q318-63.50 351-87.50Q384-111.50 394.50-149.50L394.50-149.50Q398-154.50 401.25-156.50Q404.50-158.50 407.50-158.50L407.50-158.50Q412-158.50 414.75-155.25Q417.50-152 417-145L417-145Q414-102.50 389.75-67.25Q365.50-32 324.25-11Q283 10 229.50 10L229.50 10Q166 10 118.75-17.75Q71.50-45.50 45.50-95.75Q19.50-146 19.50-212.50L19.50-212.50Q19.50-281 45.50-334Q71.50-387 120.25-417.25Q169-447.50 236.50-447.50L236.50-447.50Q291.50-447.50 332.25-424.50Q373-401.50 395.50-361.25Q418-321 418-270.50Z"/>
    <path transform="translate(643.84 0) scale(0.64)" fill="currentColor" d="M418-270.50L418-270.50Q418-252.50 408.50-242.75Q399-233 380.50-233L380.50-233L95.50-233L95.50-260.50L286-260.50Q304-260.50 304-279L304-279Q304-345 280.50-379.25Q257-413.50 221.50-413.50L221.50-413.50Q192-413.50 170-395.25Q148-377 135.50-341.50Q123-306 123-254L123-254Q123-160 164.25-111.75Q205.50-63.50 272-63.50L272-63.50Q318-63.50 351-87.50Q384-111.50 394.50-149.50L394.50-149.50Q398-154.50 401.25-156.50Q404.50-158.50 407.50-158.50L407.50-158.50Q412-158.50 414.75-155.25Q417.50-152 417-145L417-145Q414-102.50 389.75-67.25Q365.50-32 324.25-11Q283 10 229.50 10L229.50 10Q166 10 118.75-17.75Q71.50-45.50 45.50-95.75Q19.50-146 19.50-212.50L19.50-212.50Q19.50-281 45.50-334Q71.50-387 120.25-417.25Q169-447.50 236.50-447.50L236.50-447.50Q291.50-447.50 332.25-424.50Q373-401.50 395.50-361.25Q418-321 418-270.50Z"/>
    <path transform="translate(930.24 0) scale(0.64)" fill="currentColor" d="M181.50-427L181.50-427L181.50-61Q181.50-48.50 184.75-42.25Q188-36 196.50-33.50L196.50-33.50L218.50-28.50Q228-24 228-14.50L228-14.50Q228 0 212.50 0L212.50 0L36.50 0Q29 0 24.50-4Q20-8 20-14.50L20-14.50Q20-20 23-23.75Q26-27.50 31.50-30.50L31.50-30.50L54-35Q62-37.50 65.50-43Q69-48.50 69-60.50L69-60.50L69-355.50Q69-365 66.25-369.25Q63.50-373.50 57-375L57-375L28-376Q22.50-378 19.75-381.25Q17-384.50 17-389.50L17-389.50Q17-395 20.75-399Q24.50-403 33-406.50L33-406.50L136.50-438.50Q147.50-442.50 153.50-444Q159.50-445.50 165-445.50L165-445.50Q173-445.50 177.25-440.25Q181.50-435 181.50-427ZM186.50-338L170.50-322.50L155.50-339L174-357.50Q224.50-407 266-427.25Q307.50-447.50 345.50-447.50L345.50-447.50Q397-447.50 429-414.25Q461-381 461-315.50L461-315.50L461-61Q461-48 464.75-41.75Q468.50-35.50 477-33L477-33L495-28.50Q505-24 505-14.50L505-14.50Q505 0 489 0L489 0L317.50 0Q302 0 302-14.50L302-14.50Q302-24 312-28.50L312-28.50L333-33Q343-36 346.25-43.25Q349.50-50.50 349.50-64L349.50-64L349.50-295Q349.50-337 329.75-358.75Q310-380.50 278-380.50L278-380.50Q255.50-380.50 233-370.50Q210.50-360.50 186.50-338L186.50-338ZM464.50-341L448.50-324.50L434-341L452-360Q495.50-406.50 532-427Q568.50-447.50 605.50-447.50L605.50-447.50Q655-447.50 683-416Q711-384.50 719-323L719-323L753-61.50Q754.50-48.50 757.75-42.50Q761-36.50 769.50-34L769.50-34L787-30Q792.50-27.50 795.50-23.75Q798.50-20 798.50-14.50L798.50-14.50Q798.50-7.50 794-3.75Q789.50 0 782 0L782 0L606.50 0Q591 0 591-14.50L591-14.50Q591-23.50 601.50-28.50L601.50-28.50L622-33Q632-36 636.25-43Q640.50-50 638.50-63L638.50-63L609-295Q603-337 586.75-358.75Q570.50-380.50 540-380.50L540-380.50Q522-380.50 503.75-371Q485.50-361.50 464.50-341L464.50-341Z"/>
    <path transform="translate(1447.36 0) scale(0.64)" fill="currentColor" d="M285-54.50L285-54.50L285-63.50L277.50-62.50L277.50-345.50Q277.50-381.50 261.25-401Q245-420.50 215-420.50L215-420.50Q185-420.50 169.25-406.50Q153.50-392.50 153.50-373L153.50-373L153.50-342.50Q153.50-316.50 137.50-301Q121.50-285.50 94-285.50L94-285.50Q71-285.50 58.50-298.25Q46-311 46-334L46-334Q46-362.50 67-388.50Q88-414.50 129.75-431Q171.50-447.50 232.50-447.50L232.50-447.50Q311.50-447.50 351-413.50Q390.50-379.50 390.50-318L390.50-318L390.50-74Q390.50-59.50 396-51.75Q401.50-44 411.50-44L411.50-44Q419-44 424.75-48Q430.50-52 433-60L433-60Q434-62.50 435.75-63.75Q437.50-65 440-65L440-65Q444-65 446.25-61.50Q448.50-58 448.50-52.50L448.50-52.50Q448.50-39.50 439.25-25Q430-10.50 411.50-0.50Q393 9.50 364.50 9.50L364.50 9.50Q326.50 9.50 305.75-8.25Q285-26 285-54.50ZM24.50-98.50L24.50-98.50Q24.50-156 71.75-190.25Q119-224.50 209.50-224.50L209.50-224.50Q237.50-224.50 259.50-219.50Q281.50-214.50 298.50-206.50L298.50-206.50L291.50-184Q274.50-192 257.25-196.25Q240-200.50 218.50-200.50L218.50-200.50Q180.50-200.50 159-178.50Q137.50-156.50 137.50-117.50L137.50-117.50Q137.50-79.50 157-59.75Q176.50-40 207.50-40L207.50-40Q232-40 254.25-51.25Q276.50-62.50 291-82.50L291-82.50L299-62Q277-28 237.50-9.25Q198 9.50 151.50 9.50L151.50 9.50Q94 9.50 59.25-20.25Q24.50-50 24.50-98.50Z"/></g>
</svg>