<svg xmlns="http://www.w3.org/2000/svg" viewBox="0 0 240 240" role="img" aria-label="Cmaa Warm Coil logo (mono)">
<defs><mask id="w-b5-mono"><rect width="240" height="240" fill="#fff"/><path d="M124.63 141.45 L125.17 138.06M131.2 146.45 L135 143.93M132.78 154.37 L138.11 154.81M129.35 161.99 L133.87 165.72M122.65 166.6 L124.76 172.27M114.07 167.47 L113.19 173.46M106.33 164.46 L102.97 169.49M100.19 157.97 L95 161.08M97.32 149.75 L91.33 150.57M97.82 140.98 L91.96 139.5M101.49 132.99 L96.53 129.52M107.64 126.81 L104.14 121.87M115.87 122.89 L114.24 117.07M124.77 121.91 L125.08 115.87M133.34 123.68 L135.45 118.01M141.25 128.09 L144.96 123.32M147.68 134.89 L152.65 131.45M151.72 142.99 L157.46 141.09M153.36 152.17 L159.4 151.95M152.48 161.07 L158.37 162.45M149.21 169.64 L154.53 172.52M143.67 177.24 L148.04 181.42M136.74 182.9 L139.96 188.02M128.45 186.77 L130.32 192.53M119.27 188.55 L119.68 194.58M109.74 188.02 L108.66 193.97M101.12 185.42 L98.73 190.98M93.17 180.86 L89.58 185.74M86.32 174.51 L81.73 178.46M80.98 166.64 L75.62 169.45M77.71 158.39 L71.89 160.03M76.15 148.68 L70.1 148.96M76.68 139.52 L70.71 138.55M79.13 130.54 L73.49 128.35M83.46 122.12 L78.39 118.81M89.52 114.67 L85.25 110.39M96.36 109.04 L92.97 104.03M105.07 104.39 L102.79 98.79M113.8 101.78 L112.61 95.84M122.98 100.84 L122.93 94.79M132.29 101.65 L133.38 95.7M141.4 104.23 L143.59 98.59M149.96 108.54 L153.17 103.41M157.66 114.45 L161.78 110.02M163.59 121 L168.4 117.33M168.83 129.43 L174.25 126.73M172.16 137.83 L177.96 136.09M174.15 147.79 L180.17 147.17" stroke="#000" stroke-width="2" stroke-linecap="round" fill="none"/></mask></defs>
<path d="M117.1 152.23 L116.99 152.2 L116.88 152.17 L116.78 152.13 L116.67 152.1 L116.56 152.05 L116.46 152.01 L116.35 151.96 L116.25 151.91 L116.14 151.86 L116.04 151.8 L115.93 151.74 L115.83 151.68 L115.73 151.61 L115.63 151.54 L115.53 151.47 L115.43 151.4 L115.33 151.32 L115.24 151.24 L115.14 151.16 L115.05 151.07 L114.96 150.98 L114.87 150.89 L114.78 150.8 L114.69 150.7 L114.6 150.6 L114.52 150.49 L114.43 150.39 L114.35 150.28 L114.27 150.17 L114.2 150.05 L114.12 149.93 L114.05 149.81 L113.98 149.69 L113.91 149.57 L113.84 149.44 L113.78 149.31 L113.72 149.18 L113.66 149.04 L113.61 148.9 L113.55 148.76 L113.5 148.62 L113.46 148.47 L113.41 148.33 L113.37 148.18 L113.33 148.02 L113.3 147.87 L113.27 147.72 L113.24 147.56 L113.21 147.4 L113.19 147.24 L113.17 147.07 L113.16 146.91 L113.15 146.74 L113.14 146.57 L113.14 146.4 L113.14 146.23 L113.14 146.06 L113.15 145.89 L113.16 145.71 L113.18 145.54 L113.2 145.36 L113.22 145.18 L113.25 145 L113.28 144.82 L113.32 144.64 L113.36 144.46 L113.4 144.28 L113.45 144.1 L113.51 143.92 L113.56 143.74 L113.63 143.56 L113.69 143.38 L113.77 143.19 L113.84 143.01 L113.92 142.83 L114.01 142.65 L114.1 142.47 L114.19 142.29 L114.29 142.11 L114.39 141.94 L114.5 141.76 L114.62 141.58 L114.73 141.41 L114.85 141.24 L114.98 141.06 L115.11 140.89 L115.25 140.73 L115.39 140.56 L115.53 140.4 L115.68 140.23 L115.84 140.07 L115.99 139.91 L116.16 139.76 L116.32 139.61 L116.5 139.45 L116.67 139.31 L116.85 139.16 L117.04 139.02 L117.23 138.88 L117.42 138.74 L117.62 138.61 L117.82 138.48 L118.02 138.36 L118.23 138.23 L118.45 138.11 L118.66 138 L118.88 137.89 L119.11 137.78 L119.34 137.68 L119.57 137.58 L119.8 137.49 L120.04 137.4 L120.29 137.31 L120.53 137.23 L120.78 137.15 L121.03 137.08 L121.29 137.02 L121.54 136.95 L121.8 136.9 L122.07 136.85 L122.33 136.8 L122.6 136.76 L122.87 136.73 L123.14 136.7 L123.42 136.67 L123.7 136.65 L123.98 136.64 L124.26 136.64 L124.54 136.63 L124.82 136.64 L125.11 136.65 L125.39 136.67 L125.68 136.69 L125.97 136.72 L126.26 136.76 L126.55 136.8 L126.84 136.85 L127.14 136.9 L127.43 136.96 L127.72 137.03 L128.01 137.1 L128.31 137.18 L128.6 137.27 L128.89 137.36 L129.18 137.46 L129.47 137.57 L129.76 137.68 L130.05 137.8 L130.34 137.93 L130.63 138.06 L130.91 138.2 L131.2 138.34 L131.48 138.5 L131.76 138.65 L132.04 138.82 L132.32 138.99 L132.59 139.17 L132.86 139.36 L133.13 139.55 L133.4 139.75 L133.66 139.95 L133.92 140.16 L134.18 140.38 L134.44 140.6 L134.69 140.83 L134.93 141.07 L135.18 141.31 L135.42 141.56 L135.65 141.81 L135.88 142.07 L136.11 142.34 L136.33 142.61 L136.55 142.89 L136.76 143.17 L136.97 143.46 L137.17 143.76 L137.37 144.06 L137.56 144.36 L137.75 144.67 L137.93 144.99 L138.11 145.31 L138.28 145.63 L138.44 145.96 L138.6 146.3 L138.75 146.64 L138.9 146.98 L139.04 147.33 L139.17 147.68 L139.29 148.04 L139.41 148.4 L139.52 148.77 L139.63 149.13 L139.73 149.51 L139.82 149.88 L139.9 150.26 L139.97 150.64 L140.04 151.03 L140.1 151.41 L140.15 151.8 L140.2 152.19 L140.24 152.59 L140.27 152.99 L140.29 153.38 L140.3 153.79 L140.31 154.19 L140.3 154.59 L140.29 155 L140.27 155.4 L140.24 155.81 L140.21 156.22 L140.16 156.63 L140.11 157.04 L140.05 157.45 L139.98 157.86 L139.9 158.27 L139.81 158.68 L139.71 159.08 L139.61 159.49 L139.49 159.9 L139.37 160.31 L139.24 160.71 L139.1 161.12 L138.95 161.52 L138.8 161.92 L138.63 162.32 L138.46 162.71 L138.28 163.11 L138.08 163.5 L137.89 163.89 L137.68 164.28 L137.46 164.66 L137.24 165.04 L137 165.41 L136.76 165.79 L136.51 166.16 L136.25 166.52 L135.99 166.88 L135.71 167.24 L135.43 167.59 L135.14 167.94 L134.84 168.28 L134.54 168.62 L134.22 168.95 L133.9 169.27 L133.58 169.6 L133.24 169.91 L132.9 170.22 L132.55 170.52 L132.19 170.82 L131.83 171.11 L131.45 171.39 L131.08 171.67 L130.69 171.94 L130.3 172.2 L129.91 172.46 L129.5 172.71 L129.09 172.95 L128.68 173.18 L128.26 173.4 L127.83 173.62 L127.4 173.83 L126.97 174.03 L126.52 174.22 L126.08 174.41 L125.63 174.58 L125.17 174.75 L124.71 174.91 L124.25 175.06 L123.78 175.2 L123.3 175.33 L122.83 175.45 L122.35 175.56 L121.87 175.66 L121.38 175.76 L120.89 175.84 L120.4 175.92 L119.91 175.99 L119.41 176.04 L118.91 176.09 L118.41 176.13 L117.91 176.16 L117.41 176.18 L116.9 176.19 L116.4 176.19 L115.89 176.17 L115.38 176.15 L114.87 176.12 L114.36 176.08 L113.85 176.03 L113.34 175.97 L112.83 175.9 L112.32 175.82 L111.82 175.73 L111.31 175.63 L110.8 175.52 L110.29 175.4 L109.79 175.27 L109.29 175.13 L108.78 174.98 L108.28 174.82 L107.79 174.65 L107.29 174.47 L106.8 174.28 L106.31 174.08 L105.82 173.87 L105.33 173.65 L104.85 173.42 L104.38 173.19 L103.9 172.94 L103.43 172.68 L102.97 172.41 L102.5 172.13 L102.05 171.84 L101.59 171.55 L101.15 171.24 L100.7 170.93 L100.26 170.6 L99.83 170.27 L99.41 169.93 L98.98 169.58 L98.57 169.22 L98.16 168.85 L97.76 168.47 L97.36 168.08 L96.97 167.69 L96.59 167.29 L96.21 166.88 L95.84 166.46 L95.48 166.03 L95.13 165.6 L94.78 165.16 L94.45 164.71 L94.12 164.25 L93.79 163.79 L93.48 163.31 L93.18 162.84 L92.88 162.35 L92.59 161.86 L92.31 161.36 L92.04 160.86 L91.78 160.35 L91.53 159.83 L91.29 159.31 L91.06 158.78 L90.83 158.25 L90.62 157.71 L90.42 157.17 L90.23 156.62 L90.04 156.07 L89.87 155.51 L89.71 154.95 L89.56 154.38 L89.42 153.81 L89.29 153.24 L89.17 152.66 L89.06 152.08 L88.96 151.5 L88.88 150.91 L88.8 150.32 L88.74 149.73 L88.69 149.13 L88.65 148.54 L88.62 147.94 L88.6 147.34 L88.59 146.74 L88.59 146.14 L88.61 145.53 L88.64 144.93 L88.68 144.33 L88.73 143.72 L88.79 143.12 L88.86 142.51 L88.95 141.91 L89.05 141.3 L89.16 140.7 L89.28 140.1 L89.41 139.5 L89.56 138.9 L89.71 138.3 L89.88 137.7 L90.06 137.11 L90.25 136.52 L90.46 135.93 L90.67 135.35 L90.9 134.77 L91.14 134.19 L91.38 133.61 L91.65 133.04 L91.92 132.47 L92.2 131.91 L92.5 131.35 L92.8 130.8 L93.12 130.25 L93.45 129.7 L93.79 129.17 L94.14 128.63 L94.5 128.11 L94.87 127.58 L95.25 127.07 L95.65 126.56 L96.05 126.06 L96.46 125.56 L96.89 125.08 L97.32 124.6 L97.76 124.12 L98.22 123.66 L98.68 123.2 L99.15 122.75 L99.63 122.31 L100.12 121.88 L100.62 121.46 L101.13 121.04 L101.65 120.64 L102.18 120.24 L102.71 119.85 L103.25 119.48 L103.8 119.11 L104.36 118.75 L104.93 118.4 L105.5 118.07 L106.09 117.74 L106.68 117.42 L107.27 117.12 L107.87 116.82 L108.48 116.54 L109.1 116.27 L109.72 116.01 L110.35 115.76 L110.98 115.52 L111.62 115.29 L112.26 115.08 L112.91 114.88 L113.57 114.69 L114.23 114.51 L114.89 114.34 L115.56 114.19 L116.23 114.05 L116.9 113.92 L117.58 113.8 L118.26 113.7 L118.95 113.61 L119.64 113.54 L120.33 113.47 L121.02 113.42 L121.71 113.38 L122.41 113.36 L123.11 113.35 L123.81 113.35 L124.51 113.37 L125.21 113.39 L125.91 113.44 L126.61 113.49 L127.31 113.56 L128.01 113.65 L128.71 113.74 L129.41 113.85 L130.11 113.97 L130.81 114.11 L131.51 114.26 L132.2 114.43 L132.89 114.6 L133.58 114.79 L134.27 115 L134.95 115.22 L135.63 115.45 L136.31 115.69 L136.98 115.95 L137.65 116.22 L138.32 116.5 L138.98 116.8 L139.64 117.11 L140.29 117.43 L140.94 117.77 L141.58 118.12 L142.21 118.48 L142.84 118.86 L143.46 119.24 L144.08 119.64 L144.69 120.05 L145.29 120.48 L145.89 120.91 L146.48 121.36 L147.06 121.82 L147.63 122.29 L148.19 122.78 L148.75 123.27 L149.3 123.78 L149.84 124.29 L150.37 124.82 L150.89 125.36 L151.4 125.91 L151.9 126.47 L152.39 127.04 L152.87 127.62 L153.34 128.21 L153.8 128.81 L154.25 129.42 L154.68 130.04 L155.11 130.67 L155.53 131.3 L155.93 131.95 L156.32 132.6 L156.7 133.27 L157.07 133.94 L157.42 134.62 L157.77 135.3 L158.1 136 L158.41 136.7 L158.72 137.41 L159.01 138.12 L159.29 138.85 L159.55 139.57 L159.81 140.31 L160.04 141.05 L160.27 141.79 L160.48 142.54 L160.67 143.3 L160.86 144.06 L161.02 144.82 L161.18 145.59 L161.32 146.37 L161.44 147.14 L161.55 147.92 L161.65 148.71 L161.73 149.49 L161.79 150.28 L161.84 151.07 L161.88 151.86 L161.9 152.66 L161.9 153.46 L161.89 154.25 L161.87 155.05 L161.83 155.85 L161.77 156.65 L161.7 157.45 L161.62 158.25 L161.52 159.04 L161.4 159.84 L161.27 160.64 L161.12 161.43 L160.96 162.22 L160.78 163.01 L160.59 163.8 L160.38 164.59 L160.16 165.37 L159.92 166.15 L159.66 166.93 L159.39 167.7 L159.11 168.47 L158.81 169.23 L158.5 169.99 L158.17 170.74 L157.83 171.49 L157.47 172.23 L157.1 172.97 L156.71 173.7 L156.31 174.43 L155.89 175.14 L155.46 175.85 L155.02 176.56 L154.56 177.25 L154.09 177.94 L153.6 178.62 L153.1 179.29 L152.59 179.95 L152.07 180.61 L151.53 181.25 L150.98 181.89 L150.41 182.51 L149.83 183.13 L149.25 183.73 L148.64 184.33 L148.03 184.91 L147.4 185.49 L146.77 186.05 L146.12 186.6 L145.46 187.14 L144.79 187.66 L144.11 188.18 L143.41 188.68 L142.71 189.17 L142 189.65 L141.28 190.11 L140.54 190.56 L139.8 191 L139.05 191.43 L138.29 191.84 L137.52 192.23 L136.74 192.61 L135.96 192.98 L135.17 193.34 L134.37 193.67 L133.56 194 L132.74 194.31 L131.92 194.6 L131.09 194.88 L130.26 195.14 L129.41 195.39 L128.57 195.62 L127.72 195.84 L126.86 196.04 L126 196.22 L125.13 196.39 L124.26 196.54 L123.38 196.68 L122.51 196.8 L121.62 196.9 L120.74 196.99 L119.85 197.05 L118.96 197.11 L118.07 197.14 L117.18 197.16 L116.28 197.16 L115.39 197.15 L114.49 197.11 L113.59 197.06 L112.7 197 L111.8 196.91 L110.9 196.81 L110.01 196.69 L109.12 196.56 L108.22 196.41 L107.33 196.24 L106.44 196.05 L105.56 195.85 L104.68 195.63 L103.8 195.39 L102.92 195.13 L102.05 194.86 L101.18 194.57 L100.32 194.27 L99.46 193.95 L98.6 193.61 L97.75 193.25 L96.91 192.88 L96.08 192.49 L95.25 192.09 L94.42 191.67 L93.61 191.23 L92.8 190.78 L92 190.31 L91.2 189.83 L90.42 189.33 L89.64 188.81 L88.88 188.28 L88.12 187.73 L87.37 187.17 L86.63 186.6 L85.9 186.01 L85.19 185.4 L84.48 184.78 L83.78 184.15 L83.1 183.5 L82.42 182.84 L81.76 182.17 L81.11 181.48 L80.48 180.78 L79.85 180.07 L79.24 179.34 L78.64 178.6 L78.06 177.85 L77.49 177.09 L76.93 176.32 L76.38 175.53 L75.85 174.74 L75.34 173.93 L74.84 173.11 L74.35 172.28 L73.88 171.44 L73.43 170.59 L72.99 169.74 L72.57 168.87 L72.16 167.99 L71.77 167.11 L71.4 166.22 L71.04 165.31 L70.7 164.41 L70.37 163.49 L70.07 162.57 L69.78 161.64 L69.5 160.7 L69.25 159.76 L69.01 158.81 L68.79 157.85 L68.59 156.9 L68.41 155.93 L68.24 154.96 L68.09 153.99 L67.96 153.01 L67.85 152.03 L67.76 151.05 L67.69 150.06 L67.63 149.08 L67.59 148.09 L67.58 147.09 L67.58 146.1 L67.6 145.11 L67.64 144.11 L67.69 143.12 L67.77 142.12 L67.87 141.13 L67.98 140.13 L68.11 139.14 L68.27 138.15 L68.44 137.16 L68.63 136.17 L68.84 135.19 L69.06 134.21 L69.31 133.23 L69.58 132.25 L69.86 131.28 L70.16 130.32 L70.49 129.36 L70.83 128.4 L71.18 127.45 L71.56 126.51 L71.96 125.57 L72.37 124.64 L72.8 123.71 L73.25 122.79 L73.72 121.88 L74.2 120.98 L74.71 120.09 L75.23 119.2 L75.76 118.33 L76.32 117.46 L76.89 116.6 L77.48 115.76 L78.08 114.92 L78.71 114.09 L79.34 113.28 L80 112.47 L80.67 111.68 L81.35 110.9 L82.05 110.13 L82.77 109.38 L83.5 108.64 L84.25 107.91 L85.01 107.19 L85.78 106.49 L86.57 105.8 L87.37 105.13 L88.19 104.47 L89.02 103.82 L89.86 103.19 L90.71 102.58 L91.58 101.98 L92.46 101.4 L93.35 100.83 L94.26 100.28 L95.17 99.75 L96.1 99.23 L97.03 98.73 L97.98 98.25 L98.94 97.78 L99.9 97.34 L100.88 96.91 L101.86 96.49 L102.86 96.1 L103.86 95.73 L104.87 95.37 L105.88 95.03 L106.91 94.72 L107.94 94.42 L108.98 94.14 L110.02 93.88 L111.07 93.64 L112.13 93.42 L113.19 93.21 L114.26 93.03 L115.33 92.87 L116.4 92.73 L117.48 92.61 L118.56 92.51 L119.65 92.43 L120.73 92.37 L121.82 92.33 L122.91 92.31 L124 92.31 L125.1 92.34 L126.19 92.38 L127.28 92.44 L128.38 92.53 L129.47 92.63 L130.56 92.76 L131.65 92.91 L132.74 93.08 L133.83 93.26 L134.91 93.47 L135.99 93.7 L137.07 93.96 L138.14 94.23 L139.21 94.52 L140.28 94.83 L141.34 95.17 L142.39 95.52 L143.44 95.89 L144.48 96.29 L145.52 96.7 L146.55 97.14 L147.57 97.59 L148.59 98.06 L149.59 98.56 L150.59 99.07 L151.58 99.6 L152.56 100.15 L153.53 100.72 L154.49 101.31 L155.44 101.92 L156.38 102.55 L157.31 103.19 L158.22 103.86 L159.13 104.54 L160.02 105.24 L160.9 105.95 L161.77 106.69 L162.62 107.44 L163.46 108.21 L164.29 108.99 L165.1 109.79 L165.9 110.61 L166.68 111.44 L167.45 112.29 L168.21 113.15 L168.94 114.03 L169.66 114.92 L170.37 115.83 L171.06 116.75 L171.73 117.69 L172.39 118.63 L173.02 119.6 L173.64 120.57 L174.24 121.56 L174.83 122.56 L175.39 123.57 L175.94 124.59 L176.47 125.63 L176.97 126.67 L177.46 127.73 L177.93 128.79 L178.38 129.87 L178.81 130.96 L179.22 132.05 L179.61 133.15 L179.98 134.26 L180.33 135.38 L180.65 136.51 L180.96 137.64 L181.24 138.78 L181.51 139.93 L181.75 141.08 L181.97 142.24 L182.17 143.4 L182.34 144.57 L182.5 145.74 L182.63 146.92 L182.74 148.1 L182.83 149.28 L182.89 150.47 L182.94 151.66 L182.96 152.85 L182.96 154.04 L182.93 155.23 L182.88 156.42 L182.82 157.61 L182.72 158.81 L182.61 160 L182.47 161.19 L182.31 162.38 L182.13 163.56 L181.92 164.75 L181.7 165.93 L181.45 167.1 L181.17 168.28 L180.88 169.45 L180.56 170.61 L180.22 171.77 L179.86 172.93 L179.47 174.08 L179.07 175.22 L178.64 176.35 L178.19 177.48 L177.72 178.6 L177.22 179.72 L176.71 180.82 L176.17 181.91 L175.61 183 L175.04 184.08 L174.44 185.14 L173.82 186.2 L173.18 187.24 L172.52 188.28 L171.84 189.3 L171.14 190.31 L170.41 191.31 L169.68 192.29 L168.92 193.26 L168.14 194.22 L167.34 195.16 L166.53 196.09 A5.5 5.5 0 0 1 158.33 188.76 L159 187.99 L159.67 187.2 L160.31 186.41 L160.94 185.6 L161.56 184.78 L162.16 183.95 L162.74 183.11 L163.3 182.27 L163.85 181.41 L164.38 180.54 L164.9 179.66 L165.4 178.78 L165.88 177.89 L166.34 176.98 L166.78 176.08 L167.21 175.16 L167.62 174.24 L168.01 173.31 L168.38 172.37 L168.74 171.43 L169.08 170.49 L169.39 169.54 L169.69 168.58 L169.97 167.62 L170.24 166.66 L170.48 165.69 L170.71 164.72 L170.91 163.74 L171.1 162.77 L171.27 161.79 L171.42 160.81 L171.56 159.82 L171.67 158.84 L171.76 157.86 L171.84 156.87 L171.9 155.89 L171.94 154.9 L171.96 153.92 L171.96 152.93 L171.94 151.95 L171.9 150.97 L171.85 150 L171.78 149.02 L171.69 148.05 L171.58 147.08 L171.45 146.11 L171.31 145.15 L171.14 144.19 L170.96 143.24 L170.76 142.29 L170.54 141.34 L170.31 140.41 L170.06 139.47 L169.79 138.55 L169.5 137.63 L169.2 136.71 L168.88 135.81 L168.55 134.91 L168.19 134.02 L167.82 133.13 L167.44 132.26 L167.04 131.39 L166.62 130.53 L166.19 129.68 L165.74 128.84 L165.27 128.01 L164.8 127.19 L164.3 126.38 L163.79 125.58 L163.27 124.79 L162.74 124.02 L162.19 123.25 L161.62 122.5 L161.04 121.75 L160.45 121.02 L159.85 120.3 L159.23 119.6 L158.6 118.9 L157.96 118.22 L157.31 117.55 L156.65 116.9 L155.97 116.26 L155.28 115.63 L154.58 115.02 L153.88 114.42 L153.16 113.83 L152.43 113.26 L151.69 112.71 L150.94 112.17 L150.18 111.64 L149.42 111.13 L148.64 110.63 L147.86 110.15 L147.07 109.69 L146.27 109.24 L145.47 108.8 L144.65 108.39 L143.84 107.98 L143.01 107.6 L142.18 107.23 L141.34 106.88 L140.5 106.54 L139.65 106.22 L138.8 105.91 L137.94 105.63 L137.08 105.36 L136.21 105.1 L135.34 104.86 L134.47 104.64 L133.6 104.44 L132.72 104.25 L131.84 104.08 L130.96 103.93 L130.08 103.79 L129.19 103.67 L128.31 103.57 L127.42 103.49 L126.54 103.42 L125.65 103.37 L124.77 103.33 L123.88 103.31 L123 103.31 L122.11 103.33 L121.23 103.36 L120.35 103.41 L119.48 103.47 L118.6 103.55 L117.73 103.65 L116.86 103.76 L116 103.89 L115.14 104.04 L114.28 104.2 L113.43 104.38 L112.58 104.58 L111.74 104.79 L110.9 105.01 L110.07 105.25 L109.24 105.51 L108.43 105.78 L107.61 106.07 L106.81 106.37 L106.01 106.68 L105.21 107.02 L104.43 107.36 L103.65 107.72 L102.88 108.09 L102.12 108.48 L101.37 108.88 L100.62 109.3 L99.89 109.73 L99.16 110.17 L98.45 110.62 L97.74 111.09 L97.05 111.57 L96.36 112.07 L95.69 112.57 L95.02 113.09 L94.37 113.62 L93.72 114.16 L93.09 114.71 L92.47 115.27 L91.86 115.84 L91.27 116.43 L90.68 117.02 L90.11 117.63 L89.55 118.24 L89 118.86 L88.46 119.5 L87.94 120.14 L87.43 120.79 L86.94 121.45 L86.45 122.12 L85.98 122.79 L85.53 123.48 L85.09 124.17 L84.66 124.87 L84.24 125.57 L83.84 126.28 L83.46 127 L83.08 127.73 L82.73 128.46 L82.38 129.19 L82.05 129.94 L81.74 130.68 L81.44 131.43 L81.15 132.19 L80.88 132.95 L80.63 133.71 L80.39 134.48 L80.16 135.25 L79.95 136.02 L79.75 136.8 L79.57 137.58 L79.41 138.36 L79.26 139.14 L79.12 139.92 L79 140.71 L78.9 141.49 L78.8 142.28 L78.73 143.07 L78.67 143.86 L78.62 144.64 L78.59 145.43 L78.58 146.22 L78.58 147 L78.59 147.78 L78.62 148.57 L78.66 149.35 L78.72 150.12 L78.79 150.9 L78.88 151.67 L78.98 152.44 L79.1 153.21 L79.23 153.97 L79.37 154.73 L79.53 155.49 L79.71 156.24 L79.89 156.98 L80.09 157.73 L80.31 158.46 L80.54 159.19 L80.78 159.92 L81.03 160.64 L81.3 161.35 L81.58 162.06 L81.88 162.76 L82.18 163.45 L82.5 164.14 L82.83 164.82 L83.18 165.49 L83.53 166.16 L83.9 166.81 L84.28 167.46 L84.67 168.1 L85.07 168.73 L85.49 169.36 L85.91 169.97 L86.35 170.58 L86.79 171.17 L87.25 171.76 L87.72 172.33 L88.2 172.9 L88.68 173.46 L89.18 174 L89.69 174.54 L90.2 175.06 L90.73 175.58 L91.26 176.08 L91.8 176.58 L92.35 177.06 L92.91 177.53 L93.48 177.99 L94.05 178.43 L94.63 178.87 L95.22 179.29 L95.82 179.71 L96.42 180.11 L97.03 180.49 L97.64 180.87 L98.26 181.23 L98.89 181.58 L99.52 181.92 L100.16 182.25 L100.8 182.56 L101.45 182.86 L102.1 183.15 L102.76 183.42 L103.42 183.68 L104.08 183.93 L104.75 184.17 L105.42 184.39 L106.09 184.6 L106.77 184.8 L107.44 184.98 L108.12 185.15 L108.81 185.31 L109.49 185.45 L110.18 185.58 L110.86 185.7 L111.55 185.8 L112.24 185.89 L112.93 185.97 L113.62 186.04 L114.31 186.09 L114.99 186.12 L115.68 186.15 L116.37 186.16 L117.05 186.16 L117.74 186.15 L118.42 186.12 L119.1 186.08 L119.78 186.03 L120.46 185.96 L121.13 185.88 L121.81 185.79 L122.47 185.69 L123.14 185.57 L123.8 185.44 L124.46 185.3 L125.11 185.15 L125.76 184.99 L126.41 184.81 L127.05 184.62 L127.68 184.42 L128.32 184.21 L128.94 183.99 L129.56 183.75 L130.18 183.5 L130.79 183.25 L131.39 182.98 L131.98 182.7 L132.57 182.41 L133.16 182.11 L133.73 181.8 L134.3 181.47 L134.86 181.14 L135.42 180.8 L135.97 180.45 L136.51 180.09 L137.04 179.72 L137.56 179.34 L138.08 178.95 L138.58 178.55 L139.08 178.15 L139.57 177.73 L140.05 177.31 L140.52 176.87 L140.98 176.43 L141.44 175.99 L141.88 175.53 L142.31 175.07 L142.74 174.6 L143.15 174.12 L143.56 173.64 L143.95 173.14 L144.34 172.65 L144.71 172.14 L145.08 171.63 L145.43 171.12 L145.77 170.6 L146.1 170.07 L146.43 169.54 L146.74 169 L147.04 168.46 L147.33 167.91 L147.6 167.36 L147.87 166.81 L148.13 166.25 L148.37 165.69 L148.61 165.12 L148.83 164.55 L149.04 163.98 L149.24 163.41 L149.43 162.83 L149.61 162.25 L149.77 161.67 L149.93 161.09 L150.07 160.5 L150.2 159.91 L150.32 159.33 L150.43 158.74 L150.53 158.15 L150.62 157.56 L150.69 156.97 L150.76 156.38 L150.81 155.78 L150.85 155.19 L150.88 154.6 L150.9 154.01 L150.9 153.43 L150.9 152.84 L150.89 152.25 L150.86 151.67 L150.82 151.09 L150.77 150.51 L150.71 149.93 L150.64 149.35 L150.56 148.78 L150.47 148.21 L150.37 147.64 L150.26 147.08 L150.13 146.52 L150 145.96 L149.86 145.41 L149.7 144.86 L149.54 144.31 L149.37 143.77 L149.18 143.24 L148.99 142.71 L148.79 142.18 L148.57 141.66 L148.35 141.14 L148.12 140.63 L147.88 140.13 L147.63 139.63 L147.37 139.13 L147.1 138.64 L146.83 138.16 L146.54 137.69 L146.25 137.22 L145.95 136.76 L145.64 136.3 L145.32 135.85 L145 135.41 L144.67 134.98 L144.33 134.55 L143.98 134.13 L143.63 133.72 L143.27 133.32 L142.9 132.92 L142.52 132.53 L142.14 132.15 L141.76 131.78 L141.36 131.42 L140.96 131.06 L140.56 130.72 L140.15 130.38 L139.73 130.05 L139.31 129.73 L138.88 129.42 L138.45 129.11 L138.01 128.82 L137.57 128.53 L137.13 128.26 L136.68 127.99 L136.23 127.73 L135.77 127.48 L135.31 127.24 L134.84 127.01 L134.38 126.79 L133.91 126.58 L133.43 126.38 L132.96 126.19 L132.48 126 L132 125.83 L131.52 125.67 L131.03 125.51 L130.55 125.37 L130.06 125.23 L129.57 125.11 L129.08 124.99 L128.59 124.89 L128.1 124.79 L127.6 124.7 L127.11 124.62 L126.62 124.56 L126.13 124.5 L125.63 124.45 L125.14 124.41 L124.65 124.38 L124.16 124.36 L123.67 124.35 L123.18 124.35 L122.69 124.36 L122.2 124.37 L121.72 124.4 L121.23 124.43 L120.75 124.48 L120.27 124.53 L119.8 124.59 L119.32 124.67 L118.85 124.75 L118.38 124.84 L117.92 124.93 L117.45 125.04 L116.99 125.15 L116.54 125.28 L116.08 125.41 L115.64 125.55 L115.19 125.7 L114.75 125.85 L114.31 126.02 L113.88 126.19 L113.45 126.37 L113.03 126.56 L112.61 126.75 L112.2 126.95 L111.79 127.16 L111.38 127.38 L110.98 127.6 L110.59 127.83 L110.2 128.07 L109.82 128.32 L109.44 128.57 L109.07 128.83 L108.71 129.09 L108.35 129.36 L108 129.63 L107.65 129.92 L107.31 130.2 L106.98 130.5 L106.65 130.8 L106.33 131.1 L106.02 131.41 L105.71 131.73 L105.41 132.04 L105.12 132.37 L104.84 132.7 L104.56 133.03 L104.29 133.37 L104.02 133.71 L103.76 134.06 L103.51 134.41 L103.27 134.76 L103.04 135.12 L102.81 135.48 L102.59 135.84 L102.38 136.21 L102.17 136.58 L101.98 136.95 L101.79 137.33 L101.61 137.7 L101.43 138.08 L101.27 138.47 L101.11 138.85 L100.96 139.24 L100.82 139.62 L100.68 140.01 L100.56 140.4 L100.44 140.8 L100.33 141.19 L100.22 141.58 L100.13 141.98 L100.04 142.37 L99.96 142.77 L99.89 143.16 L99.83 143.56 L99.77 143.96 L99.72 144.35 L99.68 144.75 L99.65 145.14 L99.62 145.54 L99.6 145.93 L99.59 146.32 L99.59 146.71 L99.59 147.1 L99.61 147.49 L99.63 147.88 L99.65 148.27 L99.69 148.65 L99.73 149.03 L99.78 149.41 L99.83 149.79 L99.89 150.17 L99.96 150.54 L100.04 150.91 L100.12 151.28 L100.21 151.64 L100.31 152.01 L100.41 152.37 L100.52 152.72 L100.64 153.07 L100.76 153.42 L100.89 153.77 L101.03 154.11 L101.17 154.45 L101.31 154.78 L101.47 155.11 L101.63 155.44 L101.79 155.76 L101.96 156.08 L102.14 156.39 L102.32 156.7 L102.5 157.01 L102.7 157.31 L102.89 157.6 L103.09 157.89 L103.3 158.18 L103.51 158.46 L103.73 158.73 L103.95 159 L104.17 159.27 L104.4 159.53 L104.63 159.78 L104.87 160.03 L105.11 160.28 L105.36 160.52 L105.6 160.75 L105.86 160.98 L106.11 161.2 L106.37 161.41 L106.63 161.62 L106.9 161.83 L107.16 162.02 L107.43 162.22 L107.71 162.4 L107.98 162.58 L108.26 162.76 L108.54 162.93 L108.82 163.09 L109.11 163.25 L109.4 163.4 L109.68 163.54 L109.97 163.68 L110.26 163.81 L110.56 163.94 L110.85 164.06 L111.15 164.17 L111.44 164.28 L111.74 164.38 L112.04 164.48 L112.34 164.57 L112.64 164.65 L112.94 164.73 L113.24 164.8 L113.54 164.86 L113.84 164.92 L114.14 164.97 L114.43 165.02 L114.73 165.06 L115.03 165.1 L115.33 165.13 L115.63 165.15 L115.93 165.17 L116.22 165.18 L116.52 165.19 L116.81 165.19 L117.1 165.18 L117.39 165.17 L117.68 165.15 L117.97 165.13 L118.26 165.1 L118.54 165.07 L118.83 165.03 L119.11 164.99 L119.39 164.94 L119.66 164.89 L119.94 164.83 L120.21 164.76 L120.48 164.7 L120.75 164.62 L121.01 164.54 L121.27 164.46 L121.53 164.37 L121.79 164.28 L122.04 164.19 L122.29 164.09 L122.54 163.99 L122.79 163.88 L123.03 163.77 L123.27 163.65 L123.5 163.53 L123.74 163.41 L123.97 163.28 L124.19 163.15 L124.42 163.02 L124.64 162.88 L124.85 162.74 L125.07 162.6 L125.27 162.45 L125.48 162.3 L125.68 162.15 L125.88 161.99 L126.08 161.83 L126.27 161.67 L126.46 161.51 L126.64 161.34 L126.82 161.17 L127 161 L127.17 160.82 L127.34 160.65 L127.5 160.47 L127.66 160.29 L127.82 160.1 L127.97 159.92 L128.12 159.73 L128.27 159.54 L128.41 159.35 L128.54 159.15 L128.68 158.96 L128.81 158.76 L128.93 158.56 L129.05 158.36 L129.17 158.16 L129.28 157.96 L129.39 157.76 L129.49 157.55 L129.59 157.35 L129.69 157.14 L129.78 156.93 L129.87 156.72 L129.95 156.52 L130.03 156.31 L130.1 156.09 L130.17 155.88 L130.24 155.67 L130.3 155.46 L130.36 155.25 L130.42 155.04 L130.47 154.82 L130.51 154.61 L130.56 154.4 L130.59 154.19 L130.63 153.97 L130.66 153.76 L130.68 153.55 L130.71 153.34 L130.72 153.13 L130.74 152.92 L130.75 152.71 L130.75 152.5 L130.76 152.29 L130.76 152.08 L130.75 151.87 L130.74 151.67 L130.73 151.46 L130.71 151.26 L130.69 151.06 L130.67 150.85 L130.64 150.65 L130.61 150.45 L130.57 150.26 L130.54 150.06 L130.49 149.86 L130.45 149.67 L130.4 149.48 L130.35 149.29 L130.29 149.1 L130.23 148.91 L130.17 148.73 L130.11 148.55 L130.04 148.36 L129.97 148.19 L129.89 148.01 L129.82 147.83 L129.74 147.66 L129.65 147.49 L129.57 147.32 L129.48 147.16 L129.39 146.99 L129.29 146.83 L129.19 146.67 L129.09 146.51 L128.99 146.36 L128.89 146.21 L128.78 146.06 L128.67 145.91 L128.56 145.77 L128.44 145.63 L128.33 145.49 L128.21 145.35 L128.09 145.22 L127.96 145.09 L127.84 144.96 L127.71 144.84 L127.58 144.72 L127.45 144.6 L127.32 144.49 L127.19 144.37 L127.05 144.26 L126.91 144.16 L126.77 144.06 L126.63 143.96 L126.49 143.86 L126.35 143.76 L126.21 143.67 L126.06 143.59 L125.92 143.5 L125.77 143.42 L125.62 143.34 L125.47 143.27 L125.32 143.2 L125.17 143.13 L125.02 143.06 L124.87 143 L124.71 142.94 L124.56 142.89 L124.41 142.84 L124.25 142.79 L124.1 142.74 L123.95 142.7 L123.79 142.66 L123.64 142.62 L123.48 142.59 L123.33 142.56 L123.17 142.54 L123.02 142.51 L122.86 142.49 L122.71 142.48 L122.56 142.46 L122.4 142.45 L122.25 142.45 L122.1 142.44 L121.95 142.44 L121.8 142.44 L121.65 142.45 L121.5 142.45 L121.35 142.47 L121.2 142.48 L121.06 142.5 L120.91 142.52 L120.77 142.54 L120.62 142.56 L120.48 142.59 L120.34 142.62 L120.2 142.66 L120.06 142.69 L119.93 142.73 L119.79 142.78 L119.66 142.82 L119.53 142.87 L119.4 142.92 L119.27 142.97 L119.14 143.02 L119.02 143.08 L118.9 143.14 L118.77 143.2 L118.66 143.26 L118.54 143.33 L118.42 143.4 L118.31 143.47 L118.2 143.54 L118.09 143.61 L117.98 143.69 L117.88 143.76 L117.78 143.84 L117.68 143.92 L117.58 144.01 L117.49 144.09 L117.39 144.18 L117.3 144.27 L117.22 144.35 L117.13 144.44 L117.05 144.54 L116.97 144.63 L116.89 144.72 L116.81 144.82 L116.74 144.91 L116.67 145.01 L116.6 145.11 L116.54 145.21 L116.48 145.31 L116.42 145.41 L116.36 145.51 L116.31 145.61 L116.26 145.71 L116.21 145.82 L116.16 145.92 L116.12 146.02 L116.08 146.13 L116.04 146.23 L116 146.34 L115.97 146.44 L115.94 146.54 L115.92 146.65 L115.89 146.75 L115.87 146.86 L115.85 146.96 L115.83 147.06 L115.82 147.16 L115.81 147.27 L115.8 147.37 L115.79 147.47 L115.79 147.57 L115.79 147.67 L115.79 147.77 L115.79 147.86 L115.8 147.96 L115.81 148.06 L115.82 148.15 L115.83 148.24 L115.85 148.34 L115.87 148.43 L115.88 148.52 L115.91 148.61 L115.93 148.69 L115.96 148.78 L115.98 148.86 L116.01 148.94 L116.05 149.03 L116.08 149.1 L116.12 149.18 L116.15 149.26 L116.19 149.33 L116.23 149.4 L116.27 149.47 L116.32 149.54 L116.36 149.61 L116.41 149.67 L116.46 149.73 L116.5 149.79 L116.55 149.85 L116.61 149.9 L116.66 149.96 L116.71 150.01 L116.76 150.06 L116.82 150.1 L116.87 150.15 L116.93 150.19 L116.98 150.23 L117.04 150.26 L117.1 150.3 L117.16 150.33 L117.21 150.36 L117.27 150.39 L117.33 150.41 L117.39 150.44 L117.44 150.46 L117.5 150.48 L117.56 150.49 A0.9 0.9 0 0 1 117.1 152.23 Z" fill="#33241A" mask="url(#w-b5-mono)"/>
<g fill="none" stroke="#33241A" stroke-width="5" stroke-linecap="round" stroke-linejoin="round">
  <path d="M106 78 L106.08 76.91 L106.32 75.82 L106.71 74.73 L107.23 73.64 L107.87 72.55 L108.6 71.45 L109.39 70.36 L110.21 69.27 L111.02 68.18 L111.81 67.09 L112.53 66 L113.16 64.91 L113.67 63.82 L114.04 62.73 L114.27 61.64 L114.33 60.55 L114.22 59.45 L113.96 58.36 L113.54 57.27 L112.99 56.18 L112.32 55.09 L111.55 54 L110.73 52.91 L109.87 51.82 L109 50.73 L108.17 49.64 L107.4 48.55 L106.72 47.45 L106.16 46.36 L105.73 45.27 L105.45 44.18 L105.33 43.09 L105.37 42 L105.56 40.91 L105.91 39.82 L106 38.73 L106 37.64 L106 36.55 L106 35.45 L106 34.36 L106 33.27 L106 32.18 L106 31.09 L106 30"/><path d="M135 80 L134.93 79.14 L134.74 78.27 L134.42 77.41 L133.98 76.55 L133.46 75.68 L132.86 74.82 L132.21 73.95 L131.54 73.09 L130.86 72.23 L130.22 71.36 L129.62 70.5 L129.11 69.64 L128.68 68.77 L128.38 67.91 L128.19 67.05 L128.14 66.18 L128.23 65.32 L128.45 64.45 L128.79 63.59 L129.25 62.73 L129.8 61.86 L130.43 61 L131.11 60.14 L131.82 59.27 L132.53 58.41 L133.21 57.55 L133.84 56.68 L134.4 55.82 L134.87 54.95 L135.22 54.09 L135.46 53.23 L135.56 52.36 L135.52 51.5 L135.36 50.64 L135.07 49.77 L135 48.91 L135 48.05 L135 47.18 L135 46.32 L135 45.45 L135 44.59 L135 43.73 L135 42.86 L135 42"/>
</g>
</svg>