<svg xmlns="http://www.w3.org/2000/svg" viewBox="0 0 240 168" font-family="'Mulish',system-ui,sans-serif">
<defs><style>@import url('https://fonts.googleapis.com/css2?family=Yatra+One&amp;family=Mulish:wght@700;800&amp;display=swap');</style>
<clipPath id="mb-masala"><rect x="6" y="6" width="228" height="156" rx="4"/></clipPath>
<filter id="mbg-masala"><feTurbulence type="fractalNoise" baseFrequency=".75" numOctaves="2" stitchTiles="stitch"/><feColorMatrix type="saturate" values="0"/><feComponentTransfer><feFuncA type="linear" slope=".07"/></feComponentTransfer><feComposite operator="over" in2="SourceGraphic"/></filter></defs>
<g filter="url(#mbg-masala)">
<rect x="0" y="0" width="240" height="168" rx="6" fill="#F1E4CB"/>
<g clip-path="url(#mb-masala)" transform="rotate(-4 120 78)"><path d="M149.95 79.8 L237.79 85.08 L237.5 88.86 Z" fill="#B3372B" opacity=".22"/><path d="M148.79 86.42 L233.26 111.11 L232.14 114.74 Z" fill="#B3372B" opacity=".22"/><path d="M146.2 92.61 L223.05 135.48 L221.15 138.77 Z" fill="#B3372B" opacity=".22"/><path d="M142.29 98.08 L207.68 156.97 L205.09 159.75 Z" fill="#B3372B" opacity=".22"/><path d="M137.26 102.53 L187.91 174.5 L184.77 176.64 Z" fill="#B3372B" opacity=".22"/><path d="M131.37 105.76 L164.73 187.19 L161.19 188.58 Z" fill="#B3372B" opacity=".22"/><path d="M124.91 107.6 L139.31 194.41 L135.55 194.97 Z" fill="#B3372B" opacity=".22"/><path d="M118.2 107.95 L112.92 195.79 L109.14 195.5 Z" fill="#B3372B" opacity=".22"/><path d="M111.58 106.79 L86.89 191.26 L83.26 190.14 Z" fill="#B3372B" opacity=".22"/><path d="M105.39 104.2 L62.52 181.05 L59.23 179.15 Z" fill="#B3372B" opacity=".22"/><path d="M99.92 100.29 L41.03 165.68 L38.25 163.09 Z" fill="#B3372B" opacity=".22"/><path d="M95.47 95.26 L23.5 145.91 L21.36 142.77 Z" fill="#B3372B" opacity=".22"/><path d="M92.24 89.37 L10.81 122.73 L9.42 119.19 Z" fill="#B3372B" opacity=".22"/><path d="M90.4 82.91 L3.59 97.31 L3.03 93.55 Z" fill="#B3372B" opacity=".22"/><path d="M90.05 76.2 L2.21 70.92 L2.5 67.14 Z" fill="#B3372B" opacity=".22"/><path d="M91.21 69.58 L6.74 44.89 L7.86 41.26 Z" fill="#B3372B" opacity=".22"/><path d="M93.8 63.39 L16.95 20.52 L18.85 17.23 Z" fill="#B3372B" opacity=".22"/><path d="M97.71 57.92 L32.32 -0.97 L34.91 -3.75 Z" fill="#B3372B" opacity=".22"/><path d="M102.74 53.47 L52.09 -18.5 L55.23 -20.64 Z" fill="#B3372B" opacity=".22"/><path d="M108.63 50.24 L75.27 -31.19 L78.81 -32.58 Z" fill="#B3372B" opacity=".22"/><path d="M115.09 48.4 L100.69 -38.41 L104.45 -38.97 Z" fill="#B3372B" opacity=".22"/><path d="M121.8 48.05 L127.08 -39.79 L130.86 -39.5 Z" fill="#B3372B" opacity=".22"/><path d="M128.42 49.21 L153.11 -35.26 L156.74 -34.14 Z" fill="#B3372B" opacity=".22"/><path d="M134.61 51.8 L177.48 -25.05 L180.77 -23.15 Z" fill="#B3372B" opacity=".22"/><path d="M140.08 55.71 L198.97 -9.68 L201.75 -7.09 Z" fill="#B3372B" opacity=".22"/><path d="M144.53 60.74 L216.5 10.09 L218.64 13.23 Z" fill="#B3372B" opacity=".22"/><path d="M147.76 66.63 L229.19 33.27 L230.58 36.81 Z" fill="#B3372B" opacity=".22"/><path d="M149.6 73.09 L236.41 58.69 L236.97 62.45 Z" fill="#B3372B" opacity=".22"/></g>
<rect x="6" y="6" width="228" height="156" rx="4" fill="none" stroke="#B3372B" stroke-width="2.4"/>
<rect x="12" y="12" width="216" height="144" rx="2" fill="none" stroke="#33241A" stroke-width="1" stroke-dasharray="1 3"/>
<circle cx="120" cy="78" r="34" fill="#F6EDDB" stroke="#B3372B" stroke-width="2"/>
<g transform="translate(110 62) scale(2.1)"><path d="M0 2 C -2 9, 4 14, 8 15 C 5 10, 5 4, 4 1 Z" fill="#B3372B"/><path d="M4 1 q 2 -4 6 -3" fill="none" stroke="#35582F" stroke-width="1.6"/></g>
<rect x="22" y="124" width="196" height="24" fill="#B3372B"/>
<text x="120" y="140.5" text-anchor="middle" font-size="9.5" font-weight="800" letter-spacing="2" fill="#F6EDDB">KOLHAPURI HEAT</text>
<text x="120" y="26" text-anchor="middle" font-family="'Yatra One',serif" font-size="15" fill="#33241A">मसाला चिवडा</text>
</g>
</svg>