<svg xmlns="http://www.w3.org/2000/svg" viewBox="0 0 240 168" font-family="'Mulish',system-ui,sans-serif">
<defs><style>@import url('https://fonts.googleapis.com/css2?family=Yatra+One&amp;family=Mulish:wght@700;800&amp;display=swap');</style>
<clipPath id="mb-bhajani"><rect x="6" y="6" width="228" height="156" rx="4"/></clipPath>
<filter id="mbg-bhajani"><feTurbulence type="fractalNoise" baseFrequency=".75" numOctaves="2" stitchTiles="stitch"/><feColorMatrix type="saturate" values="0"/><feComponentTransfer><feFuncA type="linear" slope=".07"/></feComponentTransfer><feComposite operator="over" in2="SourceGraphic"/></filter></defs>
<g filter="url(#mbg-bhajani)">
<rect x="0" y="0" width="240" height="168" rx="6" fill="#F1E4CB"/>
<g clip-path="url(#mb-bhajani)" transform="rotate(-4 120 78)"><path d="M149.95 79.8 L237.79 85.08 L237.5 88.86 Z" fill="#7A1E2B" opacity=".22"/><path d="M148.79 86.42 L233.26 111.11 L232.14 114.74 Z" fill="#7A1E2B" opacity=".22"/><path d="M146.2 92.61 L223.05 135.48 L221.15 138.77 Z" fill="#7A1E2B" opacity=".22"/><path d="M142.29 98.08 L207.68 156.97 L205.09 159.75 Z" fill="#7A1E2B" opacity=".22"/><path d="M137.26 102.53 L187.91 174.5 L184.77 176.64 Z" fill="#7A1E2B" opacity=".22"/><path d="M131.37 105.76 L164.73 187.19 L161.19 188.58 Z" fill="#7A1E2B" opacity=".22"/><path d="M124.91 107.6 L139.31 194.41 L135.55 194.97 Z" fill="#7A1E2B" opacity=".22"/><path d="M118.2 107.95 L112.92 195.79 L109.14 195.5 Z" fill="#7A1E2B" opacity=".22"/><path d="M111.58 106.79 L86.89 191.26 L83.26 190.14 Z" fill="#7A1E2B" opacity=".22"/><path d="M105.39 104.2 L62.52 181.05 L59.23 179.15 Z" fill="#7A1E2B" opacity=".22"/><path d="M99.92 100.29 L41.03 165.68 L38.25 163.09 Z" fill="#7A1E2B" opacity=".22"/><path d="M95.47 95.26 L23.5 145.91 L21.36 142.77 Z" fill="#7A1E2B" opacity=".22"/><path d="M92.24 89.37 L10.81 122.73 L9.42 119.19 Z" fill="#7A1E2B" opacity=".22"/><path d="M90.4 82.91 L3.59 97.31 L3.03 93.55 Z" fill="#7A1E2B" opacity=".22"/><path d="M90.05 76.2 L2.21 70.92 L2.5 67.14 Z" fill="#7A1E2B" opacity=".22"/><path d="M91.21 69.58 L6.74 44.89 L7.86 41.26 Z" fill="#7A1E2B" opacity=".22"/><path d="M93.8 63.39 L16.95 20.52 L18.85 17.23 Z" fill="#7A1E2B" opacity=".22"/><path d="M97.71 57.92 L32.32 -0.97 L34.91 -3.75 Z" fill="#7A1E2B" opacity=".22"/><path d="M102.74 53.47 L52.09 -18.5 L55.23 -20.64 Z" fill="#7A1E2B" opacity=".22"/><path d="M108.63 50.24 L75.27 -31.19 L78.81 -32.58 Z" fill="#7A1E2B" opacity=".22"/><path d="M115.09 48.4 L100.69 -38.41 L104.45 -38.97 Z" fill="#7A1E2B" opacity=".22"/><path d="M121.8 48.05 L127.08 -39.79 L130.86 -39.5 Z" fill="#7A1E2B" opacity=".22"/><path d="M128.42 49.21 L153.11 -35.26 L156.74 -34.14 Z" fill="#7A1E2B" opacity=".22"/><path d="M134.61 51.8 L177.48 -25.05 L180.77 -23.15 Z" fill="#7A1E2B" opacity=".22"/><path d="M140.08 55.71 L198.97 -9.68 L201.75 -7.09 Z" fill="#7A1E2B" opacity=".22"/><path d="M144.53 60.74 L216.5 10.09 L218.64 13.23 Z" fill="#7A1E2B" opacity=".22"/><path d="M147.76 66.63 L229.19 33.27 L230.58 36.81 Z" fill="#7A1E2B" opacity=".22"/><path d="M149.6 73.09 L236.41 58.69 L236.97 62.45 Z" fill="#7A1E2B" opacity=".22"/></g>
<rect x="6" y="6" width="228" height="156" rx="4" fill="none" stroke="#7A1E2B" stroke-width="2.4"/>
<rect x="12" y="12" width="216" height="144" rx="2" fill="none" stroke="#33241A" stroke-width="1" stroke-dasharray="1 3"/>
<circle cx="120" cy="78" r="34" fill="#F6EDDB" stroke="#7A1E2B" stroke-width="2"/>
<path d="M120 76.4 L120.28 76.25 L120.6 76.15 L120.96 76.12 L121.34 76.16 L121.73 76.27 L122.12 76.46 L122.49 76.73 L122.82 77.09 L123.09 77.51 L123.3 78 L123.43 78.54 L123.46 79.12 L123.39 79.73 L123.22 80.34 L122.93 80.93 L122.54 81.49 L122.04 82 L121.44 82.43 L120.76 82.77 L120 83 L119.19 83.11 L118.35 83.08 L117.5 82.91 L116.66 82.6 L115.86 82.14 L115.13 81.54 L114.48 80.81 L113.95 79.97 L113.55 79.02 L113.3 78 L113.21 76.93 L113.3 75.82 L113.58 74.73 L114.03 73.66 L114.66 72.66 L115.46 71.75 L116.42 70.97 L117.51 70.33 L118.71 69.87 L120 69.6 L121.34 69.54 L122.7 69.69 L124.05 70.06 L125.34 70.65 L126.54 71.46 L127.62 72.46 L128.54 73.65 L129.28 74.98 L129.81 76.45 L130.1 78 L130.14 79.61 L129.93 81.23 L129.45 82.82 L128.72 84.34 L127.74 85.74 L126.54 87 L125.13 88.06 L123.54 88.9 L121.82 89.49 L120 89.8 L118.13 89.82 L116.25 89.55 L114.41 88.97 L112.66 88.1 L111.06 86.94 L109.63 85.54 L108.43 83.9 L107.48 82.07 L106.83 80.09 L106.5 78 L106.5 75.86 L106.84 73.72 L107.52 71.64 L108.53 69.67 L109.85 67.85 L111.47 66.25 L113.33 64.91 L115.41 63.87 L117.65 63.16 L120 62.8 L122.4 62.82 L124.8 63.22 L127.13 64 L129.33 65.15 L131.35 66.65 L133.12 68.47 L134.6 70.56 L135.75 72.88 L136.52 75.38 L136.9 78 L136.86 80.67 L136.4 83.33 L135.51 85.9 L134.22 88.33 L132.55 90.55 L130.53 92.5 L128.21 94.12 L125.64 95.37 L122.88 96.2 L120 96.6 L117.06 96.54 L114.15 96.01 L111.32 95.03 L108.67 93.6 L106.25 91.75 L104.13 89.53 L102.37 86.98 L101.02 84.17 L100.12 81.15 L99.7 78 L99.78 74.8 L100.37 71.62 L101.46 68.55 L103.03 65.67 L105.04 63.04 L107.47 60.75 L110.24 58.85 L113.31 57.4 L116.59 56.44 L120 56" fill="none" stroke="#7A1E2B" stroke-width="3" stroke-linecap="round"/><path d="M120.16 77.77 L122.52 74.54 M120.91 77.7 L124.72 76.47 M121.56 78.51 L125.36 79.74 M121.36 79.88 L123.71 83.11 M120 81 L120 85 M117.84 80.98 L115.49 84.21 M115.85 79.35 L112.05 80.58 M115.21 76.44 L111.4 75.21 M116.64 73.37 L114.29 70.14 M120 71.6 L120 67.6 M124.16 72.27 L126.51 69.04 M127.38 75.6 L131.18 74.37 M128.03 80.61 L131.83 81.84 M125.36 85.38 L127.71 88.61 M120 87.8 L120 91.8 M113.84 86.48 L111.49 89.71 M109.39 81.45 L105.58 82.68 M108.74 74.34 L104.94 73.11 M112.64 67.87 L110.29 64.64 M120 64.8 L120 60.8 M128.16 66.77 L130.51 63.53 M133.85 73.5 L137.65 72.26 M134.49 82.71 L138.3 83.95 M129.36 90.88 L131.71 94.12 M120 94.6 L120 98.6 M109.84 91.98 L107.49 95.22 M102.92 83.55 L99.11 84.79 M102.27 72.24 L98.47 71 M108.64 62.37 L106.29 59.13 " stroke="#7A1E2B" stroke-width="1"/>
<rect x="22" y="124" width="196" height="24" fill="#7A1E2B"/>
<text x="120" y="140.5" text-anchor="middle" font-size="9.5" font-weight="800" letter-spacing="2" fill="#F6EDDB">KADAK & HONEST</text>
<text x="120" y="26" text-anchor="middle" font-family="'Yatra One',serif" font-size="15" fill="#33241A">भाजणी चकली</text>
</g>
</svg>