<svg xmlns="http://www.w3.org/2000/svg" viewBox="0 0 460 660" font-family="'Mulish',system-ui,sans-serif">
<defs>
  <style>@import url('https://fonts.googleapis.com/css2?family=Fraunces:ital,opsz,wght@0,9..144,400..700;1,9..144,400..700&amp;family=Yatra+One&amp;family=Mulish:wght@400;600;700;800&amp;display=swap');
    .steam-bhajani{stroke:#C8922A;stroke-width:2.4;opacity:.85;stroke-dasharray:.42 .58;stroke-dashoffset:0}
  </style>
  <clipPath id="win-bhajani"><path d="M119 505 L119 414 A39.47 39.47 0 0 1 140.2 353.98 A41.39 41.39 0 0 1 195.7 316.88 A42.53 42.53 0 0 1 264.3 316.88 A41.39 41.39 0 0 1 319.8 353.98 A39.47 39.47 0 0 1 341 414 L341 505 Z"/></clipPath>
  <clipPath id="body-bhajani"><rect x="26" y="22" width="408" height="626" rx="14"/></clipPath>
  <filter id="grain-bhajani"><feTurbulence type="fractalNoise" baseFrequency=".8" numOctaves="2" stitchTiles="stitch" result="n"/><feColorMatrix in="n" type="saturate" values="0"/><feComponentTransfer><feFuncA type="linear" slope=".055"/></feComponentTransfer><feComposite operator="over" in2="SourceGraphic"/></filter>
  <filter id="press-bhajani" x="-8%" y="-8%" width="116%" height="116%"><feOffset dx="0" dy="1" in="SourceAlpha" result="o"/><feGaussianBlur stdDeviation=".5" in="o" result="b"/><feComposite in="b" in2="SourceAlpha" operator="out" result="s"/><feFlood flood-color="#000" flood-opacity=".28"/><feComposite in2="s" operator="in" result="sh"/><feMerge><feMergeNode in="SourceGraphic"/><feMergeNode in="sh"/></feMerge></filter>
  <linearGradient id="sheen-bhajani" x1="0" y1="0" x2="1" y2="0"><stop offset="0" stop-color="#fff" stop-opacity="0"/><stop offset=".18" stop-color="#fff" stop-opacity=".28"/><stop offset=".3" stop-color="#fff" stop-opacity="0"/><stop offset=".82" stop-color="#000" stop-opacity="0"/><stop offset="1" stop-color="#000" stop-opacity=".12"/></linearGradient>
  <radialGradient id="winsh-bhajani" cx=".5" cy=".35" r=".75"><stop offset=".62" stop-color="#000" stop-opacity="0"/><stop offset="1" stop-color="#000" stop-opacity=".38"/></radialGradient>
</defs>

<!-- pouch body -->
<g filter="url(#grain-bhajani)">
<g clip-path="url(#body-bhajani)">
  <rect x="26" y="22" width="408" height="626" rx="14" fill="#F6EDDB"/>
  <rect x="26" y="22" width="408" height="626" rx="14" fill="url(#sheen-bhajani)"/>

  <!-- scalloped frame + hairline -->
  <path d="M52 74 a4.94 4.94 0 0 1 9.89 0 a4.94 4.94 0 0 1 9.89 0 a4.94 4.94 0 0 1 9.89 0 a4.94 4.94 0 0 1 9.89 0 a4.94 4.94 0 0 1 9.89 0 a4.94 4.94 0 0 1 9.89 0 a4.94 4.94 0 0 1 9.89 0 a4.94 4.94 0 0 1 9.89 0 a4.94 4.94 0 0 1 9.89 0 a4.94 4.94 0 0 1 9.89 0 a4.94 4.94 0 0 1 9.89 0 a4.94 4.94 0 0 1 9.89 0 a4.94 4.94 0 0 1 9.89 0 a4.94 4.94 0 0 1 9.89 0 a4.94 4.94 0 0 1 9.89 0 a4.94 4.94 0 0 1 9.89 0 a4.94 4.94 0 0 1 9.89 0 a4.94 4.94 0 0 1 9.89 0 a4.94 4.94 0 0 1 9.89 0 a4.94 4.94 0 0 1 9.89 0 a4.94 4.94 0 0 1 9.89 0 a4.94 4.94 0 0 1 9.89 0 a4.94 4.94 0 0 1 9.89 0 a4.94 4.94 0 0 1 9.89 0 a4.94 4.94 0 0 1 9.89 0 a4.94 4.94 0 0 1 9.89 0 a4.94 4.94 0 0 1 9.89 0 a4.94 4.94 0 0 1 9.89 0 a4.94 4.94 0 0 1 9.89 0 a4.94 4.94 0 0 1 9.89 0 a4.94 4.94 0 0 1 9.89 0 a4.94 4.94 0 0 1 9.89 0 a4.94 4.94 0 0 1 9.89 0 a4.94 4.94 0 0 1 9.89 0 a4.94 4.94 0 0 1 9.89 0 a4.94 4.94 0 0 1 9.89 0 a10 10 0 0 1 10 10 a4.96 4.96 0 0 1 0 9.92 a4.96 4.96 0 0 1 0 9.92 a4.96 4.96 0 0 1 0 9.92 a4.96 4.96 0 0 1 0 9.92 a4.96 4.96 0 0 1 0 9.92 a4.96 4.96 0 0 1 0 9.92 a4.96 4.96 0 0 1 0 9.92 a4.96 4.96 0 0 1 0 9.92 a4.96 4.96 0 0 1 0 9.92 a4.96 4.96 0 0 1 0 9.92 a4.96 4.96 0 0 1 0 9.92 a4.96 4.96 0 0 1 0 9.92 a4.96 4.96 0 0 1 0 9.92 a4.96 4.96 0 0 1 0 9.92 a4.96 4.96 0 0 1 0 9.92 a4.96 4.96 0 0 1 0 9.92 a4.96 4.96 0 0 1 0 9.92 a4.96 4.96 0 0 1 0 9.92 a4.96 4.96 0 0 1 0 9.92 a4.96 4.96 0 0 1 0 9.92 a4.96 4.96 0 0 1 0 9.92 a4.96 4.96 0 0 1 0 9.92 a4.96 4.96 0 0 1 0 9.92 a4.96 4.96 0 0 1 0 9.92 a4.96 4.96 0 0 1 0 9.92 a4.96 4.96 0 0 1 0 9.92 a4.96 4.96 0 0 1 0 9.92 a4.96 4.96 0 0 1 0 9.92 a4.96 4.96 0 0 1 0 9.92 a4.96 4.96 0 0 1 0 9.92 a4.96 4.96 0 0 1 0 9.92 a4.96 4.96 0 0 1 0 9.92 a4.96 4.96 0 0 1 0 9.92 a4.96 4.96 0 0 1 0 9.92 a4.96 4.96 0 0 1 0 9.92 a4.96 4.96 0 0 1 0 9.92 a4.96 4.96 0 0 1 0 9.92 a4.96 4.96 0 0 1 0 9.92 a4.96 4.96 0 0 1 0 9.92 a4.96 4.96 0 0 1 0 9.92 a4.96 4.96 0 0 1 0 9.92 a4.96 4.96 0 0 1 0 9.92 a4.96 4.96 0 0 1 0 9.92 a4.96 4.96 0 0 1 0 9.92 a4.96 4.96 0 0 1 0 9.92 a4.96 4.96 0 0 1 0 9.92 a4.96 4.96 0 0 1 0 9.92 a4.96 4.96 0 0 1 0 9.92 a4.96 4.96 0 0 1 0 9.92 a4.96 4.96 0 0 1 0 9.92 a4.96 4.96 0 0 1 0 9.92 a4.96 4.96 0 0 1 0 9.92 a10 10 0 0 1 -10 10 a4.94 4.94 0 0 1 -9.89 0 a4.94 4.94 0 0 1 -9.89 0 a4.94 4.94 0 0 1 -9.89 0 a4.94 4.94 0 0 1 -9.89 0 a4.94 4.94 0 0 1 -9.89 0 a4.94 4.94 0 0 1 -9.89 0 a4.94 4.94 0 0 1 -9.89 0 a4.94 4.94 0 0 1 -9.89 0 a4.94 4.94 0 0 1 -9.89 0 a4.94 4.94 0 0 1 -9.89 0 a4.94 4.94 0 0 1 -9.89 0 a4.94 4.94 0 0 1 -9.89 0 a4.94 4.94 0 0 1 -9.89 0 a4.94 4.94 0 0 1 -9.89 0 a4.94 4.94 0 0 1 -9.89 0 a4.94 4.94 0 0 1 -9.89 0 a4.94 4.94 0 0 1 -9.89 0 a4.94 4.94 0 0 1 -9.89 0 a4.94 4.94 0 0 1 -9.89 0 a4.94 4.94 0 0 1 -9.89 0 a4.94 4.94 0 0 1 -9.89 0 a4.94 4.94 0 0 1 -9.89 0 a4.94 4.94 0 0 1 -9.89 0 a4.94 4.94 0 0 1 -9.89 0 a4.94 4.94 0 0 1 -9.89 0 a4.94 4.94 0 0 1 -9.89 0 a4.94 4.94 0 0 1 -9.89 0 a4.94 4.94 0 0 1 -9.89 0 a4.94 4.94 0 0 1 -9.89 0 a4.94 4.94 0 0 1 -9.89 0 a4.94 4.94 0 0 1 -9.89 0 a4.94 4.94 0 0 1 -9.89 0 a4.94 4.94 0 0 1 -9.89 0 a4.94 4.94 0 0 1 -9.89 0 a4.94 4.94 0 0 1 -9.89 0 a4.94 4.94 0 0 1 -9.89 0 a10 10 0 0 1 -10 -10 a4.96 4.96 0 0 1 0 -9.92 a4.96 4.96 0 0 1 0 -9.92 a4.96 4.96 0 0 1 0 -9.92 a4.96 4.96 0 0 1 0 -9.92 a4.96 4.96 0 0 1 0 -9.92 a4.96 4.96 0 0 1 0 -9.92 a4.96 4.96 0 0 1 0 -9.92 a4.96 4.96 0 0 1 0 -9.92 a4.96 4.96 0 0 1 0 -9.92 a4.96 4.96 0 0 1 0 -9.92 a4.96 4.96 0 0 1 0 -9.92 a4.96 4.96 0 0 1 0 -9.92 a4.96 4.96 0 0 1 0 -9.92 a4.96 4.96 0 0 1 0 -9.92 a4.96 4.96 0 0 1 0 -9.92 a4.96 4.96 0 0 1 0 -9.92 a4.96 4.96 0 0 1 0 -9.92 a4.96 4.96 0 0 1 0 -9.92 a4.96 4.96 0 0 1 0 -9.92 a4.96 4.96 0 0 1 0 -9.92 a4.96 4.96 0 0 1 0 -9.92 a4.96 4.96 0 0 1 0 -9.92 a4.96 4.96 0 0 1 0 -9.92 a4.96 4.96 0 0 1 0 -9.92 a4.96 4.96 0 0 1 0 -9.92 a4.96 4.96 0 0 1 0 -9.92 a4.96 4.96 0 0 1 0 -9.92 a4.96 4.96 0 0 1 0 -9.92 a4.96 4.96 0 0 1 0 -9.92 a4.96 4.96 0 0 1 0 -9.92 a4.96 4.96 0 0 1 0 -9.92 a4.96 4.96 0 0 1 0 -9.92 a4.96 4.96 0 0 1 0 -9.92 a4.96 4.96 0 0 1 0 -9.92 a4.96 4.96 0 0 1 0 -9.92 a4.96 4.96 0 0 1 0 -9.92 a4.96 4.96 0 0 1 0 -9.92 a4.96 4.96 0 0 1 0 -9.92 a4.96 4.96 0 0 1 0 -9.92 a4.96 4.96 0 0 1 0 -9.92 a4.96 4.96 0 0 1 0 -9.92 a4.96 4.96 0 0 1 0 -9.92 a4.96 4.96 0 0 1 0 -9.92 a4.96 4.96 0 0 1 0 -9.92 a4.96 4.96 0 0 1 0 -9.92 a4.96 4.96 0 0 1 0 -9.92 a4.96 4.96 0 0 1 0 -9.92 a4.96 4.96 0 0 1 0 -9.92 a4.96 4.96 0 0 1 0 -9.92 a4.96 4.96 0 0 1 0 -9.92 a4.96 4.96 0 0 1 0 -9.92 a4.96 4.96 0 0 1 0 -9.92 a10 10 0 0 1 10 -10 Z" fill="none" stroke="#7A1E2B" stroke-width="1.8"/>
  <rect x="53" y="85" width="354" height="514" fill="none" stroke="#C8922A" stroke-width="1"/>

  <!-- paithani strap -->
  <g>
    <rect x="56" y="92" width="348" height="2.08" fill="#C8922A"/>
    <rect x="56" y="115.92" width="348" height="2.08" fill="#C8922A"/>
    <rect x="63.37" y="101.62" width="6.76" height="6.76" fill="#7A1E2B" transform="rotate(45 66.75 105)"/><rect x="77.56" y="101.62" width="6.76" height="6.76" fill="#C8922A" transform="rotate(45 80.94 105)"/><rect x="91.76" y="101.62" width="6.76" height="6.76" fill="#7A1E2B" transform="rotate(45 95.14 105)"/><circle cx="114.2" cy="105" r="1.08" fill="#C8922A"/><circle cx="112.78" cy="108.44" r="1.08" fill="#C8922A"/><circle cx="109.33" cy="109.87" r="1.08" fill="#C8922A"/><circle cx="105.89" cy="108.44" r="1.08" fill="#C8922A"/><circle cx="104.47" cy="105" r="1.08" fill="#C8922A"/><circle cx="105.89" cy="101.56" r="1.08" fill="#C8922A"/><circle cx="109.33" cy="100.13" r="1.08" fill="#C8922A"/><circle cx="112.78" cy="101.56" r="1.08" fill="#C8922A"/><circle cx="109.33" cy="105" r="1.49" fill="#7A1E2B"/><rect x="120.15" y="101.62" width="6.76" height="6.76" fill="#7A1E2B" transform="rotate(45 123.53 105)"/><rect x="134.35" y="101.62" width="6.76" height="6.76" fill="#C8922A" transform="rotate(45 137.73 105)"/><rect x="148.54" y="101.62" width="6.76" height="6.76" fill="#7A1E2B" transform="rotate(45 151.92 105)"/><rect x="162.74" y="101.62" width="6.76" height="6.76" fill="#C8922A" transform="rotate(45 166.12 105)"/><rect x="176.93" y="101.62" width="6.76" height="6.76" fill="#7A1E2B" transform="rotate(45 180.31 105)"/><circle cx="199.38" cy="105" r="1.08" fill="#C8922A"/><circle cx="197.95" cy="108.44" r="1.08" fill="#C8922A"/><circle cx="194.51" cy="109.87" r="1.08" fill="#C8922A"/><circle cx="191.07" cy="108.44" r="1.08" fill="#C8922A"/><circle cx="189.64" cy="105" r="1.08" fill="#C8922A"/><circle cx="191.07" cy="101.56" r="1.08" fill="#C8922A"/><circle cx="194.51" cy="100.13" r="1.08" fill="#C8922A"/><circle cx="197.95" cy="101.56" r="1.08" fill="#C8922A"/><circle cx="194.51" cy="105" r="1.49" fill="#7A1E2B"/><rect x="205.33" y="101.62" width="6.76" height="6.76" fill="#7A1E2B" transform="rotate(45 208.71 105)"/><rect x="219.52" y="101.62" width="6.76" height="6.76" fill="#C8922A" transform="rotate(45 222.9 105)"/><rect x="233.72" y="101.62" width="6.76" height="6.76" fill="#7A1E2B" transform="rotate(45 237.1 105)"/><rect x="247.91" y="101.62" width="6.76" height="6.76" fill="#C8922A" transform="rotate(45 251.29 105)"/><rect x="262.11" y="101.62" width="6.76" height="6.76" fill="#7A1E2B" transform="rotate(45 265.49 105)"/><circle cx="284.55" cy="105" r="1.08" fill="#C8922A"/><circle cx="283.13" cy="108.44" r="1.08" fill="#C8922A"/><circle cx="279.69" cy="109.87" r="1.08" fill="#C8922A"/><circle cx="276.24" cy="108.44" r="1.08" fill="#C8922A"/><circle cx="274.82" cy="105" r="1.08" fill="#C8922A"/><circle cx="276.24" cy="101.56" r="1.08" fill="#C8922A"/><circle cx="279.69" cy="100.13" r="1.08" fill="#C8922A"/><circle cx="283.13" cy="101.56" r="1.08" fill="#C8922A"/><circle cx="279.69" cy="105" r="1.49" fill="#7A1E2B"/><rect x="290.5" y="101.62" width="6.76" height="6.76" fill="#7A1E2B" transform="rotate(45 293.88 105)"/><rect x="304.7" y="101.62" width="6.76" height="6.76" fill="#C8922A" transform="rotate(45 308.08 105)"/><rect x="318.89" y="101.62" width="6.76" height="6.76" fill="#7A1E2B" transform="rotate(45 322.27 105)"/><rect x="333.09" y="101.62" width="6.76" height="6.76" fill="#C8922A" transform="rotate(45 336.47 105)"/><rect x="347.29" y="101.62" width="6.76" height="6.76" fill="#7A1E2B" transform="rotate(45 350.67 105)"/><circle cx="369.73" cy="105" r="1.08" fill="#C8922A"/><circle cx="368.3" cy="108.44" r="1.08" fill="#C8922A"/><circle cx="364.86" cy="109.87" r="1.08" fill="#C8922A"/><circle cx="361.42" cy="108.44" r="1.08" fill="#C8922A"/><circle cx="359.99" cy="105" r="1.08" fill="#C8922A"/><circle cx="361.42" cy="101.56" r="1.08" fill="#C8922A"/><circle cx="364.86" cy="100.13" r="1.08" fill="#C8922A"/><circle cx="368.3" cy="101.56" r="1.08" fill="#C8922A"/><circle cx="364.86" cy="105" r="1.49" fill="#7A1E2B"/><rect x="375.68" y="101.62" width="6.76" height="6.76" fill="#7A1E2B" transform="rotate(45 379.06 105)"/><rect x="389.87" y="101.62" width="6.76" height="6.76" fill="#C8922A" transform="rotate(45 393.25 105)"/>
  </g>

  <!-- roundel -->
  <circle cx="230" cy="168" r="52" fill="#F1E4CB" stroke="#7A1E2B" stroke-width="2.2"/>
  <circle cx="230" cy="168" r="46" fill="none" stroke="#C8922A" stroke-width=".9"/>
  <path id="rup-bhajani" d="M 191 168 a 39 39 0 0 1 78 0" fill="none"/>
  <path id="rdn-bhajani" d="M 190 168 a 40 40 0 0 0 80 0" fill="none"/>
  <text font-size="9.5" font-weight="800" letter-spacing="2.2" fill="#33241A"><textPath href="#rup-bhajani" startOffset="50%" text-anchor="middle">CMAA · आजीचा फराळ</textPath></text>
  <text font-size="8.5" font-weight="700" letter-spacing="2.6" fill="#7A1E2B"><textPath href="#rdn-bhajani" startOffset="50%" text-anchor="middle">PUNE · EST. 2026</textPath></text>
  <path d="M230 165.5 L230.23 165.4 L230.48 165.32 L230.74 165.26 L231.02 165.24 L231.31 165.24 L231.61 165.27 L231.91 165.33 L232.21 165.42 L232.51 165.55 L232.8 165.71 L233.08 165.91 L233.35 166.13 L233.61 166.39 L233.84 166.68 L234.05 167 L234.23 167.34 L234.39 167.71 L234.51 168.1 L234.59 168.51 L234.64 168.94 L234.64 169.38 L234.61 169.82 L234.53 170.27 L234.4 170.72 L234.23 171.17 L234.02 171.61 L233.76 172.03 L233.46 172.43 L233.11 172.82 L232.73 173.17 L232.3 173.49 L231.84 173.78 L231.35 174.03 L230.82 174.24 L230.27 174.4 L229.7 174.51 L229.11 174.57 L228.51 174.57 L227.9 174.52 L227.29 174.41 L226.68 174.25 L226.08 174.02 L225.5 173.74 L224.93 173.4 L224.39 173 L223.88 172.56 L223.4 172.05 L222.97 171.51 L222.59 170.91 L222.25 170.28 L221.97 169.6 L221.75 168.9 L221.59 168.17 L221.5 167.42 L221.47 166.65 L221.52 165.87 L221.63 165.09 L221.82 164.32 L222.08 163.56 L222.41 162.81 L222.81 162.09 L223.29 161.4 L223.82 160.75 L224.42 160.14 L225.08 159.58 L225.8 159.08 L226.57 158.64 L227.38 158.26 L228.23 157.96 L229.12 157.73 L230.03 157.58 L230.96 157.51 L231.9 157.53 L232.85 157.63 L233.8 157.82 L234.73 158.09 L235.64 158.46 L236.53 158.9 L237.38 159.43 L238.19 160.04 L238.95 160.72 L239.65 161.48 L240.29 162.31 L240.85 163.19 L241.34 164.14 L241.75 165.13 L242.06 166.16 L242.29 167.23 L242.42 168.32 L242.46 169.43 L242.39 170.55 L242.22 171.67 L241.96 172.77 L241.59 173.86 L241.12 174.92 L240.55 175.95 L239.89 176.92 L239.14 177.84 L238.3 178.7 L237.38 179.49 L236.39 180.19 L235.33 180.81 L234.21 181.34 L233.04 181.77 L231.82 182.1 L230.57 182.31 L229.3 182.42 L228.01 182.41 L226.72 182.29 L225.44 182.05 L224.17 181.69 L222.93 181.22 L221.73 180.64 L220.57 179.94 L219.48 179.14 L218.45 178.24 L217.5 177.25 L216.63 176.16 L215.86 175 L215.2 173.76 L214.64 172.46 L214.19 171.11 L213.87 169.71 L213.67 168.28 L213.6 166.83 L213.66 165.36 L213.85 163.9 L214.17 162.45 L214.62 161.03 L215.2 159.64 L215.9 158.3 L216.73 157.02 L217.67 155.81 L218.73 154.68 L219.88 153.65 L221.14 152.71 L222.47 151.89 L223.89 151.18 L225.37 150.6 L226.91 150.15 L228.49 149.83 L230.1 149.66 L231.74 149.63 L233.37 149.75 L235 150.01 L236.62 150.42 L238.19 150.97 L239.72 151.67 L241.19 152.5 L242.59 153.47 L243.91 154.56 L245.13 155.77 L246.25 157.09 L247.24 158.52 L248.12 160.04 L248.86 161.63 L249.45 163.3 L249.9 165.02 L250.2 166.79 L250.34 168.58 L250.32 170.39 L250.14 172.2 L249.79 174 L249.29 175.76 L248.63 177.49 L247.81 179.16 L246.84 180.76 L245.73 182.27 L244.48 183.69 L243.11 185 L241.61 186.18 L240.01 187.24 L238.31 188.15 L236.53 188.91 L234.68 189.52 L232.77 189.96 L230.83 190.23 L228.85 190.33 L226.87 190.25 L224.89 189.99 L222.93 189.56 L221 188.95 L219.13 188.17 L217.33 187.23 L215.61 186.12 L213.99 184.86 L212.48 183.45 L211.09 181.9 L209.84 180.24 L208.74 178.45 L207.79 176.57 L207.01 174.61 L206.41 172.57 L205.99 170.48 L205.75 168.35 L205.7 166.19 L205.85 164.03 L206.19 161.89 L206.72 159.77 L207.43 157.69 L208.34 155.68 L209.42 153.75 L210.67 151.92 L212.09 150.19 L213.66 148.59 L215.38 147.13 L217.23 145.83 L219.19 144.68 L221.26 143.71 L223.41 142.93 L225.63 142.33 L227.91 141.94 L230.22 141.74 L232.56 141.75 L234.89 141.97 L237.2 142.4 L239.48 143.03 L241.69 143.87 L243.84 144.9 L245.89 146.12" fill="none" stroke="#7A1E2B" stroke-width="3.4" stroke-linecap="round"/>
  <path d="M230.3 167.33 L232.19 163.14 M230.95 167.16 L234.4 164.11 M231.72 167.47 L236.11 166.11 M232.32 168.29 L236.88 168.85 M232.45 169.49 L236.38 171.88 M231.92 170.8 L234.52 174.6 M230.69 171.87 L231.51 176.4 M228.91 172.33 L227.79 176.8 M226.9 171.92 L224.04 175.53 M225.09 170.55 L221 172.66 M223.94 168.33 L219.35 168.58 M223.84 165.62 L219.55 163.96 M224.99 162.92 L221.76 159.65 M227.33 160.81 L225.73 156.5 M230.56 159.82 L230.87 155.23 M234.12 160.3 L236.3 156.24 M237.35 162.35 L240.99 159.54 M239.54 165.74 L244.02 164.69 M240.15 169.96 L244.66 170.84 M238.88 174.27 L242.64 176.92 M235.79 177.82 L238.13 181.79 M231.3 179.87 L231.8 184.44 M226.15 179.86 L224.73 184.23 M221.26 177.62 L218.16 181.03 M217.58 173.39 L213.36 175.23 M215.93 167.81 L211.33 167.74 M216.77 161.82 L212.6 159.87 M220.13 156.52 L217.13 153.04 M225.57 152.97 L224.26 148.56 M232.21 151.95 L232.83 147.39 M238.89 153.82 L241.33 149.92 M244.38 158.43 L248.21 155.88 M247.57 165.09 L252.1 164.34 M247.72 172.71 L252.17 173.89 M244.64 179.91 L248.21 182.81 M238.69 185.35 L240.75 189.46 M230.82 187.92 L231.01 192.52 M222.36 186.99 L220.64 191.26 M214.85 182.55 L211.53 185.73 M209.7 175.21 L205.37 176.75 M208 166.19 L203.42 165.82 M210.22 157.06 L206.2 154.83 M216.14 149.47 L213.39 145.78 M224.87 144.89 L223.87 140.4 M234.92 144.3 L235.86 139.8 " stroke="#7A1E2B" stroke-width="1.1" opacity=".8"/>

  <!-- sign-painter devanagari name -->
  <g filter="url(#press-bhajani)" font-family="'Yatra One','Mukta',serif" text-anchor="middle" font-size="43">
    <text x="232.5" y="262.5" fill="#57121E" opacity=".92">भाजणी चकली</text>
    <text x="230" y="260" fill="#33241A">भाजणी चकली</text>
  </g>
  <g>
    <path d="M98.2 278.08 L124.16 278.08 L124.16 303.16 L118 297 L107.44 287.54 Z" fill="#57121E"/>
    <path d="M361.8 278.08 L335.84 278.08 L335.84 303.16 L342 297 L352.56 287.54 Z" fill="#57121E"/>
    <rect x="118" y="275" width="224" height="22" fill="#7A1E2B"/>
  </g>
  <text x="230" y="291" text-anchor="middle" font-size="11.5" font-weight="800" letter-spacing="2.8" fill="#F6EDDB">BHAJANI CHAKLI</text>

  <!-- die-cut arch window with REAL product photo (warm-graded) -->
  <path d="M112 512 L112 414 A41.96 41.96 0 0 1 134.54 350.19 A44 44 0 0 1 193.54 310.75 A45.21 45.21 0 0 1 266.46 310.75 A44 44 0 0 1 325.46 350.19 A41.96 41.96 0 0 1 348 414 L348 512 Z" fill="#57121E"/>
  <g clip-path="url(#win-bhajani)">
    <image href="../../images/chakli-1.jpg" x="82" y="290" width="296" height="256" preserveAspectRatio="xMidYMid slice" style="filter:saturate(1.28) contrast(1.06) brightness(1.04)"/>
    <path d="M119 505 L119 414 A39.47 39.47 0 0 1 140.2 353.98 A41.39 41.39 0 0 1 195.7 316.88 A42.53 42.53 0 0 1 264.3 316.88 A41.39 41.39 0 0 1 319.8 353.98 A39.47 39.47 0 0 1 341 414 L341 505 Z" fill="#7A1E2B" style="mix-blend-mode:multiply" opacity=".13"/>
    <path d="M119 505 L119 414 A39.47 39.47 0 0 1 140.2 353.98 A41.39 41.39 0 0 1 195.7 316.88 A42.53 42.53 0 0 1 264.3 316.88 A41.39 41.39 0 0 1 319.8 353.98 A39.47 39.47 0 0 1 341 414 L341 505 Z" fill="url(#winsh-bhajani)"/>
  </g>
  <path d="M119 505 L119 414 A39.47 39.47 0 0 1 140.2 353.98 A41.39 41.39 0 0 1 195.7 316.88 A42.53 42.53 0 0 1 264.3 316.88 A41.39 41.39 0 0 1 319.8 353.98 A39.47 39.47 0 0 1 341 414 L341 505 Z" fill="none" stroke="#C8922A" stroke-width="1.6"/>
  <path d="M112 512 L112 414 A41.96 41.96 0 0 1 134.54 350.19 A44 44 0 0 1 193.54 310.75 A45.21 45.21 0 0 1 266.46 310.75 A44 44 0 0 1 325.46 350.19 A41.96 41.96 0 0 1 348 414 L348 512 Z" fill="none" stroke="#7A1E2B" stroke-width="2.4"/>

  <!-- flanking snack-geometry columns: spiral / crescent / diamond dots -->
  <g fill="none" stroke="#7A1E2B" stroke-width="1.4" opacity=".85">
    <path d="M86 356.8 L86.33 356.71 L86.7 356.72 L87.09 356.84 L87.45 357.08 L87.76 357.43 L87.98 357.88 L88.07 358.4 L88.03 358.95 L87.83 359.51 L87.47 360.02 L86.97 360.45 L86.35 360.74 L85.64 360.87 L84.89 360.81 L84.15 360.55 L83.47 360.09 L82.91 359.45 L82.52 358.66 L82.34 357.77 L82.39 356.83 L82.68 355.89 L83.22 355.04 L83.98 354.33 L84.93 353.82 L86 353.55 L87.14 353.56 L88.27 353.87 L89.31 354.47 L90.2 355.34 L90.85 356.42 L91.22 357.67 L91.27 359 L90.97 360.34 L90.33 361.58 L89.38 362.65 L88.16 363.47 L86.75 363.96 L85.23 364.09 L83.69 363.83 L82.24 363.18 L80.97 362.16 L79.97 360.84 L79.33 359.27 L79.09 357.57 L79.3 355.82 L79.94 354.15 L81 352.67 L82.42 351.48 L84.12 350.67 L86 350.3 L87.95 350.42 L89.83 351.02 L91.54 352.1 L92.94 353.6 L93.94 355.42 L94.46 357.47 L94.46 359.61 L93.91 361.72 L92.83 363.65 L91.29 365.28"/>
    <path d="M374 356.8 L374.33 356.71 L374.7 356.72 L375.09 356.84 L375.45 357.08 L375.76 357.43 L375.98 357.88 L376.07 358.4 L376.03 358.95 L375.83 359.51 L375.47 360.02 L374.97 360.45 L374.35 360.74 L373.64 360.87 L372.89 360.81 L372.15 360.55 L371.47 360.09 L370.91 359.45 L370.52 358.66 L370.34 357.77 L370.39 356.83 L370.68 355.89 L371.22 355.04 L371.98 354.33 L372.93 353.82 L374 353.55 L375.14 353.56 L376.27 353.87 L377.31 354.47 L378.2 355.34 L378.85 356.42 L379.22 357.67 L379.27 359 L378.97 360.34 L378.33 361.58 L377.38 362.65 L376.16 363.47 L374.75 363.96 L373.23 364.09 L371.69 363.83 L370.24 363.18 L368.97 362.16 L367.97 360.84 L367.33 359.27 L367.09 357.57 L367.3 355.82 L367.94 354.15 L369 352.67 L370.42 351.48 L372.12 350.67 L374 350.3 L375.95 350.42 L377.83 351.02 L379.54 352.1 L380.94 353.6 L381.94 355.42 L382.46 357.47 L382.46 359.61 L381.91 361.72 L380.83 363.65 L379.29 365.28"/>
    <path d="M79 392 a 8.5 8.5 0 1 0 14 0 a 6.8 6.8 0 1 1 -14 0" fill="#C8922A" stroke="none" opacity=".9"/>
    <rect x="369" y="386" width="9" height="9" transform="rotate(45 373.5 390.5)" fill="#C8922A" stroke="none" opacity=".9"/><path d="M86 418.8 L86.33 418.71 L86.7 418.72 L87.09 418.84 L87.45 419.08 L87.76 419.43 L87.98 419.88 L88.07 420.4 L88.03 420.95 L87.83 421.51 L87.47 422.02 L86.97 422.45 L86.35 422.74 L85.64 422.87 L84.89 422.81 L84.15 422.55 L83.47 422.09 L82.91 421.45 L82.52 420.66 L82.34 419.77 L82.39 418.83 L82.68 417.89 L83.22 417.04 L83.98 416.33 L84.93 415.82 L86 415.55 L87.14 415.56 L88.27 415.87 L89.31 416.47 L90.2 417.34 L90.85 418.42 L91.22 419.67 L91.27 421 L90.97 422.34 L90.33 423.58 L89.38 424.65 L88.16 425.47 L86.75 425.96 L85.23 426.09 L83.69 425.83 L82.24 425.18 L80.97 424.16 L79.97 422.84 L79.33 421.27 L79.09 419.57 L79.3 417.82 L79.94 416.15 L81 414.67 L82.42 413.48 L84.12 412.67 L86 412.3 L87.95 412.42 L89.83 413.02 L91.54 414.1 L92.94 415.6 L93.94 417.42 L94.46 419.47 L94.46 421.61 L93.91 423.72 L92.83 425.65 L91.29 427.28"/>
    <path d="M374 418.8 L374.33 418.71 L374.7 418.72 L375.09 418.84 L375.45 419.08 L375.76 419.43 L375.98 419.88 L376.07 420.4 L376.03 420.95 L375.83 421.51 L375.47 422.02 L374.97 422.45 L374.35 422.74 L373.64 422.87 L372.89 422.81 L372.15 422.55 L371.47 422.09 L370.91 421.45 L370.52 420.66 L370.34 419.77 L370.39 418.83 L370.68 417.89 L371.22 417.04 L371.98 416.33 L372.93 415.82 L374 415.55 L375.14 415.56 L376.27 415.87 L377.31 416.47 L378.2 417.34 L378.85 418.42 L379.22 419.67 L379.27 421 L378.97 422.34 L378.33 423.58 L377.38 424.65 L376.16 425.47 L374.75 425.96 L373.23 426.09 L371.69 425.83 L370.24 425.18 L368.97 424.16 L367.97 422.84 L367.33 421.27 L367.09 419.57 L367.3 417.82 L367.94 416.15 L369 414.67 L370.42 413.48 L372.12 412.67 L374 412.3 L375.95 412.42 L377.83 413.02 L379.54 414.1 L380.94 415.6 L381.94 417.42 L382.46 419.47 L382.46 421.61 L381.91 423.72 L380.83 425.65 L379.29 427.28"/>
    <path d="M79 454 a 8.5 8.5 0 1 0 14 0 a 6.8 6.8 0 1 1 -14 0" fill="#C8922A" stroke="none" opacity=".9"/>
    <rect x="369" y="448" width="9" height="9" transform="rotate(45 373.5 452.5)" fill="#C8922A" stroke="none" opacity=".9"/><path d="M86 480.8 L86.33 480.71 L86.7 480.72 L87.09 480.84 L87.45 481.08 L87.76 481.43 L87.98 481.88 L88.07 482.4 L88.03 482.95 L87.83 483.51 L87.47 484.02 L86.97 484.45 L86.35 484.74 L85.64 484.87 L84.89 484.81 L84.15 484.55 L83.47 484.09 L82.91 483.45 L82.52 482.66 L82.34 481.77 L82.39 480.83 L82.68 479.89 L83.22 479.04 L83.98 478.33 L84.93 477.82 L86 477.55 L87.14 477.56 L88.27 477.87 L89.31 478.47 L90.2 479.34 L90.85 480.42 L91.22 481.67 L91.27 483 L90.97 484.34 L90.33 485.58 L89.38 486.65 L88.16 487.47 L86.75 487.96 L85.23 488.09 L83.69 487.83 L82.24 487.18 L80.97 486.16 L79.97 484.84 L79.33 483.27 L79.09 481.57 L79.3 479.82 L79.94 478.15 L81 476.67 L82.42 475.48 L84.12 474.67 L86 474.3 L87.95 474.42 L89.83 475.02 L91.54 476.1 L92.94 477.6 L93.94 479.42 L94.46 481.47 L94.46 483.61 L93.91 485.72 L92.83 487.65 L91.29 489.28"/>
    <path d="M374 480.8 L374.33 480.71 L374.7 480.72 L375.09 480.84 L375.45 481.08 L375.76 481.43 L375.98 481.88 L376.07 482.4 L376.03 482.95 L375.83 483.51 L375.47 484.02 L374.97 484.45 L374.35 484.74 L373.64 484.87 L372.89 484.81 L372.15 484.55 L371.47 484.09 L370.91 483.45 L370.52 482.66 L370.34 481.77 L370.39 480.83 L370.68 479.89 L371.22 479.04 L371.98 478.33 L372.93 477.82 L374 477.55 L375.14 477.56 L376.27 477.87 L377.31 478.47 L378.2 479.34 L378.85 480.42 L379.22 481.67 L379.27 483 L378.97 484.34 L378.33 485.58 L377.38 486.65 L376.16 487.47 L374.75 487.96 L373.23 488.09 L371.69 487.83 L370.24 487.18 L368.97 486.16 L367.97 484.84 L367.33 483.27 L367.09 481.57 L367.3 479.82 L367.94 478.15 L369 476.67 L370.42 475.48 L372.12 474.67 L374 474.3 L375.95 474.42 L377.83 475.02 L379.54 476.1 L380.94 477.6 L381.94 479.42 L382.46 481.47 L382.46 483.61 L381.91 485.72 L380.83 487.65 L379.29 489.28"/>
    <path d="M79 516 a 8.5 8.5 0 1 0 14 0 a 6.8 6.8 0 1 1 -14 0" fill="#C8922A" stroke="none" opacity=".9"/>
    <rect x="369" y="510" width="9" height="9" transform="rotate(45 373.5 514.5)" fill="#C8922A" stroke="none" opacity=".9"/>
  </g>

  <!-- truth strip -->
  <text x="230" y="540" text-anchor="middle" font-family="'Yatra One',serif" font-size="15.5" fill="#33241A">तांदूळ · डाळी · तीळ · देशी तूप — बस्स.</text>
  <path d="M118 549 q 112 8 224 0" fill="none" stroke="#C8922A" stroke-width="1.4" stroke-linecap="round"/>
  <text x="230" y="563" text-anchor="middle" font-size="10.5" font-style="italic" font-family="'Fraunces',serif" fill="#6B573F">rice · four dals · sesame · ghee — that’s all.</text>

  <!-- meta row -->
  <g transform="translate(60 578)">
    <rect x="0" y="0" width="17" height="17" fill="none" stroke="#2E7D32" stroke-width="1.6"/><circle cx="8.5" cy="8.5" r="4.4" fill="#2E7D32"/>
  </g>
  <text x="230" y="586" text-anchor="middle" font-size="10" font-weight="700" letter-spacing="1.4" fill="#6B573F">NET WT</text>
  <text x="230" y="601" text-anchor="middle" font-family="'Fraunces',serif" font-size="17" font-weight="700" fill="#33241A">200 g</text>
  <g><g transform="translate(350 578) rotate(18)"><path d="M0 2 C -1 8, 3 13, 6 14 C 4 9, 4 4, 3 1 Z" fill="#B3202C" stroke="#B3202C" stroke-width="1"/><path d="M3 1 q 2 -3 5 -2" fill="none" stroke="#35582F" stroke-width="1.4"/></g><g transform="translate(365 578) rotate(18)"><path d="M0 2 C -1 8, 3 13, 6 14 C 4 9, 4 4, 3 1 Z" fill="#B3202C" stroke="#B3202C" stroke-width="1"/><path d="M3 1 q 2 -3 5 -2" fill="none" stroke="#35582F" stroke-width="1.4"/></g><g transform="translate(380 578) rotate(18)"><path d="M0 2 C -1 8, 3 13, 6 14 C 4 9, 4 4, 3 1 Z" fill="none" stroke="#B3202C" stroke-width="1"/><path d="M3 1 q 2 -3 5 -2" fill="none" stroke="#35582F" stroke-width="1.4"/></g></g>

  <!-- credentials footer -->
  <rect x="26" y="614" width="408" height="34" fill="#7A1E2B"/>
  <text x="230" y="635" text-anchor="middle" font-size="10.5" font-weight="800" letter-spacing="2.4" fill="#F6EDDB">BATCH SB-11 · PACKED 02·07·26 · NO PRESERVATIVES</text>
</g>

<!-- crimp seal -->
<path d="M26 30 l7.85 -7 l7.85 7 l7.85 7 l7.85 -7 l7.85 -7 l7.85 7 l7.85 7 l7.85 -7 l7.85 -7 l7.85 7 l7.85 7 l7.85 -7 l7.85 -7 l7.85 7 l7.85 7 l7.85 -7 l7.85 -7 l7.85 7 l7.85 7 l7.85 -7 l7.85 -7 l7.85 7 l7.85 7 l7.85 -7 l7.85 -7 l7.85 7 l7.85 7 l7.85 -7 l7.85 -7 l7.85 7 l7.85 7 l7.85 -7 l7.85 -7 l7.85 7 l7.85 7 l7.85 -7 l7.85 -7 l7.85 7 l7.85 7 l7.85 -7 l7.85 -7 l7.85 7 l7.85 7 l7.85 -7 l7.85 -7 l7.85 7 l7.85 7 l7.85 -7 l7.85 -7 l7.85 7 l7.85 7 l7.85 -7" fill="none" stroke="#57121E" stroke-width="2.2"/>
<rect x="26" y="12" width="408" height="15" rx="6" fill="#F1E4CB" stroke="#57121E" stroke-width="1.4"/>
<circle cx="230" cy="19.5" r="3.4" fill="none" stroke="#57121E" stroke-width="1.3"/>
</g>
</svg>