<svg xmlns="http://www.w3.org/2000/svg" viewBox="0 0 520 560" font-family="'Mulish',system-ui,sans-serif">
<defs>
  <style>@import url('https://fonts.googleapis.com/css2?family=Fraunces:ital,opsz,wght@0,9..144,400..700;1,9..144,400..700&amp;family=Yatra+One&amp;family=Mulish:wght@400;600;700;800&amp;display=swap');</style>
  <clipPath id="tin-win"><path d="M191 428 L191 374 A24.53 24.53 0 0 1 204.18 336.69 A25.73 25.73 0 0 1 238.68 313.63 A26.44 26.44 0 0 1 281.32 313.63 A25.73 25.73 0 0 1 315.82 336.69 A24.53 24.53 0 0 1 329 374 L329 428 Z"/></clipPath>
  <linearGradient id="tin-shade" x1="0" y1="0" x2="1" y2="0">
    <stop offset="0" stop-color="#000" stop-opacity=".42"/><stop offset=".12" stop-color="#000" stop-opacity="0"/>
    <stop offset=".38" stop-color="#fff" stop-opacity=".16"/><stop offset=".62" stop-color="#fff" stop-opacity="0"/>
    <stop offset="1" stop-color="#000" stop-opacity=".5"/>
  </linearGradient>
  <linearGradient id="lid-shade" x1="0" y1="0" x2="0" y2="1"><stop offset="0" stop-color="#fff" stop-opacity=".22"/><stop offset="1" stop-color="#000" stop-opacity=".25"/></linearGradient>
  <filter id="tin-grain"><feTurbulence type="fractalNoise" baseFrequency=".8" numOctaves="2" stitchTiles="stitch"/><feColorMatrix type="saturate" values="0"/><feComponentTransfer><feFuncA type="linear" slope=".05"/></feComponentTransfer><feComposite operator="over" in2="SourceGraphic"/></filter>
</defs>
<g filter="url(#tin-grain)">
  <!-- contact shadow -->
  <ellipse cx="260" cy="492" rx="210" ry="18" fill="#000" opacity=".28"/>
  <!-- drum -->
  <path d="M60 120 L60 480 A 200 46 0 0 0 460 480 L460 120 Z" fill="#1E1A17"/>
  <!-- wrap band artwork: ivory paper wrap on black drum -->
  <g>
    <path d="M60 178 L60 454 A 200 46 0 0 0 460 454 L460 178 A 200 46 0 0 0 60 178 Z" fill="#EFE3C8"/>
    <g>
    <rect x="74" y="198" width="372" height="1.92" fill="#D4A23C"/>
    <rect x="74" y="220.08" width="372" height="1.92" fill="#D4A23C"/>
    <rect x="79.98" y="206.88" width="6.24" height="6.24" fill="#7A1E2B" transform="rotate(45 83.1 210)"/><rect x="93.08" y="206.88" width="6.24" height="6.24" fill="#D4A23C" transform="rotate(45 96.2 210)"/><rect x="106.18" y="206.88" width="6.24" height="6.24" fill="#7A1E2B" transform="rotate(45 109.3 210)"/><circle cx="126.9" cy="210" r="1" fill="#D4A23C"/><circle cx="125.58" cy="213.18" r="1" fill="#D4A23C"/><circle cx="122.41" cy="214.49" r="1" fill="#D4A23C"/><circle cx="119.23" cy="213.18" r="1" fill="#D4A23C"/><circle cx="117.92" cy="210" r="1" fill="#D4A23C"/><circle cx="119.23" cy="206.82" r="1" fill="#D4A23C"/><circle cx="122.41" cy="205.51" r="1" fill="#D4A23C"/><circle cx="125.58" cy="206.82" r="1" fill="#D4A23C"/><circle cx="122.41" cy="210" r="1.37" fill="#7A1E2B"/><rect x="132.39" y="206.88" width="6.24" height="6.24" fill="#7A1E2B" transform="rotate(45 135.51 210)"/><rect x="145.5" y="206.88" width="6.24" height="6.24" fill="#D4A23C" transform="rotate(45 148.62 210)"/><rect x="158.6" y="206.88" width="6.24" height="6.24" fill="#7A1E2B" transform="rotate(45 161.72 210)"/><rect x="171.7" y="206.88" width="6.24" height="6.24" fill="#D4A23C" transform="rotate(45 174.82 210)"/><rect x="184.81" y="206.88" width="6.24" height="6.24" fill="#7A1E2B" transform="rotate(45 187.93 210)"/><circle cx="205.52" cy="210" r="1" fill="#D4A23C"/><circle cx="204.21" cy="213.18" r="1" fill="#D4A23C"/><circle cx="201.03" cy="214.49" r="1" fill="#D4A23C"/><circle cx="197.86" cy="213.18" r="1" fill="#D4A23C"/><circle cx="196.54" cy="210" r="1" fill="#D4A23C"/><circle cx="197.86" cy="206.82" r="1" fill="#D4A23C"/><circle cx="201.03" cy="205.51" r="1" fill="#D4A23C"/><circle cx="204.21" cy="206.82" r="1" fill="#D4A23C"/><circle cx="201.03" cy="210" r="1.37" fill="#7A1E2B"/><rect x="211.02" y="206.88" width="6.24" height="6.24" fill="#7A1E2B" transform="rotate(45 214.14 210)"/><rect x="224.12" y="206.88" width="6.24" height="6.24" fill="#D4A23C" transform="rotate(45 227.24 210)"/><rect x="237.22" y="206.88" width="6.24" height="6.24" fill="#7A1E2B" transform="rotate(45 240.34 210)"/><rect x="250.33" y="206.88" width="6.24" height="6.24" fill="#D4A23C" transform="rotate(45 253.45 210)"/><rect x="263.43" y="206.88" width="6.24" height="6.24" fill="#7A1E2B" transform="rotate(45 266.55 210)"/><circle cx="284.15" cy="210" r="1" fill="#D4A23C"/><circle cx="282.83" cy="213.18" r="1" fill="#D4A23C"/><circle cx="279.66" cy="214.49" r="1" fill="#D4A23C"/><circle cx="276.48" cy="213.18" r="1" fill="#D4A23C"/><circle cx="275.16" cy="210" r="1" fill="#D4A23C"/><circle cx="276.48" cy="206.82" r="1" fill="#D4A23C"/><circle cx="279.66" cy="205.51" r="1" fill="#D4A23C"/><circle cx="282.83" cy="206.82" r="1" fill="#D4A23C"/><circle cx="279.66" cy="210" r="1.37" fill="#7A1E2B"/><rect x="289.64" y="206.88" width="6.24" height="6.24" fill="#7A1E2B" transform="rotate(45 292.76 210)"/><rect x="302.74" y="206.88" width="6.24" height="6.24" fill="#D4A23C" transform="rotate(45 305.86 210)"/><rect x="315.85" y="206.88" width="6.24" height="6.24" fill="#7A1E2B" transform="rotate(45 318.97 210)"/><rect x="328.95" y="206.88" width="6.24" height="6.24" fill="#D4A23C" transform="rotate(45 332.07 210)"/><rect x="342.06" y="206.88" width="6.24" height="6.24" fill="#7A1E2B" transform="rotate(45 345.18 210)"/><circle cx="362.77" cy="210" r="1" fill="#D4A23C"/><circle cx="361.46" cy="213.18" r="1" fill="#D4A23C"/><circle cx="358.28" cy="214.49" r="1" fill="#D4A23C"/><circle cx="355.1" cy="213.18" r="1" fill="#D4A23C"/><circle cx="353.79" cy="210" r="1" fill="#D4A23C"/><circle cx="355.1" cy="206.82" r="1" fill="#D4A23C"/><circle cx="358.28" cy="205.51" r="1" fill="#D4A23C"/><circle cx="361.46" cy="206.82" r="1" fill="#D4A23C"/><circle cx="358.28" cy="210" r="1.37" fill="#7A1E2B"/><rect x="368.26" y="206.88" width="6.24" height="6.24" fill="#7A1E2B" transform="rotate(45 371.38 210)"/><rect x="381.37" y="206.88" width="6.24" height="6.24" fill="#D4A23C" transform="rotate(45 384.49 210)"/><rect x="394.47" y="206.88" width="6.24" height="6.24" fill="#7A1E2B" transform="rotate(45 397.59 210)"/><rect x="407.58" y="206.88" width="6.24" height="6.24" fill="#D4A23C" transform="rotate(45 410.7 210)"/><rect x="420.68" y="206.88" width="6.24" height="6.24" fill="#7A1E2B" transform="rotate(45 423.8 210)"/><circle cx="441.4" cy="210" r="1" fill="#D4A23C"/><circle cx="440.08" cy="213.18" r="1" fill="#D4A23C"/><circle cx="436.9" cy="214.49" r="1" fill="#D4A23C"/><circle cx="433.73" cy="213.18" r="1" fill="#D4A23C"/><circle cx="432.41" cy="210" r="1" fill="#D4A23C"/><circle cx="433.73" cy="206.82" r="1" fill="#D4A23C"/><circle cx="436.9" cy="205.51" r="1" fill="#D4A23C"/><circle cx="440.08" cy="206.82" r="1" fill="#D4A23C"/><circle cx="436.9" cy="210" r="1.37" fill="#7A1E2B"/>
  </g>
    <g font-family="'Yatra One',serif" text-anchor="middle">
      <text x="262" y="272" font-size="38" fill="#D4A23C">दिवाळी फराळ</text>
      <text x="260" y="270" font-size="38" fill="#7A1E2B">दिवाळी फराळ</text>
    </g>
    <text x="260" y="292" text-anchor="middle" font-size="11.5" font-weight="800" letter-spacing="4" fill="#1E1A17">THE FARAL DABBA · SIX SNACKS · ONE TIN</text>
    <path d="M170 302 h 180" stroke="#D4A23C" stroke-width="1.2"/>
    <path d="M185 434 L185 374 A26.67 26.67 0 0 1 199.32 333.44 A27.96 27.96 0 0 1 236.82 308.38 A28.74 28.74 0 0 1 283.18 308.38 A27.96 27.96 0 0 1 320.68 333.44 A26.67 26.67 0 0 1 335 374 L335 434 Z" fill="#7A1E2B"/>
    <g clip-path="url(#tin-win)"><image href="../../images/faral.jpg" x="125" y="259" width="270" height="240" preserveAspectRatio="xMidYMid slice" style="filter:saturate(1.3) contrast(1.08) brightness(1.05)"/><path d="M191 428 L191 374 A24.53 24.53 0 0 1 204.18 336.69 A25.73 25.73 0 0 1 238.68 313.63 A26.44 26.44 0 0 1 281.32 313.63 A25.73 25.73 0 0 1 315.82 336.69 A24.53 24.53 0 0 1 329 374 L329 428 Z" fill="#7A1E2B" style="mix-blend-mode:multiply" opacity=".12"/></g>
    <path d="M191 428 L191 374 A24.53 24.53 0 0 1 204.18 336.69 A25.73 25.73 0 0 1 238.68 313.63 A26.44 26.44 0 0 1 281.32 313.63 A25.73 25.73 0 0 1 315.82 336.69 A24.53 24.53 0 0 1 329 374 L329 428 Z" fill="none" stroke="#D4A23C" stroke-width="1.6"/>
    <path d="M185 434 L185 374 A26.67 26.67 0 0 1 199.32 333.44 A27.96 27.96 0 0 1 236.82 308.38 A28.74 28.74 0 0 1 283.18 308.38 A27.96 27.96 0 0 1 320.68 333.44 A26.67 26.67 0 0 1 335 374 L335 434 Z" fill="none" stroke="#7A1E2B" stroke-width="2"/>
    <g transform="rotate(0 94 338)" fill="none" stroke="#7A1E2B" stroke-width="1.6" opacity=".65" stroke-linecap="round"><g transform="rotate(0 94 338)">
      <path d="M94 338 q 4.32 -13.2 0 -22.8 q -4.32 9.6 0 22.8"/>
    </g><g transform="rotate(45 94 338)">
      <path d="M94 338 q 4.32 -13.2 0 -22.8 q -4.32 9.6 0 22.8"/>
    </g><circle cx="103.92" cy="314.05" r="2" fill="#7A1E2B" stroke="none"/><circle cx="117.95" cy="328.08" r="2" fill="#7A1E2B" stroke="none"/></g>
    <g transform="rotate(90 426 338)" fill="none" stroke="#7A1E2B" stroke-width="1.6" opacity=".65" stroke-linecap="round"><g transform="rotate(0 426 338)">
      <path d="M426 338 q 4.32 -13.2 0 -22.8 q -4.32 9.6 0 22.8"/>
    </g><g transform="rotate(45 426 338)">
      <path d="M426 338 q 4.32 -13.2 0 -22.8 q -4.32 9.6 0 22.8"/>
    </g><circle cx="435.92" cy="314.05" r="2" fill="#7A1E2B" stroke="none"/><circle cx="449.95" cy="328.08" r="2" fill="#7A1E2B" stroke="none"/></g>
    <g fill="#3E7C43">
      <path d="M106 406 a 10 10 0 1 0 16 0 a 8 8 0 1 1 -16 0"/>
      <rect x="398" y="401" width="11" height="11" transform="rotate(45 403.5 406.5)"/>
    </g>
    <text x="260" y="438" text-anchor="middle" font-size="10.5" font-style="italic" font-family="'Fraunces',serif" fill="#6B573F">packed by hand in Kothrud, Pune — send it like your maa would.</text>
  </g>
  <!-- drum shading -->
  <path d="M60 120 L60 480 A 200 46 0 0 0 460 480 L460 120 Z" fill="url(#tin-shade)"/>
  <!-- lid -->
  <ellipse cx="260" cy="120" rx="200" ry="46" fill="#2A241E" stroke="#3A322A" stroke-width="2"/>
  <ellipse cx="260" cy="120" rx="200" ry="46" fill="url(#lid-shade)"/>
  <ellipse cx="260" cy="120" rx="186" ry="39" fill="none" stroke="#D4A23C" stroke-width="1.2"/>
  <!-- lid roundel: chakli spiral -->
  <ellipse cx="260" cy="120" rx="52" ry="28.52" fill="#1E1A17" stroke="#D4A23C" stroke-width="1.6"/>
  <g transform="translate(0 0) scale(1 0.548)" transform-origin="260 120">
    <path d="M260 118 L260.19 117.88 L260.4 117.78 L260.63 117.7 L260.87 117.65 L261.13 117.62 L261.4 117.62 L261.68 117.65 L261.96 117.71 L262.25 117.8 L262.53 117.93 L262.81 118.09 L263.08 118.28 L263.34 118.51 L263.58 118.77 L263.79 119.06 L263.99 119.38 L264.15 119.73 L264.29 120.1 L264.39 120.49 L264.45 120.9 L264.48 121.33 L264.46 121.77 L264.4 122.21 L264.3 122.66 L264.15 123.11 L263.95 123.54 L263.71 123.97 L263.42 124.39 L263.09 124.78 L262.72 125.15 L262.3 125.48 L261.84 125.79 L261.35 126.05 L260.83 126.27 L260.28 126.45 L259.7 126.57 L259.1 126.65 L258.49 126.67 L257.87 126.63 L257.24 126.53 L256.61 126.37 L255.99 126.16 L255.39 125.88 L254.8 125.54 L254.23 125.14 L253.7 124.69 L253.2 124.18 L252.74 123.62 L252.33 123.01 L251.98 122.36 L251.67 121.66 L251.43 120.93 L251.26 120.17 L251.15 119.39 L251.11 118.59 L251.15 117.78 L251.26 116.96 L251.44 116.15 L251.71 115.35 L252.05 114.56 L252.46 113.8 L252.95 113.07 L253.5 112.37 L254.13 111.72 L254.82 111.13 L255.57 110.59 L256.38 110.12 L257.23 109.71 L258.13 109.38 L259.07 109.13 L260.03 108.96 L261.02 108.88 L262.02 108.89 L263.03 108.99 L264.03 109.18 L265.03 109.47 L266.01 109.84 L266.96 110.31 L267.87 110.87 L268.74 111.51 L269.55 112.24 L270.31 113.04 L270.99 113.92 L271.6 114.86 L272.13 115.87 L272.57 116.92 L272.92 118.03 L273.17 119.17 L273.32 120.34 L273.37 121.53 L273.3 122.74 L273.13 123.94 L272.85 125.13 L272.46 126.3 L271.96 127.45 L271.36 128.55 L270.65 129.61 L269.85 130.61 L268.95 131.54 L267.96 132.39 L266.89 133.16 L265.75 133.83 L264.55 134.41 L263.28 134.88 L261.97 135.24 L260.62 135.48 L259.24 135.6 L257.85 135.6 L256.45 135.47 L255.06 135.22 L253.68 134.84 L252.33 134.33 L251.03 133.7 L249.77 132.96 L248.58 132.09 L247.46 131.12 L246.42 130.04 L245.48 128.87 L244.64 127.61 L243.9 126.27 L243.29 124.85 L242.8 123.38 L242.44 121.86 L242.22 120.3 L242.14 118.72 L242.19 117.13 L242.39 115.53 L242.74 113.95 L243.22 112.4 L243.85 110.88 L244.62 109.42 L245.51 108.02 L246.54 106.69 L247.69 105.46 L248.95 104.32 L250.31 103.3 L251.77 102.39 L253.32 101.61 L254.94 100.97 L256.62 100.47 L258.35 100.12 L260.11 99.93 L261.9 99.89 L263.69 100.01 L265.48 100.29 L267.25 100.74 L268.98 101.34 L270.66 102.1 L272.27 103 L273.81 104.06 L275.26 105.26 L276.6 106.58 L277.83 108.03 L278.93 109.59 L279.89 111.26 L280.71 113.01 L281.37 114.84 L281.87 116.73 L282.2 118.67 L282.35 120.64 L282.34 122.63 L282.14 124.62 L281.77 126.59 L281.22 128.54 L280.49 130.44 L279.6 132.28 L278.54 134.04 L277.32 135.71 L275.95 137.27 L274.43 138.72 L272.79 140.03 L271.03 141.19 L269.16 142.2 L267.2 143.05 L265.16 143.72 L263.06 144.21 L260.91 144.51 L258.73 144.62 L256.54 144.54 L254.36 144.26 L252.2 143.79 L250.07 143.12 L248.01 142.27 L246.01 141.22 L244.11 140 L242.32 138.61 L240.65 137.06 L239.11 135.36 L237.73 133.52 L236.5 131.55 L235.46 129.48 L234.59 127.3 L233.92 125.05 L233.45 122.74 L233.18 120.38 L233.13 118 L233.29 115.61 L233.65 113.24 L234.24 110.89 L235.03 108.59 L236.02 106.37 L237.22 104.23 L238.6 102.2 L240.17 100.28 L241.91 98.51 L243.81 96.89 L245.85 95.44 L248.02 94.17 L250.31 93.09 L252.7 92.22 L255.16 91.55 L257.68 91.11 L260.25 90.89 L262.83 90.9 L265.42 91.14 L267.98 91.61 L270.51 92.31 L272.97 93.23 L275.35 94.37 L277.63 95.73" fill="none" stroke="#D4A23C" stroke-width="3" stroke-linecap="round"/>
    <path d="M260.28 119.47 L262.25 115.76 M261.08 119.27 L264.55 116.91 M261.99 119.78 L266.16 119.32 M262.51 120.99 L266.42 122.54 M262.21 122.59 L264.94 125.78 M260.89 124 L261.81 128.1 M258.73 124.63 L257.63 128.68 M256.23 124.01 L253.36 127.07 M254.13 122.01 L250.16 123.37 M253.18 118.92 L249.04 118.26 M253.92 115.44 L250.56 112.92 M256.47 112.49 L254.68 108.69 M260.42 111.01 L260.62 106.81 M264.94 111.65 L267.08 108.04 M268.87 114.57 L272.45 112.37 M271.08 119.3 L275.27 119.04 M270.75 124.86 L274.58 126.58 M267.66 129.88 L270.24 133.2 M262.27 133 L262.99 137.14 M255.7 133.22 L254.41 137.21 M249.52 130.16 L246.5 133.08 M245.31 124.27 L241.27 125.44 M244.33 116.76 L240.22 115.9 M247.13 109.36 L243.9 106.68 M253.34 103.92 L251.73 100.04 M261.7 101.98 L262.1 97.8 M270.32 104.29 L272.63 100.78 M277.09 110.61 L280.77 108.58 M280.2 119.68 L284.4 119.62 M278.62 129.49 L282.36 131.4 M272.42 137.67 L274.84 141.11 M262.79 142.12 L263.32 146.29 M251.87 141.52 L250.39 145.44 M242.22 135.67 L239.07 138.45 M236.27 125.7 L232.19 126.68 M235.69 113.76 L231.62 112.71 M240.92 102.64 L237.81 99.81 M251.02 95.07 L249.6 91.11 M263.83 93.07 L264.42 88.91 " stroke="#D4A23C" stroke-width="1" opacity=".85"/>
  </g>
</g>
</svg>