<?xml version="1.0" encoding="UTF-8"?>
<svg xmlns="http://www.w3.org/2000/svg" viewBox="0 0 800 600" role="img" aria-label="Cmaa">
<title>Cmaa — Heritage Contrast (color)</title>
<g transform="translate(94.59 375.05) scale(1.04)">
  <g fill="#7A1E2B"><path d="M129.69 -119.54 L 127.9 -123.19 L 125.87 -126.71 L 123.61 -130.06 L 121.13 -133.24 L 118.43 -136.23 L 115.54 -139 L 112.47 -141.54 L 109.24 -143.84 L 105.87 -145.89 L 102.29 -147.52 L 98.55 -148.68 L 94.8 -149.61 L 91.06 -150.32 L 87.33 -150.82 L 83.62 -151.12 L 79.95 -151.24 L 76.33 -151.19 L 72.74 -151.03 L 69.16 -151.13 L 65.55 -151.24 L 61.9 -151.19 L 58.21 -150.97 L 54.49 -150.55 L 50.75 -149.93 L 47 -149.09 L 43.25 -148.03 L 39.52 -146.73 L 35.82 -145.2 L 32.18 -143.43 L 28.59 -141.42 L 25.09 -139.18 L 21.68 -136.71 L 18.39 -134.01 L 15.23 -131.1 L 12.22 -127.98 L 9.37 -124.65 L 6.69 -121.14 L 4.19 -117.44 L 1.9 -113.59 L -0.18 -109.58 L -2.04 -105.44 L -3.67 -101.17 L -5.07 -96.81 L -6.22 -92.35 L -7.12 -87.83 L -7.76 -83.25 L -8.15 -78.63 L -8.28 -74 L -8.15 -69.37 L -7.76 -64.75 L -7.12 -60.17 L -6.22 -55.65 L -5.07 -51.19 L -3.67 -46.83 L -2.04 -42.56 L -0.18 -38.42 L 1.9 -34.41 L 4.19 -30.56 L 6.69 -26.86 L 9.37 -23.35 L 12.22 -20.02 L 15.23 -16.9 L 18.39 -13.99 L 21.68 -11.29 L 25.09 -8.82 L 28.59 -6.58 L 32.18 -4.57 L 35.82 -2.8 L 39.52 -1.27 L 43.25 0.03 L 47 1.09 L 50.75 1.93 L 54.49 2.55 L 58.21 2.97 L 61.9 3.19 L 65.55 3.24 L 69.16 3.13 L 72.74 3.03 L 76.33 3.19 L 79.95 3.24 L 83.62 3.12 L 87.33 2.82 L 91.06 2.32 L 94.8 1.61 L 98.55 0.68 L 102.29 -0.48 L 105.87 -2.11 L 109.24 -4.16 L 112.47 -6.46 L 115.54 -9 L 118.43 -11.77 L 121.13 -14.76 L 123.61 -17.94 L 125.87 -21.29 L 127.9 -24.81 L 129.69 -28.46 L 117.53 -35.8 L 115.36 -33.26 L 113.16 -30.84 L 110.93 -28.53 L 108.67 -26.32 L 106.38 -24.21 L 104.07 -22.21 L 101.72 -20.29 L 99.34 -18.48 L 96.92 -16.75 L 94.54 -14.97 L 92.18 -13.09 L 89.7 -11.36 L 87.1 -9.79 L 84.39 -8.4 L 81.58 -7.2 L 78.67 -6.22 L 75.69 -5.49 L 72.64 -5.04 L 69.57 -5.26 L 66.55 -5.89 L 63.61 -6.77 L 60.76 -7.88 L 58.01 -9.19 L 55.36 -10.69 L 52.83 -12.36 L 50.42 -14.18 L 48.13 -16.14 L 45.97 -18.23 L 43.93 -20.43 L 42.02 -22.75 L 40.22 -25.15 L 38.55 -27.65 L 37 -30.22 L 35.56 -32.86 L 34.24 -35.56 L 33.02 -38.32 L 31.92 -41.13 L 30.92 -43.98 L 30.02 -46.88 L 29.22 -49.81 L 28.53 -52.77 L 27.92 -55.75 L 27.42 -58.76 L 27.01 -61.79 L 26.69 -64.83 L 26.46 -67.88 L 26.33 -70.94 L 26.28 -74 L 26.33 -77.06 L 26.46 -80.12 L 26.69 -83.17 L 27.01 -86.21 L 27.42 -89.24 L 27.92 -92.25 L 28.53 -95.23 L 29.22 -98.19 L 30.02 -101.12 L 30.92 -104.02 L 31.92 -106.87 L 33.02 -109.68 L 34.24 -112.44 L 35.56 -115.14 L 37 -117.78 L 38.55 -120.35 L 40.22 -122.85 L 42.02 -125.25 L 43.93 -127.57 L 45.97 -129.77 L 48.13 -131.86 L 50.42 -133.82 L 52.83 -135.64 L 55.36 -137.31 L 58.01 -138.81 L 60.76 -140.12 L 63.61 -141.23 L 66.55 -142.11 L 69.57 -142.74 L 72.64 -142.96 L 75.69 -142.51 L 78.67 -141.78 L 81.58 -140.8 L 84.39 -139.6 L 87.1 -138.21 L 89.7 -136.64 L 92.18 -134.91 L 94.54 -133.03 L 96.92 -131.25 L 99.34 -129.52 L 101.72 -127.71 L 104.07 -125.79 L 106.38 -123.79 L 108.67 -121.68 L 110.93 -119.47 L 113.16 -117.16 L 115.36 -114.74 L 117.53 -112.2 Z" fill-rule="evenodd"/><path d="M109.11 -114.37 a13.5 13.5 0 1 0 27 0 a13.5 13.5 0 1 0 -27 0 Z" fill-rule="evenodd"/><path d="M109.61 -33.63 a13 13 0 1 0 26 0 a13 13 0 1 0 -26 0 Z" fill-rule="evenodd"/><path d="M167 -102 L 167 -91.8 L 167 -81.6 L 167 -71.4 L 167 -61.2 L 167 -51 L 167 -40.8 L 167 -30.6 L 167 -20.4 L 167 -10.2 L 167 0 L 193 0 L 193 -10.2 L 193 -20.4 L 193 -30.6 L 193 -40.8 L 193 -51 L 193 -61.2 L 193 -71.4 L 193 -81.6 L 193 -91.8 L 193 -102 Z" fill-rule="evenodd"/><path d="M167 -102 L 151 -102 L 167 -80 Z" fill-rule="evenodd"/><path d="M184 -58 L 184.04 -60.02 L 184.15 -62.04 L 184.33 -64.05 L 184.59 -66.04 L 184.91 -68.01 L 185.31 -69.94 L 185.77 -71.84 L 186.3 -73.7 L 186.89 -75.52 L 187.55 -77.28 L 188.26 -78.99 L 189.04 -80.63 L 189.86 -82.21 L 190.74 -83.72 L 191.66 -85.15 L 192.63 -86.5 L 193.63 -87.76 L 194.67 -88.94 L 195.73 -90.03 L 196.82 -91.02 L 197.93 -91.92 L 199.06 -92.73 L 200.19 -93.43 L 201.32 -94.04 L 202.45 -94.55 L 203.58 -94.97 L 204.69 -95.29 L 205.79 -95.52 L 206.87 -95.66 L 207.94 -95.72 L 208.98 -95.69 L 210 -95.59 L 211 -95.41 L 211.98 -95.15 L 212.94 -94.82 L 213.89 -94.42 L 214.81 -93.94 L 215.72 -93.4 L 216.62 -92.78 L 217.49 -92.08 L 218.35 -91.32 L 219.18 -90.47 L 219.99 -89.56 L 220.78 -88.57 L 221.53 -87.51 L 222.26 -86.39 L 222.95 -85.19 L 223.6 -83.92 L 224.22 -82.6 L 224.79 -81.21 L 225.31 -79.77 L 225.78 -78.27 L 226.21 -76.73 L 226.58 -75.14 L 226.89 -73.51 L 227.15 -71.85 L 227.34 -70.16 L 227.48 -68.45 L 227.56 -66.72 L 227.57 -64.98 L 227.52 -63.23 L 227.41 -61.48 L 227.24 -59.73 L 227 -58 L 253 -58 L 252.69 -60.59 L 252.3 -63.15 L 251.83 -65.69 L 251.28 -68.19 L 250.64 -70.66 L 249.94 -73.09 L 249.15 -75.48 L 248.29 -77.82 L 247.35 -80.11 L 246.34 -82.34 L 245.26 -84.51 L 244.1 -86.62 L 242.88 -88.65 L 241.59 -90.62 L 240.24 -92.5 L 238.82 -94.3 L 237.34 -96.02 L 235.8 -97.64 L 234.21 -99.17 L 232.56 -100.6 L 230.86 -101.92 L 229.1 -103.13 L 227.31 -104.24 L 225.47 -105.22 L 223.6 -106.08 L 221.69 -106.81 L 219.76 -107.42 L 217.82 -107.89 L 215.86 -108.23 L 213.9 -108.43 L 211.94 -108.49 L 210 -108.41 L 208.08 -108.2 L 206.18 -107.86 L 204.32 -107.39 L 202.5 -106.79 L 200.73 -106.08 L 199 -105.25 L 197.33 -104.31 L 195.72 -103.26 L 194.16 -102.12 L 192.66 -100.88 L 191.22 -99.56 L 189.84 -98.15 L 188.52 -96.65 L 187.27 -95.09 L 186.08 -93.44 L 184.95 -91.73 L 183.88 -89.95 L 182.88 -88.11 L 181.95 -86.21 L 181.08 -84.26 L 180.27 -82.25 L 179.54 -80.2 L 178.87 -78.11 L 178.27 -75.97 L 177.74 -73.8 L 177.28 -71.6 L 176.89 -69.38 L 176.57 -67.13 L 176.32 -64.86 L 176.14 -62.58 L 176.04 -60.29 L 176 -58 Z" fill-rule="evenodd"/><path d="M227 -63 L 227 -56.7 L 227 -50.4 L 227 -44.1 L 227 -37.8 L 227 -31.5 L 227 -25.2 L 227 -18.9 L 227 -12.6 L 227 -6.3 L 227 0 L 253 0 L 253 -6.3 L 253 -12.6 L 253 -18.9 L 253 -25.2 L 253 -31.5 L 253 -37.8 L 253 -44.1 L 253 -50.4 L 253 -56.7 L 253 -63 Z" fill-rule="evenodd"/><path d="M244 -58 L 244.04 -60.02 L 244.15 -62.04 L 244.33 -64.05 L 244.59 -66.04 L 244.91 -68.01 L 245.31 -69.94 L 245.77 -71.84 L 246.3 -73.7 L 246.89 -75.52 L 247.55 -77.28 L 248.26 -78.99 L 249.04 -80.63 L 249.86 -82.21 L 250.74 -83.72 L 251.66 -85.15 L 252.63 -86.5 L 253.63 -87.76 L 254.67 -88.94 L 255.73 -90.03 L 256.82 -91.02 L 257.93 -91.92 L 259.06 -92.73 L 260.19 -93.43 L 261.32 -94.04 L 262.45 -94.55 L 263.58 -94.97 L 264.69 -95.29 L 265.79 -95.52 L 266.87 -95.66 L 267.94 -95.72 L 268.98 -95.69 L 270 -95.59 L 271 -95.41 L 271.98 -95.15 L 272.94 -94.82 L 273.89 -94.42 L 274.81 -93.94 L 275.72 -93.4 L 276.62 -92.78 L 277.49 -92.08 L 278.35 -91.32 L 279.18 -90.47 L 279.99 -89.56 L 280.78 -88.57 L 281.53 -87.51 L 282.26 -86.39 L 282.95 -85.19 L 283.6 -83.92 L 284.22 -82.6 L 284.79 -81.21 L 285.31 -79.77 L 285.78 -78.27 L 286.21 -76.73 L 286.58 -75.14 L 286.89 -73.51 L 287.15 -71.85 L 287.34 -70.16 L 287.48 -68.45 L 287.56 -66.72 L 287.57 -64.98 L 287.52 -63.23 L 287.41 -61.48 L 287.24 -59.73 L 287 -58 L 313 -58 L 312.69 -60.59 L 312.3 -63.15 L 311.83 -65.69 L 311.28 -68.19 L 310.64 -70.66 L 309.94 -73.09 L 309.15 -75.48 L 308.29 -77.82 L 307.35 -80.11 L 306.34 -82.34 L 305.26 -84.51 L 304.1 -86.62 L 302.88 -88.65 L 301.59 -90.62 L 300.24 -92.5 L 298.82 -94.3 L 297.34 -96.02 L 295.8 -97.64 L 294.21 -99.17 L 292.56 -100.6 L 290.86 -101.92 L 289.1 -103.13 L 287.31 -104.24 L 285.47 -105.22 L 283.6 -106.08 L 281.69 -106.81 L 279.76 -107.42 L 277.82 -107.89 L 275.86 -108.23 L 273.9 -108.43 L 271.94 -108.49 L 270 -108.41 L 268.08 -108.2 L 266.18 -107.86 L 264.32 -107.39 L 262.5 -106.79 L 260.73 -106.08 L 259 -105.25 L 257.33 -104.31 L 255.72 -103.26 L 254.16 -102.12 L 252.66 -100.88 L 251.22 -99.56 L 249.84 -98.15 L 248.52 -96.65 L 247.27 -95.09 L 246.08 -93.44 L 244.95 -91.73 L 243.88 -89.95 L 242.88 -88.11 L 241.95 -86.21 L 241.08 -84.26 L 240.27 -82.25 L 239.54 -80.2 L 238.87 -78.11 L 238.27 -75.97 L 237.74 -73.8 L 237.28 -71.6 L 236.89 -69.38 L 236.57 -67.13 L 236.32 -64.86 L 236.14 -62.58 L 236.04 -60.29 L 236 -58 Z" fill-rule="evenodd"/><path d="M287 -63 L 287 -56.7 L 287 -50.4 L 287 -44.1 L 287 -37.8 L 287 -31.5 L 287 -25.2 L 287 -18.9 L 287 -12.6 L 287 -6.3 L 287 0 L 313 0 L 313 -6.3 L 313 -12.6 L 313 -18.9 L 313 -25.2 L 313 -31.5 L 313 -37.8 L 313 -44.1 L 313 -50.4 L 313 -56.7 L 313 -63 Z" fill-rule="evenodd"/><path d="M157 0 L 203 0 L 193 -9 L 167 -9 Z" fill-rule="evenodd"/><path d="M217 0 L 263 0 L 253 -9 L 227 -9 Z" fill-rule="evenodd"/><path d="M277 0 L 323 0 L 313 -9 L 287 -9 Z" fill-rule="evenodd"/><path d="M431.96 -51 L 431.84 -47.12 L 431.49 -43.26 L 430.91 -39.44 L 430.11 -35.68 L 429.07 -32 L 427.83 -28.42 L 426.37 -24.95 L 424.71 -21.62 L 422.87 -18.44 L 420.84 -15.44 L 418.65 -12.61 L 416.3 -9.99 L 413.82 -7.59 L 411.23 -5.41 L 408.53 -3.47 L 405.75 -1.78 L 402.91 -0.34 L 400.03 0.85 L 397.13 1.78 L 394.24 2.46 L 391.36 2.89 L 388.53 3.11 L 385.74 3.12 L 383 3 L 380.26 3.12 L 377.47 3.11 L 374.64 2.89 L 371.76 2.46 L 368.87 1.78 L 365.97 0.85 L 363.09 -0.34 L 360.25 -1.78 L 357.47 -3.47 L 354.77 -5.41 L 352.18 -7.59 L 349.7 -9.99 L 347.35 -12.61 L 345.16 -15.44 L 343.13 -18.44 L 341.29 -21.62 L 339.63 -24.95 L 338.17 -28.42 L 336.93 -32 L 335.89 -35.68 L 335.09 -39.44 L 334.51 -43.26 L 334.16 -47.12 L 334.04 -51 L 334.16 -54.88 L 334.51 -58.74 L 335.09 -62.56 L 335.89 -66.32 L 336.93 -70 L 338.17 -73.58 L 339.63 -77.05 L 341.29 -80.38 L 343.13 -83.56 L 345.16 -86.56 L 347.35 -89.39 L 349.7 -92.01 L 352.18 -94.41 L 354.77 -96.59 L 357.47 -98.53 L 360.25 -100.22 L 363.09 -101.66 L 365.97 -102.85 L 368.87 -103.78 L 371.76 -104.46 L 374.64 -104.89 L 377.47 -105.11 L 380.26 -105.12 L 383 -105 L 385.74 -105.12 L 388.53 -105.11 L 391.36 -104.89 L 394.24 -104.46 L 397.13 -103.78 L 400.03 -102.85 L 402.91 -101.66 L 405.75 -100.22 L 408.53 -98.53 L 411.23 -96.59 L 413.82 -94.41 L 416.3 -92.01 L 418.65 -89.39 L 420.84 -86.56 L 422.87 -83.56 L 424.71 -80.38 L 426.37 -77.05 L 427.83 -73.58 L 429.07 -70 L 430.11 -66.32 L 430.91 -62.56 L 431.49 -58.74 L 431.84 -54.88 L 431.96 -51 Z M406.04 -51 L 406 -53.66 L 405.89 -56.31 L 405.7 -58.95 L 405.44 -61.56 L 405.1 -64.14 L 404.69 -66.68 L 404.2 -69.18 L 403.64 -71.62 L 403 -74 L 402.28 -76.31 L 401.48 -78.55 L 400.61 -80.7 L 399.65 -82.77 L 398.6 -84.75 L 397.47 -86.62 L 396.25 -88.38 L 394.94 -90.03 L 393.52 -91.54 L 392.01 -92.92 L 390.4 -94.14 L 388.68 -95.18 L 386.87 -96.04 L 384.97 -96.67 L 383 -97 L 381.03 -96.67 L 379.13 -96.04 L 377.32 -95.18 L 375.6 -94.14 L 373.99 -92.92 L 372.48 -91.54 L 371.06 -90.03 L 369.75 -88.38 L 368.53 -86.62 L 367.4 -84.75 L 366.35 -82.77 L 365.39 -80.7 L 364.52 -78.55 L 363.72 -76.31 L 363 -74 L 362.36 -71.62 L 361.8 -69.18 L 361.31 -66.68 L 360.9 -64.14 L 360.56 -61.56 L 360.3 -58.95 L 360.11 -56.31 L 360 -53.66 L 359.96 -51 L 360 -48.34 L 360.11 -45.69 L 360.3 -43.05 L 360.56 -40.44 L 360.9 -37.86 L 361.31 -35.32 L 361.8 -32.82 L 362.36 -30.38 L 363 -28 L 363.72 -25.69 L 364.52 -23.45 L 365.39 -21.3 L 366.35 -19.23 L 367.4 -17.25 L 368.53 -15.38 L 369.75 -13.62 L 371.06 -11.97 L 372.48 -10.46 L 373.99 -9.08 L 375.6 -7.86 L 377.32 -6.82 L 379.13 -5.96 L 381.03 -5.33 L 383 -5 L 384.97 -5.33 L 386.87 -5.96 L 388.68 -6.82 L 390.4 -7.86 L 392.01 -9.08 L 393.52 -10.46 L 394.94 -11.97 L 396.25 -13.62 L 397.47 -15.38 L 398.6 -17.25 L 399.65 -19.23 L 400.61 -21.3 L 401.48 -23.45 L 402.28 -25.69 L 403 -28 L 403.64 -30.38 L 404.2 -32.82 L 404.69 -35.32 L 405.1 -37.86 L 405.44 -40.44 L 405.7 -43.05 L 405.89 -45.69 L 406 -48.34 L 406.04 -51 Z" fill-rule="evenodd"/><path d="M406 -101 L 406 -90.9 L 406 -80.8 L 406 -70.7 L 406 -60.6 L 406 -50.5 L 406 -40.4 L 406 -30.3 L 406 -20.2 L 406 -10.1 L 406 0 L 432 0 L 432 -10.1 L 432 -20.2 L 432 -30.3 L 432 -40.4 L 432 -50.5 L 432 -60.6 L 432 -70.7 L 432 -80.8 L 432 -90.9 L 432 -101 Z" fill-rule="evenodd"/><path d="M396 0 L 442 0 L 432 -9 L 406 -9 Z" fill-rule="evenodd"/><path d="M550.96 -51 L 550.84 -47.12 L 550.49 -43.26 L 549.91 -39.44 L 549.11 -35.68 L 548.07 -32 L 546.83 -28.42 L 545.37 -24.95 L 543.71 -21.62 L 541.87 -18.44 L 539.84 -15.44 L 537.65 -12.61 L 535.3 -9.99 L 532.82 -7.59 L 530.23 -5.41 L 527.53 -3.47 L 524.75 -1.78 L 521.91 -0.34 L 519.03 0.85 L 516.13 1.78 L 513.24 2.46 L 510.36 2.89 L 507.53 3.11 L 504.74 3.12 L 502 3 L 499.26 3.12 L 496.47 3.11 L 493.64 2.89 L 490.76 2.46 L 487.87 1.78 L 484.97 0.85 L 482.09 -0.34 L 479.25 -1.78 L 476.47 -3.47 L 473.77 -5.41 L 471.18 -7.59 L 468.7 -9.99 L 466.35 -12.61 L 464.16 -15.44 L 462.13 -18.44 L 460.29 -21.62 L 458.63 -24.95 L 457.17 -28.42 L 455.93 -32 L 454.89 -35.68 L 454.09 -39.44 L 453.51 -43.26 L 453.16 -47.12 L 453.04 -51 L 453.16 -54.88 L 453.51 -58.74 L 454.09 -62.56 L 454.89 -66.32 L 455.93 -70 L 457.17 -73.58 L 458.63 -77.05 L 460.29 -80.38 L 462.13 -83.56 L 464.16 -86.56 L 466.35 -89.39 L 468.7 -92.01 L 471.18 -94.41 L 473.77 -96.59 L 476.47 -98.53 L 479.25 -100.22 L 482.09 -101.66 L 484.97 -102.85 L 487.87 -103.78 L 490.76 -104.46 L 493.64 -104.89 L 496.47 -105.11 L 499.26 -105.12 L 502 -105 L 504.74 -105.12 L 507.53 -105.11 L 510.36 -104.89 L 513.24 -104.46 L 516.13 -103.78 L 519.03 -102.85 L 521.91 -101.66 L 524.75 -100.22 L 527.53 -98.53 L 530.23 -96.59 L 532.82 -94.41 L 535.3 -92.01 L 537.65 -89.39 L 539.84 -86.56 L 541.87 -83.56 L 543.71 -80.38 L 545.37 -77.05 L 546.83 -73.58 L 548.07 -70 L 549.11 -66.32 L 549.91 -62.56 L 550.49 -58.74 L 550.84 -54.88 L 550.96 -51 Z M525.04 -51 L 525 -53.66 L 524.89 -56.31 L 524.7 -58.95 L 524.44 -61.56 L 524.1 -64.14 L 523.69 -66.68 L 523.2 -69.18 L 522.64 -71.62 L 522 -74 L 521.28 -76.31 L 520.48 -78.55 L 519.61 -80.7 L 518.65 -82.77 L 517.6 -84.75 L 516.47 -86.62 L 515.25 -88.38 L 513.94 -90.03 L 512.52 -91.54 L 511.01 -92.92 L 509.4 -94.14 L 507.68 -95.18 L 505.87 -96.04 L 503.97 -96.67 L 502 -97 L 500.03 -96.67 L 498.13 -96.04 L 496.32 -95.18 L 494.6 -94.14 L 492.99 -92.92 L 491.48 -91.54 L 490.06 -90.03 L 488.75 -88.38 L 487.53 -86.62 L 486.4 -84.75 L 485.35 -82.77 L 484.39 -80.7 L 483.52 -78.55 L 482.72 -76.31 L 482 -74 L 481.36 -71.62 L 480.8 -69.18 L 480.31 -66.68 L 479.9 -64.14 L 479.56 -61.56 L 479.3 -58.95 L 479.11 -56.31 L 479 -53.66 L 478.96 -51 L 479 -48.34 L 479.11 -45.69 L 479.3 -43.05 L 479.56 -40.44 L 479.9 -37.86 L 480.31 -35.32 L 480.8 -32.82 L 481.36 -30.38 L 482 -28 L 482.72 -25.69 L 483.52 -23.45 L 484.39 -21.3 L 485.35 -19.23 L 486.4 -17.25 L 487.53 -15.38 L 488.75 -13.62 L 490.06 -11.97 L 491.48 -10.46 L 492.99 -9.08 L 494.6 -7.86 L 496.32 -6.82 L 498.13 -5.96 L 500.03 -5.33 L 502 -5 L 503.97 -5.33 L 505.87 -5.96 L 507.68 -6.82 L 509.4 -7.86 L 511.01 -9.08 L 512.52 -10.46 L 513.94 -11.97 L 515.25 -13.62 L 516.47 -15.38 L 517.6 -17.25 L 518.65 -19.23 L 519.61 -21.3 L 520.48 -23.45 L 521.28 -25.69 L 522 -28 L 522.64 -30.38 L 523.2 -32.82 L 523.69 -35.32 L 524.1 -37.86 L 524.44 -40.44 L 524.7 -43.05 L 524.89 -45.69 L 525 -48.34 L 525.04 -51 Z" fill-rule="evenodd"/><path d="M525 -101 L 525 -90.9 L 525 -80.8 L 525 -70.7 L 525 -60.6 L 525 -50.5 L 525 -40.4 L 525 -30.3 L 525 -20.2 L 525 -10.1 L 525 0 L 551 0 L 551 -10.1 L 551 -20.2 L 551 -30.3 L 551 -40.4 L 551 -50.5 L 551 -60.6 L 551 -70.7 L 551 -80.8 L 551 -90.9 L 551 -101 Z" fill-rule="evenodd"/><path d="M515 0 L 561 0 L 551 -9 L 525 -9 Z" fill-rule="evenodd"/></g>
  <path d="M97.68 -65.66 L 98.08 -67.48 L 98.35 -69.32 L 98.49 -71.16 L 98.5 -73 L 98.39 -74.83 L 98.15 -76.64 L 97.78 -78.42 L 97.3 -80.16 L 96.7 -81.85 L 95.99 -83.5 L 95.17 -85.08 L 94.24 -86.59 L 93.22 -88.03 L 92.1 -89.39 L 90.9 -90.67 L 89.62 -91.85 L 88.27 -92.93 L 86.85 -93.91 L 85.38 -94.79 L 83.85 -95.56 L 82.28 -96.22 L 80.68 -96.76 L 79.05 -97.19 L 77.41 -97.51 L 75.75 -97.7 L 74.1 -97.79 L 72.45 -97.76 L 70.81 -97.61 L 69.2 -97.35 L 67.62 -96.99 L 66.07 -96.51 L 64.57 -95.93 L 63.12 -95.26 L 61.72 -94.49 L 60.39 -93.62 L 59.13 -92.68 L 57.95 -91.65 L 56.85 -90.55 L 55.83 -89.38 L 54.89 -88.15 L 54.06 -86.87 L 53.31 -85.53 L 52.67 -84.16 L 52.12 -82.75 L 51.68 -81.32 L 51.34 -79.86 L 51.1 -78.4 L 50.96 -76.93 L 50.93 -75.46 L 51 -74 L 51.17 -72.56 L 51.44 -71.14 L 51.8 -69.75 L 52.26 -68.4 L 52.81 -67.09 L 53.44 -65.83 L 54.15 -64.62 L 54.95 -63.48 L 55.81 -62.39 L 56.74 -61.38 L 57.74 -60.44 L 58.79 -59.57 L 59.89 -58.79 L 61.04 -58.09 L 62.23 -57.47 L 63.44 -56.95 L 64.69 -56.51 L 65.95 -56.16 L 67.23 -55.9 L 68.51 -55.73 L 69.8 -55.65 L 71.08 -55.66 L 72.34 -55.76 L 73.59 -55.95 L 74.82 -56.22 L 76.01 -56.58 L 77.17 -57.01 L 78.29 -57.52 L 79.36 -58.1 L 80.38 -58.75 L 81.35 -59.47 L 82.26 -60.25 L 83.11 -61.08 L 83.89 -61.96 L 84.6 -62.89 L 85.24 -63.86 L 85.81 -64.86 L 86.31 -65.9 L 86.72 -66.96 L 87.06 -68.04 L 87.32 -69.13 L 87.51 -70.23 L 87.61 -71.33 L 87.64 -72.42 L 87.59 -73.51 L 87.47 -74.58 L 87.27 -75.64 L 87 -76.67 L 86.67 -77.67 L 86.27 -78.64 L 85.8 -79.56 L 85.28 -80.45 L 84.69 -81.29 L 84.06 -82.09 L 83.38 -82.83 L 82.65 -83.51 L 81.89 -84.14 L 81.08 -84.7 L 80.25 -85.21 L 79.39 -85.65 L 78.51 -86.03 L 77.62 -86.34 L 76.71 -86.59 L 75.8 -86.77 L 74.88 -86.88 L 73.96 -86.93 L 73.06 -86.92 L 72.16 -86.84 L 71.28 -86.7 L 70.42 -86.5 L 69.58 -86.24 L 68.78 -85.93 L 68 -85.57 L 67.26 -85.15 L 66.55 -84.69 L 65.89 -84.19 L 65.27 -83.64 L 64.69 -83.06 L 64.17 -82.45 L 63.69 -81.8 L 63.26 -81.14 L 62.89 -80.45 L 62.57 -79.74 L 62.3 -79.02 L 62.09 -78.29 L 61.93 -77.55 L 61.82 -76.82 L 61.77 -76.08 L 61.77 -75.36 L 61.82 -74.64 L 61.92 -73.94 L 62.07 -73.25 L 62.26 -72.58 L 62.5 -71.94 L 62.78 -71.32 L 63.1 -70.73 L 63.46 -70.18 L 63.85 -69.65 L 64.27 -69.16 L 64.72 -68.71 L 65.19 -68.3 L 65.69 -67.92 L 66.21 -67.59 L 66.74 -67.3 L 67.28 -67.05 L 67.83 -66.85 L 68.39 -66.68 L 68.95 -66.56 L 69.51 -66.48 L 70.06 -66.45 L 70.61 -66.45 L 71.15 -66.49 L 71.67 -66.57 L 72.18 -66.68 L 72.68 -66.83 L 73.15 -67.01 L 73.6 -67.23 L 74.03 -67.47 L 74.43 -67.74 L 74.81 -68.03 L 75.16 -68.34 L 75.48 -68.67 L 75.76 -69.02 L 76.02 -69.38 L 76.24 -69.76 L 76.43 -70.14 L 76.6 -70.53 L 76.72 -70.92 L 76.82 -71.31 L 76.89 -71.7 L 76.92 -72.09 L 76.93 -72.47 L 76.9 -72.84 L 76.85 -73.2 L 76.78 -73.55 L 76.68 -73.88 L 76.56 -74.2 L 76.41 -74.5 L 76.25 -74.78 L 76.07 -75.04 L 75.87 -75.29 L 75.66 -75.5 L 75.44 -75.7 L 75.21 -75.87 L 74.98 -76.02 L 74.74 -76.15 L 74.49 -76.25 L 74.25 -76.33 L 74 -76.39 L 73.76 -76.43" fill="none" stroke="#C8922A" stroke-width="7" stroke-linecap="round"/>
  <g transform="translate(578 -19) rotate(-24)"><path d="M0 -20 C6.93 -15.2 11 -5.8 11 2.4 C11 13 5.83 20 0 20 C-5.83 20 -11 13 -11 2.4 C-11 -5.8 -6.93 -15.2 0 -20 Z" fill="#C8922A"/><path d="M0 -14 C1.8 -6 1.8 6 0 14" fill="none" stroke="#F6EDDB" stroke-width="2.2" stroke-linecap="round"/></g>
</g>
</svg>