<?xml version="1.0" encoding="UTF-8"?>
<svg xmlns="http://www.w3.org/2000/svg" viewBox="0 0 800 600" role="img" aria-label="Cmaa">
<title>Cmaa — Soft Roundhand (color)</title>
<g transform="translate(144.11 386.22) scale(1.11)">
  <g fill="none" stroke="#B5512E" stroke-width="30" stroke-linecap="round" stroke-linejoin="round">
    <path d="M31.21 -78.1 L 28.86 -80.52 L 26.32 -82.73 L 23.6 -84.74 L 20.74 -86.52 L 17.74 -88.07 L 14.63 -89.37 L 11.43 -90.42 L 8.15 -91.2 L 4.81 -91.72 L 1.45 -91.97 L -1.92 -91.96 L -5.28 -91.67 L -8.61 -91.11 L -11.88 -90.29 L -15.07 -89.2 L -18.17 -87.87 L -21.15 -86.29 L -23.99 -84.47 L -26.68 -82.44 L -29.2 -80.19 L -31.53 -77.75 L -33.65 -75.13 L -35.56 -72.35 L -37.24 -69.43 L -38.68 -66.38 L -39.86 -63.22 L -40.8 -59.98 L -41.47 -56.67 L -41.87 -53.33 L -42 -49.96 L -41.86 -46.59 L -41.45 -43.24 L -40.78 -39.93 L -39.84 -36.7 L -38.64 -33.54 L -37.2 -30.49 L -35.51 -27.57 L -33.6 -24.8 L -31.47 -22.18 L -29.13 -19.75 L -26.61 -17.51 L -23.92 -15.48 L -21.07 -13.67 L -18.09 -12.1 L -14.99 -10.77 L -11.79 -9.69 L -8.52 -8.87 L -5.19 -8.32 L -1.83 -8.04 L 1.54 -8.03 L 4.9 -8.29 L 8.23 -8.81 L 11.51 -9.61 L 14.71 -10.66 L 17.82 -11.97 L 20.82 -13.52 L 23.68 -15.31 L 26.38 -17.32 L 28.92 -19.54 L 31.27 -21.96"/><path d="M85 -15 L85 -85 M85 -60 A31 31 0 0 1 147 -60 L147 -15 M147 -60 A31 31 0 0 1 209 -60 L209 -15"/><path d="M263 -50 a42 42 0 1 0 84 0 a42 42 0 1 0 -84 0 Z"/><path d="M347 -85 L347 -22 A18 18 0 0 0 365 -4"/><path d="M403 -50 a42 42 0 1 0 84 0 a42 42 0 1 0 -84 0 Z"/><path d="M487 -85 L487 -22 A18 18 0 0 0 505 -4"/>
  </g>
  <path d="M347 -86 C361 -114 387 -124 401 -122 C389 -117 413 -100 417.5 -83" fill="none" stroke="#B5512E" stroke-width="11" stroke-linecap="round"/>
  <path d="M395 -121 L393 -130" fill="none" stroke="#3E7C43" stroke-width="6.5" stroke-linecap="round"/>
  <g transform="translate(393 -131) rotate(-32)" fill="#3E7C43"><path d="M0 0 L 1.38 -2.15 L 1.63 -4.22 L 1.84 -6.1 L 2.02 -7.82 L 2.14 -9.39 L 2.22 -10.85 L 2.25 -12.21 L 2.22 -13.5 L 2.12 -14.73 L 1.96 -15.93 L 1.73 -17.12 L 1.42 -18.31 L 1.03 -19.52 L 0.57 -20.77 L 0.03 -22.09 L -0.6 -23.5 L -1.31 -25.02 L -2.12 -26.67 L -3.02 -28.49 L -5 -30 L -5 -30 L -2.63 -28.68 L -0.66 -27.39 L 1.11 -26.17 L 2.68 -25 L 4.08 -23.83 L 5.3 -22.62 L 6.34 -21.34 L 7.17 -19.97 L 7.79 -18.51 L 8.17 -16.97 L 8.31 -15.39 L 8.2 -13.8 L 7.86 -12.22 L 7.3 -10.66 L 6.55 -9.09 L 5.61 -7.49 L 4.51 -5.82 L 3.24 -4.03 L 1.8 -2.1 L 0 0 Z"/><path d="M0 0 L -0.81 -2.42 L -0.56 -4.48 L -0.35 -6.34 L -0.18 -8.02 L -0.05 -9.54 L 0.03 -10.93 L 0.05 -12.2 L 0.02 -13.38 L -0.06 -14.5 L -0.21 -15.57 L -0.42 -16.63 L -0.7 -17.69 L -1.05 -18.8 L -1.48 -19.97 L -2 -21.22 L -2.6 -22.58 L -3.3 -24.07 L -4.09 -25.71 L -4.99 -27.51 L -5 -30 L -5 -30 L -5.37 -27.32 L -5.55 -24.99 L -5.72 -22.91 L -5.88 -21.08 L -6.05 -19.48 L -6.21 -18.12 L -6.35 -16.98 L -6.45 -16.03 L -6.48 -15.24 L -6.42 -14.53 L -6.25 -13.84 L -5.96 -13.08 L -5.56 -12.19 L -5.05 -11.12 L -4.45 -9.85 L -3.77 -8.35 L -3.01 -6.63 L -2.17 -4.67 L -1.23 -2.47 L 0 0 Z"/></g>
  <g transform="translate(425 -138) rotate(42)"><path d="M0 -11 C3.78 -8.36 6 -3.19 6 1.32 C6 7.15 3.18 11 0 11 C-3.18 11 -6 7.15 -6 1.32 C-6 -3.19 -3.78 -8.36 0 -11 Z" fill="#C8922A"/></g>
</g>
</svg>