<?xml version="1.0" encoding="UTF-8"?>
<svg xmlns="http://www.w3.org/2000/svg" viewBox="0 0 800 600" role="img" aria-label="Cmaa">
<title>Cmaa — Dabba Stencil (mono)</title>
<g transform="translate(98.46 354.35) scale(1.03)"><g transform="translate(14 0)"><path d="M83.68 -86.38 L 83.25 -86.98 L 82.82 -87.58 L 82.37 -88.16 L 81.92 -88.74 L 81.45 -89.31 L 80.98 -89.87 L 80.5 -90.43 L 80.01 -90.98 L 79.51 -91.52 L 79 -92.05 L 78.48 -92.57 L 77.95 -93.09 L 77.42 -93.6 L 76.88 -94.09 L 76.33 -94.58 L 75.77 -95.07 L 75.21 -95.54 L 74.64 -96 L 74.06 -96.45 L 73.47 -96.9 L 72.88 -97.33 L 72.27 -97.76 L 71.67 -98.17 L 71.05 -98.58 L 70.43 -98.97 L 69.81 -99.36 L 69.17 -99.74 L 68.53 -100.1 L 67.89 -100.46 L 67.24 -100.8 L 66.58 -101.14 L 65.92 -101.46 L 65.26 -101.77 L 64.59 -102.08 L 63.91 -102.37 L 63.23 -102.65 L 62.55 -102.92 L 61.86 -103.18 L 61.17 -103.43 L 60.47 -103.67 L 59.77 -103.89 L 59.06 -104.11 L 58.36 -104.31 L 57.65 -104.5 L 56.93 -104.68 L 56.22 -104.85 L 55.5 -105.01 L 54.78 -105.15" fill="none" stroke="#33241A" stroke-width="28" stroke-linecap="butt" stroke-linejoin="miter"/><path d="M37.22 -105.15 L 34.64 -104.58 L 32.1 -103.85 L 29.61 -102.98 L 27.17 -101.97 L 24.79 -100.82 L 22.48 -99.53 L 20.25 -98.12 L 18.1 -96.58 L 16.05 -94.91 L 14.09 -93.14 L 12.24 -91.25 L 10.51 -89.26 L 8.88 -87.17 L 7.38 -85 L 6.01 -82.74 L 4.77 -80.41 L 3.67 -78 L 2.71 -75.54 L 1.88 -73.03 L 1.21 -70.48 L 0.68 -67.89 L 0.3 -65.27 L 0.08 -62.64 L 0 -60 L 0.08 -57.36 L 0.3 -54.73 L 0.68 -52.11 L 1.21 -49.52 L 1.88 -46.97 L 2.71 -44.46 L 3.67 -42 L 4.77 -39.59 L 6.01 -37.26 L 7.38 -35 L 8.88 -32.83 L 10.51 -30.74 L 12.24 -28.75 L 14.09 -26.86 L 16.05 -25.09 L 18.1 -23.42 L 20.25 -21.88 L 22.48 -20.47 L 24.79 -19.18 L 27.17 -18.03 L 29.61 -17.02 L 32.1 -16.15 L 34.64 -15.42 L 37.22 -14.85" fill="none" stroke="#33241A" stroke-width="28" stroke-linecap="butt" stroke-linejoin="miter"/><path d="M54.78 -14.85 L 55.5 -14.99 L 56.22 -15.15 L 56.93 -15.32 L 57.65 -15.5 L 58.36 -15.69 L 59.06 -15.89 L 59.77 -16.11 L 60.47 -16.33 L 61.17 -16.57 L 61.86 -16.82 L 62.55 -17.08 L 63.23 -17.35 L 63.91 -17.63 L 64.59 -17.92 L 65.26 -18.23 L 65.92 -18.54 L 66.58 -18.86 L 67.24 -19.2 L 67.89 -19.54 L 68.53 -19.9 L 69.17 -20.26 L 69.81 -20.64 L 70.43 -21.03 L 71.05 -21.42 L 71.67 -21.83 L 72.27 -22.24 L 72.88 -22.67 L 73.47 -23.1 L 74.06 -23.55 L 74.64 -24 L 75.21 -24.46 L 75.77 -24.93 L 76.33 -25.42 L 76.88 -25.91 L 77.42 -26.4 L 77.95 -26.91 L 78.48 -27.43 L 79 -27.95 L 79.51 -28.48 L 80.01 -29.02 L 80.5 -29.57 L 80.98 -30.13 L 81.45 -30.69 L 81.92 -31.26 L 82.37 -31.84 L 82.82 -32.42 L 83.25 -33.02 L 83.68 -33.62" fill="none" stroke="#33241A" stroke-width="28" stroke-linecap="butt" stroke-linejoin="miter"/></g><g transform="translate(159.68 0)"><path d="M0 -120 L0 0" fill="none" stroke="#33241A" stroke-width="28" stroke-linecap="butt" stroke-linejoin="miter"/><path d="M103.2 -120 L103.2 0" fill="none" stroke="#33241A" stroke-width="28" stroke-linecap="butt" stroke-linejoin="miter"/><path d="M7.95 -102.08 L51.6 -52.8" fill="none" stroke="#33241A" stroke-width="28" stroke-linecap="butt" stroke-linejoin="miter"/><path d="M95.25 -102.08 L52.1 -53.36" fill="none" stroke="#33241A" stroke-width="28" stroke-linecap="butt" stroke-linejoin="miter"/></g><g transform="translate(324.88 0)"><path d="M38.96 -104.6 L0 0" fill="none" stroke="#33241A" stroke-width="28" stroke-linecap="butt" stroke-linejoin="miter"/><path d="M54.64 -104.6 L93.6 0" fill="none" stroke="#33241A" stroke-width="28" stroke-linecap="butt" stroke-linejoin="miter"/><path d="M25.28 -39.6 L68.32 -39.6" fill="none" stroke="#33241A" stroke-width="28" stroke-linecap="butt" stroke-linejoin="miter"/></g><g transform="translate(480.48 0)"><path d="M38.96 -104.6 L0 0" fill="none" stroke="#33241A" stroke-width="28" stroke-linecap="butt" stroke-linejoin="miter"/><path d="M54.64 -104.6 L93.6 0" fill="none" stroke="#33241A" stroke-width="28" stroke-linecap="butt" stroke-linejoin="miter"/><path d="M25.28 -39.6 L68.32 -39.6" fill="none" stroke="#33241A" stroke-width="28" stroke-linecap="butt" stroke-linejoin="miter"/></g><path d="M19.48 22 a4.6 4.6 0 1 0 9.2 0 a4.6 4.6 0 1 0 -9.2 0 Z" fill="#33241A"/><path d="M111.8 22 a4.6 4.6 0 1 0 9.2 0 a4.6 4.6 0 1 0 -9.2 0 Z" fill="#33241A"/><path d="M204.12 22 a4.6 4.6 0 1 0 9.2 0 a4.6 4.6 0 1 0 -9.2 0 Z" fill="#33241A"/><path d="M296.44 22 a4.6 4.6 0 1 0 9.2 0 a4.6 4.6 0 1 0 -9.2 0 Z" fill="#33241A"/><path d="M388.76 22 a4.6 4.6 0 1 0 9.2 0 a4.6 4.6 0 1 0 -9.2 0 Z" fill="#33241A"/><path d="M481.08 22 a4.6 4.6 0 1 0 9.2 0 a4.6 4.6 0 1 0 -9.2 0 Z" fill="#33241A"/><path d="M573.4 22 a4.6 4.6 0 1 0 9.2 0 a4.6 4.6 0 1 0 -9.2 0 Z" fill="#33241A"/>
</g>
</svg>