<svg xmlns="http://www.w3.org/2000/svg" viewBox="0 0 240 240" width="240" height="240">
<defs><mask id="d2-rev-cut">
    <rect x="0" y="0" width="240" height="240" fill="#fff"/>
    <g stroke="#000" stroke-width="3.4" stroke-linecap="round" fill="none">
      <path d="M58 66 L58 84"/><path d="M67 66 L67 84"/><path d="M76 66 L76 84"/><path d="M164 66 L164 84"/><path d="M173 66 L173 84"/><path d="M182 66 L182 84"/><path d="M88 124 L152 124"/><path d="M88 136 L152 136"/><path d="M80 107 L160 107"/><path d="M80 144.5 L160 144.5"/><path d="M102 155.5 L138 155.5"/>
    </g>
  </mask></defs>
<g mask="url(#d2-rev-cut)">
    <g fill="#D4A23C">
      <rect x="50" y="62" width="140" height="14" rx="7"/>
      <rect x="113" y="76" width="14" height="20"/>
      <rect x="78" y="96" width="84" height="11" rx="4"/>
      <rect x="84" y="107" width="72" height="40"/>
      <rect x="78" y="144" width="84" height="11" rx="4"/>
      <path d="M102 155 L138 155 L128 169 L112 169 Z"/>
    </g>
    <g fill="#EFE3C8">
      <path d="M49 85.5 L49 60 Q49 50 59 50 L75 50 Q85 50 85 60 L85 85.5 a4.5 4.5 0 0 1 -9 0 a4.5 4.5 0 0 1 -9 0 a4.5 4.5 0 0 1 -9 0 a4.5 4.5 0 0 1 -9 0 Z M83 54 h8 q7 0 7 6.5 q0 6.5 -7 6.5 h-8 Z"/><path d="M155 85.5 L155 60 Q155 50 165 50 L181 50 Q191 50 191 60 L191 85.5 a4.5 4.5 0 0 1 -9 0 a4.5 4.5 0 0 1 -9 0 a4.5 4.5 0 0 1 -9 0 a4.5 4.5 0 0 1 -9 0 Z M157 54 h-8 q-7 0 -7 6.5 q0 6.5 7 6.5 h8 Z"/>
    </g>
    <g stroke="#EFE3C8" stroke-width="16" stroke-linecap="round">
      <path d="M46 24 L62 44"/><path d="M194 24 L178 44"/>
    </g>
  </g><path d="M120 171 L120 176.5 120 198 L120.2 197.9 L120.42 197.82 L120.65 197.77 L120.89 197.74 L121.15 197.74 L121.42 197.77 L121.69 197.83 L121.96 197.92 L122.23 198.04 L122.49 198.19 L122.74 198.38 L122.98 198.6 L123.2 198.85 L123.39 199.13 L123.57 199.43 L123.71 199.77 L123.83 200.12 L123.9 200.49 L123.95 200.88 L123.95 201.28 L123.91 201.69 L123.83 202.1 L123.7 202.51 L123.53 202.92 L123.31 203.31 L123.06 203.69 L122.76 204.05 L122.41 204.39 L122.03 204.7 L121.61 204.97 L121.16 205.2 L120.68 205.4 L120.17 205.54 L119.64 205.64 L119.1 205.69 L118.54 205.69 L117.98 205.62 L117.41 205.51 L116.85 205.33 L116.3 205.1 L115.76 204.81 L115.25 204.46 L114.77 204.06 L114.32 203.61 L113.91 203.1 L113.54 202.56 L113.23 201.97 L112.97 201.34 L112.76 200.68 L112.63 200 L112.55 199.3 L112.54 198.58 L112.61 197.85 L112.74 197.13 L112.95 196.41 L113.23 195.7 L113.58 195.02 L114 194.36 L114.48 193.74 L115.03 193.16 L115.64 192.63 L116.31 192.16 L117.03 191.75 L117.79 191.4 L118.59 191.12 L119.43 190.92 L120.29 190.8 L121.17 190.76 L122.05 190.81 L122.94 190.94 L123.83 191.16 L124.69 191.46 L125.54 191.86 L126.35 192.33 L127.12 192.88 L127.84 193.52 L128.5 194.22 L129.1 195 L129.63 195.83 L130.08 196.72 L130.45 197.66 L130.73 198.64 L130.92 199.66 L131.01 200.69 L131 201.74 L130.89 202.8 L130.68 203.85 L130.37 204.88 L129.96 205.89 L129.45 206.86 L128.84 207.79 L128.14 208.67 L127.35 209.48 L126.49 210.22 L125.54 210.88 L124.54 211.45 L123.47 211.93 L122.35 212.31 L121.19 212.59 L120 212.75 L118.79 212.8 L117.57 212.74 L116.35 212.55 L115.15 212.25 L113.97 211.84 L112.82 211.31 L111.72 210.67 L110.68 209.92 L109.71 209.07 L108.82 208.13 L108.01 207.09 L107.3 205.98 L106.69 204.79 L106.19 203.55 L105.81 202.25 L105.56 200.91 L105.43 199.54 L105.43 198.16 L105.56 196.77 L105.83 195.4 L106.23 194.04 L106.75 192.72 L107.41 191.44 L108.19 190.23 L109.08 189.08 L110.09 188.02 L111.2 187.05 L112.41 186.19 L113.7 185.44 L115.06 184.81 L116.49 184.3 L117.97 183.94 L119.49 183.71 L121.03 183.63 L122.58 183.69 L124.13 183.9 L125.67 184.26 L127.17 184.77 L128.62 185.42 L130.02 186.21 L131.35 187.13 L132.59 188.18 L133.73 189.35 L134.76 190.63 L135.67 192.02 L136.45 193.49 L137.1 195.03 L137.59 196.64 L137.94 198.3 L138.13 200 L138.15 201.72 L138.02 203.44 L137.72 205.15 L137.25 206.83 L136.63 208.47 L135.85 210.06 L134.92 211.57 L133.84 213 L132.63 214.32 L131.29 215.53 L129.83 216.62 L128.27 217.57 L126.61 218.37 L124.88 219.01 L123.09 219.49 L121.25 219.81 L119.37 219.94 L117.49 219.9 L115.6 219.68 L113.73 219.28 L111.91 218.71 L110.13 217.96 L108.42 217.04 L106.8 215.95 L105.28 214.72 L103.88 213.33 L102.61 211.82 L101.48 210.18 L100.5 208.44 L99.69 206.6 L99.06 204.68 L98.61 202.7 L98.34 200.68 L98.26 198.63 L98.38 196.58 L98.7 194.53 L99.2 192.51 L99.9 190.54 L100.79 188.64 L101.86 186.82 L103.1 185.1 L104.5 183.5 L106.06 182.03 L107.75 180.7 L109.58 179.54 L111.51 178.55 L113.53 177.74 L115.64 177.13 L117.8 176.71 L120 176.5" fill="none" stroke="#EFE3C8" stroke-width="6.5" stroke-linecap="round"/>
</svg>