<svg xmlns="http://www.w3.org/2000/svg" viewBox="0 0 240 240" width="240" height="240">
<g transform="translate(0 34)"><path d="M110 128 C118 112 130.79 111.21 136.79 117.21" fill="none" stroke="#C8922A" stroke-width="7" stroke-linecap="round"/>
  <path d="M158 94 L158.18 93.87 L158.37 93.75 L158.59 93.65 L158.83 93.58 L159.08 93.53 L159.35 93.5 L159.63 93.5 L159.91 93.53 L160.2 93.6 L160.5 93.69 L160.79 93.82 L161.08 93.98 L161.35 94.17 L161.62 94.4 L161.87 94.66 L162.11 94.95 L162.32 95.26 L162.5 95.61 L162.66 95.98 L162.79 96.38 L162.88 96.79 L162.93 97.22 L162.95 97.67 L162.92 98.13 L162.85 98.59 L162.74 99.06 L162.58 99.52 L162.38 99.98 L162.13 100.43 L161.84 100.87 L161.5 101.29 L161.12 101.68 L160.7 102.04 L160.24 102.38 L159.74 102.68 L159.21 102.94 L158.65 103.15 L158.06 103.32 L157.44 103.44 L156.81 103.51 L156.16 103.52 L155.51 103.47 L154.84 103.37 L154.18 103.21 L153.53 102.99 L152.88 102.71 L152.25 102.37 L151.64 101.97 L151.06 101.51 L150.52 101 L150.01 100.43 L149.54 99.82 L149.12 99.16 L148.76 98.45 L148.45 97.71 L148.2 96.93 L148.02 96.12 L147.91 95.29 L147.86 94.43 L147.89 93.57 L147.99 92.7 L148.17 91.84 L148.42 90.97 L148.75 90.13 L149.15 89.3 L149.63 88.5 L150.18 87.73 L150.8 87.01 L151.48 86.33 L152.23 85.7 L153.04 85.14 L153.91 84.63 L154.82 84.2 L155.78 83.84 L156.77 83.56 L157.8 83.36 L158.85 83.25 L159.92 83.22 L161 83.29 L162.08 83.45 L163.15 83.7 L164.21 84.04 L165.25 84.47 L166.26 85 L167.23 85.61 L168.16 86.31 L169.03 87.09 L169.84 87.95 L170.59 88.89 L171.26 89.89 L171.85 90.95 L172.35 92.07 L172.76 93.24 L173.08 94.45 L173.3 95.7 L173.41 96.97 L173.42 98.26 L173.31 99.55 L173.1 100.84 L172.78 102.12 L172.35 103.38 L171.81 104.62 L171.17 105.81 L170.42 106.95 L169.57 108.04 L168.63 109.06 L167.6 110.01 L166.48 110.87 L165.29 111.65 L164.02 112.32 L162.69 112.9 L161.31 113.37 L159.89 113.72 L158.42 113.96 L156.93 114.07 L155.43 114.06 L153.92 113.92 L152.42 113.66 L150.93 113.27 L149.46 112.75 L148.04 112.11 L146.66 111.35 L145.35 110.47 L144.1 109.47 L142.93 108.37 L141.84 107.17 L140.86 105.87 L139.98 104.48 L139.21 103.02 L138.56 101.48 L138.04 99.89 L137.64 98.25 L137.39 96.57 L137.27 94.86 L137.3 93.14 L137.47 91.41 L137.78 89.69 L138.24 88 L138.84 86.33 L139.58 84.71 L140.46 83.15 L141.47 81.66 L142.61 80.25 L143.87 78.93 L145.25 77.71 L146.73 76.6 L148.31 75.61 L149.97 74.75 L151.71 74.02 L153.51 73.44 L155.37 73.01 L157.27 72.73 L159.2 72.61 L161.14 72.65 L163.08 72.85 L165.01 73.21 L166.92 73.74 L168.78 74.42 L170.59 75.27 L172.34 76.26 L174.01 77.4 L175.59 78.69 L177.06 80.1 L178.42 81.65 L179.65 83.31 L180.75 85.07 L181.71 86.94 L182.51 88.88 L183.15 90.9 L183.62 92.97 L183.92 95.08 L184.05 97.23 L184 99.39 L183.77 101.55 L183.36 103.69 L182.77 105.81 L182 107.88 L181.06 109.88 L179.95 111.82 L178.68 113.66 L177.26 115.41 L175.68 117.04 L173.97 118.53 L172.13 119.89 L170.18 121.1 L168.12 122.15 L165.97 123.03 L163.74 123.73 L161.46 124.25 L159.12 124.58 L156.76 124.71 L154.38 124.65 L152 124.39 L149.64 123.94 L147.32 123.28 L145.05 122.44 L142.84 121.4 L140.72 120.18 L138.7 118.78 L136.79 117.21" fill="none" stroke="#C8922A" stroke-width="7" stroke-linecap="round"/><path d="M63 60 C52 90 60 124 90 138 C101 143 109 139 112 132 C115 108 99 84 78 62 Z" fill="#A62A6E"/><circle cx="70" cy="55" r="9.5" fill="#A62A6E"/><path d="M52 57 L63 50.5 L64 61 Z" fill="#C8922A"/><g stroke="#3E7C43" stroke-width="3.5" stroke-linecap="round">
    <path d="M67 46 L60 34"/><path d="M70 45 L70 30"/><path d="M73 46 L80 34"/>
    <circle cx="60" cy="33" r="3" fill="#3E7C43" stroke="none"/>
    <circle cx="70" cy="29" r="3" fill="#3E7C43" stroke="none"/>
    <circle cx="80" cy="33" r="3" fill="#3E7C43" stroke="none"/>
  </g><path d="M73 90 Q92 102 97 126" fill="none" stroke="#C8922A" stroke-width="4.5" stroke-linecap="round"/></g>
</svg>