<svg xmlns="http://www.w3.org/2000/svg" viewBox="0 0 240 240" width="240" height="240">
<g transform="translate(-1 6)">
    <circle cx="66" cy="154" r="33" fill="none" stroke="#33241A" stroke-width="6.5"/>
    <path d="M66 152 L66.17 151.89 L66.35 151.79 L66.55 151.71 L66.77 151.64 L66.99 151.6 L67.23 151.58 L67.48 151.58 L67.74 151.61 L68 151.66 L68.26 151.74 L68.52 151.84 L68.78 151.98 L69.04 152.14 L69.28 152.33 L69.51 152.55 L69.73 152.79 L69.93 153.06 L70.11 153.35 L70.27 153.66 L70.4 154 L70.51 154.35 L70.58 154.73 L70.63 155.11 L70.64 155.51 L70.62 155.91 L70.56 156.32 L70.47 156.74 L70.34 157.15 L70.17 157.56 L69.96 157.96 L69.71 158.35 L69.43 158.72 L69.11 159.08 L68.76 159.42 L68.37 159.73 L67.95 160.01 L67.5 160.26 L67.03 160.48 L66.52 160.66 L66 160.8 L65.46 160.9 L64.9 160.95 L64.33 160.96 L63.75 160.92 L63.17 160.84 L62.59 160.7 L62.01 160.51 L61.44 160.28 L60.88 159.99 L60.34 159.66 L59.83 159.27 L59.33 158.84 L58.87 158.37 L58.44 157.85 L58.05 157.29 L57.71 156.69 L57.4 156.06 L57.15 155.4 L56.95 154.71 L56.8 154 L56.71 153.27 L56.68 152.52 L56.7 151.77 L56.79 151.01 L56.95 150.25 L57.16 149.5 L57.44 148.75 L57.78 148.03 L58.18 147.32 L58.65 146.65 L59.17 146 L59.75 145.39 L60.38 144.83 L61.06 144.31 L61.79 143.84 L62.56 143.42 L63.38 143.07 L64.22 142.78 L65.1 142.56 L66 142.4 L66.92 142.32 L67.85 142.31 L68.79 142.37 L69.73 142.51 L70.67 142.73 L71.59 143.02 L72.5 143.39 L73.38 143.84 L74.24 144.36 L75.05 144.95 L75.82 145.61 L76.55 146.34 L77.22 147.12 L77.83 147.97 L78.38 148.87 L78.86 149.82 L79.26 150.82 L79.59 151.85 L79.84 152.91 L80 154 L80.08 155.11 L80.06 156.23 L79.96 157.35 L79.77 158.47 L79.49 159.59 L79.12 160.68 L78.65 161.75 L78.1 162.79 L77.47 163.79 L76.75 164.75 L75.95 165.65 L75.08 166.49 L74.13 167.27 L73.12 167.97 L72.05 168.6 L70.92 169.14 L69.74 169.6 L68.53 169.96 L67.28 170.23 L66 170.4 L64.7 170.47 L63.4 170.44 L62.09 170.3 L60.78 170.05 L59.49 169.71 L58.23 169.25 L56.99 168.7 L55.8 168.04 L54.65 167.29 L53.55 166.45 L52.53 165.51 L51.57 164.49 L50.69 163.38 L49.89 162.21 L49.19 160.96 L48.58 159.66 L48.07 158.3 L47.67 156.9 L47.38 155.47 L47.2 154 L47.14 152.52 L47.19 151.02 L47.37 149.53 L47.66 148.04 L48.08 146.58 L48.61 145.14 L49.25 143.74 L50.01 142.39 L50.88 141.09 L51.86 139.86 L52.93 138.7 L54.1 137.63 L55.36 136.64 L56.7 135.75 L58.12 134.97 L59.6 134.29 L61.13 133.74 L62.72 133.3 L64.35 132.98 L66 132.8 L67.67 132.75 L69.35 132.82 L71.03 133.04 L72.7 133.38 L74.34 133.86 L75.95 134.47 L77.52 135.21 L79.03 136.07 L80.47 137.06 L81.84 138.16 L83.12 139.37 L84.32 140.69 L85.41 142.11 L86.39 143.61 L87.25 145.2 L87.99 146.86 L88.6 148.57 L89.07 150.35 L89.41 152.16 L89.6 154 L89.65 155.86 L89.55 157.73 L89.3 159.59 L88.9 161.44 L88.36 163.26 L87.67 165.04 L86.84 166.77 L85.87 168.44 L84.77 170.03 L83.54 171.54 L82.18 172.95 L80.72 174.26 L79.15 175.45 L77.48 176.52 L75.72 177.47 L73.89 178.27 L71.99 178.93 L70.03 179.44 L68.03 179.8 L66 180" fill="none" stroke="#C8922A" stroke-width="4" stroke-linecap="round"/>
    <circle cx="66" cy="154" r="3" fill="#33241A"/>
    <circle cx="178" cy="154" r="33" fill="none" stroke="#33241A" stroke-width="6.5"/>
    <path d="M178 152 L178.17 151.89 L178.35 151.79 L178.55 151.71 L178.77 151.64 L178.99 151.6 L179.23 151.58 L179.48 151.58 L179.74 151.61 L180 151.66 L180.26 151.74 L180.52 151.84 L180.78 151.98 L181.04 152.14 L181.28 152.33 L181.51 152.55 L181.73 152.79 L181.93 153.06 L182.11 153.35 L182.27 153.66 L182.4 154 L182.51 154.35 L182.58 154.73 L182.63 155.11 L182.64 155.51 L182.62 155.91 L182.56 156.32 L182.47 156.74 L182.34 157.15 L182.17 157.56 L181.96 157.96 L181.71 158.35 L181.43 158.72 L181.11 159.08 L180.76 159.42 L180.37 159.73 L179.95 160.01 L179.5 160.26 L179.03 160.48 L178.52 160.66 L178 160.8 L177.46 160.9 L176.9 160.95 L176.33 160.96 L175.75 160.92 L175.17 160.84 L174.59 160.7 L174.01 160.51 L173.44 160.28 L172.88 159.99 L172.34 159.66 L171.83 159.27 L171.33 158.84 L170.87 158.37 L170.44 157.85 L170.05 157.29 L169.71 156.69 L169.4 156.06 L169.15 155.4 L168.95 154.71 L168.8 154 L168.71 153.27 L168.68 152.52 L168.7 151.77 L168.79 151.01 L168.95 150.25 L169.16 149.5 L169.44 148.75 L169.78 148.03 L170.18 147.32 L170.65 146.65 L171.17 146 L171.75 145.39 L172.38 144.83 L173.06 144.31 L173.79 143.84 L174.56 143.42 L175.38 143.07 L176.22 142.78 L177.1 142.56 L178 142.4 L178.92 142.32 L179.85 142.31 L180.79 142.37 L181.73 142.51 L182.67 142.73 L183.59 143.02 L184.5 143.39 L185.38 143.84 L186.24 144.36 L187.05 144.95 L187.82 145.61 L188.55 146.34 L189.22 147.12 L189.83 147.97 L190.38 148.87 L190.86 149.82 L191.26 150.82 L191.59 151.85 L191.84 152.91 L192 154 L192.08 155.11 L192.06 156.23 L191.96 157.35 L191.77 158.47 L191.49 159.59 L191.12 160.68 L190.65 161.75 L190.1 162.79 L189.47 163.79 L188.75 164.75 L187.95 165.65 L187.08 166.49 L186.13 167.27 L185.12 167.97 L184.05 168.6 L182.92 169.14 L181.74 169.6 L180.53 169.96 L179.28 170.23 L178 170.4 L176.7 170.47 L175.4 170.44 L174.09 170.3 L172.78 170.05 L171.49 169.71 L170.23 169.25 L168.99 168.7 L167.8 168.04 L166.65 167.29 L165.55 166.45 L164.53 165.51 L163.57 164.49 L162.69 163.38 L161.89 162.21 L161.19 160.96 L160.58 159.66 L160.07 158.3 L159.67 156.9 L159.38 155.47 L159.2 154 L159.14 152.52 L159.19 151.02 L159.37 149.53 L159.66 148.04 L160.08 146.58 L160.61 145.14 L161.25 143.74 L162.01 142.39 L162.88 141.09 L163.86 139.86 L164.93 138.7 L166.1 137.63 L167.36 136.64 L168.7 135.75 L170.12 134.97 L171.6 134.29 L173.13 133.74 L174.72 133.3 L176.35 132.98 L178 132.8 L179.67 132.75 L181.35 132.82 L183.03 133.04 L184.7 133.38 L186.34 133.86 L187.95 134.47 L189.52 135.21 L191.03 136.07 L192.47 137.06 L193.84 138.16 L195.12 139.37 L196.32 140.69 L197.41 142.11 L198.39 143.61 L199.25 145.2 L199.99 146.86 L200.6 148.57 L201.07 150.35 L201.41 152.16 L201.6 154 L201.65 155.86 L201.55 157.73 L201.3 159.59 L200.9 161.44 L200.36 163.26 L199.67 165.04 L198.84 166.77 L197.87 168.44 L196.77 170.03 L195.54 171.54 L194.18 172.95 L192.72 174.26 L191.15 175.45 L189.48 176.52 L187.72 177.47 L185.89 178.27 L183.99 178.93 L182.03 179.44 L180.03 179.8 L178 180" fill="none" stroke="#C8922A" stroke-width="4" stroke-linecap="round"/>
    <circle cx="178" cy="154" r="3" fill="#33241A"/><g fill="none" stroke="#33241A" stroke-width="6" stroke-linecap="round">
    <path d="M116 158 L102 104"/>
    <path d="M102 104 L160 100"/>
    <path d="M116 158 L166 122"/>
    <path d="M160 100 L168 124 L178 154"/>
    <path d="M66 154 L116 158"/>
    <path d="M66 154 L102 104"/>
    <path d="M102 104 L98 92"/>
    <path d="M160 100 L156 80"/>
  </g><path d="M84 90 L110 90" stroke="#7A1E2B" stroke-width="8" stroke-linecap="round" fill="none"/><path d="M156 80 C144 71 135 77 137 86" fill="none" stroke="#33241A" stroke-width="6" stroke-linecap="round"/>
    <circle cx="137" cy="86" r="3.2" fill="#7A1E2B"/><circle cx="116" cy="158" r="7.5" fill="none" stroke="#33241A" stroke-width="4.5"/>
    <path d="M116 158 L127 171 M121 174 L135 174" stroke="#33241A" stroke-width="5" stroke-linecap="round" fill="none"/><g fill="none" stroke="#33241A" stroke-width="4.5" stroke-linecap="round">
    <path d="M44 118 L90 118"/><path d="M50 118 L62 150"/><path d="M86 118 L70 150"/>
  </g><rect x="45" y="102" width="44" height="16" rx="3" fill="#B5512E" stroke="#33241A" stroke-width="5"/><rect x="46.5" y="86" width="41" height="16" rx="3" fill="#B5512E" stroke="#33241A" stroke-width="5"/><rect x="48" y="70" width="38" height="16" rx="3" fill="#B5512E" stroke="#33241A" stroke-width="5"/><path d="M58 68 Q67 50 76 68" fill="none" stroke="#33241A" stroke-width="5" stroke-linecap="round"/></g>
</svg>