<svg xmlns="http://www.w3.org/2000/svg" viewBox="0 0 460 660" font-family="'Mulish',system-ui,sans-serif">
<title>Cmaa — BUTTER CHAKLI — cartouche pouch</title>
<defs>
  <style>@import url('https://fonts.googleapis.com/css2?family=Fraunces:ital,opsz,wght@0,9..144,400..900;1,9..144,400..900&amp;family=Yatra+One&amp;family=Mulish:wght@400;600;700;800&amp;family=Courier+Prime:wght@400;700&amp;family=Caveat:wght@600&amp;family=Noto+Sans+Devanagari:wght@400;600&amp;display=swap');</style>
  <clipPath id="arch-butter-pouch"><path d="M105 391 L105 273.48 A42.21 42.21 0 0 1 128.87 209.72 A45.81 45.81 0 0 1 191.37 170.31 A47.9 47.9 0 0 1 268.63 170.31 A45.81 45.81 0 0 1 331.13 209.72 A42.21 42.21 0 0 1 355 273.48 L355 391 Z"/></clipPath>
  <clipPath id="body-butter-pouch"><rect x="26" y="22" width="408" height="626" rx="14"/></clipPath>
  <filter id="grain-butter-pouch"><feTurbulence type="fractalNoise" baseFrequency=".8" numOctaves="2" stitchTiles="stitch" result="n"/><feColorMatrix in="n" type="saturate" values="0"/><feComponentTransfer><feFuncA type="linear" slope=".05"/></feComponentTransfer><feComposite operator="over" in2="SourceGraphic"/></filter><filter id="press-butter-pouch" x="-8%" y="-8%" width="116%" height="116%"><feOffset dx="0" dy="1" in="SourceAlpha" result="o"/><feGaussianBlur stdDeviation=".5" in="o" result="b"/><feComposite in="b" in2="SourceAlpha" operator="out" result="s"/><feFlood flood-color="#000" flood-opacity=".26"/><feComposite in2="s" operator="in" result="sh"/><feMerge><feMergeNode in="SourceGraphic"/><feMergeNode in="sh"/></feMerge></filter>
  <linearGradient id="sheen-butter-pouch" x1="0" y1="0" x2="1" y2="0"><stop offset="0" stop-color="#fff" stop-opacity="0"/><stop offset=".18" stop-color="#fff" stop-opacity=".26"/><stop offset=".3" stop-color="#fff" stop-opacity="0"/><stop offset=".82" stop-color="#000" stop-opacity="0"/><stop offset="1" stop-color="#000" stop-opacity=".12"/></linearGradient>
</defs>
<g filter="url(#grain-butter-pouch)">
<g clip-path="url(#body-butter-pouch)">
  <rect x="26" y="22" width="408" height="626" rx="14" fill="#F6EDDB"/>

  <rect x="46" y="66" width="368" height="514" fill="none" stroke="#C8922A" stroke-width="1"/>
  <rect x="43.25" y="63.25" width="5.5" height="5.5" transform="rotate(45 46 66)" fill="#C98A3B"/><rect x="411.25" y="63.25" width="5.5" height="5.5" transform="rotate(45 414 66)" fill="#C98A3B"/><rect x="43.25" y="577.25" width="5.5" height="5.5" transform="rotate(45 46 580)" fill="#C98A3B"/><rect x="411.25" y="577.25" width="5.5" height="5.5" transform="rotate(45 414 580)" fill="#C98A3B"/>

  <g>
    <circle cx="230" cy="96" r="15" fill="none" stroke="#C98A3B" stroke-width="1.6"/>
    <path d="M230 94.2 L230.25 94.16 L230.51 94.16 L230.77 94.19 L231.04 94.26 L231.3 94.37 L231.54 94.53 L231.77 94.71 L231.98 94.94 L232.15 95.19 L232.3 95.48 L232.4 95.78 L232.47 96.11 L232.48 96.45 L232.45 96.8 L232.37 97.14 L232.25 97.48 L232.07 97.81 L231.84 98.11 L231.57 98.39 L231.26 98.63 L230.92 98.82 L230.54 98.98 L230.14 99.08 L229.72 99.12 L229.29 99.11 L228.86 99.04 L228.43 98.91 L228.03 98.72 L227.64 98.47 L227.29 98.16 L226.97 97.81 L226.71 97.41 L226.49 96.97 L226.34 96.5 L226.25 96 L226.23 95.49 L226.28 94.97 L226.4 94.46 L226.59 93.96 L226.85 93.49 L227.18 93.05 L227.57 92.65 L228.01 92.31 L228.51 92.02 L229.04 91.8 L229.61 91.65 L230.2 91.59 L230.8 91.6 L231.4 91.69 L231.99 91.87 L232.56 92.13 L233.09 92.46 L233.58 92.87 L234.01 93.35 L234.38 93.89 L234.68 94.48 L234.9 95.11 L235.03 95.77 L235.07 96.46 L235.01 97.14 L234.87 97.83 L234.63 98.49 L234.3 99.12 L233.88 99.71 L233.38 100.24 L232.81 100.7 L232.17 101.09 L231.49 101.39 L230.76 101.59 L230 101.7 L229.23 101.7 L228.45 101.6 L227.69 101.4 L226.96 101.08 L226.27 100.67 L225.64 100.17 L225.07 99.58 L224.59 98.91 L224.19 98.18 L223.9 97.39 L223.71 96.57 L223.64 95.71 L223.68 94.85 L223.84 94 L224.11 93.16 L224.5 92.37 L224.99 91.63 L225.59 90.95 L226.28 90.36 L227.04 89.86 L227.88 89.47 L228.76 89.19 L229.69 89.03 L230.63 88.99 L231.58 89.08 L232.51 89.31 L233.41 89.66 L234.27 90.13 L235.06 90.71 L235.76 91.4 L236.38 92.19 L236.88 93.06 L237.27 93.99 L237.53 94.98 L237.65 96 L237.64 97.03 L237.48 98.06 L237.19 99.07 L236.76 100.04 L236.2 100.94 L235.52 101.77 L234.73 102.5 L233.84 103.13 L232.86 103.63 L231.83 104 L230.74 104.23 L229.63 104.31 L228.5 104.24 L227.39 104.02 L226.32 103.65 L225.29 103.13 L224.34 102.47 L223.48 101.69 L222.73 100.8 L222.1 99.8 L221.61 98.73 L221.27 97.58 L221.08 96.4 L221.05 95.19 L221.18 93.99 L221.48 92.8 L221.94 91.66 L222.55 90.59 L223.3 89.6 L224.19 88.71 L225.19 87.95 L226.29 87.33 L227.48 86.85 L228.72 86.54 L230 86.4" fill="none" stroke="#33241A" stroke-width="2.4" stroke-linecap="round"/>
    <path d="M230.17 95.72 L231.96 92.83 M230.5 95.75 L233.54 94.24 M230.78 96.07 L234.17 96.39 M230.81 96.61 L233.53 98.66 M230.45 97.16 L231.68 100.33 M229.73 97.45 L229.1 100.79 M228.85 97.26 L226.56 99.77 M228.14 96.53 L224.87 97.46 M227.92 95.41 L224.65 94.48 M228.39 94.23 L226.1 91.72 M229.52 93.42 L228.89 90.08 M231.03 93.34 L232.26 90.17 M232.46 94.14 L235.17 92.09 M233.3 95.69 L236.68 95.38 M233.17 97.58 L236.21 99.09 M231.98 99.21 L233.77 102.1 M230 100 L230 103.4 M227.77 99.6 L225.98 102.49 M226.01 97.99 L222.97 99.5 M225.33 95.57 L221.95 95.25 M226.08 93.04 L223.36 90.99 M228.14 91.2 L226.91 88.03 M230.99 90.72 L231.61 87.37 M233.78 91.86 L236.07 89.34 M235.61 94.4 L238.88 93.47 M235.83 97.66 L239.1 98.59 M234.24 100.65 L236.53 103.16 M231.2 102.41 L231.82 105.75 M227.56 102.3 L226.33 105.47 M224.43 100.21 L221.71 102.26 M222.82 96.67 L219.43 96.98 M223.34 92.68 L220.3 91.17 M225.96 89.48 L224.17 86.59 " stroke="#33241A" stroke-width=".9" opacity=".8"/>
  </g>
  <text x="230" y="128" text-anchor="middle" font-family="'Fraunces',serif" font-weight="600" font-size="19" letter-spacing="5" fill="#33241A">CMAA</text>
  <text x="230" y="143" text-anchor="middle" font-size="8.5" fill="#33241A" opacity=".78"><tspan font-family="'Yatra One','Noto Sans Devanagari',serif" font-size="9.5">आजीचा फराळ</tspan><tspan font-family="'Mulish',sans-serif" font-weight="700" letter-spacing="2" dx="4"> · KOTHRUD, PUNE</tspan></text>

  
  <path d="M105 391 L105 273.48 A42.21 42.21 0 0 1 128.87 209.72 A45.81 45.81 0 0 1 191.37 170.31 A47.9 47.9 0 0 1 268.63 170.31 A45.81 45.81 0 0 1 331.13 209.72 A42.21 42.21 0 0 1 355 273.48 L355 391 Z" fill="#F6EDDB"/>
  <path d="M105 391 L105 273.48 A42.21 42.21 0 0 1 128.87 209.72 A45.81 45.81 0 0 1 191.37 170.31 A47.9 47.9 0 0 1 268.63 170.31 A45.81 45.81 0 0 1 331.13 209.72 A42.21 42.21 0 0 1 355 273.48 L355 391 Z" fill="#C98A3B" opacity=".1"/>
  <g clip-path="url(#arch-butter-pouch)">
    <g transform="translate(105 148.67) scale(0.83)"><g fill="#C98A3B" opacity="0.09"><path d="M184 146 L400 146 L398.15 176.36 L183.75 150.13 Z"/><path d="M181.41 159.01 L380.97 241.67 L367.64 269.01 L179.6 162.73 Z"/><path d="M174.04 170.04 L326.78 322.78 L304 342.94 L170.94 172.78 Z"/><path d="M163.01 177.41 L245.67 376.97 L216.91 386.88 L159.1 178.76 Z"/><path d="M150 180 L150 396 L119.64 394.15 L145.87 179.75 Z"/><path d="M136.99 177.41 L54.33 376.97 L26.99 363.64 L133.27 175.6 Z"/><path d="M125.96 170.04 L-26.78 322.78 L-46.94 300 L123.22 166.94 Z"/><path d="M118.59 159.01 L-80.97 241.67 L-90.88 212.91 L117.24 155.1 Z"/><path d="M116 146 L-100 146 L-98.15 115.64 L116.25 141.87 Z"/><path d="M118.59 132.99 L-80.97 50.33 L-67.64 22.99 L120.4 129.27 Z"/><path d="M125.96 121.96 L-26.78 -30.78 L-4 -50.94 L129.06 119.22 Z"/><path d="M136.99 114.59 L54.33 -84.97 L83.09 -94.88 L140.9 113.24 Z"/><path d="M150 112 L150 -104 L180.36 -102.15 L154.13 112.25 Z"/><path d="M163.01 114.59 L245.67 -84.97 L273.01 -71.64 L166.73 116.4 Z"/><path d="M174.04 121.96 L326.78 -30.78 L346.94 -8 L176.78 125.06 Z"/><path d="M181.41 132.99 L380.97 50.33 L390.88 79.09 L182.76 136.9 Z"/></g>
<rect x="54" y="78" width="8" height="8" transform="rotate(45 58 82)" fill="#C8922A" opacity="0.85"/><rect x="240.5" y="66.5" width="7" height="7" transform="rotate(45 244 70)" fill="#C8922A" opacity="0.85"/><circle cx="34" cy="112" r="2" fill="#B5512E" opacity=".5"/><circle cx="268" cy="100" r="2" fill="#B5512E" opacity=".5"/>
<g>
    <rect x="-30" y="262" width="360" height="56" fill="#B5512E" opacity=".13"/>
    <path d="M-86 262 L-30 318 M-86 262 L-142 318 M-60 262 L-4 318 M-60 262 L-116 318 M-34 262 L22 318 M-34 262 L-90 318 M-8 262 L48 318 M-8 262 L-64 318 M18 262 L74 318 M18 262 L-38 318 M44 262 L100 318 M44 262 L-12 318 M70 262 L126 318 M70 262 L14 318 M96 262 L152 318 M96 262 L40 318 M122 262 L178 318 M122 262 L66 318 M148 262 L204 318 M148 262 L92 318 M174 262 L230 318 M174 262 L118 318 M200 262 L256 318 M200 262 L144 318 M226 262 L282 318 M226 262 L170 318 M252 262 L308 318 M252 262 L196 318 M278 262 L334 318 M278 262 L222 318 M304 262 L360 318 M304 262 L248 318 M330 262 L386 318 M330 262 L274 318 M356 262 L412 318 M356 262 L300 318 M382 262 L438 318 M382 262 L326 318 " stroke="#B5512E" stroke-width="1" opacity=".3" fill="none"/>
    <path d="M-30 262 L330 262" stroke="#33241A" stroke-width="1.2" opacity=".28"/>
  </g>
<ellipse cx="210" cy="258" rx="24" ry="5" fill="#93401F"/>
<circle cx="210" cy="216" r="43" fill="#B5512E"/>
<path d="M171.9 196 Q 210 203 248.1 196" fill="none" stroke="#C8922A" stroke-width="2.2"/>
<path d="M168.7 204 Q 210 211 251.3 204" fill="none" stroke="#C8922A" stroke-width="1.1"/>
<g fill="#F6EDDB"><circle cx="185" cy="201" r="1.6"/><circle cx="197.5" cy="202.5" r="1.6"/><circle cx="210" cy="203" r="1.6"/><circle cx="222.5" cy="202.5" r="1.6"/><circle cx="235" cy="201" r="1.6"/></g>
<ellipse cx="210" cy="172" rx="23" ry="7" fill="#B5512E" stroke="#33241A" stroke-width="1.2"/>
<ellipse cx="210" cy="171.5" rx="16" ry="4.2" fill="#33241A"/>
<path d="M206 96 L206 174" stroke="#33241A" stroke-width="4.5" stroke-linecap="round"/>
<circle cx="206" cy="94" r="5.5" fill="#C8922A" stroke="#33241A" stroke-width="1.2"/>
<g fill="none" stroke="#93401F" stroke-width="1.6"><ellipse cx="206" cy="123" rx="6.5" ry="2.2"/><ellipse cx="206" cy="128" rx="6.5" ry="2.2"/><ellipse cx="206" cy="133" rx="6.5" ry="2.2"/></g>
<path d="M200 123 Q 180 114 161 114" fill="none" stroke="#93401F" stroke-width="1.8"/>
<path d="M200 132 Q 182 140 165 142" fill="none" stroke="#93401F" stroke-width="1.8"/>
<g fill="#F6EDDB"><circle cx="198" cy="168" r="4.4"/><circle cx="221" cy="166.5" r="3.4"/><circle cx="212" cy="163" r="2.6"/></g>
<path d="M224 169 q 3.4 7 -0.6 13 q -3 -6 -1.4 -9" fill="#F6EDDB"/>
<g fill="#F6EDDB" opacity=".9"><circle cx="188" cy="158" r="1.5"/><circle cx="228" cy="155" r="1.4"/><circle cx="207" cy="151" r="1.3"/></g>
<path d="M255 252 A 17 13 0 0 0 289 252 Z" fill="#33241A"/>
<g fill="#F6EDDB"><circle cx="265" cy="248" r="5.4"/><circle cx="275" cy="247.5" r="4.6"/><circle cx="270" cy="243" r="4"/></g>
<ellipse cx="44" cy="259" rx="13" ry="3.2" fill="#93401F"/>
<circle cx="44" cy="249" r="11" fill="#B5512E"/>
<ellipse cx="44" cy="239.5" rx="5.6" ry="2.1" fill="#33241A"/>
<ellipse cx="44" cy="239.2" rx="4" ry="1.5" fill="#F6EDDB"/>
<g>
    <g>
    <path d="M98 131 L127.9 128.53 L161 113.5" fill="none" stroke="#9A4224" stroke-width="8.4" stroke-linecap="round" stroke-linejoin="round"/>
    <path d="M98 131 L119.53 129.22" stroke="#451016" stroke-width="9.8" stroke-linecap="round"/>
    <path d="M150.24 112.67 L154.54 122.14 M153.88 111.02 L158.18 120.49 " stroke="#C8922A" stroke-width="1.8"/>
  </g>
    <path d="M99 129 C 82 139, 70 168, 68 207 C 67 227, 73 237, 70 246 L 84 241 C 87 202, 92 170, 107 141 Z" fill="#57121E"/>
    <path d="M70 246 C 73 237, 67 227, 68 207 C 70 168, 82 139, 99 129" fill="none" stroke="#C8922A" stroke-width="1.5" opacity=".9"/>
    <path d="M63 262 C 60 224, 73 191, 80 167 L 107 167 C 113 197, 118 229, 117 261 Q 90 267 63 262 Z" fill="#7A1E2B"/>
    <path d="M86 170 C 89 200, 92 230, 91 259 M97 170 C 101 201, 104 229, 103 260" stroke="#57121E" stroke-width="1.3" fill="none" opacity=".6"/>
    <path d="M63.5 257.5 Q 90 263.5 116.7 256.8" fill="none" stroke="#C8922A" stroke-width="2.4"/>
    <path d="M63.8 251.5 Q 90 257.5 116.9 250.9" fill="none" stroke="#C8922A" stroke-width="1.1" opacity=".8"/>
    <ellipse cx="109" cy="260.5" rx="7" ry="3.2" fill="#B5512E"/>
    <path d="M103 124 L114 127 L111 139 L100 136 Z" fill="#B5512E"/>
    <path d="M80 167 C 81 149, 89 138, 99 131 L 112 137 C 114 147, 111 158, 107 167 Z" fill="#7A1E2B"/>
    <path d="M99 131 C 104 137, 108 146, 108 153" fill="none" stroke="#57121E" stroke-width="3" opacity=".6"/>
    <circle cx="109" cy="112" r="12.4" fill="#33241A"/>
    <circle cx="112" cy="115" r="12" fill="#B5512E"/>
    <path d="M123 114 q 4.6 2.6 1 6.4 l -3.4 -1.2 Z" fill="#B5512E"/>
    <circle cx="99" cy="107" r="6.4" fill="#33241A"/>
    <circle cx="95.6" cy="104" r="2" fill="#C8922A"/>
    <circle cx="118.5" cy="116" r="4.3" fill="none" stroke="#33241A" stroke-width="1.4"/>
    <path d="M114.2 115.4 L106 114.4" stroke="#33241A" stroke-width="1.3"/>
    <circle cx="110" cy="122" r="1.7" fill="#C8922A"/>
    <g>
    <path d="M101 134 L129.54 143.24 L165 142" fill="none" stroke="#B5512E" stroke-width="8.4" stroke-linecap="round" stroke-linejoin="round"/>
    <path d="M101 134 L121.55 140.65" stroke="#57121E" stroke-width="9.8" stroke-linecap="round"/>
    <path d="M155.6 137.12 L155.96 147.52 M159.5 136.99 L159.86 147.38 " stroke="#C8922A" stroke-width="1.8"/>
  </g>
  </g>
<g opacity=".82">
    <text x="247" y="101" transform="rotate(-7 247 101)" text-anchor="middle" font-family="'Caveat',cursive" font-size="15" font-weight="600" fill="#33241A">the ravi</text>
    <path d="M228 106 Q 228 101.5 214 97" fill="none" stroke="#33241A" stroke-width="1.3"/>
    <path d="M220.75 95.6 L214 97 L218.67 102.07" fill="none" stroke="#33241A" stroke-width="1.3" stroke-linecap="round"/>
  </g></g>
    <g><polyline points="120.79 232.78 134.61 212.21 153.57 194.93 176.64 181.88 202.58 173.76 230 171 257.42 173.76 283.36 181.88 306.43 194.93 325.39 212.21 339.21 232.78" fill="none" stroke="#C8922A" stroke-width="1.1" opacity=".9"/><path d="M117.29 233.78 L124.29 233.78 L120.79 242.18 Z" fill="#C98A3B"/><path d="M131.11 213.21 L138.11 213.21 L134.61 221.61 Z" fill="#C8922A"/><path d="M150.07 195.93 L157.07 195.93 L153.57 204.33 Z" fill="#C98A3B"/><path d="M173.14 182.88 L180.14 182.88 L176.64 191.28 Z" fill="#C8922A"/><path d="M199.08 174.76 L206.08 174.76 L202.58 183.16 Z" fill="#C98A3B"/><path d="M226.5 172 L233.5 172 L230 180.4 Z" fill="#C8922A"/><path d="M253.92 174.76 L260.92 174.76 L257.42 183.16 Z" fill="#C98A3B"/><path d="M279.86 182.88 L286.86 182.88 L283.36 191.28 Z" fill="#C8922A"/><path d="M302.93 195.93 L309.93 195.93 L306.43 204.33 Z" fill="#C98A3B"/><path d="M321.89 213.21 L328.89 213.21 L325.39 221.61 Z" fill="#C8922A"/><path d="M335.71 233.78 L342.71 233.78 L339.21 242.18 Z" fill="#C98A3B"/><circle cx="127.01" cy="224.75" r="1.6" fill="#B5512E"/><circle cx="143.51" cy="205.69" r="1.6" fill="#B5512E"/><circle cx="164.67" cy="190.43" r="1.6" fill="#B5512E"/><circle cx="189.34" cy="179.77" r="1.6" fill="#B5512E"/><circle cx="216.2" cy="174.29" r="1.6" fill="#B5512E"/><circle cx="243.8" cy="174.29" r="1.6" fill="#B5512E"/><circle cx="270.66" cy="179.77" r="1.6" fill="#B5512E"/><circle cx="295.33" cy="190.43" r="1.6" fill="#B5512E"/><circle cx="316.49" cy="205.69" r="1.6" fill="#B5512E"/><circle cx="332.99" cy="224.75" r="1.6" fill="#B5512E"/></g>
  </g>
  <path d="M105 391 L105 273.48 A42.21 42.21 0 0 1 128.87 209.72 A45.81 45.81 0 0 1 191.37 170.31 A47.9 47.9 0 0 1 268.63 170.31 A45.81 45.81 0 0 1 331.13 209.72 A42.21 42.21 0 0 1 355 273.48 L355 391 Z" fill="none" stroke="#C8922A" stroke-width="1.2"/>
  <path d="M98 398 L98 273.2 A44.8 44.8 0 0 1 123.21 205.49 A48.45 48.45 0 0 1 189.21 163.64 A50.58 50.58 0 0 1 270.79 163.64 A48.45 48.45 0 0 1 336.79 205.49 A44.8 44.8 0 0 1 362 273.2 L362 398 Z" fill="none" stroke="#C98A3B" stroke-width="2.6"/>
  <g opacity=".9"><circle cx="72" cy="196" r="1.8" fill="#C8922A"/><circle cx="70.24" cy="200.24" r="1.8" fill="#C8922A"/><circle cx="66" cy="202" r="1.8" fill="#C8922A"/><circle cx="61.76" cy="200.24" r="1.8" fill="#C8922A"/><circle cx="60" cy="196" r="1.8" fill="#C8922A"/><circle cx="61.76" cy="191.76" r="1.8" fill="#C8922A"/><circle cx="66" cy="190" r="1.8" fill="#C8922A"/><circle cx="70.24" cy="191.76" r="1.8" fill="#C8922A"/><circle cx="66" cy="196" r="2.52" fill="#C98A3B"/></g><g opacity=".9"><circle cx="400" cy="196" r="1.8" fill="#C8922A"/><circle cx="398.24" cy="200.24" r="1.8" fill="#C8922A"/><circle cx="394" cy="202" r="1.8" fill="#C8922A"/><circle cx="389.76" cy="200.24" r="1.8" fill="#C8922A"/><circle cx="388" cy="196" r="1.8" fill="#C8922A"/><circle cx="389.76" cy="191.76" r="1.8" fill="#C8922A"/><circle cx="394" cy="190" r="1.8" fill="#C8922A"/><circle cx="398.24" cy="191.76" r="1.8" fill="#C8922A"/><circle cx="394" cy="196" r="2.52" fill="#C98A3B"/></g>

  <g filter="url(#press-butter-pouch)" font-family="'Yatra One','Noto Sans Devanagari',serif" text-anchor="middle" font-size="38">
    <text x="232" y="441.8" fill="#8F5E20" opacity=".9">बटर चकली</text>
    <text x="230" y="440" fill="#33241A">बटर चकली</text>
  </g>
  <g><path d="M144 459 L216 459 M244 459 L316 459" stroke="#C8922A" stroke-width="1.2"/><rect x="226.5" y="455.5" width="7" height="7" transform="rotate(45 230 459)" fill="#C98A3B"/></g>
  <text x="230" y="480" text-anchor="middle" font-weight="800" font-size="13" letter-spacing="4" fill="#C98A3B">BUTTER CHAKLI</text>
  <text x="230" y="496" text-anchor="middle" font-weight="700" font-size="8.5" letter-spacing="2" fill="#33241A" opacity=".6">WHITE-BUTTER SHORT · MELT CRUNCH</text>

  <text x="230" y="522" text-anchor="middle" font-family="'Yatra One','Noto Sans Devanagari',serif" font-size="13.5" fill="#33241A">तांदूळ · लोणी · जिरे · मीठ — बस्स.</text>
  <path d="M134 530 q 96 7 192 0" fill="none" stroke="#C8922A" stroke-width="1.3" stroke-linecap="round"/>
  <text x="230" y="545" text-anchor="middle" font-size="9.5" font-style="italic" font-family="'Fraunces',serif" fill="#6B573F">rice · white butter · cumin · salt — that’s all.</text>

  <g>
    <clipPath id="ph-butter-pouch"><circle cx="98" cy="566" r="21"/></clipPath>
    <circle cx="98" cy="566" r="24" fill="none" stroke="#C98A3B" stroke-width="1.1"/>
    <circle cx="98" cy="566" r="21" fill="#33241A"/>
    <g clip-path="url(#ph-butter-pouch)">
      <image href="../../../images/chakli-2.jpg" x="70" y="538" width="56" height="56" preserveAspectRatio="xMidYMid slice" style="filter:saturate(1.25) contrast(1.06) brightness(1.04)"/>
      <circle cx="98" cy="566" r="21" fill="#C98A3B" style="mix-blend-mode:multiply" opacity=".12"/>
    </g>
    <circle cx="98" cy="566" r="21" fill="none" stroke="#C8922A" stroke-width="2"/>
  </g>
  <text x="128" y="562" font-family="'Yatra One','Noto Sans Devanagari',serif" font-size="10" fill="#33241A">आत हेच आहे —</text>
  <text x="128" y="576" font-size="8" font-style="italic" font-family="'Fraunces',serif" fill="#6B573F">the real batch, un-retouched</text>
  <g><rect x="248" y="558" width="13" height="13" fill="none" stroke="#2E7D32" stroke-width="1.6"/><circle cx="254.5" cy="564.5" r="3.51" fill="#2E7D32"/></g>
  <g transform="rotate(-3.5 352 565)" opacity=".9">
    <rect x="291" y="543" width="122" height="44" rx="5" fill="none" stroke="#93401F" stroke-width="2"/>
    <rect x="295" y="547" width="114" height="36" rx="3" fill="none" stroke="#93401F" stroke-width=".8" stroke-dasharray="3 2.4"/>
    <text x="352" y="556.93" text-anchor="middle" font-family="'Courier Prime',monospace" font-weight="700" font-size="8.5" letter-spacing="1.1" fill="#93401F">BATCH SB-12</text><text x="352" y="567.98" text-anchor="middle" font-family="'Courier Prime',monospace" font-weight="700" font-size="8.5" letter-spacing="1.1" fill="#93401F">PACKED 08·07·26</text><text x="352" y="579.02" text-anchor="middle" font-family="'Courier Prime',monospace" font-weight="700" font-size="8.5" letter-spacing="1.1" fill="#93401F">NET WT 200 g</text></g>

  <rect x="26" y="610" width="408" height="38" fill="#C98A3B"/>
  <text x="230" y="633" text-anchor="middle" font-size="9" font-weight="800" letter-spacing="1.8" fill="#F6EDDB">MADE IN A HOME KITCHEN · NO PRESERVATIVES</text>

  <rect x="26" y="22" width="408" height="626" rx="14" fill="url(#sheen-butter-pouch)"/>
</g>
<path d="M26 30 l7.85 -7 l7.85 7 l7.85 7 l7.85 -7 l7.85 -7 l7.85 7 l7.85 7 l7.85 -7 l7.85 -7 l7.85 7 l7.85 7 l7.85 -7 l7.85 -7 l7.85 7 l7.85 7 l7.85 -7 l7.85 -7 l7.85 7 l7.85 7 l7.85 -7 l7.85 -7 l7.85 7 l7.85 7 l7.85 -7 l7.85 -7 l7.85 7 l7.85 7 l7.85 -7 l7.85 -7 l7.85 7 l7.85 7 l7.85 -7 l7.85 -7 l7.85 7 l7.85 7 l7.85 -7 l7.85 -7 l7.85 7 l7.85 7 l7.85 -7 l7.85 -7 l7.85 7 l7.85 7 l7.85 -7 l7.85 -7 l7.85 7 l7.85 7 l7.85 -7 l7.85 -7 l7.85 7 l7.85 7 l7.85 -7" fill="none" stroke="#8F5E20" stroke-width="2.2"/>
<rect x="26" y="12" width="408" height="15" rx="6" fill="#F1E4CB" stroke="#8F5E20" stroke-width="1.4"/>
<circle cx="230" cy="19.5" r="3.4" fill="none" stroke="#8F5E20" stroke-width="1.3"/>
</g>
</svg>