<svg xmlns="http://www.w3.org/2000/svg" viewBox="0 0 480 480" width="480" height="480">
<defs><style>@import url('https://fonts.googleapis.com/css2?family=Fraunces:opsz,wght@9..144,400..900&amp;family=Marcellus&amp;family=Anton&amp;family=Yatra+One&amp;family=Mulish:wght@400;600;700;800&amp;family=Courier+Prime:wght@700&amp;family=Noto+Sans+Devanagari:wght@400;700&amp;display=swap');</style><mask id="c5-m-pm"><rect x="138" y="404" width="204" height="42" rx="4" fill="#fff"/><text x="240" y="433" font-size="26" font-family="'Yatra One','Noto Sans Devanagari',serif"  letter-spacing="0" fill="#000" text-anchor="middle" >आजीचा फराळ</text></mask></defs>

<g>
  <text x="240" y="62" font-size="21" font-family="'Mulish','Avenir Next',system-ui,sans-serif" font-weight="800" letter-spacing="12" fill="#33241A" text-anchor="middle" >CMAA</text>
  <circle cx="166" cy="55" r="3.6" fill="#33241A"/>
  <circle cx="314" cy="55" r="3.6" fill="#33241A"/>
  
    <rect x="104" y="214" width="22" height="140" fill="none" stroke="#33241A" stroke-width="2"/>
    <rect x="99" y="200" width="32" height="15" fill="none" stroke="#33241A" stroke-width="2"/>
    <rect x="99" y="340" width="32" height="14" fill="none" stroke="#33241A" stroke-width="2"/>
  
    <rect x="354" y="214" width="22" height="140" fill="none" stroke="#33241A" stroke-width="2"/>
    <rect x="349" y="200" width="32" height="15" fill="none" stroke="#33241A" stroke-width="2"/>
    <rect x="349" y="340" width="32" height="14" fill="none" stroke="#33241A" stroke-width="2"/>
  <path d="M126 354 L126 209.9 A49.69 49.69 0 0 1 147.77 148.25 A52.11 52.11 0 0 1 204.77 110.15 A53.55 53.55 0 0 1 275.23 110.15 A52.11 52.11 0 0 1 332.23 148.25 A49.69 49.69 0 0 1 354 209.9 L354 354 Z" fill="none" stroke="#33241A" stroke-width="3.4"/><path d="M137 343 L137 211 A44.89 44.89 0 0 1 156.67 155.3 A47.08 47.08 0 0 1 208.17 120.88 A48.38 48.38 0 0 1 271.83 120.88 A47.08 47.08 0 0 1 323.33 155.3 A44.89 44.89 0 0 1 343 211 L343 343 Z" fill="none" stroke="#33241A" stroke-width="1.6"/>
  <circle cx="240" cy="130" r="4.5" fill="#33241A"/>
  <path d="M240 269.5 L240.33 269.21 L240.73 268.97 L241.19 268.78 L241.7 268.67 L242.25 268.64 L242.83 268.69 L243.43 268.83 L244.02 269.08 L244.61 269.42 L245.17 269.86 L245.68 270.4 L246.14 271.03 L246.52 271.74 L246.81 272.54 L247 273.39 L247.09 274.3 L247.05 275.25 L246.88 276.22 L246.58 277.19 L246.14 278.14 L245.57 279.07 L244.86 279.93 L244.03 280.73 L243.07 281.44 L242 282.04 L240.83 282.51 L239.57 282.84 L238.25 283.03 L236.89 283.04 L235.49 282.88 L234.09 282.55 L232.71 282.03 L231.37 281.33 L230.1 280.46 L228.92 279.4 L227.85 278.19 L226.92 276.83 L226.14 275.33 L225.54 273.71 L225.13 272 L224.92 270.22 L224.93 268.38 L225.17 266.53 L225.64 264.69 L226.35 262.88 L227.28 261.13 L228.43 259.49 L229.8 257.96 L231.37 256.59 L233.12 255.4 L235.04 254.41 L237.09 253.64 L239.26 253.12 L241.51 252.85 L243.81 252.86 L246.13 253.15 L248.43 253.72 L250.68 254.57 L252.85 255.7 L254.89 257.11 L256.78 258.77 L258.49 260.67 L259.97 262.79 L261.21 265.11 L262.17 267.59 L262.85 270.2 L263.21 272.91 L263.25 275.68 L262.95 278.47 L262.32 281.24 L261.35 283.95 L260.04 286.56 L258.42 289.03 L256.49 291.31 L254.28 293.37 L251.81 295.18 L249.11 296.69 L246.22 297.9 L243.17 298.75 L240 299.25 L236.76 299.37 L233.49 299.1 L230.25 298.44 L227.07 297.38 L224 295.94 L221.1 294.13 L218.4 291.97 L215.95 289.47 L213.8 286.68 L211.97 283.61 L210.5 280.32 L209.42 276.84 L208.75 273.23 L208.52 269.52 L208.72 265.78 L209.38 262.05 L210.48 258.39 L212.02 254.85 L213.98 251.49 L216.36 248.36 L219.11 245.5 L222.21 242.96 L225.61 240.79 L229.28 239.02 L233.17 237.69 L237.23 236.82 L241.4 236.42 L245.62 236.53 L249.83 237.14 L253.98 238.25 L258 239.86 L261.84 241.95 L265.43 244.49 L268.72 247.47 L271.66 250.84 L274.2 254.57 L276.31 258.61 L277.93 262.89 L279.04 267.38 L279.63 272 L279.66 276.69 L279.13 281.39 L278.05 286.04 L276.41 290.55 L274.23 294.87 L271.54 298.94 L268.37 302.69 L264.75 306.06 L260.72 309 L256.35 311.47 L251.68 313.41 L246.78 314.8 L241.71 315.61 L236.55 315.82 L231.36 315.42 L226.23 314.39 L221.21 312.76 L216.39 310.53 L211.83 307.73 L207.61 304.39 L203.78 300.55 L200.41 296.26 L197.55 291.57 L195.25 286.54 L193.55 281.24 L192.48 275.74 L192.06 270.12 L192.31 264.45 L193.23 258.81 L194.82 253.28 L197.06 247.95 L199.93 242.89 L203.41 238.17 L207.43 233.87 L211.97 230.05 L216.95 226.77 L222.32 224.08 L228.01 222.04 L233.92 220.67 L240 220" fill="none" stroke="#33241A" stroke-width="5.5" stroke-linecap="round"/>
  <path d="M240.65 270.72 L242.74 266.62 M242.16 270.43 L245.89 267.72 M243.86 271.39 L248.41 270.67 M244.9 273.59 L249.27 275.01 M244.52 276.52 L247.77 279.77 M242.36 279.25 L243.78 283.63 M238.61 280.75 L237.89 285.3 M234.06 280.17 L231.36 283.89 M229.9 277.15 L225.8 279.24 M227.43 272 L222.82 272 M227.69 265.73 L223.59 263.64 M231.15 259.82 L228.45 256.1 M237.45 255.91 L236.73 251.37 M245.42 255.33 L246.84 250.96 M253.27 258.73 L256.52 255.48 M259.02 265.82 L263.4 264.4 M260.98 275.32 L265.52 276.04 M258.18 285.21 L261.9 287.91 M250.77 293.13 L252.85 297.23 M240 296.95 L240 301.55 M228.11 295.33 L226.02 299.43 M217.81 288.12 L214.09 290.82 M211.69 276.48 L207.15 277.2 M211.56 262.76 L207.19 261.34 M217.98 249.98 L214.73 246.73 M230 241.21 L228.57 236.83 M245.26 238.8 L245.98 234.26 M260.48 243.81 L263.19 240.08 M272.15 255.62 L276.25 253.53 M277.32 272 L281.93 272 M274.36 289.51 L278.46 291.6 M263.39 304.2 L266.1 307.92 M246.42 312.53 L247.14 317.08 M226.94 312.21 L225.51 316.58 M209.23 302.77 L205.98 306.02 M197.44 285.83 L193.07 287.25 M194.58 264.81 L190.04 264.09 M201.79 244.24 L198.07 241.54 M218 228.82 L215.91 224.72 " stroke="#33241A" stroke-width="1.3"/>
  <path d="M132 158 L150 164.11 L168 169.11 L186 173 L204 175.78 L222 177.44 L240 178 L258 177.44 L276 175.78 L294 173 L312 169.11 L330 164.11 L348 158" fill="none" stroke="#33241A" stroke-width="2"/><path d="M143 164.11 L157 164.11 L150 179.11 Z" fill="#33241A"/><path d="M161 169.11 L175 169.11 L168 184.11 Z" fill="none" stroke="#33241A" stroke-width="1.6"/><path d="M179 173 L193 173 L186 188 Z" fill="#33241A"/><path d="M197 175.78 L211 175.78 L204 190.78 Z" fill="none" stroke="#33241A" stroke-width="1.6"/><path d="M215 177.44 L229 177.44 L222 192.44 Z" fill="#33241A"/><path d="M233 178 L247 178 L240 193 Z" fill="none" stroke="#33241A" stroke-width="1.6"/><path d="M251 177.44 L265 177.44 L258 192.44 Z" fill="#33241A"/><path d="M269 175.78 L283 175.78 L276 190.78 Z" fill="none" stroke="#33241A" stroke-width="1.6"/><path d="M287 173 L301 173 L294 188 Z" fill="#33241A"/><path d="M305 169.11 L319 169.11 L312 184.11 Z" fill="none" stroke="#33241A" stroke-width="1.6"/><path d="M323 164.11 L337 164.11 L330 179.11 Z" fill="#33241A"/>
  <rect x="118" y="354" width="244" height="13" fill="none" stroke="#33241A" stroke-width="2"/><rect x="96" y="367" width="288" height="13" fill="none" stroke="#33241A" stroke-width="2"/><rect x="74" y="380" width="332" height="13" fill="none" stroke="#33241A" stroke-width="2"/>
  <circle cx="204" cy="360.5" r="2.4" fill="#33241A"/><circle cx="222" cy="360.5" r="2.4" fill="#33241A"/><circle cx="240" cy="360.5" r="2.4" fill="#33241A"/><circle cx="258" cy="360.5" r="2.4" fill="#33241A"/><circle cx="276" cy="360.5" r="2.4" fill="#33241A"/>
  <g mask="url(#c5-m-pm)"><rect x="138" y="404" width="204" height="42" rx="4" fill="#33241A"/></g>
  
  
</g>
</svg>