<svg xmlns="http://www.w3.org/2000/svg" viewBox="0 0 420 300" width="420" height="300" role="img" aria-label="Cmaa — Homemade Chakli and Chivda maker's label, gold on dark">
  <title>Cmaa — Artisanal Maker's Label (reverse, gold/cream on ink)</title>
  <defs>
    <g id="e3r-spiral" fill="none" stroke="#E9B949" stroke-width="3" stroke-linecap="round" stroke-linejoin="round">
      <path d="M 0.00 -3.00 L 0.27 -3.05 L 0.54 -3.09 L 0.83 -3.09 L 1.12 -3.07 L 1.41 -3.02 L 1.70 -2.94 L 1.99 -2.84 L 2.27 -2.71 L 2.55 -2.55 L 2.81 -2.36 L 3.06 -2.14 L 3.29 -1.90 L 3.50 -1.63 L 3.70 -1.35 L 3.86 -1.04 L 4.00 -0.71 L 4.12 -0.36 L 4.20 0.00 L 4.25 0.37 L 4.27 0.75 L 4.25 1.14 L 4.20 1.53 L 4.11 1.92 L 3.98 2.30 L 3.82 2.68 L 3.63 3.04 L 3.39 3.39 L 3.13 3.73 L 2.83 4.04 L 2.50 4.33 L 2.14 4.59 L 1.76 4.82 L 1.35 5.02 L 0.91 5.19 L 0.46 5.31 L 0.00 5.40 L -0.48 5.45 L -0.96 5.45 L -1.45 5.41 L -1.94 5.32 L -2.42 5.20 L -2.90 5.02 L -3.36 4.81 L -3.81 4.55 L -4.24 4.24 L -4.65 3.90 L -5.02 3.52 L -5.37 3.10 L -5.68 2.65 L -5.95 2.17 L -6.18 1.66 L -6.37 1.12 L -6.51 0.57 L -6.60 0.00 L -6.64 -0.58 L -6.63 -1.17 L -6.57 -1.76 L -6.45 -2.35 L -6.28 -2.93 L -6.06 -3.50 L -5.79 -4.05 L -5.46 -4.59 L -5.09 -5.09 L -4.67 -5.57 L -4.21 -6.01 L -3.70 -6.41 L -3.16 -6.77 L -2.58 -7.08 L -1.97 -7.34 L -1.33 -7.55 L -0.67 -7.70 L -0.00 -7.80 L 0.69 -7.84 L 1.38 -7.81 L 2.07 -7.73 L 2.76 -7.58 L 3.44 -7.37 L 4.10 -7.10 L 4.74 -6.77 L 5.36 -6.38 L 5.94 -5.94 L 6.49 -5.44 L 6.99 -4.89 L 7.45 -4.30 L 7.85 -3.66 L 8.21 -2.99 L 8.50 -2.28 L 8.73 -1.54 L 8.90 -0.78 L 9.00 -0.00 L 9.03 0.79 L 8.99 1.59 L 8.89 2.38 L 8.71 3.17 L 8.46 3.94 L 8.14 4.70 L 7.75 5.43 L 7.30 6.13 L 6.79 6.79 L 6.21 7.41 L 5.58 7.97 L 4.90 8.49 L 4.17 8.94 L 3.40 9.33 L 2.59 9.66 L 1.75 9.91 L 0.88 10.09 L 0.00 10.20 L -0.89 10.23 L -1.79 10.18 L -2.69 10.05 L -3.58 9.84 L -4.45 9.55 L -5.30 9.18 L -6.12 8.74 L -6.90 8.22 L -7.64 7.64 L -8.32 6.98 L -8.96 6.27 L -9.53 5.50 L -10.03 4.68 L -10.46 3.81 L -10.82 2.90 L -11.10 1.96 L -11.29 0.99 L -11.40 0.00 L -11.42 -1.00 L -11.36 -2.00 L -11.20 -3.00 L -10.96 -3.99 L -10.63 -4.96 L -10.22 -5.90 L -9.72 -6.81 L -9.14 -7.67 L -8.49 -8.49 L -7.76 -9.24 L -6.96 -9.94 L -6.10 -10.57 L -5.18 -11.12 L -4.22 -11.59 L -3.21 -11.98 L -2.16 -12.28 L -1.09 -12.49 L -0.00 -12.60 L 1.10 -12.62 L 2.21 -12.54 L 3.31 -12.36 L 4.40 -12.09 L 5.47 -11.72 L 6.50 -11.26 L 7.49 -10.70 L 8.44 -10.06 L 9.33 -9.33 L 10.16 -8.53 L 10.92 -7.65 L 11.60 -6.70 L 12.20 -5.69 L 12.72 -4.63 L 13.14 -3.52 L 13.46 -2.37 L 13.68 -1.20 L 13.80 -0.00 L 13.81 1.21 L 13.72 2.42 L 13.52 3.62 L 13.22 4.81 L 12.81 5.97 L 12.30 7.10 L 11.69 8.18 L 10.98 9.21 L 10.18 10.18 L 9.30 11.08 L 8.34 11.91 L 7.30 12.64 L 6.20 13.29 L 5.04 13.84 L 3.83 14.30 L 2.58 14.64 L 1.30 14.88 L 0.00 15.00"/>
    </g>
    <g id="e3r-corner" fill="#E9B949">
      <path d="M 0 0 L 16 0 L 16 2.2 L 2.2 2.2 L 2.2 16 L 0 16 Z"/>
      <circle cx="8.5" cy="8.5" r="2.1"/>
    </g>
  </defs>

  <rect x="14" y="14" width="392" height="272" rx="6" fill="#2E2017" stroke="#E9B949" stroke-width="3"/>
  <rect x="24" y="24" width="372" height="252" rx="3" fill="none" stroke="#D99A2B" stroke-width="1.3"/>

  <use href="#e3r-corner" transform="translate(30 30)"/>
  <use href="#e3r-corner" transform="translate(390 30) scale(-1 1)"/>
  <use href="#e3r-corner" transform="translate(30 270) scale(1 -1)"/>
  <use href="#e3r-corner" transform="translate(390 270) scale(-1 -1)"/>

  <text x="210" y="58" text-anchor="middle" font-family="Mulish, Arial, sans-serif" font-size="11"
        font-weight="700" letter-spacing="6" fill="#E9B949">SINCE 2026 &#183; SMALL BATCH</text>
  <g stroke="#D99A2B" stroke-width="1.2">
    <line x1="60" y1="54" x2="118" y2="54"/>
    <line x1="302" y1="54" x2="360" y2="54"/>
  </g>

  <use href="#e3r-spiral" transform="translate(210 92)"/>

  <text x="210" y="158" text-anchor="middle" font-family="Fraunces, 'Cormorant Garamond', Georgia, serif"
        font-size="74" font-weight="600" fill="#E9B949" letter-spacing="1">Cmaa</text>

  <g>
    <line x1="92" y1="178" x2="196" y2="178" stroke="#D99A2B" stroke-width="1.2"/>
    <line x1="224" y1="178" x2="328" y2="178" stroke="#D99A2B" stroke-width="1.2"/>
    <path d="M 210 172 l 6 6 l -6 6 l -6 -6 Z" fill="#D99A2B"/>
  </g>

  <text x="210" y="206" text-anchor="middle" font-family="'Cormorant Garamond', Georgia, serif"
        font-size="22" font-style="italic" fill="#F4ECDD">Homemade Chakli &amp; Chivda</text>

  <text x="210" y="248" text-anchor="middle" font-family="Mulish, Arial, sans-serif" font-size="10.5"
        font-weight="700" letter-spacing="3.5" fill="#D99A2B">NO PRESERVATIVES &#183; PRESSED BY HAND</text>
  <g fill="#E9B949">
    <ellipse cx="86" cy="244" rx="2" ry="3.3" transform="rotate(-20 86 244)"/>
    <ellipse cx="334" cy="244" rx="2" ry="3.3" transform="rotate(20 334 244)"/>
  </g>
</svg>
