<svg xmlns="http://www.w3.org/2000/svg" viewBox="0 0 400 400" width="400" height="400" role="img" aria-label="Cmaa — chakli spiral seal, single ink stamp">
  <title>Cmaa — Wax-Seal Spiral Mark (monochrome ink)</title>

  <!-- Seal edge as ink outline (irregular) -->
  <path fill="none" stroke="#2E2017" stroke-width="4" stroke-linejoin="round" d="M 346.90 188.28 Q 345.86 200.00 343.68 211.21 Q 341.50 222.41 342.44 234.50 Q 343.39 246.59 334.99 255.55 Q 326.60 264.51 323.59 276.05 Q 320.57 287.60 312.08 295.59 Q 303.58 303.58 293.48 309.18 Q 283.39 314.78 275.43 323.59 Q 267.47 332.41 255.61 333.52 Q 243.75 334.63 233.41 340.16 Q 223.07 345.69 211.54 343.87 Q 200.00 342.05 188.86 341.33 Q 177.73 340.61 166.10 340.38 Q 154.46 340.16 142.41 338.42 Q 130.36 336.68 123.19 326.13 Q 116.03 315.57 106.98 308.82 Q 97.93 302.07 88.12 295.24 Q 78.31 288.41 70.01 279.44 Q 61.70 270.47 59.69 258.36 Q 57.67 246.25 56.26 234.62 Q 54.86 222.99 49.61 211.49 Q 44.36 200.00 52.20 188.92 Q 60.05 177.83 56.85 165.14 Q 53.65 152.45 62.08 143.23 Q 70.50 134.02 77.34 124.93 Q 84.18 115.85 91.61 107.45 Q 99.05 99.05 106.73 90.62 Q 114.40 82.19 122.42 72.82 Q 130.43 63.46 143.01 63.39 Q 155.59 63.32 166.08 57.72 Q 176.58 52.12 188.29 50.77 Q 200.00 49.42 211.47 52.32 Q 222.93 55.22 234.52 56.65 Q 246.11 58.09 255.28 65.81 Q 264.44 73.53 273.92 79.37 Q 283.40 85.21 292.64 91.66 Q 301.89 98.11 312.11 104.62 Q 322.33 111.12 326.84 122.10 Q 331.35 133.08 334.96 144.02 Q 338.58 154.97 343.26 165.77 Q 347.94 176.57 346.90 188.28 Z"/>

  <circle cx="200" cy="200" r="132" fill="none" stroke="#2E2017" stroke-width="1.4"/>

  <g fill="#2E2017">
    <circle cx="316.00" cy="200.00" r="2.4"/><circle cx="315.01" cy="215.14" r="2.4"/><circle cx="312.05" cy="230.02" r="2.4"/><circle cx="307.17" cy="244.39" r="2.4"/><circle cx="300.46" cy="258.00" r="2.4"/><circle cx="292.03" cy="270.62" r="2.4"/><circle cx="282.02" cy="282.02" r="2.4"/><circle cx="270.62" cy="292.03" r="2.4"/><circle cx="258.00" cy="300.46" r="2.4"/><circle cx="244.39" cy="307.17" r="2.4"/><circle cx="230.02" cy="312.05" r="2.4"/><circle cx="215.14" cy="315.01" r="2.4"/><circle cx="200.00" cy="316.00" r="2.4"/><circle cx="184.86" cy="315.01" r="2.4"/><circle cx="169.98" cy="312.05" r="2.4"/><circle cx="155.61" cy="307.17" r="2.4"/><circle cx="142.00" cy="300.46" r="2.4"/><circle cx="129.38" cy="292.03" r="2.4"/><circle cx="117.98" cy="282.02" r="2.4"/><circle cx="107.97" cy="270.62" r="2.4"/><circle cx="99.54" cy="258.00" r="2.4"/><circle cx="92.83" cy="244.39" r="2.4"/><circle cx="87.95" cy="230.02" r="2.4"/><circle cx="84.99" cy="215.14" r="2.4"/><circle cx="84.00" cy="200.00" r="2.4"/><circle cx="84.99" cy="184.86" r="2.4"/><circle cx="87.95" cy="169.98" r="2.4"/><circle cx="92.83" cy="155.61" r="2.4"/><circle cx="99.54" cy="142.00" r="2.4"/><circle cx="107.97" cy="129.38" r="2.4"/><circle cx="117.98" cy="117.98" r="2.4"/><circle cx="129.38" cy="107.97" r="2.4"/><circle cx="142.00" cy="99.54" r="2.4"/><circle cx="155.61" cy="92.83" r="2.4"/><circle cx="169.98" cy="87.95" r="2.4"/><circle cx="184.86" cy="84.99" r="2.4"/><circle cx="200.00" cy="84.00" r="2.4"/><circle cx="215.14" cy="84.99" r="2.4"/><circle cx="230.02" cy="87.95" r="2.4"/><circle cx="244.39" cy="92.83" r="2.4"/><circle cx="258.00" cy="99.54" r="2.4"/><circle cx="270.62" cy="107.97" r="2.4"/><circle cx="282.02" cy="117.98" r="2.4"/><circle cx="292.03" cy="129.38" r="2.4"/><circle cx="300.46" cy="142.00" r="2.4"/><circle cx="307.17" cy="155.61" r="2.4"/><circle cx="312.05" cy="169.98" r="2.4"/><circle cx="315.01" cy="184.86" r="2.4"/>
  </g>

  <g transform="translate(200 196)" fill="none" stroke="#2E2017" stroke-width="6.5" stroke-linecap="round" stroke-linejoin="round">
    <path d="M 0.00 -6.00 L 0.54 -6.19 L 1.12 -6.33 L 1.72 -6.42 L 2.35 -6.44 L 2.99 -6.41 L 3.64 -6.31 L 4.30 -6.14 L 4.96 -5.91 L 5.61 -5.61 L 6.24 -5.23 L 6.85 -4.79 L 7.42 -4.29 L 7.96 -3.71 L 8.46 -3.08 L 8.90 -2.38 L 9.29 -1.64 L 9.61 -0.84 L 9.86 0.00 L 10.03 0.88 L 10.13 1.79 L 10.14 2.72 L 10.07 3.66 L 9.90 4.62 L 9.65 5.57 L 9.30 6.51 L 8.86 7.44 L 8.33 8.33 L 7.71 9.19 L 7.01 10.01 L 6.21 10.76 L 5.34 11.46 L 4.40 12.08 L 3.38 12.63 L 2.31 13.08 L 1.18 13.45 L 0.00 13.71 L -1.21 13.88 L -2.46 13.93 L -3.72 13.87 L -4.98 13.69 L -6.25 13.40 L -7.50 12.99 L -8.73 12.46 L -9.92 11.82 L -11.06 11.06 L -12.15 10.19 L -13.16 9.22 L -14.10 8.14 L -14.95 6.97 L -15.71 5.72 L -16.35 4.38 L -16.88 2.98 L -17.29 1.51 L -17.57 0.00 L -17.72 -1.55 L -17.73 -3.13 L -17.59 -4.71 L -17.32 -6.30 L -16.90 -7.88 L -16.33 -9.43 L -15.62 -10.94 L -14.77 -12.40 L -13.79 -13.79 L -12.67 -15.10 L -11.43 -16.32 L -10.07 -17.44 L -8.60 -18.45 L -7.04 -19.33 L -5.38 -20.08 L -3.65 -20.68 L -1.85 -21.13 L -0.00 -21.43 L 1.89 -21.56 L 3.80 -21.53 L 5.71 -21.32 L 7.62 -20.94 L 9.51 -20.39 L 11.36 -19.67 L 13.15 -18.78 L 14.88 -17.73 L 16.52 -16.52 L 18.06 -15.15 L 19.48 -13.64 L 20.78 -12.00 L 21.95 -10.23 L 22.96 -8.36 L 23.80 -6.38 L 24.48 -4.32 L 24.98 -2.19 L 25.29 -0.00 L 25.40 2.22 L 25.32 4.47 L 25.05 6.71 L 24.57 8.94 L 23.89 11.14 L 23.01 13.29 L 21.94 15.36 L 20.68 17.36 L 19.24 19.24 L 17.63 21.01 L 15.86 22.64 L 13.93 24.12 L 11.86 25.44 L 9.67 26.58 L 7.38 27.53 L 4.99 28.28 L 2.52 28.82 L 0.00 29.14 L -2.56 29.25 L -5.14 29.12 L -7.71 28.77 L -10.26 28.19 L -12.77 27.38 L -15.21 26.35 L -17.58 25.10 L -19.83 23.64 L -21.97 21.97 L -23.97 20.11 L -25.80 18.07 L -27.47 15.86 L -28.94 13.49 L -30.20 10.99 L -31.25 8.37 L -32.08 5.66 L -32.66 2.86 L -33.00 0.00 L -33.09 -2.89 L -32.92 -5.80 L -32.50 -8.71 L -31.82 -11.58 L -30.88 -14.40 L -29.69 -17.14 L -28.26 -19.79 L -26.59 -22.31 L -24.70 -24.70 L -22.59 -26.92 L -20.28 -28.96 L -17.79 -30.81 L -15.12 -32.43 L -12.31 -33.83 L -9.37 -34.98 L -6.33 -35.88 L -3.19 -36.50 L -0.00 -36.86 L 3.23 -36.93 L 6.47 -36.72 L 9.71 -36.22 L 12.90 -35.44 L 16.03 -34.37 L 19.07 -33.03 L 22.00 -31.42 L 24.79 -29.55 L 27.43 -27.43 L 29.88 -25.07 L 32.12 -22.49 L 34.15 -19.71 L 35.93 -16.75 L 37.45 -13.63 L 38.71 -10.37 L 39.67 -7.00 L 40.35 -3.53 L 40.71 0.00 L 40.77 3.57 L 40.52 7.14 L 39.95 10.70 L 39.06 14.22 L 37.87 17.66 L 36.37 21.00 L 34.58 24.21 L 32.50 27.27 L 30.15 30.15 L 27.55 32.83 L 24.70 35.28 L 21.64 37.49 L 18.38 39.42 L 14.95 41.08 L 11.37 42.43 L 7.67 43.47 L 3.87 44.19 L 0.00 44.57 L -3.90 44.62 L -7.81 44.32 L -11.70 43.67 L -15.54 42.69 L -19.29 41.37 L -22.93 39.71 L -26.43 37.74 L -29.75 35.46 L -32.88 32.88 L -35.79 30.03 L -38.44 26.92 L -40.83 23.57 L -42.92 20.01 L -44.70 16.27 L -46.16 12.37 L -47.27 8.34 L -48.03 4.20 L -48.43 0.00 L -48.46 -4.24 L -48.11 -8.48 L -47.40 -12.70 L -46.31 -16.86 L -44.86 -20.92 L -43.05 -24.86 L -40.90 -28.64 L -38.41 -32.23 L -35.61 -35.61 L -32.51 -38.74 L -29.13 -41.60 L -25.50 -44.17 L -21.64 -46.42 L -17.59 -48.33 L -13.37 -49.88 L -9.00 -51.07 L -4.54 -51.87 L -0.00 -52.29 L 4.58 -52.30 L 9.15 -51.91 L 13.70 -51.13 L 18.18 -49.94 L 22.55 -48.36 L 26.79 -46.39 L 30.85 -44.06 L 34.71 -41.37 L 38.34 -38.34 L 41.69 -34.99 L 44.76 -31.34 L 47.51 -27.43 L 49.91 -23.27 L 51.95 -18.91 L 53.61 -14.36 L 54.87 -9.67 L 55.72 -4.87 L 56.14 -0.00 L 56.14 4.91 L 55.71 9.82 L 54.85 14.70 L 53.56 19.50 L 51.85 24.18 L 49.73 28.71 L 47.22 33.06 L 44.32 37.19 L 41.06 41.06 L 37.47 44.65 L 33.55 47.92 L 29.36 50.85 L 24.90 53.41 L 20.23 55.58 L 15.36 57.33 L 10.34 58.67 L 5.21 59.56 L -0.00 60.00"/>
  </g>
  <circle cx="200" cy="196" r="3.2" fill="#2E2017"/>
</svg>
