<svg xmlns="http://www.w3.org/2000/svg" viewBox="0 0 120 120" role="img" aria-label="Cmaa — Chakli sun / marigold">
  <title>Cmaa — Chakli-sun / marigold mark</title>
  <defs>
    <!-- Outer petal/ray: a clean teardrop pointing up, tip at y=10, base near disc -->
    <path id="c2petalA" d="M60 9
                           C65.6 18 67 27 64.2 34
                           C62.8 37.4 57.2 37.4 55.8 34
                           C53 27 54.4 18 60 9 Z"/>
    <!-- Inner petal: shorter, sits between outer petals, tucked toward disc -->
    <path id="c2petalB" d="M60 25
                           C63.4 31 64 36.5 62.2 41
                           C61.3 43.2 58.7 43.2 57.8 41
                           C56 36.5 56.6 31 60 25 Z"/>
  </defs>

  <!-- ===== Inner petal layer (deeper mustard), offset 15deg, behind outer ===== -->
  <g fill="#D99A2B">
    <use href="#c2petalB" transform="rotate(15 60 60)"/>
    <use href="#c2petalB" transform="rotate(45 60 60)"/>
    <use href="#c2petalB" transform="rotate(75 60 60)"/>
    <use href="#c2petalB" transform="rotate(105 60 60)"/>
    <use href="#c2petalB" transform="rotate(135 60 60)"/>
    <use href="#c2petalB" transform="rotate(165 60 60)"/>
    <use href="#c2petalB" transform="rotate(195 60 60)"/>
    <use href="#c2petalB" transform="rotate(225 60 60)"/>
    <use href="#c2petalB" transform="rotate(255 60 60)"/>
    <use href="#c2petalB" transform="rotate(285 60 60)"/>
    <use href="#c2petalB" transform="rotate(315 60 60)"/>
    <use href="#c2petalB" transform="rotate(345 60 60)"/>
  </g>

  <!-- ===== Outer petal/ray layer (gold), 12 around ===== -->
  <g fill="#E9B949">
    <use href="#c2petalA" transform="rotate(0 60 60)"/>
    <use href="#c2petalA" transform="rotate(30 60 60)"/>
    <use href="#c2petalA" transform="rotate(60 60 60)"/>
    <use href="#c2petalA" transform="rotate(90 60 60)"/>
    <use href="#c2petalA" transform="rotate(120 60 60)"/>
    <use href="#c2petalA" transform="rotate(150 60 60)"/>
    <use href="#c2petalA" transform="rotate(180 60 60)"/>
    <use href="#c2petalA" transform="rotate(210 60 60)"/>
    <use href="#c2petalA" transform="rotate(240 60 60)"/>
    <use href="#c2petalA" transform="rotate(270 60 60)"/>
    <use href="#c2petalA" transform="rotate(300 60 60)"/>
    <use href="#c2petalA" transform="rotate(330 60 60)"/>
  </g>

  <!-- ===== Central chakli disc ===== -->
  <circle cx="60" cy="60" r="26.5" fill="#B5512E"/>
  <circle cx="60" cy="60" r="26.5" fill="none" stroke="#8C3D22" stroke-width="2"/>

  <!-- ===== Chakli spiral coil ===== -->
  <path d="M61.6 60C61.63 60.08 61.75 60.3 61.79 60.48C61.82 60.65 61.84 60.85 61.82 61.05C61.8 61.25 61.75 61.46 61.66 61.66C61.57 61.86 61.45 62.07 61.3 62.25C61.14 62.43 60.95 62.61 60.74 62.75C60.52 62.89 60.27 63.01 60 63.09C59.73 63.17 59.43 63.22 59.14 63.23C58.84 63.23 58.51 63.19 58.21 63.11C57.9 63.02 57.58 62.89 57.29 62.71C57 62.54 56.71 62.31 56.46 62.04C56.21 61.78 55.99 61.46 55.81 61.12C55.64 60.78 55.5 60.4 55.42 60C55.34 59.6 55.3 59.17 55.33 58.75C55.36 58.33 55.45 57.88 55.6 57.46C55.75 57.04 55.96 56.61 56.23 56.23C56.5 55.85 56.83 55.48 57.21 55.17C57.59 54.86 58.03 54.58 58.49 54.37C58.96 54.16 59.48 54 60 53.92C60.52 53.84 61.09 53.83 61.64 53.89C62.19 53.95 62.76 54.09 63.29 54.31C63.82 54.52 64.35 54.82 64.82 55.18C65.3 55.53 65.75 55.98 66.12 56.46C66.5 56.95 66.83 57.52 67.07 58.11C67.31 58.69 67.49 59.35 67.57 60C67.65 60.65 67.65 61.35 67.55 62.02C67.45 62.7 67.26 63.39 66.99 64.03C66.71 64.68 66.33 65.32 65.88 65.88C65.43 66.44 64.88 66.98 64.28 67.42C63.68 67.86 62.99 68.24 62.28 68.51C61.57 68.79 60.78 68.98 60 69.06C59.22 69.14 58.39 69.12 57.59 68.99C56.79 68.86 55.97 68.62 55.22 68.28C54.47 67.94 53.72 67.48 53.06 66.94C52.41 66.39 51.79 65.74 51.29 65.03C50.79 64.32 50.35 63.51 50.05 62.67C49.74 61.83 49.53 60.91 49.45 60C49.37 59.09 49.4 58.13 49.57 57.2C49.73 56.28 50.02 55.34 50.43 54.47C50.84 53.61 51.38 52.76 52.01 52.01C52.64 51.26 53.4 50.57 54.23 50C55.05 49.43 55.98 48.95 56.95 48.6C57.91 48.26 58.96 48.03 60 47.95C61.04 47.87 62.14 47.93 63.18 48.12C64.23 48.32 65.29 48.67 66.27 49.14C67.25 49.61 68.21 50.23 69.05 50.95C69.88 51.68 70.66 52.55 71.29 53.48C71.93 54.41 72.46 55.47 72.84 56.56C73.21 57.65 73.46 58.83 73.54 60C73.62 61.17 73.55 62.4 73.32 63.57C73.09 64.74 72.69 65.93 72.16 67.02C71.62 68.11 70.92 69.17 70.1 70.1C69.29 71.03 68.31 71.89 67.27 72.59C66.22 73.28 65.04 73.87 63.83 74.28C62.61 74.69 61.3 74.95 60 75.03C58.7 75.11 57.34 75.02 56.05 74.76C54.75 74.5 53.44 74.05 52.24 73.45C51.04 72.85 49.86 72.06 48.84 71.16C47.82 70.25 46.88 69.17 46.12 68.01C45.36 66.86 44.72 65.55 44.28 64.21C43.84 62.88 43.56 61.43 43.48 60C43.4 58.57 43.5 57.08 43.8 55.66C44.1 54.24 44.59 52.8 45.26 51.49C45.92 50.18 46.79 48.9 47.79 47.79C48.79 46.68 49.97 45.65 51.24 44.83C52.51 44 53.94 43.31 55.4 42.84C56.86 42.36 58.45 42.06 60 41.98C61.55 41.9 63.18 42.03 64.73 42.36C66.27 42.69 67.83 43.24 69.26 43.97C70.68 44.7 72.07 45.65 73.27 46.73C74.47 47.82 75.57 49.11 76.46 50.49C77.35 51.88 78.1 53.43 78.6 55.02C79.11 56.6 79.43 58.32 79.51 60C79.59 61.68 79.45 63.45 79.08 65.11C78.72 66.78 78.12 68.47 77.32 70C76.53 71.54 75.5 73.03 74.32 74.32C73.14 75.61 71.74 76.8 70.25 77.76C68.76 78.71 67.08 79.5 65.37 80.04C63.66 80.58 60.9 80.84 60 81"
        fill="none" stroke="#F4ECDD" stroke-width="3" stroke-linecap="round" stroke-linejoin="round"/>
</svg>
