<svg xmlns="http://www.w3.org/2000/svg" viewBox="0 0 620 220" width="620" height="220" role="img" aria-label="Cmaa — Homemade Chakli and Chivda">
  <title>Cmaa — Monogram lockup (reversed)</title>
  <defs>
    <linearGradient id="r3gold" x1="0.1" y1="0" x2="0.9" y2="1">
      <stop offset="0" stop-color="#F0C95B"/>
      <stop offset="0.5" stop-color="#E9B949"/>
      <stop offset="1" stop-color="#D99A2B"/>
    </linearGradient>
  </defs>

  <!-- Monogram: gold mark on transparent, gold ring (for dark backgrounds) -->
  <g transform="translate(20,25) scale(0.85)">
    <circle cx="100" cy="100" r="90.5" fill="none" stroke="url(#r3gold)" stroke-width="2.4"/>
    <circle cx="100" cy="100" r="85" fill="none" stroke="url(#r3gold)" stroke-width="0.9" opacity="0.6"/>
    <path fill="none" stroke="url(#r3gold)" stroke-width="11" stroke-linecap="round"
      d="M 136.00 142.90 C 135.23 143.48 132.98 145.30 131.39 146.38 C 129.80 147.45 128.14 148.45 126.45 149.36 C 124.75 150.27 123.00 151.09 121.22 151.82 C 119.45 152.55 117.62 153.19 115.78 153.73 C 113.93 154.27 112.05 154.72 110.16 155.07 C 108.27 155.42 106.35 155.67 104.44 155.82 C 102.52 155.98 100.59 156.03 98.67 155.98 C 96.75 155.94 94.82 155.79 92.91 155.55 C 91.00 155.31 89.10 154.96 87.23 154.52 C 85.36 154.09 83.50 153.55 81.68 152.92 C 79.87 152.29 78.08 151.57 76.33 150.75 C 74.59 149.94 72.88 149.03 71.23 148.05 C 69.59 147.06 67.98 145.98 66.44 144.83 C 64.90 143.68 63.42 142.44 62.00 141.14 C 60.59 139.83 59.24 138.45 57.97 137.01 C 56.70 135.56 55.50 134.05 54.38 132.48 C 53.27 130.92 52.23 129.29 51.28 127.61 C 50.33 125.94 49.47 124.21 48.70 122.45 C 47.93 120.69 47.24 118.88 46.66 117.05 C 46.07 115.22 45.58 113.35 45.19 111.47 C 44.79 109.59 44.50 107.68 44.30 105.77 C 44.10 103.85 44.00 101.92 44.00 100.00 C 44.00 98.08 44.10 96.15 44.30 94.23 C 44.50 92.32 44.79 90.41 45.19 88.53 C 45.58 86.65 46.07 84.78 46.66 82.95 C 47.24 81.12 47.93 79.31 48.70 77.55 C 49.47 75.79 50.33 74.06 51.28 72.39 C 52.23 70.71 53.27 69.08 54.38 67.52 C 55.50 65.95 56.70 64.44 57.97 62.99 C 59.24 61.55 60.59 60.17 62.00 58.86 C 63.42 57.56 64.90 56.32 66.44 55.17 C 67.98 54.02 69.59 52.94 71.23 51.95 C 72.88 50.97 74.59 50.06 76.33 49.25 C 78.08 48.43 79.87 47.71 81.68 47.08 C 83.50 46.45 85.36 45.91 87.23 45.48 C 89.10 45.04 91.00 44.69 92.91 44.45 C 94.82 44.21 96.75 44.06 98.67 44.02 C 100.59 43.97 102.52 44.02 104.44 44.18 C 106.35 44.33 108.27 44.58 110.16 44.93 C 112.05 45.28 113.93 45.73 115.78 46.27 C 117.62 46.81 119.45 47.45 121.22 48.18 C 123.00 48.91 124.75 49.73 126.45 50.64 C 128.14 51.55 129.80 52.55 131.39 53.62 C 132.98 54.70 135.23 56.52 136.00 57.10"/>
    <path fill="none" stroke="url(#r3gold)" stroke-width="6" stroke-linecap="round"
      d="M 100.00 97.20 C 100.13 97.09 100.47 96.70 100.78 96.52 C 101.09 96.33 101.46 96.17 101.85 96.07 C 102.24 95.98 102.68 95.93 103.13 95.96 C 103.58 95.99 104.06 96.08 104.53 96.25 C 105.00 96.42 105.48 96.66 105.92 96.98 C 106.37 97.30 106.81 97.69 107.19 98.16 C 107.56 98.62 107.91 99.16 108.18 99.74 C 108.45 100.33 108.67 100.99 108.80 101.68 C 108.92 102.37 108.98 103.11 108.93 103.86 C 108.88 104.61 108.74 105.41 108.49 106.17 C 108.25 106.93 107.90 107.72 107.45 108.45 C 107.00 109.18 106.44 109.91 105.80 110.55 C 105.15 111.19 104.40 111.80 103.57 112.30 C 102.75 112.80 101.82 113.24 100.85 113.55 C 99.88 113.86 98.83 114.08 97.76 114.17 C 96.69 114.25 95.55 114.23 94.44 114.05 C 93.32 113.88 92.17 113.58 91.07 113.14 C 89.98 112.70 88.87 112.11 87.86 111.40 C 86.85 110.69 85.86 109.83 85.00 108.87 C 84.14 107.91 83.34 106.80 82.70 105.62 C 82.05 104.44 81.50 103.13 81.12 101.78 C 80.74 100.44 80.49 98.98 80.42 97.53 C 80.35 96.07 80.44 94.54 80.71 93.05 C 80.98 91.57 81.42 90.04 82.04 88.60 C 82.66 87.16 83.46 85.72 84.41 84.41 C 85.37 83.10 86.51 81.84 87.78 80.74 C 89.04 79.64 90.48 78.63 92.01 77.81 C 93.54 77.00 95.22 76.31 96.95 75.84 C 98.67 75.37 100.52 75.07 102.36 74.99 C 104.21 74.91 106.13 75.03 108.00 75.38 C 109.87 75.72 111.78 76.28 113.57 77.05 C 115.37 77.82 117.15 78.82 118.78 80.00 C 120.40 81.19 121.96 82.59 123.32 84.15 C 124.68 85.70 125.93 87.47 126.94 89.34 C 127.94 91.20 128.79 93.25 129.37 95.35 C 129.96 97.44 130.34 99.69 130.45 101.92 C 130.56 104.15 130.43 106.47 130.04 108.73 C 129.64 110.98 128.99 113.28 128.08 115.44 C 127.18 117.60 126.01 119.75 124.62 121.70 C 123.23 123.66 121.57 125.53 119.74 127.17 C 117.91 128.81 115.84 130.31 113.64 131.53 C 111.45 132.75 109.04 133.78 106.58 134.50 C 104.12 135.23 101.49 135.71 98.87 135.88 C 96.26 136.05 93.53 135.93 90.88 135.51 C 88.24 135.09 85.54 134.37 83.00 133.36 C 80.47 132.34 77.95 131.02 75.65 129.44 C 73.35 127.86 71.14 125.97 69.20 123.89 C 67.27 121.80 65.49 119.43 64.04 116.92 C 62.58 114.41 61.35 111.66 60.46 108.84 C 59.57 106.02 58.97 103.00 58.72 100.00"/>
    <circle cx="136" cy="57.1" r="5.5" fill="url(#r3gold)"/>
    <circle cx="136" cy="142.9" r="5.5" fill="url(#r3gold)"/>
  </g>

  <rect x="216" y="48" width="1.4" height="124" fill="#8C3D22"/>

  <text x="244" y="128" font-family="Fraunces, 'Cormorant Garamond', Georgia, serif"
        font-size="104" font-weight="600" letter-spacing="-2" fill="#F4ECDD">Cmaa</text>
  <g>
    <rect x="246" y="150" width="40" height="1.4" fill="#E9B949"/>
    <text x="294" y="156" font-family="Mulish, 'Helvetica Neue', Arial, sans-serif"
          font-size="13.5" font-weight="700" letter-spacing="4.5" fill="#E9B949">HOMEMADE</text>
  </g>
  <text x="246" y="180" font-family="Mulish, 'Helvetica Neue', Arial, sans-serif"
        font-size="12.5" font-weight="500" letter-spacing="3.6" fill="#D9C2A3">CHAKLI &amp; CHIVDA</text>
</svg>
