<?xml version="1.0" encoding="UTF-8"?>
<!-- D1 LOUD COLOR-BLOCK — Lahya crunch bites — world curry leaf #0E7B3D
     Seema pack-round2 label. Front panel 130 x 200 mm, 250 g stand-up pouch.
     ALL TEXT OUTLINED to paths (Fraunces var + IBM Plex Mono + IBM Plex Sans Devanagari).
     Layer "dieline" (magenta) = cutter guide, do not print. 3 mm bleed included on layer "bleed". -->
<svg xmlns="http://www.w3.org/2000/svg" width="130mm" height="200mm" viewBox="0 0 130 200">
<g id="bleed"><rect x="-3" y="-3" width="136" height="206" fill="#0E7B3D"/></g>
<g fill="#F6EDDD"><path transform="translate(22.000 40.000) scale(0.015851 -0.015851)" d="M608 -21Q517 -21 458 5.5Q399 32 366.5 58.5Q334 85 321 85Q314 85 297.5 68.5Q281 52 262.5 30Q244 8 227.5 -8.5Q211 -25 201 -25Q195 -25 188.5 -20Q182 -15 181 -8L106 430Q105 437 105.5 440Q106 443 108 444Q110 447 114 445Q118 443 120 438Q206 264 285 169Q364 74 438.5 36.5Q513 -1 585 -1Q693 -1 756.5 57Q820 115 820 229Q820 300 791 358.5Q762 417 694 466.5Q626 516 506 557Q348 614 253.5 682Q159 750 116.5 832.5Q74 915 74 1016Q74 1137 135 1227.5Q196 1318 302.5 1369Q409 1420 546 1420Q629 1420 683.5 1400Q738 1380 770 1360Q802 1340 817 1340Q830 1340 857.5 1361Q885 1382 911.5 1403Q938 1424 950 1424Q954 1424 958.5 1421.5Q963 1419 964 1411L1072 977Q1072 971 1072 968Q1072 965 1068 963Q1066 962 1063 964Q1060 966 1057 969Q964 1140 882 1233Q800 1326 722.5 1363.5Q645 1401 565 1401Q463 1401 397 1334.5Q331 1268 331 1152Q331 1079 358.5 1018.5Q386 958 451 908.5Q516 859 630 816Q795 757 890.5 690Q986 623 1026.5 544.5Q1067 466 1067 370Q1066 261 1012 172.5Q958 84 855.5 31.5Q753 -21 608 -21Z"/><path transform="translate(40.034 40.000) scale(0.015851 -0.015851)" d="M849 515Q849 506 843 500.5Q837 495 825 495L205 495L205 513L581 513Q599 513 599 532Q599 713 552.5 798Q506 883 442 883Q388 883 349 845.5Q310 808 287.5 730Q265 652 265 530Q265 323 351 221Q437 119 577 119Q682 119 752.5 176.5Q823 234 832 331Q832 335 833.5 336.5Q835 338 836 338Q839 338 841.5 336.5Q844 335 843 329Q838 229 786 150Q734 71 647.5 25.5Q561 -20 455 -20Q330 -20 234.5 35Q139 90 85.5 190Q32 290 32 423Q32 566 86.5 673Q141 780 239.5 840.5Q338 901 472 901Q587 901 671 850.5Q755 800 802 713Q849 626 849 515Z"/><path transform="translate(54.018 40.000) scale(0.015851 -0.015851)" d="M849 515Q849 506 843 500.5Q837 495 825 495L205 495L205 513L581 513Q599 513 599 532Q599 713 552.5 798Q506 883 442 883Q388 883 349 845.5Q310 808 287.5 730Q265 652 265 530Q265 323 351 221Q437 119 577 119Q682 119 752.5 176.5Q823 234 832 331Q832 335 833.5 336.5Q835 338 836 338Q839 338 841.5 336.5Q844 335 843 329Q838 229 786 150Q734 71 647.5 25.5Q561 -20 455 -20Q330 -20 234.5 35Q139 90 85.5 190Q32 290 32 423Q32 566 86.5 673Q141 780 239.5 840.5Q338 901 472 901Q587 901 671 850.5Q755 800 802 713Q849 626 849 515Z"/><path transform="translate(68.002 40.000) scale(0.015851 -0.015851)" d="M372 886L372 56Q372 42 378 34Q384 26 396 24L450 14Q460 12 460 7Q460 0 452 0L40 0Q38 0 35.5 2Q33 4 33 6Q33 9 35 10.5Q37 12 43 13L98 24Q111 26 116.5 34.5Q122 43 122 56L122 784Q122 790 119 793.5Q116 797 108 797L45 797Q40 797 38 799.5Q36 802 36 805Q36 808 38.5 809.5Q41 811 45 812L341 895Q350 898 354 898.5Q358 899 361 899Q367 899 369.5 895.5Q372 892 372 886ZM348 686L337 697L373 730Q478 823 561.5 861.5Q645 900 716 900Q814 900 877 839.5Q940 779 940 650L940 61Q940 46 947.5 35.5Q955 25 969 22L1017 14Q1027 12 1027 7Q1027 0 1018 0L605 0Q596 0 596 7Q596 12 607 14L662 24Q678 27 683.5 37Q689 47 689 61L689 625Q689 710 651.5 749.5Q614 789 549 789Q507 789 465.5 771.5Q424 754 383 718ZM908 686L897 697L933 730Q1038 823 1122 861.5Q1206 900 1277 900Q1375 900 1437.5 839.5Q1500 779 1500 650L1500 61Q1500 46 1507.5 36Q1515 26 1531 22L1577 13Q1583 13 1585 11Q1587 9 1587 6Q1587 4 1585 2Q1583 0 1579 0L1165 0Q1156 0 1156 7Q1156 12 1167 14L1222 24Q1238 27 1243.5 37Q1249 47 1249 61L1249 625Q1249 710 1211.5 749.5Q1174 789 1109 789Q1067 789 1025.5 771.5Q984 754 943 718Z"/><path transform="translate(93.439 40.000) scale(0.015851 -0.015851)" d="M558 93L558 102L545 92L545 744Q545 812 516.5 849Q488 886 435 886Q375 886 345.5 855.5Q316 825 316 786L316 702Q316 651 279 615Q242 579 185 579Q144 579 117.5 604Q91 629 91 678Q91 730 133.5 781.5Q176 833 259.5 866.5Q343 900 466 900Q633 900 715 830.5Q797 761 797 635L797 118Q797 84 809.5 68.5Q822 53 840 53Q857 53 871.5 64.5Q886 76 889 102Q889 106 891 107Q893 108 895 108Q897 108 898 107Q899 106 899 102Q899 83 881.5 54.5Q864 26 823.5 4Q783 -18 714 -18Q632 -18 595 13.5Q558 45 558 93ZM40 195Q40 304 131.5 371Q223 438 422 438Q482 438 520 426.5Q558 415 591 396L582 389Q549 405 515.5 414Q482 423 439 423Q368 423 329 373Q290 323 290 231Q290 143 327.5 97.5Q365 52 426 52Q465 52 504 72Q543 92 569 127L580 120Q537 53 460.5 17.5Q384 -18 295 -18Q182 -18 111 41.5Q40 101 40 195Z"/></g>
<g fill="#F6EDDD"><path transform="translate(56.717 51.500) scale(0.008500 -0.008500)" d="M65 306L65 373L92 373Q143 373 174 405.5Q205 438 205 500L205 637L-20 637L-20 698L714 698L714 637L576 637L576 0L502 0L502 301L149 301L149 299L186 244L316 35L258 -6ZM213 361L289 364L502 364L502 637L279 637L279 509Q279 456 264.5 422.5Q250 389 213 364Z"/><path transform="translate(62.616 51.500) scale(0.008500 -0.008500)" d="M118 637L-20 637L-20 698L119 698L119 747Q119 803 91.5 832.5Q64 862 13 862Q-34 862 -67 836Q-100 810 -129 763L-186 800Q-155 855 -105 891.5Q-55 928 13 928Q55 928 88 915Q121 902 144 878.5Q167 855 179.5 821.5Q192 788 192 748L192 698L330 698L330 637L192 637L192 0L118 0Z"/><path transform="translate(65.251 51.500) scale(0.008500 -0.008500)" d="M161 221Q123 221 103 241.5Q83 262 83 298Q83 355 129 370L129 637L-20 637L-20 698L655 698L655 637L517 637L517 0L443 0L443 312L203 312L203 229Q187 221 161 221ZM203 637L203 375L443 375L443 637Z"/><path transform="translate(70.648 51.500) scale(0.008500 -0.008500)" d="M118 637L-20 637L-20 698L330 698L330 637L192 637L192 0L118 0Z"/></g>
<g fill="#F6EDDD"><path transform="translate(38.192 82.941) scale(0.011121 -0.011121)" d="M589 1386L506 1373Q486 1371 476.5 1365Q467 1359 467 1346L467 59Q467 38 479.5 28.5Q492 19 517 19L716 19Q764 19 807.5 37.5Q851 56 894 105Q937 154 983 244L1078 435Q1081 440 1083 442Q1085 444 1088 443Q1092 442 1093 438.5Q1094 435 1093 427L1000 -7Q996 -20 994.5 -24Q993 -28 990 -28Q984 -28 971 -21Q958 -14 937.5 -7Q917 0 886 0L78 0Q74 0 71.5 2Q69 4 69 6Q69 12 81 14L164 27Q183 30 192.5 35.5Q202 41 202 54L202 1346Q202 1359 192.5 1365Q183 1371 164 1373L81 1386Q69 1388 69 1394Q69 1396 71.5 1398Q74 1400 78 1400L591 1400Q595 1400 597.5 1398Q600 1396 600 1394Q600 1388 589 1386Z"/><path transform="translate(50.487 82.941) scale(0.011121 -0.011121)" d="M560 92L560 101L550 92L550 728Q550 802 519 842.5Q488 883 429 883Q364 883 332 850.5Q300 818 300 779L300 700Q300 652 266 619.5Q232 587 181 587Q143 587 118.5 609.5Q94 632 94 679Q94 731 135.5 781Q177 831 257.5 864Q338 897 456 897Q618 897 698 828.5Q778 760 778 636L778 115Q778 78 790 62.5Q802 47 821 47Q838 47 852.5 57.5Q867 68 871 94Q870 97 872 98.5Q874 100 875 100Q878 100 879 98.5Q880 97 880 93Q880 75 863.5 49Q847 23 809.5 3Q772 -17 710 -17Q632 -17 596 13.5Q560 44 560 92ZM44 193Q44 301 133 367Q222 433 413 433Q477 433 517.5 420.5Q558 408 593 390L585 383Q550 400 514 409Q478 418 432 418Q354 418 312.5 368Q271 318 271 227Q271 140 310.5 93.5Q350 47 415 47Q459 47 500.5 67Q542 87 571 125L581 119Q538 52 461.5 17Q385 -18 297 -18Q184 -18 114 41Q44 100 44 193Z"/><path transform="translate(60.502 82.941) scale(0.011121 -0.011121)" d="M333 688L323 697L359 730Q462 822 543 859Q624 896 695 896Q794 896 857.5 835Q921 774 921 644L921 60Q921 44 929 34.5Q937 25 953 22L1002 13Q1007 12 1009 10Q1011 8 1011 7Q1011 4 1009 2Q1007 0 1003 0L607 0Q598 0 598 6Q598 13 609 13L667 23Q684 26 689.5 36.5Q695 47 695 60L695 621Q695 712 654 753.5Q613 795 543 795Q501 795 456.5 777Q412 759 367 718ZM352 1471L352 55Q352 42 358.5 34Q365 26 377 23L434 13Q444 13 444 6Q444 0 436 0L42 0Q39 0 36.5 2Q34 4 34 7Q34 8 37 11Q40 14 47 15L103 23Q115 26 120.5 33.5Q126 41 126 53L126 1374Q126 1380 123.5 1383.5Q121 1387 113 1387L46 1386Q41 1386 39 1388.5Q37 1391 37 1393Q37 1397 39.5 1398.5Q42 1400 45 1401L323 1478Q332 1481 335.5 1481Q339 1481 342 1481Q348 1481 350 1478Q352 1475 352 1471Z"/><path transform="translate(71.946 82.941) scale(0.011121 -0.011121)" d="M578 207L467 -81L127 731Q101 790 70.5 822.5Q40 855 2 861Q-8 863 -9.5 865Q-11 867 -11 869Q-11 873 -8.5 874Q-6 875 -3 875L439 875Q443 875 445 874Q447 873 447 869Q447 865 445 863.5Q443 862 437 860L367 851Q343 849 337.5 829.5Q332 810 345 778ZM402 -223L501 28L514 63L777 746Q796 797 784.5 819.5Q773 842 737 849L681 860Q676 862 673.5 863.5Q671 865 671 869Q671 872 673 873.5Q675 875 679 875L923 875Q929 875 931 873.5Q933 872 933 868Q933 866 930.5 864.5Q928 863 922 861Q871 852 841.5 827Q812 802 791 747L412 -235Q378 -324 353 -380.5Q328 -437 295 -463.5Q262 -490 203 -490Q128 -490 82.5 -444.5Q37 -399 37 -336Q37 -289 62 -262.5Q87 -236 124 -236Q157 -236 178.5 -257.5Q200 -279 212 -319L223 -358Q229 -387 243 -410.5Q257 -434 281 -434Q300 -434 318 -409Q336 -384 356.5 -336.5Q377 -289 402 -223Z"/><path transform="translate(81.793 82.941) scale(0.011121 -0.011121)" d="M560 92L560 101L550 92L550 728Q550 802 519 842.5Q488 883 429 883Q364 883 332 850.5Q300 818 300 779L300 700Q300 652 266 619.5Q232 587 181 587Q143 587 118.5 609.5Q94 632 94 679Q94 731 135.5 781Q177 831 257.5 864Q338 897 456 897Q618 897 698 828.5Q778 760 778 636L778 115Q778 78 790 62.5Q802 47 821 47Q838 47 852.5 57.5Q867 68 871 94Q870 97 872 98.5Q874 100 875 100Q878 100 879 98.5Q880 97 880 93Q880 75 863.5 49Q847 23 809.5 3Q772 -17 710 -17Q632 -17 596 13.5Q560 44 560 92ZM44 193Q44 301 133 367Q222 433 413 433Q477 433 517.5 420.5Q558 408 593 390L585 383Q550 400 514 409Q478 418 432 418Q354 418 312.5 368Q271 318 271 227Q271 140 310.5 93.5Q350 47 415 47Q459 47 500.5 67Q542 87 571 125L581 119Q538 52 461.5 17Q385 -18 297 -18Q184 -18 114 41Q44 100 44 193Z"/></g>
<g fill="#F6EDDD"><path transform="translate(12.000 105.628) scale(0.011121 -0.011121)" d="M804 663Q804 614 775 582.5Q746 551 696 551Q645 551 615 583Q585 615 585 674L585 745Q585 808 550.5 844Q516 880 455 880Q394 880 348 837Q302 794 277 715.5Q252 637 252 530Q252 398 290 307Q328 216 394.5 169.5Q461 123 544 123Q636 123 701 164.5Q766 206 791 296Q791 299 793 300.5Q795 302 797 301Q800 301 801 298.5Q802 296 800 293Q781 193 730 123.5Q679 54 603 18Q527 -18 430 -18Q318 -18 229 31.5Q140 81 88.5 179Q37 277 37 420Q37 556 92.5 663.5Q148 771 246.5 833.5Q345 896 474 896Q581 896 654 865.5Q727 835 765.5 782.5Q804 730 804 663Z"/><path transform="translate(21.255 105.628) scale(0.011121 -0.011121)" d="M342 495Q342 628 380 717Q418 806 477.5 851Q537 896 601 896Q674 896 714 850Q754 804 754 721Q754 649 721 614.5Q688 580 638 580Q592 580 568.5 606Q545 632 543 683L542 714Q542 746 529.5 762Q517 778 487 778Q454 778 423.5 746.5Q393 715 373.5 650.5Q354 586 354 489ZM354 876L354 541L354 60Q354 49 360.5 40Q367 31 379 29L478 13Q484 12 486 10.5Q488 9 488 6Q488 4 485.5 2Q483 0 478 0L45 0Q41 0 38 2.5Q35 5 35 7Q35 9 38.5 11.5Q42 14 48 15L104 23Q117 26 122 33Q127 40 127 50L127 789Q127 795 125 799.5Q123 804 115 803L45 804Q42 804 39.5 806Q37 808 37 810Q37 813 39.5 815Q42 817 47 818L325 885Q332 887 335.5 887.5Q339 888 343 888Q350 888 352 884Q354 880 354 876Z"/><path transform="translate(29.790 105.628) scale(0.011121 -0.011121)" d="M687 30L687 160L687 165L687 784Q687 789 684 792.5Q681 796 674 796L606 796Q602 796 600 798Q598 800 598 802Q598 807 600 808.5Q602 810 606 810L883 888Q891 890 894.5 890.5Q898 891 902 891Q908 891 910.5 888Q913 885 913 880L913 55Q913 42 918.5 34Q924 26 937 23L993 14Q1000 14 1002 11.5Q1004 9 1004 7Q1004 4 1002 2Q1000 0 996 0L713 0Q700 0 693.5 7.5Q687 15 687 30ZM121 236L121 784Q121 789 118 792.5Q115 796 106 796L39 796Q35 796 33 798Q31 800 31 802Q31 807 33 808.5Q35 810 39 810L317 888Q326 890 329.5 890.5Q333 891 337 891Q342 891 344.5 888Q347 885 347 880L347 259Q347 167 388 125Q429 83 498 83Q542 83 586.5 101.5Q631 120 676 161L710 192L720 182L684 150Q580 58 499 21Q418 -16 348 -16Q249 -16 185 44.5Q121 105 121 236Z"/><path transform="translate(41.227 105.628) scale(0.011121 -0.011121)" d="M352 882L352 55Q352 42 358.5 34Q365 26 377 23L434 13Q444 13 444 6Q444 0 436 0L42 0Q39 0 36.5 2Q34 4 34 7Q34 8 36 10Q38 12 43 13L103 23Q115 26 120.5 33.5Q126 41 126 53L126 785Q126 792 123.5 795Q121 798 113 799L46 798Q41 798 39 800Q37 802 37 805Q37 809 39.5 810.5Q42 812 45 813L323 890Q332 892 335.5 893Q339 894 342 894Q348 894 350 890.5Q352 887 352 882ZM333 688L323 697L359 730Q461 822 542.5 859Q624 896 695 896Q794 896 857.5 835Q921 774 921 644L921 60Q921 44 929 34.5Q937 25 953 22L1002 13Q1007 12 1009 10Q1011 8 1011 7Q1011 4 1009 2Q1007 0 1003 0L607 0Q598 0 598 6Q598 13 609 13L667 23Q684 26 689.5 36.5Q695 47 695 60L695 621Q695 712 654 753.5Q613 795 543 795Q501 795 456.5 777Q412 759 367 718Z"/><path transform="translate(52.671 105.628) scale(0.011121 -0.011121)" d="M804 663Q804 614 775 582.5Q746 551 696 551Q645 551 615 583Q585 615 585 674L585 745Q585 808 550.5 844Q516 880 455 880Q394 880 348 837Q302 794 277 715.5Q252 637 252 530Q252 398 290 307Q328 216 394.5 169.5Q461 123 544 123Q636 123 701 164.5Q766 206 791 296Q791 299 793 300.5Q795 302 797 301Q800 301 801 298.5Q802 296 800 293Q781 193 730 123.5Q679 54 603 18Q527 -18 430 -18Q318 -18 229 31.5Q140 81 88.5 179Q37 277 37 420Q37 556 92.5 663.5Q148 771 246.5 833.5Q345 896 474 896Q581 896 654 865.5Q727 835 765.5 782.5Q804 730 804 663Z"/><path transform="translate(61.925 105.628) scale(0.011121 -0.011121)" d="M333 688L323 697L359 730Q462 822 543 859Q624 896 695 896Q794 896 857.5 835Q921 774 921 644L921 60Q921 44 929 34.5Q937 25 953 22L1002 13Q1007 12 1009 10Q1011 8 1011 7Q1011 4 1009 2Q1007 0 1003 0L607 0Q598 0 598 6Q598 13 609 13L667 23Q684 26 689.5 36.5Q695 47 695 60L695 621Q695 712 654 753.5Q613 795 543 795Q501 795 456.5 777Q412 759 367 718ZM352 1471L352 55Q352 42 358.5 34Q365 26 377 23L434 13Q444 13 444 6Q444 0 436 0L42 0Q39 0 36.5 2Q34 4 34 7Q34 8 37 11Q40 14 47 15L103 23Q115 26 120.5 33.5Q126 41 126 53L126 1374Q126 1380 123.5 1383.5Q121 1387 113 1387L46 1386Q41 1386 39 1388.5Q37 1391 37 1393Q37 1397 39.5 1398.5Q42 1400 45 1401L323 1478Q332 1481 335.5 1481Q339 1481 342 1481Q348 1481 350 1478Q352 1475 352 1471Z"/><path transform="translate(76.950 105.628) scale(0.011121 -0.011121)" d="M319 1471L319 73L119 -7Q115 -9 111 -10Q107 -11 102 -11Q99 -11 96 -8.5Q93 -6 93 -2L93 1374Q93 1380 90 1383.5Q87 1387 80 1387L12 1386Q8 1386 6 1388.5Q4 1391 4 1393Q4 1397 6.5 1398.5Q9 1400 12 1401L290 1478Q298 1481 302 1481Q306 1481 309 1481Q314 1481 316.5 1478Q319 1475 319 1471ZM304 724L293 735Q367 823 435 859.5Q503 896 586 896Q694 896 777 843.5Q860 791 907.5 694Q955 597 955 463Q955 318 902 209Q849 100 755 40Q661 -20 540 -20Q440 -20 376 19Q312 58 273 127L290 135Q319 77 368.5 43.5Q418 10 484 10Q551 10 605 52.5Q659 95 691 190.5Q723 286 723 441Q723 582 696 672Q669 762 621.5 806.5Q574 851 511 851Q462 851 408 820.5Q354 790 304 724Z"/><path transform="translate(88.075 105.628) scale(0.011121 -0.011121)" d="M357 882L357 55Q357 42 363 34Q369 26 381 23L438 14Q444 14 446 11.5Q448 9 448 7Q448 4 446 2Q444 0 440 0L46 0Q43 0 40.5 2Q38 4 38 7Q38 8 40 10Q42 12 48 13L107 23Q120 26 125.5 33.5Q131 41 131 53L131 785Q131 792 128 795Q125 798 118 799L51 798Q46 798 43.5 800Q41 802 41 805Q41 809 44 810.5Q47 812 50 813L327 890Q336 893 339.5 893.5Q343 894 347 894Q352 894 354.5 890.5Q357 887 357 882ZM239 1027Q179 1027 141 1067Q103 1107 103 1165Q103 1224 141.5 1264Q180 1304 239 1304Q300 1304 338.5 1263.5Q377 1223 377 1165Q377 1107 338 1067Q299 1027 239 1027Z"/><path transform="translate(93.318 105.628) scale(0.011121 -0.011121)" d="M108 844L20 862Q15 863 12.5 864.5Q10 866 10 870Q10 872 12.5 873.5Q15 875 17 875L106 875Q112 875 116.5 877.5Q121 880 126 885L308 1073Q314 1078 319 1081Q324 1084 329 1084Q335 1084 337.5 1080.5Q340 1077 340 1070L340 225Q340 145 371 106Q402 67 454 67Q473 67 490.5 72Q508 77 523 89.5Q538 102 549.5 122Q561 142 569 171Q571 176 575.5 175.5Q580 175 578 168Q562 105 533.5 64Q505 23 462 3Q419 -17 358 -17Q245 -17 183.5 36Q122 89 122 201L122 825Q122 834 119.5 838.5Q117 843 108 844ZM270 856L277 875L571 875Q576 875 578 874Q580 873 580 869Q580 863 574 859.5Q568 856 556 856Z"/><path transform="translate(99.766 105.628) scale(0.011121 -0.011121)" d="M831 519Q831 511 825.5 505.5Q820 500 809 500L190 500L190 518L589 518Q604 518 604 536Q604 711 555.5 795.5Q507 880 437 880Q378 880 335.5 841Q293 802 269.5 721.5Q246 641 246 521Q246 314 332.5 210Q419 106 559 106Q661 106 732.5 164Q804 222 814 320Q814 324 816 325.5Q818 327 818 327Q821 327 823 325.5Q825 324 825 318Q819 221 768 144.5Q717 68 634 24Q551 -20 447 -20Q325 -20 232.5 34.5Q140 89 88 188Q36 287 36 420Q36 561 89 668.5Q142 776 238.5 836Q335 896 465 896Q576 896 658 847Q740 798 785.5 713Q831 628 831 519Z"/><path transform="translate(109.395 105.628) scale(0.011121 -0.011121)" d="M362 878Q293 878 251 841.5Q209 805 209 744Q209 702 228 669Q247 636 293 607.5Q339 579 419 554Q536 515 602.5 469.5Q669 424 697 367.5Q725 311 725 239Q725 115 641.5 47.5Q558 -20 418 -20Q357 -20 317.5 -8.5Q278 3 257 14.5Q236 26 230 26Q221 26 196.5 15Q172 4 148 -8Q124 -20 118 -20Q116 -20 112.5 -18.5Q109 -17 106 -9L52 276Q51 284 51.5 289Q52 294 56 295Q58 296 61 295Q64 294 66 290Q122 180 175 116Q228 52 285 24.5Q342 -3 408 -3Q485 -3 527.5 36Q570 75 570 139Q570 181 551 215.5Q532 250 481.5 279Q431 308 339 334Q235 365 171.5 408.5Q108 452 79.5 509Q51 566 51 636Q51 716 89.5 774.5Q128 833 195 865Q262 897 345 897Q400 897 440 881.5Q480 866 504.5 850.5Q529 835 535 835Q540 835 560.5 849Q581 863 602 877.5Q623 892 631 892Q637 892 641.5 888.5Q646 885 648 874L692 629Q694 619 693 614.5Q692 610 687 607Q686 606 684 608Q682 610 678 613Q601 758 521 818Q441 878 362 878Z"/></g>
<g fill="#F6EDDD"><path transform="translate(28.100 114.628) scale(0.004100 -0.004100)" d="M98 0L98 516L178 516L178 432L182 432Q190 451 202 468.5Q214 486 231.5 499Q249 512 273 520Q297 528 329 528Q410 528 459 476.5Q508 425 508 331L508 0L428 0L428 317Q428 388 397 422.5Q366 457 306 457Q282 457 259 451Q236 445 218 433Q200 421 189 402Q178 383 178 358L178 0Z"/><path transform="translate(30.560 114.628) scale(0.004100 -0.004100)" d="M300 -12Q246 -12 202.5 7Q159 26 128.5 61.5Q98 97 82 146.5Q66 196 66 258Q66 319 82 369Q98 419 128.5 454.5Q159 490 202.5 509Q246 528 300 528Q354 528 397.5 509Q441 490 471.5 454.5Q502 419 518 369Q534 319 534 258Q534 196 518 146.5Q502 97 471.5 61.5Q441 26 397.5 7Q354 -12 300 -12ZM300 57Q367 57 408 97Q449 137 449 221L449 295Q449 379 408 419Q367 459 300 459Q233 459 192 419Q151 379 151 295L151 221Q151 137 192 97Q233 57 300 57Z"/><path transform="translate(35.480 114.628) scale(0.004100 -0.004100)" d="M95 516L175 516L175 432L179 432Q229 528 338 528Q433 528 486.5 457Q540 386 540 258Q540 130 486.5 59Q433 -12 338 -12Q229 -12 179 84L175 84L175 -200L95 -200ZM307 59Q377 59 415.5 101.5Q454 144 454 214L454 302Q454 372 415.5 414.5Q377 457 307 457Q280 457 256 450Q232 443 214 429.5Q196 416 185.5 396.5Q175 377 175 351L175 165Q175 139 185.5 119.5Q196 100 214 86.5Q232 73 256 66Q280 59 307 59Z"/><path transform="translate(37.940 114.628) scale(0.004100 -0.004100)" d="M495 0Q448 0 428 24Q408 48 403 84L398 84Q381 39 343.5 13.5Q306 -12 243 -12Q162 -12 114 30Q66 72 66 145Q66 217 118.5 256Q171 295 288 295L398 295L398 346Q398 403 366 431.5Q334 460 275 460Q223 460 190 439.5Q157 419 137 384L83 424Q93 444 110 463Q127 482 152 496.5Q177 511 209 519.5Q241 528 280 528Q371 528 424.5 482Q478 436 478 354L478 70L550 70L550 0ZM257 55Q288 55 313.5 62.5Q339 70 358 82.5Q377 95 387.5 112.5Q398 130 398 150L398 235L288 235Q216 235 183 215Q150 195 150 157L150 136Q150 96 178.5 75.5Q207 55 257 55Z"/><path transform="translate(40.400 114.628) scale(0.004100 -0.004100)" d="M80 68L260 68L260 672L80 672L80 740L340 740L340 68L520 68L520 0L80 0Z"/><path transform="translate(42.860 114.628) scale(0.004100 -0.004100)" d="M54 0L54 516L128 516L128 456L132 456Q144 486 166 507Q188 528 231 528Q276 528 298 505.5Q320 483 325 447L328 447Q342 482 368 505Q394 528 440 528Q503 528 524.5 484Q546 440 546 358L546 0L472 0L472 345Q472 411 458.5 436.5Q445 462 409 462Q377 462 357 441.5Q337 421 337 379L337 0L263 0L263 345Q263 411 249.5 436.5Q236 462 201 462Q169 462 148.5 441.5Q128 421 128 379L128 0Z"/><path transform="translate(47.780 114.628) scale(0.004100 -0.004100)" d="M300 -12Q246 -12 202.5 7Q159 26 128.5 61.5Q98 97 82 146.5Q66 196 66 258Q66 319 82 369Q98 419 128.5 454.5Q159 490 202.5 509Q246 528 300 528Q354 528 397.5 509Q441 490 471.5 454.5Q502 419 518 369Q534 319 534 258Q534 196 518 146.5Q502 97 471.5 61.5Q441 26 397.5 7Q354 -12 300 -12ZM300 57Q367 57 408 97Q449 137 449 221L449 295Q449 379 408 419Q367 459 300 459Q233 459 192 419Q151 379 151 295L151 221Q151 137 192 97Q233 57 300 57Z"/><path transform="translate(50.240 114.628) scale(0.004100 -0.004100)" d="M332 630Q297 630 283 644.5Q269 659 269 681L269 697Q269 719 283 733.5Q297 748 332 748Q367 748 381 733.5Q395 719 395 697L395 681Q395 659 381 644.5Q367 630 332 630ZM106 68L292 68L292 448L106 448L106 516L372 516L372 68L546 68L546 0L106 0Z"/><path transform="translate(52.700 114.628) scale(0.004100 -0.004100)" d="M80 68L260 68L260 672L80 672L80 740L340 740L340 68L520 68L520 0L80 0Z"/><path transform="translate(57.620 114.628) scale(0.004100 -0.004100)" d="M300 235Q259 235 242.5 252Q226 269 226 295L226 313Q226 339 242.5 356Q259 373 300 373Q341 373 357.5 356Q374 339 374 313L374 295Q374 269 357.5 252Q341 235 300 235Z"/><path transform="translate(62.540 114.628) scale(0.004100 -0.004100)" d="M98 0L98 516L178 516L178 432L182 432Q190 451 202 468.5Q214 486 231.5 499Q249 512 273 520Q297 528 329 528Q410 528 459 476.5Q508 425 508 331L508 0L428 0L428 317Q428 388 397 422.5Q366 457 306 457Q282 457 259 451Q236 445 218 433Q200 421 189 402Q178 383 178 358L178 0Z"/><path transform="translate(65.000 114.628) scale(0.004100 -0.004100)" d="M300 -12Q246 -12 202.5 7Q159 26 128.5 61.5Q98 97 82 146.5Q66 196 66 258Q66 319 82 369Q98 419 128.5 454.5Q159 490 202.5 509Q246 528 300 528Q354 528 397.5 509Q441 490 471.5 454.5Q502 419 518 369Q534 319 534 258Q534 196 518 146.5Q502 97 471.5 61.5Q441 26 397.5 7Q354 -12 300 -12ZM300 57Q367 57 408 97Q449 137 449 221L449 295Q449 379 408 419Q367 459 300 459Q233 459 192 419Q151 379 151 295L151 221Q151 137 192 97Q233 57 300 57Z"/><path transform="translate(69.920 114.628) scale(0.004100 -0.004100)" d="M95 516L175 516L175 432L179 432Q229 528 338 528Q433 528 486.5 457Q540 386 540 258Q540 130 486.5 59Q433 -12 338 -12Q229 -12 179 84L175 84L175 -200L95 -200ZM307 59Q377 59 415.5 101.5Q454 144 454 214L454 302Q454 372 415.5 414.5Q377 457 307 457Q280 457 256 450Q232 443 214 429.5Q196 416 185.5 396.5Q175 377 175 351L175 165Q175 139 185.5 119.5Q196 100 214 86.5Q232 73 256 66Q280 59 307 59Z"/><path transform="translate(72.380 114.628) scale(0.004100 -0.004100)" d="M77 68L228 68L228 448L77 448L77 516L308 516L308 386L313 386Q329 447 373.5 481.5Q418 516 487 516L559 516L559 436L462 436Q393 436 350.5 396Q308 356 308 291L308 68L508 68L508 0L77 0Z"/><path transform="translate(74.840 114.628) scale(0.004100 -0.004100)" d="M309 -12Q253 -12 208.5 7Q164 26 132.5 61.5Q101 97 84 146.5Q67 196 67 257Q67 319 84.5 369Q102 419 133 454.5Q164 490 207.5 509Q251 528 304 528Q356 528 398.5 509Q441 490 471 456.5Q501 423 517 377Q533 331 533 276L533 238L151 238L151 214Q151 180 162 151Q173 122 193.5 101Q214 80 243.5 68.5Q273 57 309 57Q361 57 399 81Q437 105 457 147L516 107Q493 55 439.5 21.5Q386 -12 309 -12ZM304 462Q271 462 243 450Q215 438 194.5 417Q174 396 162.5 367.5Q151 339 151 305L151 298L447 298L447 309Q447 343 436.5 371Q426 399 407.5 419.5Q389 440 362.5 451Q336 462 304 462Z"/><path transform="translate(77.300 114.628) scale(0.004100 -0.004100)" d="M306 -12Q225 -12 166.5 15.5Q108 43 67 89L121 136Q158 97 202 76Q246 55 308 55Q368 55 406.5 76.5Q445 98 445 144Q445 164 437.5 177.5Q430 191 417 199Q404 207 388 211.5Q372 216 354 219L273 231Q246 235 214.5 242Q183 249 157 264.5Q131 280 113.5 306Q96 332 96 374Q96 413 111.5 441.5Q127 470 155 489.5Q183 509 221 518.5Q259 528 304 528Q374 528 425.5 506Q477 484 514 445L462 396Q453 407 439.5 418.5Q426 430 406.5 439.5Q387 449 361 455Q335 461 301 461Q240 461 207.5 440Q175 419 175 379Q175 359 182.5 345.5Q190 332 203 324Q216 316 232.5 311.5Q249 307 266 304L347 292Q375 288 406 281Q437 274 463 258.5Q489 243 506.5 217Q524 191 524 149Q524 72 464.5 30Q405 -12 306 -12Z"/><path transform="translate(79.760 114.628) scale(0.004100 -0.004100)" d="M309 -12Q253 -12 208.5 7Q164 26 132.5 61.5Q101 97 84 146.5Q67 196 67 257Q67 319 84.5 369Q102 419 133 454.5Q164 490 207.5 509Q251 528 304 528Q356 528 398.5 509Q441 490 471 456.5Q501 423 517 377Q533 331 533 276L533 238L151 238L151 214Q151 180 162 151Q173 122 193.5 101Q214 80 243.5 68.5Q273 57 309 57Q361 57 399 81Q437 105 457 147L516 107Q493 55 439.5 21.5Q386 -12 309 -12ZM304 462Q271 462 243 450Q215 438 194.5 417Q174 396 162.5 367.5Q151 339 151 305L151 298L447 298L447 309Q447 343 436.5 371Q426 399 407.5 419.5Q389 440 362.5 451Q336 462 304 462Z"/><path transform="translate(82.220 114.628) scale(0.004100 -0.004100)" d="M77 68L228 68L228 448L77 448L77 516L308 516L308 386L313 386Q329 447 373.5 481.5Q418 516 487 516L559 516L559 436L462 436Q393 436 350.5 396Q308 356 308 291L308 68L508 68L508 0L77 0Z"/><path transform="translate(84.680 114.628) scale(0.004100 -0.004100)" d="M249 0L64 516L145 516L219 300L299 67L303 67L383 300L457 516L536 516L351 0Z"/><path transform="translate(87.140 114.628) scale(0.004100 -0.004100)" d="M495 0Q448 0 428 24Q408 48 403 84L398 84Q381 39 343.5 13.5Q306 -12 243 -12Q162 -12 114 30Q66 72 66 145Q66 217 118.5 256Q171 295 288 295L398 295L398 346Q398 403 366 431.5Q334 460 275 460Q223 460 190 439.5Q157 419 137 384L83 424Q93 444 110 463Q127 482 152 496.5Q177 511 209 519.5Q241 528 280 528Q371 528 424.5 482Q478 436 478 354L478 70L550 70L550 0ZM257 55Q288 55 313.5 62.5Q339 70 358 82.5Q377 95 387.5 112.5Q398 130 398 150L398 235L288 235Q216 235 183 215Q150 195 150 157L150 136Q150 96 178.5 75.5Q207 55 257 55Z"/><path transform="translate(89.600 114.628) scale(0.004100 -0.004100)" d="M325 0Q266 0 238.5 33Q211 66 211 118L211 448L39 448L39 516L167 516Q193 516 203.5 526.5Q214 537 214 563L214 698L291 698L291 516L526 516L526 448L291 448L291 68L526 68L526 0Z"/><path transform="translate(92.060 114.628) scale(0.004100 -0.004100)" d="M332 630Q297 630 283 644.5Q269 659 269 681L269 697Q269 719 283 733.5Q297 748 332 748Q367 748 381 733.5Q395 719 395 697L395 681Q395 659 381 644.5Q367 630 332 630ZM106 68L292 68L292 448L106 448L106 516L372 516L372 68L546 68L546 0L106 0Z"/><path transform="translate(94.520 114.628) scale(0.004100 -0.004100)" d="M249 0L64 516L145 516L219 300L299 67L303 67L383 300L457 516L536 516L351 0Z"/><path transform="translate(96.980 114.628) scale(0.004100 -0.004100)" d="M309 -12Q253 -12 208.5 7Q164 26 132.5 61.5Q101 97 84 146.5Q67 196 67 257Q67 319 84.5 369Q102 419 133 454.5Q164 490 207.5 509Q251 528 304 528Q356 528 398.5 509Q441 490 471 456.5Q501 423 517 377Q533 331 533 276L533 238L151 238L151 214Q151 180 162 151Q173 122 193.5 101Q214 80 243.5 68.5Q273 57 309 57Q361 57 399 81Q437 105 457 147L516 107Q493 55 439.5 21.5Q386 -12 309 -12ZM304 462Q271 462 243 450Q215 438 194.5 417Q174 396 162.5 367.5Q151 339 151 305L151 298L447 298L447 309Q447 343 436.5 371Q426 399 407.5 419.5Q389 440 362.5 451Q336 462 304 462Z"/><path transform="translate(99.440 114.628) scale(0.004100 -0.004100)" d="M306 -12Q225 -12 166.5 15.5Q108 43 67 89L121 136Q158 97 202 76Q246 55 308 55Q368 55 406.5 76.5Q445 98 445 144Q445 164 437.5 177.5Q430 191 417 199Q404 207 388 211.5Q372 216 354 219L273 231Q246 235 214.5 242Q183 249 157 264.5Q131 280 113.5 306Q96 332 96 374Q96 413 111.5 441.5Q127 470 155 489.5Q183 509 221 518.5Q259 528 304 528Q374 528 425.5 506Q477 484 514 445L462 396Q453 407 439.5 418.5Q426 430 406.5 439.5Q387 449 361 455Q335 461 301 461Q240 461 207.5 440Q175 419 175 379Q175 359 182.5 345.5Q190 332 203 324Q216 316 232.5 311.5Q249 307 266 304L347 292Q375 288 406 281Q437 274 463 258.5Q489 243 506.5 217Q524 191 524 149Q524 72 464.5 30Q405 -12 306 -12Z"/></g>
<circle cx="65" cy="155" r="28.1" fill="none" stroke="#F6EDDD" stroke-width="1.1"/>
<g fill="#F6EDDD"><path transform="translate(104.200 193.000) scale(0.004600 -0.004600)" d="M545 0L63 0L63 107L291 306Q345 354 374.5 397Q404 440 404 488L404 499Q404 554 374 583.5Q344 613 287 613Q229 613 197.5 582Q166 551 152 503L54 540Q64 573 83 603.5Q102 634 131.5 658Q161 682 201.5 696Q242 710 295 710Q349 710 391.5 694.5Q434 679 463 652Q492 625 507 587.5Q522 550 522 505Q522 463 509.5 427.5Q497 392 474.5 359.5Q452 327 421 297Q390 267 353 237L184 95L545 95Z"/><path transform="translate(106.960 193.000) scale(0.004600 -0.004600)" d="M511 601L194 601L176 353L184 353Q208 394 242 418.5Q276 443 335 443Q380 443 418.5 428Q457 413 485.5 385Q514 357 530.5 316.5Q547 276 547 225Q547 173 530 129.5Q513 86 481 54.5Q449 23 402 5.5Q355 -12 295 -12Q248 -12 211.5 -1.5Q175 9 146.5 26.5Q118 44 97 66.5Q76 89 60 113L142 177Q155 157 169.5 139.5Q184 122 202 109Q220 96 243.5 89Q267 82 297 82Q362 82 396 117.5Q430 153 430 214L430 222Q430 283 395.5 317Q361 351 297 351Q250 351 223 334Q196 317 176 296L83 309L109 698L511 698Z"/><path transform="translate(109.720 193.000) scale(0.004600 -0.004600)" d="M300 -12Q234 -12 185.5 12.5Q137 37 105.5 83Q74 129 59 196Q44 263 44 349Q44 434 59 501.5Q74 569 105.5 615Q137 661 185.5 685.5Q234 710 300 710Q366 710 414.5 685.5Q463 661 494.5 615Q526 569 541 501.5Q556 434 556 349Q556 263 541 196Q526 129 494.5 83Q463 37 414.5 12.5Q366 -12 300 -12ZM300 80Q376 80 408.5 136.5Q441 193 441 289L441 409Q441 505 408.5 561.5Q376 618 300 618Q262 618 235 603.5Q208 589 191 561.5Q174 534 166.5 495.5Q159 457 159 409L159 289Q159 241 166.5 202.5Q174 164 191 136.5Q208 109 235 94.5Q262 80 300 80ZM300 290Q265 290 251.5 304Q238 318 238 338L238 360Q238 380 251.5 394Q265 408 300 408Q335 408 348.5 394Q362 380 362 360L362 338Q362 318 348.5 304Q335 290 300 290Z"/><path transform="translate(115.240 193.000) scale(0.004600 -0.004600)" d="M570 -56Q570 -136 503 -174Q436 -212 299 -212Q232 -212 186.5 -203.5Q141 -195 112.5 -179Q84 -163 71.5 -140Q59 -117 59 -88Q59 -46 82.5 -22.5Q106 1 149 12L149 22Q123 32 107.5 50Q92 68 92 97Q92 135 118 154.5Q144 174 185 184L185 189Q138 211 112 251Q86 291 86 347Q86 388 101 421.5Q116 455 143.5 478.5Q171 502 209.5 515Q248 528 296 528Q350 528 393 511L393 528Q393 558 410 578Q427 598 462 598L556 598L556 512L436 512L436 488Q470 465 488 429.5Q506 394 506 347Q506 306 491 272.5Q476 239 448.5 215.5Q421 192 382.5 179.5Q344 167 296 167Q262 167 232 173Q214 168 196 156Q178 144 178 123Q178 99 201 93Q224 87 258 87L374 87Q478 87 524 47.5Q570 8 570 -56ZM468 -63Q468 -37 447 -21.5Q426 -6 371 -6L192 -6Q154 -24 154 -64Q154 -93 178.5 -114Q203 -135 260 -135L341 -135Q403 -135 435.5 -116.5Q468 -98 468 -63ZM296 242Q349 242 374 267Q399 292 399 334L399 361Q399 403 374 428Q349 453 296 453Q243 453 218 428Q193 403 193 361L193 334Q193 292 218 267Q243 242 296 242Z"/></g>
<g fill="#F6EDDD"><path transform="translate(12.000 193.000) scale(0.003400 -0.003400)" d="M54 0L54 516L128 516L128 456L132 456Q144 486 166 507Q188 528 231 528Q276 528 298 505.5Q320 483 325 447L328 447Q342 482 368 505Q394 528 440 528Q503 528 524.5 484Q546 440 546 358L546 0L472 0L472 345Q472 411 458.5 436.5Q445 462 409 462Q377 462 357 441.5Q337 421 337 379L337 0L263 0L263 345Q263 411 249.5 436.5Q236 462 201 462Q169 462 148.5 441.5Q128 421 128 379L128 0Z"/><path transform="translate(14.040 193.000) scale(0.003400 -0.003400)" d="M300 -12Q246 -12 202.5 7Q159 26 128.5 61.5Q98 97 82 146.5Q66 196 66 258Q66 319 82 369Q98 419 128.5 454.5Q159 490 202.5 509Q246 528 300 528Q354 528 397.5 509Q441 490 471.5 454.5Q502 419 518 369Q534 319 534 258Q534 196 518 146.5Q502 97 471.5 61.5Q441 26 397.5 7Q354 -12 300 -12ZM300 57Q367 57 408 97Q449 137 449 221L449 295Q449 379 408 419Q367 459 300 459Q233 459 192 419Q151 379 151 295L151 221Q151 137 192 97Q233 57 300 57Z"/><path transform="translate(16.080 193.000) scale(0.003400 -0.003400)" d="M325 0Q266 0 238.5 33Q211 66 211 118L211 448L39 448L39 516L167 516Q193 516 203.5 526.5Q214 537 214 563L214 698L291 698L291 516L526 516L526 448L291 448L291 68L526 68L526 0Z"/><path transform="translate(18.120 193.000) scale(0.003400 -0.003400)" d="M98 740L178 740L178 432L182 432Q190 451 202 468.5Q214 486 231.5 499Q249 512 273 520Q297 528 329 528Q410 528 459 476.5Q508 425 508 331L508 0L428 0L428 317Q428 388 397 422.5Q366 457 306 457Q282 457 259 451Q236 445 218 433Q200 421 189 402Q178 383 178 358L178 0L98 0Z"/><path transform="translate(20.160 193.000) scale(0.003400 -0.003400)" d="M309 -12Q253 -12 208.5 7Q164 26 132.5 61.5Q101 97 84 146.5Q67 196 67 257Q67 319 84.5 369Q102 419 133 454.5Q164 490 207.5 509Q251 528 304 528Q356 528 398.5 509Q441 490 471 456.5Q501 423 517 377Q533 331 533 276L533 238L151 238L151 214Q151 180 162 151Q173 122 193.5 101Q214 80 243.5 68.5Q273 57 309 57Q361 57 399 81Q437 105 457 147L516 107Q493 55 439.5 21.5Q386 -12 309 -12ZM304 462Q271 462 243 450Q215 438 194.5 417Q174 396 162.5 367.5Q151 339 151 305L151 298L447 298L447 309Q447 343 436.5 371Q426 399 407.5 419.5Q389 440 362.5 451Q336 462 304 462Z"/><path transform="translate(22.200 193.000) scale(0.003400 -0.003400)" d="M77 68L228 68L228 448L77 448L77 516L308 516L308 386L313 386Q329 447 373.5 481.5Q418 516 487 516L559 516L559 436L462 436Q393 436 350.5 396Q308 356 308 291L308 68L508 68L508 0L77 0Z"/><path transform="translate(24.240 193.000) scale(0.003400 -0.003400)" d="M155 262L155 346L445 346L445 262Z"/><path transform="translate(26.280 193.000) scale(0.003400 -0.003400)" d="M54 0L54 516L128 516L128 456L132 456Q144 486 166 507Q188 528 231 528Q276 528 298 505.5Q320 483 325 447L328 447Q342 482 368 505Q394 528 440 528Q503 528 524.5 484Q546 440 546 358L546 0L472 0L472 345Q472 411 458.5 436.5Q445 462 409 462Q377 462 357 441.5Q337 421 337 379L337 0L263 0L263 345Q263 411 249.5 436.5Q236 462 201 462Q169 462 148.5 441.5Q128 421 128 379L128 0Z"/><path transform="translate(28.320 193.000) scale(0.003400 -0.003400)" d="M495 0Q448 0 428 24Q408 48 403 84L398 84Q381 39 343.5 13.5Q306 -12 243 -12Q162 -12 114 30Q66 72 66 145Q66 217 118.5 256Q171 295 288 295L398 295L398 346Q398 403 366 431.5Q334 460 275 460Q223 460 190 439.5Q157 419 137 384L83 424Q93 444 110 463Q127 482 152 496.5Q177 511 209 519.5Q241 528 280 528Q371 528 424.5 482Q478 436 478 354L478 70L550 70L550 0ZM257 55Q288 55 313.5 62.5Q339 70 358 82.5Q377 95 387.5 112.5Q398 130 398 150L398 235L288 235Q216 235 183 215Q150 195 150 157L150 136Q150 96 178.5 75.5Q207 55 257 55Z"/><path transform="translate(30.360 193.000) scale(0.003400 -0.003400)" d="M425 84L421 84Q371 -12 262 -12Q167 -12 113.5 59Q60 130 60 258Q60 386 113.5 457Q167 528 262 528Q371 528 421 432L425 432L425 740L505 740L505 0L425 0ZM293 59Q320 59 344 66Q368 73 386 86.5Q404 100 414.5 119.5Q425 139 425 165L425 351Q425 377 414.5 396.5Q404 416 386 429.5Q368 443 344 450Q320 457 293 457Q223 457 184.5 414.5Q146 372 146 302L146 214Q146 144 184.5 101.5Q223 59 293 59Z"/><path transform="translate(32.400 193.000) scale(0.003400 -0.003400)" d="M309 -12Q253 -12 208.5 7Q164 26 132.5 61.5Q101 97 84 146.5Q67 196 67 257Q67 319 84.5 369Q102 419 133 454.5Q164 490 207.5 509Q251 528 304 528Q356 528 398.5 509Q441 490 471 456.5Q501 423 517 377Q533 331 533 276L533 238L151 238L151 214Q151 180 162 151Q173 122 193.5 101Q214 80 243.5 68.5Q273 57 309 57Q361 57 399 81Q437 105 457 147L516 107Q493 55 439.5 21.5Q386 -12 309 -12ZM304 462Q271 462 243 450Q215 438 194.5 417Q174 396 162.5 367.5Q151 339 151 305L151 298L447 298L447 309Q447 343 436.5 371Q426 399 407.5 419.5Q389 440 362.5 451Q336 462 304 462Z"/><path transform="translate(36.480 193.000) scale(0.003400 -0.003400)" d="M300 235Q259 235 242.5 252Q226 269 226 295L226 313Q226 339 242.5 356Q259 373 300 373Q341 373 357.5 356Q374 339 374 313L374 295Q374 269 357.5 252Q341 235 300 235Z"/><path transform="translate(40.560 193.000) scale(0.003400 -0.003400)" d="M90 0L90 698L344 698Q441 698 492 645Q543 592 543 497Q543 402 492 349Q441 296 344 296L174 296L174 0ZM174 369L342 369Q395 369 424.5 395.5Q454 422 454 471L454 523Q454 572 424.5 598.5Q395 625 342 625L174 625Z"/><path transform="translate(42.600 193.000) scale(0.003400 -0.003400)" d="M422 84L418 84Q410 65 398 47.5Q386 30 368.5 17Q351 4 327 -4Q303 -12 271 -12Q190 -12 141 39.5Q92 91 92 185L92 516L172 516L172 199Q172 128 203 93.5Q234 59 294 59Q318 59 341 65Q364 71 382 83Q400 95 411 113.5Q422 132 422 158L422 516L502 516L502 0L422 0Z"/><path transform="translate(44.640 193.000) scale(0.003400 -0.003400)" d="M98 0L98 516L178 516L178 432L182 432Q190 451 202 468.5Q214 486 231.5 499Q249 512 273 520Q297 528 329 528Q410 528 459 476.5Q508 425 508 331L508 0L428 0L428 317Q428 388 397 422.5Q366 457 306 457Q282 457 259 451Q236 445 218 433Q200 421 189 402Q178 383 178 358L178 0Z"/><path transform="translate(46.680 193.000) scale(0.003400 -0.003400)" d="M309 -12Q253 -12 208.5 7Q164 26 132.5 61.5Q101 97 84 146.5Q67 196 67 257Q67 319 84.5 369Q102 419 133 454.5Q164 490 207.5 509Q251 528 304 528Q356 528 398.5 509Q441 490 471 456.5Q501 423 517 377Q533 331 533 276L533 238L151 238L151 214Q151 180 162 151Q173 122 193.5 101Q214 80 243.5 68.5Q273 57 309 57Q361 57 399 81Q437 105 457 147L516 107Q493 55 439.5 21.5Q386 -12 309 -12ZM304 462Q271 462 243 450Q215 438 194.5 417Q174 396 162.5 367.5Q151 339 151 305L151 298L447 298L447 309Q447 343 436.5 371Q426 399 407.5 419.5Q389 440 362.5 451Q336 462 304 462Z"/></g>
<g id="dieline" fill="none" stroke="#FF00FF" stroke-width="0.25">
    <rect x="0" y="0" width="130" height="200"/>
    <circle cx="65" cy="155" r="26.5" stroke-dasharray="2 1.4"/>
  </g>
</svg>