<?xml version="1.0" encoding="UTF-8"?>
<!-- D2 KRAFT HONEST — Bhajani chakli — stamp turmeric #F7AE00
     Seema pack-round2 label. Front panel 130 x 200 mm, 250 g stand-up pouch.
     ALL TEXT OUTLINED to paths (Fraunces var + IBM Plex Mono + IBM Plex Sans Devanagari).
     Layer "dieline" (magenta) = cutter guide, do not print. 3 mm bleed included on layer "bleed". -->
<svg xmlns="http://www.w3.org/2000/svg" width="130mm" height="200mm" viewBox="0 0 130 200">
<g id="bleed"><rect x="-3" y="-3" width="136" height="206" fill="#B9915F"/></g>
<rect x="11" y="14" width="108" height="118" fill="#F6EDDD"/>
<g fill="#2E1F16"><path transform="translate(34.000 46.000) scale(0.011427 -0.011427)" d="M608 -21Q517 -21 458 5.5Q399 32 366.5 58.5Q334 85 321 85Q314 85 297.5 68.5Q281 52 262.5 30Q244 8 227.5 -8.5Q211 -25 201 -25Q195 -25 188.5 -20Q182 -15 181 -8L106 430Q105 437 105.5 440Q106 443 108 444Q110 447 114 445Q118 443 120 438Q206 264 285 169Q364 74 438.5 36.5Q513 -1 585 -1Q693 -1 756.5 57Q820 115 820 229Q820 300 791 358.5Q762 417 694 466.5Q626 516 506 557Q348 614 253.5 682Q159 750 116.5 832.5Q74 915 74 1016Q74 1137 135 1227.5Q196 1318 302.5 1369Q409 1420 546 1420Q629 1420 683.5 1400Q738 1380 770 1360Q802 1340 817 1340Q830 1340 857.5 1361Q885 1382 911.5 1403Q938 1424 950 1424Q954 1424 958.5 1421.5Q963 1419 964 1411L1072 977Q1072 971 1072 968Q1072 965 1068 963Q1066 962 1063 964Q1060 966 1057 969Q964 1140 882 1233Q800 1326 722.5 1363.5Q645 1401 565 1401Q463 1401 397 1334.5Q331 1268 331 1152Q331 1079 358.5 1018.5Q386 958 451 908.5Q516 859 630 816Q795 757 890.5 690Q986 623 1026.5 544.5Q1067 466 1067 370Q1066 261 1012 172.5Q958 84 855.5 31.5Q753 -21 608 -21Z"/><path transform="translate(47.002 46.000) scale(0.011427 -0.011427)" d="M849 515Q849 506 843 500.5Q837 495 825 495L205 495L205 513L581 513Q599 513 599 532Q599 713 552.5 798Q506 883 442 883Q388 883 349 845.5Q310 808 287.5 730Q265 652 265 530Q265 323 351 221Q437 119 577 119Q682 119 752.5 176.5Q823 234 832 331Q832 335 833.5 336.5Q835 338 836 338Q839 338 841.5 336.5Q844 335 843 329Q838 229 786 150Q734 71 647.5 25.5Q561 -20 455 -20Q330 -20 234.5 35Q139 90 85.5 190Q32 290 32 423Q32 566 86.5 673Q141 780 239.5 840.5Q338 901 472 901Q587 901 671 850.5Q755 800 802 713Q849 626 849 515Z"/><path transform="translate(57.083 46.000) scale(0.011427 -0.011427)" d="M849 515Q849 506 843 500.5Q837 495 825 495L205 495L205 513L581 513Q599 513 599 532Q599 713 552.5 798Q506 883 442 883Q388 883 349 845.5Q310 808 287.5 730Q265 652 265 530Q265 323 351 221Q437 119 577 119Q682 119 752.5 176.5Q823 234 832 331Q832 335 833.5 336.5Q835 338 836 338Q839 338 841.5 336.5Q844 335 843 329Q838 229 786 150Q734 71 647.5 25.5Q561 -20 455 -20Q330 -20 234.5 35Q139 90 85.5 190Q32 290 32 423Q32 566 86.5 673Q141 780 239.5 840.5Q338 901 472 901Q587 901 671 850.5Q755 800 802 713Q849 626 849 515Z"/><path transform="translate(67.164 46.000) scale(0.011427 -0.011427)" d="M372 886L372 56Q372 42 378 34Q384 26 396 24L450 14Q460 12 460 7Q460 0 452 0L40 0Q38 0 35.5 2Q33 4 33 6Q33 9 35 10.5Q37 12 43 13L98 24Q111 26 116.5 34.5Q122 43 122 56L122 784Q122 790 119 793.5Q116 797 108 797L45 797Q40 797 38 799.5Q36 802 36 805Q36 808 38.5 809.5Q41 811 45 812L341 895Q350 898 354 898.5Q358 899 361 899Q367 899 369.5 895.5Q372 892 372 886ZM348 686L337 697L373 730Q478 823 561.5 861.5Q645 900 716 900Q814 900 877 839.5Q940 779 940 650L940 61Q940 46 947.5 35.5Q955 25 969 22L1017 14Q1027 12 1027 7Q1027 0 1018 0L605 0Q596 0 596 7Q596 12 607 14L662 24Q678 27 683.5 37Q689 47 689 61L689 625Q689 710 651.5 749.5Q614 789 549 789Q507 789 465.5 771.5Q424 754 383 718ZM908 686L897 697L933 730Q1038 823 1122 861.5Q1206 900 1277 900Q1375 900 1437.5 839.5Q1500 779 1500 650L1500 61Q1500 46 1507.5 36Q1515 26 1531 22L1577 13Q1583 13 1585 11Q1587 9 1587 6Q1587 4 1585 2Q1583 0 1579 0L1165 0Q1156 0 1156 7Q1156 12 1167 14L1222 24Q1238 27 1243.5 37Q1249 47 1249 61L1249 625Q1249 710 1211.5 749.5Q1174 789 1109 789Q1067 789 1025.5 771.5Q984 754 943 718Z"/><path transform="translate(85.502 46.000) scale(0.011427 -0.011427)" d="M558 93L558 102L545 92L545 744Q545 812 516.5 849Q488 886 435 886Q375 886 345.5 855.5Q316 825 316 786L316 702Q316 651 279 615Q242 579 185 579Q144 579 117.5 604Q91 629 91 678Q91 730 133.5 781.5Q176 833 259.5 866.5Q343 900 466 900Q633 900 715 830.5Q797 761 797 635L797 118Q797 84 809.5 68.5Q822 53 840 53Q857 53 871.5 64.5Q886 76 889 102Q889 106 891 107Q893 108 895 108Q897 108 898 107Q899 106 899 102Q899 83 881.5 54.5Q864 26 823.5 4Q783 -18 714 -18Q632 -18 595 13.5Q558 45 558 93ZM40 195Q40 304 131.5 371Q223 438 422 438Q482 438 520 426.5Q558 415 591 396L582 389Q549 405 515.5 414Q482 423 439 423Q368 423 329 373Q290 323 290 231Q290 143 327.5 97.5Q365 52 426 52Q465 52 504 72Q543 92 569 127L580 120Q537 53 460.5 17.5Q384 -18 295 -18Q182 -18 111 41.5Q40 101 40 195Z"/></g>
<g fill="#2E1F16"><path transform="translate(58.178 55.500) scale(0.007000 -0.007000)" d="M65 306L65 373L92 373Q143 373 174 405.5Q205 438 205 500L205 637L-20 637L-20 698L714 698L714 637L576 637L576 0L502 0L502 301L149 301L149 299L186 244L316 35L258 -6ZM213 361L289 364L502 364L502 637L279 637L279 509Q279 456 264.5 422.5Q250 389 213 364Z"/><path transform="translate(63.037 55.500) scale(0.007000 -0.007000)" d="M118 637L-20 637L-20 698L119 698L119 747Q119 803 91.5 832.5Q64 862 13 862Q-34 862 -67 836Q-100 810 -129 763L-186 800Q-155 855 -105 891.5Q-55 928 13 928Q55 928 88 915Q121 902 144 878.5Q167 855 179.5 821.5Q192 788 192 748L192 698L330 698L330 637L192 637L192 0L118 0Z"/><path transform="translate(65.207 55.500) scale(0.007000 -0.007000)" d="M161 221Q123 221 103 241.5Q83 262 83 298Q83 355 129 370L129 637L-20 637L-20 698L655 698L655 637L517 637L517 0L443 0L443 312L203 312L203 229Q187 221 161 221ZM203 637L203 375L443 375L443 637Z"/><path transform="translate(69.651 55.500) scale(0.007000 -0.007000)" d="M118 637L-20 637L-20 698L330 698L330 637L192 637L192 0L118 0Z"/></g>
<line x1="23" y1="62" x2="107" y2="62" stroke="#2E1F16" stroke-width="0.5"/>
<g fill="#2E1F16"><path transform="translate(21.000 78.000) scale(0.006934 -0.006934)" d="M1312 337Q1312 188 1184.5 94Q1057 0 808 0L126 0Q107 0 97.5 8Q88 16 88 28Q88 52 117 59L184 72Q207 78 218 89Q229 100 229 122L229 1285Q229 1302 218.5 1312.5Q208 1323 184 1328L117 1341Q88 1348 88 1372Q88 1384 97.5 1392Q107 1400 126 1400L642 1400Q830 1400 961.5 1349.5Q1093 1299 1162.5 1208Q1232 1117 1232 999Q1232 900 1176 822.5Q1120 745 1014 700Q908 655 756 655L805 676Q958 676 1071.5 632Q1185 588 1248.5 511.5Q1312 435 1312 337ZM697 631L463 631L463 683L690 683Q776 683 836 718Q896 753 926.5 820Q957 887 957 984Q957 1092 915 1172Q873 1252 795.5 1296Q718 1340 612 1340L522 1340L522 131Q522 94 545.5 77Q569 60 613 60L739 60Q828 60 890.5 95Q953 130 985 194.5Q1017 259 1017 344Q1017 475 935 553Q853 631 697 631Z"/><path transform="translate(30.446 78.000) scale(0.006934 -0.006934)" d="M396 683L367 713L404 747Q520 853 609 895Q698 937 775 937Q891 937 963 865Q1035 793 1035 658L1035 117Q1035 92 1043 79Q1051 66 1069 61L1110 52Q1123 48 1129 42Q1135 36 1135 25Q1135 14 1127 7Q1119 0 1101 0L707 0Q672 0 672 27Q672 44 694 52L740 62Q758 67 765.5 79.5Q773 92 773 117L773 625Q773 713 731.5 755Q690 797 621 797Q576 797 529 777.5Q482 758 434 716ZM422 1445L422 113Q422 90 429.5 78.5Q437 67 452 62L497 52Q519 44 519 27Q519 0 484 0L91 0Q75 0 66.5 7Q58 14 58 25Q58 36 64 42Q70 48 84 53L130 62Q146 68 153.5 78.5Q161 89 161 113L161 1308Q161 1325 155 1332.5Q149 1340 137 1342L78 1344Q66 1346 61 1352Q56 1358 56 1367Q56 1378 62 1384.5Q68 1391 84 1397L316 1469Q342 1478 355.5 1482Q369 1486 382 1486Q401 1486 411.5 1474.5Q422 1463 422 1445Z"/><path transform="translate(38.577 78.000) scale(0.006934 -0.006934)" d="M628 111L628 127L613 125L613 743Q613 814 579.5 852.5Q546 891 486 891Q425 891 393.5 862.5Q362 834 362 797L362 713Q362 657 324 623Q286 589 222 589Q170 589 141 616Q112 643 112 694Q112 752 159 808Q206 864 298.5 900.5Q391 937 527 937Q702 937 788 865.5Q874 794 874 667L874 148Q874 116 886 101.5Q898 87 917 87Q937 87 949.5 97.5Q962 108 968 125Q971 131 975 134.5Q979 138 985 138Q992 138 996 132Q1000 126 1000 117Q1000 90 979.5 57.5Q959 25 915.5 1.5Q872 -22 805 -22Q719 -22 673.5 14.5Q628 51 628 111ZM66 203Q66 320 168 392Q270 464 468 464Q531 464 577.5 452.5Q624 441 660 423L644 385Q611 401 575.5 410Q540 419 498 419Q418 419 374 372.5Q330 326 330 244Q330 164 370 121Q410 78 473 78Q521 78 566.5 100.5Q612 123 643 164L659 129Q609 56 523.5 17Q438 -22 342 -22Q219 -22 142.5 40.5Q66 103 66 203Z"/><path transform="translate(45.689 78.000) scale(0.006934 -0.006934)" d="M424 170Q424 110 438 60Q452 10 470 -36Q488 -82 503 -127.5Q518 -173 518 -223Q518 -331 443.5 -396Q369 -461 241 -461Q147 -461 82.5 -432.5Q18 -404 -15 -357.5Q-48 -311 -48 -255Q-48 -191 -15 -158.5Q18 -126 73 -126Q125 -126 157.5 -161.5Q190 -197 190 -256L190 -329Q190 -371 210 -392Q230 -413 267 -413Q314 -412 339 -384Q364 -356 364 -302Q364 -255 344 -212Q324 -169 293.5 -127.5Q263 -86 232.5 -45.5Q202 -5 182 38.5Q162 82 162 129L162 757Q162 774 156.5 781.5Q151 789 139 790L80 792Q68 795 63 800.5Q58 806 58 816Q58 826 64 832Q70 838 86 844L317 918Q344 926 358 929.5Q372 933 384 933Q403 933 413.5 922.5Q424 912 424 893ZM277 1075Q204 1075 160 1116.5Q116 1158 116 1222Q116 1286 160 1327Q204 1368 277 1368Q349 1368 393.5 1327Q438 1286 438 1222Q438 1158 393.5 1116.5Q349 1075 277 1075Z"/><path transform="translate(49.599 78.000) scale(0.006934 -0.006934)" d="M628 111L628 127L613 125L613 743Q613 814 579.5 852.5Q546 891 486 891Q425 891 393.5 862.5Q362 834 362 797L362 713Q362 657 324 623Q286 589 222 589Q170 589 141 616Q112 643 112 694Q112 752 159 808Q206 864 298.5 900.5Q391 937 527 937Q702 937 788 865.5Q874 794 874 667L874 148Q874 116 886 101.5Q898 87 917 87Q937 87 949.5 97.5Q962 108 968 125Q971 131 975 134.5Q979 138 985 138Q992 138 996 132Q1000 126 1000 117Q1000 90 979.5 57.5Q959 25 915.5 1.5Q872 -22 805 -22Q719 -22 673.5 14.5Q628 51 628 111ZM66 203Q66 320 168 392Q270 464 468 464Q531 464 577.5 452.5Q624 441 660 423L644 385Q611 401 575.5 410Q540 419 498 419Q418 419 374 372.5Q330 326 330 244Q330 164 370 121Q410 78 473 78Q521 78 566.5 100.5Q612 123 643 164L659 129Q609 56 523.5 17Q438 -22 342 -22Q219 -22 142.5 40.5Q66 103 66 203Z"/><path transform="translate(56.710 78.000) scale(0.006934 -0.006934)" d="M422 894L422 113Q422 90 429.5 78.5Q437 67 452 62L497 52Q519 44 519 27Q519 0 484 0L91 0Q75 0 66.5 7Q58 14 58 25Q58 35 64 41.5Q70 48 83 52L130 62Q146 68 153.5 78.5Q161 89 161 113L161 757Q161 774 155 781.5Q149 789 137 790L78 792Q66 795 61 800.5Q56 806 56 816Q56 826 62 832Q68 838 84 844L316 918Q342 926 355.5 929.5Q369 933 382 933Q401 933 411.5 922.5Q422 912 422 894ZM396 683L367 713L404 747Q520 853 609 895Q698 937 775 937Q891 937 963 865Q1035 793 1035 658L1035 117Q1035 92 1043 79Q1051 66 1069 61L1110 52Q1123 48 1129 42Q1135 36 1135 25Q1135 14 1127 7Q1119 0 1101 0L707 0Q672 0 672 27Q672 44 694 52L740 62Q758 67 765.5 79.5Q773 92 773 117L773 625Q773 713 731.5 755Q690 797 621 797Q576 797 529 777.5Q482 758 434 716Z"/><path transform="translate(64.842 78.000) scale(0.006934 -0.006934)" d="M424 894L424 113Q424 90 431.5 78.5Q439 67 454 62L500 52Q513 49 519 42.5Q525 36 525 25Q525 14 516.5 7Q508 0 491 0L93 0Q77 0 68.5 7Q60 14 60 25Q60 35 66 41.5Q72 48 84 52L132 62Q148 68 155 78.5Q162 89 162 113L162 757Q162 774 156.5 781.5Q151 789 139 790L80 792Q68 795 63 800.5Q58 806 58 816Q58 826 64 832Q70 838 86 844L318 918Q343 926 357.5 929.5Q372 933 383 933Q404 933 414 922.5Q424 912 424 894ZM280 1075Q206 1075 162 1116.5Q118 1158 118 1222Q118 1286 162 1327Q206 1368 280 1368Q352 1368 397 1327Q442 1286 442 1222Q442 1158 397 1116.5Q352 1075 280 1075Z"/><path transform="translate(71.407 78.000) scale(0.006934 -0.006934)" d="M903 680Q903 625 868 589.5Q833 554 772 554Q713 554 680.5 588Q648 622 648 682L648 733Q648 798 609.5 836.5Q571 875 507 875Q446 875 398.5 835.5Q351 796 324.5 722.5Q298 649 298 547Q298 418 337.5 330Q377 242 447.5 196Q518 150 609 150Q696 150 761 187.5Q826 225 856 300Q867 313 873 317Q879 321 886 321Q896 320 901 312Q906 304 904 290Q893 199 840 128.5Q787 58 701 18Q615 -22 504 -22Q374 -22 273 32.5Q172 87 113.5 190.5Q55 294 55 438Q55 580 115 693.5Q175 807 283 872.5Q391 938 536 938Q651 938 733 903.5Q815 869 859 810.5Q903 752 903 680Z"/><path transform="translate(78.014 78.000) scale(0.006934 -0.006934)" d="M396 683L367 713L404 747Q520 853 609 895Q698 937 775 937Q891 937 963 865Q1035 793 1035 658L1035 117Q1035 92 1043 79Q1051 66 1069 61L1110 52Q1123 48 1129 42Q1135 36 1135 25Q1135 14 1127 7Q1119 0 1101 0L707 0Q672 0 672 27Q672 44 694 52L740 62Q758 67 765.5 79.5Q773 92 773 117L773 625Q773 713 731.5 755Q690 797 621 797Q576 797 529 777.5Q482 758 434 716ZM422 1445L422 113Q422 90 429.5 78.5Q437 67 452 62L497 52Q519 44 519 27Q519 0 484 0L91 0Q75 0 66.5 7Q58 14 58 25Q58 36 64 42Q70 48 84 53L130 62Q146 68 153.5 78.5Q161 89 161 113L161 1308Q161 1325 155 1332.5Q149 1340 137 1342L78 1344Q66 1346 61 1352Q56 1358 56 1367Q56 1378 62 1384.5Q68 1391 84 1397L316 1469Q342 1478 355.5 1482Q369 1486 382 1486Q401 1486 411.5 1474.5Q422 1463 422 1445Z"/><path transform="translate(86.145 78.000) scale(0.006934 -0.006934)" d="M628 111L628 127L613 125L613 743Q613 814 579.5 852.5Q546 891 486 891Q425 891 393.5 862.5Q362 834 362 797L362 713Q362 657 324 623Q286 589 222 589Q170 589 141 616Q112 643 112 694Q112 752 159 808Q206 864 298.5 900.5Q391 937 527 937Q702 937 788 865.5Q874 794 874 667L874 148Q874 116 886 101.5Q898 87 917 87Q937 87 949.5 97.5Q962 108 968 125Q971 131 975 134.5Q979 138 985 138Q992 138 996 132Q1000 126 1000 117Q1000 90 979.5 57.5Q959 25 915.5 1.5Q872 -22 805 -22Q719 -22 673.5 14.5Q628 51 628 111ZM66 203Q66 320 168 392Q270 464 468 464Q531 464 577.5 452.5Q624 441 660 423L644 385Q611 401 575.5 410Q540 419 498 419Q418 419 374 372.5Q330 326 330 244Q330 164 370 121Q410 78 473 78Q521 78 566.5 100.5Q612 123 643 164L659 129Q609 56 523.5 17Q438 -22 342 -22Q219 -22 142.5 40.5Q66 103 66 203Z"/><path transform="translate(93.256 78.000) scale(0.006934 -0.006934)" d="M89 0Q73 0 65.5 7Q58 14 58 25Q58 36 64 42Q70 48 84 53L130 62Q146 68 153.5 78.5Q161 89 161 113L161 1308Q161 1325 155 1332.5Q149 1340 137 1342L78 1344Q66 1346 61 1352Q56 1358 56 1367Q56 1378 62 1384.5Q68 1391 84 1397L316 1469Q342 1478 355.5 1482Q369 1486 382 1486Q401 1486 411.5 1474.5Q422 1463 422 1445L422 113Q422 90 429.5 78.5Q437 67 452 62L497 52Q519 44 519 27Q519 0 484 0ZM359 389L759 749Q798 783 790.5 813.5Q783 844 736 856L700 865Q687 868 681.5 874.5Q676 881 676 890Q676 902 685 909Q694 916 709 916L1063 916Q1078 916 1086.5 909Q1095 902 1095 891Q1095 879 1088 871.5Q1081 864 1057 859Q995 845 943.5 817Q892 789 834 736L381 336ZM685 652L1026 118Q1046 88 1063 76Q1080 64 1109 54Q1124 48 1130.5 40.5Q1137 33 1137 24Q1137 13 1128.5 6.5Q1120 0 1104 0L685 0Q671 0 663 7Q655 14 655 25Q655 34 659.5 39.5Q664 45 677 49L714 57Q740 63 743.5 78Q747 93 727 123L505 482Z"/><path transform="translate(101.126 78.000) scale(0.006934 -0.006934)" d="M426 1445L426 113Q426 90 434 78.5Q442 67 457 62L502 52Q516 49 522 42.5Q528 36 528 25Q528 14 519.5 7Q511 0 494 0L96 0Q80 0 71.5 7Q63 14 63 25Q63 36 69 42Q75 48 88 53L135 62Q150 68 157.5 78.5Q165 89 165 113L165 1308Q165 1325 159.5 1332.5Q154 1340 141 1342L82 1344Q71 1346 65.5 1352Q60 1358 60 1367Q60 1378 66.5 1384.5Q73 1391 89 1397L320 1469Q346 1479 360.5 1482.5Q375 1486 386 1486Q407 1486 416.5 1474.5Q426 1463 426 1445Z"/><path transform="translate(105.090 78.000) scale(0.006934 -0.006934)" d="M424 894L424 113Q424 90 431.5 78.5Q439 67 454 62L500 52Q513 49 519 42.5Q525 36 525 25Q525 14 516.5 7Q508 0 491 0L93 0Q77 0 68.5 7Q60 14 60 25Q60 35 66 41.5Q72 48 84 52L132 62Q148 68 155 78.5Q162 89 162 113L162 757Q162 774 156.5 781.5Q151 789 139 790L80 792Q68 795 63 800.5Q58 806 58 816Q58 826 64 832Q70 838 86 844L318 918Q343 926 357.5 929.5Q372 933 383 933Q404 933 414 922.5Q424 912 424 894ZM280 1075Q206 1075 162 1116.5Q118 1158 118 1222Q118 1286 162 1327Q206 1368 280 1368Q352 1368 397 1327Q442 1286 442 1222Q442 1158 397 1116.5Q352 1075 280 1075Z"/></g>
<g fill="#2E1F16"><path transform="translate(29.900 88.000) scale(0.003900 -0.003900)" d="M98 0L98 516L178 516L178 432L182 432Q190 451 202 468.5Q214 486 231.5 499Q249 512 273 520Q297 528 329 528Q410 528 459 476.5Q508 425 508 331L508 0L428 0L428 317Q428 388 397 422.5Q366 457 306 457Q282 457 259 451Q236 445 218 433Q200 421 189 402Q178 383 178 358L178 0Z"/><path transform="translate(32.240 88.000) scale(0.003900 -0.003900)" d="M300 -12Q246 -12 202.5 7Q159 26 128.5 61.5Q98 97 82 146.5Q66 196 66 258Q66 319 82 369Q98 419 128.5 454.5Q159 490 202.5 509Q246 528 300 528Q354 528 397.5 509Q441 490 471.5 454.5Q502 419 518 369Q534 319 534 258Q534 196 518 146.5Q502 97 471.5 61.5Q441 26 397.5 7Q354 -12 300 -12ZM300 57Q367 57 408 97Q449 137 449 221L449 295Q449 379 408 419Q367 459 300 459Q233 459 192 419Q151 379 151 295L151 221Q151 137 192 97Q233 57 300 57Z"/><path transform="translate(36.920 88.000) scale(0.003900 -0.003900)" d="M95 516L175 516L175 432L179 432Q229 528 338 528Q433 528 486.5 457Q540 386 540 258Q540 130 486.5 59Q433 -12 338 -12Q229 -12 179 84L175 84L175 -200L95 -200ZM307 59Q377 59 415.5 101.5Q454 144 454 214L454 302Q454 372 415.5 414.5Q377 457 307 457Q280 457 256 450Q232 443 214 429.5Q196 416 185.5 396.5Q175 377 175 351L175 165Q175 139 185.5 119.5Q196 100 214 86.5Q232 73 256 66Q280 59 307 59Z"/><path transform="translate(39.260 88.000) scale(0.003900 -0.003900)" d="M495 0Q448 0 428 24Q408 48 403 84L398 84Q381 39 343.5 13.5Q306 -12 243 -12Q162 -12 114 30Q66 72 66 145Q66 217 118.5 256Q171 295 288 295L398 295L398 346Q398 403 366 431.5Q334 460 275 460Q223 460 190 439.5Q157 419 137 384L83 424Q93 444 110 463Q127 482 152 496.5Q177 511 209 519.5Q241 528 280 528Q371 528 424.5 482Q478 436 478 354L478 70L550 70L550 0ZM257 55Q288 55 313.5 62.5Q339 70 358 82.5Q377 95 387.5 112.5Q398 130 398 150L398 235L288 235Q216 235 183 215Q150 195 150 157L150 136Q150 96 178.5 75.5Q207 55 257 55Z"/><path transform="translate(41.600 88.000) scale(0.003900 -0.003900)" d="M80 68L260 68L260 672L80 672L80 740L340 740L340 68L520 68L520 0L80 0Z"/><path transform="translate(43.940 88.000) scale(0.003900 -0.003900)" d="M54 0L54 516L128 516L128 456L132 456Q144 486 166 507Q188 528 231 528Q276 528 298 505.5Q320 483 325 447L328 447Q342 482 368 505Q394 528 440 528Q503 528 524.5 484Q546 440 546 358L546 0L472 0L472 345Q472 411 458.5 436.5Q445 462 409 462Q377 462 357 441.5Q337 421 337 379L337 0L263 0L263 345Q263 411 249.5 436.5Q236 462 201 462Q169 462 148.5 441.5Q128 421 128 379L128 0Z"/><path transform="translate(48.620 88.000) scale(0.003900 -0.003900)" d="M300 -12Q246 -12 202.5 7Q159 26 128.5 61.5Q98 97 82 146.5Q66 196 66 258Q66 319 82 369Q98 419 128.5 454.5Q159 490 202.5 509Q246 528 300 528Q354 528 397.5 509Q441 490 471.5 454.5Q502 419 518 369Q534 319 534 258Q534 196 518 146.5Q502 97 471.5 61.5Q441 26 397.5 7Q354 -12 300 -12ZM300 57Q367 57 408 97Q449 137 449 221L449 295Q449 379 408 419Q367 459 300 459Q233 459 192 419Q151 379 151 295L151 221Q151 137 192 97Q233 57 300 57Z"/><path transform="translate(50.960 88.000) scale(0.003900 -0.003900)" d="M332 630Q297 630 283 644.5Q269 659 269 681L269 697Q269 719 283 733.5Q297 748 332 748Q367 748 381 733.5Q395 719 395 697L395 681Q395 659 381 644.5Q367 630 332 630ZM106 68L292 68L292 448L106 448L106 516L372 516L372 68L546 68L546 0L106 0Z"/><path transform="translate(53.300 88.000) scale(0.003900 -0.003900)" d="M80 68L260 68L260 672L80 672L80 740L340 740L340 68L520 68L520 0L80 0Z"/><path transform="translate(57.980 88.000) scale(0.003900 -0.003900)" d="M300 235Q259 235 242.5 252Q226 269 226 295L226 313Q226 339 242.5 356Q259 373 300 373Q341 373 357.5 356Q374 339 374 313L374 295Q374 269 357.5 252Q341 235 300 235Z"/><path transform="translate(62.660 88.000) scale(0.003900 -0.003900)" d="M98 0L98 516L178 516L178 432L182 432Q190 451 202 468.5Q214 486 231.5 499Q249 512 273 520Q297 528 329 528Q410 528 459 476.5Q508 425 508 331L508 0L428 0L428 317Q428 388 397 422.5Q366 457 306 457Q282 457 259 451Q236 445 218 433Q200 421 189 402Q178 383 178 358L178 0Z"/><path transform="translate(65.000 88.000) scale(0.003900 -0.003900)" d="M300 -12Q246 -12 202.5 7Q159 26 128.5 61.5Q98 97 82 146.5Q66 196 66 258Q66 319 82 369Q98 419 128.5 454.5Q159 490 202.5 509Q246 528 300 528Q354 528 397.5 509Q441 490 471.5 454.5Q502 419 518 369Q534 319 534 258Q534 196 518 146.5Q502 97 471.5 61.5Q441 26 397.5 7Q354 -12 300 -12ZM300 57Q367 57 408 97Q449 137 449 221L449 295Q449 379 408 419Q367 459 300 459Q233 459 192 419Q151 379 151 295L151 221Q151 137 192 97Q233 57 300 57Z"/><path transform="translate(69.680 88.000) scale(0.003900 -0.003900)" d="M95 516L175 516L175 432L179 432Q229 528 338 528Q433 528 486.5 457Q540 386 540 258Q540 130 486.5 59Q433 -12 338 -12Q229 -12 179 84L175 84L175 -200L95 -200ZM307 59Q377 59 415.5 101.5Q454 144 454 214L454 302Q454 372 415.5 414.5Q377 457 307 457Q280 457 256 450Q232 443 214 429.5Q196 416 185.5 396.5Q175 377 175 351L175 165Q175 139 185.5 119.5Q196 100 214 86.5Q232 73 256 66Q280 59 307 59Z"/><path transform="translate(72.020 88.000) scale(0.003900 -0.003900)" d="M77 68L228 68L228 448L77 448L77 516L308 516L308 386L313 386Q329 447 373.5 481.5Q418 516 487 516L559 516L559 436L462 436Q393 436 350.5 396Q308 356 308 291L308 68L508 68L508 0L77 0Z"/><path transform="translate(74.360 88.000) scale(0.003900 -0.003900)" d="M309 -12Q253 -12 208.5 7Q164 26 132.5 61.5Q101 97 84 146.5Q67 196 67 257Q67 319 84.5 369Q102 419 133 454.5Q164 490 207.5 509Q251 528 304 528Q356 528 398.5 509Q441 490 471 456.5Q501 423 517 377Q533 331 533 276L533 238L151 238L151 214Q151 180 162 151Q173 122 193.5 101Q214 80 243.5 68.5Q273 57 309 57Q361 57 399 81Q437 105 457 147L516 107Q493 55 439.5 21.5Q386 -12 309 -12ZM304 462Q271 462 243 450Q215 438 194.5 417Q174 396 162.5 367.5Q151 339 151 305L151 298L447 298L447 309Q447 343 436.5 371Q426 399 407.5 419.5Q389 440 362.5 451Q336 462 304 462Z"/><path transform="translate(76.700 88.000) scale(0.003900 -0.003900)" d="M306 -12Q225 -12 166.5 15.5Q108 43 67 89L121 136Q158 97 202 76Q246 55 308 55Q368 55 406.5 76.5Q445 98 445 144Q445 164 437.5 177.5Q430 191 417 199Q404 207 388 211.5Q372 216 354 219L273 231Q246 235 214.5 242Q183 249 157 264.5Q131 280 113.5 306Q96 332 96 374Q96 413 111.5 441.5Q127 470 155 489.5Q183 509 221 518.5Q259 528 304 528Q374 528 425.5 506Q477 484 514 445L462 396Q453 407 439.5 418.5Q426 430 406.5 439.5Q387 449 361 455Q335 461 301 461Q240 461 207.5 440Q175 419 175 379Q175 359 182.5 345.5Q190 332 203 324Q216 316 232.5 311.5Q249 307 266 304L347 292Q375 288 406 281Q437 274 463 258.5Q489 243 506.5 217Q524 191 524 149Q524 72 464.5 30Q405 -12 306 -12Z"/><path transform="translate(79.040 88.000) scale(0.003900 -0.003900)" d="M309 -12Q253 -12 208.5 7Q164 26 132.5 61.5Q101 97 84 146.5Q67 196 67 257Q67 319 84.5 369Q102 419 133 454.5Q164 490 207.5 509Q251 528 304 528Q356 528 398.5 509Q441 490 471 456.5Q501 423 517 377Q533 331 533 276L533 238L151 238L151 214Q151 180 162 151Q173 122 193.5 101Q214 80 243.5 68.5Q273 57 309 57Q361 57 399 81Q437 105 457 147L516 107Q493 55 439.5 21.5Q386 -12 309 -12ZM304 462Q271 462 243 450Q215 438 194.5 417Q174 396 162.5 367.5Q151 339 151 305L151 298L447 298L447 309Q447 343 436.5 371Q426 399 407.5 419.5Q389 440 362.5 451Q336 462 304 462Z"/><path transform="translate(81.380 88.000) scale(0.003900 -0.003900)" d="M77 68L228 68L228 448L77 448L77 516L308 516L308 386L313 386Q329 447 373.5 481.5Q418 516 487 516L559 516L559 436L462 436Q393 436 350.5 396Q308 356 308 291L308 68L508 68L508 0L77 0Z"/><path transform="translate(83.720 88.000) scale(0.003900 -0.003900)" d="M249 0L64 516L145 516L219 300L299 67L303 67L383 300L457 516L536 516L351 0Z"/><path transform="translate(86.060 88.000) scale(0.003900 -0.003900)" d="M495 0Q448 0 428 24Q408 48 403 84L398 84Q381 39 343.5 13.5Q306 -12 243 -12Q162 -12 114 30Q66 72 66 145Q66 217 118.5 256Q171 295 288 295L398 295L398 346Q398 403 366 431.5Q334 460 275 460Q223 460 190 439.5Q157 419 137 384L83 424Q93 444 110 463Q127 482 152 496.5Q177 511 209 519.5Q241 528 280 528Q371 528 424.5 482Q478 436 478 354L478 70L550 70L550 0ZM257 55Q288 55 313.5 62.5Q339 70 358 82.5Q377 95 387.5 112.5Q398 130 398 150L398 235L288 235Q216 235 183 215Q150 195 150 157L150 136Q150 96 178.5 75.5Q207 55 257 55Z"/><path transform="translate(88.400 88.000) scale(0.003900 -0.003900)" d="M325 0Q266 0 238.5 33Q211 66 211 118L211 448L39 448L39 516L167 516Q193 516 203.5 526.5Q214 537 214 563L214 698L291 698L291 516L526 516L526 448L291 448L291 68L526 68L526 0Z"/><path transform="translate(90.740 88.000) scale(0.003900 -0.003900)" d="M332 630Q297 630 283 644.5Q269 659 269 681L269 697Q269 719 283 733.5Q297 748 332 748Q367 748 381 733.5Q395 719 395 697L395 681Q395 659 381 644.5Q367 630 332 630ZM106 68L292 68L292 448L106 448L106 516L372 516L372 68L546 68L546 0L106 0Z"/><path transform="translate(93.080 88.000) scale(0.003900 -0.003900)" d="M249 0L64 516L145 516L219 300L299 67L303 67L383 300L457 516L536 516L351 0Z"/><path transform="translate(95.420 88.000) scale(0.003900 -0.003900)" d="M309 -12Q253 -12 208.5 7Q164 26 132.5 61.5Q101 97 84 146.5Q67 196 67 257Q67 319 84.5 369Q102 419 133 454.5Q164 490 207.5 509Q251 528 304 528Q356 528 398.5 509Q441 490 471 456.5Q501 423 517 377Q533 331 533 276L533 238L151 238L151 214Q151 180 162 151Q173 122 193.5 101Q214 80 243.5 68.5Q273 57 309 57Q361 57 399 81Q437 105 457 147L516 107Q493 55 439.5 21.5Q386 -12 309 -12ZM304 462Q271 462 243 450Q215 438 194.5 417Q174 396 162.5 367.5Q151 339 151 305L151 298L447 298L447 309Q447 343 436.5 371Q426 399 407.5 419.5Q389 440 362.5 451Q336 462 304 462Z"/><path transform="translate(97.760 88.000) scale(0.003900 -0.003900)" d="M306 -12Q225 -12 166.5 15.5Q108 43 67 89L121 136Q158 97 202 76Q246 55 308 55Q368 55 406.5 76.5Q445 98 445 144Q445 164 437.5 177.5Q430 191 417 199Q404 207 388 211.5Q372 216 354 219L273 231Q246 235 214.5 242Q183 249 157 264.5Q131 280 113.5 306Q96 332 96 374Q96 413 111.5 441.5Q127 470 155 489.5Q183 509 221 518.5Q259 528 304 528Q374 528 425.5 506Q477 484 514 445L462 396Q453 407 439.5 418.5Q426 430 406.5 439.5Q387 449 361 455Q335 461 301 461Q240 461 207.5 440Q175 419 175 379Q175 359 182.5 345.5Q190 332 203 324Q216 316 232.5 311.5Q249 307 266 304L347 292Q375 288 406 281Q437 274 463 258.5Q489 243 506.5 217Q524 191 524 149Q524 72 464.5 30Q405 -12 306 -12Z"/></g>
<g fill="#2E1F16"><path transform="translate(59.150 94.500) scale(0.003900 -0.003900)" d="M537 0L71 0L71 86L304 296Q355 342 388 390.5Q421 439 421 493L421 505Q421 568 388 602.5Q355 637 290 637Q226 637 191.5 604.5Q157 572 140 518L65 546Q75 577 92.5 606.5Q110 636 137 659Q164 682 202.5 696Q241 710 292 710Q344 710 384.5 695Q425 680 452.5 653Q480 626 494.5 589Q509 552 509 508Q509 468 497.5 433Q486 398 465.5 366Q445 334 416.5 303.5Q388 273 353 243L158 73L537 73Z"/><path transform="translate(61.490 94.500) scale(0.003900 -0.003900)" d="M501 625L189 625L169 358L176 358Q202 393 234 413.5Q266 434 322 434Q368 434 406.5 419.5Q445 405 473 377Q501 349 517 309.5Q533 270 533 219Q533 168 517 125.5Q501 83 470 52.5Q439 22 395 5Q351 -12 295 -12Q251 -12 216.5 -2Q182 8 155.5 25Q129 42 109 63Q89 84 73 107L136 155Q150 134 164.5 117Q179 100 198 87.5Q217 75 241 68Q265 61 297 61Q369 61 407.5 100Q446 139 446 208L446 216Q446 285 407 324Q368 363 295 363Q245 363 217.5 346Q190 329 167 304L96 314L121 698L501 698Z"/><path transform="translate(63.830 94.500) scale(0.003900 -0.003900)" d="M300 -12Q236 -12 190 12.5Q144 37 114 83Q84 129 70 196Q56 263 56 349Q56 434 70 501.5Q84 569 114 615Q144 661 190 685.5Q236 710 300 710Q364 710 410 685.5Q456 661 486 615Q516 569 530 501.5Q544 434 544 349Q544 263 530 196Q516 129 486 83Q456 37 410 12.5Q364 -12 300 -12ZM300 61Q342 61 372 77.5Q402 94 420.5 124Q439 154 448 196.5Q457 239 457 292L457 406Q457 458 448 501Q439 544 420.5 574Q402 604 372 620.5Q342 637 300 637Q258 637 228 620.5Q198 604 179.5 574Q161 544 152 501Q143 458 143 406L143 292Q143 239 152 196.5Q161 154 179.5 124Q198 94 228 77.5Q258 61 300 61ZM300 290Q265 290 251.5 304Q238 318 238 338L238 360Q238 380 251.5 394Q265 408 300 408Q335 408 348.5 394Q362 380 362 360L362 338Q362 318 348.5 304Q335 290 300 290Z"/><path transform="translate(68.510 94.500) scale(0.003900 -0.003900)" d="M561 -59Q561 -137 496 -174.5Q431 -212 301 -212Q176 -212 121.5 -179Q67 -146 67 -84Q67 -42 89 -19Q111 4 151 15L151 27Q129 38 117 55Q105 72 105 98Q105 138 131.5 158Q158 178 198 188L198 192Q150 213 123.5 254Q97 295 97 350Q97 389 111 422Q125 455 151.5 478.5Q178 502 215 515Q252 528 297 528Q355 528 399 507L399 516Q399 546 413 566Q427 586 461 586L556 586L556 516L440 516L440 481Q468 457 483 424Q498 391 498 350Q498 311 483.5 278Q469 245 443 221.5Q417 198 379.5 185Q342 172 297 172Q284 172 272 173Q260 174 248 176Q236 174 223 169.5Q210 165 199 157.5Q188 150 181 140Q174 130 174 117Q174 94 197 86.5Q220 79 257 79L371 79Q471 79 516 41.5Q561 4 561 -59ZM486 -63Q486 -32 461 -13.5Q436 5 374 5L195 5Q143 -16 143 -65Q143 -99 170 -123.5Q197 -148 260 -148L338 -148Q408 -148 447 -126.5Q486 -105 486 -63ZM297 234Q357 234 385.5 262Q414 290 414 336L414 365Q414 411 385.5 438.5Q357 466 297 466Q237 466 209 438.5Q181 411 181 365L181 336Q181 290 209 262Q237 234 297 234Z"/></g>
<g fill="#2E1F16"><path transform="translate(23.000 112.000) scale(0.003600 -0.003600)" d="M79 740L188 740L188 428L194 428Q217 475 255 501.5Q293 528 350 528Q441 528 495 460Q549 392 549 258Q549 124 495 56Q441 -12 350 -12Q293 -12 255 14.5Q217 41 194 88L188 88L188 0L79 0ZM305 77Q367 77 400.5 115Q434 153 434 216L434 300Q434 363 400.5 401Q367 439 305 439Q281 439 260 433Q239 427 223 415Q207 403 197.5 385.5Q188 368 188 344L188 172Q188 148 197.5 130.5Q207 113 223 101Q239 89 260 83Q281 77 305 77Z"/><path transform="translate(25.160 112.000) scale(0.003600 -0.003600)" d="M492 0Q445 0 421.5 24Q398 48 393 87L388 87Q373 40 333.5 14Q294 -12 233 -12Q154 -12 107 29.5Q60 71 60 144Q60 219 115.5 258.5Q171 298 286 298L385 298L385 338Q385 443 274 443Q224 443 193 423.5Q162 404 141 372L76 425Q98 467 150 497.5Q202 528 284 528Q382 528 438 481Q494 434 494 345L494 86L559 86L559 0ZM264 68Q317 68 351 92Q385 116 385 154L385 229L288 229Q170 229 170 158L170 138Q170 103 195 85.5Q220 68 264 68Z"/><path transform="translate(27.320 112.000) scale(0.003600 -0.003600)" d="M331 0Q263 0 231 36.5Q199 73 199 131L199 428L40 428L40 516L153 516Q182 516 194 527.5Q206 539 206 569L206 698L308 698L308 516L528 516L528 428L308 428L308 88L528 88L528 0Z"/><path transform="translate(29.480 112.000) scale(0.003600 -0.003600)" d="M319 -12Q261 -12 215.5 7Q170 26 138.5 61Q107 96 90.5 146Q74 196 74 258Q74 320 90.5 370Q107 420 138.5 455Q170 490 215.5 509Q261 528 318 528Q398 528 446.5 494Q495 460 519 406L434 360Q420 396 391.5 417Q363 438 318 438Q256 438 222 400.5Q188 363 188 301L188 215Q188 154 222 116Q256 78 320 78Q368 78 398.5 100Q429 122 447 160L527 111Q502 57 451 22.5Q400 -12 319 -12Z"/><path transform="translate(31.640 112.000) scale(0.003600 -0.003600)" d="M84 740L193 740L193 428L198 428Q206 448 218.5 466.5Q231 485 249 498.5Q267 512 291 520Q315 528 347 528Q425 528 473 477Q521 426 521 332L521 0L412 0L412 316Q412 439 305 439Q284 439 264 433.5Q244 428 228 417Q212 406 202.5 389Q193 372 193 350L193 0L84 0Z"/><path transform="translate(35.960 112.000) scale(0.003600 -0.003600)" d="M362 0L362 136L30 136L30 232L322 698L469 698L469 224L567 224L567 136L469 136L469 0ZM125 224L362 224L362 595L356 595Z"/><path transform="translate(38.120 112.000) scale(0.003600 -0.003600)" d="M169 0L428 605L156 605L156 476L59 476L59 698L540 698L540 600L288 0Z"/><path transform="translate(42.440 112.000) scale(0.003600 -0.003600)" d="M300 222Q252 222 232.5 242Q213 262 213 291L213 317Q213 346 232.5 366Q252 386 300 386Q348 386 367.5 366Q387 346 387 317L387 291Q387 262 367.5 242Q348 222 300 222Z"/><path transform="translate(46.760 112.000) scale(0.003600 -0.003600)" d="M79 516L188 516L188 428L194 428Q217 475 255 501.5Q293 528 350 528Q441 528 495 460Q549 392 549 258Q549 124 495 56Q441 -12 350 -12Q293 -12 255 14.5Q217 41 194 88L188 88L188 -200L79 -200ZM305 77Q367 77 400.5 115Q434 153 434 216L434 300Q434 363 400.5 401Q367 439 305 439Q281 439 260 433Q239 427 223 415Q207 403 197.5 385.5Q188 368 188 344L188 172Q188 148 197.5 130.5Q207 113 223 101Q239 89 260 83Q281 77 305 77Z"/><path transform="translate(48.920 112.000) scale(0.003600 -0.003600)" d="M492 0Q445 0 421.5 24Q398 48 393 87L388 87Q373 40 333.5 14Q294 -12 233 -12Q154 -12 107 29.5Q60 71 60 144Q60 219 115.5 258.5Q171 298 286 298L385 298L385 338Q385 443 274 443Q224 443 193 423.5Q162 404 141 372L76 425Q98 467 150 497.5Q202 528 284 528Q382 528 438 481Q494 434 494 345L494 86L559 86L559 0ZM264 68Q317 68 351 92Q385 116 385 154L385 229L288 229Q170 229 170 158L170 138Q170 103 195 85.5Q220 68 264 68Z"/><path transform="translate(51.080 112.000) scale(0.003600 -0.003600)" d="M319 -12Q261 -12 215.5 7Q170 26 138.5 61Q107 96 90.5 146Q74 196 74 258Q74 320 90.5 370Q107 420 138.5 455Q170 490 215.5 509Q261 528 318 528Q398 528 446.5 494Q495 460 519 406L434 360Q420 396 391.5 417Q363 438 318 438Q256 438 222 400.5Q188 363 188 301L188 215Q188 154 222 116Q256 78 320 78Q368 78 398.5 100Q429 122 447 160L527 111Q502 57 451 22.5Q400 -12 319 -12Z"/><path transform="translate(53.240 112.000) scale(0.003600 -0.003600)" d="M88 740L197 740L197 293L202 293L283 376L428 516L557 516L348 313L580 0L449 0L269 251L197 184L197 0L88 0Z"/><path transform="translate(55.400 112.000) scale(0.003600 -0.003600)" d="M311 -12Q252 -12 205 7Q158 26 126 61Q94 96 77 145.5Q60 195 60 257Q60 319 77.5 369Q95 419 126.5 454.5Q158 490 203 509Q248 528 303 528Q357 528 401 509.5Q445 491 476 457Q507 423 523.5 376Q540 329 540 272L540 231L170 231L170 214Q170 153 208 114.5Q246 76 313 76Q363 76 398.5 97.5Q434 119 456 155L524 95Q498 50 444.5 19Q391 -12 311 -12ZM303 445Q274 445 249.5 435Q225 425 207.5 406.5Q190 388 180 363Q170 338 170 308L170 301L429 301L429 311Q429 372 394.5 408.5Q360 445 303 445Z"/><path transform="translate(57.560 112.000) scale(0.003600 -0.003600)" d="M412 88L406 88Q383 41 345 14.5Q307 -12 250 -12Q159 -12 105 56Q51 124 51 258Q51 392 105 460Q159 528 250 528Q307 528 345 501.5Q383 475 406 428L412 428L412 740L521 740L521 0L412 0ZM295 77Q319 77 340 83Q361 89 377 101Q393 113 402.5 130.5Q412 148 412 172L412 344Q412 368 402.5 385.5Q393 403 377 415Q361 427 340 433Q319 439 295 439Q233 439 199.5 401Q166 363 166 300L166 216Q166 153 199.5 115Q233 77 295 77Z"/><path transform="translate(61.880 112.000) scale(0.003600 -0.003600)" d="M79 740L188 740L188 428L194 428Q217 475 255 501.5Q293 528 350 528Q441 528 495 460Q549 392 549 258Q549 124 495 56Q441 -12 350 -12Q293 -12 255 14.5Q217 41 194 88L188 88L188 0L79 0ZM305 77Q367 77 400.5 115Q434 153 434 216L434 300Q434 363 400.5 401Q367 439 305 439Q281 439 260 433Q239 427 223 415Q207 403 197.5 385.5Q188 368 188 344L188 172Q188 148 197.5 130.5Q207 113 223 101Q239 89 260 83Q281 77 305 77Z"/><path transform="translate(64.040 112.000) scale(0.003600 -0.003600)" d="M451 516L561 516L311 -100Q291 -150 258.5 -175Q226 -200 165 -200L78 -200L78 -112L200 -112L247 7L39 516L153 516L235 300L299 123L305 123L369 300Z"/><path transform="translate(68.360 112.000) scale(0.003600 -0.003600)" d="M84 740L193 740L193 428L198 428Q206 448 218.5 466.5Q231 485 249 498.5Q267 512 291 520Q315 528 347 528Q425 528 473 477Q521 426 521 332L521 0L412 0L412 316Q412 439 305 439Q284 439 264 433.5Q244 428 228 417Q212 406 202.5 389Q193 372 193 350L193 0L84 0Z"/><path transform="translate(70.520 112.000) scale(0.003600 -0.003600)" d="M492 0Q445 0 421.5 24Q398 48 393 87L388 87Q373 40 333.5 14Q294 -12 233 -12Q154 -12 107 29.5Q60 71 60 144Q60 219 115.5 258.5Q171 298 286 298L385 298L385 338Q385 443 274 443Q224 443 193 423.5Q162 404 141 372L76 425Q98 467 150 497.5Q202 528 284 528Q382 528 438 481Q494 434 494 345L494 86L559 86L559 0ZM264 68Q317 68 351 92Q385 116 385 154L385 229L288 229Q170 229 170 158L170 138Q170 103 195 85.5Q220 68 264 68Z"/><path transform="translate(72.680 112.000) scale(0.003600 -0.003600)" d="M84 0L84 516L193 516L193 428L198 428Q206 448 218.5 466.5Q231 485 249 498.5Q267 512 291 520Q315 528 347 528Q425 528 473 477Q521 426 521 332L521 0L412 0L412 316Q412 439 305 439Q284 439 264 433.5Q244 428 228 417Q212 406 202.5 389Q193 372 193 350L193 0Z"/><path transform="translate(74.840 112.000) scale(0.003600 -0.003600)" d="M412 88L406 88Q383 41 345 14.5Q307 -12 250 -12Q159 -12 105 56Q51 124 51 258Q51 392 105 460Q159 528 250 528Q307 528 345 501.5Q383 475 406 428L412 428L412 740L521 740L521 0L412 0ZM295 77Q319 77 340 83Q361 89 377 101Q393 113 402.5 130.5Q412 148 412 172L412 344Q412 368 402.5 385.5Q393 403 377 415Q361 427 340 433Q319 439 295 439Q233 439 199.5 401Q166 363 166 300L166 216Q166 153 199.5 115Q233 77 295 77Z"/></g>
<line x1="23" y1="114.5" x2="71" y2="114.5" stroke="#2E1F16" stroke-width="0.35" stroke-dasharray="0.2 1.1" stroke-linecap="round"/>
<g opacity="0.92"><circle cx="99" cy="112" r="10.5" fill="none" stroke="#F7AE00" stroke-width="0.8"/>
  <path d="M99.00,112.00 L99.00,111.97 L99.01,111.93 L99.03,111.90 L99.05,111.87 L99.08,111.85 L99.12,111.83 L99.16,111.82 L99.20,111.81 L99.24,111.81 L99.29,111.81 L99.34,111.83 L99.39,111.85 L99.43,111.88 L99.48,111.92 L99.52,111.96 L99.55,112.02 L99.58,112.08 L99.61,112.14 L99.62,112.21 L99.63,112.29 L99.63,112.37 L99.61,112.45 L99.59,112.53 L99.56,112.61 L99.52,112.69 L99.46,112.77 L99.40,112.84 L99.33,112.91 L99.24,112.97 L99.15,113.03 L99.05,113.07 L98.94,113.10 L98.82,113.13 L98.70,113.14 L98.58,113.13 L98.45,113.12 L98.32,113.09 L98.20,113.04 L98.07,112.98 L97.96,112.90 L97.84,112.82 L97.74,112.71 L97.64,112.60 L97.55,112.47 L97.48,112.33 L97.42,112.18 L97.38,112.02 L97.35,111.86 L97.34,111.69 L97.34,111.51 L97.37,111.34 L97.41,111.16 L97.47,110.99 L97.56,110.82 L97.66,110.66 L97.78,110.50 L97.91,110.36 L98.06,110.23 L98.23,110.11 L98.42,110.01 L98.61,109.93 L98.82,109.87 L99.03,109.82 L99.25,109.80 L99.48,109.81 L99.70,109.83 L99.93,109.88 L100.16,109.95 L100.37,110.05 L100.58,110.17 L100.78,110.32 L100.97,110.48 L101.14,110.67 L101.29,110.87 L101.43,111.09 L101.54,111.33 L101.63,111.58 L101.69,111.85 L101.73,112.12 L101.74,112.39 L101.72,112.67 L101.67,112.95 L101.59,113.23 L101.48,113.50 L101.35,113.76 L101.19,114.01 L101.00,114.24 L100.79,114.46 L100.55,114.66 L100.29,114.83 L100.01,114.98 L99.72,115.10 L99.41,115.19 L99.09,115.25 L98.77,115.27 L98.43,115.27 L98.10,115.23 L97.77,115.15 L97.45,115.05 L97.13,114.91 L96.83,114.73 L96.54,114.53 L96.28,114.29 L96.03,114.03 L95.82,113.74 L95.63,113.43 L95.47,113.09 L95.34,112.74 L95.25,112.38 L95.20,112.00 L95.18,111.62 L95.21,111.23 L95.27,110.85 L95.37,110.47 L95.51,110.10 L95.69,109.74 L95.91,109.40 L96.16,109.08 L96.44,108.78 L96.76,108.51 L97.10,108.28 L97.47,108.07 L97.86,107.91 L98.27,107.78 L98.69,107.69 L99.12,107.65 L99.56,107.65 L100.00,107.69 L100.44,107.78 L100.87,107.91 L101.28,108.09 L101.68,108.31 L102.06,108.57 L102.41,108.87 L102.73,109.21 L103.02,109.57 L103.28,109.97 L103.49,110.40 L103.66,110.85 L103.79,111.31 L103.87,111.79 L103.90,112.28 L103.88,112.77 L103.81,113.26 L103.69,113.75 L103.53,114.23 L103.31,114.68 L103.05,115.12 L102.74,115.53 L102.39,115.92 L102.01,116.26 L101.58,116.57 L101.13,116.84 L100.64,117.06 L100.14,117.23 L99.61,117.35 L99.08,117.42 L98.53,117.44 L97.99,117.40 L97.44,117.30 L96.91,117.15 L96.39,116.95 L95.89,116.69 L95.41,116.39 L94.97,116.03 L94.56,115.63 L94.19,115.19 L93.87,114.71 L93.59,114.20 L93.37,113.65 L93.19,113.09 L93.08,112.51 L93.02,111.91 L93.03,111.31 L93.09,110.71 L93.22,110.12 L93.40,109.54 L93.65,108.98 L93.95,108.44 L94.30,107.93 L94.71,107.45 L95.16,107.02 L95.66,106.63 L96.20,106.30 L96.77,106.01 L97.37,105.79 L97.99,105.62 L98.63,105.52 L99.28,105.48 L99.93,105.50 L100.59,105.60 L101.23,105.75 L101.86,105.98 L102.46,106.26 L103.04,106.61 L103.58,107.01 L104.08,107.47 L104.53,107.98 L104.94,108.53 L105.28,109.13 L105.57,109.76 L105.80,110.42 L105.95,111.10 L106.04,111.80 L106.06,112.51 L106.01,113.21 L105.89,113.92 L105.70,114.61 L105.43,115.28 L105.10,115.92 L104.71,116.53 L104.25,117.10 L103.74,117.63 L103.17,118.10 L102.56,118.52 L101.90,118.87 L101.21,119.16 L100.50,119.38 L99.75,119.53 L99.00,119.60" fill="none" stroke="#F7AE00" stroke-width="1.1" stroke-linecap="round"/></g>
<circle cx="65" cy="163" r="25.4" fill="none" stroke="#F6EDDD" stroke-width="1.0"/>
<g fill="#2E1F16"><path transform="translate(47.720 194.000) scale(0.003200 -0.003200)" d="M54 0L54 516L128 516L128 456L132 456Q144 486 166 507Q188 528 231 528Q276 528 298 505.5Q320 483 325 447L328 447Q342 482 368 505Q394 528 440 528Q503 528 524.5 484Q546 440 546 358L546 0L472 0L472 345Q472 411 458.5 436.5Q445 462 409 462Q377 462 357 441.5Q337 421 337 379L337 0L263 0L263 345Q263 411 249.5 436.5Q236 462 201 462Q169 462 148.5 441.5Q128 421 128 379L128 0Z"/><path transform="translate(49.640 194.000) scale(0.003200 -0.003200)" d="M300 -12Q246 -12 202.5 7Q159 26 128.5 61.5Q98 97 82 146.5Q66 196 66 258Q66 319 82 369Q98 419 128.5 454.5Q159 490 202.5 509Q246 528 300 528Q354 528 397.5 509Q441 490 471.5 454.5Q502 419 518 369Q534 319 534 258Q534 196 518 146.5Q502 97 471.5 61.5Q441 26 397.5 7Q354 -12 300 -12ZM300 57Q367 57 408 97Q449 137 449 221L449 295Q449 379 408 419Q367 459 300 459Q233 459 192 419Q151 379 151 295L151 221Q151 137 192 97Q233 57 300 57Z"/><path transform="translate(51.560 194.000) scale(0.003200 -0.003200)" d="M325 0Q266 0 238.5 33Q211 66 211 118L211 448L39 448L39 516L167 516Q193 516 203.5 526.5Q214 537 214 563L214 698L291 698L291 516L526 516L526 448L291 448L291 68L526 68L526 0Z"/><path transform="translate(53.480 194.000) scale(0.003200 -0.003200)" d="M98 740L178 740L178 432L182 432Q190 451 202 468.5Q214 486 231.5 499Q249 512 273 520Q297 528 329 528Q410 528 459 476.5Q508 425 508 331L508 0L428 0L428 317Q428 388 397 422.5Q366 457 306 457Q282 457 259 451Q236 445 218 433Q200 421 189 402Q178 383 178 358L178 0L98 0Z"/><path transform="translate(55.400 194.000) scale(0.003200 -0.003200)" d="M309 -12Q253 -12 208.5 7Q164 26 132.5 61.5Q101 97 84 146.5Q67 196 67 257Q67 319 84.5 369Q102 419 133 454.5Q164 490 207.5 509Q251 528 304 528Q356 528 398.5 509Q441 490 471 456.5Q501 423 517 377Q533 331 533 276L533 238L151 238L151 214Q151 180 162 151Q173 122 193.5 101Q214 80 243.5 68.5Q273 57 309 57Q361 57 399 81Q437 105 457 147L516 107Q493 55 439.5 21.5Q386 -12 309 -12ZM304 462Q271 462 243 450Q215 438 194.5 417Q174 396 162.5 367.5Q151 339 151 305L151 298L447 298L447 309Q447 343 436.5 371Q426 399 407.5 419.5Q389 440 362.5 451Q336 462 304 462Z"/><path transform="translate(57.320 194.000) scale(0.003200 -0.003200)" d="M77 68L228 68L228 448L77 448L77 516L308 516L308 386L313 386Q329 447 373.5 481.5Q418 516 487 516L559 516L559 436L462 436Q393 436 350.5 396Q308 356 308 291L308 68L508 68L508 0L77 0Z"/><path transform="translate(59.240 194.000) scale(0.003200 -0.003200)" d="M155 262L155 346L445 346L445 262Z"/><path transform="translate(61.160 194.000) scale(0.003200 -0.003200)" d="M54 0L54 516L128 516L128 456L132 456Q144 486 166 507Q188 528 231 528Q276 528 298 505.5Q320 483 325 447L328 447Q342 482 368 505Q394 528 440 528Q503 528 524.5 484Q546 440 546 358L546 0L472 0L472 345Q472 411 458.5 436.5Q445 462 409 462Q377 462 357 441.5Q337 421 337 379L337 0L263 0L263 345Q263 411 249.5 436.5Q236 462 201 462Q169 462 148.5 441.5Q128 421 128 379L128 0Z"/><path transform="translate(63.080 194.000) scale(0.003200 -0.003200)" d="M495 0Q448 0 428 24Q408 48 403 84L398 84Q381 39 343.5 13.5Q306 -12 243 -12Q162 -12 114 30Q66 72 66 145Q66 217 118.5 256Q171 295 288 295L398 295L398 346Q398 403 366 431.5Q334 460 275 460Q223 460 190 439.5Q157 419 137 384L83 424Q93 444 110 463Q127 482 152 496.5Q177 511 209 519.5Q241 528 280 528Q371 528 424.5 482Q478 436 478 354L478 70L550 70L550 0ZM257 55Q288 55 313.5 62.5Q339 70 358 82.5Q377 95 387.5 112.5Q398 130 398 150L398 235L288 235Q216 235 183 215Q150 195 150 157L150 136Q150 96 178.5 75.5Q207 55 257 55Z"/><path transform="translate(65.000 194.000) scale(0.003200 -0.003200)" d="M425 84L421 84Q371 -12 262 -12Q167 -12 113.5 59Q60 130 60 258Q60 386 113.5 457Q167 528 262 528Q371 528 421 432L425 432L425 740L505 740L505 0L425 0ZM293 59Q320 59 344 66Q368 73 386 86.5Q404 100 414.5 119.5Q425 139 425 165L425 351Q425 377 414.5 396.5Q404 416 386 429.5Q368 443 344 450Q320 457 293 457Q223 457 184.5 414.5Q146 372 146 302L146 214Q146 144 184.5 101.5Q223 59 293 59Z"/><path transform="translate(66.920 194.000) scale(0.003200 -0.003200)" d="M309 -12Q253 -12 208.5 7Q164 26 132.5 61.5Q101 97 84 146.5Q67 196 67 257Q67 319 84.5 369Q102 419 133 454.5Q164 490 207.5 509Q251 528 304 528Q356 528 398.5 509Q441 490 471 456.5Q501 423 517 377Q533 331 533 276L533 238L151 238L151 214Q151 180 162 151Q173 122 193.5 101Q214 80 243.5 68.5Q273 57 309 57Q361 57 399 81Q437 105 457 147L516 107Q493 55 439.5 21.5Q386 -12 309 -12ZM304 462Q271 462 243 450Q215 438 194.5 417Q174 396 162.5 367.5Q151 339 151 305L151 298L447 298L447 309Q447 343 436.5 371Q426 399 407.5 419.5Q389 440 362.5 451Q336 462 304 462Z"/><path transform="translate(70.760 194.000) scale(0.003200 -0.003200)" d="M300 235Q259 235 242.5 252Q226 269 226 295L226 313Q226 339 242.5 356Q259 373 300 373Q341 373 357.5 356Q374 339 374 313L374 295Q374 269 357.5 252Q341 235 300 235Z"/><path transform="translate(74.600 194.000) scale(0.003200 -0.003200)" d="M90 0L90 698L344 698Q441 698 492 645Q543 592 543 497Q543 402 492 349Q441 296 344 296L174 296L174 0ZM174 369L342 369Q395 369 424.5 395.5Q454 422 454 471L454 523Q454 572 424.5 598.5Q395 625 342 625L174 625Z"/><path transform="translate(76.520 194.000) scale(0.003200 -0.003200)" d="M422 84L418 84Q410 65 398 47.5Q386 30 368.5 17Q351 4 327 -4Q303 -12 271 -12Q190 -12 141 39.5Q92 91 92 185L92 516L172 516L172 199Q172 128 203 93.5Q234 59 294 59Q318 59 341 65Q364 71 382 83Q400 95 411 113.5Q422 132 422 158L422 516L502 516L502 0L422 0Z"/><path transform="translate(78.440 194.000) scale(0.003200 -0.003200)" d="M98 0L98 516L178 516L178 432L182 432Q190 451 202 468.5Q214 486 231.5 499Q249 512 273 520Q297 528 329 528Q410 528 459 476.5Q508 425 508 331L508 0L428 0L428 317Q428 388 397 422.5Q366 457 306 457Q282 457 259 451Q236 445 218 433Q200 421 189 402Q178 383 178 358L178 0Z"/><path transform="translate(80.360 194.000) scale(0.003200 -0.003200)" d="M309 -12Q253 -12 208.5 7Q164 26 132.5 61.5Q101 97 84 146.5Q67 196 67 257Q67 319 84.5 369Q102 419 133 454.5Q164 490 207.5 509Q251 528 304 528Q356 528 398.5 509Q441 490 471 456.5Q501 423 517 377Q533 331 533 276L533 238L151 238L151 214Q151 180 162 151Q173 122 193.5 101Q214 80 243.5 68.5Q273 57 309 57Q361 57 399 81Q437 105 457 147L516 107Q493 55 439.5 21.5Q386 -12 309 -12ZM304 462Q271 462 243 450Q215 438 194.5 417Q174 396 162.5 367.5Q151 339 151 305L151 298L447 298L447 309Q447 343 436.5 371Q426 399 407.5 419.5Q389 440 362.5 451Q336 462 304 462Z"/></g>
<g id="dieline" fill="none" stroke="#FF00FF" stroke-width="0.25">
    <rect x="0" y="0" width="130" height="200"/>
    <circle cx="65" cy="163" r="24" stroke-dasharray="2 1.4"/>
  </g>
</svg>