<svg xmlns="http://www.w3.org/2000/svg" viewBox="0 0 240 240" role="img" aria-label="Cmaa Pure Coil logo (color)">
<defs><mask id="g-b1-color"><rect width="240" height="240" fill="#fff"/><path d="M110.95 125.6 L108.81 128.36M107.32 117.72 L102.62 118.29M109.7 109.36 L104.76 106.39M116.21 103.92 L113.27 98.07M124.71 102.46 L125.06 95.34M132.92 105.07 L136.63 98.55M139.14 110.76 L145.34 106.22M142.82 119.04 L150.35 117.43M143.01 127.71 L150.61 128.97M139.84 136.34 L146.45 140.29M134.29 142.87 L139.27 148.74M126.01 147.67 L128.66 154.9M117.41 149.38 L117.75 157.07M108.35 148.38 L106.34 155.81M99.68 144.53 L95.53 151.02M92.78 138.57 L86.97 143.62M87.66 130.64 L80.67 133.87M85 122.06 L77.41 123.36M84.65 112.82 L76.98 112.11M86.76 103.55 L79.54 100.88M91.32 94.92 L85.04 90.47M97.5 88.11 L92.46 82.3M105.3 82.85 L101.78 76M114.33 79.51 L112.54 72.02M124.12 78.39 L124.16 70.69M133.2 79.44 L134.91 71.93M142.02 82.49 L145.31 75.53M150.13 87.47 L154.84 81.38M157.1 94.2 L163.02 89.28M162.55 102.44 L169.39 98.91M165.89 110.85 L173.29 108.72M167.62 120.92 L175.31 120.44M167.29 130.28 L174.92 131.3M165.11 139.53 L172.39 142.02M161.1 148.31 L167.77 152.17M155.38 156.27 L161.17 161.35M148.12 163.07 L152.8 169.18M140.55 167.88 L144.1 174.71M131.06 171.7 L133.22 179.09M122.02 173.5 L122.87 181.16M112.69 173.72 L112.2 181.41M102.19 172.01 L100.21 179.45M93.17 168.76 L89.94 175.75M84.76 163.94 L80.36 170.26M77.21 157.66 L71.79 163.13M70.79 150.08 L64.51 154.53M66.27 142.55 L59.38 145.99M62.53 133.11 L55.15 135.31M60.46 123.05 L52.81 123.95M60.09 113.98 L52.4 113.7M61.37 103.57 L53.84 101.97M63.98 94.67 L56.78 91.95M67.95 86.19 L61.24 82.4M73.21 78.33 L67.15 73.57M80.66 70.36 L75.52 64.63M88.31 64.48 L84.09 58.04M96.83 59.79 L93.64 52.78M106.05 56.4 L103.96 48.99M115.77 54.44 L114.82 46.8M125.76 53.96 L125.98 46.26M134.37 54.77 L135.58 47.16M144.26 57.13 L146.61 49.8M153.76 61 L157.19 54.11M162.64 66.3 L167.08 60.01M169.6 71.92 L174.81 66.26M176.76 79.61 L182.78 74.8M181.96 87.06 L188.55 83.08M186.78 96.59 L193.9 93.65M189.74 105.33 L197.18 103.33M191.56 114.44 L199.2 113.43" stroke="#000" stroke-width="2.1" stroke-linecap="round" fill="none"/></mask></defs>
<path d="M123.69 119.78 L123.79 119.89 L123.88 119.99 L123.97 120.11 L124.06 120.22 L124.14 120.34 L124.22 120.46 L124.3 120.59 L124.38 120.72 L124.45 120.85 L124.51 120.99 L124.58 121.12 L124.64 121.27 L124.7 121.41 L124.75 121.56 L124.8 121.71 L124.84 121.86 L124.89 122.01 L124.92 122.17 L124.96 122.33 L124.98 122.49 L125.01 122.66 L125.03 122.83 L125.04 122.99 L125.05 123.17 L125.06 123.34 L125.06 123.51 L125.06 123.69 L125.05 123.87 L125.03 124.04 L125.01 124.22 L124.99 124.41 L124.96 124.59 L124.92 124.77 L124.88 124.95 L124.84 125.14 L124.79 125.32 L124.73 125.51 L124.67 125.69 L124.6 125.88 L124.53 126.06 L124.45 126.25 L124.37 126.43 L124.28 126.62 L124.18 126.8 L124.08 126.98 L123.97 127.16 L123.86 127.34 L123.74 127.52 L123.62 127.7 L123.49 127.87 L123.35 128.05 L123.21 128.22 L123.06 128.39 L122.91 128.55 L122.75 128.72 L122.58 128.88 L122.41 129.04 L122.24 129.19 L122.06 129.35 L121.87 129.5 L121.68 129.64 L121.48 129.78 L121.28 129.92 L121.07 130.06 L120.85 130.19 L120.64 130.31 L120.41 130.43 L120.18 130.55 L119.95 130.66 L119.71 130.77 L119.47 130.87 L119.22 130.97 L118.97 131.06 L118.72 131.14 L118.45 131.22 L118.19 131.3 L117.92 131.37 L117.65 131.43 L117.37 131.48 L117.1 131.53 L116.81 131.57 L116.53 131.61 L116.24 131.64 L115.95 131.66 L115.65 131.67 L115.35 131.68 L115.05 131.68 L114.75 131.67 L114.45 131.66 L114.14 131.64 L113.84 131.61 L113.53 131.57 L113.22 131.52 L112.9 131.47 L112.59 131.41 L112.28 131.34 L111.97 131.26 L111.65 131.18 L111.34 131.08 L111.02 130.98 L110.71 130.87 L110.4 130.75 L110.08 130.62 L109.77 130.48 L109.46 130.34 L109.15 130.19 L108.85 130.02 L108.54 129.85 L108.24 129.68 L107.94 129.49 L107.64 129.29 L107.34 129.09 L107.05 128.88 L106.76 128.65 L106.48 128.43 L106.2 128.19 L105.92 127.94 L105.64 127.69 L105.37 127.42 L105.11 127.15 L104.85 126.88 L104.59 126.59 L104.34 126.29 L104.1 125.99 L103.86 125.68 L103.63 125.37 L103.4 125.04 L103.18 124.71 L102.97 124.37 L102.76 124.02 L102.56 123.67 L102.37 123.31 L102.19 122.94 L102.01 122.57 L101.84 122.19 L101.68 121.81 L101.53 121.41 L101.38 121.02 L101.25 120.61 L101.12 120.2 L101 119.79 L100.89 119.37 L100.79 118.95 L100.7 118.52 L100.62 118.09 L100.55 117.65 L100.49 117.21 L100.44 116.77 L100.4 116.32 L100.37 115.87 L100.35 115.41 L100.34 114.95 L100.34 114.49 L100.36 114.03 L100.38 113.57 L100.41 113.1 L100.46 112.63 L100.52 112.17 L100.58 111.7 L100.66 111.23 L100.75 110.76 L100.86 110.28 L100.97 109.81 L101.09 109.34 L101.23 108.87 L101.38 108.41 L101.54 107.94 L101.71 107.47 L101.9 107.01 L102.09 106.55 L102.3 106.09 L102.52 105.63 L102.75 105.18 L102.99 104.73 L103.24 104.28 L103.51 103.84 L103.78 103.4 L104.07 102.97 L104.37 102.54 L104.68 102.11 L105 101.69 L105.33 101.28 L105.68 100.87 L106.03 100.47 L106.4 100.08 L106.77 99.69 L107.16 99.31 L107.56 98.94 L107.97 98.57 L108.38 98.22 L108.81 97.87 L109.25 97.53 L109.69 97.2 L110.15 96.87 L110.62 96.56 L111.09 96.26 L111.57 95.96 L112.07 95.68 L112.57 95.41 L113.08 95.14 L113.59 94.89 L114.12 94.65 L114.65 94.42 L115.19 94.2 L115.74 94 L116.29 93.8 L116.85 93.62 L117.41 93.45 L117.99 93.29 L118.56 93.15 L119.15 93.01 L119.74 92.89 L120.33 92.79 L120.93 92.69 L121.53 92.61 L122.13 92.55 L122.74 92.5 L123.35 92.46 L123.97 92.43 L124.59 92.42 L125.21 92.43 L125.83 92.44 L126.45 92.48 L127.08 92.52 L127.7 92.58 L128.33 92.66 L128.96 92.75 L129.58 92.86 L130.21 92.98 L130.84 93.11 L131.46 93.26 L132.08 93.42 L132.7 93.6 L133.32 93.8 L133.94 94.01 L134.55 94.23 L135.16 94.47 L135.77 94.72 L136.37 94.99 L136.97 95.27 L137.56 95.57 L138.15 95.88 L138.73 96.21 L139.3 96.54 L139.87 96.9 L140.44 97.27 L140.99 97.65 L141.54 98.04 L142.08 98.45 L142.62 98.88 L143.14 99.31 L143.66 99.76 L144.17 100.22 L144.67 100.7 L145.16 101.19 L145.64 101.69 L146.1 102.2 L146.56 102.72 L147.01 103.26 L147.45 103.81 L147.87 104.37 L148.28 104.94 L148.68 105.52 L149.07 106.11 L149.45 106.71 L149.81 107.32 L150.16 107.95 L150.5 108.58 L150.82 109.22 L151.13 109.87 L151.42 110.52 L151.71 111.19 L151.97 111.86 L152.23 112.54 L152.46 113.23 L152.69 113.92 L152.9 114.62 L153.09 115.33 L153.27 116.04 L153.43 116.76 L153.58 117.49 L153.71 118.21 L153.82 118.95 L153.92 119.68 L154.01 120.43 L154.07 121.17 L154.13 121.92 L154.16 122.67 L154.18 123.42 L154.18 124.17 L154.16 124.93 L154.13 125.69 L154.08 126.45 L154.02 127.2 L153.94 127.96 L153.84 128.72 L153.72 129.48 L153.59 130.24 L153.44 130.99 L153.27 131.75 L153.08 132.5 L152.88 133.25 L152.66 133.99 L152.43 134.74 L152.18 135.48 L151.91 136.21 L151.62 136.94 L151.32 137.67 L151 138.39 L150.66 139.11 L150.31 139.82 L149.94 140.52 L149.56 141.22 L149.15 141.9 L148.74 142.59 L148.3 143.26 L147.86 143.93 L147.39 144.58 L146.91 145.23 L146.42 145.87 L145.91 146.5 L145.38 147.12 L144.84 147.73 L144.29 148.33 L143.72 148.91 L143.14 149.49 L142.54 150.05 L141.93 150.61 L141.31 151.15 L140.67 151.67 L140.02 152.19 L139.36 152.69 L138.69 153.18 L138 153.65 L137.3 154.11 L136.59 154.55 L135.87 154.98 L135.14 155.4 L134.4 155.8 L133.65 156.18 L132.89 156.55 L132.11 156.9 L131.33 157.24 L130.54 157.55 L129.75 157.86 L128.94 158.14 L128.13 158.41 L127.3 158.66 L126.48 158.89 L125.64 159.11 L124.8 159.31 L123.95 159.49 L123.1 159.65 L122.24 159.79 L121.38 159.91 L120.51 160.02 L119.64 160.11 L118.77 160.17 L117.89 160.22 L117.01 160.25 L116.13 160.26 L115.25 160.25 L114.36 160.22 L113.47 160.17 L112.59 160.1 L111.7 160.02 L110.81 159.91 L109.93 159.78 L109.04 159.64 L108.16 159.47 L107.28 159.28 L106.4 159.08 L105.53 158.85 L104.65 158.61 L103.79 158.34 L102.92 158.06 L102.06 157.76 L101.21 157.43 L100.36 157.09 L99.52 156.73 L98.68 156.35 L97.85 155.95 L97.03 155.53 L96.22 155.09 L95.41 154.64 L94.62 154.16 L93.83 153.67 L93.05 153.16 L92.28 152.63 L91.52 152.08 L90.78 151.52 L90.04 150.94 L89.31 150.34 L88.6 149.73 L87.9 149.09 L87.21 148.45 L86.54 147.78 L85.88 147.1 L85.23 146.4 L84.59 145.69 L83.98 144.97 L83.37 144.22 L82.78 143.47 L82.21 142.7 L81.65 141.92 L81.11 141.12 L80.59 140.31 L80.08 139.48 L79.59 138.65 L79.12 137.8 L78.66 136.94 L78.22 136.07 L77.81 135.19 L77.41 134.3 L77.02 133.39 L76.66 132.48 L76.32 131.56 L76 130.63 L75.69 129.69 L75.41 128.74 L75.15 127.79 L74.91 126.82 L74.69 125.85 L74.49 124.88 L74.31 123.9 L74.15 122.91 L74.01 121.92 L73.9 120.92 L73.8 119.92 L73.73 118.91 L73.68 117.91 L73.65 116.9 L73.65 115.88 L73.66 114.87 L73.7 113.85 L73.76 112.84 L73.84 111.82 L73.95 110.81 L74.08 109.79 L74.23 108.78 L74.4 107.76 L74.6 106.75 L74.81 105.75 L75.05 104.74 L75.32 103.74 L75.6 102.75 L75.91 101.75 L76.23 100.77 L76.59 99.79 L76.96 98.81 L77.35 97.85 L77.77 96.89 L78.21 95.93 L78.67 94.99 L79.15 94.05 L79.65 93.13 L80.17 92.21 L80.72 91.3 L81.28 90.4 L81.87 89.52 L82.47 88.64 L83.1 87.78 L83.74 86.93 L84.41 86.1 L85.09 85.27 L85.79 84.46 L86.52 83.67 L87.26 82.89 L88.01 82.12 L88.79 81.37 L89.58 80.63 L90.39 79.92 L91.22 79.21 L92.06 78.53 L92.93 77.86 L93.8 77.21 L94.69 76.58 L95.6 75.97 L96.52 75.38 L97.46 74.8 L98.41 74.25 L99.37 73.71 L100.34 73.2 L101.33 72.7 L102.33 72.23 L103.35 71.78 L104.37 71.35 L105.4 70.94 L106.45 70.55 L107.5 70.19 L108.57 69.85 L109.64 69.53 L110.72 69.23 L111.81 68.96 L112.91 68.71 L114.01 68.49 L115.12 68.28 L116.24 68.11 L117.36 67.95 L118.49 67.82 L119.62 67.72 L120.75 67.64 L121.89 67.58 L123.03 67.55 L124.18 67.54 L125.32 67.56 L126.47 67.61 L127.61 67.67 L128.76 67.77 L129.9 67.89 L131.05 68.03 L132.19 68.2 L133.33 68.4 L134.47 68.62 L135.61 68.86 L136.74 69.13 L137.87 69.43 L138.99 69.75 L140.1 70.09 L141.21 70.46 L142.32 70.86 L143.42 71.28 L144.5 71.72 L145.58 72.19 L146.66 72.68 L147.72 73.2 L148.77 73.74 L149.81 74.3 L150.85 74.89 L151.87 75.5 L152.87 76.13 L153.87 76.79 L154.85 77.47 L155.82 78.17 L156.77 78.89 L157.71 79.63 L158.64 80.4 L159.55 81.19 L160.44 82 L161.32 82.83 L162.18 83.67 L163.02 84.54 L163.85 85.43 L164.65 86.34 L165.44 87.27 L166.21 88.21 L166.96 89.17 L167.69 90.15 L168.39 91.15 L169.08 92.16 L169.75 93.19 L170.39 94.24 L171.01 95.3 L171.61 96.38 L172.19 97.47 L172.75 98.57 L173.28 99.69 L173.78 100.82 L174.27 101.96 L174.73 103.12 L175.16 104.29 L175.57 105.46 L175.95 106.65 L176.31 107.85 L176.65 109.06 L176.95 110.27 L177.23 111.5 L177.49 112.73 L177.72 113.97 L177.92 115.21 L178.09 116.46 L178.24 117.72 L178.36 118.98 L178.45 120.25 L178.52 121.51 L178.56 122.79 L178.57 124.06 L178.55 125.34 L178.5 126.61 L178.43 127.89 L178.33 129.17 L178.2 130.44 L178.04 131.72 L177.86 132.99 L177.64 134.26 L177.4 135.53 L177.13 136.8 L176.84 138.06 L176.51 139.31 L176.16 140.56 L175.78 141.8 L175.37 143.04 L174.94 144.27 L174.48 145.49 L173.99 146.7 L173.47 147.9 L172.93 149.09 L172.36 150.28 L171.76 151.45 L171.14 152.61 L170.49 153.75 L169.82 154.89 L169.12 156.01 L168.39 157.12 L167.64 158.21 L166.87 159.29 L166.07 160.35 L165.25 161.39 L164.4 162.42 L163.53 163.43 L162.64 164.43 L161.73 165.4 L160.79 166.36 L159.83 167.3 L158.85 168.21 L157.85 169.11 L156.82 169.99 L155.78 170.84 L154.72 171.68 L153.64 172.49 L152.53 173.28 L151.41 174.04 L150.28 174.78 L149.12 175.5 L147.95 176.19 L146.76 176.86 L145.56 177.51 L144.34 178.13 L143.11 178.72 L141.86 179.28 L140.6 179.82 L139.32 180.34 L138.03 180.82 L136.73 181.28 L135.42 181.71 L134.1 182.11 L132.77 182.48 L131.43 182.83 L130.08 183.15 L128.72 183.43 L127.35 183.69 L125.98 183.92 L124.6 184.12 L123.21 184.29 L121.82 184.43 L120.43 184.54 L119.03 184.61 L117.63 184.66 L116.22 184.68 L114.81 184.67 L113.41 184.62 L112 184.55 L110.59 184.44 L109.18 184.31 L107.78 184.14 L106.37 183.95 L104.97 183.72 L103.57 183.46 L102.18 183.17 L100.79 182.85 L99.41 182.5 L98.03 182.12 L96.66 181.71 L95.3 181.26 L93.94 180.79 L92.6 180.29 L91.26 179.76 L89.94 179.2 L88.62 178.61 L87.32 177.99 L86.03 177.34 L84.75 176.66 L83.48 175.96 L82.23 175.22 L80.99 174.46 L79.77 173.67 L78.57 172.85 L77.38 172.01 L76.21 171.14 L75.06 170.24 L73.92 169.32 L72.8 168.37 L71.71 167.39 L70.63 166.39 L69.57 165.37 L68.54 164.32 L67.53 163.25 L66.54 162.16 L65.57 161.04 L64.62 159.9 L63.7 158.74 L62.81 157.56 L61.93 156.35 L61.09 155.13 L60.27 153.89 L59.47 152.63 L58.71 151.35 L57.97 150.05 L57.25 148.73 L56.57 147.4 L55.91 146.05 L55.28 144.69 L54.68 143.31 L54.11 141.92 L53.57 140.51 L53.06 139.09 L52.58 137.66 L52.14 136.21 L51.72 134.76 L51.33 133.29 L50.98 131.82 L50.65 130.33 L50.36 128.84 L50.1 127.34 L49.88 125.83 L49.68 124.31 L49.52 122.79 L49.39 121.27 L49.3 119.74 L49.23 118.2 L49.21 116.67 L49.21 115.13 L49.25 113.59 L49.32 112.05 L49.42 110.51 L49.56 108.97 L49.74 107.43 L49.94 105.9 L50.18 104.37 L50.45 102.84 L50.76 101.31 L51.1 99.79 L51.47 98.28 L51.88 96.78 L52.32 95.28 L52.79 93.79 L53.3 92.3 L53.83 90.83 L54.41 89.37 L55.01 87.92 L55.64 86.48 L56.31 85.06 L57.01 83.64 L57.74 82.24 L58.5 80.86 L59.29 79.49 L60.11 78.13 L60.97 76.8 L61.85 75.48 L62.76 74.18 L63.7 72.89 L64.67 71.63 L65.67 70.39 L66.69 69.16 L67.75 67.96 L68.83 66.78 L69.94 65.62 L71.07 64.49 L72.23 63.38 L73.41 62.29 L74.62 61.23 L75.85 60.19 L77.11 59.18 L78.39 58.2 L79.69 57.24 L81.02 56.31 L82.36 55.41 L83.73 54.53 L85.12 53.69 L86.52 52.87 L87.95 52.09 L89.39 51.33 L90.85 50.61 L92.33 49.91 L93.83 49.25 L95.34 48.62 L96.86 48.02 L98.4 47.46 L99.96 46.93 L101.52 46.43 L103.1 45.96 L104.69 45.53 L106.29 45.13 L107.9 44.77 L109.52 44.44 L111.15 44.15 L112.79 43.89 L114.43 43.67 L116.08 43.48 L117.73 43.33 L119.39 43.22 L121.06 43.14 L122.73 43.09 L124.4 43.09 L126.07 43.12 L127.74 43.18 L129.41 43.28 L131.08 43.42 L132.75 43.6 L134.42 43.81 L136.08 44.05 L137.74 44.34 L139.4 44.66 L141.05 45.01 L142.69 45.41 L144.32 45.83 L145.95 46.3 L147.57 46.8 L149.18 47.33 L150.78 47.91 L152.37 48.51 L153.95 49.15 L155.51 49.83 L157.06 50.54 L158.6 51.29 L160.12 52.06 L161.63 52.88 L163.12 53.72 L164.59 54.6 L166.04 55.52 L167.48 56.46 L168.9 57.44 L170.29 58.44 L171.67 59.48 L173.02 60.55 L174.35 61.65 L175.66 62.78 L176.95 63.94 L178.21 65.13 L179.45 66.35 L180.66 67.59 L181.85 68.86 L183 70.16 L184.14 71.49 L185.24 72.84 L186.31 74.21 L187.36 75.61 L188.38 77.04 L189.36 78.48 L190.32 79.95 L191.25 81.44 L192.14 82.96 L193 84.49 L193.83 86.04 L194.62 87.62 L195.39 89.21 L196.11 90.82 L196.81 92.44 L197.47 94.09 L198.09 95.74 L198.68 97.42 L199.23 99.1 L199.74 100.8 L200.22 102.52 L200.67 104.24 L201.07 105.98 L201.44 107.72 L201.77 109.48 L202.06 111.24 L202.32 113.01 L202.53 114.79 L202.71 116.58 L202.85 118.37 L202.95 120.16 L203.01 121.96 L203.04 123.76 L203.02 125.56 L202.96 127.37 L202.87 129.17 L202.73 130.97 L202.56 132.77 L202.35 134.57 L202.1 136.37 L201.8 138.16 L201.47 139.95 L201.1 141.73 L200.7 143.5 L200.25 145.27 L199.76 147.03 L199.24 148.78 L198.68 150.52 L198.07 152.25 L197.44 153.96 L196.76 155.67 L196.04 157.36 L195.29 159.03 L194.5 160.69 L193.68 162.34 L192.82 163.97 L191.92 165.58 L190.99 167.17 L190.02 168.75 L189.01 170.3 L187.98 171.84 L186.9 173.35 L185.8 174.84 L184.66 176.3 L183.49 177.75 L182.28 179.17 L181.05 180.56 A7 7 0 0 1 170.67 171.16 L171.71 170 L172.71 168.81 L173.7 167.6 L174.65 166.37 L175.57 165.13 L176.47 163.86 L177.34 162.58 L178.18 161.28 L178.98 159.97 L179.76 158.64 L180.51 157.29 L181.23 155.93 L181.92 154.55 L182.58 153.17 L183.21 151.77 L183.8 150.36 L184.37 148.94 L184.9 147.5 L185.4 146.06 L185.87 144.61 L186.31 143.15 L186.72 141.69 L187.09 140.22 L187.43 138.74 L187.74 137.25 L188.01 135.77 L188.25 134.27 L188.46 132.78 L188.64 131.28 L188.78 129.78 L188.9 128.28 L188.98 126.78 L189.02 125.28 L189.04 123.78 L189.02 122.29 L188.97 120.79 L188.88 119.3 L188.77 117.81 L188.62 116.33 L188.44 114.86 L188.23 113.38 L187.99 111.92 L187.71 110.46 L187.41 109.02 L187.07 107.58 L186.7 106.14 L186.3 104.72 L185.88 103.31 L185.42 101.92 L184.93 100.53 L184.42 99.16 L183.87 97.8 L183.3 96.45 L182.69 95.12 L182.06 93.8 L181.4 92.5 L180.72 91.21 L180.01 89.94 L179.27 88.69 L178.5 87.46 L177.71 86.24 L176.9 85.05 L176.06 83.87 L175.19 82.71 L174.3 81.58 L173.39 80.46 L172.46 79.37 L171.5 78.3 L170.52 77.25 L169.52 76.22 L168.5 75.22 L167.46 74.24 L166.4 73.28 L165.32 72.35 L164.23 71.44 L163.11 70.56 L161.98 69.71 L160.83 68.88 L159.66 68.07 L158.48 67.3 L157.28 66.54 L156.07 65.82 L154.84 65.13 L153.6 64.46 L152.35 63.82 L151.09 63.2 L149.82 62.62 L148.53 62.06 L147.24 61.54 L145.93 61.04 L144.62 60.57 L143.3 60.13 L141.97 59.72 L140.63 59.34 L139.29 58.99 L137.94 58.67 L136.59 58.37 L135.23 58.11 L133.87 57.88 L132.51 57.68 L131.14 57.5 L129.78 57.36 L128.41 57.25 L127.04 57.16 L125.67 57.11 L124.3 57.09 L122.94 57.09 L121.58 57.13 L120.22 57.19 L118.86 57.29 L117.51 57.41 L116.16 57.56 L114.82 57.75 L113.48 57.96 L112.15 58.2 L110.83 58.46 L109.51 58.76 L108.21 59.08 L106.91 59.43 L105.62 59.81 L104.35 60.22 L103.08 60.65 L101.83 61.11 L100.59 61.6 L99.36 62.11 L98.14 62.65 L96.94 63.22 L95.75 63.81 L94.57 64.42 L93.41 65.06 L92.27 65.72 L91.14 66.41 L90.03 67.12 L88.94 67.85 L87.86 68.61 L86.81 69.39 L85.77 70.18 L84.75 71 L83.75 71.85 L82.77 72.71 L81.81 73.59 L80.87 74.49 L79.95 75.41 L79.05 76.35 L78.18 77.3 L77.32 78.28 L76.49 79.27 L75.68 80.27 L74.9 81.3 L74.14 82.33 L73.4 83.39 L72.69 84.45 L72 85.53 L71.33 86.63 L70.7 87.73 L70.08 88.85 L69.49 89.98 L68.93 91.12 L68.39 92.27 L67.88 93.43 L67.39 94.6 L66.93 95.78 L66.5 96.97 L66.09 98.16 L65.71 99.36 L65.36 100.57 L65.03 101.78 L64.73 103 L64.45 104.22 L64.21 105.45 L63.99 106.68 L63.8 107.91 L63.63 109.14 L63.49 110.38 L63.38 111.61 L63.3 112.85 L63.24 114.09 L63.21 115.32 L63.21 116.56 L63.23 117.79 L63.28 119.02 L63.35 120.24 L63.46 121.47 L63.59 122.68 L63.74 123.9 L63.92 125.11 L64.13 126.31 L64.36 127.5 L64.62 128.69 L64.91 129.87 L65.22 131.04 L65.55 132.21 L65.91 133.36 L66.29 134.5 L66.7 135.64 L67.13 136.76 L67.58 137.87 L68.06 138.97 L68.56 140.06 L69.09 141.14 L69.63 142.2 L70.2 143.24 L70.79 144.28 L71.4 145.3 L72.03 146.3 L72.69 147.29 L73.36 148.26 L74.05 149.22 L74.76 150.16 L75.5 151.08 L76.25 151.99 L77.02 152.87 L77.8 153.74 L78.61 154.59 L79.43 155.42 L80.26 156.24 L81.12 157.03 L81.99 157.8 L82.87 158.55 L83.77 159.28 L84.68 159.99 L85.61 160.68 L86.55 161.35 L87.51 162 L88.47 162.62 L89.45 163.23 L90.44 163.81 L91.44 164.36 L92.45 164.9 L93.47 165.41 L94.49 165.9 L95.53 166.37 L96.58 166.81 L97.63 167.23 L98.69 167.62 L99.76 167.99 L100.83 168.34 L101.91 168.67 L102.99 168.97 L104.08 169.24 L105.17 169.49 L106.27 169.72 L107.37 169.92 L108.47 170.1 L109.57 170.26 L110.68 170.39 L111.78 170.5 L112.89 170.58 L113.99 170.64 L115.09 170.67 L116.2 170.68 L117.3 170.67 L118.4 170.63 L119.49 170.57 L120.58 170.48 L121.67 170.37 L122.75 170.24 L123.83 170.09 L124.91 169.91 L125.97 169.71 L127.03 169.48 L128.09 169.23 L129.14 168.96 L130.17 168.67 L131.2 168.36 L132.23 168.02 L133.24 167.67 L134.24 167.29 L135.23 166.89 L136.22 166.47 L137.19 166.03 L138.15 165.57 L139.09 165.09 L140.03 164.59 L140.95 164.07 L141.86 163.53 L142.76 162.98 L143.64 162.4 L144.51 161.81 L145.36 161.2 L146.2 160.57 L147.02 159.92 L147.83 159.26 L148.62 158.58 L149.4 157.89 L150.15 157.18 L150.9 156.45 L151.62 155.71 L152.33 154.96 L153.02 154.19 L153.69 153.41 L154.34 152.62 L154.98 151.81 L155.59 150.99 L156.19 150.16 L156.76 149.32 L157.32 148.47 L157.86 147.61 L158.38 146.73 L158.88 145.85 L159.36 144.96 L159.81 144.06 L160.25 143.15 L160.67 142.24 L161.06 141.32 L161.44 140.39 L161.79 139.45 L162.13 138.51 L162.44 137.56 L162.73 136.61 L163 135.66 L163.25 134.7 L163.47 133.73 L163.68 132.77 L163.86 131.8 L164.03 130.83 L164.17 129.86 L164.29 128.88 L164.39 127.91 L164.46 126.94 L164.52 125.96 L164.55 124.99 L164.57 124.02 L164.56 123.05 L164.53 122.08 L164.48 121.12 L164.41 120.16 L164.32 119.2 L164.21 118.25 L164.07 117.3 L163.92 116.35 L163.75 115.41 L163.56 114.48 L163.34 113.55 L163.11 112.63 L162.86 111.72 L162.59 110.81 L162.3 109.92 L161.99 109.03 L161.66 108.15 L161.31 107.27 L160.95 106.41 L160.57 105.56 L160.17 104.72 L159.75 103.88 L159.31 103.06 L158.86 102.25 L158.39 101.45 L157.91 100.67 L157.41 99.89 L156.89 99.13 L156.36 98.38 L155.81 97.65 L155.25 96.93 L154.68 96.22 L154.09 95.52 L153.48 94.84 L152.87 94.18 L152.23 93.53 L151.59 92.89 L150.94 92.28 L150.27 91.67 L149.59 91.08 L148.9 90.51 L148.2 89.96 L147.49 89.42 L146.77 88.89 L146.03 88.39 L145.29 87.9 L144.54 87.43 L143.79 86.98 L143.02 86.54 L142.25 86.12 L141.46 85.72 L140.68 85.34 L139.88 84.97 L139.08 84.63 L138.27 84.3 L137.46 83.99 L136.65 83.7 L135.83 83.42 L135 83.17 L134.17 82.93 L133.34 82.71 L132.51 82.51 L131.67 82.33 L130.83 82.17 L129.99 82.03 L129.15 81.9 L128.31 81.8 L127.46 81.71 L126.62 81.64 L125.78 81.59 L124.94 81.56 L124.1 81.54 L123.26 81.55 L122.42 81.57 L121.59 81.61 L120.76 81.67 L119.93 81.75 L119.11 81.84 L118.29 81.95 L117.48 82.08 L116.67 82.23 L115.86 82.4 L115.06 82.58 L114.27 82.78 L113.48 82.99 L112.7 83.22 L111.93 83.47 L111.16 83.74 L110.4 84.02 L109.65 84.31 L108.91 84.62 L108.18 84.95 L107.45 85.29 L106.74 85.65 L106.03 86.02 L105.34 86.41 L104.65 86.81 L103.97 87.23 L103.31 87.65 L102.66 88.1 L102.01 88.55 L101.38 89.02 L100.77 89.5 L100.16 89.99 L99.56 90.49 L98.98 91.01 L98.41 91.54 L97.86 92.07 L97.31 92.62 L96.78 93.18 L96.27 93.75 L95.76 94.33 L95.28 94.92 L94.8 95.52 L94.34 96.12 L93.89 96.74 L93.46 97.36 L93.05 97.99 L92.65 98.63 L92.26 99.28 L91.89 99.93 L91.53 100.59 L91.19 101.25 L90.86 101.92 L90.55 102.59 L90.26 103.27 L89.98 103.96 L89.72 104.65 L89.47 105.34 L89.24 106.04 L89.02 106.74 L88.82 107.44 L88.63 108.14 L88.47 108.85 L88.31 109.56 L88.18 110.27 L88.05 110.98 L87.95 111.69 L87.86 112.4 L87.79 113.11 L87.73 113.83 L87.68 114.54 L87.66 115.25 L87.65 115.95 L87.65 116.66 L87.67 117.37 L87.71 118.07 L87.76 118.77 L87.82 119.46 L87.9 120.16 L88 120.84 L88.11 121.53 L88.23 122.21 L88.37 122.89 L88.52 123.56 L88.69 124.22 L88.87 124.88 L89.07 125.54 L89.27 126.19 L89.5 126.83 L89.73 127.46 L89.98 128.09 L90.24 128.71 L90.52 129.32 L90.81 129.93 L91.11 130.53 L91.42 131.12 L91.74 131.7 L92.08 132.27 L92.42 132.83 L92.78 133.38 L93.15 133.93 L93.53 134.46 L93.92 134.99 L94.32 135.5 L94.73 136 L95.15 136.5 L95.58 136.98 L96.02 137.45 L96.47 137.91 L96.93 138.36 L97.39 138.8 L97.86 139.23 L98.34 139.64 L98.83 140.05 L99.33 140.44 L99.83 140.82 L100.34 141.18 L100.86 141.54 L101.38 141.88 L101.91 142.21 L102.44 142.53 L102.98 142.83 L103.52 143.13 L104.07 143.4 L104.62 143.67 L105.18 143.92 L105.74 144.16 L106.3 144.39 L106.87 144.61 L107.44 144.81 L108.01 145 L108.59 145.17 L109.16 145.33 L109.74 145.48 L110.32 145.62 L110.9 145.74 L111.48 145.85 L112.07 145.95 L112.65 146.03 L113.23 146.1 L113.81 146.16 L114.39 146.2 L114.97 146.23 L115.55 146.25 L116.13 146.26 L116.7 146.25 L117.28 146.23 L117.85 146.2 L118.41 146.16 L118.98 146.1 L119.54 146.04 L120.1 145.95 L120.65 145.86 L121.2 145.76 L121.75 145.64 L122.29 145.52 L122.83 145.38 L123.36 145.23 L123.89 145.07 L124.41 144.89 L124.93 144.71 L125.44 144.52 L125.94 144.31 L126.44 144.1 L126.93 143.88 L127.42 143.64 L127.9 143.4 L128.37 143.14 L128.83 142.88 L129.29 142.61 L129.74 142.33 L130.18 142.04 L130.61 141.74 L131.04 141.43 L131.45 141.12 L131.86 140.79 L132.26 140.46 L132.65 140.12 L133.03 139.78 L133.4 139.43 L133.77 139.07 L134.12 138.7 L134.47 138.33 L134.8 137.95 L135.13 137.57 L135.44 137.18 L135.75 136.78 L136.05 136.38 L136.33 135.97 L136.61 135.56 L136.88 135.15 L137.13 134.73 L137.38 134.31 L137.62 133.88 L137.84 133.45 L138.06 133.02 L138.26 132.58 L138.46 132.14 L138.64 131.7 L138.81 131.26 L138.98 130.81 L139.13 130.36 L139.27 129.91 L139.4 129.46 L139.52 129.01 L139.64 128.56 L139.74 128.11 L139.83 127.65 L139.91 127.2 L139.98 126.75 L140.03 126.3 L140.08 125.84 L140.12 125.39 L140.15 124.94 L140.17 124.49 L140.18 124.05 L140.18 123.6 L140.17 123.16 L140.15 122.72 L140.12 122.28 L140.08 121.84 L140.03 121.41 L139.97 120.98 L139.9 120.55 L139.83 120.13 L139.74 119.71 L139.65 119.29 L139.54 118.88 L139.43 118.47 L139.31 118.06 L139.18 117.66 L139.05 117.27 L138.9 116.88 L138.75 116.49 L138.59 116.11 L138.42 115.74 L138.25 115.37 L138.06 115 L137.87 114.65 L137.68 114.29 L137.48 113.95 L137.27 113.6 L137.05 113.27 L136.83 112.94 L136.61 112.62 L136.38 112.3 L136.14 111.99 L135.89 111.68 L135.65 111.39 L135.39 111.09 L135.13 110.81 L134.87 110.53 L134.6 110.26 L134.33 110 L134.06 109.74 L133.78 109.49 L133.49 109.24 L133.2 109.01 L132.91 108.78 L132.62 108.55 L132.32 108.34 L132.02 108.13 L131.71 107.93 L131.4 107.74 L131.09 107.55 L130.78 107.37 L130.46 107.2 L130.15 107.03 L129.83 106.88 L129.51 106.73 L129.18 106.59 L128.86 106.45 L128.53 106.32 L128.2 106.2 L127.88 106.09 L127.55 105.99 L127.22 105.89 L126.89 105.8 L126.56 105.71 L126.22 105.64 L125.89 105.57 L125.56 105.51 L125.23 105.45 L124.9 105.41 L124.57 105.37 L124.24 105.33 L123.91 105.31 L123.58 105.29 L123.25 105.28 L122.93 105.27 L122.6 105.28 L122.28 105.29 L121.96 105.3 L121.64 105.33 L121.32 105.35 L121 105.39 L120.69 105.43 L120.38 105.48 L120.07 105.54 L119.76 105.6 L119.45 105.67 L119.15 105.74 L118.85 105.82 L118.56 105.91 L118.27 106 L117.98 106.1 L117.69 106.2 L117.41 106.31 L117.13 106.42 L116.85 106.55 L116.58 106.67 L116.31 106.8 L116.05 106.94 L115.79 107.08 L115.53 107.22 L115.28 107.38 L115.03 107.53 L114.79 107.69 L114.55 107.86 L114.32 108.03 L114.09 108.2 L113.86 108.38 L113.64 108.56 L113.43 108.74 L113.22 108.93 L113.01 109.13 L112.81 109.32 L112.61 109.52 L112.42 109.73 L112.24 109.93 L112.06 110.14 L111.88 110.36 L111.72 110.57 L111.55 110.79 L111.39 111.01 L111.24 111.23 L111.09 111.46 L110.95 111.69 L110.82 111.92 L110.69 112.15 L110.56 112.38 L110.44 112.62 L110.33 112.86 L110.22 113.1 L110.12 113.34 L110.02 113.58 L109.93 113.82 L109.84 114.06 L109.76 114.31 L109.69 114.55 L109.62 114.8 L109.56 115.04 L109.5 115.29 L109.45 115.53 L109.4 115.78 L109.36 116.02 L109.33 116.27 L109.3 116.52 L109.28 116.76 L109.26 117 L109.25 117.25 L109.24 117.49 L109.24 117.73 L109.24 117.97 L109.25 118.21 L109.27 118.45 L109.29 118.69 L109.31 118.92 L109.34 119.16 L109.38 119.39 L109.42 119.62 L109.46 119.85 L109.51 120.07 L109.57 120.29 L109.62 120.52 L109.69 120.74 L109.76 120.95 L109.83 121.17 L109.91 121.38 L109.99 121.58 L110.08 121.79 L110.17 121.99 L110.26 122.19 L110.36 122.39 L110.46 122.58 L110.57 122.77 L110.68 122.96 L110.8 123.14 L110.91 123.32 L111.04 123.49 L111.16 123.67 L111.29 123.83 L111.42 124 L111.55 124.16 L111.69 124.32 L111.83 124.47 L111.97 124.62 L112.12 124.76 L112.27 124.9 L112.42 125.04 L112.57 125.17 L112.73 125.3 L112.88 125.42 L113.04 125.54 L113.2 125.65 L113.37 125.76 L113.53 125.87 L113.7 125.97 L113.86 126.06 L114.03 126.16 L114.2 126.24 L114.37 126.33 L114.55 126.4 L114.72 126.48 L114.89 126.55 L115.07 126.61 L115.24 126.67 L115.41 126.73 L115.59 126.78 L115.76 126.82 L115.94 126.86 L116.11 126.9 L116.29 126.93 L116.46 126.96 L116.64 126.98 L116.81 127 L116.98 127.02 L117.15 127.03 L117.33 127.04 L117.5 127.04 L117.66 127.03 L117.83 127.03 L118 127.02 L118.16 127 L118.33 126.98 L118.49 126.96 L118.65 126.93 L118.8 126.9 L118.96 126.87 L119.11 126.83 L119.26 126.79 L119.41 126.74 L119.56 126.7 L119.7 126.64 L119.85 126.59 L119.99 126.53 L120.12 126.47 L120.26 126.4 L120.39 126.34 L120.51 126.26 L120.64 126.19 L120.76 126.11 L120.88 126.04 L121 125.95 L121.11 125.87 L121.22 125.79 L121.32 125.7 L121.43 125.61 L121.52 125.51 L121.62 125.42 L121.71 125.33 L121.8 125.23 L121.88 125.13 L121.97 125.03 L122.04 124.93 L122.12 124.83 L122.19 124.72 L122.25 124.62 L122.31 124.51 L122.37 124.41 L122.43 124.3 L122.48 124.19 L122.53 124.09 L122.57 123.98 L122.61 123.87 L122.65 123.76 L122.68 123.66 L122.71 123.55 L122.73 123.44 L122.75 123.34 L122.77 123.23 L122.79 123.13 L122.8 123.03 L122.8 122.92 L122.81 122.82 L122.81 122.72 L122.81 122.62 L122.8 122.53 L122.79 122.43 L122.78 122.34 L122.76 122.25 L122.74 122.16 L122.72 122.07 L122.7 121.98 L122.67 121.9 L122.64 121.82 L122.61 121.74 L122.58 121.67 L122.54 121.59 L122.5 121.52 L122.46 121.45 L122.42 121.39 L122.38 121.33 L122.33 121.27 L122.29 121.21 L122.24 121.16 A1 1 0 0 1 123.69 119.78 Z" fill="#7A1E2B" mask="url(#g-b1-color)"/>
</svg>