<svg xmlns="http://www.w3.org/2000/svg" viewBox="0 0 240 240" role="img" aria-label="Cmaa Kuyri Tile logo (mono)">
<defs><mask id="k-b2-mono">
  <rect width="240" height="240" fill="#fff"/>
  <path d="M120 38 L202 120 L120 202 L38 120 Z" fill="none" stroke="#000" stroke-width="1.7"/>
  <circle cx="120" cy="54" r="2.9" fill="#000"/><circle cx="186" cy="120" r="2.9" fill="#000"/><circle cx="120" cy="186" r="2.9" fill="#000"/><circle cx="54" cy="120" r="2.9" fill="#000"/>
  <path d="M116.84 119.66 L116.79 119.58 L116.75 119.49 L116.71 119.41 L116.67 119.32 L116.63 119.23 L116.59 119.14 L116.56 119.04 L116.53 118.95 L116.5 118.85 L116.48 118.76 L116.45 118.66 L116.43 118.56 L116.41 118.46 L116.39 118.36 L116.38 118.25 L116.37 118.15 L116.36 118.05 L116.35 117.94 L116.34 117.83 L116.34 117.72 L116.34 117.62 L116.34 117.51 L116.35 117.4 L116.36 117.29 L116.37 117.18 L116.38 117.06 L116.4 116.95 L116.42 116.84 L116.44 116.73 L116.46 116.61 L116.49 116.5 L116.52 116.38 L116.55 116.27 L116.59 116.16 L116.63 116.04 L116.67 115.93 L116.71 115.81 L116.76 115.7 L116.81 115.59 L116.87 115.47 L116.92 115.36 L116.98 115.25 L117.04 115.14 L117.11 115.02 L117.18 114.91 L117.25 114.8 L117.33 114.69 L117.4 114.59 L117.48 114.48 L117.57 114.37 L117.65 114.27 L117.74 114.16 L117.84 114.06 L117.93 113.96 L118.03 113.86 L118.13 113.76 L118.24 113.66 L118.35 113.57 L118.46 113.47 L118.57 113.38 L118.69 113.29 L118.81 113.2 L118.93 113.11 L119.05 113.03 L119.18 112.95 L119.31 112.87 L119.44 112.79 L119.58 112.72 L119.72 112.64 L119.86 112.57 L120 112.5 L120.15 112.44 L120.3 112.38 L120.45 112.32 L120.6 112.26 L120.76 112.21 L120.91 112.16 L121.07 112.11 L121.24 112.06 L121.4 112.02 L121.57 111.98 L121.73 111.95 L121.9 111.92 L122.08 111.89 L122.25 111.87 L122.43 111.84 L122.6 111.83 L122.78 111.81 L122.96 111.8 L123.14 111.8 L123.32 111.8 L123.51 111.8 L123.69 111.8 L123.88 111.81 L124.06 111.83 L124.25 111.85 L124.44 111.87 L124.63 111.89 L124.82 111.92 L125.01 111.96 L125.2 112 L125.39 112.04 L125.58 112.09 L125.78 112.14 L125.97 112.2 L126.16 112.26 L126.35 112.32 L126.54 112.39 L126.73 112.46 L126.92 112.54 L127.12 112.63 L127.3 112.71 L127.49 112.8 L127.68 112.9 L127.87 113 L128.05 113.11 L128.24 113.22 L128.42 113.33 L128.6 113.45 L128.79 113.57 L128.96 113.7 L129.14 113.83 L129.32 113.97 L129.49 114.11 L129.66 114.26 L129.83 114.41 L130 114.56 L130.17 114.72 L130.33 114.88 L130.49 115.05 L130.65 115.22 L130.8 115.4 L130.95 115.58 L131.1 115.76 L131.25 115.95 L131.39 116.14 L131.53 116.34 L131.67 116.54 L131.8 116.74 L131.93 116.95 L132.06 117.16 L132.18 117.38 L132.3 117.6 L132.41 117.82 L132.52 118.04 L132.63 118.27 L132.73 118.51 L132.83 118.74 L132.92 118.98 L133.01 119.22 L133.09 119.47 L133.17 119.72 L133.24 119.97 L133.31 120.22 L133.38 120.48 L133.44 120.73 L133.49 120.99 L133.54 121.26 L133.59 121.52 L133.63 121.79 L133.66 122.06 L133.69 122.33 L133.71 122.61 L133.73 122.88 L133.74 123.16 L133.75 123.44 L133.75 123.72 L133.75 124 L133.73 124.28 L133.72 124.56 L133.7 124.85 L133.67 125.13 L133.63 125.42 L133.59 125.7 L133.55 125.99 L133.49 126.28 L133.43 126.56 L133.37 126.85 L133.3 127.14 L133.22 127.42 L133.14 127.71 L133.05 127.99 L132.96 128.28 L132.85 128.56 L132.75 128.84 L132.63 129.13 L132.51 129.41 L132.39 129.69 L132.25 129.96 L132.11 130.24 L131.97 130.51 L131.82 130.79 L131.66 131.06 L131.5 131.33 L131.33 131.59 L131.15 131.86 L130.97 132.12 L130.78 132.38 L130.59 132.63 L130.39 132.88 L130.19 133.13 L129.98 133.38 L129.76 133.62 L129.54 133.86 L129.31 134.1 L129.07 134.33 L128.84 134.56 L128.59 134.78 L128.34 135 L128.09 135.22 L127.82 135.43 L127.56 135.63 L127.29 135.84 L127.01 136.03 L126.73 136.22 L126.45 136.41 L126.16 136.59 L125.86 136.77 L125.56 136.94 L125.26 137.11 L124.95 137.27 L124.64 137.42 L124.32 137.57 L124 137.71 L123.67 137.85 L123.35 137.98 L123.01 138.1 L122.68 138.22 L122.34 138.33 L122 138.44 L121.65 138.54 L121.3 138.63 L120.95 138.71 L120.6 138.79 L120.24 138.86 L119.88 138.93 L119.52 138.99 L119.16 139.04 L118.79 139.08 L118.42 139.11 L118.05 139.14 L117.68 139.16 L117.31 139.18 L116.93 139.18 L116.56 139.18 L116.18 139.17 L115.81 139.16 L115.43 139.13 L115.05 139.1 L114.67 139.06 L114.29 139.01 L113.91 138.96 L113.53 138.9 L113.15 138.83 L112.78 138.75 L112.4 138.66 L112.02 138.57 L111.65 138.47 L111.27 138.36 L110.9 138.24 L110.52 138.11 L110.15 137.98 L109.78 137.84 L109.42 137.69 L109.05 137.54 L108.69 137.37 L108.33 137.2 L107.97 137.02 L107.62 136.84 L107.27 136.64 L106.92 136.44 L106.57 136.23 L106.23 136.01 L105.89 135.79 L105.56 135.56 L105.22 135.32 L104.9 135.07 L104.57 134.82 L104.26 134.56 L103.94 134.29 L103.63 134.02 L103.33 133.74 L103.03 133.45 L102.73 133.16 L102.45 132.86 L102.16 132.55 L101.88 132.24 L101.61 131.92 L101.34 131.59 L101.08 131.26 L100.83 130.93 L100.58 130.58 L100.34 130.24 L100.1 129.88 L99.87 129.52 L99.65 129.16 L99.43 128.79 L99.22 128.42 L99.01 128.04 L98.82 127.66 L98.63 127.27 L98.45 126.88 L98.27 126.48 L98.1 126.08 L97.94 125.67 L97.79 125.27 L97.64 124.85 L97.5 124.44 L97.37 124.02 L97.25 123.59 L97.14 123.17 L97.03 122.74 L96.93 122.31 L96.84 121.87 L96.76 121.44 L96.69 121 L96.62 120.56 L96.56 120.11 L96.51 119.67 L96.47 119.22 L96.44 118.77 L96.42 118.32 L96.41 117.87 L96.4 117.41 L96.4 116.96 L96.41 116.5 L96.44 116.05 L96.46 115.59 L96.5 115.14 L96.55 114.68 L96.61 114.22 L96.67 113.77 L96.74 113.31 L96.83 112.86 L96.92 112.4 L97.02 111.95 L97.13 111.5 L97.25 111.05 L97.37 110.6 L97.51 110.15 L97.66 109.7 L97.81 109.26 L97.97 108.82 L98.14 108.38 L98.32 107.94 L98.51 107.5 L98.71 107.07 L98.92 106.64 L99.13 106.22 L99.35 105.8 L99.59 105.38 L99.83 104.96 L100.07 104.55 L100.33 104.15 L100.6 103.74 L100.87 103.34 L101.15 102.95 L101.44 102.56 L101.74 102.18 L102.04 101.8 L102.36 101.43 L102.68 101.06 L103.01 100.69 L103.34 100.34 L103.69 99.98 L104.04 99.64 L104.4 99.3 L104.76 98.97 L105.13 98.64 L105.51 98.32 L105.9 98.01 L106.29 97.7 L106.69 97.4 L107.1 97.11 L107.51 96.82 L107.93 96.55 L108.35 96.28 L108.78 96.01 L109.22 95.76 L109.66 95.51 L110.11 95.27 L110.56 95.04 L111.02 94.82 L111.48 94.61 L111.94 94.4 L112.42 94.21 L112.89 94.02 L113.37 93.84 L113.86 93.67 L114.35 93.51 L114.84 93.36 L115.34 93.21 L115.84 93.08 L116.34 92.96 L116.85 92.84 L117.36 92.74 L117.87 92.64 L118.39 92.55 L118.91 92.48 L119.43 92.41 L119.95 92.35 L120.47 92.31 L121 92.27 L121.53 92.24 L122.05 92.23 L122.58 92.22 L123.12 92.23 L123.65 92.24 L124.18 92.26 L124.71 92.3 L125.25 92.34 L125.78 92.4 L126.31 92.46 L126.84 92.54 L127.38 92.62 L127.91 92.72 L128.44 92.82 L128.96 92.94 L129.49 93.07 L130.02 93.2 L130.54 93.35 L131.06 93.51 L131.58 93.68 L132.1 93.85 L132.62 94.04 L133.13 94.24 L133.64 94.45 L134.14 94.67 L134.64 94.9 L135.14 95.13 L135.64 95.38 L136.13 95.64 L136.61 95.91 L137.1 96.18 L137.58 96.47 L138.05 96.77 L138.52 97.07 L138.98 97.39 L139.44 97.72 L139.89 98.05 L140.33 98.39 L140.78 98.74 L141.21 99.11 L141.64 99.48 L142.06 99.85 L142.47 100.24 L142.88 100.64 L143.28 101.04 L143.68 101.46 L144.07 101.88 L144.44 102.3 L144.82 102.74 L145.18 103.19 L145.54 103.64 L145.88 104.1 L146.22 104.56 L146.56 105.04 L146.88 105.52 L147.19 106.01 L147.5 106.5 L147.79 107 L148.08 107.51 L148.36 108.02 L148.63 108.54 L148.89 109.07 L149.14 109.6 L149.38 110.13 L149.6 110.68 L149.82 111.22 L150.03 111.77 L150.23 112.33 L150.42 112.89 L150.6 113.46 L150.77 114.03 L150.93 114.6 L151.07 115.18 L151.21 115.76 L151.33 116.35 L151.45 116.93 L151.55 117.53 L151.64 118.12 L151.72 118.72 L151.79 119.31 L151.85 119.92 L151.89 120.52 L151.93 121.12 L151.95 121.73 L151.97 122.34 L151.97 122.94 L151.96 123.55 L151.93 124.16 L151.9 124.77 L151.85 125.38 L151.79 125.99 L151.73 126.6 L151.64 127.21 L151.55 127.82 L151.45 128.43 L151.33 129.04 L151.2 129.64 L151.06 130.25 L150.91 130.85 L150.75 131.45 L150.57 132.05 L150.39 132.64 L150.19 133.23 L149.98 133.82 L149.76 134.41 L149.53 134.99 L149.28 135.57 L149.03 136.15 L148.76 136.72 L148.48 137.28 L148.19 137.85 L147.89 138.4 L147.58 138.95 L147.26 139.5 L146.93 140.04 L146.59 140.58 L146.23 141.11 L145.87 141.63 L145.49 142.15 L145.11 142.66 L144.71 143.17 L144.3 143.67 L143.89 144.16 L143.46 144.64 L143.03 145.12 L142.58 145.59 L142.13 146.05 L141.66 146.5 L141.19 146.94 L140.71 147.38 L140.22 147.81 L139.72 148.23 L139.21 148.63 L138.69 149.03 L138.17 149.43 L137.63 149.81 L137.09 150.18 L136.54 150.54 L135.99 150.89 L135.42 151.23 L134.85 151.57 L134.27 151.89 L133.69 152.2 L133.1 152.5 L132.5 152.79 L131.89 153.06 L131.28 153.33 L130.67 153.59 L130.05 153.83 L129.42 154.06 L128.79 154.28 L128.15 154.49 L127.51 154.69 L126.86 154.88 L126.21 155.05 L125.55 155.21 L124.9 155.36 L124.23 155.49 L123.57 155.62 L122.9 155.73 L122.23 155.83 L121.55 155.91 L120.87 155.99 L120.19 156.05 L119.51 156.1 L118.83 156.13 L118.14 156.15 L117.46 156.16 L116.77 156.16 L116.08 156.14 L115.4 156.11 L114.71 156.07 L114.02 156.01 L113.33 155.94 L112.64 155.86 L111.96 155.76 L111.27 155.65 L110.59 155.53 L109.9 155.4 L109.22 155.25 L108.54 155.09 L107.87 154.91 L107.19 154.72 L106.52 154.52 L105.85 154.31 L105.18 154.08 L104.52 153.84 L103.86 153.59 L103.21 153.32 L102.56 153.05 L101.92 152.75 L101.28 152.45 L100.64 152.14 L100.01 151.81 L99.39 151.47 L98.77 151.11 L98.15 150.75 L97.55 150.37 L96.95 149.98 L96.35 149.58 L95.77 149.17 L95.19 148.74 L94.61 148.31 L94.05 147.86 L93.49 147.4 L92.95 146.93 L92.41 146.45 L91.87 145.96 L91.35 145.46 L90.84 144.95 L90.33 144.42 L89.84 143.89 L89.35 143.35 L88.87 142.79 L88.41 142.23 L87.95 141.66 L87.51 141.08 L87.07 140.49 L86.65 139.89 L86.23 139.28 L85.83 138.66 L85.44 138.04 L85.06 137.41 L84.69 136.77 L84.34 136.12 L83.99 135.46 L83.66 134.8 L83.34 134.13 L83.03 133.45 L82.74 132.77 L82.46 132.08 L82.19 131.38 L81.93 130.68 L81.68 129.97 L81.45 129.26 L81.24 128.54 L81.03 127.82 L80.84 127.09 L80.67 126.36 L80.5 125.62 L80.35 124.88 L80.22 124.14 L80.1 123.39 L79.99 122.64 L79.9 121.88 L79.82 121.13 L79.75 120.37 L79.7 119.61 L79.67 118.85 L79.64 118.09 L79.64 117.32 L79.65 116.55 L79.67 115.79 L79.7 115.02 L79.75 114.26 L79.82 113.49 L79.9 112.72 L80 111.96 L80.1 111.19 L80.23 110.43 L80.37 109.67 L80.52 108.91 L80.69 108.15 L80.87 107.4 L81.07 106.64 L81.28 105.89 L81.51 105.15 L81.75 104.4 L82 103.66 L82.27 102.93 L82.55 102.2 L82.85 101.47 L83.16 100.75 L83.49 100.04 L83.83 99.33 L84.18 98.62 L84.55 97.92 L84.93 97.23 L85.32 96.54 L85.73 95.86 L86.15 95.19 L86.58 94.53 L87.03 93.87 L87.49 93.22 L87.96 92.58 L88.45 91.94 L88.95 91.32 L89.46 90.7 L89.98 90.1 L90.51 89.5 L91.06 88.91 L91.62 88.33 L92.19 87.76 L92.77 87.21 L93.36 86.66 L93.96 86.12 L94.58 85.6 L95.2 85.08 L95.84 84.58 L96.48 84.09 L97.14 83.61 L97.8 83.14 L98.47 82.68 L99.16 82.24 L99.85 81.81 L100.55 81.39 L101.26 80.98 L101.98 80.59 L102.71 80.21 L103.44 79.84 L104.18 79.49 L104.93 79.15 L105.69 78.83 L106.45 78.52 L107.22 78.22 L108 77.94 L108.78 77.67 L109.57 77.42 L110.37 77.18 L111.17 76.96 L111.97 76.75 L112.78 76.55 L113.59 76.37 L114.41 76.21 L115.23 76.06 L116.06 75.93 L116.89 75.81 L117.72 75.71 L118.55 75.63 L119.39 75.56 L120.23 75.5 L121.07 75.46 L121.91 75.44 L122.75 75.44 L123.6 75.44 L124.44 75.47 L125.29 75.51 L126.13 75.57 L126.98 75.64 L127.82 75.73 L128.67 75.84 L129.51 75.96 L130.35 76.1 L131.19 76.25 L132.03 76.42 L132.86 76.61 L133.69 76.81 L134.52 77.03 L135.35 77.26 L136.17 77.51 L136.98 77.78 L137.8 78.06 L138.61 78.36 L139.41 78.67 L140.21 79 L141 79.34 L141.79 79.7 L142.57 80.07 L143.35 80.46 L144.11 80.87 L144.87 81.29 L145.63 81.72 L146.38 82.17 L147.11 82.63 L147.84 83.11 L148.57 83.6 L149.28 84.11 L149.98 84.63 L150.68 85.16 L151.37 85.71 L152.04 86.27 L152.71 86.85 L153.36 87.43 L154.01 88.04 L154.64 88.65 L155.27 89.27 L155.88 89.91 L156.48 90.56 L157.07 91.23 L157.64 91.9 L158.21 92.59 L158.76 93.28 L159.3 93.99 L159.83 94.71 L160.34 95.44 L160.84 96.18 L161.33 96.93 L161.8 97.69 L162.26 98.46 L162.7 99.24 L163.13 100.02 L163.55 100.82 L163.95 101.63 L164.33 102.44 L164.7 103.26 L165.06 104.09 L165.4 104.93 L165.72 105.77 L166.03 106.62 L166.33 107.48 L166.6 108.34 L166.86 109.21 L167.11 110.09 L167.34 110.97 L167.55 111.86 L167.74 112.75 L167.92 113.64 L168.08 114.54 L168.23 115.44 L168.36 116.35 L168.47 117.26 L168.56 118.17 L168.64 119.09 L168.7 120.01 L168.74 120.93 L168.76 121.85 L168.77 122.77 L168.76 123.69 L168.73 124.62 L168.68 125.54 L168.62 126.46 L168.54 127.39 L168.44 128.31 L168.33 129.23 L168.19 130.15 L168.04 131.07 L167.88 131.99 L167.69 132.9 L167.49 133.81 L167.27 134.72 L167.03 135.63 L166.77 136.53 L166.5 137.42 L166.21 138.32 L165.9 139.2 L165.58 140.09 L165.24 140.96 L164.88 141.84 L164.5 142.7 L164.11 143.56 L163.7 144.41 L163.28 145.26 L162.84 146.1 L162.38 146.93 L161.91 147.75 L161.42 148.56 L160.91 149.37 L160.39 150.17 L159.86 150.95 L159.31 151.73 L158.74 152.5 L158.16 153.26 L157.56 154.01 L156.95 154.74 L156.32 155.47 L155.68 156.18 L155.03 156.89 L154.36 157.58 L153.68 158.26 L152.99 158.92 L152.28 159.58 L151.56 160.22 L150.82 160.85 L150.08 161.46 L149.32 162.07 L148.55 162.65 L147.77 163.23 L146.97 163.79 L146.17 164.33 L145.35 164.86 L144.53 165.37 L143.69 165.87 L142.84 166.36 L141.98 166.83 L141.12 167.28 L140.24 167.71 L139.36 168.13 L138.47 168.54 L137.56 168.93 L136.65 169.3 L135.74 169.65 L134.81 169.99 L133.88 170.31 L132.94 170.61 L132 170.89 L131.04 171.16 L130.09 171.41 L129.13 171.64 L128.16 171.85 L127.19 172.05 L126.21 172.22 L125.23 172.38 L124.24 172.52 L123.25 172.64 L122.26 172.74 L121.27 172.83 L120.27 172.89 A4.9 4.9 0 0 1 119.73 163.11 L120.54 163.05 L121.35 162.99 L122.15 162.9 L122.96 162.8 L123.76 162.69 L124.56 162.56 L125.35 162.42 L126.14 162.26 L126.93 162.09 L127.71 161.9 L128.49 161.7 L129.26 161.48 L130.03 161.25 L130.79 161 L131.55 160.75 L132.3 160.47 L133.04 160.19 L133.78 159.88 L134.51 159.57 L135.24 159.24 L135.95 158.9 L136.66 158.55 L137.37 158.18 L138.06 157.8 L138.75 157.41 L139.42 157.01 L140.09 156.59 L140.75 156.16 L141.41 155.72 L142.05 155.27 L142.68 154.8 L143.3 154.33 L143.92 153.84 L144.52 153.35 L145.11 152.84 L145.7 152.32 L146.27 151.79 L146.83 151.25 L147.38 150.7 L147.92 150.15 L148.45 149.58 L148.96 149 L149.47 148.42 L149.96 147.82 L150.44 147.22 L150.91 146.61 L151.37 145.99 L151.81 145.36 L152.24 144.73 L152.66 144.09 L153.07 143.44 L153.46 142.78 L153.84 142.12 L154.21 141.45 L154.56 140.78 L154.91 140.1 L155.23 139.41 L155.55 138.72 L155.85 138.03 L156.14 137.33 L156.41 136.62 L156.67 135.91 L156.92 135.2 L157.15 134.49 L157.37 133.77 L157.57 133.04 L157.76 132.32 L157.94 131.59 L158.1 130.86 L158.25 130.13 L158.39 129.39 L158.51 128.66 L158.62 127.92 L158.71 127.18 L158.79 126.44 L158.85 125.7 L158.9 124.97 L158.94 124.23 L158.96 123.49 L158.97 122.75 L158.96 122.01 L158.94 121.28 L158.91 120.54 L158.86 119.81 L158.8 119.08 L158.73 118.35 L158.64 117.63 L158.54 116.9 L158.42 116.18 L158.29 115.47 L158.15 114.75 L158 114.04 L157.83 113.34 L157.65 112.64 L157.45 111.94 L157.24 111.25 L157.02 110.56 L156.79 109.88 L156.54 109.2 L156.29 108.53 L156.02 107.87 L155.73 107.21 L155.44 106.55 L155.13 105.91 L154.81 105.27 L154.48 104.64 L154.14 104.01 L153.79 103.39 L153.43 102.78 L153.05 102.18 L152.67 101.59 L152.27 101 L151.87 100.42 L151.45 99.85 L151.02 99.29 L150.58 98.74 L150.14 98.2 L149.68 97.67 L149.22 97.14 L148.74 96.63 L148.26 96.12 L147.77 95.63 L147.26 95.15 L146.76 94.67 L146.24 94.21 L145.71 93.75 L145.18 93.31 L144.64 92.88 L144.09 92.46 L143.53 92.05 L142.97 91.65 L142.4 91.26 L141.83 90.89 L141.25 90.52 L140.66 90.17 L140.07 89.83 L139.47 89.5 L138.86 89.18 L138.25 88.87 L137.64 88.58 L137.02 88.3 L136.4 88.03 L135.77 87.77 L135.14 87.52 L134.51 87.29 L133.87 87.07 L133.23 86.86 L132.58 86.67 L131.94 86.48 L131.29 86.31 L130.64 86.15 L129.98 86.01 L129.33 85.87 L128.67 85.75 L128.01 85.65 L127.35 85.55 L126.7 85.47 L126.04 85.4 L125.38 85.34 L124.72 85.3 L124.06 85.26 L123.4 85.24 L122.74 85.24 L122.08 85.24 L121.42 85.26 L120.77 85.29 L120.11 85.33 L119.46 85.38 L118.81 85.45 L118.16 85.53 L117.52 85.62 L116.88 85.72 L116.24 85.84 L115.6 85.97 L114.97 86.11 L114.34 86.26 L113.72 86.42 L113.1 86.59 L112.48 86.78 L111.87 86.97 L111.26 87.18 L110.66 87.4 L110.06 87.63 L109.47 87.87 L108.88 88.12 L108.3 88.38 L107.73 88.66 L107.16 88.94 L106.6 89.23 L106.04 89.54 L105.49 89.85 L104.95 90.17 L104.42 90.51 L103.89 90.85 L103.37 91.2 L102.86 91.56 L102.35 91.93 L101.85 92.31 L101.36 92.7 L100.88 93.1 L100.41 93.5 L99.95 93.92 L99.49 94.34 L99.04 94.77 L98.6 95.2 L98.18 95.65 L97.76 96.1 L97.34 96.56 L96.94 97.03 L96.55 97.5 L96.17 97.98 L95.8 98.46 L95.43 98.96 L95.08 99.46 L94.74 99.96 L94.41 100.47 L94.08 100.98 L93.77 101.5 L93.47 102.03 L93.18 102.56 L92.9 103.09 L92.63 103.63 L92.37 104.17 L92.12 104.72 L91.88 105.27 L91.66 105.83 L91.44 106.38 L91.24 106.94 L91.04 107.51 L90.86 108.07 L90.69 108.64 L90.53 109.21 L90.38 109.79 L90.24 110.36 L90.11 110.94 L89.99 111.52 L89.89 112.09 L89.79 112.67 L89.71 113.25 L89.64 113.84 L89.58 114.42 L89.53 115 L89.49 115.58 L89.46 116.16 L89.44 116.74 L89.44 117.32 L89.44 117.9 L89.46 118.48 L89.49 119.05 L89.52 119.63 L89.57 120.2 L89.63 120.77 L89.7 121.34 L89.78 121.91 L89.88 122.47 L89.98 123.03 L90.09 123.59 L90.21 124.15 L90.35 124.7 L90.49 125.25 L90.64 125.79 L90.81 126.33 L90.98 126.87 L91.16 127.4 L91.36 127.93 L91.56 128.45 L91.77 128.97 L91.99 129.48 L92.22 129.99 L92.46 130.49 L92.71 130.99 L92.97 131.48 L93.24 131.97 L93.51 132.45 L93.8 132.92 L94.09 133.39 L94.39 133.85 L94.7 134.3 L95.02 134.75 L95.34 135.19 L95.67 135.62 L96.01 136.05 L96.36 136.47 L96.72 136.88 L97.08 137.29 L97.45 137.68 L97.82 138.07 L98.2 138.45 L98.59 138.83 L98.99 139.19 L99.39 139.55 L99.8 139.9 L100.21 140.24 L100.63 140.57 L101.05 140.89 L101.48 141.21 L101.92 141.51 L102.36 141.81 L102.8 142.1 L103.25 142.38 L103.7 142.65 L104.16 142.91 L104.62 143.16 L105.09 143.4 L105.56 143.64 L106.03 143.86 L106.5 144.07 L106.98 144.28 L107.46 144.47 L107.95 144.66 L108.44 144.84 L108.92 145 L109.42 145.16 L109.91 145.31 L110.4 145.45 L110.9 145.57 L111.4 145.69 L111.9 145.8 L112.4 145.9 L112.9 145.99 L113.4 146.07 L113.91 146.14 L114.41 146.2 L114.91 146.25 L115.42 146.29 L115.92 146.33 L116.42 146.35 L116.92 146.36 L117.42 146.36 L117.92 146.36 L118.42 146.34 L118.92 146.31 L119.41 146.28 L119.91 146.24 L120.4 146.18 L120.89 146.12 L121.38 146.05 L121.86 145.97 L122.35 145.88 L122.83 145.78 L123.31 145.67 L123.78 145.55 L124.25 145.43 L124.72 145.29 L125.18 145.15 L125.64 145 L126.1 144.84 L126.55 144.67 L127 144.5 L127.45 144.31 L127.89 144.12 L128.32 143.92 L128.75 143.71 L129.18 143.5 L129.6 143.27 L130.01 143.04 L130.42 142.81 L130.83 142.56 L131.23 142.31 L131.62 142.05 L132.01 141.78 L132.39 141.51 L132.77 141.23 L133.14 140.94 L133.5 140.65 L133.86 140.35 L134.21 140.05 L134.55 139.74 L134.89 139.42 L135.22 139.1 L135.54 138.77 L135.86 138.44 L136.17 138.1 L136.47 137.75 L136.77 137.4 L137.05 137.05 L137.34 136.69 L137.61 136.33 L137.87 135.96 L138.13 135.59 L138.38 135.22 L138.63 134.84 L138.86 134.45 L139.09 134.07 L139.31 133.68 L139.52 133.28 L139.72 132.89 L139.92 132.49 L140.11 132.09 L140.29 131.68 L140.46 131.27 L140.62 130.86 L140.78 130.45 L140.92 130.04 L141.06 129.62 L141.19 129.21 L141.32 128.79 L141.43 128.37 L141.54 127.95 L141.63 127.52 L141.72 127.1 L141.8 126.68 L141.88 126.25 L141.94 125.83 L142 125.4 L142.05 124.98 L142.09 124.55 L142.12 124.13 L142.14 123.71 L142.16 123.28 L142.17 122.86 L142.17 122.44 L142.16 122.02 L142.14 121.6 L142.12 121.18 L142.09 120.76 L142.05 120.35 L142 119.93 L141.94 119.52 L141.88 119.11 L141.81 118.71 L141.73 118.3 L141.64 117.9 L141.55 117.5 L141.45 117.1 L141.34 116.71 L141.23 116.32 L141.1 115.93 L140.97 115.54 L140.84 115.16 L140.7 114.79 L140.55 114.41 L140.39 114.04 L140.22 113.68 L140.06 113.31 L139.88 112.96 L139.7 112.6 L139.51 112.25 L139.31 111.91 L139.11 111.57 L138.9 111.23 L138.69 110.9 L138.47 110.58 L138.25 110.26 L138.02 109.94 L137.78 109.63 L137.54 109.32 L137.3 109.02 L137.05 108.73 L136.79 108.44 L136.53 108.16 L136.26 107.88 L135.99 107.61 L135.72 107.34 L135.44 107.08 L135.16 106.83 L134.87 106.58 L134.58 106.34 L134.29 106.1 L133.99 105.87 L133.69 105.65 L133.38 105.43 L133.07 105.22 L132.76 105.02 L132.45 104.82 L132.13 104.63 L131.81 104.45 L131.49 104.27 L131.16 104.1 L130.83 103.94 L130.5 103.78 L130.17 103.63 L129.84 103.48 L129.5 103.34 L129.16 103.21 L128.82 103.09 L128.48 102.97 L128.14 102.86 L127.8 102.76 L127.46 102.66 L127.11 102.57 L126.77 102.49 L126.42 102.41 L126.07 102.34 L125.73 102.28 L125.38 102.23 L125.03 102.18 L124.69 102.13 L124.34 102.1 L123.99 102.07 L123.65 102.05 L123.3 102.03 L122.96 102.02 L122.61 102.02 L122.27 102.03 L121.93 102.04 L121.59 102.05 L121.25 102.08 L120.91 102.11 L120.57 102.14 L120.24 102.19 L119.91 102.24 L119.58 102.29 L119.25 102.35 L118.92 102.42 L118.6 102.49 L118.28 102.57 L117.96 102.66 L117.64 102.75 L117.33 102.85 L117.01 102.95 L116.71 103.06 L116.4 103.17 L116.1 103.29 L115.8 103.41 L115.5 103.54 L115.21 103.68 L114.92 103.82 L114.64 103.96 L114.36 104.11 L114.08 104.27 L113.8 104.43 L113.53 104.59 L113.27 104.76 L113.01 104.94 L112.75 105.12 L112.5 105.3 L112.25 105.48 L112 105.68 L111.76 105.87 L111.53 106.07 L111.29 106.27 L111.07 106.48 L110.85 106.69 L110.63 106.9 L110.42 107.12 L110.21 107.34 L110.01 107.56 L109.81 107.79 L109.62 108.02 L109.43 108.25 L109.25 108.49 L109.07 108.73 L108.9 108.97 L108.73 109.21 L108.57 109.46 L108.41 109.71 L108.26 109.96 L108.11 110.21 L107.97 110.46 L107.84 110.72 L107.71 110.98 L107.58 111.24 L107.46 111.5 L107.35 111.76 L107.24 112.02 L107.14 112.29 L107.04 112.55 L106.95 112.82 L106.86 113.09 L106.78 113.35 L106.7 113.62 L106.63 113.89 L106.57 114.16 L106.51 114.43 L106.45 114.7 L106.4 114.97 L106.36 115.24 L106.32 115.51 L106.29 115.78 L106.26 116.05 L106.24 116.32 L106.22 116.58 L106.21 116.85 L106.2 117.12 L106.2 117.38 L106.2 117.65 L106.21 117.91 L106.23 118.18 L106.24 118.44 L106.27 118.7 L106.29 118.96 L106.33 119.21 L106.37 119.47 L106.41 119.72 L106.46 119.97 L106.51 120.22 L106.56 120.47 L106.63 120.72 L106.69 120.96 L106.76 121.2 L106.83 121.44 L106.91 121.68 L107 121.91 L107.08 122.14 L107.17 122.37 L107.27 122.6 L107.37 122.82 L107.47 123.04 L107.58 123.26 L107.69 123.48 L107.8 123.69 L107.92 123.9 L108.04 124.11 L108.17 124.31 L108.29 124.51 L108.43 124.7 L108.56 124.9 L108.7 125.09 L108.84 125.27 L108.98 125.45 L109.13 125.63 L109.28 125.81 L109.43 125.98 L109.59 126.15 L109.74 126.31 L109.9 126.48 L110.06 126.63 L110.23 126.79 L110.39 126.94 L110.56 127.09 L110.73 127.23 L110.9 127.37 L111.07 127.51 L111.25 127.64 L111.42 127.77 L111.6 127.89 L111.78 128.01 L111.96 128.13 L112.15 128.25 L112.33 128.36 L112.51 128.46 L112.7 128.57 L112.89 128.66 L113.08 128.76 L113.27 128.85 L113.46 128.94 L113.65 129.02 L113.84 129.1 L114.03 129.18 L114.22 129.25 L114.42 129.32 L114.61 129.38 L114.8 129.45 L115 129.5 L115.19 129.56 L115.39 129.61 L115.58 129.65 L115.78 129.7 L115.97 129.73 L116.17 129.77 L116.36 129.8 L116.56 129.83 L116.75 129.85 L116.95 129.87 L117.14 129.89 L117.33 129.9 L117.53 129.91 L117.72 129.92 L117.91 129.92 L118.1 129.92 L118.29 129.92 L118.48 129.91 L118.67 129.9 L118.86 129.88 L119.04 129.87 L119.23 129.84 L119.41 129.82 L119.6 129.79 L119.78 129.76 L119.96 129.73 L120.14 129.69 L120.32 129.65 L120.49 129.61 L120.67 129.56 L120.84 129.51 L121.01 129.46 L121.18 129.4 L121.35 129.34 L121.52 129.28 L121.68 129.22 L121.85 129.15 L122.01 129.08 L122.17 129.01 L122.33 128.93 L122.48 128.86 L122.64 128.78 L122.79 128.69 L122.94 128.61 L123.08 128.52 L123.23 128.43 L123.37 128.34 L123.51 128.24 L123.65 128.15 L123.79 128.05 L123.92 127.95 L124.05 127.84 L124.18 127.74 L124.31 127.63 L124.43 127.52 L124.56 127.41 L124.67 127.3 L124.79 127.18 L124.91 127.07 L125.02 126.95 L125.13 126.83 L125.23 126.71 L125.34 126.58 L125.44 126.46 L125.54 126.33 L125.63 126.21 L125.72 126.08 L125.81 125.95 L125.9 125.82 L125.99 125.68 L126.07 125.55 L126.15 125.42 L126.22 125.28 L126.3 125.15 L126.37 125.01 L126.43 124.87 L126.5 124.73 L126.56 124.59 L126.62 124.45 L126.68 124.31 L126.73 124.17 L126.78 124.03 L126.83 123.89 L126.87 123.75 L126.91 123.61 L126.95 123.46 L126.99 123.32 L127.02 123.18 L127.05 123.03 L127.08 122.89 L127.1 122.75 L127.13 122.6 L127.15 122.46 L127.16 122.32 L127.18 122.18 L127.19 122.03 L127.19 121.89 L127.2 121.75 L127.2 121.61 L127.2 121.47 L127.2 121.33 L127.19 121.19 L127.18 121.05 L127.17 120.91 L127.16 120.78 L127.14 120.64 L127.13 120.51 L127.1 120.37 L127.08 120.24 L127.05 120.11 L127.03 119.97 L126.99 119.84 L126.96 119.71 L126.92 119.59 L126.89 119.46 L126.85 119.33 L126.8 119.21 L126.76 119.09 L126.71 118.97 L126.66 118.85 L126.61 118.73 L126.55 118.61 L126.5 118.5 L126.44 118.38 L126.38 118.27 L126.32 118.16 L126.26 118.05 L126.19 117.94 L126.12 117.84 L126.05 117.73 L125.98 117.63 L125.91 117.53 L125.83 117.44 L125.76 117.34 L125.68 117.25 L125.6 117.15 L125.52 117.06 L125.44 116.98 L125.36 116.89 L125.27 116.81 L125.18 116.73 L125.1 116.65 L125.01 116.57 L124.92 116.49 L124.83 116.42 L124.74 116.35 L124.64 116.28 L124.55 116.22 L124.45 116.15 L124.36 116.09 L124.26 116.03 L124.17 115.97 L124.07 115.92 L123.97 115.87 L123.87 115.82 L123.77 115.77 L123.67 115.72 L123.57 115.68 L123.47 115.64 L123.37 115.6 L123.27 115.56 L123.17 115.53 L123.07 115.5 L122.96 115.47 L122.86 115.44 L122.76 115.42 L122.66 115.4 L122.56 115.38 L122.46 115.36 L122.36 115.34 L122.25 115.33 L122.15 115.32 L122.05 115.31 L121.95 115.3 L121.85 115.3 L121.76 115.3 L121.66 115.3 L121.56 115.3 L121.46 115.3 L121.37 115.31 L121.27 115.32 L121.18 115.33 L121.08 115.34 L120.99 115.36 L120.9 115.37 L120.81 115.39 L120.72 115.41 L120.63 115.44 L120.54 115.46 L120.46 115.49 L120.37 115.51 L120.29 115.54 L120.2 115.57 L120.12 115.61 L120.04 115.64 L119.96 115.68 L119.89 115.71 L119.81 115.75 L119.74 115.79 L119.66 115.84 L119.59 115.88 L119.52 115.92 L119.46 115.97 L119.39 116.02 L119.32 116.06 L119.26 116.11 L119.2 116.16 L119.14 116.22 L119.08 116.27 L119.03 116.32 L118.97 116.38 L118.92 116.43 L118.87 116.49 L118.82 116.54 L118.78 116.6 L118.73 116.66 L118.69 116.72 L118.65 116.78 L118.61 116.84 L118.57 116.9 L118.54 116.96 L118.51 117.02 L118.47 117.08 L118.45 117.14 L118.42 117.2 L118.39 117.26 L118.37 117.32 L118.35 117.38 L118.33 117.44 L118.31 117.5 L118.29 117.56 L118.28 117.62 L118.27 117.68 L118.26 117.74 L118.25 117.8 L118.24 117.86 L118.24 117.91 L118.23 117.97 L118.23 118.03 L118.23 118.08 L118.23 118.14 L118.24 118.19 L118.24 118.24 L118.25 118.3 L118.26 118.35 L118.27 118.4 L118.28 118.45 L118.29 118.49 L118.3 118.54 L118.32 118.59 L118.33 118.63 L118.35 118.67 L118.37 118.71 L118.39 118.75 L118.41 118.79 A0.9 0.9 0 0 1 116.84 119.66 Z" fill="#000"/>
</mask></defs>
<path d="M120 24 L216 120 L120 216 L24 120 Z" fill="#33241A" mask="url(#k-b2-mono)"/>

</svg>