<svg xmlns="http://www.w3.org/2000/svg" viewBox="0 0 240 240" role="img" aria-label="Cmaa Spiral Sun logo (mono)">
<defs><mask id="s-b3-mono">
  <rect width="240" height="240" fill="#fff"/>
  <path d="M120 118 L120.03 117.96 L120.06 117.93 L120.1 117.89 L120.13 117.86 L120.17 117.83 L120.2 117.79 L120.24 117.76 L120.28 117.73 L120.32 117.7 L120.36 117.67 L120.4 117.64 L120.45 117.61 L120.49 117.58 L120.53 117.55 L120.58 117.53 L120.63 117.5 L120.67 117.47 L120.72 117.45 L120.77 117.43 L120.82 117.41 L120.87 117.38 L120.93 117.36 L120.98 117.34 L121.03 117.33 L121.09 117.31 L121.14 117.29 L121.2 117.28 L121.26 117.26 L121.31 117.25 L121.37 117.24 L121.43 117.23 L121.49 117.22 L121.55 117.21 L121.61 117.2 L121.67 117.2 L121.73 117.19 L121.8 117.19 L121.86 117.19 L121.92 117.19 L121.99 117.19 L122.05 117.19 L122.11 117.19 L122.18 117.19 L122.24 117.2 L122.31 117.21 L122.38 117.22 L122.44 117.22 L122.51 117.24 L122.58 117.25 L122.64 117.26 L122.71 117.28 L122.78 117.29 L122.85 117.31 L122.91 117.33 L122.98 117.35 L123.05 117.38 L123.12 117.4 L123.18 117.43 L123.25 117.45 L123.32 117.48 L123.39 117.51 L123.45 117.54 L123.52 117.57 L123.59 117.61 L123.65 117.65 L123.72 117.68 L123.79 117.72 L123.85 117.76 L123.92 117.8 L123.98 117.85 L124.05 117.89 L124.11 117.94 L124.18 117.99 L124.24 118.03 L124.3 118.08 L124.36 118.14 L124.42 118.19 L124.49 118.25 L124.55 118.3 L124.61 118.36 L124.66 118.42 L124.72 118.48 L124.78 118.54 L124.84 118.61 L124.89 118.67 L124.95 118.74 L125 118.8 L125.05 118.87 L125.11 118.94 L125.16 119.02 L125.21 119.09 L125.26 119.16 L125.3 119.24 L125.35 119.32 L125.4 119.39 L125.44 119.47 L125.48 119.55 L125.53 119.64 L125.57 119.72 L125.61 119.8 L125.65 119.89 L125.68 119.98 L125.72 120.06 L125.75 120.15 L125.79 120.24 L125.82 120.33 L125.85 120.43 L125.88 120.52 L125.9 120.61 L125.93 120.71 L125.95 120.8 L125.98 120.9 L126 121 L126.02 121.1 L126.04 121.2 L126.05 121.3 L126.07 121.4 L126.08 121.5 L126.09 121.6 L126.1 121.7 L126.11 121.81 L126.11 121.91 L126.12 122.02 L126.12 122.12 L126.12 122.23 L126.12 122.33 L126.12 122.44 L126.11 122.55 L126.11 122.66 L126.1 122.77 L126.09 122.87 L126.07 122.98 L126.06 123.09 L126.04 123.2 L126.02 123.31 L126 123.42 L125.98 123.53 L125.96 123.64 L125.93 123.75 L125.9 123.86 L125.87 123.97 L125.84 124.08 L125.81 124.19 L125.77 124.3 L125.73 124.42 L125.69 124.53 L125.65 124.63 L125.61 124.74 L125.56 124.85 L125.51 124.96 L125.46 125.07 L125.41 125.18 L125.35 125.29 L125.3 125.39 L125.24 125.5 L125.18 125.61 L125.12 125.71 L125.05 125.82 L124.98 125.92 L124.92 126.03 L124.85 126.13 L124.77 126.23 L124.7 126.33 L124.62 126.44 L124.54 126.53 L124.46 126.63 L124.38 126.73 L124.29 126.83 L124.21 126.92 L124.12 127.02 L124.03 127.11 L123.94 127.21 L123.84 127.3 L123.75 127.39 L123.65 127.48 L123.55 127.57 L123.45 127.65 L123.34 127.74 L123.24 127.82 L123.13 127.9 L123.02 127.98 L122.91 128.06 L122.8 128.14 L122.68 128.22 L122.57 128.29 L122.45 128.37 L122.33 128.44 L122.21 128.51 L122.09 128.57 L121.96 128.64 L121.84 128.71 L121.71 128.77 L121.58 128.83 L121.45 128.89 L121.32 128.94 L121.19 129 L121.05 129.05 L120.92 129.1 L120.78 129.15 L120.64 129.2 L120.5 129.24 L120.36 129.29 L120.22 129.33 L120.08 129.37 L119.93 129.4 L119.79 129.44 L119.64 129.47 L119.5 129.5 L119.35 129.52 L119.2 129.55 L119.05 129.57 L118.9 129.59 L118.75 129.61 L118.59 129.63 L118.44 129.64 L118.28 129.65 L118.13 129.66 L117.97 129.66 L117.82 129.67 L117.66 129.67 L117.5 129.66 L117.35 129.66 L117.19 129.65 L117.03 129.64 L116.87 129.63 L116.71 129.61 L116.55 129.6 L116.39 129.58 L116.23 129.55 L116.07 129.53 L115.91 129.5 L115.75 129.47 L115.59 129.44 L115.43 129.4 L115.27 129.36 L115.11 129.32 L114.95 129.27 L114.79 129.23 L114.63 129.18 L114.47 129.12 L114.32 129.07 L114.16 129.01 L114 128.95 L113.84 128.89 L113.69 128.82 L113.53 128.75 L113.37 128.68 L113.22 128.6 L113.06 128.53 L112.91 128.45 L112.76 128.37 L112.61 128.28 L112.46 128.19 L112.31 128.1 L112.16 128.01 L112.01 127.91 L111.86 127.81 L111.72 127.71 L111.57 127.61 L111.43 127.5 L111.29 127.39 L111.15 127.28 L111.01 127.17 L110.87 127.05 L110.74 126.93 L110.6 126.81 L110.47 126.68 L110.34 126.56 L110.21 126.43 L110.08 126.3 L109.95 126.16 L109.83 126.03 L109.71 125.89 L109.58 125.74 L109.47 125.6 L109.35 125.46 L109.23 125.31 L109.12 125.16 L109.01 125 L108.9 124.85 L108.8 124.69 L108.69 124.53 L108.59 124.37 L108.49 124.21 L108.39 124.04 L108.3 123.87 L108.2 123.71 L108.11 123.53 L108.03 123.36 L107.94 123.19 L107.86 123.01 L107.78 122.83 L107.7 122.65 L107.63 122.47 L107.56 122.28 L107.49 122.1 L107.42 121.91 L107.36 121.72 L107.29 121.53 L107.24 121.34 L107.18 121.15 L107.13 120.95 L107.08 120.76 L107.03 120.56 L106.99 120.36 L106.95 120.16 L106.91 119.96 L106.88 119.76 L106.85 119.56 L106.82 119.36 L106.8 119.15 L106.78 118.95 L106.76 118.74 L106.74 118.53 L106.73 118.32 L106.72 118.11 L106.72 117.91 L106.72 117.7 L106.72 117.49 L106.72 117.27 L106.73 117.06 L106.74 116.85 L106.76 116.64 L106.77 116.43 L106.8 116.21 L106.82 116 L106.85 115.79 L106.88 115.58 L106.92 115.36 L106.96 115.15 L107 114.94 L107.04 114.72 L107.09 114.51 L107.15 114.3 L107.2 114.09 L107.26 113.88 L107.33 113.66 L107.39 113.45 L107.46 113.24 L107.54 113.03 L107.61 112.83 L107.69 112.62 L107.78 112.41 L107.87 112.2 L107.96 112 L108.05 111.79 L108.15 111.59 L108.25 111.39 L108.36 111.19 L108.46 110.99 L108.58 110.79 L108.69 110.59 L108.81 110.4 L108.93 110.2 L109.06 110.01 L109.18 109.82 L109.32 109.63 L109.45 109.44 L109.59 109.25 L109.73 109.07 L109.88 108.88 L110.02 108.7 L110.18 108.52 L110.33 108.34 L110.49 108.17 L110.65 108 L110.81 107.83 L110.98 107.66 L111.15 107.49 L111.32 107.33 L111.5 107.16 L111.68 107 L111.86 106.85 L112.04 106.69 L112.23 106.54 L112.42 106.39 L112.61 106.24 L112.81 106.1 L113.01 105.96 L113.21 105.82 L113.41 105.69 L113.62 105.55 L113.82 105.42 L114.04 105.3 L114.25 105.17 L114.47 105.05 L114.68 104.94 L114.9 104.82 L115.13 104.71 L115.35 104.6 L115.58 104.5 L115.81 104.4 L116.04 104.3 L116.27 104.21 L116.51 104.12 L116.74 104.03 L116.98 103.94 L117.22 103.86 L117.47 103.79 L117.71 103.72 L117.96 103.65 L118.2 103.58 L118.45 103.52 L118.7 103.46 L118.96 103.41 L119.21 103.36 L119.46 103.31 L119.72 103.27 L119.98 103.23 L120.23 103.2 L120.49 103.17 L120.75 103.14 L121.01 103.12 L121.28 103.1 L121.54 103.08 L121.8 103.07 L122.07 103.07 L122.33 103.07 L122.6 103.07 L122.86 103.07 L123.13 103.08 L123.4 103.1 L123.66 103.12 L123.93 103.14 L124.2 103.17 L124.46 103.2 L124.73 103.24 L125 103.28 L125.27 103.32 L125.53 103.37 L125.8 103.42 L126.07 103.48 L126.33 103.54 L126.6 103.61 L126.86 103.68 L127.13 103.75 L127.39 103.83 L127.65 103.91 L127.92 104 L128.18 104.09 L128.44 104.18 L128.7 104.28 L128.96 104.39 L129.21 104.5 L129.47 104.61 L129.72 104.73 L129.98 104.85 L130.23 104.97 L130.48 105.1 L130.73 105.24 L130.97 105.37 L131.22 105.51 L131.46 105.66 L131.71 105.81 L131.95 105.96 L132.18 106.12 L132.42 106.28 L132.65 106.45 L132.88 106.62 L133.11 106.79 L133.34 106.97 L133.57 107.15 L133.79 107.34 L134.01 107.53 L134.23 107.72 L134.44 107.92 L134.65 108.12 L134.86 108.32 L135.07 108.53 L135.27 108.74 L135.47 108.96 L135.67 109.17 L135.86 109.4 L136.05 109.62 L136.24 109.85 L136.43 110.08 L136.61 110.32 L136.79 110.56 L136.96 110.8 L137.13 111.04 L137.3 111.29 L137.47 111.54 L137.63 111.8 L137.78 112.05 L137.94 112.31 L138.09 112.58 L138.23 112.84 L138.37 113.11 L138.51 113.38 L138.64 113.65 L138.77 113.93 L138.9 114.21 L139.02 114.49 L139.14 114.77 L139.25 115.06 L139.36 115.35 L139.46 115.64 L139.56 115.93 L139.66 116.22 L139.75 116.52 L139.84 116.82 L139.92 117.12 L140 117.42 L140.07 117.72 L140.14 118.03 L140.2 118.33 L140.26 118.64 L140.32 118.95 L140.37 119.26 L140.41 119.57 L140.45 119.89 L140.49 120.2 L140.52 120.52 L140.54 120.83 L140.57 121.15 L140.58 121.47 L140.59 121.79 L140.6 122.11 L140.6 122.43 L140.6 122.75 L140.59 123.07 L140.57 123.39 L140.55 123.71 L140.53 124.04 L140.5 124.36 L140.47 124.68 L140.43 125 L140.38 125.32 L140.33 125.65 L140.28 125.97 L140.22 126.29 L140.15 126.61 L140.08 126.93 L140.01 127.25 L139.93 127.57 L139.84 127.89 L139.75 128.21 L139.66 128.52 L139.56 128.84 L139.45 129.15 L139.34 129.47 L139.23 129.78 L139.11 130.09 L138.98 130.4 L138.85 130.71 L138.72 131.02 L138.58 131.32 L138.43 131.62 L138.28 131.93 L138.12 132.22 L137.96 132.52 L137.8 132.82 L137.63 133.11 L137.45 133.4 L137.27 133.69 L137.09 133.98 L136.9 134.26 L136.71 134.54 L136.51 134.82 L136.31 135.1 L136.1 135.37 L135.89 135.64 L135.67 135.91 L135.45 136.18 L135.22 136.44 L134.99 136.7 L134.76 136.95 L134.52 137.2 L134.27 137.45 L134.03 137.7 L133.78 137.94 L133.52 138.18 L133.26 138.41 L133 138.64 L132.73 138.87 L132.46 139.1 L132.18 139.32 L131.9 139.53 L131.62 139.74 L131.33 139.95 L131.04 140.15 L130.75 140.35 L130.45 140.55 L130.15 140.74 L129.85 140.92 L129.54 141.11 L129.23 141.28 L128.91 141.46 L128.6 141.62 L128.28 141.79 L127.95 141.95 L127.63 142.1 L127.3 142.25 L126.97 142.39 L126.63 142.53 L126.29 142.66 L125.95 142.79 L125.61 142.92 L125.27 143.04 L124.92 143.15 L124.57 143.26 L124.22 143.36 L123.87 143.46 L123.51 143.55 L123.15 143.64 L122.79 143.72 L122.43 143.8 L122.07 143.87 L121.71 143.93 L121.34 143.99 L120.97 144.04 L120.61 144.09 L120.24 144.13 L119.86 144.17 L119.49 144.2 L119.12 144.23 L118.75 144.25 L118.37 144.26 L118 144.27 L117.62 144.27 L117.24 144.27 L116.87 144.26 L116.49 144.24 L116.11 144.22 L115.73 144.2 L115.36 144.16 L114.98 144.12 L114.6 144.08 L114.22 144.03 L113.84 143.97 L113.47 143.91 L113.09 143.84 L112.72 143.77 L112.34 143.69 L111.97 143.6 L111.59 143.51 L111.22 143.41 L110.85 143.31 L110.48 143.2 L110.11 143.08 L109.74 142.96 L109.37 142.83 L109.01 142.7 L108.64 142.56 L108.28 142.41 L107.92 142.26 L107.56 142.11 L107.21 141.94 L106.85 141.78 L106.5 141.6 L106.15 141.42 L105.8 141.24 L105.46 141.05 L105.12 140.85 L104.78 140.65 L104.44 140.44 L104.11 140.23 L103.77 140.01 L103.45 139.78 L103.12 139.56 L102.8 139.32 L102.48 139.08 L102.16 138.84 L101.85 138.59 L101.54 138.33 L101.24 138.07 L100.93 137.8 L100.64 137.53 L100.34 137.26 L100.05 136.98 L99.77 136.69 L99.48 136.4 L99.21 136.11 L98.93 135.81 L98.66 135.5 L98.4 135.19 L98.14 134.88 L97.88 134.56 L97.63 134.24 L97.38 133.91 L97.14 133.58 L96.9 133.25 L96.67 132.91 L96.44 132.57 L96.22 132.22 L96 131.87 L95.79 131.52 L95.58 131.16 L95.38 130.8 L95.19 130.43 L95 130.06 L94.81 129.69 L94.63 129.31 L94.46 128.94 L94.29 128.55 L94.13 128.17 L93.97 127.78 L93.82 127.39 L93.67 127 L93.53 126.6 L93.4 126.2 L93.27 125.8 L93.15 125.39 L93.04 124.99 L92.93 124.58 L92.82 124.17 L92.73 123.76 L92.64 123.34 L92.55 122.92 L92.47 122.5 L92.4 122.08 L92.34 121.66 L92.28 121.24 L92.23 120.81 L92.18 120.39 L92.14 119.96 L92.11 119.53 L92.09 119.1 L92.07 118.67 L92.06 118.24 L92.05 117.81 L92.05 117.38 L92.06 116.94 L92.07 116.51 L92.09 116.08 L92.12 115.64 L92.16 115.21 L92.2 114.78 L92.25 114.34 L92.3 113.91 L92.36 113.48 L92.43 113.04 L92.51 112.61 L92.59 112.18 L92.68 111.75 L92.77 111.32 L92.87 110.89 L92.98 110.46 L93.1 110.04 L93.22 109.61 L93.35 109.19 L93.49 108.77 L93.63 108.35 L93.78 107.93 L93.93 107.51 L94.1 107.1 L94.27 106.68 L94.44 106.27 L94.62 105.86 L94.81 105.46 L95.01 105.05 L95.21 104.65 L95.42 104.26 L95.63 103.86 L95.85 103.47 L96.08 103.08 L96.31 102.69 L96.55 102.31 L96.8 101.93 L97.05 101.55 L97.31 101.18 L97.58 100.81 L97.85 100.44 L98.12 100.08 L98.4 99.72 L98.69 99.37 L98.99 99.02 L99.29 98.67 L99.59 98.33 L99.9 97.99 L100.22 97.66 L100.54 97.33 L100.87 97 L101.2 96.69 L101.54 96.37 L101.88 96.06 L102.23 95.76 L102.58 95.46 L102.94 95.16 L103.31 94.87 L103.67 94.59 L104.05 94.31 L104.43 94.04 L104.81 93.77 L105.19 93.51 L105.59 93.25 L105.98 93 L106.38 92.76 L106.79 92.52 L107.2 92.29 L107.61 92.06 L108.02 91.84 L108.44 91.63 L108.87 91.42 L109.3 91.22 L109.73 91.02 L110.16 90.83 L110.6 90.65 L111.04 90.48 L111.49 90.31 L111.93 90.15 L112.38 89.99 L112.84 89.84 L113.29 89.7 L113.75 89.57 L114.21 89.44 L114.68 89.32 L115.14 89.2 L115.61 89.1 L116.08 89 L116.56 88.9 L117.03 88.82 L117.51 88.74 L117.98 88.67 L118.46 88.61 L118.95 88.55 L119.43 88.5 L119.91 88.46 L120.4 88.43 L120.88 88.4 L121.37 88.38 L121.86 88.37 L122.35 88.37 L122.83 88.37 L123.32 88.38 L123.81 88.4 L124.3 88.43 L124.79 88.46 L125.28 88.5 L125.77 88.55 L126.26 88.61 L126.75 88.67 L127.24 88.75 L127.73 88.83 L128.21 88.91 L128.7 89.01 L129.18 89.11 L129.67 89.22 L130.15 89.34 L130.63 89.47 L131.11 89.6 L131.59 89.74 L132.07 89.89 L132.54 90.04 L133.02 90.21 L133.49 90.38 L133.96 90.55 L134.42 90.74 L134.89 90.93 L135.35 91.13 L135.81 91.34 L136.26 91.55 L136.72 91.78 L137.17 92.01 L137.62 92.24 L138.06 92.49 L138.5 92.74 L138.94 92.99 L139.37 93.26 L139.8 93.53 L140.23 93.81 L140.65 94.1 L141.07 94.39 L141.48 94.69 L141.89 94.99 L142.3 95.31 L142.7 95.62 L143.1 95.95 L143.49 96.28 L143.88 96.62 L144.26 96.96 L144.64 97.31 L145.01 97.67 L145.37 98.04 L145.74 98.4 L146.09 98.78 L146.44 99.16 L146.79 99.55 L147.13 99.94 L147.46 100.34 L147.79 100.74 L148.12 101.15 L148.43 101.56 L148.74 101.98 L149.05 102.41 L149.34 102.84 L149.64 103.27 L149.92 103.71 L150.2 104.16 L150.47 104.61 L150.74 105.06 L151 105.52 L151.25 105.98 L151.49 106.45 L151.73 106.92 L151.96 107.4 L152.18 107.88 L152.4 108.36 L152.61 108.85 L152.81 109.34" fill="none" stroke="#000" stroke-width="6.6" stroke-linecap="round"/>
</mask></defs>
<path d="M114.74 59.23 L120 24 L125.26 59.23 Z" fill="#33241A"/><path d="M130.64 59.94 L140.45 43.69 L140.81 62.66 Z" fill="#33241A"/><path d="M145.83 64.74 L168 36.86 L154.94 70 Z" fill="#33241A"/><path d="M159.25 73.31 L175.86 64.14 L166.69 80.75 Z" fill="#33241A"/><path d="M170 85.06 L203.14 72 L175.26 94.17 Z" fill="#33241A"/><path d="M177.34 99.19 L196.31 99.55 L180.06 109.36 Z" fill="#33241A"/><path d="M180.77 114.74 L216 120 L180.77 125.26 Z" fill="#33241A"/><path d="M180.06 130.64 L196.31 140.45 L177.34 140.81 Z" fill="#33241A"/><path d="M175.26 145.83 L203.14 168 L170 154.94 Z" fill="#33241A"/><path d="M166.69 159.25 L175.86 175.86 L159.25 166.69 Z" fill="#33241A"/><path d="M154.94 170 L168 203.14 L145.83 175.26 Z" fill="#33241A"/><path d="M140.81 177.34 L140.45 196.31 L130.64 180.06 Z" fill="#33241A"/><path d="M125.26 180.77 L120 216 L114.74 180.77 Z" fill="#33241A"/><path d="M109.36 180.06 L99.55 196.31 L99.19 177.34 Z" fill="#33241A"/><path d="M94.17 175.26 L72 203.14 L85.06 170 Z" fill="#33241A"/><path d="M80.75 166.69 L64.14 175.86 L73.31 159.25 Z" fill="#33241A"/><path d="M70 154.94 L36.86 168 L64.74 145.83 Z" fill="#33241A"/><path d="M62.66 140.81 L43.69 140.45 L59.94 130.64 Z" fill="#33241A"/><path d="M59.23 125.26 L24 120 L59.23 114.74 Z" fill="#33241A"/><path d="M59.94 109.36 L43.69 99.55 L62.66 99.19 Z" fill="#33241A"/><path d="M64.74 94.17 L36.86 72 L70 85.06 Z" fill="#33241A"/><path d="M73.31 80.75 L64.14 64.14 L80.75 73.31 Z" fill="#33241A"/><path d="M85.06 70 L72 36.86 L94.17 64.74 Z" fill="#33241A"/><path d="M99.19 62.66 L99.55 43.69 L109.36 59.94 Z" fill="#33241A"/>
<circle cx="120" cy="120" r="52" fill="none" stroke="#33241A" stroke-width="2.4"/>
<circle cx="120" cy="120" r="44" fill="#33241A" mask="url(#s-b3-mono)"/>
</svg>