<svg xmlns="http://www.w3.org/2000/svg" viewBox="0 0 240 240" role="img" aria-label="Cmaa Sesame Orbit logo (color)">
<circle cx="120" cy="120" r="3.4" fill="#c8922a"/>
<path d="M0 -2.87 C1.8 -0.63 1.64 1.66 0 2.87 C-1.64 1.66 -1.8 -0.63 0 -2.87 Z" transform="translate(126.28 124.87) rotate(189.71)" fill="#c8922a"/>
<path d="M0 -3.08 C1.93 -0.68 1.76 1.79 0 3.08 C-1.76 1.79 -1.93 -0.68 0 -3.08 Z" transform="translate(122.59 130.19) rotate(238.52)" fill="#c7912a"/>
<path d="M0 -3.27 C2.05 -0.72 1.87 1.9 0 3.27 C-1.87 1.9 -2.05 -0.72 0 -3.27 Z" transform="translate(115.77 132.07) rotate(-89.81)" fill="#c6902a"/>
<path d="M0 -3.45 C2.16 -0.76 1.97 2 0 3.45 C-1.97 2 -2.16 -0.76 0 -3.45 Z" transform="translate(108.71 129.63) rotate(-51.81)" fill="#c58e2a"/>
<path d="M0 -3.61 C2.26 -0.79 2.06 2.09 0 3.61 C-2.06 2.09 -2.26 -0.79 0 -3.61 Z" transform="translate(103.62 123.52) rotate(-27.57)" fill="#c48c2a"/>
<path d="M0 -3.76 C2.36 -0.83 2.15 2.18 0 3.76 C-2.15 2.18 -2.36 -0.83 0 -3.76 Z" transform="translate(102.03 115.43) rotate(5.94)" fill="#c38a2a"/>
<path d="M0 -3.91 C2.45 -0.86 2.23 2.27 0 3.91 C-2.23 2.27 -2.45 -0.86 0 -3.91 Z" transform="translate(104.41 107.05) rotate(26.34)" fill="#c1882a"/>
<path d="M0 -4.04 C2.54 -0.89 2.31 2.35 0 4.04 C-2.31 2.35 -2.54 -0.89 0 -4.04 Z" transform="translate(110.31 100.37) rotate(57.33)" fill="#c0862a"/>
<path d="M0 -4.18 C2.62 -0.92 2.39 2.42 0 4.18 C-2.39 2.42 -2.62 -0.92 0 -4.18 Z" transform="translate(118.87 96.54) rotate(75.19)" fill="#be832a"/>
<path d="M0 -4.31 C2.7 -0.95 2.46 2.5 0 4.31 C-2.46 2.5 -2.7 -0.95 0 -4.31 Z" transform="translate(128.47 96.47) rotate(104.81)" fill="#bc812a"/>
<path d="M0 -4.44 C2.78 -0.98 2.53 2.57 0 4.44 C-2.53 2.57 -2.78 -0.98 0 -4.44 Z" transform="translate(137.7 100.26) rotate(120.77)" fill="#bb7e2a"/>
<path d="M0 -4.56 C2.86 -1 2.6 2.64 0 4.56 C-2.6 2.64 -2.86 -1 0 -4.56 Z" transform="translate(144.89 107.32) rotate(149.08)" fill="#b97c2a"/>
<path d="M0 -4.68 C2.93 -1.03 2.67 2.71 0 4.68 C-2.67 2.71 -2.93 -1.03 0 -4.68 Z" transform="translate(149.21 116.99) rotate(163.7)" fill="#b7792a"/>
<path d="M0 -4.8 C3.01 -1.06 2.74 2.78 0 4.8 C-2.74 2.78 -3.01 -1.06 0 -4.8 Z" transform="translate(149.75 127.84) rotate(191.71)" fill="#b5762a"/>
<path d="M0 -4.91 C3.08 -1.08 2.81 2.85 0 4.91 C-2.81 2.85 -3.08 -1.08 0 -4.91 Z" transform="translate(146.35 138.39) rotate(205.03)" fill="#b4742a"/>
<path d="M0 -5.02 C3.15 -1.11 2.87 2.91 0 5.02 C-2.87 2.91 -3.15 -1.11 0 -5.02 Z" transform="translate(139.38 147.28) rotate(232.27)" fill="#b2712a"/>
<path d="M0 -5.13 C3.22 -1.13 2.93 2.98 0 5.13 C-2.93 2.98 -3.22 -1.13 0 -5.13 Z" transform="translate(129.7 153.38) rotate(244.33)" fill="#b06e2a"/>
<path d="M0 -5.24 C3.29 -1.15 3 3.04 0 5.24 C-3 3.04 -3.29 -1.15 0 -5.24 Z" transform="translate(118.11 156.01) rotate(271.28)" fill="#ae6c2a"/>
<path d="M0 -5.35 C3.36 -1.18 3.06 3.11 0 5.35 C-3.06 3.11 -3.36 -1.18 0 -5.35 Z" transform="translate(105.88 154.59) rotate(-76.93)" fill="#ac692a"/>
<path d="M0 -5.46 C3.42 -1.2 3.12 3.17 0 5.46 C-3.12 3.17 -3.42 -1.2 0 -5.46 Z" transform="translate(94.96 149.38) rotate(-50.74)" fill="#ab662a"/>
<path d="M0 -5.57 C3.49 -1.22 3.18 3.23 0 5.57 C-3.18 3.23 -3.49 -1.22 0 -5.57 Z" transform="translate(85.77 140.44) rotate(-39.7)" fill="#a9632a"/>
<path d="M0 -5.67 C3.56 -1.25 3.24 3.29 0 5.67 C-3.24 3.29 -3.56 -1.25 0 -5.67 Z" transform="translate(79.89 128.97) rotate(-13.3)" fill="#a7612a"/>
<path d="M0 -5.77 C3.62 -1.27 3.3 3.35 0 5.77 C-3.3 3.35 -3.62 -1.27 0 -5.77 Z" transform="translate(77.87 116.2) rotate(-3.48)" fill="#a55e2a"/>
<path d="M0 -5.87 C3.68 -1.29 3.35 3.41 0 5.87 C-3.35 3.41 -3.68 -1.29 0 -5.87 Z" transform="translate(79.93 103.06) rotate(22.64)" fill="#a35b2a"/>
<path d="M0 -5.98 C3.75 -1.31 3.41 3.47 0 5.98 C-3.41 3.47 -3.75 -1.31 0 -5.98 Z" transform="translate(86.1 90.86) rotate(32.23)" fill="#a1592a"/>
<path d="M0 -6.07 C3.81 -1.34 3.47 3.52 0 6.07 C-3.47 3.52 -3.81 -1.34 0 -6.07 Z" transform="translate(95.66 81.11) rotate(58.07)" fill="#a0562b"/>
<path d="M0 -6.17 C3.87 -1.36 3.53 3.58 0 6.17 C-3.53 3.58 -3.87 -1.36 0 -6.17 Z" transform="translate(108.01 74.5) rotate(66.95)" fill="#9e532b"/>
<path d="M0 -6.27 C3.93 -1.38 3.58 3.64 0 6.27 C-3.58 3.64 -3.93 -1.38 0 -6.27 Z" transform="translate(122.12 71.83) rotate(92.99)" fill="#9c512b"/>
<path d="M0 -6.37 C4 -1.4 3.64 3.7 0 6.37 C-3.64 3.7 -4 -1.4 0 -6.37 Z" transform="translate(136.73 73.53) rotate(101.64)" fill="#9a4e2b"/>
<path d="M0 -6.47 C4.06 -1.42 3.69 3.75 0 6.47 C-3.69 3.75 -4.06 -1.42 0 -6.47 Z" transform="translate(150.12 79.44) rotate(127.41)" fill="#994c2b"/>
<path d="M0 -6.56 C4.12 -1.44 3.75 3.81 0 6.56 C-3.75 3.81 -4.12 -1.44 0 -6.56 Z" transform="translate(161.48 89.2) rotate(135.35)" fill="#97492b"/>
<path d="M0 -6.66 C4.18 -1.47 3.8 3.86 0 6.66 C-3.8 3.86 -4.18 -1.47 0 -6.66 Z" transform="translate(169.68 102.11) rotate(161.32)" fill="#95472b"/>
<path d="M0 -6.75 C4.24 -1.49 3.86 3.92 0 6.75 C-3.86 3.92 -4.24 -1.49 0 -6.75 Z" transform="translate(173.81 116.73) rotate(168.56)" fill="#94442b"/>
<path d="M0 -6.85 C4.29 -1.51 3.91 3.97 0 6.85 C-3.91 3.97 -4.29 -1.51 0 -6.85 Z" transform="translate(173.63 132.22) rotate(194.25)" fill="#92422b"/>
<path d="M0 -6.94 C4.35 -1.53 3.96 4.03 0 6.94 C-3.96 4.03 -4.35 -1.53 0 -6.94 Z" transform="translate(169 147.34) rotate(201.28)" fill="#91402b"/>
<path d="M0 -7.03 C4.41 -1.55 4.02 4.08 0 7.03 C-4.02 4.08 -4.41 -1.55 0 -7.03 Z" transform="translate(160.12 160.8) rotate(227.16)" fill="#8f3e2b"/>
<path d="M0 -7.13 C4.47 -1.57 4.07 4.13 0 7.13 C-4.07 4.13 -4.47 -1.57 0 -7.13 Z" transform="translate(147.56 171.4) rotate(233.98)" fill="#8e3b2b"/>
<path d="M0 -7.22 C4.53 -1.59 4.12 4.19 0 7.22 C-4.12 4.19 -4.53 -1.59 0 -7.22 Z" transform="translate(132.71 178.02) rotate(259.58)" fill="#8c392b"/>
<path d="M0 -7.31 C4.59 -1.61 4.18 4.24 0 7.31 C-4.18 4.24 -4.59 -1.61 0 -7.31 Z" transform="translate(115.82 180.36) rotate(-93.81)" fill="#8b372b"/>
<path d="M0 -7.4 C4.64 -1.63 4.23 4.29 0 7.4 C-4.23 4.29 -4.64 -1.63 0 -7.4 Z" transform="translate(99.14 177.93) rotate(-68.01)" fill="#8a352b"/>
<path d="M0 -7.49 C4.7 -1.65 4.28 4.35 0 7.49 C-4.28 4.35 -4.7 -1.65 0 -7.49 Z" transform="translate(83.5 170.91) rotate(-62.08)" fill="#88332b"/>
<path d="M0 -7.58 C4.75 -1.67 4.33 4.4 0 7.58 C-4.33 4.4 -4.75 -1.67 0 -7.58 Z" transform="translate(70.51 160.08) rotate(-36.58)" fill="#87322b"/>
<path d="M0 -7.67 C4.81 -1.69 4.38 4.45 0 7.67 C-4.38 4.45 -4.81 -1.69 0 -7.67 Z" transform="translate(60.46 145.47) rotate(-30.85)" fill="#86302b"/>
<path d="M0 -7.76 C4.87 -1.71 4.43 4.5 0 7.76 C-4.43 4.5 -4.87 -1.71 0 -7.76 Z" transform="translate(54.7 128.39) rotate(-4.67)" fill="#852e2b"/>
<path d="M0 -7.85 C4.92 -1.73 4.48 4.55 0 7.85 C-4.48 4.55 -4.92 -1.73 0 -7.85 Z" transform="translate(53.78 110.65) rotate(0.38)" fill="#842c2b"/>
<path d="M0 -7.94 C4.98 -1.75 4.53 4.6 0 7.94 C-4.53 4.6 -4.98 -1.75 0 -7.94 Z" transform="translate(57.67 93.03) rotate(26.26)" fill="#832b2b"/>
<path d="M0 -8.03 C5.03 -1.77 4.58 4.66 0 8.03 C-4.58 4.66 -5.03 -1.77 0 -8.03 Z" transform="translate(66.23 76.83) rotate(31.12)" fill="#82292b"/>
<path d="M0 -8.11 C5.09 -1.79 4.64 4.71 0 8.11 C-4.64 4.71 -5.09 -1.79 0 -8.11 Z" transform="translate(78.98 63.29) rotate(57.19)" fill="#81282b"/>
<path d="M0 -8.2 C5.14 -1.8 4.69 4.76 0 8.2 C-4.69 4.76 -5.14 -1.8 0 -8.2 Z" transform="translate(95.1 53.47) rotate(61.85)" fill="#80272b"/>
<path d="M0 -8.29 C5.2 -1.82 4.74 4.81 0 8.29 C-4.74 4.81 -5.2 -1.82 0 -8.29 Z" transform="translate(113.52 48.22) rotate(88.12)" fill="#7f252b"/>
<path d="M0 -8.38 C5.25 -1.84 4.78 4.86 0 8.38 C-4.78 4.86 -5.25 -1.84 0 -8.38 Z" transform="translate(132.34 47.97) rotate(92.1)" fill="#7e242b"/>
<path d="M0 -8.46 C5.31 -1.86 4.83 4.91 0 8.46 C-4.83 4.91 -5.31 -1.86 0 -8.46 Z" transform="translate(151.42 52.87) rotate(118.55)" fill="#7d232b"/>
<path d="M0 -8.55 C5.36 -1.88 4.88 4.96 0 8.55 C-4.88 4.96 -5.36 -1.88 0 -8.55 Z" transform="translate(168.25 62.42) rotate(122.35)" fill="#7d222b"/>
<path d="M0 -8.63 C5.42 -1.9 4.93 5.01 0 8.63 C-4.93 5.01 -5.42 -1.9 0 -8.63 Z" transform="translate(182.24 76.16) rotate(148.5)" fill="#7c212b"/>
<path d="M0 -8.72 C5.47 -1.92 4.98 5.06 0 8.72 C-4.98 5.06 -5.47 -1.92 0 -8.72 Z" transform="translate(192.36 93.26) rotate(152.1)" fill="#7c212b"/>
<path d="M0 -8.81 C5.52 -1.94 5.03 5.11 0 8.81 C-5.03 5.11 -5.52 -1.94 0 -8.81 Z" transform="translate(197.89 113.29) rotate(178.93)" fill="#7b202b"/>
<path d="M0 -8.89 C5.58 -1.96 5.08 5.16 0 8.89 C-5.08 5.16 -5.58 -1.96 0 -8.89 Z" transform="translate(198.08 133.04) rotate(181.86)" fill="#7b1f2b"/>
<path d="M0 -8.98 C5.63 -1.97 5.13 5.21 0 8.98 C-5.13 5.21 -5.63 -1.97 0 -8.98 Z" transform="translate(193.03 153.07) rotate(208.38)" fill="#7b1f2b"/>
<path d="M0 -9.06 C5.68 -1.99 5.18 5.26 0 9.06 C-5.18 5.26 -5.68 -1.99 0 -9.06 Z" transform="translate(182.87 171.35) rotate(211.61)" fill="#7a1e2b"/>
<path d="M0 -9.15 C5.74 -2.01 5.22 5.3 0 9.15 C-5.22 5.3 -5.74 -2.01 0 -9.15 Z" transform="translate(168.16 186.59) rotate(238.32)" fill="#7a1e2b"/>
<path d="M0 -9.23 C5.79 -2.03 5.27 5.35 0 9.23 C-5.27 5.35 -5.79 -2.03 0 -9.23 Z" transform="translate(150.45 197.38) rotate(240.88)" fill="#7a1e2b"/>

</svg>