<svg xmlns="http://www.w3.org/2000/svg" viewBox="0 0 240 240" role="img" aria-label="Cmaa Pressed Thumb logo (rev)">
<g transform="rotate(-6 120 120) translate(0 -6) scale(1 1.05)">
<path d="M118.02 119.69 L117.98 119.64 L117.93 119.6 L117.89 119.55 L117.85 119.51 L117.8 119.46 L117.76 119.41 L117.72 119.35 L117.68 119.3 L117.65 119.24 L117.61 119.19 L117.57 119.13 L117.54 119.07 L117.51 119.01 L117.48 118.94 L117.45 118.88 L117.42 118.82 L117.39 118.75 L117.37 118.68 L117.34 118.61 L117.32 118.54 L117.3 118.47 L117.28 118.4 L117.27 118.32 L117.25 118.25 L117.24 118.17 L117.23 118.1 L117.22 118.02 L117.21 117.94 L117.2 117.86 L117.2 117.78 L117.19 117.7 L117.19 117.62 L117.2 117.54 L117.2 117.45 L117.21 117.37 L117.21 117.29 L117.22 117.2 L117.23 117.12 L117.25 117.03 L117.26 116.95 L117.28 116.86 L117.3 116.77 L117.33 116.69 L117.35 116.6 L117.38 116.51 L117.41 116.43 L117.44 116.34 L117.47 116.25 L117.51 116.17 L117.54 116.08 L117.59 115.99 L117.63 115.91 L117.67 115.82 L117.72 115.74 L117.77 115.65 L117.82 115.57 L117.87 115.48 L117.93 115.4 L117.99 115.32 L118.05 115.23 L118.11 115.15 L118.18 115.07 L118.24 114.99 L118.31 114.91 L118.38 114.83 L118.46 114.76 L118.53 114.68 L118.61 114.61 L118.69 114.53 L118.77 114.46 L118.86 114.39 L118.94 114.32 L119.03 114.25 L119.12 114.18 L119.22 114.11 L119.31 114.05 L119.41 113.99 L119.51 113.93 L119.61 113.87 L119.71 113.81 L119.81 113.75 L119.92 113.7 L120.03 113.64 L120.14 113.59 L120.25 113.54 L120.36 113.49 L120.48 113.45 L120.59 113.41 L120.71 113.37 L120.83 113.33 L120.95 113.29 L121.07 113.25 L121.2 113.22 L121.32 113.19 L121.45 113.16 L121.58 113.14 L121.71 113.12 L121.84 113.1 L121.97 113.08 L122.1 113.06 L122.24 113.05 L122.37 113.04 L122.51 113.03 L122.65 113.03 L122.79 113.02 L122.93 113.02 L123.07 113.03 L123.21 113.03 L123.35 113.04 L123.49 113.05 L123.63 113.07 L123.77 113.08 L123.92 113.1 L124.06 113.13 L124.21 113.15 L124.35 113.18 L124.5 113.21 L124.64 113.25 L124.79 113.28 L124.93 113.32 L125.08 113.37 L125.22 113.41 L125.37 113.46 L125.51 113.52 L125.66 113.57 L125.8 113.63 L125.94 113.69 L126.09 113.76 L126.23 113.82 L126.37 113.9 L126.52 113.97 L126.66 114.05 L126.8 114.13 L126.94 114.21 L127.08 114.3 L127.21 114.39 L127.35 114.48 L127.49 114.57 L127.62 114.67 L127.75 114.77 L127.89 114.88 L128.02 114.99 L128.15 115.1 L128.27 115.21 L128.4 115.33 L128.53 115.45 L128.65 115.57 L128.77 115.69 L128.89 115.82 L129.01 115.95 L129.12 116.09 L129.24 116.22 L129.35 116.36 L129.46 116.51 L129.57 116.65 L129.67 116.8 L129.78 116.95 L129.88 117.1 L129.98 117.26 L130.07 117.41 L130.17 117.57 L130.26 117.74 L130.35 117.9 L130.43 118.07 L130.52 118.24 L130.6 118.41 L130.67 118.59 L130.75 118.76 L130.82 118.94 L130.89 119.12 L130.96 119.3 L131.02 119.49 L131.08 119.68 L131.13 119.86 L131.19 120.05 L131.24 120.25 L131.28 120.44 L131.33 120.64 L131.37 120.83 L131.4 121.03 L131.44 121.23 L131.47 121.43 L131.49 121.64 L131.51 121.84 L131.53 122.05 L131.55 122.25 L131.56 122.46 L131.57 122.67 L131.57 122.88 L131.57 123.09 L131.56 123.3 L131.56 123.52 L131.55 123.73 L131.53 123.94 L131.51 124.16 L131.49 124.37 L131.46 124.59 L131.43 124.8 L131.39 125.02 L131.35 125.23 L131.31 125.45 L131.26 125.67 L131.21 125.88 L131.15 126.1 L131.09 126.31 L131.03 126.53 L130.96 126.74 L130.89 126.96 L130.81 127.17 L130.73 127.38 L130.64 127.6 L130.56 127.81 L130.46 128.02 L130.36 128.23 L130.26 128.44 L130.16 128.65 L130.05 128.85 L129.93 129.06 L129.82 129.26 L129.69 129.47 L129.57 129.67 L129.44 129.87 L129.3 130.07 L129.16 130.26 L129.02 130.46 L128.88 130.65 L128.73 130.84 L128.57 131.03 L128.41 131.22 L128.25 131.4 L128.08 131.59 L127.91 131.77 L127.74 131.94 L127.56 132.12 L127.38 132.29 L127.2 132.46 L127.01 132.63 L126.82 132.79 L126.62 132.95 L126.42 133.11 L126.22 133.27 L126.01 133.42 L125.81 133.57 L125.59 133.71 L125.38 133.86 L125.16 134 L124.93 134.13 L124.71 134.26 L124.48 134.39 L124.25 134.52 L124.01 134.64 L123.78 134.75 L123.54 134.87 L123.29 134.98 L123.05 135.08 L122.8 135.18 L122.55 135.28 L122.29 135.37 L122.04 135.46 L121.78 135.55 L121.52 135.63 L121.25 135.7 L120.99 135.78 L120.72 135.84 L120.45 135.91 L120.18 135.96 L119.91 136.02 L119.63 136.07 L119.36 136.11 L119.08 136.15 L118.8 136.18 L118.52 136.21 L118.24 136.24 L117.95 136.26 L117.67 136.27 L117.38 136.28 L117.1 136.29 L116.81 136.28 L116.52 136.28 L116.23 136.27 L115.94 136.25 L115.65 136.23 L115.36 136.21 L115.07 136.17 L114.77 136.14 L114.48 136.1 L114.19 136.05 L113.9 136 L113.61 135.94 L113.31 135.87 L113.02 135.81 L112.73 135.73 L112.44 135.65 L112.15 135.57 L111.86 135.48 L111.57 135.38 L111.29 135.28 L111 135.18 L110.71 135.07 L110.43 134.95 L110.15 134.83 L109.87 134.7 L109.59 134.57 L109.31 134.43 L109.03 134.29 L108.75 134.14 L108.48 133.98 L108.21 133.83 L107.94 133.66 L107.67 133.49 L107.41 133.32 L107.15 133.14 L106.89 132.95 L106.63 132.76 L106.38 132.57 L106.12 132.37 L105.87 132.17 L105.63 131.96 L105.39 131.74 L105.15 131.52 L104.91 131.3 L104.68 131.07 L104.45 130.84 L104.22 130.6 L104 130.36 L103.78 130.11 L103.56 129.86 L103.35 129.6 L103.14 129.34 L102.94 129.08 L102.74 128.81 L102.54 128.53 L102.35 128.26 L102.17 127.98 L101.99 127.69 L101.81 127.4 L101.64 127.11 L101.47 126.81 L101.3 126.51 L101.15 126.21 L100.99 125.9 L100.84 125.59 L100.7 125.28 L100.56 124.96 L100.43 124.64 L100.3 124.31 L100.18 123.99 L100.06 123.66 L99.95 123.32 L99.85 122.99 L99.75 122.65 L99.65 122.31 L99.56 121.97 L99.48 121.62 L99.4 121.28 L99.33 120.93 L99.27 120.57 L99.21 120.22 L99.15 119.86 L99.11 119.51 L99.06 119.15 L99.03 118.79 L99 118.43 L98.98 118.06 L98.96 117.7 L98.95 117.33 L98.95 116.97 L98.95 116.6 L98.96 116.23 L98.98 115.86 L99 115.49 L99.03 115.12 L99.07 114.75 L99.11 114.38 L99.16 114.01 L99.21 113.64 L99.27 113.27 L99.34 112.9 L99.42 112.53 L99.5 112.16 L99.59 111.79 L99.68 111.42 L99.78 111.06 L99.89 110.69 L100 110.33 L100.13 109.96 L100.25 109.6 L100.39 109.24 L100.53 108.88 L100.68 108.52 L100.83 108.17 L100.99 107.81 L101.16 107.46 L101.33 107.11 L101.51 106.76 L101.7 106.42 L101.89 106.07 L102.09 105.73 L102.3 105.4 L102.51 105.06 L102.73 104.73 L102.95 104.4 L103.18 104.08 L103.42 103.76 L103.66 103.44 L103.91 103.12 L104.17 102.81 L104.43 102.51 L104.7 102.2 L104.97 101.9 L105.25 101.61 L105.53 101.32 L105.82 101.03 L106.12 100.75 L106.42 100.47 L106.72 100.2 L107.04 99.93 L107.35 99.67 L107.67 99.41 L108 99.16 L108.33 98.91 L108.67 98.67 L109.01 98.43 L109.36 98.2 L109.71 97.97 L110.07 97.75 L110.43 97.54 L110.8 97.33 L111.17 97.12 L111.54 96.93 L111.92 96.74 L112.3 96.55 L112.69 96.37 L113.08 96.2 L113.47 96.04 L113.87 95.88 L114.27 95.73 L114.67 95.58 L115.08 95.44 L115.49 95.31 L115.9 95.18 L116.32 95.06 L116.74 94.95 L117.16 94.85 L117.59 94.75 L118.02 94.66 L118.45 94.58 L118.88 94.5 L119.31 94.44 L119.75 94.38 L120.19 94.32 L120.63 94.28 L121.07 94.24 L121.51 94.21 L121.96 94.19 L122.4 94.17 L122.85 94.16 L123.29 94.16 L123.74 94.17 L124.19 94.19 L124.64 94.21 L125.09 94.24 L125.54 94.28 L125.99 94.33 L126.44 94.39 L126.89 94.45 L127.34 94.52 L127.79 94.6 L128.24 94.69 L128.69 94.78 L129.14 94.88 L129.58 94.99 L130.03 95.11 L130.47 95.24 L130.92 95.37 L131.36 95.52 L131.8 95.67 L132.23 95.82 L132.67 95.99 L133.1 96.16 L133.54 96.35 L133.96 96.54 L134.39 96.73 L134.81 96.94 L135.23 97.15 L135.65 97.37 L136.07 97.6 L136.48 97.83 L136.89 98.08 L137.29 98.33 L137.69 98.59 L138.09 98.85 L138.48 99.12 L138.87 99.4 L139.26 99.69 L139.64 99.99 L140.02 100.29 L140.39 100.6 L140.75 100.91 L141.12 101.23 L141.47 101.56 L141.83 101.9 L142.17 102.24 L142.52 102.59 L142.85 102.95 L143.18 103.31 L143.51 103.68 L143.83 104.05 L144.14 104.43 L144.45 104.82 L144.75 105.21 L145.04 105.61 L145.33 106.02 L145.61 106.43 L145.89 106.84 L146.15 107.26 L146.42 107.69 L146.67 108.12 L146.92 108.56 L147.16 109 L147.39 109.45 L147.62 109.9 L147.83 110.35 L148.04 110.81 L148.25 111.28 L148.44 111.75 L148.63 112.22 L148.81 112.7 L148.98 113.18 L149.14 113.67 L149.3 114.15 L149.45 114.65 L149.59 115.14 L149.72 115.64 L149.84 116.14 L149.95 116.65 L150.06 117.15 L150.15 117.66 L150.24 118.17 L150.32 118.69 L150.39 119.21 L150.45 119.72 L150.51 120.25 L150.55 120.77 L150.59 121.29 L150.61 121.82 L150.63 122.34 L150.64 122.87 L150.63 123.4 L150.62 123.93 L150.6 124.46 L150.58 124.99 L150.54 125.52 L150.49 126.05 L150.43 126.58 L150.37 127.11 L150.29 127.64 L150.21 128.17 L150.11 128.7 L150.01 129.23 L149.9 129.76 L149.78 130.29 L149.65 130.81 L149.51 131.34 L149.36 131.86 L149.2 132.38 L149.03 132.9 L148.86 133.41 L148.67 133.93 L148.47 134.44 L148.27 134.95 L148.06 135.45 L147.83 135.96 L147.6 136.46 L147.36 136.95 L147.11 137.45 L146.85 137.94 L146.59 138.42 L146.31 138.9 L146.03 139.38 L145.73 139.86 L145.43 140.32 L145.12 140.79 L144.8 141.25 L144.47 141.71 L144.14 142.16 L143.79 142.6 L143.44 143.04 L143.08 143.48 L142.71 143.9 L142.34 144.33 L141.95 144.74 L141.56 145.16 L141.16 145.56 L140.76 145.96 L140.34 146.35 L139.92 146.74 L139.49 147.12 L139.05 147.49 L138.61 147.85 L138.16 148.21 L137.7 148.56 L137.24 148.91 L136.77 149.24 L136.29 149.57 L135.81 149.89 L135.32 150.2 L134.83 150.51 L134.33 150.8 L133.82 151.09 L133.31 151.37 L132.79 151.64 L132.26 151.91 L131.74 152.16 L131.2 152.41 L130.66 152.64 L130.12 152.87 L129.57 153.09 L129.02 153.3 L128.46 153.5 L127.9 153.69 L127.33 153.87 L126.76 154.04 L126.19 154.2 L125.61 154.36 L125.03 154.5 L124.45 154.63 L123.86 154.76 L123.28 154.87 L122.68 154.97 L122.09 155.07 L121.49 155.15 L120.89 155.22 L120.29 155.28 L119.69 155.34 L119.08 155.38 L118.48 155.41 L117.87 155.43 L117.26 155.44 L116.65 155.44 L116.04 155.43 L115.43 155.41 L114.82 155.38 L114.2 155.34 L113.59 155.29 L112.98 155.22 L112.37 155.15 L111.76 155.06 L111.15 154.97 L110.54 154.86 L109.93 154.75 L109.32 154.62 L108.71 154.48 L108.11 154.33 L107.51 154.18 L106.91 154.01 L106.31 153.83 L105.71 153.64 L105.12 153.43 L104.53 153.22 L103.94 153 L103.35 152.77 L102.77 152.53 L102.19 152.27 L101.62 152.01 L101.05 151.74 L100.48 151.45 L99.92 151.16 L99.36 150.85 L98.8 150.54 L98.25 150.22 L97.71 149.88 L97.17 149.54 L96.64 149.19 L96.11 148.82 L95.59 148.45 L95.07 148.07 L94.56 147.68 L94.05 147.28 L93.55 146.87 L93.06 146.45 L92.57 146.02 L92.09 145.58 L91.62 145.14 L91.16 144.68 L90.7 144.22 L90.25 143.75 L89.81 143.27 L89.37 142.78 L88.94 142.29 L88.52 141.78 L88.11 141.27 L87.71 140.75 L87.32 140.22 L86.93 139.69 L86.55 139.15 L86.18 138.6 L85.83 138.04 L85.48 137.48 L85.13 136.91 L84.8 136.33 L84.48 135.75 L84.17 135.16 L83.87 134.57 L83.57 133.97 L83.29 133.36 L83.02 132.75 L82.76 132.13 L82.5 131.51 L82.26 130.88 L82.03 130.25 L81.81 129.61 L81.6 128.97 L81.4 128.33 L81.21 127.68 L81.04 127.02 L80.87 126.36 L80.72 125.7 L80.57 125.04 L80.44 124.37 L80.32 123.7 L80.21 123.02 L80.11 122.34 L80.02 121.66 L79.95 120.98 L79.89 120.3 L79.83 119.61 L79.79 118.93 L79.77 118.24 L79.75 117.55 L79.75 116.86 L79.75 116.16 L79.77 115.47 L79.8 114.78 L79.85 114.08 L79.9 113.39 L79.97 112.7 L80.05 112 L80.14 111.31 L80.24 110.62 L80.36 109.93 L80.48 109.24 L80.62 108.55 L80.77 107.87 L80.94 107.18 L81.11 106.5 M84.13 98.54 L84.46 97.9 L84.8 97.27 L85.15 96.64 L85.51 96.02 L85.88 95.41 L86.27 94.8 L86.66 94.19 L87.06 93.59 L87.48 93 L87.91 92.41 L88.34 91.84 L88.79 91.26 L89.25 90.7 L89.71 90.14 L90.19 89.59 L90.68 89.05 L91.18 88.51 L91.69 87.98 L92.2 87.47 L92.73 86.96 L93.26 86.45 L93.81 85.96 L94.36 85.48 L94.93 85 L95.5 84.53 L96.08 84.08 L96.67 83.63 L97.26 83.19 L97.87 82.76 L98.48 82.34 L99.1 81.94 L99.73 81.54 L100.37 81.15 L101.01 80.77 L101.66 80.41 L102.32 80.05 L102.99 79.71 L103.66 79.37 L104.33 79.05 L105.02 78.74 L105.71 78.44 L106.4 78.15 L107.1 77.88 L107.81 77.61 L108.52 77.36 L109.24 77.12 L109.96 76.89 L110.69 76.67 L111.42 76.47 L112.16 76.28 L112.9 76.1 L113.64 75.93 L114.39 75.78 L115.14 75.64 L115.89 75.51 L116.65 75.39 L117.41 75.29 L118.17 75.2 L118.93 75.12 L119.7 75.06 L120.47 75 L121.24 74.97 L122.01 74.94 L122.78 74.93 L123.56 74.93 L124.33 74.95 L125.1 74.98 L125.88 75.02 L126.66 75.07 L127.43 75.14 L128.2 75.22 L128.98 75.32 L129.75 75.43 L130.52 75.55 L131.29 75.68 L132.06 75.83 L132.83 76 L133.6 76.17 L134.36 76.36 L135.12 76.56 L135.88 76.78 L136.63 77.01 L137.39 77.25 L138.13 77.5 L138.88 77.77 L139.62 78.05 L140.36 78.35 L141.09 78.65 L141.82 78.97 L142.54 79.3 L143.26 79.65 L143.97 80.01 L144.68 80.38 L145.38 80.76 L146.07 81.16 L146.76 81.57 L147.45 81.99 L148.12 82.42 L148.79 82.86 L149.46 83.32 L150.11 83.79 L150.76 84.27 L151.4 84.76 L152.04 85.26 L152.66 85.78 L153.28 86.3 L153.89 86.84 L154.49 87.39 L155.08 87.94 L155.66 88.51 L156.23 89.09 L156.79 89.68 L157.35 90.28 L157.89 90.89 L158.43 91.51 L158.95 92.14 L159.46 92.78 L159.96 93.43 L160.46 94.09 L160.94 94.76 L161.41 95.43 L161.87 96.12 L162.32 96.81 L162.75 97.51 L163.18 98.22 L163.59 98.94 L163.99 99.67 L164.38 100.4 L164.76 101.14 L165.12 101.89 L165.47 102.64 L165.81 103.41 L166.14 104.17 L166.45 104.95 L166.75 105.73 L167.04 106.51 L167.31 107.31 L167.58 108.1 L167.82 108.91 L168.06 109.71 L168.28 110.53 L168.48 111.34 L168.68 112.16 L168.85 112.99 L169.02 113.82 L169.17 114.65 L169.31 115.49 L169.43 116.32 L169.54 117.17 L169.63 118.01 L169.71 118.86 L169.77 119.71 L169.82 120.56 L169.86 121.41 L169.88 122.26 L169.89 123.12 L169.88 123.97 L169.86 124.83 L169.82 125.69 L169.77 126.55 L169.7 127.4 L169.62 128.26 L169.52 129.11 L169.41 129.97 L169.28 130.82 L169.14 131.68 L168.99 132.53 L168.82 133.38 L168.63 134.22 L168.43 135.07 L168.22 135.91 L167.99 136.75 L167.74 137.58 L167.48 138.41 L167.21 139.24 L166.92 140.07 L166.62 140.89 L166.31 141.7 L165.98 142.51 L165.63 143.32 L165.27 144.12 L164.9 144.91 L164.51 145.7 L164.11 146.49 L163.7 147.27 L163.27 148.04 L162.83 148.8 L162.37 149.56 L161.91 150.31 L161.42 151.05 L160.93 151.79 L160.42 152.51 L159.9 153.23 L159.37 153.94 L158.82 154.65 L158.26 155.34 L157.69 156.02 L157.11 156.7 L156.51 157.37 L155.9 158.02 L155.28 158.67 L154.65 159.31 L154.01 159.93 L153.36 160.55 L152.69 161.15 L152.02 161.75 L151.33 162.33 L150.63 162.9 L149.92 163.46 L149.21 164.01 L148.48 164.55 L147.74 165.07 L146.99 165.58 L146.24 166.08 L145.47 166.57 L144.7 167.05 L143.91 167.51 L143.12 167.96 L142.32 168.39 L141.51 168.82 L140.7 169.22 L139.87 169.62 L139.04 170 L138.2 170.37 L137.35 170.72 L136.5 171.06 L135.64 171.38 L134.78 171.69 L133.91 171.99 L133.03 172.27 L132.14 172.54 L131.26 172.79 L130.36 173.02 L129.47 173.25 L128.56 173.45 L127.66 173.64 L126.74 173.82 L125.83 173.98 L124.91 174.12 L123.99 174.25 L123.07 174.36 L122.14 174.46 L121.21 174.54 L120.28 174.6 L119.35 174.65 L118.41 174.69 L117.47 174.7 L116.54 174.71 L115.6 174.69 L114.66 174.66 L113.72 174.61 L112.78 174.55 L111.84 174.47 L110.91 174.37 L109.97 174.26 L109.03 174.14 L108.1 173.99 L107.17 173.83 L106.23 173.65 L105.31 173.46 L104.38 173.25 L103.46 173.03 L102.54 172.79 L101.62 172.53 L100.71 172.26 L99.8 171.97 L98.89 171.67 L97.99 171.35 L97.1 171.01 L96.21 170.66 L95.32 170.3 L94.44 169.91 L93.57 169.52 L92.7 169.1 L91.84 168.67 L90.99 168.23 L90.14 167.77 L89.3 167.3 L88.47 166.81 L87.64 166.31 L86.83 165.79 L86.02 165.26 L85.22 164.72 L84.42 164.16 L83.64 163.58 L82.87 163 L82.1 162.39 L81.35 161.78 L80.61 161.15 L79.87 160.51 L79.15 159.85 L78.43 159.19 L77.73 158.51 L77.04 157.81 L76.36 157.11 L75.69 156.39 L75.04 155.66 L74.39 154.92 L73.76 154.17 L73.14 153.4 L72.53 152.63 L71.94 151.84 L71.36 151.04 L70.79 150.23 L70.24 149.42 L69.7 148.59 L69.17 147.75 L68.66 146.9 L68.16 146.04 L67.67 145.18 L67.2 144.3 L66.75 143.42 L66.31 142.53 L65.88 141.62 L65.47 140.72 L65.07 139.8 L64.69 138.87 L64.33 137.94 L63.98 137 L63.65 136.06 L63.33 135.11 L63.03 134.15 L62.75 133.19 L62.48 132.22 L62.23 131.24 L61.99 130.27 L61.77 129.28 L61.57 128.29 L61.39 127.3 L61.22 126.3 L61.07 125.3 L60.93 124.3 L60.81 123.29 L60.71 122.28 L60.63 121.27 L60.57 120.26 L60.52 119.24 L60.49 118.22 L60.47 117.2 L60.48 116.18 L60.5 115.16 L60.54 114.14 L60.59 113.12 L60.67 112.1 L60.76 111.08 L60.87 110.06 L61 109.04 L61.14 108.03 L61.3 107.01 L61.48 106 L61.68 104.99 L61.89 103.98 L62.12 102.98 L62.37 101.97 L62.64 100.98 L62.92 99.98 L63.22 98.99 L63.54 98.01 L63.88 97.02 L64.23 96.05 L64.6 95.08 L64.99 94.11 L65.39 93.15 L65.81 92.2 L66.25 91.25 L66.7 90.31 L67.17 89.38 L67.65 88.46 L68.16 87.54 L68.67 86.63 L69.21 85.73 L69.76 84.84 L70.32 83.95 L70.9 83.08 L71.5 82.21 L72.11 81.36 L72.74 80.51 L73.38 79.67 L74.04 78.85 L74.71 78.03 L75.39 77.23 L76.09 76.44 L76.81 75.66 L77.54 74.89 L78.28 74.13 L79.03 73.38 L79.8 72.65 L80.58 71.93 L81.38 71.22 L82.18 70.53 L83 69.85 L83.83 69.18 L84.68 68.53 L85.53 67.89 L86.4 67.26 L87.28 66.65 L88.17 66.05 L89.07 65.47 L89.98 64.91 L90.9 64.35 L91.83 63.82 L92.77 63.3 L93.72 62.79 L94.68 62.31 L95.65 61.83 L96.63 61.38 L97.62 60.94 L98.61 60.51 L99.61 60.11 L100.62 59.72 L101.64 59.35 L102.66 58.99 L103.7 58.65 L104.73 58.33 L105.78 58.03 L106.83 57.74 L107.88 57.48 L108.94 57.23 L110.01 56.99 L111.08 56.78 L112.15 56.59 L113.23 56.41 L114.31 56.25 L115.4 56.11 L116.49 55.99 L117.58 55.89 L118.68 55.8 L119.77 55.74 L120.87 55.69 L121.97 55.66 L123.07 55.65 L124.17 55.66 L125.28 55.69 L126.38 55.74 L127.48 55.8 L128.59 55.89 L129.69 55.99 L130.79 56.11 L131.89 56.26 L132.99 56.42 L134.08 56.6 L135.17 56.8 L136.26 57.01 L137.35 57.25 L138.44 57.51 L139.52 57.78 L140.59 58.07 L141.67 58.38 L142.73 58.71 L143.8 59.06 L144.85 59.43 L145.9 59.81 L146.95 60.22 L147.99 60.64 M156.05 64.65 L157.02 65.23 L157.98 65.83 L158.93 66.44 L159.87 67.08 L160.8 67.72 L161.72 68.39 L162.63 69.07 L163.53 69.76 L164.41 70.47 L165.29 71.2 L166.15 71.94 L167 72.7 L167.84 73.48 L168.67 74.26 L169.48 75.07 L170.28 75.88 L171.07 76.71 L171.84 77.56 L172.6 78.42 L173.34 79.29 L174.07 80.18 L174.79 81.08 L175.49 81.99 L176.17 82.91 L176.84 83.85 L177.49 84.8 L178.13 85.76 L178.75 86.73 L179.36 87.71 L179.95 88.71 L180.52 89.71 L181.08 90.73 L181.62 91.76 L182.14 92.79 L182.64 93.84 L183.13 94.89 L183.6 95.95 L184.05 97.03 L184.48 98.11 L184.9 99.2 L185.29 100.29 L185.67 101.4 L186.03 102.51 L186.37 103.62 L186.69 104.75 L186.99 105.88 L187.28 107.02 L187.54 108.16 L187.78 109.31 L188.01 110.46 L188.21 111.61 L188.4 112.77 L188.57 113.94 L188.71 115.11 L188.84 116.28 L188.94 117.45 L189.03 118.63 L189.09 119.81 L189.14 120.99 L189.17 122.17 L189.17 123.36 L189.16 124.54 L189.12 125.73 L189.06 126.91 L188.99 128.1 L188.89 129.28 L188.78 130.46 L188.64 131.65 L188.48 132.83 L188.3 134.01 L188.11 135.18 L187.89 136.35 L187.65 137.53 L187.39 138.69 L187.11 139.86 L186.81 141.01 L186.49 142.17 L186.16 143.32 L185.8 144.46 L185.42 145.6 L185.02 146.74 L184.6 147.87 L184.16 148.99 L183.71 150.1 L183.23 151.21 L182.73 152.31 L182.22 153.4 L181.69 154.48 L181.13 155.56 L180.56 156.62 L179.97 157.68 L179.36 158.73 L178.74 159.77 L178.09 160.79 L177.43 161.81 L176.75 162.82 L176.05 163.81 L175.33 164.8 L174.6 165.77 L173.85 166.73 L173.08 167.68 L172.3 168.61 L171.5 169.54 L170.68 170.45 L169.85 171.34 L169 172.22 L168.14 173.09 L167.26 173.95 L166.37 174.79 L165.46 175.61 L164.53 176.42 L163.59 177.21 L162.64 177.99 L161.67 178.76 L160.69 179.5 L159.7 180.23 L158.69 180.95 L157.68 181.64 L156.64 182.32 L155.6 182.99 L154.54 183.63 L153.48 184.26 L152.4 184.87 L151.31 185.46 L150.21 186.03 L149.09 186.59 L147.97 187.12 L146.84 187.64 L145.7 188.14 L144.55 188.62 L143.39 189.07 L142.22 189.51 L141.05 189.93 L139.87 190.33 L138.67 190.71 L137.48 191.07 L136.27 191.41 L135.06 191.73 L133.84 192.03 L132.62 192.31 L131.39 192.56 L130.16 192.8 L128.92 193.01 L127.68 193.21 L126.43 193.38 L125.18 193.53 L123.92 193.66 L122.67 193.77 L121.41 193.86 L120.15 193.92 L118.88 193.97 L117.62 193.99 L116.35 193.99 L115.08 193.97 L113.82 193.93 L112.55 193.87 L111.28 193.78 L110.02 193.67 L108.75 193.54 L107.49 193.39 L106.23 193.22 L104.97 193.02 L103.71 192.81 L102.46 192.57 L101.21 192.31 L99.96 192.03 L98.72 191.73 L97.48 191.4 L96.25 191.06 L95.02 190.69 L93.8 190.3 L92.58 189.89 L91.37 189.46 L90.17 189.01 L88.97 188.54 L87.78 188.05 L86.6 187.54 L85.43 187 L84.26 186.45 L83.11 185.87 L81.96 185.28 L80.83 184.66 L79.7 184.03 L78.58 183.38 L77.48 182.7 L76.38 182.01 L75.3 181.3 L74.23 180.57 L73.17 179.82 L72.12 179.05 L71.08 178.26 L70.06 177.46 L69.05 176.64 L68.05 175.8 L67.07 174.94 L66.1 174.07 L65.15 173.17 L64.21 172.26 L63.29 171.34 L62.38 170.4 L61.49 169.44 L60.61 168.47 L59.75 167.48 L58.91 166.47 L58.08 165.45 L57.27 164.42 L56.48 163.37 L55.7 162.31 L54.94 161.23 L54.2 160.14 L53.48 159.04 L52.78 157.92 L52.1 156.79 L51.43 155.65 L50.78 154.5 L50.16 153.34 L49.55 152.16 L48.96 150.97 L48.4 149.77 L47.85 148.57 L47.32 147.35 L46.82 146.12 L46.33 144.88 L45.87 143.64 L45.42 142.38 L45 141.12 L44.6 139.85 L44.22 138.57 L43.87 137.29 L43.53 135.99 L43.22 134.69 L42.92 133.39 L42.66 132.08 L42.41 130.76 L42.18 129.44 L41.98 128.12 L41.8 126.79 L41.64 125.46 L41.51 124.12 L41.4 122.78 L41.31 121.44 L41.25 120.09 L41.2 118.75 L41.18 117.4 L41.19 116.05 L41.21 114.7 L41.26 113.35 L41.34 112 L41.43 110.65 L41.55 109.31 L41.69 107.96 L41.86 106.61 L42.05 105.27 L42.26 103.93 L42.49 102.6 L42.75 101.26 L43.03 99.93 L43.33 98.61 L43.66 97.28 L44.01 95.97 L44.38 94.66 L44.78 93.35 L45.19 92.05 L45.63 90.76 L46.09 89.47 L46.58 88.19 L47.08 86.92 L47.61 85.66 L48.16 84.4 L48.73 83.16 L49.33 81.92 L49.94 80.69 L50.58 79.48 L51.24 78.27 L51.92 77.07 L52.61 75.89 L53.33 74.71 L54.07 73.55 L54.84 72.4 L55.62 71.26 L56.42 70.14 L57.24 69.03 L58.08 67.93 L58.94 66.84 L59.81 65.77 L60.71 64.72 L61.63 63.68 L62.56 62.65 L63.51 61.64 L64.48 60.64 L65.47 59.67 L66.47 58.7 L67.49 57.76 L68.53 56.83 L69.58 55.92 L70.65 55.02 L71.74 54.15 L72.84 53.29 L73.96 52.45 L75.09 51.63 L76.24 50.83 L77.4 50.05 L78.57 49.28 L79.76 48.54 L80.96 47.82 L82.18 47.12 L83.4 46.43 L84.64 45.77 L85.89 45.13 L87.16 44.51 L88.43 43.91 L89.72 43.33 L91.01 42.78 L92.32 42.25 L93.63 41.73 L94.96 41.25 L96.29 40.78 L97.63 40.34 L98.98 39.91 L100.34 39.52 L101.71 39.14 L103.08 38.79 L104.46 38.46 L105.85 38.15 L107.24 37.87 L108.64 37.61 L110.04 37.38 L111.45 37.17 L112.86 36.98 L114.27 36.82 L115.69 36.68 L117.12 36.57 L118.54 36.48 L119.97 36.42 L121.4 36.37 L122.83 36.36 L124.26 36.37 L125.69 36.4 L127.12 36.46 L128.55 36.54 L129.98 36.64 L131.41 36.77 L132.84 36.93 L134.27 37.11 L135.69 37.31 L137.11 37.54 L138.53 37.79 L139.94 38.07 L141.35 38.37 L142.76 38.7 L144.16 39.05 L145.55 39.42 L146.94 39.82 L148.32 40.25 L149.7 40.69 L151.07 41.16 L152.43 41.66 L153.79 42.17 L155.13 42.71 L156.47 43.28 L157.8 43.86 L159.12 44.47 L160.43 45.11 L161.73 45.76 L163.02 46.44 L164.29 47.14 L165.56 47.87 L166.81 48.61 L168.06 49.38 L169.29 50.17 L170.5 50.97 L171.71 51.81 L172.9 52.66 L174.07 53.53 L175.23 54.42 L176.38 55.34 L177.51 56.27 L178.63 57.22 L179.73 58.2 L180.81 59.19" fill="none" stroke="#F6EDDB" stroke-width="3.5" stroke-linecap="round" stroke-linejoin="round"/>
<path d="M126.32 84.71 L127.48 84.83 L128.65 85 L129.81 85.2 L130.97 85.44 L132.12 85.72 L133.26 86.04 L134.4 86.4 L135.53 86.8 L136.65 87.23 L137.76 87.7 L138.85 88.21 L139.93 88.76 L140.99 89.34 L142.04 89.96 L143.06 90.61 L144.07 91.3 L145.06 92.03 L146.03 92.79 L146.97 93.58 L147.89 94.4 M126.67 143.91 L125.81 144.25 L124.94 144.55 L124.06 144.83 L123.16 145.07 L122.25 145.28 L121.33 145.46 L120.4 145.6 L119.46 145.71 L118.51 145.79 L117.56 145.83 L116.6 145.83 L115.64 145.8 L114.67 145.74 L113.71 145.63 L112.74 145.49 L111.78 145.32 L110.82 145.11 L109.86 144.86 L108.91 144.57 L107.97 144.25 M117.9 65.54 L119.37 65.42 L120.85 65.34 L122.34 65.3 L123.83 65.3 L125.32 65.34 L126.81 65.42 L128.29 65.54 L129.78 65.71 L131.27 65.91 L132.75 66.15 L134.22 66.44 L135.69 66.76 L137.16 67.13 L138.61 67.54 L140.06 67.98 L141.49 68.47 L142.92 68.99 L144.33 69.56 L145.72 70.16 L147.1 70.8 M148.33 152 L147.49 152.83 L146.63 153.65 L145.74 154.43 L144.83 155.2 L143.9 155.94 L142.95 156.65 L141.97 157.35 L140.98 158.01 L139.96 158.65 L138.93 159.26 L137.88 159.84 L136.8 160.4 L135.72 160.92 L134.61 161.42 L133.49 161.89 L132.36 162.33 L131.21 162.73 L130.05 163.11 L128.87 163.45 L127.69 163.76 M51.66 106.25 L51.94 104.59 L52.25 102.93 L52.61 101.28 L53.02 99.64 L53.46 98.01 L53.94 96.38 L54.46 94.77 L55.01 93.17 L55.61 91.58 L56.25 90 L56.93 88.44 L57.64 86.89 L58.39 85.36 L59.18 83.85 L60.01 82.35 L60.87 80.87 L61.77 79.42 L62.71 77.98 L63.68 76.56 L64.69 75.17 M162.23 81.45 L163.13 82.37 L164.02 83.3 L164.89 84.26 L165.73 85.23 L166.56 86.23 L167.36 87.24 L168.15 88.28 L168.9 89.33 L169.64 90.4 L170.35 91.49 L171.04 92.59 L171.71 93.72 L172.35 94.85 L172.96 96.01 L173.55 97.18 L174.11 98.36 L174.65 99.56 L175.16 100.77 L175.64 101.99 L176.1 103.22 M103.54 202.57 L102.07 202.31 L100.6 202.04 L99.14 201.73 L97.68 201.4 L96.23 201.05 L94.78 200.67 L93.34 200.26 L91.9 199.83 L90.47 199.37 L89.05 198.88 L87.64 198.37 L86.24 197.84 L84.84 197.28 L83.46 196.69 L82.08 196.08 L80.72 195.45 L79.36 194.79 L78.02 194.1 L76.68 193.4 L75.36 192.66 M60.31 81.82 L60.84 80.92 L61.39 80.03 L61.95 79.15 L62.52 78.27 L63.1 77.4 L63.7 76.54 L64.31 75.69 L64.93 74.84 L65.57 74.01 L66.22 73.18 L66.88 72.37 L67.55 71.56 L68.24 70.76 L68.94 69.97 L69.65 69.19 L70.37 68.42 L71.1 67.67 L71.85 66.92 L72.61 66.18 L73.38 65.45 " fill="none" stroke="#D4A23C" stroke-width="3.5" stroke-linecap="round" stroke-linejoin="round"/>
</g>
</svg>