<svg xmlns="http://www.w3.org/2000/svg" viewBox="0 0 480 640" font-family="'Mulish','Noto Sans Devanagari',sans-serif">
<defs><style>@import url('https://fonts.googleapis.com/css2?family=Anton&amp;family=Courier+Prime:ital,wght@0,400;0,700;1,400&amp;family=Yatra+One&amp;family=Mulish:wght@600;700;800&amp;family=Noto+Sans+Devanagari:wght@500;700&amp;display=swap');</style>
  <clipPath id="field-masala-f"><rect x="44" y="44" width="392" height="552" rx="8"/></clipPath>
  <pattern id="ht-masala-f" width="7" height="7" patternUnits="userSpaceOnUse" patternTransform="rotate(18)"><circle cx="3.5" cy="3.5" r="1.15" fill="#33241A"/></pattern>
  <radialGradient id="vg-masala-f" cx=".5" cy=".46" r=".78"><stop offset=".68" stop-color="#6B4A2A" stop-opacity="0"/><stop offset="1" stop-color="#6B4A2A" stop-opacity=".12"/></radialGradient>
  <filter id="grain-masala-f"><feTurbulence type="fractalNoise" baseFrequency=".8" numOctaves="2" stitchTiles="stitch" result="n"/><feColorMatrix in="n" type="saturate" values="0"/><feComponentTransfer><feFuncA type="linear" slope=".055"/></feComponentTransfer><feComposite operator="over" in2="SourceGraphic"/></filter>
  <path id="rup-masala-f" d="M 152 312 a 88 88 0 0 1 176 0" fill="none"/>
  <path id="rdn-masala-f" d="M 152 312 a 88 88 0 0 0 176 0" fill="none"/>
  
  <!-- the misregistered ink channel: printed twice, once slipped 1px -->
  <g id="red-masala-f">
    <rect x="40" y="40" width="400" height="560" fill="none" stroke="#B3372B" stroke-width="1.5"/>
    <text x="240" y="122" text-anchor="middle" font-family="'Yatra One','Noto Sans Devanagari',serif" font-size="46" fill="#B3372B">मसाला चिवडा</text>
    <circle cx="240" cy="312" r="106" fill="none" stroke="#B3372B" stroke-width="4"/>
    <path d="M70 474 H410 L396 493 L410 512 H70 L84 493 Z"/>
    <text x="240" y="562" text-anchor="middle" font-family="'Yatra One','Noto Sans Devanagari',serif" font-size="15.5" fill="#B3372B">पोहे · शेंगदाणे · कढीपत्ता · मसाला — बस्स.</text>
  </g></defs>
<g filter="url(#grain-masala-f)">
  <!-- paper -->
  <rect x="0" y="0" width="480" height="640" fill="#F1E4CB"/>

  <!-- sunburst: off-rotated, clipped to the field -->
  <g clip-path="url(#field-masala-f)">
    <g transform="rotate(-6 240 312)">
      <path d="M293 312 L760 312 L758.57 350.47 L292.85 315.92 Z M291.67 323.79 L746.96 427.71 L737.01 464.9 L290.66 327.58 Z M287.75 335 L708.5 537.62 L690.53 571.66 L285.92 338.47 Z M281.44 345.04 L646.55 636.21 L621.45 665.4 L278.88 348.02 Z M273.04 353.44 L564.21 718.55 L533.25 741.42 L269.89 355.77 Z M263 359.75 L465.62 780.5 L430.34 795.91 L259.4 361.32 Z M251.79 363.67 L355.71 818.96 L317.89 826.13 L247.94 364.4 Z M240 365 L240 832 L201.53 830.57 L236.08 364.85 Z M228.21 363.67 L124.29 818.96 L87.1 809.01 L224.42 362.66 Z M217 359.75 L14.38 780.5 L-19.66 762.53 L213.53 357.92 Z M206.96 353.44 L-84.21 718.55 L-113.4 693.45 L203.98 350.88 Z M198.56 345.04 L-166.55 636.21 L-189.42 605.25 L196.23 341.89 Z M192.25 335 L-228.5 537.62 L-243.91 502.34 L190.68 331.4 Z M188.33 323.79 L-266.96 427.71 L-274.13 389.89 L187.6 319.94 Z M187 312 L-280 312 L-278.57 273.53 L187.15 308.08 Z M188.33 300.21 L-266.96 196.29 L-257.01 159.1 L189.34 296.42 Z M192.25 289 L-228.5 86.38 L-210.53 52.34 L194.08 285.53 Z M198.56 278.96 L-166.55 -12.21 L-141.45 -41.4 L201.12 275.98 Z M206.96 270.56 L-84.21 -94.55 L-53.25 -117.42 L210.11 268.23 Z M217 264.25 L14.38 -156.5 L49.66 -171.91 L220.6 262.68 Z M228.21 260.33 L124.29 -194.96 L162.11 -202.13 L232.06 259.6 Z M240 259 L240 -208 L278.47 -206.57 L243.92 259.15 Z M251.79 260.33 L355.71 -194.96 L392.9 -185.01 L255.58 261.34 Z M263 264.25 L465.62 -156.5 L499.66 -138.53 L266.47 266.08 Z M273.04 270.56 L564.21 -94.55 L593.4 -69.45 L276.02 273.12 Z M281.44 278.96 L646.55 -12.21 L669.42 18.75 L283.77 282.11 Z M287.75 289 L708.5 86.38 L723.91 121.66 L289.32 292.6 Z M291.67 300.21 L746.96 196.29 L754.13 234.11 L292.4 304.06 Z " fill="#B3372B" opacity=".14"/>
    </g>
    <rect x="44" y="44" width="392" height="552" fill="url(#ht-masala-f)" opacity=".07"/>
  </g>
  <rect x="12" y="12" width="456" height="616" fill="url(#vg-masala-f)"/>

  <!-- frame: heavy rule, rails, rope, thin red rule (in channel) -->
  <rect x="10" y="10" width="460" height="620" fill="none" stroke="#33241A" stroke-width="2.6"/>
  <rect x="17" y="17" width="446" height="606" rx="20" fill="none" stroke="#33241A" stroke-width=".9" opacity=".8"/>
  <rect x="31" y="31" width="418" height="578" rx="12" fill="none" stroke="#33241A" stroke-width=".9" opacity=".8"/>
  <ellipse cx="40" cy="24" rx="4.7" ry="2.15" fill="#C8922A" stroke="#33241A" stroke-width=".85" transform="rotate(42 40 24)"/><ellipse cx="48.21" cy="24" rx="4.7" ry="2.15" fill="#C8922A" stroke="#33241A" stroke-width=".85" transform="rotate(42 48.21 24)"/><ellipse cx="56.43" cy="24" rx="4.7" ry="2.15" fill="#C8922A" stroke="#33241A" stroke-width=".85" transform="rotate(42 56.43 24)"/><ellipse cx="64.64" cy="24" rx="4.7" ry="2.15" fill="#C8922A" stroke="#33241A" stroke-width=".85" transform="rotate(42 64.64 24)"/><ellipse cx="72.85" cy="24" rx="4.7" ry="2.15" fill="#C8922A" stroke="#33241A" stroke-width=".85" transform="rotate(42 72.85 24)"/><ellipse cx="81.07" cy="24" rx="4.7" ry="2.15" fill="#C8922A" stroke="#33241A" stroke-width=".85" transform="rotate(42 81.07 24)"/><ellipse cx="89.28" cy="24" rx="4.7" ry="2.15" fill="#C8922A" stroke="#33241A" stroke-width=".85" transform="rotate(42 89.28 24)"/><ellipse cx="97.49" cy="24" rx="4.7" ry="2.15" fill="#C8922A" stroke="#33241A" stroke-width=".85" transform="rotate(42 97.49 24)"/><ellipse cx="105.71" cy="24" rx="4.7" ry="2.15" fill="#C8922A" stroke="#33241A" stroke-width=".85" transform="rotate(42 105.71 24)"/><ellipse cx="113.92" cy="24" rx="4.7" ry="2.15" fill="#C8922A" stroke="#33241A" stroke-width=".85" transform="rotate(42 113.92 24)"/><ellipse cx="122.14" cy="24" rx="4.7" ry="2.15" fill="#C8922A" stroke="#33241A" stroke-width=".85" transform="rotate(42 122.14 24)"/><ellipse cx="130.35" cy="24" rx="4.7" ry="2.15" fill="#C8922A" stroke="#33241A" stroke-width=".85" transform="rotate(42 130.35 24)"/><ellipse cx="138.56" cy="24" rx="4.7" ry="2.15" fill="#C8922A" stroke="#33241A" stroke-width=".85" transform="rotate(42 138.56 24)"/><ellipse cx="146.78" cy="24" rx="4.7" ry="2.15" fill="#C8922A" stroke="#33241A" stroke-width=".85" transform="rotate(42 146.78 24)"/><ellipse cx="154.99" cy="24" rx="4.7" ry="2.15" fill="#C8922A" stroke="#33241A" stroke-width=".85" transform="rotate(42 154.99 24)"/><ellipse cx="163.2" cy="24" rx="4.7" ry="2.15" fill="#C8922A" stroke="#33241A" stroke-width=".85" transform="rotate(42 163.2 24)"/><ellipse cx="171.42" cy="24" rx="4.7" ry="2.15" fill="#C8922A" stroke="#33241A" stroke-width=".85" transform="rotate(42 171.42 24)"/><ellipse cx="179.63" cy="24" rx="4.7" ry="2.15" fill="#C8922A" stroke="#33241A" stroke-width=".85" transform="rotate(42 179.63 24)"/><ellipse cx="187.84" cy="24" rx="4.7" ry="2.15" fill="#C8922A" stroke="#33241A" stroke-width=".85" transform="rotate(42 187.84 24)"/><ellipse cx="196.06" cy="24" rx="4.7" ry="2.15" fill="#C8922A" stroke="#33241A" stroke-width=".85" transform="rotate(42 196.06 24)"/><ellipse cx="204.27" cy="24" rx="4.7" ry="2.15" fill="#C8922A" stroke="#33241A" stroke-width=".85" transform="rotate(42 204.27 24)"/><ellipse cx="212.48" cy="24" rx="4.7" ry="2.15" fill="#C8922A" stroke="#33241A" stroke-width=".85" transform="rotate(42 212.48 24)"/><ellipse cx="220.7" cy="24" rx="4.7" ry="2.15" fill="#C8922A" stroke="#33241A" stroke-width=".85" transform="rotate(42 220.7 24)"/><ellipse cx="228.91" cy="24" rx="4.7" ry="2.15" fill="#C8922A" stroke="#33241A" stroke-width=".85" transform="rotate(42 228.91 24)"/><ellipse cx="237.12" cy="24" rx="4.7" ry="2.15" fill="#C8922A" stroke="#33241A" stroke-width=".85" transform="rotate(42 237.12 24)"/><ellipse cx="245.34" cy="24" rx="4.7" ry="2.15" fill="#C8922A" stroke="#33241A" stroke-width=".85" transform="rotate(42 245.34 24)"/><ellipse cx="253.55" cy="24" rx="4.7" ry="2.15" fill="#C8922A" stroke="#33241A" stroke-width=".85" transform="rotate(42 253.55 24)"/><ellipse cx="261.77" cy="24" rx="4.7" ry="2.15" fill="#C8922A" stroke="#33241A" stroke-width=".85" transform="rotate(42 261.77 24)"/><ellipse cx="269.98" cy="24" rx="4.7" ry="2.15" fill="#C8922A" stroke="#33241A" stroke-width=".85" transform="rotate(42 269.98 24)"/><ellipse cx="278.19" cy="24" rx="4.7" ry="2.15" fill="#C8922A" stroke="#33241A" stroke-width=".85" transform="rotate(42 278.19 24)"/><ellipse cx="286.41" cy="24" rx="4.7" ry="2.15" fill="#C8922A" stroke="#33241A" stroke-width=".85" transform="rotate(42 286.41 24)"/><ellipse cx="294.62" cy="24" rx="4.7" ry="2.15" fill="#C8922A" stroke="#33241A" stroke-width=".85" transform="rotate(42 294.62 24)"/><ellipse cx="302.83" cy="24" rx="4.7" ry="2.15" fill="#C8922A" stroke="#33241A" stroke-width=".85" transform="rotate(42 302.83 24)"/><ellipse cx="311.05" cy="24" rx="4.7" ry="2.15" fill="#C8922A" stroke="#33241A" stroke-width=".85" transform="rotate(42 311.05 24)"/><ellipse cx="319.26" cy="24" rx="4.7" ry="2.15" fill="#C8922A" stroke="#33241A" stroke-width=".85" transform="rotate(42 319.26 24)"/><ellipse cx="327.47" cy="24" rx="4.7" ry="2.15" fill="#C8922A" stroke="#33241A" stroke-width=".85" transform="rotate(42 327.47 24)"/><ellipse cx="335.69" cy="24" rx="4.7" ry="2.15" fill="#C8922A" stroke="#33241A" stroke-width=".85" transform="rotate(42 335.69 24)"/><ellipse cx="343.9" cy="24" rx="4.7" ry="2.15" fill="#C8922A" stroke="#33241A" stroke-width=".85" transform="rotate(42 343.9 24)"/><ellipse cx="352.11" cy="24" rx="4.7" ry="2.15" fill="#C8922A" stroke="#33241A" stroke-width=".85" transform="rotate(42 352.11 24)"/><ellipse cx="360.33" cy="24" rx="4.7" ry="2.15" fill="#C8922A" stroke="#33241A" stroke-width=".85" transform="rotate(42 360.33 24)"/><ellipse cx="368.54" cy="24" rx="4.7" ry="2.15" fill="#C8922A" stroke="#33241A" stroke-width=".85" transform="rotate(42 368.54 24)"/><ellipse cx="376.76" cy="24" rx="4.7" ry="2.15" fill="#C8922A" stroke="#33241A" stroke-width=".85" transform="rotate(42 376.76 24)"/><ellipse cx="384.97" cy="24" rx="4.7" ry="2.15" fill="#C8922A" stroke="#33241A" stroke-width=".85" transform="rotate(42 384.97 24)"/><ellipse cx="393.18" cy="24" rx="4.7" ry="2.15" fill="#C8922A" stroke="#33241A" stroke-width=".85" transform="rotate(42 393.18 24)"/><ellipse cx="401.4" cy="24" rx="4.7" ry="2.15" fill="#C8922A" stroke="#33241A" stroke-width=".85" transform="rotate(42 401.4 24)"/><ellipse cx="409.61" cy="24" rx="4.7" ry="2.15" fill="#C8922A" stroke="#33241A" stroke-width=".85" transform="rotate(42 409.61 24)"/><ellipse cx="417.82" cy="24" rx="4.7" ry="2.15" fill="#C8922A" stroke="#33241A" stroke-width=".85" transform="rotate(42 417.82 24)"/><ellipse cx="426.04" cy="24" rx="4.7" ry="2.15" fill="#C8922A" stroke="#33241A" stroke-width=".85" transform="rotate(42 426.04 24)"/><ellipse cx="434.25" cy="24" rx="4.7" ry="2.15" fill="#C8922A" stroke="#33241A" stroke-width=".85" transform="rotate(42 434.25 24)"/><ellipse cx="442.45" cy="24.19" rx="4.7" ry="2.15" fill="#C8922A" stroke="#33241A" stroke-width=".85" transform="rotate(50.82 442.45 24.19)"/><ellipse cx="449.9" cy="27.43" rx="4.7" ry="2.15" fill="#C8922A" stroke="#33241A" stroke-width=".85" transform="rotate(80.23 449.9 27.43)"/><ellipse cx="454.8" cy="33.91" rx="4.7" ry="2.15" fill="#C8922A" stroke="#33241A" stroke-width=".85" transform="rotate(109.65 454.8 33.91)"/><ellipse cx="456" cy="41.97" rx="4.7" ry="2.15" fill="#C8922A" stroke="#33241A" stroke-width=".85" transform="rotate(132 456 41.97)"/><ellipse cx="456" cy="50.18" rx="4.7" ry="2.15" fill="#C8922A" stroke="#33241A" stroke-width=".85" transform="rotate(132 456 50.18)"/><ellipse cx="456" cy="58.4" rx="4.7" ry="2.15" fill="#C8922A" stroke="#33241A" stroke-width=".85" transform="rotate(132 456 58.4)"/><ellipse cx="456" cy="66.61" rx="4.7" ry="2.15" fill="#C8922A" stroke="#33241A" stroke-width=".85" transform="rotate(132 456 66.61)"/><ellipse cx="456" cy="74.83" rx="4.7" ry="2.15" fill="#C8922A" stroke="#33241A" stroke-width=".85" transform="rotate(132 456 74.83)"/><ellipse cx="456" cy="83.04" rx="4.7" ry="2.15" fill="#C8922A" stroke="#33241A" stroke-width=".85" transform="rotate(132 456 83.04)"/><ellipse cx="456" cy="91.25" rx="4.7" ry="2.15" fill="#C8922A" stroke="#33241A" stroke-width=".85" transform="rotate(132 456 91.25)"/><ellipse cx="456" cy="99.47" rx="4.7" ry="2.15" fill="#C8922A" stroke="#33241A" stroke-width=".85" transform="rotate(132 456 99.47)"/><ellipse cx="456" cy="107.68" rx="4.7" ry="2.15" fill="#C8922A" stroke="#33241A" stroke-width=".85" transform="rotate(132 456 107.68)"/><ellipse cx="456" cy="115.89" rx="4.7" ry="2.15" fill="#C8922A" stroke="#33241A" stroke-width=".85" transform="rotate(132 456 115.89)"/><ellipse cx="456" cy="124.11" rx="4.7" ry="2.15" fill="#C8922A" stroke="#33241A" stroke-width=".85" transform="rotate(132 456 124.11)"/><ellipse cx="456" cy="132.32" rx="4.7" ry="2.15" fill="#C8922A" stroke="#33241A" stroke-width=".85" transform="rotate(132 456 132.32)"/><ellipse cx="456" cy="140.53" rx="4.7" ry="2.15" fill="#C8922A" stroke="#33241A" stroke-width=".85" transform="rotate(132 456 140.53)"/><ellipse cx="456" cy="148.75" rx="4.7" ry="2.15" fill="#C8922A" stroke="#33241A" stroke-width=".85" transform="rotate(132 456 148.75)"/><ellipse cx="456" cy="156.96" rx="4.7" ry="2.15" fill="#C8922A" stroke="#33241A" stroke-width=".85" transform="rotate(132 456 156.96)"/><ellipse cx="456" cy="165.17" rx="4.7" ry="2.15" fill="#C8922A" stroke="#33241A" stroke-width=".85" transform="rotate(132 456 165.17)"/><ellipse cx="456" cy="173.39" rx="4.7" ry="2.15" fill="#C8922A" stroke="#33241A" stroke-width=".85" transform="rotate(132 456 173.39)"/><ellipse cx="456" cy="181.6" rx="4.7" ry="2.15" fill="#C8922A" stroke="#33241A" stroke-width=".85" transform="rotate(132 456 181.6)"/><ellipse cx="456" cy="189.82" rx="4.7" ry="2.15" fill="#C8922A" stroke="#33241A" stroke-width=".85" transform="rotate(132 456 189.82)"/><ellipse cx="456" cy="198.03" rx="4.7" ry="2.15" fill="#C8922A" stroke="#33241A" stroke-width=".85" transform="rotate(132 456 198.03)"/><ellipse cx="456" cy="206.24" rx="4.7" ry="2.15" fill="#C8922A" stroke="#33241A" stroke-width=".85" transform="rotate(132 456 206.24)"/><ellipse cx="456" cy="214.46" rx="4.7" ry="2.15" fill="#C8922A" stroke="#33241A" stroke-width=".85" transform="rotate(132 456 214.46)"/><ellipse cx="456" cy="222.67" rx="4.7" ry="2.15" fill="#C8922A" stroke="#33241A" stroke-width=".85" transform="rotate(132 456 222.67)"/><ellipse cx="456" cy="230.88" rx="4.7" ry="2.15" fill="#C8922A" stroke="#33241A" stroke-width=".85" transform="rotate(132 456 230.88)"/><ellipse cx="456" cy="239.1" rx="4.7" ry="2.15" fill="#C8922A" stroke="#33241A" stroke-width=".85" transform="rotate(132 456 239.1)"/><ellipse cx="456" cy="247.31" rx="4.7" ry="2.15" fill="#C8922A" stroke="#33241A" stroke-width=".85" transform="rotate(132 456 247.31)"/><ellipse cx="456" cy="255.52" rx="4.7" ry="2.15" fill="#C8922A" stroke="#33241A" stroke-width=".85" transform="rotate(132 456 255.52)"/><ellipse cx="456" cy="263.74" rx="4.7" ry="2.15" fill="#C8922A" stroke="#33241A" stroke-width=".85" transform="rotate(132 456 263.74)"/><ellipse cx="456" cy="271.95" rx="4.7" ry="2.15" fill="#C8922A" stroke="#33241A" stroke-width=".85" transform="rotate(132 456 271.95)"/><ellipse cx="456" cy="280.16" rx="4.7" ry="2.15" fill="#C8922A" stroke="#33241A" stroke-width=".85" transform="rotate(132 456 280.16)"/><ellipse cx="456" cy="288.38" rx="4.7" ry="2.15" fill="#C8922A" stroke="#33241A" stroke-width=".85" transform="rotate(132 456 288.38)"/><ellipse cx="456" cy="296.59" rx="4.7" ry="2.15" fill="#C8922A" stroke="#33241A" stroke-width=".85" transform="rotate(132 456 296.59)"/><ellipse cx="456" cy="304.8" rx="4.7" ry="2.15" fill="#C8922A" stroke="#33241A" stroke-width=".85" transform="rotate(132 456 304.8)"/><ellipse cx="456" cy="313.02" rx="4.7" ry="2.15" fill="#C8922A" stroke="#33241A" stroke-width=".85" transform="rotate(132 456 313.02)"/><ellipse cx="456" cy="321.23" rx="4.7" ry="2.15" fill="#C8922A" stroke="#33241A" stroke-width=".85" transform="rotate(132 456 321.23)"/><ellipse cx="456" cy="329.45" rx="4.7" ry="2.15" fill="#C8922A" stroke="#33241A" stroke-width=".85" transform="rotate(132 456 329.45)"/><ellipse cx="456" cy="337.66" rx="4.7" ry="2.15" fill="#C8922A" stroke="#33241A" stroke-width=".85" transform="rotate(132 456 337.66)"/><ellipse cx="456" cy="345.87" rx="4.7" ry="2.15" fill="#C8922A" stroke="#33241A" stroke-width=".85" transform="rotate(132 456 345.87)"/><ellipse cx="456" cy="354.09" rx="4.7" ry="2.15" fill="#C8922A" stroke="#33241A" stroke-width=".85" transform="rotate(132 456 354.09)"/><ellipse cx="456" cy="362.3" rx="4.7" ry="2.15" fill="#C8922A" stroke="#33241A" stroke-width=".85" transform="rotate(132 456 362.3)"/><ellipse cx="456" cy="370.51" rx="4.7" ry="2.15" fill="#C8922A" stroke="#33241A" stroke-width=".85" transform="rotate(132 456 370.51)"/><ellipse cx="456" cy="378.73" rx="4.7" ry="2.15" fill="#C8922A" stroke="#33241A" stroke-width=".85" transform="rotate(132 456 378.73)"/><ellipse cx="456" cy="386.94" rx="4.7" ry="2.15" fill="#C8922A" stroke="#33241A" stroke-width=".85" transform="rotate(132 456 386.94)"/><ellipse cx="456" cy="395.15" rx="4.7" ry="2.15" fill="#C8922A" stroke="#33241A" stroke-width=".85" transform="rotate(132 456 395.15)"/><ellipse cx="456" cy="403.37" rx="4.7" ry="2.15" fill="#C8922A" stroke="#33241A" stroke-width=".85" transform="rotate(132 456 403.37)"/><ellipse cx="456" cy="411.58" rx="4.7" ry="2.15" fill="#C8922A" stroke="#33241A" stroke-width=".85" transform="rotate(132 456 411.58)"/><ellipse cx="456" cy="419.79" rx="4.7" ry="2.15" fill="#C8922A" stroke="#33241A" stroke-width=".85" transform="rotate(132 456 419.79)"/><ellipse cx="456" cy="428.01" rx="4.7" ry="2.15" fill="#C8922A" stroke="#33241A" stroke-width=".85" transform="rotate(132 456 428.01)"/><ellipse cx="456" cy="436.22" rx="4.7" ry="2.15" fill="#C8922A" stroke="#33241A" stroke-width=".85" transform="rotate(132 456 436.22)"/><ellipse cx="456" cy="444.43" rx="4.7" ry="2.15" fill="#C8922A" stroke="#33241A" stroke-width=".85" transform="rotate(132 456 444.43)"/><ellipse cx="456" cy="452.65" rx="4.7" ry="2.15" fill="#C8922A" stroke="#33241A" stroke-width=".85" transform="rotate(132 456 452.65)"/><ellipse cx="456" cy="460.86" rx="4.7" ry="2.15" fill="#C8922A" stroke="#33241A" stroke-width=".85" transform="rotate(132 456 460.86)"/><ellipse cx="456" cy="469.08" rx="4.7" ry="2.15" fill="#C8922A" stroke="#33241A" stroke-width=".85" transform="rotate(132 456 469.08)"/><ellipse cx="456" cy="477.29" rx="4.7" ry="2.15" fill="#C8922A" stroke="#33241A" stroke-width=".85" transform="rotate(132 456 477.29)"/><ellipse cx="456" cy="485.5" rx="4.7" ry="2.15" fill="#C8922A" stroke="#33241A" stroke-width=".85" transform="rotate(132 456 485.5)"/><ellipse cx="456" cy="493.72" rx="4.7" ry="2.15" fill="#C8922A" stroke="#33241A" stroke-width=".85" transform="rotate(132 456 493.72)"/><ellipse cx="456" cy="501.93" rx="4.7" ry="2.15" fill="#C8922A" stroke="#33241A" stroke-width=".85" transform="rotate(132 456 501.93)"/><ellipse cx="456" cy="510.14" rx="4.7" ry="2.15" fill="#C8922A" stroke="#33241A" stroke-width=".85" transform="rotate(132 456 510.14)"/><ellipse cx="456" cy="518.36" rx="4.7" ry="2.15" fill="#C8922A" stroke="#33241A" stroke-width=".85" transform="rotate(132 456 518.36)"/><ellipse cx="456" cy="526.57" rx="4.7" ry="2.15" fill="#C8922A" stroke="#33241A" stroke-width=".85" transform="rotate(132 456 526.57)"/><ellipse cx="456" cy="534.78" rx="4.7" ry="2.15" fill="#C8922A" stroke="#33241A" stroke-width=".85" transform="rotate(132 456 534.78)"/><ellipse cx="456" cy="543" rx="4.7" ry="2.15" fill="#C8922A" stroke="#33241A" stroke-width=".85" transform="rotate(132 456 543)"/><ellipse cx="456" cy="551.21" rx="4.7" ry="2.15" fill="#C8922A" stroke="#33241A" stroke-width=".85" transform="rotate(132 456 551.21)"/><ellipse cx="456" cy="559.42" rx="4.7" ry="2.15" fill="#C8922A" stroke="#33241A" stroke-width=".85" transform="rotate(132 456 559.42)"/><ellipse cx="456" cy="567.64" rx="4.7" ry="2.15" fill="#C8922A" stroke="#33241A" stroke-width=".85" transform="rotate(132 456 567.64)"/><ellipse cx="456" cy="575.85" rx="4.7" ry="2.15" fill="#C8922A" stroke="#33241A" stroke-width=".85" transform="rotate(132 456 575.85)"/><ellipse cx="456" cy="584.07" rx="4.7" ry="2.15" fill="#C8922A" stroke="#33241A" stroke-width=".85" transform="rotate(132 456 584.07)"/><ellipse cx="456" cy="592.28" rx="4.7" ry="2.15" fill="#C8922A" stroke="#33241A" stroke-width=".85" transform="rotate(132 456 592.28)"/><ellipse cx="455.99" cy="600.49" rx="4.7" ry="2.15" fill="#C8922A" stroke="#33241A" stroke-width=".85" transform="rotate(133.76 455.99 600.49)"/><ellipse cx="453.69" cy="608.28" rx="4.7" ry="2.15" fill="#C8922A" stroke="#33241A" stroke-width=".85" transform="rotate(163.17 453.69 608.28)"/><ellipse cx="447.86" cy="613.94" rx="4.7" ry="2.15" fill="#C8922A" stroke="#33241A" stroke-width=".85" transform="rotate(192.59 447.86 613.94)"/><ellipse cx="440" cy="616" rx="4.7" ry="2.15" fill="#C8922A" stroke="#33241A" stroke-width=".85" transform="rotate(222 440 616)"/><ellipse cx="431.79" cy="616" rx="4.7" ry="2.15" fill="#C8922A" stroke="#33241A" stroke-width=".85" transform="rotate(222 431.79 616)"/><ellipse cx="423.57" cy="616" rx="4.7" ry="2.15" fill="#C8922A" stroke="#33241A" stroke-width=".85" transform="rotate(222 423.57 616)"/><ellipse cx="415.36" cy="616" rx="4.7" ry="2.15" fill="#C8922A" stroke="#33241A" stroke-width=".85" transform="rotate(222 415.36 616)"/><ellipse cx="407.15" cy="616" rx="4.7" ry="2.15" fill="#C8922A" stroke="#33241A" stroke-width=".85" transform="rotate(222 407.15 616)"/><ellipse cx="398.93" cy="616" rx="4.7" ry="2.15" fill="#C8922A" stroke="#33241A" stroke-width=".85" transform="rotate(222 398.93 616)"/><ellipse cx="390.72" cy="616" rx="4.7" ry="2.15" fill="#C8922A" stroke="#33241A" stroke-width=".85" transform="rotate(222 390.72 616)"/><ellipse cx="382.51" cy="616" rx="4.7" ry="2.15" fill="#C8922A" stroke="#33241A" stroke-width=".85" transform="rotate(222 382.51 616)"/><ellipse cx="374.29" cy="616" rx="4.7" ry="2.15" fill="#C8922A" stroke="#33241A" stroke-width=".85" transform="rotate(222 374.29 616)"/><ellipse cx="366.08" cy="616" rx="4.7" ry="2.15" fill="#C8922A" stroke="#33241A" stroke-width=".85" transform="rotate(222 366.08 616)"/><ellipse cx="357.86" cy="616" rx="4.7" ry="2.15" fill="#C8922A" stroke="#33241A" stroke-width=".85" transform="rotate(222 357.86 616)"/><ellipse cx="349.65" cy="616" rx="4.7" ry="2.15" fill="#C8922A" stroke="#33241A" stroke-width=".85" transform="rotate(222 349.65 616)"/><ellipse cx="341.44" cy="616" rx="4.7" ry="2.15" fill="#C8922A" stroke="#33241A" stroke-width=".85" transform="rotate(222 341.44 616)"/><ellipse cx="333.22" cy="616" rx="4.7" ry="2.15" fill="#C8922A" stroke="#33241A" stroke-width=".85" transform="rotate(222 333.22 616)"/><ellipse cx="325.01" cy="616" rx="4.7" ry="2.15" fill="#C8922A" stroke="#33241A" stroke-width=".85" transform="rotate(222 325.01 616)"/><ellipse cx="316.8" cy="616" rx="4.7" ry="2.15" fill="#C8922A" stroke="#33241A" stroke-width=".85" transform="rotate(222 316.8 616)"/><ellipse cx="308.58" cy="616" rx="4.7" ry="2.15" fill="#C8922A" stroke="#33241A" stroke-width=".85" transform="rotate(222 308.58 616)"/><ellipse cx="300.37" cy="616" rx="4.7" ry="2.15" fill="#C8922A" stroke="#33241A" stroke-width=".85" transform="rotate(222 300.37 616)"/><ellipse cx="292.16" cy="616" rx="4.7" ry="2.15" fill="#C8922A" stroke="#33241A" stroke-width=".85" transform="rotate(222 292.16 616)"/><ellipse cx="283.94" cy="616" rx="4.7" ry="2.15" fill="#C8922A" stroke="#33241A" stroke-width=".85" transform="rotate(222 283.94 616)"/><ellipse cx="275.73" cy="616" rx="4.7" ry="2.15" fill="#C8922A" stroke="#33241A" stroke-width=".85" transform="rotate(222 275.73 616)"/><ellipse cx="267.52" cy="616" rx="4.7" ry="2.15" fill="#C8922A" stroke="#33241A" stroke-width=".85" transform="rotate(222 267.52 616)"/><ellipse cx="259.3" cy="616" rx="4.7" ry="2.15" fill="#C8922A" stroke="#33241A" stroke-width=".85" transform="rotate(222 259.3 616)"/><ellipse cx="251.09" cy="616" rx="4.7" ry="2.15" fill="#C8922A" stroke="#33241A" stroke-width=".85" transform="rotate(222 251.09 616)"/><ellipse cx="242.88" cy="616" rx="4.7" ry="2.15" fill="#C8922A" stroke="#33241A" stroke-width=".85" transform="rotate(222 242.88 616)"/><ellipse cx="234.66" cy="616" rx="4.7" ry="2.15" fill="#C8922A" stroke="#33241A" stroke-width=".85" transform="rotate(222 234.66 616)"/><ellipse cx="226.45" cy="616" rx="4.7" ry="2.15" fill="#C8922A" stroke="#33241A" stroke-width=".85" transform="rotate(222 226.45 616)"/><ellipse cx="218.23" cy="616" rx="4.7" ry="2.15" fill="#C8922A" stroke="#33241A" stroke-width=".85" transform="rotate(222 218.23 616)"/><ellipse cx="210.02" cy="616" rx="4.7" ry="2.15" fill="#C8922A" stroke="#33241A" stroke-width=".85" transform="rotate(222 210.02 616)"/><ellipse cx="201.81" cy="616" rx="4.7" ry="2.15" fill="#C8922A" stroke="#33241A" stroke-width=".85" transform="rotate(222 201.81 616)"/><ellipse cx="193.59" cy="616" rx="4.7" ry="2.15" fill="#C8922A" stroke="#33241A" stroke-width=".85" transform="rotate(222 193.59 616)"/><ellipse cx="185.38" cy="616" rx="4.7" ry="2.15" fill="#C8922A" stroke="#33241A" stroke-width=".85" transform="rotate(222 185.38 616)"/><ellipse cx="177.17" cy="616" rx="4.7" ry="2.15" fill="#C8922A" stroke="#33241A" stroke-width=".85" transform="rotate(222 177.17 616)"/><ellipse cx="168.95" cy="616" rx="4.7" ry="2.15" fill="#C8922A" stroke="#33241A" stroke-width=".85" transform="rotate(222 168.95 616)"/><ellipse cx="160.74" cy="616" rx="4.7" ry="2.15" fill="#C8922A" stroke="#33241A" stroke-width=".85" transform="rotate(222 160.74 616)"/><ellipse cx="152.53" cy="616" rx="4.7" ry="2.15" fill="#C8922A" stroke="#33241A" stroke-width=".85" transform="rotate(222 152.53 616)"/><ellipse cx="144.31" cy="616" rx="4.7" ry="2.15" fill="#C8922A" stroke="#33241A" stroke-width=".85" transform="rotate(222 144.31 616)"/><ellipse cx="136.1" cy="616" rx="4.7" ry="2.15" fill="#C8922A" stroke="#33241A" stroke-width=".85" transform="rotate(222 136.1 616)"/><ellipse cx="127.89" cy="616" rx="4.7" ry="2.15" fill="#C8922A" stroke="#33241A" stroke-width=".85" transform="rotate(222 127.89 616)"/><ellipse cx="119.67" cy="616" rx="4.7" ry="2.15" fill="#C8922A" stroke="#33241A" stroke-width=".85" transform="rotate(222 119.67 616)"/><ellipse cx="111.46" cy="616" rx="4.7" ry="2.15" fill="#C8922A" stroke="#33241A" stroke-width=".85" transform="rotate(222 111.46 616)"/><ellipse cx="103.24" cy="616" rx="4.7" ry="2.15" fill="#C8922A" stroke="#33241A" stroke-width=".85" transform="rotate(222 103.24 616)"/><ellipse cx="95.03" cy="616" rx="4.7" ry="2.15" fill="#C8922A" stroke="#33241A" stroke-width=".85" transform="rotate(222 95.03 616)"/><ellipse cx="86.82" cy="616" rx="4.7" ry="2.15" fill="#C8922A" stroke="#33241A" stroke-width=".85" transform="rotate(222 86.82 616)"/><ellipse cx="78.6" cy="616" rx="4.7" ry="2.15" fill="#C8922A" stroke="#33241A" stroke-width=".85" transform="rotate(222 78.6 616)"/><ellipse cx="70.39" cy="616" rx="4.7" ry="2.15" fill="#C8922A" stroke="#33241A" stroke-width=".85" transform="rotate(222 70.39 616)"/><ellipse cx="62.18" cy="616" rx="4.7" ry="2.15" fill="#C8922A" stroke="#33241A" stroke-width=".85" transform="rotate(222 62.18 616)"/><ellipse cx="53.96" cy="616" rx="4.7" ry="2.15" fill="#C8922A" stroke="#33241A" stroke-width=".85" transform="rotate(222 53.96 616)"/><ellipse cx="45.75" cy="616" rx="4.7" ry="2.15" fill="#C8922A" stroke="#33241A" stroke-width=".85" transform="rotate(222 45.75 616)"/><ellipse cx="37.55" cy="615.81" rx="4.7" ry="2.15" fill="#C8922A" stroke="#33241A" stroke-width=".85" transform="rotate(230.82 37.55 615.81)"/><ellipse cx="30.1" cy="612.57" rx="4.7" ry="2.15" fill="#C8922A" stroke="#33241A" stroke-width=".85" transform="rotate(260.23 30.1 612.57)"/><ellipse cx="25.2" cy="606.09" rx="4.7" ry="2.15" fill="#C8922A" stroke="#33241A" stroke-width=".85" transform="rotate(289.65 25.2 606.09)"/><ellipse cx="24" cy="598.03" rx="4.7" ry="2.15" fill="#C8922A" stroke="#33241A" stroke-width=".85" transform="rotate(-48 24 598.03)"/><ellipse cx="24" cy="589.82" rx="4.7" ry="2.15" fill="#C8922A" stroke="#33241A" stroke-width=".85" transform="rotate(-48 24 589.82)"/><ellipse cx="24" cy="581.6" rx="4.7" ry="2.15" fill="#C8922A" stroke="#33241A" stroke-width=".85" transform="rotate(-48 24 581.6)"/><ellipse cx="24" cy="573.39" rx="4.7" ry="2.15" fill="#C8922A" stroke="#33241A" stroke-width=".85" transform="rotate(-48 24 573.39)"/><ellipse cx="24" cy="565.17" rx="4.7" ry="2.15" fill="#C8922A" stroke="#33241A" stroke-width=".85" transform="rotate(-48 24 565.17)"/><ellipse cx="24" cy="556.96" rx="4.7" ry="2.15" fill="#C8922A" stroke="#33241A" stroke-width=".85" transform="rotate(-48 24 556.96)"/><ellipse cx="24" cy="548.75" rx="4.7" ry="2.15" fill="#C8922A" stroke="#33241A" stroke-width=".85" transform="rotate(-48 24 548.75)"/><ellipse cx="24" cy="540.53" rx="4.7" ry="2.15" fill="#C8922A" stroke="#33241A" stroke-width=".85" transform="rotate(-48 24 540.53)"/><ellipse cx="24" cy="532.32" rx="4.7" ry="2.15" fill="#C8922A" stroke="#33241A" stroke-width=".85" transform="rotate(-48 24 532.32)"/><ellipse cx="24" cy="524.11" rx="4.7" ry="2.15" fill="#C8922A" stroke="#33241A" stroke-width=".85" transform="rotate(-48 24 524.11)"/><ellipse cx="24" cy="515.89" rx="4.7" ry="2.15" fill="#C8922A" stroke="#33241A" stroke-width=".85" transform="rotate(-48 24 515.89)"/><ellipse cx="24" cy="507.68" rx="4.7" ry="2.15" fill="#C8922A" stroke="#33241A" stroke-width=".85" transform="rotate(-48 24 507.68)"/><ellipse cx="24" cy="499.47" rx="4.7" ry="2.15" fill="#C8922A" stroke="#33241A" stroke-width=".85" transform="rotate(-48 24 499.47)"/><ellipse cx="24" cy="491.25" rx="4.7" ry="2.15" fill="#C8922A" stroke="#33241A" stroke-width=".85" transform="rotate(-48 24 491.25)"/><ellipse cx="24" cy="483.04" rx="4.7" ry="2.15" fill="#C8922A" stroke="#33241A" stroke-width=".85" transform="rotate(-48 24 483.04)"/><ellipse cx="24" cy="474.83" rx="4.7" ry="2.15" fill="#C8922A" stroke="#33241A" stroke-width=".85" transform="rotate(-48 24 474.83)"/><ellipse cx="24" cy="466.61" rx="4.7" ry="2.15" fill="#C8922A" stroke="#33241A" stroke-width=".85" transform="rotate(-48 24 466.61)"/><ellipse cx="24" cy="458.4" rx="4.7" ry="2.15" fill="#C8922A" stroke="#33241A" stroke-width=".85" transform="rotate(-48 24 458.4)"/><ellipse cx="24" cy="450.18" rx="4.7" ry="2.15" fill="#C8922A" stroke="#33241A" stroke-width=".85" transform="rotate(-48 24 450.18)"/><ellipse cx="24" cy="441.97" rx="4.7" ry="2.15" fill="#C8922A" stroke="#33241A" stroke-width=".85" transform="rotate(-48 24 441.97)"/><ellipse cx="24" cy="433.76" rx="4.7" ry="2.15" fill="#C8922A" stroke="#33241A" stroke-width=".85" transform="rotate(-48 24 433.76)"/><ellipse cx="24" cy="425.54" rx="4.7" ry="2.15" fill="#C8922A" stroke="#33241A" stroke-width=".85" transform="rotate(-48 24 425.54)"/><ellipse cx="24" cy="417.33" rx="4.7" ry="2.15" fill="#C8922A" stroke="#33241A" stroke-width=".85" transform="rotate(-48 24 417.33)"/><ellipse cx="24" cy="409.12" rx="4.7" ry="2.15" fill="#C8922A" stroke="#33241A" stroke-width=".85" transform="rotate(-48 24 409.12)"/><ellipse cx="24" cy="400.9" rx="4.7" ry="2.15" fill="#C8922A" stroke="#33241A" stroke-width=".85" transform="rotate(-48 24 400.9)"/><ellipse cx="24" cy="392.69" rx="4.7" ry="2.15" fill="#C8922A" stroke="#33241A" stroke-width=".85" transform="rotate(-48 24 392.69)"/><ellipse cx="24" cy="384.48" rx="4.7" ry="2.15" fill="#C8922A" stroke="#33241A" stroke-width=".85" transform="rotate(-48 24 384.48)"/><ellipse cx="24" cy="376.26" rx="4.7" ry="2.15" fill="#C8922A" stroke="#33241A" stroke-width=".85" transform="rotate(-48 24 376.26)"/><ellipse cx="24" cy="368.05" rx="4.7" ry="2.15" fill="#C8922A" stroke="#33241A" stroke-width=".85" transform="rotate(-48 24 368.05)"/><ellipse cx="24" cy="359.84" rx="4.7" ry="2.15" fill="#C8922A" stroke="#33241A" stroke-width=".85" transform="rotate(-48 24 359.84)"/><ellipse cx="24" cy="351.62" rx="4.7" ry="2.15" fill="#C8922A" stroke="#33241A" stroke-width=".85" transform="rotate(-48 24 351.62)"/><ellipse cx="24" cy="343.41" rx="4.7" ry="2.15" fill="#C8922A" stroke="#33241A" stroke-width=".85" transform="rotate(-48 24 343.41)"/><ellipse cx="24" cy="335.2" rx="4.7" ry="2.15" fill="#C8922A" stroke="#33241A" stroke-width=".85" transform="rotate(-48 24 335.2)"/><ellipse cx="24" cy="326.98" rx="4.7" ry="2.15" fill="#C8922A" stroke="#33241A" stroke-width=".85" transform="rotate(-48 24 326.98)"/><ellipse cx="24" cy="318.77" rx="4.7" ry="2.15" fill="#C8922A" stroke="#33241A" stroke-width=".85" transform="rotate(-48 24 318.77)"/><ellipse cx="24" cy="310.55" rx="4.7" ry="2.15" fill="#C8922A" stroke="#33241A" stroke-width=".85" transform="rotate(-48 24 310.55)"/><ellipse cx="24" cy="302.34" rx="4.7" ry="2.15" fill="#C8922A" stroke="#33241A" stroke-width=".85" transform="rotate(-48 24 302.34)"/><ellipse cx="24" cy="294.13" rx="4.7" ry="2.15" fill="#C8922A" stroke="#33241A" stroke-width=".85" transform="rotate(-48 24 294.13)"/><ellipse cx="24" cy="285.91" rx="4.7" ry="2.15" fill="#C8922A" stroke="#33241A" stroke-width=".85" transform="rotate(-48 24 285.91)"/><ellipse cx="24" cy="277.7" rx="4.7" ry="2.15" fill="#C8922A" stroke="#33241A" stroke-width=".85" transform="rotate(-48 24 277.7)"/><ellipse cx="24" cy="269.49" rx="4.7" ry="2.15" fill="#C8922A" stroke="#33241A" stroke-width=".85" transform="rotate(-48 24 269.49)"/><ellipse cx="24" cy="261.27" rx="4.7" ry="2.15" fill="#C8922A" stroke="#33241A" stroke-width=".85" transform="rotate(-48 24 261.27)"/><ellipse cx="24" cy="253.06" rx="4.7" ry="2.15" fill="#C8922A" stroke="#33241A" stroke-width=".85" transform="rotate(-48 24 253.06)"/><ellipse cx="24" cy="244.85" rx="4.7" ry="2.15" fill="#C8922A" stroke="#33241A" stroke-width=".85" transform="rotate(-48 24 244.85)"/><ellipse cx="24" cy="236.63" rx="4.7" ry="2.15" fill="#C8922A" stroke="#33241A" stroke-width=".85" transform="rotate(-48 24 236.63)"/><ellipse cx="24" cy="228.42" rx="4.7" ry="2.15" fill="#C8922A" stroke="#33241A" stroke-width=".85" transform="rotate(-48 24 228.42)"/><ellipse cx="24" cy="220.21" rx="4.7" ry="2.15" fill="#C8922A" stroke="#33241A" stroke-width=".85" transform="rotate(-48 24 220.21)"/><ellipse cx="24" cy="211.99" rx="4.7" ry="2.15" fill="#C8922A" stroke="#33241A" stroke-width=".85" transform="rotate(-48 24 211.99)"/><ellipse cx="24" cy="203.78" rx="4.7" ry="2.15" fill="#C8922A" stroke="#33241A" stroke-width=".85" transform="rotate(-48 24 203.78)"/><ellipse cx="24" cy="195.57" rx="4.7" ry="2.15" fill="#C8922A" stroke="#33241A" stroke-width=".85" transform="rotate(-48 24 195.57)"/><ellipse cx="24" cy="187.35" rx="4.7" ry="2.15" fill="#C8922A" stroke="#33241A" stroke-width=".85" transform="rotate(-48 24 187.35)"/><ellipse cx="24" cy="179.14" rx="4.7" ry="2.15" fill="#C8922A" stroke="#33241A" stroke-width=".85" transform="rotate(-48 24 179.14)"/><ellipse cx="24" cy="170.92" rx="4.7" ry="2.15" fill="#C8922A" stroke="#33241A" stroke-width=".85" transform="rotate(-48 24 170.92)"/><ellipse cx="24" cy="162.71" rx="4.7" ry="2.15" fill="#C8922A" stroke="#33241A" stroke-width=".85" transform="rotate(-48 24 162.71)"/><ellipse cx="24" cy="154.5" rx="4.7" ry="2.15" fill="#C8922A" stroke="#33241A" stroke-width=".85" transform="rotate(-48 24 154.5)"/><ellipse cx="24" cy="146.28" rx="4.7" ry="2.15" fill="#C8922A" stroke="#33241A" stroke-width=".85" transform="rotate(-48 24 146.28)"/><ellipse cx="24" cy="138.07" rx="4.7" ry="2.15" fill="#C8922A" stroke="#33241A" stroke-width=".85" transform="rotate(-48 24 138.07)"/><ellipse cx="24" cy="129.86" rx="4.7" ry="2.15" fill="#C8922A" stroke="#33241A" stroke-width=".85" transform="rotate(-48 24 129.86)"/><ellipse cx="24" cy="121.64" rx="4.7" ry="2.15" fill="#C8922A" stroke="#33241A" stroke-width=".85" transform="rotate(-48 24 121.64)"/><ellipse cx="24" cy="113.43" rx="4.7" ry="2.15" fill="#C8922A" stroke="#33241A" stroke-width=".85" transform="rotate(-48 24 113.43)"/><ellipse cx="24" cy="105.22" rx="4.7" ry="2.15" fill="#C8922A" stroke="#33241A" stroke-width=".85" transform="rotate(-48 24 105.22)"/><ellipse cx="24" cy="97" rx="4.7" ry="2.15" fill="#C8922A" stroke="#33241A" stroke-width=".85" transform="rotate(-48 24 97)"/><ellipse cx="24" cy="88.79" rx="4.7" ry="2.15" fill="#C8922A" stroke="#33241A" stroke-width=".85" transform="rotate(-48 24 88.79)"/><ellipse cx="24" cy="80.58" rx="4.7" ry="2.15" fill="#C8922A" stroke="#33241A" stroke-width=".85" transform="rotate(-48 24 80.58)"/><ellipse cx="24" cy="72.36" rx="4.7" ry="2.15" fill="#C8922A" stroke="#33241A" stroke-width=".85" transform="rotate(-48 24 72.36)"/><ellipse cx="24" cy="64.15" rx="4.7" ry="2.15" fill="#C8922A" stroke="#33241A" stroke-width=".85" transform="rotate(-48 24 64.15)"/><ellipse cx="24" cy="55.93" rx="4.7" ry="2.15" fill="#C8922A" stroke="#33241A" stroke-width=".85" transform="rotate(-48 24 55.93)"/><ellipse cx="24" cy="47.72" rx="4.7" ry="2.15" fill="#C8922A" stroke="#33241A" stroke-width=".85" transform="rotate(-48 24 47.72)"/><ellipse cx="24.01" cy="39.51" rx="4.7" ry="2.15" fill="#C8922A" stroke="#33241A" stroke-width=".85" transform="rotate(313.76 24.01 39.51)"/><ellipse cx="26.31" cy="31.72" rx="4.7" ry="2.15" fill="#C8922A" stroke="#33241A" stroke-width=".85" transform="rotate(343.17 26.31 31.72)"/><ellipse cx="32.14" cy="26.06" rx="4.7" ry="2.15" fill="#C8922A" stroke="#33241A" stroke-width=".85" transform="rotate(372.59 32.14 26.06)"/>

  <!-- emblem paper base (blanks the rays behind the circle) -->
  <circle cx="240" cy="312" r="106" fill="#F1E4CB"/>

  <!-- RED CHANNEL: ghost pass (slipped) then true pass -->
  <use href="#red-masala-f" fill="#B3372B" transform="translate(1 .55)" opacity=".5" style="mix-blend-mode:multiply"/>
  <use href="#red-masala-f" fill="#B3372B"/>

  <!-- ink + gold passes -->
  <text x="240" y="66" text-anchor="middle" font-family="'Courier Prime','Courier New',monospace" font-size="10" letter-spacing="1.5" fill="#33241A">CMAA HOME INDUSTRIES · KOTHRUD · PUNE 411038</text>
  <g transform="translate(0 140)">
    <path d="M148 0 H220 M260 0 H332" stroke="#C8922A" stroke-width="1.6"/>
    <rect x="235" y="-5" width="10" height="10" transform="rotate(45 240 0)" fill="#C8922A"/>
    <circle cx="136" cy="0" r="2" fill="#B3372B"/><circle cx="344" cy="0" r="2" fill="#B3372B"/>
  </g>
  <text x="240" y="168" text-anchor="middle" font-family="'Anton','Arial Narrow',sans-serif" font-size="20" letter-spacing="6" fill="#33241A">MASALA CHIVDA</text>

  <circle cx="240" cy="312" r="99" fill="none" stroke="#C8922A" stroke-width="1.2"/>
  <circle cx="240" cy="194" r="2.2" fill="#C8922A"/><circle cx="285.16" cy="202.98" r="2.2" fill="#C8922A"/><circle cx="323.44" cy="228.56" r="2.2" fill="#C8922A"/><circle cx="349.02" cy="266.84" r="2.2" fill="#C8922A"/><circle cx="358" cy="312" r="2.2" fill="#C8922A"/><circle cx="349.02" cy="357.16" r="2.2" fill="#C8922A"/><circle cx="323.44" cy="395.44" r="2.2" fill="#C8922A"/><circle cx="285.16" cy="421.02" r="2.2" fill="#C8922A"/><circle cx="240" cy="430" r="2.2" fill="#C8922A"/><circle cx="194.84" cy="421.02" r="2.2" fill="#C8922A"/><circle cx="156.56" cy="395.44" r="2.2" fill="#C8922A"/><circle cx="130.98" cy="357.16" r="2.2" fill="#C8922A"/><circle cx="122" cy="312" r="2.2" fill="#C8922A"/><circle cx="130.98" cy="266.84" r="2.2" fill="#C8922A"/><circle cx="156.56" cy="228.56" r="2.2" fill="#C8922A"/><circle cx="194.84" cy="202.98" r="2.2" fill="#C8922A"/>
  <text font-family="'Mulish','Noto Sans Devanagari',sans-serif" font-size="10.5" font-weight="800" letter-spacing="2" fill="#33241A"><textPath href="#rup-masala-f" startOffset="50%" text-anchor="middle">आजीचा फराळ · CMAA</textPath></text>
  <text font-family="'Mulish','Noto Sans Devanagari',sans-serif" font-size="9" font-weight="800" letter-spacing="2.4" fill="#33241A"><textPath href="#rdn-masala-f" startOffset="50%" text-anchor="middle">POHA · PEANUT · CURRY LEAF</textPath></text>
  <g transform="translate(204 291.84) rotate(-40)">
      <path d="M0 0 C -16.69 5.56, -20.03 28.93, -5.56 52.3 C -1.11 58.98, 10.02 55.64, 8.35 46.74 C 2.23 32.27, 7.79 12.24, 5.56 1.11 Z" fill="#B3372B" stroke="#F1E4CB" stroke-width="6.12" paint-order="stroke" stroke-linejoin="round"/>
      <path d="M2.78 0 q 3.89 -10.02 13.35 -8.35" fill="none" stroke="#33241A" stroke-width="3.06" stroke-linecap="round"/>
    </g><g transform="translate(240 277.44) rotate(-2)">
      <path d="M0 0 C -19.87 6.62, -23.85 34.44, -6.62 62.27 C -1.32 70.21, 11.92 66.24, 9.94 55.64 C 2.65 38.42, 9.27 14.57, 6.62 1.32 Z" fill="#B3372B" stroke="#F1E4CB" stroke-width="7.29" paint-order="stroke" stroke-linejoin="round"/>
      <path d="M3.31 0 q 4.64 -11.92 15.9 -9.94" fill="none" stroke="#33241A" stroke-width="3.64" stroke-linecap="round"/>
    </g><g transform="translate(276 290.4) rotate(36)">
      <path d="M0 0 C -17.49 5.83, -20.98 30.31, -5.83 54.79 C -1.17 61.79, 10.49 58.29, 8.74 48.96 C 2.33 33.81, 8.16 12.82, 5.83 1.17 Z" fill="#B3372B" stroke="#F1E4CB" stroke-width="6.41" paint-order="stroke" stroke-linejoin="round"/>
      <path d="M2.91 0 q 4.08 -10.49 13.99 -8.74" fill="none" stroke="#33241A" stroke-width="3.21" stroke-linecap="round"/>
    </g><path d="M193.92000000000002 336.48 Q 195.82 343.22 202.56 345.12 Q 195.82 347.02 193.92000000000002 353.76 Q 192.02 347.02 185.28 345.12 Q 192.02 343.22 193.92000000000002 336.48 Z" fill="#C8922A"/><path d="M287.52 333.6 Q 289.1 339.22 294.72 340.8 Q 289.1 342.38 287.52 348 Q 285.94 342.38 280.32 340.8 Q 285.94 339.22 287.52 333.6 Z" fill="#C8922A"/>
  <text x="240" y="452" text-anchor="middle" font-family="'Courier Prime','Courier New',monospace" font-size="8.5" letter-spacing="3" fill="#33241A" opacity=".75">— TRADE MARK —</text>

  <!-- price roundel + series cartouche -->
  <g transform="translate(88 444)">
    <circle r="20" fill="#C8922A" stroke="#33241A" stroke-width="1.6"/>
    <circle r="15.5" fill="none" stroke="#33241A" stroke-width=".8" stroke-dasharray="1.5 2.5"/>
    <text y="4.5" text-anchor="middle" font-family="'Mulish','Noto Sans Devanagari',sans-serif" font-size="12.5" font-weight="800" fill="#33241A">₹110</text>
  </g>
  <g transform="translate(378 444) rotate(3)">
    <rect x="-44" y="-13" width="88" height="26" fill="#F1E4CB" stroke="#33241A" stroke-width="1.4"/>
    <rect x="-40" y="-9" width="80" height="18" fill="none" stroke="#33241A" stroke-width=".7" stroke-dasharray="2 2.5"/>
    <text y="4" text-anchor="middle" font-family="'Courier Prime','Courier New',monospace" font-size="11" font-weight="700" fill="#33241A">No. 3 of 4</text>
  </g>

  <!-- slogan strip lettering (strip itself is in the red channel) -->
  <text x="240" y="499.84" text-anchor="middle" font-family="'Anton','Arial Narrow',sans-serif" font-size="19" letter-spacing="4.5" fill="#F6EDDB">KOLHAPURI HEAT</text>

  <path d="M60 183 Q 61.54 188.46 67 190 Q 61.54 191.54 60 197 Q 58.46 191.54 53 190 Q 58.46 188.46 60 183 Z" fill="#C8922A"/><path d="M420 183 Q 421.54 188.46 427 190 Q 421.54 191.54 420 197 Q 418.46 191.54 413 190 Q 418.46 188.46 420 183 Z" fill="#C8922A"/><path d="M60 423 Q 61.54 428.46 67 430 Q 61.54 431.54 60 437 Q 58.46 431.54 53 430 Q 58.46 428.46 60 423 Z" fill="#C8922A"/><path d="M420 423 Q 421.54 428.46 427 430 Q 421.54 431.54 420 437 Q 418.46 431.54 413 430 Q 418.46 428.46 420 423 Z" fill="#C8922A"/>
  
  <text x="240" y="536" text-anchor="middle" font-family="'Courier Prime','Courier New',monospace" font-size="10.5" fill="#33241A">AVG. CONTENTS: POHA, PEANUTS, CURRY LEAF &amp; 5 SECRETS.</text>
       <text x="240" y="584" text-anchor="middle" font-family="'Courier Prime','Courier New',monospace" font-size="10" fill="#33241A">NET WT 250 g · BATCH SB-13 · NO PRESERVATIVES</text></g>
</svg>