<svg xmlns="http://www.w3.org/2000/svg" viewBox="0 0 500 700" font-family="'Mulish',system-ui,sans-serif">
<title>Cmaa — BUTTER CHAKLI — illustrated cartouche label</title>
<defs>
  <style>@import url('https://fonts.googleapis.com/css2?family=Fraunces:ital,opsz,wght@0,9..144,400..900;1,9..144,400..900&amp;family=Yatra+One&amp;family=Mulish:wght@400;600;700;800&amp;family=Courier+Prime:wght@400;700&amp;family=Caveat:wght@600&amp;family=Noto+Sans+Devanagari:wght@400;600&amp;display=swap');</style>
  <clipPath id="arch-butter-flat"><path d="M105 422 L105 276.4 A51.9 51.9 0 0 1 132.69 197.4 A54.19 54.19 0 0 1 205.19 148.58 A55.56 55.56 0 0 1 294.81 148.58 A54.19 54.19 0 0 1 367.31 197.4 A51.9 51.9 0 0 1 395 276.4 L395 422 Z"/></clipPath>
  <filter id="grain-butter-flat"><feTurbulence type="fractalNoise" baseFrequency=".8" numOctaves="2" stitchTiles="stitch" result="n"/><feColorMatrix in="n" type="saturate" values="0"/><feComponentTransfer><feFuncA type="linear" slope=".05"/></feComponentTransfer><feComposite operator="over" in2="SourceGraphic"/></filter><filter id="press-butter-flat" x="-8%" y="-8%" width="116%" height="116%"><feOffset dx="0" dy="1" in="SourceAlpha" result="o"/><feGaussianBlur stdDeviation=".5" in="o" result="b"/><feComposite in="b" in2="SourceAlpha" operator="out" result="s"/><feFlood flood-color="#000" flood-opacity=".26"/><feComposite in2="s" operator="in" result="sh"/><feMerge><feMergeNode in="SourceGraphic"/><feMergeNode in="sh"/></feMerge></filter>
</defs>
<g filter="url(#grain-butter-flat)">
  <rect width="500" height="700" fill="#F6EDDB"/>
  <rect x="14" y="14" width="472" height="672" fill="none" stroke="#C98A3B" stroke-width="2.5"/>
  <rect x="22" y="22" width="456" height="656" fill="none" stroke="#C8922A" stroke-width="1"/>
  <rect x="18.75" y="18.75" width="6.5" height="6.5" transform="rotate(45 22 22)" fill="#C98A3B"/><rect x="474.75" y="18.75" width="6.5" height="6.5" transform="rotate(45 478 22)" fill="#C98A3B"/><rect x="18.75" y="674.75" width="6.5" height="6.5" transform="rotate(45 22 678)" fill="#C98A3B"/><rect x="474.75" y="674.75" width="6.5" height="6.5" transform="rotate(45 478 678)" fill="#C98A3B"/>

  <!-- brand header -->
  <g>
    <circle cx="250" cy="60" r="20" fill="none" stroke="#C98A3B" stroke-width="1.6"/>
    <path d="M250 58.2 L250.25 58.14 L250.52 58.11 L250.8 58.13 L251.08 58.18 L251.37 58.29 L251.64 58.43 L251.9 58.62 L252.14 58.85 L252.35 59.12 L252.52 59.42 L252.65 59.76 L252.74 60.12 L252.78 60.5 L252.76 60.9 L252.68 61.29 L252.55 61.68 L252.36 62.06 L252.11 62.42 L251.81 62.75 L251.46 63.04 L251.07 63.28 L250.63 63.47 L250.16 63.6 L249.67 63.67 L249.16 63.67 L248.65 63.6 L248.14 63.45 L247.65 63.24 L247.18 62.95 L246.75 62.59 L246.36 62.17 L246.03 61.7 L245.77 61.17 L245.57 60.6 L245.45 60 L245.41 59.38 L245.46 58.75 L245.6 58.12 L245.82 57.51 L246.14 56.92 L246.53 56.37 L247 55.87 L247.55 55.44 L248.15 55.08 L248.81 54.8 L249.51 54.61 L250.25 54.51 L250.99 54.52 L251.75 54.63 L252.49 54.84 L253.2 55.15 L253.87 55.57 L254.49 56.08 L255.04 56.67 L255.52 57.34 L255.9 58.08 L256.18 58.88 L256.35 59.71 L256.41 60.58 L256.35 61.45 L256.17 62.32 L255.87 63.16 L255.46 63.97 L254.94 64.72 L254.31 65.4 L253.58 66 L252.78 66.5 L251.9 66.89 L250.97 67.16 L250 67.3 L249.01 67.31 L248.02 67.19 L247.04 66.93 L246.09 66.54 L245.2 66.01 L244.38 65.37 L243.65 64.61 L243.02 63.76 L242.5 62.81 L242.12 61.8 L241.87 60.73 L241.77 59.63 L241.81 58.51 L242.01 57.4 L242.36 56.32 L242.86 55.29 L243.5 54.32 L244.27 53.44 L245.16 52.66 L246.15 52.01 L247.23 51.49 L248.39 51.12 L249.59 50.9 L250.82 50.85 L252.06 50.97 L253.28 51.25 L254.46 51.7 L255.58 52.31 L256.62 53.08 L257.55 53.98 L258.36 55.01 L259.02 56.14 L259.54 57.37 L259.88 58.66 L260.05 60 L260.04 61.36 L259.84 62.72 L259.46 64.04 L258.9 65.32 L258.16 66.51 L257.27 67.6 L256.23 68.58 L255.06 69.4 L253.78 70.07 L252.41 70.56 L250.98 70.87 L249.51 70.98 L248.02 70.89 L246.55 70.6 L245.13 70.12 L243.77 69.44 L242.51 68.57 L241.37 67.54 L240.37 66.36 L239.53 65.04 L238.87 63.62 L238.41 62.1 L238.15 60.53 L238.11 58.93 L238.29 57.33 L238.68 55.75 L239.28 54.23 L240.09 52.8 L241.09 51.48 L242.26 50.3 L243.6 49.28 L245.06 48.45 L246.64 47.81 L248.29 47.39 L250 47.2" fill="none" stroke="#33241A" stroke-width="2.4" stroke-linecap="round"/>
    <path d="M250.22 59.64 L252.01 56.75 M250.67 59.67 L253.71 58.15 M251.07 60.1 L254.45 60.41 M251.11 60.84 L253.83 62.89 M250.62 61.6 L251.85 64.77 M249.62 62.01 L249 65.35 M248.41 61.75 L246.12 64.26 M247.41 60.74 L244.14 61.67 M247.1 59.18 L243.83 58.25 M247.75 57.54 L245.46 55.02 M249.33 56.4 L248.7 53.06 M251.44 56.29 L252.67 53.12 M253.44 57.41 L256.15 55.36 M254.61 59.57 L258 59.26 M254.43 62.21 L257.48 63.72 M252.78 64.49 L254.57 67.38 M250 65.6 L250 69 M246.88 65.04 L245.09 67.93 M244.41 62.78 L241.36 64.3 M243.46 59.39 L240.07 59.08 M244.5 55.85 L241.79 53.8 M247.39 53.27 L246.16 50.1 M251.39 52.59 L252.01 49.25 M255.3 54.19 L257.59 51.68 M257.88 57.76 L261.15 56.83 M258.19 62.33 L261.46 63.26 M255.95 66.53 L258.24 69.04 M251.68 69 L252.31 72.34 M246.57 68.84 L245.35 72.01 M242.17 65.91 L239.46 67.96 M239.91 60.93 L236.53 61.25 M240.64 55.34 L237.6 53.83 M244.33 50.84 L242.54 47.95 " stroke="#33241A" stroke-width=".9" opacity=".8"/>
  </g>
  <text x="250" y="105" text-anchor="middle" font-family="'Fraunces',serif" font-weight="600" font-size="27" letter-spacing="7" fill="#33241A">CMAA</text>
  <text x="250" y="122" text-anchor="middle" font-size="9.5" fill="#33241A" opacity=".78"><tspan font-family="'Yatra One','Noto Sans Devanagari',serif" font-size="10.5">आजीचा फराळ</tspan><tspan font-family="'Mulish',sans-serif" font-weight="700" letter-spacing="2.2" dx="5"> · KOTHRUD, PUNE · EST 2026</tspan></text>

  <!-- illustrated cartouche -->
  
  <path d="M105 422 L105 276.4 A51.9 51.9 0 0 1 132.69 197.4 A54.19 54.19 0 0 1 205.19 148.58 A55.56 55.56 0 0 1 294.81 148.58 A54.19 54.19 0 0 1 367.31 197.4 A51.9 51.9 0 0 1 395 276.4 L395 422 Z" fill="#F6EDDB"/>
  <path d="M105 422 L105 276.4 A51.9 51.9 0 0 1 132.69 197.4 A54.19 54.19 0 0 1 205.19 148.58 A55.56 55.56 0 0 1 294.81 148.58 A54.19 54.19 0 0 1 367.31 197.4 A51.9 51.9 0 0 1 395 276.4 L395 422 Z" fill="#C98A3B" opacity=".1"/>
  <g clip-path="url(#arch-butter-flat)">
    <g transform="translate(105 138.73) scale(0.97)"><g fill="#C98A3B" opacity="0.09"><path d="M184 146 L400 146 L398.15 176.36 L183.75 150.13 Z"/><path d="M181.41 159.01 L380.97 241.67 L367.64 269.01 L179.6 162.73 Z"/><path d="M174.04 170.04 L326.78 322.78 L304 342.94 L170.94 172.78 Z"/><path d="M163.01 177.41 L245.67 376.97 L216.91 386.88 L159.1 178.76 Z"/><path d="M150 180 L150 396 L119.64 394.15 L145.87 179.75 Z"/><path d="M136.99 177.41 L54.33 376.97 L26.99 363.64 L133.27 175.6 Z"/><path d="M125.96 170.04 L-26.78 322.78 L-46.94 300 L123.22 166.94 Z"/><path d="M118.59 159.01 L-80.97 241.67 L-90.88 212.91 L117.24 155.1 Z"/><path d="M116 146 L-100 146 L-98.15 115.64 L116.25 141.87 Z"/><path d="M118.59 132.99 L-80.97 50.33 L-67.64 22.99 L120.4 129.27 Z"/><path d="M125.96 121.96 L-26.78 -30.78 L-4 -50.94 L129.06 119.22 Z"/><path d="M136.99 114.59 L54.33 -84.97 L83.09 -94.88 L140.9 113.24 Z"/><path d="M150 112 L150 -104 L180.36 -102.15 L154.13 112.25 Z"/><path d="M163.01 114.59 L245.67 -84.97 L273.01 -71.64 L166.73 116.4 Z"/><path d="M174.04 121.96 L326.78 -30.78 L346.94 -8 L176.78 125.06 Z"/><path d="M181.41 132.99 L380.97 50.33 L390.88 79.09 L182.76 136.9 Z"/></g>
<rect x="54" y="78" width="8" height="8" transform="rotate(45 58 82)" fill="#C8922A" opacity="0.85"/><rect x="240.5" y="66.5" width="7" height="7" transform="rotate(45 244 70)" fill="#C8922A" opacity="0.85"/><circle cx="34" cy="112" r="2" fill="#B5512E" opacity=".5"/><circle cx="268" cy="100" r="2" fill="#B5512E" opacity=".5"/>
<g>
    <rect x="-30" y="262" width="360" height="56" fill="#B5512E" opacity=".13"/>
    <path d="M-86 262 L-30 318 M-86 262 L-142 318 M-60 262 L-4 318 M-60 262 L-116 318 M-34 262 L22 318 M-34 262 L-90 318 M-8 262 L48 318 M-8 262 L-64 318 M18 262 L74 318 M18 262 L-38 318 M44 262 L100 318 M44 262 L-12 318 M70 262 L126 318 M70 262 L14 318 M96 262 L152 318 M96 262 L40 318 M122 262 L178 318 M122 262 L66 318 M148 262 L204 318 M148 262 L92 318 M174 262 L230 318 M174 262 L118 318 M200 262 L256 318 M200 262 L144 318 M226 262 L282 318 M226 262 L170 318 M252 262 L308 318 M252 262 L196 318 M278 262 L334 318 M278 262 L222 318 M304 262 L360 318 M304 262 L248 318 M330 262 L386 318 M330 262 L274 318 M356 262 L412 318 M356 262 L300 318 M382 262 L438 318 M382 262 L326 318 " stroke="#B5512E" stroke-width="1" opacity=".3" fill="none"/>
    <path d="M-30 262 L330 262" stroke="#33241A" stroke-width="1.2" opacity=".28"/>
  </g>
<ellipse cx="210" cy="258" rx="24" ry="5" fill="#93401F"/>
<circle cx="210" cy="216" r="43" fill="#B5512E"/>
<path d="M171.9 196 Q 210 203 248.1 196" fill="none" stroke="#C8922A" stroke-width="2.2"/>
<path d="M168.7 204 Q 210 211 251.3 204" fill="none" stroke="#C8922A" stroke-width="1.1"/>
<g fill="#F6EDDB"><circle cx="185" cy="201" r="1.6"/><circle cx="197.5" cy="202.5" r="1.6"/><circle cx="210" cy="203" r="1.6"/><circle cx="222.5" cy="202.5" r="1.6"/><circle cx="235" cy="201" r="1.6"/></g>
<ellipse cx="210" cy="172" rx="23" ry="7" fill="#B5512E" stroke="#33241A" stroke-width="1.2"/>
<ellipse cx="210" cy="171.5" rx="16" ry="4.2" fill="#33241A"/>
<path d="M206 96 L206 174" stroke="#33241A" stroke-width="4.5" stroke-linecap="round"/>
<circle cx="206" cy="94" r="5.5" fill="#C8922A" stroke="#33241A" stroke-width="1.2"/>
<g fill="none" stroke="#93401F" stroke-width="1.6"><ellipse cx="206" cy="123" rx="6.5" ry="2.2"/><ellipse cx="206" cy="128" rx="6.5" ry="2.2"/><ellipse cx="206" cy="133" rx="6.5" ry="2.2"/></g>
<path d="M200 123 Q 180 114 161 114" fill="none" stroke="#93401F" stroke-width="1.8"/>
<path d="M200 132 Q 182 140 165 142" fill="none" stroke="#93401F" stroke-width="1.8"/>
<g fill="#F6EDDB"><circle cx="198" cy="168" r="4.4"/><circle cx="221" cy="166.5" r="3.4"/><circle cx="212" cy="163" r="2.6"/></g>
<path d="M224 169 q 3.4 7 -0.6 13 q -3 -6 -1.4 -9" fill="#F6EDDB"/>
<g fill="#F6EDDB" opacity=".9"><circle cx="188" cy="158" r="1.5"/><circle cx="228" cy="155" r="1.4"/><circle cx="207" cy="151" r="1.3"/></g>
<path d="M255 252 A 17 13 0 0 0 289 252 Z" fill="#33241A"/>
<g fill="#F6EDDB"><circle cx="265" cy="248" r="5.4"/><circle cx="275" cy="247.5" r="4.6"/><circle cx="270" cy="243" r="4"/></g>
<ellipse cx="44" cy="259" rx="13" ry="3.2" fill="#93401F"/>
<circle cx="44" cy="249" r="11" fill="#B5512E"/>
<ellipse cx="44" cy="239.5" rx="5.6" ry="2.1" fill="#33241A"/>
<ellipse cx="44" cy="239.2" rx="4" ry="1.5" fill="#F6EDDB"/>
<g>
    <g>
    <path d="M98 131 L127.9 128.53 L161 113.5" fill="none" stroke="#9A4224" stroke-width="8.4" stroke-linecap="round" stroke-linejoin="round"/>
    <path d="M98 131 L119.53 129.22" stroke="#451016" stroke-width="9.8" stroke-linecap="round"/>
    <path d="M150.24 112.67 L154.54 122.14 M153.88 111.02 L158.18 120.49 " stroke="#C8922A" stroke-width="1.8"/>
  </g>
    <path d="M99 129 C 82 139, 70 168, 68 207 C 67 227, 73 237, 70 246 L 84 241 C 87 202, 92 170, 107 141 Z" fill="#57121E"/>
    <path d="M70 246 C 73 237, 67 227, 68 207 C 70 168, 82 139, 99 129" fill="none" stroke="#C8922A" stroke-width="1.5" opacity=".9"/>
    <path d="M63 262 C 60 224, 73 191, 80 167 L 107 167 C 113 197, 118 229, 117 261 Q 90 267 63 262 Z" fill="#7A1E2B"/>
    <path d="M86 170 C 89 200, 92 230, 91 259 M97 170 C 101 201, 104 229, 103 260" stroke="#57121E" stroke-width="1.3" fill="none" opacity=".6"/>
    <path d="M63.5 257.5 Q 90 263.5 116.7 256.8" fill="none" stroke="#C8922A" stroke-width="2.4"/>
    <path d="M63.8 251.5 Q 90 257.5 116.9 250.9" fill="none" stroke="#C8922A" stroke-width="1.1" opacity=".8"/>
    <ellipse cx="109" cy="260.5" rx="7" ry="3.2" fill="#B5512E"/>
    <path d="M103 124 L114 127 L111 139 L100 136 Z" fill="#B5512E"/>
    <path d="M80 167 C 81 149, 89 138, 99 131 L 112 137 C 114 147, 111 158, 107 167 Z" fill="#7A1E2B"/>
    <path d="M99 131 C 104 137, 108 146, 108 153" fill="none" stroke="#57121E" stroke-width="3" opacity=".6"/>
    <circle cx="109" cy="112" r="12.4" fill="#33241A"/>
    <circle cx="112" cy="115" r="12" fill="#B5512E"/>
    <path d="M123 114 q 4.6 2.6 1 6.4 l -3.4 -1.2 Z" fill="#B5512E"/>
    <circle cx="99" cy="107" r="6.4" fill="#33241A"/>
    <circle cx="95.6" cy="104" r="2" fill="#C8922A"/>
    <circle cx="118.5" cy="116" r="4.3" fill="none" stroke="#33241A" stroke-width="1.4"/>
    <path d="M114.2 115.4 L106 114.4" stroke="#33241A" stroke-width="1.3"/>
    <circle cx="110" cy="122" r="1.7" fill="#C8922A"/>
    <g>
    <path d="M101 134 L129.54 143.24 L165 142" fill="none" stroke="#B5512E" stroke-width="8.4" stroke-linecap="round" stroke-linejoin="round"/>
    <path d="M101 134 L121.55 140.65" stroke="#57121E" stroke-width="9.8" stroke-linecap="round"/>
    <path d="M155.6 137.12 L155.96 147.52 M159.5 136.99 L159.86 147.38 " stroke="#C8922A" stroke-width="1.8"/>
  </g>
  </g>
<g opacity=".82">
    <text x="247" y="101" transform="rotate(-7 247 101)" text-anchor="middle" font-family="'Caveat',cursive" font-size="15" font-weight="600" fill="#33241A">the ravi</text>
    <path d="M228 106 Q 228 101.5 214 97" fill="none" stroke="#33241A" stroke-width="1.3"/>
    <path d="M220.75 95.6 L214 97 L218.67 102.07" fill="none" stroke="#33241A" stroke-width="1.3" stroke-linecap="round"/>
  </g></g>
    <g><polyline points="122.43 225.41 138.58 199.63 160.73 177.98 187.67 161.63 217.98 151.45 250 148 282.02 151.45 312.33 161.63 339.27 177.98 361.42 199.63 377.57 225.41" fill="none" stroke="#C8922A" stroke-width="1.1" opacity=".9"/><path d="M118.93 226.41 L125.93 226.41 L122.43 234.81 Z" fill="#C98A3B"/><path d="M135.08 200.63 L142.08 200.63 L138.58 209.03 Z" fill="#C8922A"/><path d="M157.23 178.98 L164.23 178.98 L160.73 187.38 Z" fill="#C98A3B"/><path d="M184.17 162.63 L191.17 162.63 L187.67 171.03 Z" fill="#C8922A"/><path d="M214.48 152.45 L221.48 152.45 L217.98 160.85 Z" fill="#C98A3B"/><path d="M246.5 149 L253.5 149 L250 157.4 Z" fill="#C8922A"/><path d="M278.52 152.45 L285.52 152.45 L282.02 160.85 Z" fill="#C98A3B"/><path d="M308.83 162.63 L315.83 162.63 L312.33 171.03 Z" fill="#C8922A"/><path d="M335.77 178.98 L342.77 178.98 L339.27 187.38 Z" fill="#C98A3B"/><path d="M357.92 200.63 L364.92 200.63 L361.42 209.03 Z" fill="#C8922A"/><path d="M374.07 226.41 L381.07 226.41 L377.57 234.81 Z" fill="#C98A3B"/><circle cx="129.7" cy="214.68" r="1.6" fill="#B5512E"/><circle cx="148.97" cy="190.81" r="1.6" fill="#B5512E"/><circle cx="173.69" cy="171.68" r="1.6" fill="#B5512E"/><circle cx="202.5" cy="158.33" r="1.6" fill="#B5512E"/><circle cx="233.88" cy="151.47" r="1.6" fill="#B5512E"/><circle cx="266.12" cy="151.47" r="1.6" fill="#B5512E"/><circle cx="297.5" cy="158.33" r="1.6" fill="#B5512E"/><circle cx="326.31" cy="171.68" r="1.6" fill="#B5512E"/><circle cx="351.03" cy="190.81" r="1.6" fill="#B5512E"/><circle cx="370.3" cy="214.68" r="1.6" fill="#B5512E"/></g>
  </g>
  <path d="M105 422 L105 276.4 A51.9 51.9 0 0 1 132.69 197.4 A54.19 54.19 0 0 1 205.19 148.58 A55.56 55.56 0 0 1 294.81 148.58 A54.19 54.19 0 0 1 367.31 197.4 A51.9 51.9 0 0 1 395 276.4 L395 422 Z" fill="none" stroke="#C8922A" stroke-width="1.2"/>
  <path d="M97 430 L97 276.08 A54.85 54.85 0 0 1 126.22 192.57 A57.22 57.22 0 0 1 202.72 140.95 A58.63 58.63 0 0 1 297.28 140.95 A57.22 57.22 0 0 1 373.78 192.57 A54.85 54.85 0 0 1 403 276.08 L403 430 Z" fill="none" stroke="#C98A3B" stroke-width="3"/>
  <g opacity=".9"><circle cx="66" cy="186" r="2.1" fill="#C8922A"/><circle cx="63.95" cy="190.95" r="2.1" fill="#C8922A"/><circle cx="59" cy="193" r="2.1" fill="#C8922A"/><circle cx="54.05" cy="190.95" r="2.1" fill="#C8922A"/><circle cx="52" cy="186" r="2.1" fill="#C8922A"/><circle cx="54.05" cy="181.05" r="2.1" fill="#C8922A"/><circle cx="59" cy="179" r="2.1" fill="#C8922A"/><circle cx="63.95" cy="181.05" r="2.1" fill="#C8922A"/><circle cx="59" cy="186" r="2.94" fill="#C98A3B"/></g><g opacity=".9"><circle cx="448" cy="186" r="2.1" fill="#C8922A"/><circle cx="445.95" cy="190.95" r="2.1" fill="#C8922A"/><circle cx="441" cy="193" r="2.1" fill="#C8922A"/><circle cx="436.05" cy="190.95" r="2.1" fill="#C8922A"/><circle cx="434" cy="186" r="2.1" fill="#C8922A"/><circle cx="436.05" cy="181.05" r="2.1" fill="#C8922A"/><circle cx="441" cy="179" r="2.1" fill="#C8922A"/><circle cx="445.95" cy="181.05" r="2.1" fill="#C8922A"/><circle cx="441" cy="186" r="2.94" fill="#C98A3B"/></g>

  <!-- bilingual name block -->
  <g filter="url(#press-butter-flat)" font-family="'Yatra One','Noto Sans Devanagari',serif" text-anchor="middle" font-size="46">
    <text x="252.2" y="482.2" fill="#8F5E20" opacity=".9">बटर चकली</text>
    <text x="250" y="480" fill="#33241A">बटर चकली</text>
  </g>
  <g><path d="M150 493 L236 493 M264 493 L350 493" stroke="#C8922A" stroke-width="1.2"/><rect x="246.5" y="489.5" width="7" height="7" transform="rotate(45 250 493)" fill="#C98A3B"/></g>
  <text x="250" y="517" text-anchor="middle" font-weight="800" font-size="16" letter-spacing="5" fill="#C98A3B">BUTTER CHAKLI</text>
  <text x="250" y="535" text-anchor="middle" font-weight="700" font-size="9" letter-spacing="2.4" fill="#33241A" opacity=".6">WHITE-BUTTER SHORT · MELT CRUNCH</text>

  <!-- truth strip -->
  <text x="250" y="565" text-anchor="middle" font-family="'Yatra One','Noto Sans Devanagari',serif" font-size="15.5" fill="#33241A">तांदूळ · लोणी · जिरे · मीठ — बस्स.</text>
  <path d="M140 574 q 110 8 220 0" fill="none" stroke="#C8922A" stroke-width="1.4" stroke-linecap="round"/>
  <text x="250" y="590" text-anchor="middle" font-size="10.5" font-style="italic" font-family="'Fraunces',serif" fill="#6B573F">rice · white butter · cumin · salt — that’s all.</text>

  <!-- meta row: photo porthole / caption / veg / batch stamp -->
  <g>
    <clipPath id="ph-butter-flat"><circle cx="110" cy="614" r="25"/></clipPath>
    <circle cx="110" cy="614" r="28" fill="none" stroke="#C98A3B" stroke-width="1.1"/>
    <circle cx="110" cy="614" r="25" fill="#33241A"/>
    <g clip-path="url(#ph-butter-flat)">
      <image href="../../../images/chakli-2.jpg" x="78" y="582" width="64" height="64" preserveAspectRatio="xMidYMid slice" style="filter:saturate(1.25) contrast(1.06) brightness(1.04)"/>
      <circle cx="110" cy="614" r="25" fill="#C98A3B" style="mix-blend-mode:multiply" opacity=".12"/>
    </g>
    <circle cx="110" cy="614" r="25" fill="none" stroke="#C8922A" stroke-width="2"/>
  </g>
  <text x="146" y="608" font-family="'Yatra One','Noto Sans Devanagari',serif" font-size="11.5" fill="#33241A">आत हेच आहे —</text>
  <text x="146" y="624" font-size="8.5" font-style="italic" font-family="'Fraunces',serif" fill="#6B573F">the real batch, un-retouched</text>
  <g><rect x="284" y="606" width="15" height="15" fill="none" stroke="#2E7D32" stroke-width="1.6"/><circle cx="291.5" cy="613.5" r="4.05" fill="#2E7D32"/></g>
  <g transform="rotate(-4 400 611)" opacity=".9">
    <rect x="334" y="586" width="132" height="50" rx="5" fill="none" stroke="#93401F" stroke-width="2"/>
    <rect x="338" y="590" width="124" height="42" rx="3" fill="none" stroke="#93401F" stroke-width=".8" stroke-dasharray="3 2.4"/>
    <text x="400" y="601.5" text-anchor="middle" font-family="'Courier Prime',monospace" font-weight="700" font-size="10" letter-spacing="1.1" fill="#93401F">BATCH SB-12</text><text x="400" y="614.5" text-anchor="middle" font-family="'Courier Prime',monospace" font-weight="700" font-size="10" letter-spacing="1.1" fill="#93401F">PACKED 08·07·26</text><text x="400" y="627.5" text-anchor="middle" font-family="'Courier Prime',monospace" font-weight="700" font-size="10" letter-spacing="1.1" fill="#93401F">NET WT 200 g</text></g>

  <!-- footer band -->
  <rect x="22" y="645" width="456" height="33" fill="#C98A3B"/>
  <text x="250" y="666" text-anchor="middle" font-size="9.5" font-weight="800" letter-spacing="2.2" fill="#F6EDDB">MADE IN A HOME KITCHEN · KOTHRUD, PUNE · NO PRESERVATIVES</text>
</g>
</svg>