<svg xmlns="http://www.w3.org/2000/svg" viewBox="0 0 560 620" font-family="'Mulish',system-ui,sans-serif">
<defs>
  <style>@import url('https://fonts.googleapis.com/css2?family=Fraunces:ital,opsz,wght@0,9..144,400..700;1,9..144,400..700&amp;family=Yatra+One&amp;family=Noto+Sans+Devanagari:wght@400;600&amp;family=Mulish:wght@400;600;700;800&amp;display=swap');</style>
  <linearGradient id="foil-hn-tin" x1="0" y1="0" x2="560" y2="620" gradientUnits="userSpaceOnUse">
    <stop offset="0" stop-color="#7A5717"/><stop offset=".26" stop-color="#D4A23C"/>
    <stop offset=".44" stop-color="#F4DE9B"/><stop offset=".6" stop-color="#D4A23C"/>
    <stop offset="1" stop-color="#7A5717"/>
  </linearGradient>
  <linearGradient id="glint-hn-tin" x1="171" y1="380" x2="317.4" y2="481.76" gradientUnits="userSpaceOnUse">
    <stop offset="0" stop-color="#FFF3C6" stop-opacity="0"/>
    <stop offset=".42" stop-color="#FFF3C6" stop-opacity="0"/>
    <stop offset=".5" stop-color="#FFF3C6" stop-opacity=".9"/>
    <stop offset=".58" stop-color="#FFF3C6" stop-opacity="0"/>
    <stop offset="1" stop-color="#FFF3C6" stop-opacity="0"/>
  </linearGradient>
  <linearGradient id="sheen-hn-tin" x1="0" y1="0" x2="1" y2="1">
    <stop offset="0" stop-color="#fff" stop-opacity=".05"/><stop offset=".35" stop-color="#fff" stop-opacity="0"/>
    <stop offset=".78" stop-color="#000" stop-opacity="0"/><stop offset="1" stop-color="#000" stop-opacity=".22"/>
  </linearGradient>
  <radialGradient id="winsh-hn-tin" cx=".5" cy=".35" r=".78">
    <stop offset=".58" stop-color="#000" stop-opacity="0"/><stop offset="1" stop-color="#000" stop-opacity=".5"/>
  </radialGradient>
  <filter id="grain-hn-tin"><feTurbulence type="fractalNoise" baseFrequency=".8" numOctaves="2" stitchTiles="stitch" result="n"/><feColorMatrix in="n" type="saturate" values="0"/><feComponentTransfer><feFuncA type="linear" slope=".05"/></feComponentTransfer><feComposite operator="over" in2="SourceGraphic"/></filter>
  <filter id="press-hn-tin" x="-8%" y="-8%" width="116%" height="116%"><feOffset dx="0" dy="1.4" in="SourceAlpha" result="o"/><feGaussianBlur stdDeviation=".7" in="o" result="b"/><feComposite in="b" in2="SourceAlpha" operator="out" result="s"/><feFlood flood-color="#000" flood-opacity=".5"/><feComposite in2="s" operator="in" result="sh"/><feMerge><feMergeNode in="SourceGraphic"/><feMergeNode in="sh"/></feMerge></filter>
  <clipPath id="win-hn-tin"><path d="M201 506 L201 458 A28.09 28.09 0 0 1 216.09 415.28 A29.46 29.46 0 0 1 255.59 388.88 A30.27 30.27 0 0 1 304.41 388.88 A29.46 29.46 0 0 1 343.91 415.28 A28.09 28.09 0 0 1 359 458 L359 506 Z"/></clipPath>
  <linearGradient id="drum-hn-tin" x1="0" y1="0" x2="1" y2="0">
    <stop offset="0" stop-color="#000" stop-opacity=".5"/><stop offset=".14" stop-color="#000" stop-opacity=".08"/>
    <stop offset=".36" stop-color="#fff" stop-opacity=".1"/><stop offset=".6" stop-color="#fff" stop-opacity="0"/>
    <stop offset="1" stop-color="#000" stop-opacity=".55"/>
  </linearGradient>
  <linearGradient id="lid-hn-tin" x1="0" y1="0" x2="0" y2="1">
    <stop offset="0" stop-color="#fff" stop-opacity=".16"/><stop offset="1" stop-color="#000" stop-opacity=".3"/>
  </linearGradient>
  <path id="bandarc-hn-tin" d="M104 507.28 L110.29 509.45 L116.57 511.4 L122.86 513.17 L129.14 514.78 L135.43 516.26 L141.71 517.63 L148 518.89 L154.29 520.05 L160.57 521.13 L166.86 522.12 L173.14 523.04 L179.43 523.89 L185.71 524.68 L192 525.4 L198.29 526.06 L204.57 526.66 L210.86 527.21 L217.14 527.71 L223.43 528.15 L229.71 528.55 L236 528.89 L242.29 529.19 L248.57 529.44 L254.86 529.64 L261.14 529.8 L267.43 529.91 L273.71 529.98 L280 530 L286.29 529.98 L292.57 529.91 L298.86 529.8 L305.14 529.64 L311.43 529.44 L317.71 529.19 L324 528.89 L330.29 528.55 L336.57 528.15 L342.86 527.71 L349.14 527.21 L355.43 526.66 L361.71 526.06 L368 525.4 L374.29 524.68 L380.57 523.89 L386.86 523.04 L393.14 522.12 L399.43 521.13 L405.71 520.05 L412 518.89 L418.29 517.63 L424.57 516.26 L430.86 514.78 L437.14 513.17 L443.43 511.4 L449.71 509.45 L456 507.28"/>
</defs>

<g filter="url(#grain-hn-tin)">
  <!-- contact shadow -->
  <ellipse cx="280" cy="583" rx="222" ry="15" fill="#000" opacity=".32"/>

  <!-- drum -->
  <path d="M70 130 L70 530 A 210 50 0 0 0 490 530 L490 130 Z" fill="#1E1A17"/>

  <!-- wrap band (soft-black paper over metal) -->
  <path d="M70 190 L70 500 A 210 50 0 0 0 490 500 L490 190 A 210 50 0 0 0 70 190 Z" fill="#27211B"/>
  <path d="M70 190 L77.5 203.24 L85 208.56 L92.5 212.52 L100 215.75 L107.5 218.52 L115 220.93 L122.5 223.07 L130 224.99 L137.5 226.73 L145 228.3 L152.5 229.73 L160 231.03 L167.5 232.22 L175 233.3 L182.5 234.28 L190 235.18 L197.5 235.98 L205 236.7 L212.5 237.35 L220 237.92 L227.5 238.41 L235 238.84 L242.5 239.2 L250 239.49 L257.5 239.71 L265 239.87 L272.5 239.97 L280 240 L287.5 239.97 L295 239.87 L302.5 239.71 L310 239.49 L317.5 239.2 L325 238.84 L332.5 238.41 L340 237.92 L347.5 237.35 L355 236.7 L362.5 235.98 L370 235.18 L377.5 234.28 L385 233.3 L392.5 232.22 L400 231.03 L407.5 229.73 L415 228.3 L422.5 226.73 L430 224.99 L437.5 223.07 L445 220.93 L452.5 218.52 L460 215.75 L467.5 212.52 L475 208.56 L482.5 203.24 L490 190" fill="none" stroke="url(#foil-hn-tin)" stroke-width="1.2"/>
  <path d="M70 500 L77.5 513.24 L85 518.56 L92.5 522.52 L100 525.75 L107.5 528.52 L115 530.93 L122.5 533.07 L130 534.99 L137.5 536.73 L145 538.3 L152.5 539.73 L160 541.03 L167.5 542.22 L175 543.3 L182.5 544.28 L190 545.18 L197.5 545.98 L205 546.7 L212.5 547.35 L220 547.92 L227.5 548.41 L235 548.84 L242.5 549.2 L250 549.49 L257.5 549.71 L265 549.87 L272.5 549.97 L280 550 L287.5 549.97 L295 549.87 L302.5 549.71 L310 549.49 L317.5 549.2 L325 548.84 L332.5 548.41 L340 547.92 L347.5 547.35 L355 546.7 L362.5 545.98 L370 545.18 L377.5 544.28 L385 543.3 L392.5 542.22 L400 541.03 L407.5 539.73 L415 538.3 L422.5 536.73 L430 534.99 L437.5 533.07 L445 530.93 L452.5 528.52 L460 525.75 L467.5 522.52 L475 518.56 L482.5 513.24 L490 500" fill="none" stroke="url(#foil-hn-tin)" stroke-width="1.2"/>
  <path d="M74 206.71 L81.36 213.22 L88.71 217.63 L96.07 221.13 L103.43 224.07 L110.79 226.61 L118.14 228.86 L125.5 230.86 L132.86 232.67 L140.21 234.31 L147.57 235.8 L154.93 237.16 L162.29 238.41 L169.64 239.54 L177 240.57 L184.36 241.51 L191.71 242.37 L199.07 243.14 L206.43 243.83 L213.79 244.45 L221.14 245 L228.5 245.47 L235.86 245.88 L243.21 246.23 L250.57 246.51 L257.93 246.72 L265.29 246.88 L272.64 246.97 L280 247 L287.36 246.97 L294.71 246.88 L302.07 246.72 L309.43 246.51 L316.79 246.23 L324.14 245.88 L331.5 245.47 L338.86 245 L346.21 244.45 L353.57 243.83 L360.93 243.14 L368.29 242.37 L375.64 241.51 L383 240.57 L390.36 239.54 L397.71 238.41 L405.07 237.16 L412.43 235.8 L419.79 234.31 L427.14 232.67 L434.5 230.86 L441.86 228.86 L449.21 226.61 L456.57 224.07 L463.93 221.13 L471.29 217.63 L478.64 213.22 L486 206.71" fill="none" stroke="#D4A23C" stroke-width=".55" stroke-dasharray="1 3" opacity=".7"/>
  <path d="M74 502.71 L81.36 509.22 L88.71 513.63 L96.07 517.13 L103.43 520.07 L110.79 522.61 L118.14 524.86 L125.5 526.86 L132.86 528.67 L140.21 530.31 L147.57 531.8 L154.93 533.16 L162.29 534.41 L169.64 535.54 L177 536.57 L184.36 537.51 L191.71 538.37 L199.07 539.14 L206.43 539.83 L213.79 540.45 L221.14 541 L228.5 541.47 L235.86 541.88 L243.21 542.23 L250.57 542.51 L257.93 542.72 L265.29 542.88 L272.64 542.97 L280 543 L287.36 542.97 L294.71 542.88 L302.07 542.72 L309.43 542.51 L316.79 542.23 L324.14 541.88 L331.5 541.47 L338.86 541 L346.21 540.45 L353.57 539.83 L360.93 539.14 L368.29 538.37 L375.64 537.51 L383 536.57 L390.36 535.54 L397.71 534.41 L405.07 533.16 L412.43 531.8 L419.79 530.31 L427.14 528.67 L434.5 526.86 L441.86 524.86 L449.21 522.61 L456.57 520.07 L463.93 517.13 L471.29 513.63 L478.64 509.22 L486 502.71" fill="none" stroke="#D4A23C" stroke-width=".55" stroke-dasharray="1 3" opacity=".7"/>

  <!-- paithani kuyri row following the curve -->
  <path d="M102 228.53 L108.36 230.81 L114.71 232.84 L121.07 234.68 L127.43 236.36 L133.79 237.89 L140.14 239.3 L146.5 240.6 L152.86 241.79 L159.21 242.9 L165.57 243.93 L171.93 244.87 L178.29 245.74 L184.64 246.55 L191 247.29 L197.36 247.97 L203.71 248.58 L210.07 249.15 L216.43 249.65 L222.79 250.11 L229.14 250.51 L235.5 250.86 L241.86 251.17 L248.21 251.42 L254.57 251.63 L260.93 251.79 L267.29 251.91 L273.64 251.98 L280 252 L286.36 251.98 L292.71 251.91 L299.07 251.79 L305.43 251.63 L311.79 251.42 L318.14 251.17 L324.5 250.86 L330.86 250.51 L337.21 250.11 L343.57 249.65 L349.93 249.15 L356.29 248.58 L362.64 247.97 L369 247.29 L375.36 246.55 L381.71 245.74 L388.07 244.87 L394.43 243.93 L400.79 242.9 L407.14 241.79 L413.5 240.6 L419.86 239.3 L426.21 237.89 L432.57 236.36 L438.93 234.68 L445.29 232.84 L451.64 230.81 L458 228.53" fill="none" stroke="#D4A23C" stroke-width=".8" opacity=".8"/>
  <path d="M102 252.53 L108.36 254.81 L114.71 256.84 L121.07 258.68 L127.43 260.36 L133.79 261.89 L140.14 263.3 L146.5 264.6 L152.86 265.79 L159.21 266.9 L165.57 267.93 L171.93 268.87 L178.29 269.74 L184.64 270.55 L191 271.29 L197.36 271.97 L203.71 272.58 L210.07 273.15 L216.43 273.65 L222.79 274.11 L229.14 274.51 L235.5 274.86 L241.86 275.17 L248.21 275.42 L254.57 275.63 L260.93 275.79 L267.29 275.91 L273.64 275.98 L280 276 L286.36 275.98 L292.71 275.91 L299.07 275.79 L305.43 275.63 L311.79 275.42 L318.14 275.17 L324.5 274.86 L330.86 274.51 L337.21 274.11 L343.57 273.65 L349.93 273.15 L356.29 272.58 L362.64 271.97 L369 271.29 L375.36 270.55 L381.71 269.74 L388.07 268.87 L394.43 267.93 L400.79 266.9 L407.14 265.79 L413.5 264.6 L419.86 263.3 L426.21 261.89 L432.57 260.36 L438.93 258.68 L445.29 256.84 L451.64 254.81 L458 252.53" fill="none" stroke="#D4A23C" stroke-width=".8" opacity=".8"/>
  <rect x="107" y="239" width="10" height="10" fill="none" stroke="#D4A23C" stroke-width=".9" transform="rotate(45 112 244)"/><rect x="131" y="245.39" width="10" height="10" fill="#7A1E2B" stroke="#D4A23C" stroke-width=".9" transform="rotate(45 136 250.39)"/><rect x="155" y="250.03" width="10" height="10" fill="none" stroke="#D4A23C" stroke-width=".9" transform="rotate(45 160 255.03)"/><circle cx="190.2" cy="258.47" r="1.5" fill="none" stroke="#D4A23C" stroke-width=".8"/><circle cx="188.38" cy="262.85" r="1.5" fill="none" stroke="#D4A23C" stroke-width=".8"/><circle cx="184" cy="264.67" r="1.5" fill="none" stroke="#D4A23C" stroke-width=".8"/><circle cx="179.62" cy="262.85" r="1.5" fill="none" stroke="#D4A23C" stroke-width=".8"/><circle cx="177.8" cy="258.47" r="1.5" fill="none" stroke="#D4A23C" stroke-width=".8"/><circle cx="179.62" cy="254.09" r="1.5" fill="none" stroke="#D4A23C" stroke-width=".8"/><circle cx="184" cy="252.27" r="1.5" fill="none" stroke="#D4A23C" stroke-width=".8"/><circle cx="188.38" cy="254.09" r="1.5" fill="none" stroke="#D4A23C" stroke-width=".8"/><circle cx="184" cy="258.47" r="2" fill="#A62A6E"/><rect x="203" y="255.97" width="10" height="10" fill="none" stroke="#D4A23C" stroke-width=".9" transform="rotate(45 208 260.97)"/><rect x="227" y="257.68" width="10" height="10" fill="#7A1E2B" stroke="#D4A23C" stroke-width=".9" transform="rotate(45 232 262.68)"/><rect x="251" y="258.67" width="10" height="10" fill="none" stroke="#D4A23C" stroke-width=".9" transform="rotate(45 256 263.67)"/><rect x="275" y="259" width="10" height="10" fill="#7A1E2B" stroke="#D4A23C" stroke-width=".9" transform="rotate(45 280 264)"/><rect x="299" y="258.67" width="10" height="10" fill="none" stroke="#D4A23C" stroke-width=".9" transform="rotate(45 304 263.67)"/><circle cx="334.2" cy="262.68" r="1.5" fill="none" stroke="#D4A23C" stroke-width=".8"/><circle cx="332.38" cy="267.06" r="1.5" fill="none" stroke="#D4A23C" stroke-width=".8"/><circle cx="328" cy="268.88" r="1.5" fill="none" stroke="#D4A23C" stroke-width=".8"/><circle cx="323.62" cy="267.06" r="1.5" fill="none" stroke="#D4A23C" stroke-width=".8"/><circle cx="321.8" cy="262.68" r="1.5" fill="none" stroke="#D4A23C" stroke-width=".8"/><circle cx="323.62" cy="258.29" r="1.5" fill="none" stroke="#D4A23C" stroke-width=".8"/><circle cx="328" cy="256.48" r="1.5" fill="none" stroke="#D4A23C" stroke-width=".8"/><circle cx="332.38" cy="258.29" r="1.5" fill="none" stroke="#D4A23C" stroke-width=".8"/><circle cx="328" cy="262.68" r="2" fill="#A62A6E"/><rect x="347" y="255.97" width="10" height="10" fill="none" stroke="#D4A23C" stroke-width=".9" transform="rotate(45 352 260.97)"/><rect x="371" y="253.47" width="10" height="10" fill="#7A1E2B" stroke="#D4A23C" stroke-width=".9" transform="rotate(45 376 258.47)"/><rect x="395" y="250.03" width="10" height="10" fill="none" stroke="#D4A23C" stroke-width=".9" transform="rotate(45 400 255.03)"/><rect x="419" y="245.39" width="10" height="10" fill="#7A1E2B" stroke="#D4A23C" stroke-width=".9" transform="rotate(45 424 250.39)"/><rect x="443" y="239" width="10" height="10" fill="none" stroke="#D4A23C" stroke-width=".9" transform="rotate(45 448 244)"/>

  <!-- lockup -->
  <g font-family="'Yatra One','Noto Sans Devanagari',serif" text-anchor="middle" font-size="44">
    <text x="280" y="332" fill="#0A0806" opacity=".8">दिवाळी फराळ</text>
    <text x="280" y="330" fill="#EFE3C8" filter="url(#press-hn-tin)">दिवाळी फराळ</text>
  </g>
  <path d="M172 344 Q 280 354 388 344" fill="none" stroke="#D4A23C" stroke-width="1" opacity=".9"/>
  <rect x="277" y="345" width="6" height="6" transform="rotate(45 280 348)" fill="#A62A6E"/>
  <text x="280" y="368" text-anchor="middle" font-size="10" font-weight="800" letter-spacing="3" fill="#EFE3C8">THE FARAL DABBA · SIX SNACKS · ONE TIN</text>

  <!-- arch window with faral photo -->
  <path d="M195 512 L195 458 A30.22 30.22 0 0 1 211.23 412.04 A31.7 31.7 0 0 1 253.73 383.63 A32.57 32.57 0 0 1 306.27 383.63 A31.7 31.7 0 0 1 348.77 412.04 A30.22 30.22 0 0 1 365 458 L365 512 Z" fill="#4A1119"/>
  <g clip-path="url(#win-hn-tin)">
    <!-- crop computed in photo px: food rect (170,375)-(444,588) of 623x830 mapped to window at scale 0.62 -->
    <image href="../../../images/faral.jpg" x="89.6" y="147.3" width="386.3" height="514.6" preserveAspectRatio="xMidYMid slice" style="filter:saturate(1.25) contrast(1.1) brightness(1)"/>
    <path d="M201 506 L201 458 A28.09 28.09 0 0 1 216.09 415.28 A29.46 29.46 0 0 1 255.59 388.88 A30.27 30.27 0 0 1 304.41 388.88 A29.46 29.46 0 0 1 343.91 415.28 A28.09 28.09 0 0 1 359 458 L359 506 Z" fill="#7A1E2B" style="mix-blend-mode:multiply" opacity=".08"/>
    <path d="M201 506 L201 458 A28.09 28.09 0 0 1 216.09 415.28 A29.46 29.46 0 0 1 255.59 388.88 A30.27 30.27 0 0 1 304.41 388.88 A29.46 29.46 0 0 1 343.91 415.28 A28.09 28.09 0 0 1 359 458 L359 506 Z" fill="#7A1E2B" style="mix-blend-mode:multiply" opacity=".14"/>
    <path d="M201 506 L201 458 A28.09 28.09 0 0 1 216.09 415.28 A29.46 29.46 0 0 1 255.59 388.88 A30.27 30.27 0 0 1 304.41 388.88 A29.46 29.46 0 0 1 343.91 415.28 A28.09 28.09 0 0 1 359 458 L359 506 Z" fill="url(#winsh-hn-tin)"/>
  </g>
  <path d="M201 506 L201 458 A28.09 28.09 0 0 1 216.09 415.28 A29.46 29.46 0 0 1 255.59 388.88 A30.27 30.27 0 0 1 304.41 388.88 A29.46 29.46 0 0 1 343.91 415.28 A28.09 28.09 0 0 1 359 458 L359 506 Z" fill="none" stroke="#D4A23C" stroke-width=".9"/>
  <path d="M195 512 L195 458 A30.22 30.22 0 0 1 211.23 412.04 A31.7 31.7 0 0 1 253.73 383.63 A32.57 32.57 0 0 1 306.27 383.63 A31.7 31.7 0 0 1 348.77 412.04 A30.22 30.22 0 0 1 365 458 L365 512 Z" fill="none" stroke="url(#foil-hn-tin)" stroke-width="2.8"/>
  <path d="M195 512 L195 458 A30.22 30.22 0 0 1 211.23 412.04 A31.7 31.7 0 0 1 253.73 383.63 A32.57 32.57 0 0 1 306.27 383.63 A31.7 31.7 0 0 1 348.77 412.04 A30.22 30.22 0 0 1 365 458 L365 512 Z" fill="none" stroke="url(#glint-hn-tin)" stroke-width="2.8"/>

  <!-- flanking filigree -->
  <g transform="rotate(90 150 448)" fill="none" stroke="#D4A23C" stroke-width=".9" opacity=".8" stroke-linecap="round"><g transform="rotate(0 150 448)">
      <path d="M150 448 q 3.96 -12.1 0 -20.9 q -3.96 8.8 0 20.9"/>
    </g><g transform="rotate(45 150 448)">
      <path d="M150 448 q 3.96 -12.1 0 -20.9 q -3.96 8.8 0 20.9"/>
    </g><circle cx="158.84" cy="426.66" r="1.8" fill="#A62A6E" stroke="none"/><circle cx="141.16" cy="426.66" r="1.4" fill="#D4A23C" stroke="none"/></g>
  <g transform="rotate(-90 410 448)" fill="none" stroke="#D4A23C" stroke-width=".9" opacity=".8" stroke-linecap="round"><g transform="rotate(0 410 448)">
      <path d="M410 448 q 3.96 -12.1 0 -20.9 q -3.96 8.8 0 20.9"/>
    </g><g transform="rotate(45 410 448)">
      <path d="M410 448 q 3.96 -12.1 0 -20.9 q -3.96 8.8 0 20.9"/>
    </g><circle cx="418.84" cy="426.66" r="1.8" fill="#A62A6E" stroke="none"/><circle cx="401.16" cy="426.66" r="1.4" fill="#D4A23C" stroke="none"/></g>
  <path d="M150 492.9 L150.3 492.82 L150.65 492.82 L151.01 492.93 L151.35 493.15 L151.63 493.47 L151.84 493.88 L151.93 494.37 L151.89 494.89 L151.7 495.41 L151.37 495.89 L150.9 496.28 L150.32 496.56 L149.66 496.68 L148.96 496.63 L148.27 496.39 L147.63 495.96 L147.11 495.36 L146.74 494.62 L146.56 493.78 L146.61 492.9 L146.88 492.02 L147.39 491.22 L148.1 490.55 L148.99 490.07 L150 489.82 L151.07 489.83 L152.13 490.12 L153.12 490.68 L153.95 491.49 L154.57 492.52 L154.91 493.69 L154.96 494.95 L154.68 496.2 L154.08 497.37 L153.18 498.38 L152.04 499.15 L150.71 499.62 L149.27 499.74 L147.82 499.49 L146.45 498.88 L145.26 497.92 L144.32 496.67 L143.71 495.2 L143.49 493.59 L143.68 491.95 L144.28 490.37 L145.28 488.97 L146.62 487.85 L148.22 487.08 L150 486.73 L151.84 486.84 L153.62 487.42 L155.23 488.43 L156.55 489.84 L157.5 491.56 L157.99 493.5 L157.99 495.52 L157.47 497.51 L156.45 499.34 L155 500.88" fill="none" stroke="#D4A23C" stroke-width="1" opacity=".8"/>
  <path d="M410 492.9 L410.3 492.82 L410.65 492.82 L411.01 492.93 L411.35 493.15 L411.63 493.47 L411.84 493.88 L411.93 494.37 L411.89 494.89 L411.7 495.41 L411.37 495.89 L410.9 496.28 L410.32 496.56 L409.66 496.68 L408.96 496.63 L408.27 496.39 L407.63 495.96 L407.11 495.36 L406.74 494.62 L406.56 493.78 L406.61 492.9 L406.88 492.02 L407.39 491.22 L408.1 490.55 L408.99 490.07 L410 489.82 L411.07 489.83 L412.13 490.12 L413.12 490.68 L413.95 491.49 L414.57 492.52 L414.91 493.69 L414.96 494.95 L414.68 496.2 L414.08 497.37 L413.18 498.38 L412.04 499.15 L410.71 499.62 L409.27 499.74 L407.82 499.49 L406.45 498.88 L405.26 497.92 L404.32 496.67 L403.71 495.2 L403.49 493.59 L403.68 491.95 L404.28 490.37 L405.28 488.97 L406.62 487.85 L408.22 487.08 L410 486.73 L411.84 486.84 L413.62 487.42 L415.23 488.43 L416.55 489.84 L417.5 491.56 L417.99 493.5 L417.99 495.52 L417.47 497.51 L416.45 499.34 L415 500.88" fill="none" stroke="#D4A23C" stroke-width="1" opacity=".8"/>

  <!-- curved caption along band bottom -->
  <text font-size="10.5" font-style="italic" font-family="'Fraunces',serif" fill="#C4B292"><textPath href="#bandarc-hn-tin" startOffset="50%" text-anchor="middle">packed by hand in Kothrud, Pune — send it like your maa would.</textPath></text>

  <!-- drum hoop + cylinder shading -->
  <path d="M70 520 L77.5 533.24 L85 538.56 L92.5 542.52 L100 545.75 L107.5 548.52 L115 550.93 L122.5 553.07 L130 554.99 L137.5 556.73 L145 558.3 L152.5 559.73 L160 561.03 L167.5 562.22 L175 563.3 L182.5 564.28 L190 565.18 L197.5 565.98 L205 566.7 L212.5 567.35 L220 567.92 L227.5 568.41 L235 568.84 L242.5 569.2 L250 569.49 L257.5 569.71 L265 569.87 L272.5 569.97 L280 570 L287.5 569.97 L295 569.87 L302.5 569.71 L310 569.49 L317.5 569.2 L325 568.84 L332.5 568.41 L340 567.92 L347.5 567.35 L355 566.7 L362.5 565.98 L370 565.18 L377.5 564.28 L385 563.3 L392.5 562.22 L400 561.03 L407.5 559.73 L415 558.3 L422.5 556.73 L430 554.99 L437.5 553.07 L445 550.93 L452.5 548.52 L460 545.75 L467.5 542.52 L475 538.56 L482.5 533.24 L490 520" fill="none" stroke="#D4A23C" stroke-width=".6" opacity=".4"/>
  <path d="M70 130 L70 530 A 210 50 0 0 0 490 530 L490 130 Z" fill="url(#drum-hn-tin)"/>

  <!-- lid -->
  <ellipse cx="280" cy="130" rx="210" ry="50" fill="#29231C" stroke="#3A322A" stroke-width="1.6"/>
  <ellipse cx="280" cy="130" rx="210" ry="50" fill="url(#lid-hn-tin)"/>
  <ellipse cx="280" cy="130" rx="203" ry="46.5" fill="none" stroke="#D4A23C" stroke-width=".5" opacity=".5"/>
  <ellipse cx="280" cy="130" rx="195" ry="43" fill="none" stroke="#D4A23C" stroke-width=".9" opacity=".85"/>
  <ellipse cx="280" cy="130" rx="56" ry="28" fill="#1E1A17" stroke="url(#foil-hn-tin)" stroke-width="1.6"/>
  <g transform="translate(280 130) scale(1 .5) translate(-280 -130)">
    <path d="M280 128.2 L280.17 128.09 L280.36 128 L280.56 127.93 L280.78 127.88 L281.02 127.86 L281.26 127.86 L281.51 127.88 L281.77 127.94 L282.02 128.02 L282.28 128.14 L282.53 128.28 L282.77 128.45 L283 128.66 L283.22 128.89 L283.42 129.15 L283.59 129.44 L283.74 129.75 L283.86 130.09 L283.95 130.44 L284.01 130.81 L284.03 131.2 L284.02 131.59 L283.96 131.99 L283.87 132.39 L283.73 132.79 L283.56 133.19 L283.34 133.58 L283.08 133.95 L282.78 134.3 L282.44 134.63 L282.07 134.93 L281.66 135.21 L281.22 135.45 L280.75 135.65 L280.25 135.8 L279.73 135.92 L279.19 135.98 L278.64 136 L278.08 135.97 L277.52 135.88 L276.95 135.74 L276.39 135.54 L275.85 135.29 L275.32 134.99 L274.81 134.63 L274.33 134.22 L273.88 133.76 L273.47 133.26 L273.1 132.71 L272.78 132.12 L272.51 131.5 L272.29 130.84 L272.13 130.16 L272.03 129.45 L272 128.73 L272.03 128 L272.13 127.27 L272.3 126.54 L272.54 125.81 L272.84 125.1 L273.21 124.42 L273.65 123.76 L274.15 123.14 L274.72 122.55 L275.34 122.02 L276.01 121.53 L276.74 121.1 L277.51 120.74 L278.32 120.44 L279.16 120.22 L280.03 120.07 L280.92 119.99 L281.82 120 L282.73 120.09 L283.63 120.26 L284.53 120.52 L285.41 120.86 L286.26 121.28 L287.08 121.78 L287.86 122.36 L288.6 123.01 L289.28 123.74 L289.89 124.52 L290.44 125.37 L290.92 126.28 L291.32 127.23 L291.63 128.23 L291.86 129.25 L291.99 130.31 L292.03 131.38 L291.97 132.46 L291.82 133.54 L291.57 134.62 L291.21 135.67 L290.77 136.7 L290.22 137.7 L289.59 138.65 L288.86 139.55 L288.05 140.38 L287.17 141.15 L286.21 141.84 L285.18 142.45 L284.09 142.97 L282.95 143.39 L281.77 143.71 L280.56 143.93 L279.32 144.04 L278.06 144.04 L276.8 143.92 L275.55 143.7 L274.31 143.35 L273.1 142.9 L271.92 142.33 L270.79 141.66 L269.72 140.89 L268.71 140.01 L267.78 139.04 L266.93 137.98 L266.17 136.85 L265.51 135.64 L264.96 134.37 L264.52 133.04 L264.2 131.68 L264 130.27 L263.92 128.85 L263.97 127.41 L264.15 125.98 L264.46 124.56 L264.9 123.16 L265.47 121.79 L266.15 120.47 L266.96 119.21 L267.89 118.02 L268.92 116.91 L270.05 115.89 L271.28 114.97 L272.6 114.15 L273.99 113.45 L275.45 112.87 L276.96 112.42 L278.51 112.11 L280.1 111.93 L281.71 111.9 L283.33 112.01 L284.93 112.26 L286.52 112.66 L288.08 113.2 L289.59 113.89 L291.05 114.7 L292.43 115.65 L293.73 116.73 L294.94 117.92 L296.05 119.23 L297.04 120.63 L297.9 122.13 L298.64 123.71 L299.23 125.35 L299.68 127.06 L299.98 128.8 L300.12 130.57 L300.1 132.36 L299.93 134.16 L299.59 135.94 L299.1 137.69 L298.44 139.4 L297.64 141.05 L296.68 142.64 L295.58 144.14 L294.35 145.55 L292.99 146.85 L291.51 148.03 L289.93 149.07 L288.24 149.98 L286.48 150.74 L284.64 151.35 L282.75 151.79 L280.82 152.06 L278.86 152.16 L276.89 152.09 L274.92 151.84 L272.98 151.41 L271.07 150.81 L269.21 150.04 L267.41 149.1 L265.7 148 L264.09 146.75 L262.58 145.36 L261.2 143.82 L259.95 142.17 L258.85 140.4 L257.91 138.53 L257.13 136.57 L256.53 134.55 L256.11 132.47 L255.87 130.34 L255.82 128.2 L255.96 126.05 L256.29 123.91 L256.81 121.8 L257.52 119.74 L258.42 117.73 L259.49 115.81 L260.74 113.98 L262.15 112.25 L263.72 110.66 L265.43 109.2 L267.27 107.89 L269.22 106.75 L271.28 105.78 L273.43 104.99 L275.64 104.4 L277.92 104 L280.22 103.8 L282.55 103.81 L284.88 104.03 L287.19 104.45 L289.46 105.08 L291.67 105.91 L293.82 106.94 L295.87 108.16" fill="none" stroke="url(#foil-hn-tin)" stroke-width="2.8" stroke-linecap="round"/>
    <path d="M280.2 129.62 L282.07 126.08 M280.88 129.4 L284.19 127.16 M281.68 129.81 L285.66 129.38 M282.16 130.85 L285.88 132.33 M281.92 132.24 L284.51 135.28 M280.78 133.49 L281.65 137.4 M278.89 134.06 L277.83 137.92 M276.69 133.53 L273.95 136.44 M274.82 131.77 L271.04 133.07 M273.98 129.05 L270.02 128.42 M274.62 125.96 L271.42 123.56 M276.87 123.34 L275.16 119.72 M280.38 122.02 L280.56 118.02 M284.39 122.58 L286.42 119.14 M287.89 125.17 L291.3 123.08 M289.86 129.38 L293.85 129.13 M289.58 134.33 L293.22 135.97 M286.83 138.8 L289.28 141.96 M282.02 141.59 L282.71 145.54 M276.17 141.79 L274.93 145.6 M270.64 139.07 L267.77 141.85 M266.88 133.81 L263.04 134.93 M266.01 127.1 L262.09 126.29 M268.5 120.49 L265.42 117.94 M274.05 115.63 L272.52 111.94 M281.52 113.89 L281.9 109.91 M289.23 115.95 L291.43 112.61 M295.28 121.6 L298.79 119.67 M298.07 129.72 L302.07 129.65 M296.66 138.49 L300.23 140.31 M291.11 145.81 L293.41 149.09 M282.5 149.8 L283 153.77 M272.72 149.26 L271.31 153 M264.08 144.03 L261.08 146.68 M258.75 135.1 L254.86 136.03 M258.23 124.41 L254.35 123.41 M262.91 114.45 L259.95 111.75 M271.96 107.66 L270.6 103.9 M283.43 105.87 L284 101.91 " stroke="#D4A23C" stroke-width=".9" opacity=".8"/>
  </g>
</g>
</svg>